<svg xmlns="http://www.w3.org/2000/svg" xmlns:xlink="http://www.w3.org/1999/xlink" width="760.105" height="760.103" viewBox="0 0 760.105 760.103"><defs><style>.cls-1{fill:#333;}.cls-2{fill:url(#新規グラデーションスウォッチ_1);}.cls-3{fill:url(#新規グラデーションスウォッチ_1-2);}.cls-4{fill:url(#新規グラデーションスウォッチ_1-3);}</style><linearGradient id="&#x65B0;&#x898F;&#x30B0;&#x30E9;&#x30C7;&#x30FC;&#x30B7;&#x30E7;&#x30F3;&#x30B9;&#x30A6;&#x30A9;&#x30C3;&#x30C1;_1" y1="380.052" x2="760.105" y2="380.052" gradientUnits="userSpaceOnUse"><stop offset="0" stop-color="#32abde"></stop><stop offset="1" stop-color="#004981"></stop></linearGradient><linearGradient id="&#x65B0;&#x898F;&#x30B0;&#x30E9;&#x30C7;&#x30FC;&#x30B7;&#x30E7;&#x30F3;&#x30B9;&#x30A6;&#x30A9;&#x30C3;&#x30C1;_1-2" x1="237.371" y1="571.473" x2="522.734" y2="571.473" xlink:href="#&#x65B0;&#x898F;&#x30B0;&#x30E9;&#x30C7;&#x30FC;&#x30B7;&#x30E7;&#x30F3;&#x30B9;&#x30A6;&#x30A9;&#x30C3;&#x30C1;_1"></linearGradient><linearGradient id="&#x65B0;&#x898F;&#x30B0;&#x30E9;&#x30C7;&#x30FC;&#x30B7;&#x30E7;&#x30F3;&#x30B9;&#x30A6;&#x30A9;&#x30C3;&#x30C1;_1-3" x1="325.795" y1="361.548" x2="451.794" y2="361.548" xlink:href="#&#x65B0;&#x898F;&#x30B0;&#x30E9;&#x30C7;&#x30FC;&#x30B7;&#x30E7;&#x30F3;&#x30B9;&#x30A6;&#x30A9;&#x30C3;&#x30C1;_1"></linearGradient></defs><g id="&#x30EC;&#x30A4;&#x30E4;&#x30FC;_2" data-name="&#x30EC;&#x30A4;&#x30E4;&#x30FC; 2"><g id="&#x30EC;&#x30A4;&#x30E4;&#x30FC;_1-2" data-name="&#x30EC;&#x30A4;&#x30E4;&#x30FC; 1"><path class="cls-1" d="M220.175,126.379c-.315,1.5-.631,3.309-.946,5.2a144.087,144.087,0,0,0,27.253-3.386l.079,7.325a239.551,239.551,0,0,1-28.2,2.914c-.236,2.678-.473,5.592-.709,8.507a51.035,51.035,0,0,1,12.6-1.734,21.325,21.325,0,0,1,2.284.079,41.714,41.714,0,0,0,.945-5.12l7.719,1.891c-.473,1.024-1.1,2.993-1.654,4.411,9.531,2.835,15.517,10,15.517,18.9,0,11.264-7.011,21.5-25.757,24.418l-4.253-6.538c14.65-1.654,22.37-9.137,22.37-18.194,0-5.514-3.466-10.4-10-12.445-4.332,10.948-10.712,19.534-17.092,24.811.552,2.205,1.261,4.253,1.89,6.223l-7.167,2.126c-.394-1.182-.788-2.442-1.182-3.86a27.107,27.107,0,0,1-12.839,3.782c-5.435,0-9.924-3.309-9.924-10.555,0-10.161,8.664-20.637,19.612-25.757.158-3.623.473-7.325.789-10.712h-3.86c-3.7,0-9.846-.393-13.233-.552l-.236-7.325a110.916,110.916,0,0,0,13.705,1.025h4.332c.158-1.97.394-3.7.551-5.278a41.553,41.553,0,0,0,.237-4.175l8.113.237A33.041,33.041,0,0,0,220.175,126.379Zm-17.487,51.75c2.678,0,6.066-1.182,9.531-3.466a102.518,102.518,0,0,1-1.733-17.8c-7.01,4.254-11.972,11.186-11.972,16.857C198.514,176.632,199.853,178.129,202.688,178.129Zm15.911-8.665a51.37,51.37,0,0,0,11.894-17.958h-.551a36.717,36.717,0,0,0-12.524,2.205V155.6A83.445,83.445,0,0,0,218.6,169.464Z"></path><path class="cls-1" d="M303.5,130.712c-3.623,5.513-10.16,17.249-14.1,24.574a17.32,17.32,0,0,1,10.476-3.78c5.592,0,9.216,3.544,9.53,9.924.158,4.1,0,10.24.316,13.863.236,3.623,2.757,5.041,5.749,5.041,7.956,0,12.761-9.925,14.888-18.982l6.616,5.434c-4.1,13.075-11.028,21.976-22.763,21.976-8.586,0-11.894-5.277-12.131-10.4-.315-4.49-.236-10.713-.472-14.572-.158-3.071-1.969-4.962-5.2-4.962-5.907,0-11.185,5.987-14.177,12.287a144.312,144.312,0,0,0-6.459,17.723l-8.664-2.914c5.828-15.911,22.605-48.126,26.78-55.688a72.99,72.99,0,0,0,3.308-6.931l8.822,3.544C305.314,127.876,304.448,129.294,303.5,130.712Z"></path><path class="cls-1" d="M367.69,132.6c-.394,8.743-.946,26.938-.946,37.807,0,8.35,5.121,11.185,11.973,11.185,13.784,0,22.054-7.8,27.726-16.226l5.592,6.853c-5.2,7.483-15.832,17.643-33.476,17.643-11.972,0-20.006-5.119-20.006-18.194,0-11.185.788-31.507.788-39.068a45.539,45.539,0,0,0-.867-9.137l10.082.079A71.809,71.809,0,0,0,367.69,132.6Z"></path><path class="cls-1" d="M461.021,130.712c-3.623,5.513-10.161,17.249-14.1,24.574a17.318,17.318,0,0,1,10.476-3.78c5.592,0,9.215,3.544,9.53,9.924.158,4.1,0,10.24.315,13.863.237,3.623,2.757,5.041,5.75,5.041,7.956,0,12.76-9.925,14.887-18.982l6.616,5.434c-4.095,13.075-11.027,21.976-22.763,21.976-8.586,0-11.894-5.277-12.13-10.4-.315-4.49-.237-10.713-.472-14.572-.158-3.071-1.97-4.962-5.2-4.962-5.908,0-11.185,5.987-14.178,12.287a144.642,144.642,0,0,0-6.459,17.723l-8.664-2.914c5.829-15.911,22.606-48.126,26.78-55.688a72.974,72.974,0,0,0,3.309-6.931l8.821,3.544C462.832,127.876,461.966,129.294,461.021,130.712Z"></path><path class="cls-1" d="M540.646,188.368l-4.647-7.4a48.591,48.591,0,0,0,7.011-1.1c10.082-2.284,19.061-9.688,19.061-22.369,0-11.421-6.932-20.479-19.061-21.975a156.8,156.8,0,0,1-4.727,22.133c-4.726,16.068-11.263,24.968-19.061,24.968s-14.965-8.664-14.965-21.818c0-17.644,15.438-32.767,35.208-32.767,18.9,0,30.876,13.233,30.876,29.7C570.341,174.269,559.786,185.611,540.646,188.368Zm-21.188-15.123c3.545,0,7.247-5.12,10.87-17.25a125.363,125.363,0,0,0,4.332-20.321c-14.178,2.284-22.448,14.571-22.448,24.339C512.212,169.07,516.072,173.245,519.458,173.245Z"></path><path class="cls-1" d="M257.191,284.765l-6.695-6.3c14.729-5.435,21.661-12.209,21.661-33.082v-3.15H251.362v11.815a69.9,69.9,0,0,0,.394,7.64h-8.743c.079-1.1.394-4.332.394-7.64V242.232h-7.719c-3.7,0-6.931.157-8.192.315v-8.586a49.011,49.011,0,0,0,8.192.63h7.719v-9.058a43.233,43.233,0,0,0-.473-6.3h8.9a42.509,42.509,0,0,0-.473,6.3v9.058h20.795v-9.137a54.211,54.211,0,0,0-.395-6.852h8.9a51.47,51.47,0,0,0-.472,6.852v9.137h7.4a52.229,52.229,0,0,0,7.876-.473v8.35c-1.26-.157-4.017-.236-7.8-.236h-7.482v2.677C280.191,265.232,275.622,276.5,257.191,284.765Z"></path><path class="cls-1" d="M312.163,273.659l-6.774-4.647a81.763,81.763,0,0,0,14.887-20.479l7.01,3.387A117.647,117.647,0,0,1,312.163,273.659Zm32.373-48.283v7.246h19.77a52.413,52.413,0,0,0,7.01-.472v8.191c-2.284-.157-4.962-.157-6.931-.157H344.536v37.492c0,4.254-2.206,6.695-7.4,6.695a117.946,117.946,0,0,1-11.894-.551l-.709-7.8a53.89,53.89,0,0,0,8.98.866c2.047,0,2.914-.788,2.993-2.914V240.184H315.471c-2.441,0-4.962.079-7.089.236v-8.27a65.482,65.482,0,0,0,7.01.472H336.5V225.3a33.551,33.551,0,0,0-.631-6.144h9.3A42.239,42.239,0,0,0,344.536,225.376Zm29.616,43.715-7.247,4.1c-3.229-6.459-9.058-16.148-13.075-21.031l6.774-3.7C364.779,253.5,371,263.42,374.152,269.091Zm-8.035-56a8.822,8.822,0,1,1-8.821,8.822A8.875,8.875,0,0,1,366.117,213.088Zm0,13.548a4.726,4.726,0,1,0,0-9.452,4.727,4.727,0,0,0,0,9.452Z"></path><path class="cls-1" d="M399.429,245.855h42.849c3.78,0,6.852-.315,8.821-.473v9.768c-1.733-.08-5.356-.4-8.821-.4H399.429c-4.332,0-9.058.158-11.736.4v-9.768C390.292,245.54,395.176,245.855,399.429,245.855Z"></path><path class="cls-1" d="M484.568,227.738a56.965,56.965,0,0,0-.709-8.821h9.689c-.237,2.6-.552,6.065-.552,8.821v12.288c10.476,3.151,25.442,8.744,33.318,12.6l-3.544,8.585c-8.271-4.489-21.11-9.452-29.774-12.287v24.339a92.511,92.511,0,0,0,.63,10.082h-9.688a82.436,82.436,0,0,0,.63-10.082Z"></path><path class="cls-2" d="M380.053,760.1C170.491,760.1,0,589.613,0,380.053S170.491,0,380.053,0,760.105,170.491,760.105,380.053,589.615,760.1,380.053,760.1Zm0-748.211c-203,0-368.161,165.156-368.161,368.161S177.048,748.211,380.053,748.211s368.16-165.156,368.16-368.158S583.057,11.892,380.053,11.892Z"></path><path class="cls-3" d="M521.852,620.715c-2.189-9.848-37.752-156.481-45.96-160.311s-51.977-20.244-51.977-20.244l-29.648,91.372-9.746-68.493,9.746-11.936-8.105-10.943H373.943l-8.1,10.943,9.746,11.936-9.746,68.493L336.191,440.16S292.42,456.574,284.213,460.4s-43.771,150.463-45.96,160.311-.547,24.074,7.66,36.111,19.15,31.734,19.15,31.734,1.641-22.98,26.262-22.98,39.942,15.32,39.942,22.98-5.472,14.226-5.472,14.226H434.31s-5.471-6.566-5.471-14.226,15.32-22.98,39.941-22.98,26.262,22.98,26.262,22.98,10.943-19.7,19.15-31.734S524.041,630.564,521.852,620.715ZM284.76,628.922s7.113-28.451,16.961-48.148L305,655.732ZM455.1,655.732l3.282-74.958c9.848,19.7,16.962,48.148,16.962,48.148Z"></path><path class="cls-4" d="M444.226,369.89h-9.96c.557-21.981-3.571-71.986-52.663-71.986-24.073,0-55.808,18.056-55.808,67.3,0,0,25.716-7.113,36.659-33.649,0,0,22.494,35.19,69.567,48.063v21.441L420.167,414.6H403.539c-1.176-3.8-5.641-6.625-10.983-6.625-6.24,0-11.3,3.853-11.3,8.607s5.057,8.607,11.3,8.607c5.342,0,9.807-2.829,10.983-6.625h18.427l13.915-15.9h6.433a9.594,9.594,0,0,0,9.48-9.479V380.052C451.794,375.036,448.167,369.89,444.226,369.89Z"></path></g></g></svg>