<svg xmlns="http://www.w3.org/2000/svg" xmlns:xlink="http://www.w3.org/1999/xlink" width="760.105" height="760.103" viewBox="0 0 760.105 760.103"><defs><style>.cls-1{fill:#333;}.cls-2{fill:url(#新規グラデーションスウォッチ_1);}.cls-3{fill:url(#新規グラデーションスウォッチ_1-2);}.cls-4{fill:url(#新規グラデーションスウォッチ_1-3);}.cls-5{fill:url(#新規グラデーションスウォッチ_1-4);}.cls-6{fill:#003752;}.cls-7{fill:#e8a93e;}.cls-8{fill:#fff;}.cls-9{fill:#0c2847;}.cls-10{fill:url(#新規グラデーションスウォッチ_1-5);}</style><linearGradient id="&#x65B0;&#x898F;&#x30B0;&#x30E9;&#x30C7;&#x30FC;&#x30B7;&#x30E7;&#x30F3;&#x30B9;&#x30A6;&#x30A9;&#x30C3;&#x30C1;_1" y1="380.052" x2="760.105" y2="380.052" gradientUnits="userSpaceOnUse"><stop offset="0" stop-color="#32abde"></stop><stop offset="1" stop-color="#004981"></stop></linearGradient><linearGradient id="&#x65B0;&#x898F;&#x30B0;&#x30E9;&#x30C7;&#x30FC;&#x30B7;&#x30E7;&#x30F3;&#x30B9;&#x30A6;&#x30A9;&#x30C3;&#x30C1;_1-2" x1="299.794" y1="644.726" x2="462.245" y2="644.726" xlink:href="#&#x65B0;&#x898F;&#x30B0;&#x30E9;&#x30C7;&#x30FC;&#x30B7;&#x30E7;&#x30F3;&#x30B9;&#x30A6;&#x30A9;&#x30C3;&#x30C1;_1"></linearGradient><linearGradient id="&#x65B0;&#x898F;&#x30B0;&#x30E9;&#x30C7;&#x30FC;&#x30B7;&#x30E7;&#x30F3;&#x30B9;&#x30A6;&#x30A9;&#x30C3;&#x30C1;_1-3" x1="189.244" y1="472.207" x2="572.795" y2="472.207" xlink:href="#&#x65B0;&#x898F;&#x30B0;&#x30E9;&#x30C7;&#x30FC;&#x30B7;&#x30E7;&#x30F3;&#x30B9;&#x30A6;&#x30A9;&#x30C3;&#x30C1;_1"></linearGradient><linearGradient id="&#x65B0;&#x898F;&#x30B0;&#x30E9;&#x30C7;&#x30FC;&#x30B7;&#x30E7;&#x30F3;&#x30B9;&#x30A6;&#x30A9;&#x30C3;&#x30C1;_1-4" x1="122.315" y1="481.398" x2="314.361" y2="481.398" xlink:href="#&#x65B0;&#x898F;&#x30B0;&#x30E9;&#x30C7;&#x30FC;&#x30B7;&#x30E7;&#x30F3;&#x30B9;&#x30A6;&#x30A9;&#x30C3;&#x30C1;_1"></linearGradient><linearGradient id="&#x65B0;&#x898F;&#x30B0;&#x30E9;&#x30C7;&#x30FC;&#x30B7;&#x30E7;&#x30F3;&#x30B9;&#x30A6;&#x30A9;&#x30C3;&#x30C1;_1-5" x1="473.481" y1="416.222" x2="637.79" y2="416.222" xlink:href="#&#x65B0;&#x898F;&#x30B0;&#x30E9;&#x30C7;&#x30FC;&#x30B7;&#x30E7;&#x30F3;&#x30B9;&#x30A6;&#x30A9;&#x30C3;&#x30C1;_1"></linearGradient></defs><g id="&#x30EC;&#x30A4;&#x30E4;&#x30FC;_2" data-name="&#x30EC;&#x30A4;&#x30E4;&#x30FC; 2"><g id="&#x30EC;&#x30A4;&#x30E4;&#x30FC;_1-2" data-name="&#x30EC;&#x30A4;&#x30E4;&#x30FC; 1"><path class="cls-1" d="M257.427,138.352c.315-1.733.551-3.544.788-5.514H227.654v-6.773h31.27c.236-2.521.315-4.963.394-7.089l8.506.393c-.236,2.2-.551,4.49-.866,6.7H296.5v6.773H265.934c-.315,1.97-.709,3.859-1.024,5.514h23.078v36.862H246.4V138.352ZM297.2,187.738H238.681v3.938h-7.168v-51.04h7.168v40.328H297.2Zm-16.462-44.03H253.331v5.277h27.411Zm0,10.318H253.331v5.435h27.411Zm0,10.4H253.331v5.436h27.411Z"></path><path class="cls-1" d="M342.882,163.557H321.143V146.938h21.739v14.728a45.723,45.723,0,0,0,8.9-7.719,78.3,78.3,0,0,1-6.538-21.109H317.913v5.908c0,9.294-1.417,22.448-8.664,31.27a26.207,26.207,0,0,0-5.356-4.49c6.537-7.956,7.325-18.9,7.325-26.859V126.931h33.16c-.315-2.521-.551-5.041-.63-7.641h6.932c.078,2.6.236,5.12.551,7.641h11.894a56.415,56.415,0,0,0-8.507-4.1l3.623-4.175a40.979,40.979,0,0,1,11.185,5.357l-2.442,2.914h7.955v5.907H352.176a70.932,70.932,0,0,0,4.332,14.887,54.917,54.917,0,0,0,5.593-11.894l6.931,1.575a67.688,67.688,0,0,1-9.058,17.25c2.757,4.332,5.75,6.853,8.507,6.853,1.811,0,2.6-2.678,2.993-9.609a20.315,20.315,0,0,0,5.671,3.229c-1.1,10.318-3.544,13-9.058,13-4.647,0-8.979-2.993-12.6-8.034a53.493,53.493,0,0,1-8.585,7.325,27.587,27.587,0,0,0-4.017-4.1Zm-38.438,22.37c5.041-3.545,8.349-9.374,10.161-15.2l6.459,2.284c-1.969,6.3-5.041,12.918-10.476,17.014Zm39.383-43.637H320.276v-4.884h23.551Zm5.435,41.746c3.229,0,3.781-.945,4.1-7.718A22.846,22.846,0,0,0,359.9,179c-.866,9.294-2.993,11.578-9.924,11.578h-14.1c-8.979,0-11.185-1.968-11.185-8.821V170.488h7.247v11.185c0,2.048.629,2.363,4.647,2.363ZM336.817,151.9h-9.688V158.6h9.688Zm-.866,12.129c4.647,2.364,10.239,6.144,12.839,9.137l-5.121,4.49c-2.441-2.993-7.876-7.01-12.523-9.531Zm27.646,5.75c5.435,4.49,11.027,10.949,13.391,15.912l-6.7,3.465c-1.969-4.805-7.4-11.5-12.681-16.226Z"></path><path class="cls-1" d="M453.305,131.5s0,2.521-.078,3.466c-1.1,35.523-2.049,47.732-5.2,51.67-1.969,2.6-3.86,3.308-6.853,3.7a84.653,84.653,0,0,1-11.893,0,17.165,17.165,0,0,0-2.364-7.089c5.041.4,9.61.473,11.579.473,1.575,0,2.442-.236,3.308-1.339,2.521-2.6,3.545-14.493,4.568-44.188H427.785a79.145,79.145,0,0,1-7.168,13.233,38.706,38.706,0,0,0-5.75-4.1v36.154H393.522v5.986h-6.695V131.893h8.821a92.213,92.213,0,0,0,2.757-12.76l7.956,1.339c-1.34,3.938-2.836,8.113-4.1,11.421h12.6v14.886c5.2-6.773,9.374-17.249,11.736-27.646l7.089,1.654c-.945,3.623-1.969,7.246-3.229,10.712Zm-59.783,6.775v14.964h14.65V138.274Zm14.65,38.752V159.618h-14.65v17.408Zm26.229-6.144c-2.2-4.805-7.325-12.523-11.5-18.194l5.75-3.23c4.175,5.435,9.531,12.917,11.894,17.565Z"></path><path class="cls-1" d="M479.055,131.656c-1.339,6.459-3.86,21.268-3.86,29.7a77.715,77.715,0,0,0,.473,8.427c1.339-3.229,2.914-7.088,4.175-10l3.938,3.151c-2.048,5.986-4.805,14.414-5.593,18.352a15.4,15.4,0,0,0-.393,3.623c0,.789.078,1.969.157,2.915l-7.167.472c-1.576-5.513-2.915-14.807-2.915-25.441,0-11.736,2.521-25.126,3.387-31.428a57.3,57.3,0,0,0,.709-6.537l8.743.788A56.538,56.538,0,0,0,479.055,131.656Zm18.825,39.462c0,3.545,2.757,6.459,12.287,6.459a84.558,84.558,0,0,0,19.613-2.127l.157,8.429a108.158,108.158,0,0,1-19.927,1.575c-13.39,0-19.534-4.647-19.534-12.288a39.9,39.9,0,0,1,1.339-9.687l7.089.63A27.35,27.35,0,0,0,497.88,171.118ZM527.5,131.342v8.034a200.815,200.815,0,0,1-33,0l-.079-8.034C503.472,132.76,519.3,132.444,527.5,131.342Z"></path><path class="cls-1" d="M241.438,257.118v21.346c0,3.387-.63,5.277-2.6,6.3-1.89,1.181-4.647,1.418-8.821,1.418a29.239,29.239,0,0,0-1.891-6.537c2.363.078,4.569,0,5.278,0,.866,0,1.181-.237,1.181-1.182V259.639c-2.6.945-5.12,1.89-7.4,2.6l-1.811-7.01q4.017-1.18,9.215-2.835V236.482h-8.27v-6.774h8.27V214.427h6.853v15.281h6.931v6.774h-6.931V249.95l6.38-2.126,1.1,6.458Zm38.91,10.4a47.331,47.331,0,0,0,18.274,11.421,29.748,29.748,0,0,0-4.647,5.671,51.482,51.482,0,0,1-17.329-12.918v15.123h-7.01V272.162a55.039,55.039,0,0,1-20.479,13,39.6,39.6,0,0,0-4.647-5.672c7.955-2.284,16.068-6.694,21.266-11.971h-15.91v-5.987h19.77v-5.356H251.205V238.136h20.006v17.88h3.86v-17.88h20.715v18.037h-19.14v5.356h20.716v5.987Zm-14.965-24.182H256.8V250.9h8.586Zm22.605-8.349H258.609V217.5h29.379Zm-6.616-12.129H264.989v6.852h16.383Zm-.551,28.04H289.8v-7.562h-8.979Z"></path><path class="cls-1" d="M329.886,216.947a125.275,125.275,0,0,1-7.8,16.463v53.167h-7.4V244.988a71.19,71.19,0,0,1-6.459,7.719,44.173,44.173,0,0,0-4.1-7.561c7.483-7.4,14.493-18.9,18.746-30.4Zm23.787,17.408v10H375.1v6.695H353.673v10.475H376.2v6.853H353.673v18.273H346.19v-52.3h-4.411a81.481,81.481,0,0,1-10.712,15.832,44.031,44.031,0,0,0-5.671-4.962c6.931-7.246,13.232-18.589,17.013-29.931l7.01,1.89c-1.26,3.387-2.6,6.852-4.095,10.161h31.664v7.01Z"></path><path class="cls-1" d="M454.487,227.188h-9.374v49.779c0,4.726-1.181,7.168-4.489,8.27-3.387,1.34-8.9,1.418-16.777,1.418a32.592,32.592,0,0,0-3.072-7.876c5.986.315,12.523.237,14.414.237,1.733-.079,2.284-.552,2.284-2.206V227.188H384.542v-7.326h69.945Zm-55.136,39.933v6.145h-7.089v-35.76h32.451v29.615Zm0-22.684v15.754h18.116V244.437Z"></path><path class="cls-1" d="M490.791,219.783c4.017,5.435,8.27,12.76,9.846,17.723l-6.538,2.678c-.393-1.26-1.024-2.757-1.733-4.411-10.79.629-21.66,1.338-29.694,1.811l-.631-7.01c1.812-.079,3.781-.157,5.987-.236a105.249,105.249,0,0,0,6.537-16.147l7.641,1.733c-1.97,4.726-4.333,9.767-6.538,14.1l13.469-.63a80.572,80.572,0,0,0-4.49-7.246Zm4.49,59c0,3.465-.709,5.356-2.993,6.538-2.442,1.1-5.908,1.181-10.712,1.181a28.146,28.146,0,0,0-2.442-6.616c3.308.157,6.537.157,7.64.078,1.024,0,1.26-.314,1.26-1.26v-7.482H473.541v15.359h-6.853V242.311h28.593Zm-21.74-30.325v5.593h14.493v-5.593Zm14.493,17.171v-5.986H473.541v5.986Zm24.339-16.619c-8.271,0-10.318-2.049-10.318-9.531v-24.89h7.325v12.287a129.835,129.835,0,0,0,16.383-6.931l4.726,5.277a173.691,173.691,0,0,1-21.109,7.641V239.4c0,2.6.551,3.072,3.859,3.072h10.713c2.835,0,3.308-1.26,3.623-8.585a18.889,18.889,0,0,0,6.616,2.678c-.788,9.845-2.914,12.445-9.61,12.445Zm12.13,30.64c3.072,0,3.623-1.5,3.938-9.925a24.045,24.045,0,0,0,6.537,2.757c-.866,10.712-2.914,13.548-9.845,13.548H512.452c-8.271,0-10.4-2.127-10.4-9.453v-25.6H509.3v11.657c6.459-2.284,13-5.12,17.25-7.877l4.726,5.356c-5.987,3.466-14.414,6.3-21.976,8.586v7.8c0,2.678.63,3.151,4.1,3.151Z"></path><path class="cls-2" d="M380.053,760.1C170.491,760.1,0,589.613,0,380.053S170.491,0,380.053,0,760.105,170.491,760.105,380.053,589.615,760.1,380.053,760.1Zm0-748.211c-203,0-368.161,165.156-368.161,368.161S177.048,748.211,380.053,748.211s368.16-165.156,368.16-368.158S583.057,11.892,380.053,11.892Z"></path><path class="cls-3" d="M455.513,651.458H306.526a6.732,6.732,0,1,1,0-13.463H455.513a6.732,6.732,0,1,1,0,13.463Z"></path><path class="cls-4" d="M572.795,321.243H189.244V580.264H345.688l-10.33,42.908H426.68l-10.329-42.908H572.795ZM372.217,553.859A10.878,10.878,0,1,1,383.1,564.737,10.878,10.878,0,0,1,372.217,553.859Zm188.125-30.048H205.848V334.526H560.342Z"></path><rect class="cls-5" x="122.315" y="359.654" width="192.046" height="243.487"></rect><rect class="cls-6" x="122.315" y="359.654" width="192.046" height="26.162"></rect><circle class="cls-7" cx="138.502" cy="372.735" r="3.703"></circle><circle class="cls-7" cx="153.902" cy="372.735" r="3.703"></circle><circle class="cls-7" cx="169.303" cy="372.735" r="3.703"></circle><polygon class="cls-7" points="163.782 396.286 142.204 405.99 163.782 415.183 185.36 405.99 163.782 396.286"></polygon><polygon class="cls-8" points="184.211 423.099 163.782 423.099 143.353 423.099 136.714 431.015 143.353 438.931 163.782 438.931 184.211 438.931 190.85 431.015 184.211 423.099"></polygon><polygon class="cls-8" points="177.316 445.826 163.782 445.826 150.248 445.826 140.289 463.039 163.782 463.039 187.275 463.039 177.316 445.826"></polygon><polygon class="cls-7" points="163.782 472.791 140.289 472.791 150.248 490.005 163.782 490.005 177.316 490.005 187.275 472.791 163.782 472.791"></polygon><polygon class="cls-8" points="163.782 494.855 140.289 494.855 140.289 512.985 163.782 512.985 187.275 512.985 187.275 494.855 163.782 494.855"></polygon><polygon class="cls-7" points="163.782 518.348 140.289 518.348 140.289 536.478 163.782 536.478 187.275 536.478 187.275 518.348 163.782 518.348"></polygon><rect class="cls-8" x="213.263" y="393.613" width="9.321" height="189.925"></rect><rect class="cls-9" x="241.486" y="401.426" width="51.559" height="11.318"></rect><rect class="cls-9" x="241.486" y="419.031" width="51.559" height="11.318"></rect><rect class="cls-9" x="241.486" y="438.931" width="51.559" height="11.318"></rect><rect class="cls-8" x="241.486" y="456.757" width="51.559" height="11.318"></rect><rect class="cls-7" x="241.486" y="475.935" width="51.559" height="11.318"></rect><rect class="cls-8" x="241.486" y="494.855" width="51.559" height="11.318"></rect><rect class="cls-8" x="241.486" y="512.985" width="51.559" height="11.318"></rect><rect class="cls-7" x="241.486" y="532.524" width="51.559" height="11.318"></rect><rect class="cls-10" x="473.481" y="359.654" width="164.309" height="113.136"></rect><rect class="cls-6" x="473.481" y="359.654" width="164.309" height="30.701"></rect><circle class="cls-7" cx="493.236" cy="375.005" r="5.109"></circle><circle class="cls-7" cx="512.489" cy="375.005" r="5.109"></circle><circle class="cls-7" cx="531.742" cy="375.005" r="5.109"></circle><rect class="cls-9" x="487.227" y="411.426" width="39.406" height="9.632"></rect><rect class="cls-8" x="534.624" y="411.426" width="43.801" height="9.632"></rect><rect class="cls-7" x="586.455" y="411.426" width="23.476" height="9.632"></rect><rect class="cls-8" x="534.624" y="426.256" width="61.687" height="9.632"></rect><rect class="cls-7" x="534.624" y="441.087" width="37.905" height="9.632"></rect><rect class="cls-8" x="576.517" y="441.087" width="47.667" height="9.632"></rect><rect class="cls-9" x="487.227" y="426.256" width="39.406" height="9.632"></rect><rect class="cls-8" x="487.227" y="441.087" width="39.406" height="9.632"></rect><polygon class="cls-8" points="163.782 541.841 140.289 541.841 140.289 559.971 163.782 559.971 187.275 559.971 187.275 541.841 163.782 541.841"></polygon><polygon class="cls-8" points="163.782 565.334 140.289 565.334 140.289 585.758 163.782 585.758 187.275 585.758 187.275 565.334 163.782 565.334"></polygon><rect class="cls-8" x="241.486" y="572.22" width="51.559" height="11.318"></rect></g></g></svg>