<svg xmlns="http://www.w3.org/2000/svg" xmlns:xlink="http://www.w3.org/1999/xlink" width="760.105" height="760.103" viewBox="0 0 760.105 760.103"><defs><style>.cls-1{fill:#333;}.cls-2{fill:url(#新規グラデーションスウォッチ_1);}.cls-3{fill:url(#新規グラデーションスウォッチ_1-2);}.cls-4{fill:url(#新規グラデーションスウォッチ_1-3);}</style><linearGradient id="&#x65B0;&#x898F;&#x30B0;&#x30E9;&#x30C7;&#x30FC;&#x30B7;&#x30E7;&#x30F3;&#x30B9;&#x30A6;&#x30A9;&#x30C3;&#x30C1;_1" y1="380.052" x2="760.105" y2="380.052" gradientUnits="userSpaceOnUse"><stop offset="0" stop-color="#32abde"></stop><stop offset="1" stop-color="#004981"></stop></linearGradient><linearGradient id="&#x65B0;&#x898F;&#x30B0;&#x30E9;&#x30C7;&#x30FC;&#x30B7;&#x30E7;&#x30F3;&#x30B9;&#x30A6;&#x30A9;&#x30C3;&#x30C1;_1-2" x1="296.344" y1="653.533" x2="463.761" y2="653.533" xlink:href="#&#x65B0;&#x898F;&#x30B0;&#x30E9;&#x30C7;&#x30FC;&#x30B7;&#x30E7;&#x30F3;&#x30B9;&#x30A6;&#x30A9;&#x30C3;&#x30C1;_1"></linearGradient><linearGradient id="&#x65B0;&#x898F;&#x30B0;&#x30E9;&#x30C7;&#x30FC;&#x30B7;&#x30E7;&#x30F3;&#x30B9;&#x30A6;&#x30A9;&#x30C3;&#x30C1;_1-3" x1="182.414" y1="475.739" x2="577.692" y2="475.739" xlink:href="#&#x65B0;&#x898F;&#x30B0;&#x30E9;&#x30C7;&#x30FC;&#x30B7;&#x30E7;&#x30F3;&#x30B9;&#x30A6;&#x30A9;&#x30C3;&#x30C1;_1"></linearGradient></defs><g id="&#x30EC;&#x30A4;&#x30E4;&#x30FC;_2" data-name="&#x30EC;&#x30A4;&#x30E4;&#x30FC; 2"><g id="&#x30EC;&#x30A4;&#x30E4;&#x30FC;_1-2" data-name="&#x30EC;&#x30A4;&#x30E4;&#x30FC; 1"><path class="cls-1" d="M164.962,131.815l8.9,1.811c-.552,1.969-1.261,4.962-1.654,6.695a167.9,167.9,0,0,1-6.932,24.26A114.264,114.264,0,0,1,153.7,186.557l-8.586-3.623a101,101,0,0,0,12.209-21.582A118.931,118.931,0,0,0,164.962,131.815Zm19.77,1.732,8.113-2.678c3.229,5.907,8.428,17.328,11.579,25.284,2.993,7.562,7.168,19.849,9.294,27.253l-8.979,2.914a268.965,268.965,0,0,0-8.585-27.41C193.082,150.718,188.119,139.454,184.732,133.547Zm23.473-13a9.1,9.1,0,1,1-9.058,9.137A9.144,9.144,0,0,1,208.205,120.551Zm0,14.02a4.976,4.976,0,0,0,4.962-4.883,5.044,5.044,0,0,0-4.962-4.962,4.977,4.977,0,0,0-4.884,4.962A4.909,4.909,0,0,0,208.205,134.571Z"></path><path class="cls-1" d="M249.865,150.4l-8.113,4.569c-3.623-7.641-9.767-18.432-13.232-23.157l7.955-4.1C240.1,133.074,247.03,145.126,249.865,150.4Zm17.486,9.294c5.908-8.743,8.271-17.879,9.61-24.889a44.784,44.784,0,0,0,.787-7.72l9.925,1.34c-.709,2.52-1.5,5.749-1.891,7.482-1.89,9.294-5.041,19.062-10.791,27.962a67.6,67.6,0,0,1-27.725,24.26l-7.4-6.38A60.091,60.091,0,0,0,267.351,159.7Z"></path><path class="cls-1" d="M320.669,131.026h39.147c2.127,0,4.883-.078,6.3-.157-.079,1.733-.157,4.569-.157,6.616v40.722c0,2.757.157,6.616.315,8.35H357.3c0-1.1.079-2.6.079-4.254H320.039c-3.23,0-7.168.158-9.452.315v-8.9c2.284.157,5.75.393,9.137.393h37.729V138.982H320.669c-3.072,0-7.089.158-9.137.315v-8.743C314.289,130.79,318.07,131.026,320.669,131.026Z"></path><path class="cls-1" d="M418.49,168.361c12.681-7.8,22.527-19.612,27.332-29.694l4.8,8.585a80.531,80.531,0,0,1-27.647,28.514A86.839,86.839,0,0,1,392.812,187.5l-5.277-8.113A81.828,81.828,0,0,0,418.49,168.361Zm-2.678-25.2-6.223,6.38a170.935,170.935,0,0,0-19.691-16.7l5.75-6.144C401.161,130.4,411.4,138.588,415.812,143.156Z"></path><path class="cls-1" d="M482.518,177.893H495.2V139.14H484.8v-5.75a34.162,34.162,0,0,0,12.6-4.411h6.853v48.914H515.6v7.482H482.518Z"></path><path class="cls-1" d="M594.36,127.8c7.8,6.3,17.092,15.359,21.188,21.976l-6.459,4.883a50.533,50.533,0,0,0-5.277-7.325c-21.031,1.025-43.243,1.891-57.736,2.521l-.551-7.405,11.894-.393a154.8,154.8,0,0,0,12.445-23.236l8.191,2.835a231.663,231.663,0,0,1-11.893,20.085c9.846-.393,20.715-.787,31.506-1.259-2.993-2.994-6.065-5.908-9.058-8.428Zm-39.934,29.932h50.646v33.712H597.2v-3.23H561.908v3.308h-7.482Zm7.482,7.009v16.384H597.2V164.738Z"></path><path class="cls-1" d="M177.958,224.194c-.472,2.442-1.181,6.223-1.89,9.924,3.229-.314,6.065-.471,7.876-.471,7.641,0,13.391,3.071,13.391,14.1,0,9.294-1.182,21.976-4.49,28.592-2.521,5.435-6.617,6.853-12.13,6.853a44.3,44.3,0,0,1-9.373-1.1l-1.261-8.191a41.032,41.032,0,0,0,9.61,1.575c2.836,0,5.041-.709,6.459-3.781,2.362-4.883,3.544-14.887,3.544-23.079,0-6.773-3.072-7.955-8.034-7.955-1.654,0-4.253.158-7.246.473-2.915,11.578-8.507,29.773-16.3,42.376L150,280.276c7.877-10.634,13.548-27.647,16.384-38.36-3.624.4-6.853.788-8.665,1.025-1.969.236-5.592.709-7.8,1.1l-.787-8.507c2.678.158,4.962.079,7.64,0,2.521-.078,6.774-.393,11.263-.787a88,88,0,0,0,1.812-16.934l9.216.945C178.667,220.413,178.273,222.461,177.958,224.194Zm42.376,31.192-7.8,3.623c-2.205-8.35-8.112-22.448-13.626-29.144l7.325-3.15C211.118,233.252,217.814,247.982,220.334,255.386Z"></path><path class="cls-1" d="M244.981,253.574a37.92,37.92,0,0,1,24.575-8.743c12.839,0,20.873,7.8,20.873,17.171,0,14.178-11.972,24.417-42.77,21.818l-2.363-8.113c24.339,3.072,36.627-3.466,36.627-13.863,0-5.828-5.435-10-13-10-9.688,0-18.038,3.7-23.236,10a16.033,16.033,0,0,0-2.678,4.175l-7.247-1.733c1.576-7.4,3.466-23.472,4.017-32.373l8.35,1.1C247.029,237.979,245.69,248.77,244.981,253.574ZM279.8,224.115l-1.812,7.641c-7.719-1.024-25.047-4.647-31.112-6.223l1.969-7.482C255.929,220.256,272.865,223.406,279.8,224.115Z"></path><path class="cls-1" d="M375.175,232.386s-.079,2.52-.079,3.387c-.867,32.53-1.575,43.714-4.1,47.1-1.5,2.362-3.151,2.993-5.593,3.387a55.182,55.182,0,0,1-9.687.079,19.386,19.386,0,0,0-2.048-6.932c3.623.315,6.852.315,8.27.315a2.987,2.987,0,0,0,2.836-1.26c1.733-2.2,2.52-12.209,3.15-39.305h-9.294c-1.024,20.952-4.569,37.651-18.116,48.048a24.626,24.626,0,0,0-5.278-5.435,17.041,17.041,0,0,0,1.418-1.1c-11.342,1.339-22.685,2.521-31.112,3.309l-.946-6.223c4.569-.315,10.24-.788,16.462-1.339V270.43H306.727v-5.357h14.335v-4.016h-14.1V237.348h14.1v-4.1H304.837v-5.434h16.225v-4.412c-4.8.395-9.609.63-14.02.788a21.78,21.78,0,0,0-1.733-5.277c11.658-.63,25.6-2.048,33.791-3.859l3.466,5.513a149.539,149.539,0,0,1-14.808,2.205v5.042h15.91v4.568h8.271c.078-5.357.078-10.948.078-16.856h7.011c0,5.829-.079,11.5-.158,16.856Zm-62.226,14.571h8.113v-4.805h-8.113Zm8.113,9.3v-4.805h-8.113v4.805Zm6.7,19.534c4.883-.472,9.924-.945,14.886-1.5,6.459-8.9,8.428-20.794,9.058-35.13h-8.349v-5.907h-15.6v4.1h14.65v23.709h-14.65v4.016h14.808v5.357H327.758Zm8.427-28.829v-4.805h-8.427v4.805Zm-8.427,4.49v4.805h8.427v-4.805Z"></path><path class="cls-1" d="M408.643,216.947a125.02,125.02,0,0,1-7.8,16.463v53.167h-7.4V244.988a71.19,71.19,0,0,1-6.459,7.719,44.173,44.173,0,0,0-4.1-7.561c7.483-7.4,14.493-18.9,18.747-30.4Zm23.788,17.408v10h21.424v6.695H432.431v10.475h22.527v6.853H432.431v18.273h-7.483v-52.3h-4.411a81.481,81.481,0,0,1-10.712,15.832,44.1,44.1,0,0,0-5.671-4.962c6.931-7.246,13.232-18.589,17.013-29.931l7.011,1.89c-1.261,3.387-2.6,6.852-4.1,10.161h31.663v7.01Z"></path><path class="cls-1" d="M533.244,227.188h-9.373v49.779c0,4.726-1.181,7.168-4.489,8.27-3.387,1.34-8.9,1.418-16.777,1.418a32.592,32.592,0,0,0-3.072-7.876c5.986.315,12.523.237,14.414.237,1.733-.079,2.284-.552,2.284-2.206V227.188H463.3v-7.326h69.943Zm-55.135,39.933v6.145h-7.09v-35.76h32.452v29.615Zm0-22.684v15.754h18.115V244.437Z"></path><path class="cls-1" d="M569.549,219.783c4.017,5.435,8.271,12.76,9.846,17.723l-6.538,2.678c-.394-1.26-1.024-2.757-1.733-4.411-10.791.629-21.66,1.338-29.7,1.811l-.629-7.01c1.811-.079,3.78-.157,5.986-.236a105.148,105.148,0,0,0,6.537-16.147l7.641,1.733c-1.97,4.726-4.332,9.767-6.538,14.1l13.469-.63a80.572,80.572,0,0,0-4.49-7.246Zm4.49,59c0,3.465-.709,5.356-2.993,6.538-2.442,1.1-5.908,1.181-10.713,1.181a28.1,28.1,0,0,0-2.441-6.616c3.308.157,6.537.157,7.64.078,1.024,0,1.26-.314,1.26-1.26v-7.482H552.3v15.359h-6.852V242.311h28.592ZM552.3,248.454v5.593h14.493v-5.593Zm14.493,17.171v-5.986H552.3v5.986Zm24.339-16.619c-8.27,0-10.318-2.049-10.318-9.531v-24.89h7.325v12.287a129.835,129.835,0,0,0,16.383-6.931l4.726,5.277a173.691,173.691,0,0,1-21.109,7.641V239.4c0,2.6.551,3.072,3.859,3.072h10.712c2.836,0,3.309-1.26,3.624-8.585a18.889,18.889,0,0,0,6.616,2.678c-.788,9.845-2.914,12.445-9.609,12.445Zm12.13,30.64c3.072,0,3.623-1.5,3.938-9.925a24.025,24.025,0,0,0,6.538,2.757c-.867,10.712-2.914,13.548-9.846,13.548H591.21c-8.271,0-10.4-2.127-10.4-9.453v-25.6h7.246v11.657c6.459-2.284,13-5.12,17.25-7.877l4.726,5.356c-5.986,3.466-14.415,6.3-21.976,8.586v7.8c0,2.678.63,3.151,4.1,3.151Z"></path><path class="cls-2" d="M380.053,760.1C170.491,760.1,0,589.613,0,380.053S170.491,0,380.053,0,760.105,170.491,760.105,380.053,589.615,760.1,380.053,760.1Zm0-748.211c-203,0-368.161,165.156-368.161,368.161S177.048,748.211,380.053,748.211s368.16-165.156,368.16-368.158S583.057,11.892,380.053,11.892Z"></path><path class="cls-3" d="M456.824,660.47H303.281a6.937,6.937,0,0,1,0-13.874H456.824a6.937,6.937,0,0,1,0,13.874Z"></path><path class="cls-4" d="M577.692,320.159H182.414V587.1H343.641L333,631.319h94.113L416.464,587.1H577.692ZM370.981,559.887a11.211,11.211,0,1,1,11.21,11.211A11.211,11.211,0,0,1,370.981,559.887Zm193.877-30.966H199.525V333.848H564.858Z"></path></g></g></svg>