<svg xmlns="http://www.w3.org/2000/svg" xmlns:xlink="http://www.w3.org/1999/xlink" width="1749" height="323.308" viewBox="0 0 1749 323.308"><defs><style>.cls-1{fill:#fcc12c;}.cls-2{fill:#333;}.cls-3{fill:url(#新規グラデーションスウォッチ_1);}.cls-4{fill:none;}</style><linearGradient id="&#x65B0;&#x898F;&#x30B0;&#x30E9;&#x30C7;&#x30FC;&#x30B7;&#x30E7;&#x30F3;&#x30B9;&#x30A6;&#x30A9;&#x30C3;&#x30C1;_1" x1="257.527" y1="102.164" x2="1178.917" y2="102.164" gradientUnits="userSpaceOnUse"><stop offset="0" stop-color="#32afe2"></stop><stop offset="1" stop-color="#004985"></stop></linearGradient></defs><g id="&#x30EC;&#x30A4;&#x30E4;&#x30FC;_2" data-name="&#x30EC;&#x30A4;&#x30E4;&#x30FC; 2"><g id="&#x30EC;&#x30A4;&#x30E4;&#x30FC;_1-2" data-name="&#x30EC;&#x30A4;&#x30E4;&#x30FC; 1"><circle class="cls-1" cx="135.773" cy="143.767" r="107.301"></circle><path class="cls-2" d="M73.22,118.927c-.024.584-.073,1.533-.1,2.627a32.657,32.657,0,0,0,5.01-.973l.048,1.9a44.829,44.829,0,0,1-5.107.851c-.024,1.143-.049,2.31-.049,3.283v.852a18.385,18.385,0,0,1,5.351-.9c3.551,0,6.105,1.921,6.105,4.84,0,2.943-1.848,4.816-5.181,5.618a18.4,18.4,0,0,1-3.016.341l-.681-1.97a12.436,12.436,0,0,0,2.846-.171c2.141-.413,4.086-1.556,4.086-3.794,0-2.067-1.873-3.186-4.184-3.186a15.9,15.9,0,0,0-5.3.949c.048,2.067.1,4.232.1,5.277,0,2.263-.826,2.992-2.139,2.992-1.9,0-5.06-1.873-5.06-4.037,0-2.019,2.529-4.135,5.327-5.327v-1.386c0-.974,0-2.117.025-3.187-.682.049-1.29.073-1.8.073a26.835,26.835,0,0,1-3.114-.121l-.047-1.849a22.39,22.39,0,0,0,3.113.2c.559,0,1.191-.024,1.872-.073,0-1.265.024-2.335.024-2.773a12.663,12.663,0,0,0-.121-1.727H73.39A16.051,16.051,0,0,0,73.22,118.927ZM70.5,135.394c.558,0,.9-.389.9-1.192,0-.876-.049-2.529-.073-4.305-1.994.924-3.478,2.335-3.478,3.429C67.845,134.445,69.548,135.394,70.5,135.394Zm16-11.894-1,1.557a30.849,30.849,0,0,0-5.449-3.649l.875-1.459A44.123,44.123,0,0,1,86.5,123.5Z"></path><path class="cls-2" d="M105.564,118.952c0,.365-.024.924-.024,1.58h.364c2.968,0,5.959.025,7.127.025l-.024,1.8c-1.363-.073-3.576-.122-7.127-.122h-.34c0,1.387.024,2.895.049,4.013a5.92,5.92,0,0,1,.778,3.114c0,3.283-1.606,6.932-7.273,8.634l-1.629-1.605c3.234-.73,5.472-2.092,6.445-4.3a3.425,3.425,0,0,1-2.116.656,3.872,3.872,0,0,1-3.989-4.061,4.246,4.246,0,0,1,4.281-4.233,4.881,4.881,0,0,1,1.63.268c0-.729,0-1.6-.025-2.457-3.7.025-7.832.195-10.872.414L92.77,120.8c2.7-.048,7.273-.194,10.9-.243,0-.681-.025-1.265-.049-1.605-.025-.632-.121-1.338-.146-1.533h2.213C105.636,117.687,105.589,118.635,105.564,118.952Zm-3.454,12.112c1.435,0,2.359-1.143,2.141-3.453a2.182,2.182,0,0,0-2.165-1.533,2.478,2.478,0,0,0-2.456,2.578A2.342,2.342,0,0,0,102.11,131.064Z"></path><path class="cls-2" d="M132.6,118.952c0,.365-.024.924-.024,1.58h.364c2.968,0,5.959.025,7.127.025l-.024,1.8c-1.363-.073-3.576-.122-7.127-.122h-.34c0,1.387.024,2.895.049,4.013a5.92,5.92,0,0,1,.778,3.114c0,3.283-1.606,6.932-7.273,8.634l-1.629-1.605c3.234-.73,5.472-2.092,6.445-4.3a3.425,3.425,0,0,1-2.116.656,3.872,3.872,0,0,1-3.989-4.061,4.246,4.246,0,0,1,4.281-4.233,4.881,4.881,0,0,1,1.63.268c0-.729,0-1.6-.025-2.457-3.7.025-7.832.195-10.872.414l-.049-1.873c2.7-.048,7.273-.194,10.9-.243,0-.681-.025-1.265-.049-1.605-.024-.632-.121-1.338-.146-1.533h2.213C132.677,117.687,132.63,118.635,132.6,118.952Zm-3.454,12.112c1.435,0,2.359-1.143,2.141-3.453a2.182,2.182,0,0,0-2.165-1.533,2.478,2.478,0,0,0-2.456,2.578A2.342,2.342,0,0,0,129.151,131.064Z"></path><path class="cls-2" d="M160.376,119.754c-.122.535-.243,1.095-.39,1.679a7.576,7.576,0,0,1,6.567,7.807c0,4.84-3.478,7.783-8.682,8.513l-1.144-1.727c5.083-.438,7.905-3.113,7.905-6.859a5.9,5.9,0,0,0-5.108-6.08,31.51,31.51,0,0,1-3.551,8.269,15.124,15.124,0,0,0,1.508,1.7l-1.532,1.264a16.846,16.846,0,0,1-1.144-1.41c-1.507,1.824-2.991,3.04-4.815,3.04-1.849,0-3.381-1.532-3.381-4.378a10.2,10.2,0,0,1,3.745-7.54c-.266-.754-.511-1.508-.729-2.237a16.4,16.4,0,0,0-.8-2.189l2.02-.657c.121.681.315,1.483.486,2.164.145.56.364,1.217.583,1.9a12.285,12.285,0,0,1,6.251-1.726c.146-.609.292-1.192.389-1.776a14.409,14.409,0,0,0,.146-1.848l2.092.194C160.619,118.465,160.473,119.292,160.376,119.754Zm-10.192,14.277c1.193,0,2.482-1.215,3.551-2.65-.194-.292-.364-.608-.559-.925a27.382,27.382,0,0,1-2.189-4.67,8.268,8.268,0,0,0-2.627,5.643C148.36,133.034,149.09,134.031,150.184,134.031Zm4.67-4.3a31.413,31.413,0,0,0,2.846-6.762,10.809,10.809,0,0,0-5.23,1.678,27.551,27.551,0,0,0,1.9,4.281C154.513,129.192,154.684,129.459,154.854,129.727Z"></path><path class="cls-2" d="M66.556,163.9l-1.678-1.119a25.946,25.946,0,0,0,4.645-6.373l1.7.828A35.215,35.215,0,0,1,66.556,163.9Zm9.875-14.74v2.481h6.421a18.623,18.623,0,0,0,1.994-.121v2.018c-.656-.048-1.385-.048-1.969-.048H76.431v11.772c0,1.289-.632,1.946-2.091,1.946-1.022,0-2.482-.073-3.455-.171l-.169-1.945a17.353,17.353,0,0,0,2.8.292c.657,0,.949-.292.949-.925V153.487H67.7c-.73,0-1.41.024-2.067.073v-2.043a18.189,18.189,0,0,0,2.067.121h6.762v-2.5a8.848,8.848,0,0,0-.17-1.727h2.286A11.523,11.523,0,0,0,76.431,149.157ZM85.6,162.778l-1.8,1a40.486,40.486,0,0,0-4.062-6.47l1.654-.875A52.12,52.12,0,0,1,85.6,162.778Zm-2.31-17.269a2.684,2.684,0,0,1,2.676,2.676,2.664,2.664,0,0,1-5.327,0A2.678,2.678,0,0,1,83.29,145.509Zm0,4.232a1.557,1.557,0,1,0-1.532-1.556A1.531,1.531,0,0,0,83.29,149.741Z"></path><path class="cls-2" d="M103.156,152.83a28.982,28.982,0,0,0,6.64-5.716l1.63,1.508a39.752,39.752,0,0,1-6.568,5.424V164.31a18.228,18.228,0,0,0,.147,2.6h-2.384a22.588,22.588,0,0,0,.145-2.6v-9a48.036,48.036,0,0,1-9.266,3.965l-.973-1.9A40.187,40.187,0,0,0,103.156,152.83Z"></path><path class="cls-2" d="M130.635,161.075a22.922,22.922,0,0,0,8.124-8.95l1.167,2.067a24.3,24.3,0,0,1-8.172,8.659,26.672,26.672,0,0,1-9.559,3.77l-1.289-1.994A25.129,25.129,0,0,0,130.635,161.075Zm-1.435-7.71-1.532,1.533a50.551,50.551,0,0,0-6.057-5.084L123,148.33A53.422,53.422,0,0,1,129.2,153.365Z"></path><path class="cls-2" d="M152.714,149.863a15.244,15.244,0,0,0-.195-2.53H154.9c-.073.754-.17,1.8-.17,2.53v3.964a77.723,77.723,0,0,1,10.386,4.014l-.827,2.067a63.813,63.813,0,0,0-9.559-3.916c.025,3.648.025,7.321.025,8.027,0,.754.047,2.067.145,2.869h-2.359a21.349,21.349,0,0,0,.17-2.869Z"></path><path class="cls-2" d="M180.185,161.567h11.339V124.974h-9.043v-4.1a29.383,29.383,0,0,0,10.574-3.617h4.869v44.314h10.227v5.287H180.185Z"></path><path d="M293.717,100.843h-36.19V91.152h36.19Zm-2.887,59.7c15.259-5.98,16.7-15.982,17.321-33.2H319.6c-.825,21.549-3.608,35.468-22.682,43.407a35.379,35.379,0,0,0-6.083-8.97v3.093H271.756V169h-10V133.837H290.83Zm-.206-45.676h-28.56v-9.382h28.56Zm-28.56,4.744h28.56v9.175h-28.56Zm28.354-32.994H262.682V77.336h27.736Zm-9.693,56.81h-8.969v11.857h8.969ZM305.264,132.6H294.438V112.906h57.945V132.6H341.041V122.5H305.264ZM316.812,91.77h-21.24v-9.9h21.24V74.14h12.166v7.732h22.683v9.9H328.978v6.187h19.59v9.9H298.974v-9.9h17.838ZM343,158.994c1.65,0,2.062-1.65,2.268-13.094,2.269,1.856,7.011,3.712,10.105,4.536-1.031,15.259-3.712,19.177-11.136,19.177H337.33c-8.971,0-11.032-3.4-11.032-13.815V127.444h11.34V155.7c0,2.99.206,3.3,1.753,3.3Z"></path><path d="M466.21,88.883c-2.165,22.477-7.115,40.211-14.847,54.027a56.7,56.7,0,0,0,18.662,16.7,44.547,44.547,0,0,0-8.455,10.1,65.041,65.041,0,0,1-17.733-15.774,70.646,70.646,0,0,1-18.353,15.774,49.04,49.04,0,0,0-6.805-8.969v9.692H406.822v-16.5C394.966,156,382.9,157.86,373.417,159.3l-2.371-12.269c2.783-.309,5.979-.619,9.485-1.031V91.255H373.52V79.913h51.758v7.321h30.828l2.062-.31Zm-74.029,2.372v9.794h14.641V91.255Zm0,31.137h14.641v-10.31H392.181Zm0,22.167c4.744-.618,9.693-1.34,14.641-1.959v-9.279H392.181Zm26.5,14.538A55.886,55.886,0,0,0,436.516,142.7c-6.289-11.445-10.722-25.261-13.919-40.829L434.351,99.5a124.347,124.347,0,0,0,9.486,30.519A117,117,0,0,0,452.7,99.3H422.288V91.255h-3.609Z"></path><path d="M511.371,120.536c2.68,2.887,11.65,15.054,13.609,18.043l-7.732,9.486a123.83,123.83,0,0,0-6.083-12.991v35.055h-10.93V140.435c-2.681,7.321-5.671,14.022-8.97,18.765-1.133-3.712-3.918-9.176-5.671-12.682,5.052-6.392,10-17.424,13.1-26.806H487.347V108.267h12.888v-4.433l-8.351,1.959c-.207-6.187-2.268-15.982-4.64-23.2l7.939-2.062a92.283,92.283,0,0,1,5.052,22.167V74.655h10.93v26.291A173.043,173.043,0,0,0,515.7,80.017l9.691,2.062c-2.474,8.042-5.257,17.63-7.732,23.507l-6.495-1.752v4.433h9.794v11.445h-9.794v1.03Zm71.347-13.4V116H523.743v-8.867h22.889V102.7H529.1V94.554h17.528V90.43h-20V81.666h20v-7.32h11.547v7.32H580.14V90.43H558.179v4.124h19.694V102.7H558.179v4.434Zm-5.876,52.273c0,5.053-1.032,7.733-4.64,9.28-3.4,1.546-8.248,1.753-14.847,1.649a38.184,38.184,0,0,0-3.2-9.691c3.814.206,8.144.206,9.382.1,1.341,0,1.753-.413,1.753-1.547v-4.33H540.549v15.672H529.208V120.227h47.634Zm-36.293-30.518v5.052h24.745v-5.052Zm24.745,18.043v-5.052H540.549v5.052Z"></path><path d="M621.486,112.288c0,16.7-1.546,41.963-10.929,57.841a44.669,44.669,0,0,0-10-6.7c8.558-14.64,9.176-36.086,9.176-51.139V83.419h36.705V74.243h12.785v9.176h36.6V94.348H621.486Zm68.667,23.92a50.56,50.56,0,0,1-17.631,19.59,136.341,136.341,0,0,0,25.364,4.433,48.865,48.865,0,0,0-7.217,10.517c-11.857-1.444-22.373-4.124-31.344-8.145-10.1,4.021-21.651,6.5-33.921,8.042a41.337,41.337,0,0,0-4.949-10.311,139.922,139.922,0,0,0,26.7-4.639A52.083,52.083,0,0,1,635.3,144.25l4.846-1.753H624.786v-9.588h55.572l2.165-.516Zm-52.17-7.424V112.7H624.064v-9.692h13.919V96.2H649.53v6.8H668.3V96.2h12.166v6.8h14.846V112.7H680.462v16.084Zm9.692,13.713a41.19,41.19,0,0,0,12.063,8.455A46.816,46.816,0,0,0,672.11,142.5Zm1.855-29.8v6.8H668.3v-6.8Z"></path><path d="M753.734,149.289,767.305,133.8a27.789,27.789,0,0,0,19.836,9.222c14.79,0,26.97-10.788,28.014-43.151-7.134,8.874-18.1,14.093-26.448,14.093-21.575,0-37.061-12.527-37.061-38.8,0-25.578,18.444-41.586,40.541-41.586,24.36,0,46.283,18.618,46.283,61.769,0,47.849-23.837,68.554-49.763,68.554A47.453,47.453,0,0,1,753.734,149.289ZM793.579,95.7c6.786,0,14.964-4,20.88-13.746C811.848,60.9,803.149,52.9,792.535,52.9c-9.569,0-17.4,7.308-17.4,22.272C775.135,89.26,782.269,95.7,793.579,95.7Z"></path><path d="M849.954,102.136c0-47.849,23.838-68.555,49.937-68.555A46.979,46.979,0,0,1,934.69,48.2L921.119,63.508c-4.525-5.045-12.354-9.221-19.836-9.221-14.789,0-26.97,10.962-28.014,43.325,7.135-8.874,18.1-14.094,26.449-14.094,21.575,0,37.06,12.354,37.06,38.627,0,25.752-18.443,41.759-40.541,41.759C871.878,163.9,849.954,145.113,849.954,102.136Zm24.012,13.224c2.436,21.227,11.135,29.231,21.75,29.231,9.743,0,17.573-7.482,17.573-22.446,0-14.094-7.308-20.531-18.444-20.531C888.233,101.614,880.4,105.268,873.966,115.36Z"></path><path d="M945.491,153.014c0-5.671,4.021-9.9,9.383-9.9,5.464,0,9.485,4.227,9.485,9.9,0,5.568-4.021,9.9-9.485,9.9C949.512,162.912,945.491,158.582,945.491,153.014Z"></path><path d="M1007.765,99.813H973.432V87.131h50.727V96.41c-17.321,21.136-20.105,36.086-21.342,65.058H987.455C988.8,135.8,993.538,119.609,1007.765,99.813Z"></path><path d="M1034.056,149.2h16.394V102.905h-13.815V93.523c7.629-1.443,12.887-3.4,17.733-6.392h11.238V149.2h14.332v12.269h-45.882Z"></path><path d="M1086.226,107.752c0-15.26,7.63-24.024,18.56-24.024s18.661,8.764,18.661,24.024c0,15.362-7.732,24.332-18.661,24.332S1086.226,123.114,1086.226,107.752Zm26.5,0c0-11.239-3.506-15.466-7.938-15.466s-7.836,4.227-7.836,15.466,3.4,15.774,7.836,15.774S1112.724,118.99,1112.724,107.752Zm36.086-24.024h8.971l-41.448,79.184h-8.97Zm-7.113,54.851c0-15.362,7.732-24.126,18.559-24.126s18.661,8.764,18.661,24.126c0,15.26-7.836,24.333-18.661,24.333S1141.7,153.839,1141.7,138.579Zm26.5,0c0-11.238-3.506-15.568-7.938-15.568s-7.836,4.33-7.836,15.568,3.4,15.672,7.836,15.672S1168.194,149.818,1168.194,138.579Z"></path><path class="cls-3" d="M293.717,100.843h-36.19V91.152h36.19Zm-2.887,59.7c15.259-5.98,16.7-15.982,17.321-33.2H319.6c-.825,21.549-3.608,35.468-22.682,43.407a35.379,35.379,0,0,0-6.083-8.97v3.093H271.756V169h-10V133.837H290.83Zm-.206-45.676h-28.56v-9.382h28.56Zm-28.56,4.744h28.56v9.175h-28.56Zm28.354-32.994H262.682V77.336h27.736Zm-9.693,56.81h-8.969v11.857h8.969ZM305.264,132.6H294.438V112.906h57.945V132.6H341.041V122.5H305.264ZM316.812,91.77h-21.24v-9.9h21.24V74.14h12.166v7.732h22.683v9.9H328.978v6.187h19.59v9.9H298.974v-9.9h17.838ZM343,158.994c1.65,0,2.062-1.65,2.268-13.094,2.269,1.856,7.011,3.712,10.105,4.536-1.031,15.259-3.712,19.177-11.136,19.177H337.33c-8.971,0-11.032-3.4-11.032-13.815V127.444h11.34V155.7c0,2.99.206,3.3,1.753,3.3Z"></path><path class="cls-3" d="M466.21,88.883c-2.165,22.477-7.115,40.211-14.847,54.027a56.7,56.7,0,0,0,18.662,16.7,44.547,44.547,0,0,0-8.455,10.1,65.041,65.041,0,0,1-17.733-15.774,70.646,70.646,0,0,1-18.353,15.774,49.04,49.04,0,0,0-6.805-8.969v9.692H406.822v-16.5C394.966,156,382.9,157.86,373.417,159.3l-2.371-12.269c2.783-.309,5.979-.619,9.485-1.031V91.255H373.52V79.913h51.758v7.321h30.828l2.062-.31Zm-74.029,2.372v9.794h14.641V91.255Zm0,31.137h14.641v-10.31H392.181Zm0,22.167c4.744-.618,9.693-1.34,14.641-1.959v-9.279H392.181Zm26.5,14.538A55.886,55.886,0,0,0,436.516,142.7c-6.289-11.445-10.722-25.261-13.919-40.829L434.351,99.5a124.347,124.347,0,0,0,9.486,30.519A117,117,0,0,0,452.7,99.3H422.288V91.255h-3.609Z"></path><path class="cls-3" d="M511.371,120.536c2.68,2.887,11.65,15.054,13.609,18.043l-7.732,9.486a123.83,123.83,0,0,0-6.083-12.991v35.055h-10.93V140.435c-2.681,7.321-5.671,14.022-8.97,18.765-1.133-3.712-3.918-9.176-5.671-12.682,5.052-6.392,10-17.424,13.1-26.806H487.347V108.267h12.888v-4.433l-8.351,1.959c-.207-6.187-2.268-15.982-4.64-23.2l7.939-2.062a92.283,92.283,0,0,1,5.052,22.167V74.655h10.93v26.291A173.043,173.043,0,0,0,515.7,80.017l9.691,2.062c-2.474,8.042-5.257,17.63-7.732,23.507l-6.495-1.752v4.433h9.794v11.445h-9.794v1.03Zm71.347-13.4V116H523.743v-8.867h22.889V102.7H529.1V94.554h17.528V90.43h-20V81.666h20v-7.32h11.547v7.32H580.14V90.43H558.179v4.124h19.694V102.7H558.179v4.434Zm-5.876,52.273c0,5.053-1.032,7.733-4.64,9.28-3.4,1.546-8.248,1.753-14.847,1.649a38.184,38.184,0,0,0-3.2-9.691c3.814.206,8.144.206,9.382.1,1.341,0,1.753-.413,1.753-1.547v-4.33H540.549v15.672H529.208V120.227h47.634Zm-36.293-30.518v5.052h24.745v-5.052Zm24.745,18.043v-5.052H540.549v5.052Z"></path><path class="cls-3" d="M621.486,112.288c0,16.7-1.546,41.963-10.929,57.841a44.669,44.669,0,0,0-10-6.7c8.558-14.64,9.176-36.086,9.176-51.139V83.419h36.705V74.243h12.785v9.176h36.6V94.348H621.486Zm68.667,23.92a50.56,50.56,0,0,1-17.631,19.59,136.341,136.341,0,0,0,25.364,4.433,48.865,48.865,0,0,0-7.217,10.517c-11.857-1.444-22.373-4.124-31.344-8.145-10.1,4.021-21.651,6.5-33.921,8.042a41.337,41.337,0,0,0-4.949-10.311,139.922,139.922,0,0,0,26.7-4.639A52.083,52.083,0,0,1,635.3,144.25l4.846-1.753H624.786v-9.588h55.572l2.165-.516Zm-52.17-7.424V112.7H624.064v-9.692h13.919V96.2H649.53v6.8H668.3V96.2h12.166v6.8h14.846V112.7H680.462v16.084Zm9.692,13.713a41.19,41.19,0,0,0,12.063,8.455A46.816,46.816,0,0,0,672.11,142.5Zm1.855-29.8v6.8H668.3v-6.8Z"></path><path class="cls-3" d="M753.734,149.289,767.305,133.8a27.789,27.789,0,0,0,19.836,9.222c14.79,0,26.97-10.788,28.014-43.151-7.134,8.874-18.1,14.093-26.448,14.093-21.575,0-37.061-12.527-37.061-38.8,0-25.578,18.444-41.586,40.541-41.586,24.36,0,46.283,18.618,46.283,61.769,0,47.849-23.837,68.554-49.763,68.554A47.453,47.453,0,0,1,753.734,149.289ZM793.579,95.7c6.786,0,14.964-4,20.88-13.746C811.848,60.9,803.149,52.9,792.535,52.9c-9.569,0-17.4,7.308-17.4,22.272C775.135,89.26,782.269,95.7,793.579,95.7Z"></path><path class="cls-3" d="M849.954,102.136c0-47.849,23.838-68.555,49.937-68.555A46.979,46.979,0,0,1,934.69,48.2L921.119,63.508c-4.525-5.045-12.354-9.221-19.836-9.221-14.789,0-26.97,10.962-28.014,43.325,7.135-8.874,18.1-14.094,26.449-14.094,21.575,0,37.06,12.354,37.06,38.627,0,25.752-18.443,41.759-40.541,41.759C871.878,163.9,849.954,145.113,849.954,102.136Zm24.012,13.224c2.436,21.227,11.135,29.231,21.75,29.231,9.743,0,17.573-7.482,17.573-22.446,0-14.094-7.308-20.531-18.444-20.531C888.233,101.614,880.4,105.268,873.966,115.36Z"></path><path class="cls-3" d="M945.491,153.014c0-5.671,4.021-9.9,9.383-9.9,5.464,0,9.485,4.227,9.485,9.9,0,5.568-4.021,9.9-9.485,9.9C949.512,162.912,945.491,158.582,945.491,153.014Z"></path><path class="cls-3" d="M1007.765,99.813H973.432V87.131h50.727V96.41c-17.321,21.136-20.105,36.086-21.342,65.058H987.455C988.8,135.8,993.538,119.609,1007.765,99.813Z"></path><path class="cls-3" d="M1034.056,149.2h16.394V102.905h-13.815V93.523c7.629-1.443,12.887-3.4,17.733-6.392h11.238V149.2h14.332v12.269h-45.882Z"></path><path class="cls-3" d="M1086.226,107.752c0-15.26,7.63-24.024,18.56-24.024s18.661,8.764,18.661,24.024c0,15.362-7.732,24.332-18.661,24.332S1086.226,123.114,1086.226,107.752Zm26.5,0c0-11.239-3.506-15.466-7.938-15.466s-7.836,4.227-7.836,15.466,3.4,15.774,7.836,15.774S1112.724,118.99,1112.724,107.752Zm36.086-24.024h8.971l-41.448,79.184h-8.97Zm-7.113,54.851c0-15.362,7.732-24.126,18.559-24.126s18.661,8.764,18.661,24.126c0,15.26-7.836,24.333-18.661,24.333S1141.7,153.839,1141.7,138.579Zm26.5,0c0-11.238-3.506-15.568-7.938-15.568s-7.836,4.33-7.836,15.568,3.4,15.672,7.836,15.672S1168.194,149.818,1168.194,138.579Z"></path><path class="cls-2" d="M259.375,220.9c9.031-8.99,14.114-14.367,14.114-19.282,0-3.4-1.849-5.838-5.671-5.838-2.52,0-4.7,1.6-6.386,3.57l-2.225-2.142c2.52-2.731,5.167-4.537,9.073-4.537,5.5,0,8.947,3.487,8.947,8.779,0,5.629-5.125,11.216-12.223,18.694,1.595-.126,3.444-.294,5.041-.294h8.695v3.318H259.375Z"></path><path class="cls-2" d="M282.894,208.084c0-10.04,3.655-15.417,9.619-15.417s9.579,5.419,9.579,15.417c0,10.039-3.613,15.626-9.579,15.626S282.894,218.123,282.894,208.084Zm15.459,0c0-8.78-2.352-12.35-5.84-12.35-3.528,0-5.88,3.57-5.88,12.35s2.352,12.56,5.88,12.56C296,220.644,298.353,216.863,298.353,208.084Z"></path><path class="cls-2" d="M306.372,228.877c2.646-1.176,4.2-3.234,4.2-5.713a1.723,1.723,0,0,1-.462.042,2.632,2.632,0,0,1-2.814-2.688,2.731,2.731,0,0,1,2.9-2.689c2.017,0,3.234,1.722,3.234,4.537a9.347,9.347,0,0,1-6.132,8.78Z"></path><path class="cls-2" d="M317.88,208.084c0-10.04,3.654-15.417,9.619-15.417s9.578,5.419,9.578,15.417c0,10.039-3.612,15.626-9.578,15.626S317.88,218.123,317.88,208.084Zm15.459,0c0-8.78-2.353-12.35-5.84-12.35-3.529,0-5.881,3.57-5.881,12.35s2.352,12.56,5.881,12.56C330.986,220.644,333.339,216.863,333.339,208.084Z"></path><path class="cls-2" d="M341.189,208.084c0-10.04,3.654-15.417,9.619-15.417s9.578,5.419,9.578,15.417c0,10.039-3.612,15.626-9.578,15.626S341.189,218.123,341.189,208.084Zm15.459,0c0-8.78-2.352-12.35-5.84-12.35-3.528,0-5.881,3.57-5.881,12.35s2.353,12.56,5.881,12.56C354.3,220.644,356.648,216.863,356.648,208.084Z"></path><path class="cls-2" d="M364.5,208.084c0-10.04,3.654-15.417,9.619-15.417s9.578,5.419,9.578,15.417c0,10.039-3.612,15.626-9.578,15.626S364.5,218.123,364.5,208.084Zm15.459,0c0-8.78-2.353-12.35-5.84-12.35-3.528,0-5.881,3.57-5.881,12.35s2.353,12.56,5.881,12.56C377.605,220.644,379.958,216.863,379.958,208.084Z"></path><path class="cls-2" d="M429.729,198.17a44.963,44.963,0,0,1-10.165,16.845,40.3,40.3,0,0,0,17.055,8.317,14.07,14.07,0,0,0-2.227,3.025,40.432,40.432,0,0,1-17.348-8.99,48.848,48.848,0,0,1-17.056,9.032,12.67,12.67,0,0,0-1.974-2.983,45.7,45.7,0,0,0,16.677-8.317,47.639,47.639,0,0,1-10-16.929h-6.175V195.1h17.1V188h3.15v7.1H436.2v3.067Zm-21.592,0a40.609,40.609,0,0,0,9.033,14.66,39.443,39.443,0,0,0,8.947-14.66Z"></path><path class="cls-2" d="M477.275,213.5H460.933v8.989c0,1.849-.5,2.773-1.973,3.277-1.429.462-3.656.5-7.142.5a13.49,13.49,0,0,0-1.428-3.067c2.857.084,5.587.084,6.3.042.756-.042.966-.21.966-.8V213.5h-16.3V210.52h16.3v-3.109h1.555a33.139,33.139,0,0,0,5.923-4.452H448.122v-2.9h19.911l.672-.168,2.058,1.554a39.178,39.178,0,0,1-9.83,7.772v1.3h16.342ZM444.8,202.371h-3.066v-9.788h15.837v-4.621h3.234v4.621h15.921v9.788h-3.192v-6.89H444.8Z"></path><path class="cls-2" d="M498.355,194.809a103.346,103.346,0,0,0,12.812-1.3l-.042,3.108a121.272,121.272,0,0,1-13.947,1.177,33.3,33.3,0,0,1-3.78,6.511,12.026,12.026,0,0,1,5.839-1.554c2.731,0,4.957,1.344,5.629,3.78,2.856-1.386,5.419-2.394,7.6-3.4,1.26-.546,2.269-1.009,3.445-1.639l1.387,3.151a36.6,36.6,0,0,0-3.74,1.344c-2.351.882-5.335,2.1-8.527,3.613.042,2.436.084,6.007.126,8.065h-3.234c.084-1.6.125-4.326.125-6.553-3.906,2.059-6.636,4.285-6.636,7.057,0,3.277,3.276,3.781,7.6,3.781a74.816,74.816,0,0,0,11.469-1.008L514.4,224.3a98.914,98.914,0,0,1-11.511.755c-6.006,0-10.838-1.3-10.838-6.426,0-4.957,5-8.066,9.915-10.628-.42-1.807-1.933-2.6-3.823-2.6a11.055,11.055,0,0,0-7.225,3.067,55.477,55.477,0,0,0-3.823,4.368l-2.857-2.1c5.293-5.125,8.108-9.451,9.7-12.854H492.1c-1.805,0-4.578-.084-6.888-.252v-3.151a61.486,61.486,0,0,0,7.1.462c.883,0,1.849,0,2.774-.042a21.523,21.523,0,0,0,1.05-5.251l3.444.294A42.885,42.885,0,0,1,498.355,194.809Z"></path><path class="cls-2" d="M535.482,220.938c2.521,1.008,5.755,1.344,9.914,1.344,2.058.042,14.828.042,17.433-.084a10.174,10.174,0,0,0-1.3,3.109H545.48c-8.948,0-13.9-1.386-16.971-7.1a24.962,24.962,0,0,1-2.479,8.234,19.4,19.4,0,0,0-2.479-1.513c2.395-4.2,2.816-10.754,2.9-18.1l2.856.168c-.042,2.059-.126,4.075-.252,5.965a13.864,13.864,0,0,0,3.613,6.26V203.8H524.6v-2.772h7.478V195.86H525.4v-2.773h6.68v-5.041h2.9v5.041h6.553v2.773h-6.553v5.167h7.393v1.806c3.739-2.143,5.714-5.419,6.3-10.376h-5.839v-2.689H561.19s0,.883-.042,1.3c-.378,7.478-.756,10.418-1.68,11.469a3.283,3.283,0,0,1-2.436,1.05,32.628,32.628,0,0,1-4.579,0,7.644,7.644,0,0,0-.8-2.689c1.723.169,3.36.169,3.99.169a1.327,1.327,0,0,0,1.261-.379c.546-.63.924-2.772,1.218-8.233H551.7c-.84,6.259-3.444,10.166-7.939,12.812a12.607,12.607,0,0,0-1.681-1.47h-6.6v5.965h6.511v2.772h-6.511Zm8.737-15.039h16v12.939h-16Zm2.941,10.334h10V208.5h-10Z"></path><path class="cls-2" d="M592.479,203.925c-1.6,1.47-6.344,5.881-7.9,7.477a7.258,7.258,0,0,1,1.637.084c1.639.168,2.6,1.3,3.193,3.025.378,1.218.967,3.318,1.387,4.705.5,1.6,1.511,2.268,3.654,2.268a36.24,36.24,0,0,0,7.939-.84l-.21,3.529a62.926,62.926,0,0,1-7.9.629c-3.36,0-5.461-.8-6.343-3.57-.42-1.26-1.051-3.739-1.429-4.957-.5-1.47-1.427-2.226-2.562-2.226a4.48,4.48,0,0,0-3.108,1.512,115.756,115.756,0,0,0-8.528,9.367l-3.192-2.226c.5-.462,1.26-1.092,2.1-1.89,1.68-1.722,13.106-13.149,17.265-17.307-3.318.21-10.376.8-12.938,1.008-1.386.126-2.479.252-3.4.42l-.294-3.7a31.626,31.626,0,0,0,3.571.083c2.394-.041,12.182-.714,15.333-1.092a9.029,9.029,0,0,0,2.016-.462l2.016,2.268A24.561,24.561,0,0,0,592.479,203.925Zm1.47-11.678-.462,3.108c-4.2-.378-11.552-1.344-16.677-2.268l.546-3.067A139.043,139.043,0,0,0,593.949,192.247Z"></path><path class="cls-2" d="M619.23,192.373c2.185,0,12.182-.336,14.408-.546a9.827,9.827,0,0,0,2.269-.337l1.933,2.437c-.757.546-1.6,1.092-2.353,1.723-2.1,1.6-7.813,6.468-11.09,9.2a17.774,17.774,0,0,1,5.839-.882c6.974,0,11.972,4.2,11.972,9.872,0,6.763-5.545,11.131-14.45,11.131-5.713,0-9.2-2.478-9.2-5.964,0-2.9,2.563-5.461,6.469-5.461a8.131,8.131,0,0,1,8.569,7.435c3.361-1.3,5.251-3.739,5.251-7.183,0-4.117-3.948-7.226-9.409-7.226-7.015,0-10.754,2.983-16.089,8.4l-2.394-2.479c3.486-2.856,8.863-7.351,11.3-9.409,2.352-1.932,7.6-6.344,9.746-8.234-2.227.084-10.628.462-12.855.588-.925.042-1.89.126-2.772.253l-.126-3.487A25.042,25.042,0,0,0,619.23,192.373Zm7.982,29.657a21.574,21.574,0,0,0,3.4-.252c-.336-3.319-2.437-5.713-5.629-5.713-1.891,0-3.36,1.218-3.36,2.689C621.625,220.77,623.935,222.03,627.212,222.03Z"></path><path class="cls-2" d="M662.406,195.019a26.509,26.509,0,0,0-.336-4.368h4.117c-.126,1.3-.294,3.108-.294,4.368v6.847A134.23,134.23,0,0,1,683.83,208.8l-1.428,3.57a110.194,110.194,0,0,0-16.509-6.763c.042,6.3.042,12.644.042,13.862,0,1.3.084,3.571.252,4.957h-4.075a37.012,37.012,0,0,0,.294-4.957Z"></path><path class="cls-2" d="M726.587,204.177a28.948,28.948,0,0,1-6.134,11.93,30.41,30.41,0,0,1-15.038,8.779L702.81,221.9a27.986,27.986,0,0,0,14.786-7.688,21.45,21.45,0,0,0,5-9.283H700.29c-1.009,0-2.605.042-4.117.126V201.53a39.7,39.7,0,0,0,4.117.252h22.137a5.586,5.586,0,0,0,2.311-.336l2.395,1.513A7.344,7.344,0,0,0,726.587,204.177Zm-22.853-12.1h16.509a26.175,26.175,0,0,0,3.823-.21v3.486c-1.009-.084-2.436-.126-3.865-.126H703.734c-1.3,0-2.646.042-3.78.126v-3.486A26.264,26.264,0,0,0,703.734,192.079Z"></path><path class="cls-2" d="M754.219,200.144a50.015,50.015,0,0,0,11.468-9.871l2.815,2.6a68.733,68.733,0,0,1-11.342,9.367v17.728a31.693,31.693,0,0,0,.252,4.494H753.3a38.96,38.96,0,0,0,.252-4.494V204.429a83.018,83.018,0,0,1-16,6.847L735.862,208A69.436,69.436,0,0,0,754.219,200.144Z"></path><path class="cls-2" d="M812.224,196.279a40.5,40.5,0,0,1-10.46,11.6l-2.772-2.227a28.533,28.533,0,0,0,9.2-9.41H784.248a46.935,46.935,0,0,0-4.789.252v-3.822a35.631,35.631,0,0,0,4.789.378H808.36a20.756,20.756,0,0,0,2.941-.252l2.058,1.974C813.064,195.187,812.518,195.818,812.224,196.279Zm-27.346,28.439-3.109-2.52a14.471,14.471,0,0,0,3.781-1.89c6.511-3.991,7.435-9.956,7.435-16.971a25.254,25.254,0,0,0-.168-3.025h3.78C796.6,211.7,795.59,219.383,784.878,224.718Z"></path><path class="cls-2" d="M826.332,211.738c1.218-3.822,1.26-12.224,1.26-16.887a15.473,15.473,0,0,0-.294-3.066h3.865c-.042.5-.211,1.764-.211,3.024,0,4.663-.168,13.653-1.3,17.853a23.477,23.477,0,0,1-7.477,11.553l-3.151-2.143A19.944,19.944,0,0,0,826.332,211.738Zm12.223,8.192V194.767a19.933,19.933,0,0,0-.252-3.108h3.866a25.989,25.989,0,0,0-.168,3.108v24.239a32.28,32.28,0,0,0,12.265-10.334l1.975,2.856a41.755,41.755,0,0,1-14.324,11.636,8.949,8.949,0,0,0-1.429.967l-2.227-1.849A10,10,0,0,0,838.555,219.93Z"></path><path class="cls-2" d="M880.639,224.466l-1.973-3.108a31.726,31.726,0,0,0,3.612-.546c5.377-1.219,10.67-5.209,10.67-12.476,0-6.344-4.075-11.595-11.216-12.182a82.8,82.8,0,0,1-2.52,12.1c-2.563,8.653-5.881,13.064-9.788,13.064-3.739,0-7.478-4.285-7.478-11.216,0-9.115,8.107-17.1,18.357-17.1,9.831,0,16.089,6.931,16.089,15.459C896.392,217.283,890.6,223.164,880.639,224.466Zm-11.089-7.015c1.974,0,4.2-2.814,6.343-9.914a68.625,68.625,0,0,0,2.352-11.342c-8.066,1.009-13.022,7.9-13.022,13.611C865.223,215.1,867.659,217.451,869.55,217.451Z"></path><path class="cls-2" d="M906.886,212.326A36.9,36.9,0,0,1,903.9,223a10.909,10.909,0,0,0-2.436-1.176,30.19,30.19,0,0,0,2.73-10Zm7.688-10.88a35.879,35.879,0,0,1,4.159,8.528l-2.478,1.176a16.25,16.25,0,0,0-.8-2.436l-3.656.252v17.475h-2.814V209.134c-2.52.126-4.831.252-6.847.336l-.252-2.815c.84,0,1.806-.042,2.773-.084.924-1.092,1.89-2.394,2.814-3.738a36.442,36.442,0,0,0-5.5-6.05l1.6-2.016c.42.336.841.714,1.261,1.093a57.347,57.347,0,0,0,3.738-7.814l2.773,1.05a75.61,75.61,0,0,1-4.789,8.444,29.558,29.558,0,0,1,2.562,2.9c1.723-2.646,3.319-5.377,4.495-7.645l2.689,1.176a122.447,122.447,0,0,1-8.7,12.476c2.1-.083,4.41-.168,6.721-.294-.63-1.26-1.344-2.562-2.059-3.7Zm1.093,10.208a36.39,36.39,0,0,1,2.814,8.065L916,220.56a41.853,41.853,0,0,0-2.689-8.15ZM930.5,196.783v6.3h9.032V205.9H918.985v-2.814h8.359v-6.3h-9.662v-2.856h9.662V188H930.5v5.923h9.956v2.856Zm-10.166,13.7H938.35v15.711h-3.024v-1.974h-12.1v2.1h-2.9Zm2.9,2.815V221.4h12.1v-8.107Z"></path><path class="cls-2" d="M967.5,213.04a41.715,41.715,0,0,0,15.165,9.158,13.884,13.884,0,0,0-2.143,2.6,46.473,46.473,0,0,1-15.627-10.669V226.4h-3.234V214.342A41.747,41.747,0,0,1,946.03,224.97a14.818,14.818,0,0,0-2.1-2.562,37.891,37.891,0,0,0,15.122-9.368H944.98v-2.9h16.677v-3.529h-12.6V190.02h28.691v16.593H964.891v3.529h16.678v2.9Zm-15.29-16h9.451v-4.285h-9.451Zm9.451,6.889V199.6h-9.451v4.327Zm12.77-11.174h-9.536v4.285h9.536Zm0,6.847h-9.536v4.327h9.536Z"></path><path class="cls-2" d="M986.434,216.149l2.731-2.394a78.924,78.924,0,0,1,9.409,9.325l-2.856,2.437A70,70,0,0,0,986.434,216.149Z"></path><path class="cls-2" d="M1057.041,215.435h9.158v2.436h-9.158v5.167c0,1.638-.336,2.437-1.638,2.857-1.3.462-3.444.462-6.89.462a9.408,9.408,0,0,0-1.049-2.647c2.688.084,5.041.042,5.712,0,.714,0,.882-.168.882-.714v-5.125H1028.35v-2.436h25.708v-2.563c-3.276.042-6.426,0-8.527-.084-4.368-.126-7.562-1.218-9.661-3.78-2.059,1.428-4.117,2.814-6.344,4.243l-1.26-2.605a61.4,61.4,0,0,0,5.8-3.361v-5.923h-5.545v-2.436h8.4v7.9c1.6,2.437,4.747,3.487,8.569,3.613,4.831.168,15.669.042,21-.252a11.1,11.1,0,0,0-.84,2.52c-2.185.084-5.335.168-8.612.168Zm-21.676-19.449a24.858,24.858,0,0,0-5.629-5.419l2.1-1.681a26.944,26.944,0,0,1,5.755,5.167Zm2.269,21.927a32.675,32.675,0,0,1,6.259,4.831l-2.268,1.974a27.466,27.466,0,0,0-6.134-5Zm12.14-21.718c.168-.672.336-1.428.5-2.1h-11.51v-2.268h7.057a16.072,16.072,0,0,0-1.89-3.151l2.521-.63a14.062,14.062,0,0,1,2.351,3.781h7.058a29.78,29.78,0,0,0,2.353-3.865l2.94.672c-.756,1.176-1.6,2.269-2.311,3.193h7.142V194.1h-12.771l-.755,2.1h10.081v12.351h-20.457V196.2Zm9.745,1.723h-14.492v1.806h14.492Zm0,3.444h-14.492v1.891h14.492Zm0,3.571h-14.492v1.932h14.492Z"></path><path class="cls-2" d="M1088.161,190.1l3.571-.462a31.955,31.955,0,0,0,1.008,5,46.747,46.747,0,0,0,8.611-1.89l.462,3.025a61.294,61.294,0,0,1-8.275,1.68c.3,1.05.631,2.016.925,2.9.294.8.63,1.68.965,2.521a46.5,46.5,0,0,0,8.4-1.806l.5,3.15a65.467,65.467,0,0,1-7.6,1.512,41.612,41.612,0,0,0,2.941,5.209,12.61,12.61,0,0,0,1.553,1.806l-1.721,2.563a77.669,77.669,0,0,0-9.2-1.344l.294-2.563c2.227.252,4.957.546,6.3.714a44.39,44.39,0,0,1-3.277-6.049,122.247,122.247,0,0,1-18.483.084l-.168-3.15a94.181,94.181,0,0,0,17.433.21c-.294-.756-.588-1.471-.84-2.184q-.63-1.765-1.135-3.277a100.67,100.67,0,0,1-14.45-.294l-.21-3.067a84.183,84.183,0,0,0,13.863.5,9.806,9.806,0,0,1-.294-1.05C1089,192.583,1088.582,191.28,1088.161,190.1Zm-8.863,26.675c0,3.487,3.108,5.209,9.7,5.209a47.575,47.575,0,0,0,10-.882l-.126,3.36a63.891,63.891,0,0,1-9.829.715c-8.234,0-12.855-2.437-12.9-7.814a12.2,12.2,0,0,1,1.639-6.007l3.276.672A8.138,8.138,0,0,0,1079.3,216.779Z"></path><path class="cls-2" d="M1126.843,194.053c-.168.924-.42,1.975-.63,3.109a70.633,70.633,0,0,0,8.065-1.47v3.276a80.672,80.672,0,0,1-8.737,1.428c-.42,1.848-.841,3.781-1.345,5.629a127.042,127.042,0,0,1-6.553,19.24l-3.7-1.26c2.521-4.328,5.5-12.855,7.058-18.778.378-1.386.756-2.983,1.091-4.5-1.385.084-2.688.126-3.864.126-1.848,0-3.36-.084-4.873-.168l-.126-3.276a38.062,38.062,0,0,0,5.041.294c1.386,0,2.9-.084,4.537-.21.294-1.47.5-2.815.63-3.655a16.481,16.481,0,0,0,.126-3.444l4.032.336C1127.346,191.617,1127.01,193.213,1126.843,194.053Zm5,23.44c0,1.974,1.091,3.907,7.1,3.907a40.446,40.446,0,0,0,8.192-.84l-.126,3.4a55.364,55.364,0,0,1-8.108.629c-6.638,0-10.25-2.058-10.25-6.217a23.557,23.557,0,0,1,.63-4.956l3.15.294A14.845,14.845,0,0,0,1131.842,217.493Zm7.393-14.366a67.231,67.231,0,0,1,7.267.378l-.084,3.192a53.275,53.275,0,0,0-7.057-.5,69.279,69.279,0,0,0-7.813.462v-3.15C1133.774,203.3,1136.547,203.127,1139.235,203.127Zm6.175-5.335-2.269,1.008a48.01,48.01,0,0,0-3.4-5.839l2.227-.966A46.973,46.973,0,0,1,1145.41,197.792Zm4.747-1.722-2.269,1.008a44.573,44.573,0,0,0-3.486-5.84l2.185-.965A54.1,54.1,0,0,1,1150.157,196.07Z"></path><path class="cls-2" d="M1173.212,190.1l3.57-.462a50.171,50.171,0,0,0,1.933,7.183,53.885,53.885,0,0,0,9.367-2.058l.378,3.277a62.443,62.443,0,0,1-8.7,1.722,44.762,44.762,0,0,0,4.705,8.654c.588.8,1.218,1.512,1.849,2.226L1184.6,213a94.943,94.943,0,0,0-10.124-1.134l.252-2.814c2.353.21,5.461.462,6.974.63a56.127,56.127,0,0,1-5.083-9.578,107.946,107.946,0,0,1-17.643-.084l-.085-3.361a87.728,87.728,0,0,0,16.594.5c-.505-1.554-.925-2.815-1.219-3.781C1173.968,192.5,1173.59,191.2,1173.212,190.1Zm-9.83,25.793c0,3.991,3.654,5.755,9.872,5.8a46.841,46.841,0,0,0,10.838-1.05l-.168,3.361a61.144,61.144,0,0,1-10.838.923c-7.982-.042-13.023-2.94-13.023-8.653a16.366,16.366,0,0,1,2.017-6.973l3.276.756A10.8,10.8,0,0,0,1163.382,215.9Z"></path><path class="cls-2" d="M1206.39,189.81l3.949.126c-.21,1.051-.546,3.4-.84,6.343.084-.042.168-.042.252-.084l1.217,1.471c-.545.756-1.259,1.89-1.889,2.94-.085.8-.127,1.6-.211,2.437,3.277-3.025,8.7-7.1,12.938-7.1,3.908,0,5.839,2.226,5.839,5.628,0,4.2-1.553,11.426-1.553,15.711,0,1.387.671,2.563,2.184,2.563,2.016,0,4.2-1.218,6.343-3.487l.546,3.613a10.9,10.9,0,0,1-7.73,3.486c-2.772,0-4.662-1.806-4.662-5.293,0-4.662,1.6-11.552,1.6-15.668,0-2.437-1.26-3.445-3.4-3.445-3.4,0-8.486,3.949-12.351,8.065-.084,1.765-.126,3.445-.126,4.957,0,3.823-.042,6.385.168,10.124.042.756.126,1.807.21,2.562h-3.654c.084-.755.126-1.806.126-2.478.042-4.033.042-6.175.126-10.754,0-.42.042-1.008.042-1.68-2.059,3.108-4.832,7.1-6.847,9.956l-2.143-2.9c2.353-2.94,7.226-9.494,9.325-12.77.084-1.386.21-2.815.294-4.159-1.889.252-5.586.756-8.233,1.135l-.336-3.445c.925.042,1.723,0,2.731-.042,1.386-.084,3.865-.336,6.049-.715.126-1.974.21-3.528.21-3.99A20.091,20.091,0,0,0,1206.39,189.81Z"></path><path class="cls-2" d="M1254.1,193.465c-.168.882-.378,1.974-.631,3.108a62.044,62.044,0,0,0,8.066-1.512v3.319a80.712,80.712,0,0,1-8.737,1.428c-.378,1.848-.84,3.781-1.344,5.629a128.717,128.717,0,0,1-6.554,19.239l-3.7-1.26c2.52-4.326,5.5-12.854,7.056-18.777.379-1.386.757-2.983,1.093-4.5-1.387.084-2.688.126-3.865.126-1.848,0-3.36-.084-4.872-.168l-.126-3.277a37.9,37.9,0,0,0,5.04.3c1.387,0,2.9-.084,4.537-.211.294-1.47.5-2.814.63-3.654a16.8,16.8,0,0,0,.126-3.487l4.033.336C1254.607,191.029,1254.271,192.625,1254.1,193.465Zm5,23.44c0,1.975,1.092,3.907,7.1,3.907a40.436,40.436,0,0,0,8.191-.84l-.126,3.4a55.838,55.838,0,0,1-8.107.589c-6.637,0-10.25-2.017-10.25-6.176a26.2,26.2,0,0,1,.631-4.957l3.15.295A14.85,14.85,0,0,0,1259.1,216.905Zm7.393-14.366a67.245,67.245,0,0,1,7.267.378l-.084,3.192a53.119,53.119,0,0,0-7.057-.5,69.053,69.053,0,0,0-7.814.42v-3.108C1261.034,202.707,1263.806,202.539,1266.495,202.539Z"></path><path class="cls-2" d="M1294.171,197.54h-14.157v-2.563h14.157Zm-1.092,26.381h-8.7V225.9h-2.647V211.822h11.343Zm-11.3-23.273h11.3v2.479h-11.3Zm0,5.545h11.3v2.521h-11.3ZM1292.91,192h-10.88v-2.521h10.88Zm-8.527,22.389V221.4h6.049v-7.016Zm19.786-5.04c-.379,8.905-1.765,14.156-9.159,17.055a10.7,10.7,0,0,0-1.805-2.436c6.721-2.395,7.686-6.764,8.023-14.619Zm-6.3,2.058h-2.815v-7.393h22.853V211.4h-2.9v-4.831h-17.14Zm6.848-16.971h-9.495v-2.646h9.495V188h3.108v3.781h9.914v2.646h-9.914v3.907h8.695v2.647h-19.953v-2.647h8.15Zm10.376,28.649c.923,0,1.091-.672,1.217-5.5a8.505,8.505,0,0,0,2.563,1.219c-.21,5.628-.966,7.1-3.445,7.1h-3.486c-2.857,0-3.529-.925-3.529-3.991v-12.56h2.9V221.9c0,1.05.126,1.176,1.009,1.176Z"></path><path class="cls-2" d="M1339.825,193.549v32.724H1336.8v-7.6c-5.293.881-10.67,1.68-14.661,2.352l-.546-3.151c1.176-.126,2.562-.294,4.075-.5V193.549h-3.277v-2.9h20.373v2.9Zm-3.024,0h-8.192v5.587h8.192Zm0,8.359h-8.192v5.84h8.192Zm-8.192,15.039c2.563-.336,5.377-.756,8.192-1.176V210.6h-8.192Zm30.708-22.726c-1.093,8.99-3.445,15.963-6.806,21.3a23.327,23.327,0,0,0,8.654,7.813,13.06,13.06,0,0,0-2.227,2.563,26.271,26.271,0,0,1-8.359-7.6,29.983,29.983,0,0,1-8.569,7.478,11.95,11.95,0,0,0-2.059-2.521,25.612,25.612,0,0,0,8.822-7.771c-2.9-4.957-4.873-11.048-6.26-17.937l2.983-.546a54.1,54.1,0,0,0,5.167,15.542,46.083,46.083,0,0,0,5.209-15.711h-14.156v-3.066h15l.588-.126Z"></path><path class="cls-2" d="M1372.878,205.9c1.133,1.428,4.621,6.511,5.419,7.814l-2.1,2.394a64.5,64.5,0,0,0-3.318-6.343v16.551h-2.857V210.646a47.1,47.1,0,0,1-4.7,10.544,17.457,17.457,0,0,0-1.68-3.151,46.437,46.437,0,0,0,5.881-13.064H1364.1v-2.941h5.923v-13.9h2.857v13.9h4.621v2.941h-4.621Zm-6.049-5.419a39.661,39.661,0,0,0-2.269-9.2l2.143-.5a39.991,39.991,0,0,1,2.436,9.115Zm6.6-.588a75.534,75.534,0,0,0,2.688-9.325l2.563.629a93.9,93.9,0,0,1-3.319,9.326Zm28.985,1.638v2.4h-23.441v-2.4h9.957v-2.856h-7.73v-2.269h7.73v-2.562h-8.78v-2.395h8.78v-3.36h2.982v3.36h9.452v2.395h-9.452v2.562h8.527v2.269h-8.527v2.856Zm-2.773,21.634c0,1.512-.293,2.269-1.428,2.731-1.092.42-2.815.462-5.419.462a8.689,8.689,0,0,0-.882-2.6c1.891.042,3.612.042,4.117.042.546,0,.672-.168.672-.63v-3.613h-12.1v6.806h-2.982V206.445h18.021ZM1384.6,208.84v3.108h12.1V208.84Zm12.1,8.485v-3.109h-12.1v3.109Z"></path><path class="cls-2" d="M1412.4,195.019v9.158c0,6.469-.5,15.921-4.117,22.264a12.078,12.078,0,0,0-2.562-1.765c3.445-5.964,3.739-14.45,3.739-20.5V192.163h15.417v-4.117h3.192v4.117h15.669v2.856Zm28.188,17.769a20.746,20.746,0,0,1-8.445,8.36,53.446,53.446,0,0,0,12.351,2.646,9.267,9.267,0,0,0-1.807,2.647,47.923,47.923,0,0,1-13.82-3.7,56.9,56.9,0,0,1-14.786,3.613,10.8,10.8,0,0,0-1.3-2.6,57,57,0,0,0,12.939-2.688,21.14,21.14,0,0,1-6.595-6.007l1.68-.63h-6.469v-2.563h23.734l.546-.126Zm-20.08-3.57v-6.932h-6.679v-2.562h6.679V196.07h2.982v3.654h10.166V196.07h3.024v3.654h6.764v2.562h-6.764v6.932Zm1.6,5.209a18.809,18.809,0,0,0,6.8,5.334,19.318,19.318,0,0,0,7.1-5.334Zm1.386-12.141V206.7h10.166v-4.411Z"></path><path class="cls-2" d="M295.082,260.549h3.3l7.966,23.486h-3.135l-2.24-7.167h-8.575l-2.272,7.167h-3.008ZM293.13,274.5h7.1l-1.12-3.584c-.863-2.656-1.6-5.215-2.367-7.935h-.128c-.736,2.752-1.5,5.279-2.336,7.935Z"></path><path class="cls-2" d="M309.642,260.549h2.976v23.486h-2.976Z"></path><path class="cls-2" d="M317.29,273.956h8.191v2.24H317.29Z"></path><path class="cls-2" d="M328.777,272.228c0-7.519,4.128-12.1,10.016-12.1s10.015,4.576,10.015,12.1-4.128,12.223-10.015,12.223S328.777,279.748,328.777,272.228Zm16.991,0c0-5.887-2.784-9.5-6.975-9.5-4.224,0-6.976,3.616-6.976,9.5,0,5.856,2.752,9.632,6.976,9.632C342.984,281.86,345.768,278.084,345.768,272.228Z"></path><path class="cls-2" d="M352.52,272.324c0-7.583,4.448-12.191,10.4-12.191a8.671,8.671,0,0,1,6.431,2.912l-1.6,1.92a6.407,6.407,0,0,0-4.8-2.24c-4.447,0-7.392,3.648-7.392,9.5,0,5.92,2.817,9.632,7.3,9.632a7.134,7.134,0,0,0,5.44-2.624l1.631,1.855a9.064,9.064,0,0,1-7.2,3.36C356.9,284.451,352.52,279.94,352.52,272.324Z"></path><path class="cls-2" d="M374.281,260.549h7.359c4.768,0,8.192,1.728,8.192,6.624a6.362,6.362,0,0,1-5.312,6.591l6.016,10.271h-3.36l-5.7-9.951h-4.223v9.951h-2.976Zm6.911,11.135c3.68,0,5.695-1.472,5.695-4.511,0-3.1-2.015-4.192-5.695-4.192h-3.935v8.7Z"></path><path class="cls-2" d="M407.336,262.117a74.293,74.293,0,0,0-1.6,12.255,35.1,35.1,0,0,0,.288,4.48c.544-1.44,1.312-3.36,1.856-4.672l1.343,1.024a65.269,65.269,0,0,0-2.271,7.167,6.176,6.176,0,0,0-.16,1.44c.032.352.064.8.1,1.12l-2.3.16A40.276,40.276,0,0,1,403.4,274.82a89.993,89.993,0,0,1,1.44-12.831,14,14,0,0,0,.224-2.272l2.848.256C407.752,260.517,407.464,261.541,407.336,262.117Zm7.456,16.287c0,1.472,1.055,2.879,5.407,2.879a35.243,35.243,0,0,0,7.936-.832l.063,2.688a43.266,43.266,0,0,1-8,.672c-5.376,0-7.775-1.791-7.775-4.8a17.137,17.137,0,0,1,.544-3.776l2.3.224A11.168,11.168,0,0,0,414.792,278.4Zm12.383-16V265a75.218,75.218,0,0,1-13.152,0v-2.56A54.749,54.749,0,0,0,427.175,262.4Z"></path><path class="cls-2" d="M448.519,262.085c-.032.864,0,2.016,0,3.264,2.528-.064,6.592-.224,9.471-.576l.1,2.4c-2.848.288-6.944.48-9.568.512v.256c0,2.111.16,5.215.32,8a25.383,25.383,0,0,1,9.952,5.44l-1.536,2.431a22.738,22.738,0,0,0-8.32-5.311c.033.832.064,1.568.064,2.144,0,2.623-1.6,4.863-5.856,4.863-4.415,0-7.679-1.408-7.679-5.056,0-2.879,2.528-5.247,8.063-5.247a19.087,19.087,0,0,1,2.72.192c-.128-2.592-.256-5.535-.256-7.455,0-1.856,0-4.48-.031-5.856a16.1,16.1,0,0,0-.257-3.168h3.04C448.647,259.589,448.551,261.125,448.519,262.085Zm-5.632,21.023c2.336,0,3.489-1.088,3.489-3.3,0-.513-.033-1.216-.033-2.048a14.69,14.69,0,0,0-3.135-.32c-3.3,0-5.184,1.152-5.184,2.912S439.816,283.108,442.887,283.108Z"></path><path class="cls-2" d="M473.32,260.581c1.663,0,9.279-.256,10.975-.416a7.545,7.545,0,0,0,1.728-.256l1.472,1.856c-.576.416-1.216.832-1.792,1.312-1.6,1.216-5.952,4.928-8.447,7.007a13.531,13.531,0,0,1,4.447-.672c5.311,0,9.119,3.2,9.119,7.52,0,5.152-4.224,8.479-11.007,8.479-4.351,0-7.008-1.887-7.008-4.544,0-2.207,1.953-4.159,4.928-4.159a6.194,6.194,0,0,1,6.527,5.663,5.618,5.618,0,0,0,4-5.471c0-3.136-3.007-5.5-7.167-5.5-5.343,0-8.191,2.272-12.255,6.4l-1.824-1.888c2.656-2.176,6.751-5.6,8.608-7.168,1.792-1.471,5.791-4.831,7.423-6.271-1.7.064-8.1.352-9.791.448-.7.032-1.44.1-2.112.192l-.1-2.656A19.068,19.068,0,0,0,473.32,260.581Zm6.079,22.591a16.308,16.308,0,0,0,2.592-.193c-.256-2.528-1.856-4.351-4.288-4.351a2.338,2.338,0,0,0-2.56,2.047C475.143,282.212,476.9,283.172,479.4,283.172Z"></path><path class="cls-2" d="M506.216,262.6a20.307,20.307,0,0,0-.256-3.328H509.1c-.1.992-.223,2.368-.223,3.328v5.216a102.112,102.112,0,0,1,13.662,5.279l-1.088,2.72a83.831,83.831,0,0,0-12.574-5.152c.031,4.8.031,9.632.031,10.559,0,.993.065,2.72.192,3.776h-3.1a28.353,28.353,0,0,0,.224-3.776Z"></path><path class="cls-2" d="M555.11,269.572a22.026,22.026,0,0,1-4.672,9.088,23.164,23.164,0,0,1-11.455,6.687L537,283.075a21.306,21.306,0,0,0,11.262-5.855,16.351,16.351,0,0,0,3.809-7.072H535.08c-.768,0-1.984.032-3.136.1v-2.688a30,30,0,0,0,3.136.193h16.862a4.241,4.241,0,0,0,1.761-.257l1.823,1.152A5.68,5.68,0,0,0,555.11,269.572ZM537.7,260.357h12.575a19.917,19.917,0,0,0,2.911-.16v2.656c-.767-.064-1.855-.1-2.943-.1H537.7c-.992,0-2.016.032-2.88.1V260.2A20,20,0,0,0,537.7,260.357Z"></path><path class="cls-2" d="M576.167,266.5a38.1,38.1,0,0,0,8.735-7.52l2.145,1.984a52.347,52.347,0,0,1-8.64,7.135v13.5a24.131,24.131,0,0,0,.192,3.423h-3.135a29.933,29.933,0,0,0,.191-3.423v-11.84a63.171,63.171,0,0,1-12.191,5.216l-1.28-2.5A52.938,52.938,0,0,0,576.167,266.5Z"></path><path class="cls-2" d="M620.358,263.557a30.808,30.808,0,0,1-7.968,8.831l-2.111-1.7a21.765,21.765,0,0,0,7.008-7.167H599.048a35.756,35.756,0,0,0-3.648.192v-2.912a27.156,27.156,0,0,0,3.648.288h18.367a15.788,15.788,0,0,0,2.239-.192l1.568,1.5C621,262.725,620.582,263.205,620.358,263.557Zm-20.83,21.662-2.368-1.92a11.063,11.063,0,0,0,2.88-1.439c4.96-3.04,5.663-7.584,5.663-12.928a19.016,19.016,0,0,0-.128-2.3h2.88C608.455,275.3,607.687,281.155,599.528,285.219Z"></path><path class="cls-2" d="M631.112,275.332c.928-2.912.96-9.311.96-12.863a11.781,11.781,0,0,0-.225-2.336h2.945c-.032.384-.16,1.344-.16,2.3,0,3.551-.128,10.4-.993,13.6a17.88,17.88,0,0,1-5.7,8.8l-2.4-1.632A15.19,15.19,0,0,0,631.112,275.332Zm9.312,6.239V262.4a15.133,15.133,0,0,0-.193-2.368h2.944a19.8,19.8,0,0,0-.128,2.368v18.462A24.573,24.573,0,0,0,652.39,273l1.5,2.176a31.794,31.794,0,0,1-10.911,8.863,6.847,6.847,0,0,0-1.088.736l-1.7-1.408A7.61,7.61,0,0,0,640.424,281.571Z"></path><path class="cls-2" d="M660.488,275.78a28.178,28.178,0,0,1-2.271,8.127,8.385,8.385,0,0,0-1.857-.9,22.961,22.961,0,0,0,2.08-7.615Zm5.855-8.288a27.353,27.353,0,0,1,3.168,6.5l-1.887.9a12.4,12.4,0,0,0-.609-1.856l-2.783.192v13.311h-2.144V273.348c-1.92.1-3.68.192-5.216.256l-.192-2.144c.64,0,1.376-.032,2.112-.064.7-.832,1.44-1.824,2.144-2.847a27.752,27.752,0,0,0-4.192-4.608l1.216-1.536c.32.256.64.544.96.832a43.678,43.678,0,0,0,2.848-5.952l2.112.8a57.581,57.581,0,0,1-3.648,6.432,22.405,22.405,0,0,1,1.952,2.208c1.312-2.016,2.528-4.1,3.423-5.824l2.048.9a93.162,93.162,0,0,1-6.623,9.5c1.6-.063,3.359-.128,5.119-.224-.479-.96-1.023-1.952-1.567-2.816Zm.833,7.776a27.776,27.776,0,0,1,2.143,6.143l-1.888.64a31.855,31.855,0,0,0-2.047-6.207Zm11.294-11.327v4.8h6.88v2.144H669.7V268.74h6.368v-4.8h-7.359v-2.176h7.359v-4.512h2.4v4.512h7.584v2.176Zm-7.743,10.431h13.727v11.967h-2.3v-1.5h-9.215v1.6h-2.208Zm2.208,2.144v6.176h9.215v-6.176Z"></path><path class="cls-2" d="M706.663,276.324a31.77,31.77,0,0,0,11.552,6.975,10.556,10.556,0,0,0-1.633,1.984,35.379,35.379,0,0,1-11.9-8.127V286.5h-2.463v-9.183a31.844,31.844,0,0,1-11.9,8.1,11.3,11.3,0,0,0-1.6-1.952,28.876,28.876,0,0,0,11.518-7.135H689.512v-2.208h12.7v-2.688h-9.6V258.789H714.47v12.639h-9.791v2.688h12.7v2.208Zm-11.648-12.191h7.2v-3.264h-7.2Zm7.2,5.248v-3.3h-7.2v3.3Zm9.726-8.512h-7.263v3.264h7.263Zm0,5.216h-7.263v3.3h7.263Z"></path><circle class="cls-1" cx="266.852" cy="271.875" r="13.376"></circle><rect class="cls-4" width="1749" height="323.308"></rect></g></g></svg>