<?xml version="1.0" encoding="UTF-8" standalone="no"?>
<svg
   width="183.257"
   height="91.767"
   viewBox="0 0 183.257 91.767"
   version="1.1"
   id="svg16"
   sodipodi:docname="interview-1_T.svg"
   inkscape:version="1.3.2 (091e20e, 2023-11-25, custom)"
   xmlns:inkscape="http://www.inkscape.org/namespaces/inkscape"
   xmlns:sodipodi="http://sodipodi.sourceforge.net/DTD/sodipodi-0.dtd"
   xmlns="http://www.w3.org/2000/svg"
   xmlns:svg="http://www.w3.org/2000/svg">
  <sodipodi:namedview
     id="namedview16"
     pagecolor="#ffffff"
     bordercolor="#000000"
     borderopacity="0.25"
     inkscape:showpageshadow="2"
     inkscape:pageopacity="0.0"
     inkscape:pagecheckerboard="0"
     inkscape:deskcolor="#d1d1d1"
     showgrid="false"
     inkscape:zoom="5.6177935"
     inkscape:cx="104.84543"
     inkscape:cy="58.118904"
     inkscape:window-width="1280"
     inkscape:window-height="1529"
     inkscape:window-x="-8"
     inkscape:window-y="-8"
     inkscape:window-maximized="1"
     inkscape:current-layer="svg16" />
  <defs
     id="defs1">
    <style
       id="style1">.cls-1{fill:#fff;}.cls-2{fill:none;stroke:#fff;stroke-miterlimit:10;}</style>
  </defs>
  <path
     class="cls-1"
     d="M 16.867 15.786 C 16.749 16.753 16.486 17.697 16.086 18.586 C 15.887 18.457 15.673 18.354 15.448 18.277 C 15.835 17.452 16.077 16.566 16.163 15.659 L 16.867 15.786 Z M 18.154 14.906 L 18.154 19.483 L 17.417 19.483 L 17.417 14.95 L 15.624 15.038 L 15.557 14.3 C 15.778 14.3 16.031 14.288 16.284 14.277 C 16.548 13.965 16.794 13.638 17.021 13.298 C 16.597 12.725 16.114 12.198 15.58 11.726 L 16 11.187 C 16.11 11.276 16.22 11.375 16.33 11.473 C 16.708 10.817 17.035 10.133 17.309 9.427 L 18.035 9.703 C 17.665 10.466 17.246 11.204 16.781 11.914 C 17.021 12.152 17.245 12.405 17.452 12.673 C 17.903 11.98 18.321 11.264 18.629 10.673 L 19.329 10.98 C 18.632 12.115 17.872 13.21 17.052 14.26 C 17.602 14.237 18.207 14.204 18.812 14.182 C 18.65 13.846 18.47 13.519 18.273 13.203 L 18.879 12.939 C 19.339 13.633 19.705 14.384 19.968 15.173 L 19.318 15.48 C 19.267 15.265 19.197 15.055 19.109 14.853 L 18.154 14.906 Z M 19.166 15.606 C 19.494 16.279 19.741 16.988 19.903 17.718 L 19.255 17.939 C 19.094 17.205 18.86 16.49 18.555 15.804 L 19.166 15.606 Z M 25.723 18.406 L 25.723 19.154 L 19.323 19.154 L 19.323 18.406 L 20.489 18.406 L 20.489 10.044 L 24.879 10.044 L 24.879 18.405 L 25.723 18.406 Z M 21.278 10.782 L 21.278 12.8 L 24.078 12.8 L 24.078 10.781 L 21.278 10.782 Z M 24.078 13.543 L 21.278 13.543 L 21.278 15.567 L 24.078 15.567 L 24.078 13.543 Z M 21.283 18.406 L 24.083 18.406 L 24.083 16.3 L 21.278 16.3 L 21.283 18.406 Z"
     id="path1" />
  <path
     class="cls-1"
     d="M 29.033 17.239 C 29.685 18.079 30.711 18.54 31.772 18.47 C 32.972 18.514 35.414 18.482 36.701 18.393 C 36.581 18.661 36.492 18.942 36.437 19.23 C 35.237 19.274 32.982 19.296 31.772 19.252 C 30.591 19.31 29.448 18.832 28.659 17.952 C 28.131 18.414 27.581 18.886 26.998 19.36 L 26.557 18.535 C 27.138 18.149 27.697 17.73 28.23 17.281 L 28.23 14.5 L 26.7 14.5 L 26.7 13.73 L 29.032 13.73 L 29.033 17.239 Z M 28.692 11.925 C 28.171 11.244 27.539 10.656 26.822 10.186 L 27.427 9.691 C 28.148 10.155 28.794 10.726 29.342 11.386 L 28.692 11.925 Z M 33.268 9.977 C 33.533 13.333 34.39 15.929 36.592 17.062 C 36.352 17.241 36.133 17.448 35.942 17.678 C 34.39 16.664 33.33 15.05 33.015 13.223 C 32.592 15.002 31.561 16.578 30.1 17.678 C 29.906 17.459 29.693 17.258 29.462 17.078 C 31.109 15.909 32.187 14.099 32.432 12.094 L 32.785 12.149 C 32.708 11.698 32.653 11.235 32.597 10.749 L 30.597 10.749 L 30.597 9.977 L 33.268 9.977 Z"
     id="path2" />
  <path
     class="cls-1"
     d="M 40.407 10.594 C 40.99 10.594 42.431 10.516 42.893 10.483 C 43.081 10.467 43.266 10.426 43.443 10.363 L 43.994 10.813 C 43.892 10.929 43.797 11.051 43.708 11.177 C 43.399 11.677 42.916 12.794 42.454 13.817 C 43.503 13.947 44.524 14.244 45.479 14.697 C 45.523 14.423 45.545 14.147 45.567 13.884 C 45.578 13.553 45.589 13.184 45.567 12.871 L 46.458 12.971 C 46.432 13.684 46.355 14.394 46.227 15.096 C 46.686 15.353 47.13 15.636 47.558 15.942 L 47.151 16.888 C 46.788 16.575 46.406 16.284 46.007 16.019 C 45.569 17.481 44.511 18.676 43.113 19.287 L 42.387 18.681 C 43.784 18.161 44.853 17.012 45.27 15.581 C 44.304 15.026 43.232 14.681 42.124 14.569 C 41.726 15.56 41.263 16.523 40.737 17.452 C 40.449 17.94 39.917 18.231 39.351 18.211 C 38.522 18.231 37.857 17.531 37.921 16.704 C 37.921 15.086 39.421 13.843 41.585 13.788 C 41.97 12.919 42.385 11.962 42.728 11.28 C 42.289 11.302 40.946 11.356 40.44 11.39 C 40.198 11.4 39.89 11.433 39.626 11.456 L 39.582 10.564 C 39.868 10.583 40.187 10.594 40.407 10.594 Z M 39.384 17.338 C 39.655 17.331 39.905 17.186 40.044 16.953 C 40.516 16.191 40.918 15.388 41.244 14.553 C 39.638 14.675 38.725 15.642 38.725 16.589 C 38.681 16.984 38.986 17.332 39.384 17.338 Z"
     id="path3" />
  <path
     class="cls-1"
     d="M 50.648 11.331 L 56.7 11.331 C 57.013 11.328 57.326 11.306 57.636 11.264 L 57.636 12.233 C 57.325 12.201 57.013 12.186 56.7 12.189 L 54.058 12.189 L 54.058 17.25 L 57.293 17.25 C 57.598 17.246 57.903 17.224 58.206 17.183 L 58.206 18.183 C 57.903 18.148 57.598 18.133 57.293 18.139 L 50.021 18.139 C 49.721 18.139 49.394 18.151 49.053 18.183 L 49.053 17.183 C 49.374 17.226 49.697 17.248 50.021 17.25 L 53.121 17.25 L 53.121 12.189 L 50.648 12.189 C 50.439 12.189 49.999 12.2 49.724 12.233 L 49.724 11.264 C 50.03 11.306 50.339 11.328 50.648 11.331 Z"
     id="path4" />
  <path
     class="cls-1"
     d="M 65.081 16.325 C 66.646 15.329 67.915 13.931 68.755 12.277 L 69.283 13.212 C 68.394 14.805 67.122 16.151 65.583 17.129 C 64.265 17.97 62.797 18.548 61.259 18.829 L 60.675 17.929 C 62.239 17.706 63.74 17.16 65.081 16.325 Z M 64.431 12.838 L 63.738 13.531 C 62.887 12.694 61.971 11.925 61 11.231 L 61.627 10.56 C 62.617 11.248 63.555 12.01 64.431 12.838 Z"
     id="path5" />
  <path
     class="cls-1"
     d="M 74.056 14.213 L 73.561 14.983 C 72.788 14.434 71.984 13.931 71.152 13.476 L 71.652 12.728 C 72.3 13.08 73.583 13.872 74.056 14.213 Z M 75.344 16.843 C 77.064 15.884 78.501 14.49 79.513 12.8 L 80.041 13.715 C 78.943 15.326 77.495 16.668 75.805 17.641 C 74.666 18.274 73.439 18.735 72.164 19.006 L 71.658 18.115 C 72.947 17.893 74.192 17.464 75.344 16.843 Z M 75.695 11.803 L 75.179 12.563 C 74.65 12.156 73.451 11.363 72.813 10.99 L 73.313 10.253 C 73.957 10.616 75.222 11.463 75.695 11.8 L 75.695 11.803 Z M 79.029 12.123 L 78.402 12.409 C 78.116 11.804 77.782 11.222 77.402 10.671 L 78.007 10.418 C 78.382 10.965 78.724 11.534 79.029 12.123 Z M 80.503 11.573 L 79.876 11.859 C 79.576 11.262 79.226 10.692 78.831 10.153 L 79.447 9.889 C 79.833 10.428 80.184 10.99 80.5 11.573 L 80.503 11.573 Z"
     id="path6" />
  <path
     class="cls-1"
     d="M 83.3 16.964 L 89.89 16.964 C 90.22 16.964 90.572 16.941 90.89 16.909 L 90.89 17.965 C 90.56 17.931 90.19 17.91 89.89 17.91 L 83.3 17.91 C 82.9 17.91 82.518 17.943 82.144 17.965 L 82.144 16.909 C 82.514 16.93 82.9 16.964 83.3 16.964 Z M 84.181 11.507 L 88.889 11.507 C 89.253 11.511 89.616 11.496 89.978 11.463 L 89.978 12.453 C 89.67 12.43 89.252 12.42 88.889 12.42 L 84.177 12.42 C 83.791 12.42 83.429 12.442 83.087 12.453 L 83.087 11.463 C 83.439 11.485 83.813 11.507 84.177 11.507 L 84.181 11.507 Z"
     id="path7" />
  <path
     class="cls-1"
     d="M 102.074 11.584 C 101.367 12.764 100.437 13.796 99.335 14.62 L 98.608 14.037 C 99.593 13.415 100.418 12.571 101.018 11.573 L 94.747 11.573 C 94.328 11.573 93.91 11.595 93.493 11.638 L 93.493 10.638 C 93.908 10.699 94.327 10.733 94.747 10.738 L 101.062 10.738 C 101.32 10.734 101.577 10.712 101.832 10.672 L 102.371 11.188 C 102.294 11.3 102.151 11.463 102.074 11.584 Z M 94.912 19.032 L 94.098 18.372 C 94.45 18.254 94.784 18.086 95.088 17.872 C 96.794 16.827 97.035 15.264 97.035 13.427 C 97.036 13.162 97.021 12.897 96.991 12.634 L 97.981 12.634 C 97.981 15.621 97.718 17.635 94.912 19.032 Z"
     id="path8" />
  <path
     class="cls-1"
     d="M 106.517 11.155 L 106.517 14.829 C 106.517 15.104 106.539 15.468 106.561 15.666 L 105.549 15.666 C 105.584 15.385 105.602 15.102 105.604 14.818 L 105.604 11.155 C 105.604 10.955 105.582 10.572 105.56 10.363 L 106.56 10.363 C 106.539 10.572 106.517 10.89 106.517 11.155 Z M 111.633 11.231 L 111.633 13.014 C 111.633 15.654 111.27 16.523 110.477 17.469 C 109.763 18.228 108.859 18.782 107.859 19.076 L 107.144 18.317 C 108.149 18.108 109.066 17.597 109.773 16.853 C 110.554 15.94 110.686 15.053 110.686 12.969 L 110.686 11.231 C 110.687 10.911 110.669 10.592 110.632 10.274 L 111.666 10.274 C 111.644 10.55 111.633 10.857 111.633 11.231 Z"
     id="path9" />
  <path
     class="cls-1"
     d="M 120.081 16.325 C 121.646 15.329 122.915 13.931 123.755 12.277 L 124.283 13.212 C 123.394 14.805 122.122 16.151 120.583 17.129 C 119.265 17.97 117.797 18.548 116.259 18.829 L 115.675 17.929 C 117.239 17.706 118.74 17.16 120.081 16.325 Z M 119.431 12.838 L 118.738 13.531 C 117.886 12.694 116.97 11.925 115.999 11.231 L 116.626 10.56 C 117.617 11.248 118.554 12.01 119.431 12.838 Z"
     id="path10" />
  <path
     class="cls-1"
     d="M 130.1 11.21 C 130.023 11.364 129.935 11.517 129.847 11.672 L 132.829 11.672 C 133.071 11.68 133.313 11.646 133.544 11.572 L 134.27 12.011 C 134.168 12.197 134.084 12.392 134.017 12.594 C 133.628 13.978 132.966 15.27 132.07 16.394 C 130.914 17.776 129.398 18.811 127.691 19.387 L 126.891 18.661 C 128.602 18.203 130.135 17.241 131.291 15.899 C 132.117 14.896 132.714 13.725 133.04 12.467 L 129.332 12.467 C 128.575 13.533 127.628 14.451 126.538 15.174 L 125.779 14.612 C 127.256 13.72 128.453 12.432 129.233 10.893 C 129.381 10.615 129.496 10.32 129.574 10.014 L 130.587 10.354 C 130.41 10.637 130.212 11.011 130.1 11.21 Z M 134.446 11.331 L 133.852 11.594 C 133.591 11.068 133.293 10.561 132.961 10.077 L 133.544 9.823 C 133.873 10.308 134.175 10.812 134.447 11.331 L 134.446 11.331 Z M 135.678 10.88 L 135.084 11.143 C 134.819 10.618 134.514 10.114 134.171 9.636 L 134.754 9.384 C 135.09 9.865 135.399 10.364 135.679 10.88 L 135.678 10.88 Z"
     id="path11" />
  <path
     class="cls-1"
     d="M 146.592 16.347 L 145.458 16.347 L 145.458 18.3 L 144.644 18.3 L 144.644 17.8 L 142 17.8 L 142 18.558 C 142 19.065 141.845 19.252 141.515 19.373 C 140.915 19.502 140.301 19.547 139.689 19.505 C 139.626 19.262 139.53 19.029 139.403 18.812 C 140.063 18.834 140.723 18.823 140.911 18.823 C 141.12 18.812 141.185 18.746 141.185 18.558 L 141.185 17.8 L 137.632 17.8 L 137.632 17.173 L 141.185 17.173 L 141.185 16.347 L 136.685 16.347 L 136.685 15.7 L 141.185 15.7 L 141.185 14.93 L 137.731 14.93 L 137.731 14.325 L 141.185 14.325 L 141.185 13.555 L 138.039 13.555 L 138.039 11.617 L 141.185 11.617 L 141.185 10.978 L 136.9 10.978 L 136.9 10.307 L 141.19 10.307 L 141.19 9.427 L 142 9.427 L 142 10.307 L 146.379 10.307 L 146.379 10.978 L 142 10.978 L 142 11.617 L 145.278 11.617 L 145.278 13.553 L 142 13.553 L 142 14.323 L 145.454 14.323 L 145.454 15.7 L 146.588 15.7 L 146.592 16.347 Z M 141.192 12.981 L 141.192 12.189 L 138.827 12.189 L 138.827 12.981 L 141.192 12.981 Z M 142.007 12.189 L 142.007 12.981 L 144.471 12.981 L 144.471 12.189 L 142.007 12.189 Z M 142.007 15.698 L 144.647 15.698 L 144.647 14.928 L 142 14.928 L 142.007 15.698 Z M 144.647 16.347 L 142 16.347 L 142 17.173 L 144.64 17.173 L 144.647 16.347 Z"
     id="path12" />
  <path
     class="cls-1"
     d="M 153.773 16.853 C 154.942 17.708 156.282 18.301 157.701 18.592 C 157.481 18.804 157.296 19.049 157.151 19.318 C 155.617 18.893 154.202 18.121 153.014 17.062 L 153.014 19.462 L 152.214 19.462 L 152.214 17.118 C 151.016 18.122 149.618 18.86 148.114 19.285 C 147.968 19.033 147.79 18.8 147.586 18.592 C 148.985 18.281 150.306 17.689 151.47 16.853 L 147.87 16.853 L 147.87 16.161 L 152.216 16.161 L 152.216 15.346 L 148.9 15.346 L 148.9 14.719 L 152.212 14.719 L 152.212 13.919 L 148.349 13.919 L 148.349 13.248 L 150.749 13.248 C 150.619 12.859 150.438 12.489 150.21 12.148 L 150.596 12.071 L 147.91 12.071 L 147.91 11.371 L 149.659 11.371 C 149.427 10.808 149.136 10.272 148.79 9.771 L 149.483 9.541 C 149.86 10.039 150.174 10.583 150.418 11.158 L 149.857 11.367 L 151.211 11.367 L 151.211 9.417 L 151.97 9.417 L 151.97 11.364 L 153.278 11.364 L 153.278 9.417 L 154.049 9.417 L 154.049 11.364 L 155.38 11.364 L 154.972 11.231 C 155.293 10.696 155.573 10.137 155.809 9.559 L 156.645 9.779 C 156.355 10.326 156.031 10.856 155.677 11.364 L 157.383 11.364 L 157.383 12.064 L 155.183 12.064 C 154.964 12.482 154.722 12.911 154.502 13.241 L 157 13.241 L 157 13.912 L 153.017 13.912 L 153.017 14.712 L 156.461 14.712 L 156.461 15.339 L 153.017 15.339 L 153.017 16.154 L 157.43 16.154 L 157.43 16.846 L 153.773 16.853 Z M 151.034 12.068 C 151.265 12.409 151.45 12.779 151.585 13.168 L 151.232 13.245 L 153.818 13.245 L 153.708 13.212 C 153.919 12.843 154.106 12.461 154.268 12.068 L 151.034 12.068 Z"
     id="path13" />
  <path
     class="cls-1"
     d="M 158.624 13.652 L 164.278 13.652 L 164.278 14.4 L 158.624 14.4 L 158.624 13.652 Z M 164.124 11.352 L 158.91 11.352 L 158.91 10.637 L 161.11 10.637 L 161.11 9.461 L 161.891 9.461 L 161.891 10.637 L 164.125 10.637 L 164.124 11.352 Z M 159.36 15.352 L 163.66 15.352 L 163.66 19.401 L 162.867 19.401 L 162.867 18.818 L 160.117 18.818 L 160.117 19.466 L 159.358 19.466 L 159.36 15.352 Z M 160.06 13.515 C 159.972 12.904 159.809 12.305 159.576 11.733 L 160.258 11.589 C 160.509 12.149 160.679 12.742 160.764 13.35 L 160.06 13.515 Z M 160.115 16.079 L 160.115 18.103 L 162.865 18.103 L 162.865 16.084 L 160.115 16.079 Z M 162.106 13.379 C 162.353 12.77 162.558 12.145 162.722 11.508 L 163.493 11.696 C 163.261 12.334 162.993 13.06 162.766 13.544 L 162.106 13.379 Z M 168.674 10.409 C 168.223 11.443 167.662 12.709 167.145 13.709 C 167.977 14.348 168.485 15.323 168.531 16.371 C 168.61 16.91 168.41 17.452 168 17.81 C 167.785 17.948 167.54 18.031 167.285 18.052 C 166.967 18.083 166.647 18.09 166.328 18.075 C 166.313 17.79 166.234 17.512 166.097 17.261 C 166.386 17.289 166.676 17.296 166.966 17.283 C 167.131 17.278 167.292 17.236 167.439 17.162 C 167.67 17.018 167.739 16.688 167.739 16.293 C 167.666 15.298 167.144 14.391 166.32 13.828 C 166.771 12.904 167.255 11.716 167.596 10.836 L 165.517 10.836 L 165.517 19.461 L 164.725 19.461 L 164.725 10.061 L 167.959 10.061 L 168.091 10.029 L 168.674 10.409 Z"
     id="path14" />
  <rect
     class="cls-2"
     x="0.5"
     y="0.5"
     width="182.257"
     height="27.67"
     id="rect14" />
  <text
     style="font-size:10px;white-space:pre;fill:#ffffff"
     x="63.152"
     y="87.323997"
     id="text14">2021 年入社</text>
  <text
     style="font-size:18.6667px;white-space:pre;fill:#ffffff"
     x="76.422592"
     y="60.204048"
     id="text15">S.O</text>
</svg>
