<?xml version="1.0" encoding="UTF-8" standalone="no"?>
<svg
   width="183.257"
   height="91.768"
   viewBox="0 0 183.257 91.768"
   version="1.1"
   id="svg13"
   sodipodi:docname="interview-3_T.svg"
   inkscape:version="1.3.2 (091e20e, 2023-11-25, custom)"
   xmlns:inkscape="http://www.inkscape.org/namespaces/inkscape"
   xmlns:sodipodi="http://sodipodi.sourceforge.net/DTD/sodipodi-0.dtd"
   xmlns="http://www.w3.org/2000/svg"
   xmlns:svg="http://www.w3.org/2000/svg">
  <sodipodi:namedview
     id="namedview13"
     pagecolor="#ffffff"
     bordercolor="#000000"
     borderopacity="0.25"
     inkscape:showpageshadow="2"
     inkscape:pageopacity="0.0"
     inkscape:pagecheckerboard="0"
     inkscape:deskcolor="#d1d1d1"
     showgrid="false"
     inkscape:zoom="3.9723799"
     inkscape:cx="132.16259"
     inkscape:cy="38.641823"
     inkscape:window-width="1280"
     inkscape:window-height="923"
     inkscape:window-x="2488"
     inkscape:window-y="346"
     inkscape:window-maximized="0"
     inkscape:current-layer="レイヤー_1-2" />
  <defs
     id="defs1">
    <style
       id="style1">.cls-1{fill:#fff;}.cls-2{fill:none;stroke:#fff;stroke-miterlimit:10;}</style>
  </defs>
  <g
     id="レイヤー_2"
     data-name="レイヤー 2">
    <g
       id="レイヤー_1-2"
       data-name="レイヤー 1">
      <text
         style="font-size:18.6667px;white-space:pre;fill:#ffffff"
         x="93.560562"
         y="56.61504"
         id="text12"><tspan
           sodipodi:role="line"
           id="tspan2"
           x="93.560562"
           y="56.61504"
           style="text-align:center;text-anchor:middle">H.T</tspan></text>
      <text
         style="font-size:18.6667px;white-space:pre;fill:#ffffff"
         x="93.552216"
         y="70.389427"
         id="text12-4"><tspan
           sodipodi:role="line"
           x="93.552216"
           y="70.389427"
           id="tspan3-2"
           style="text-align:center;text-anchor:middle"> <tspan
   style="font-size:10.6667px"
   id="tspan4-9">(役職：チームマネージャ)</tspan></tspan><tspan
           sodipodi:role="line"
           id="tspan2-4"
           x="93.552216"
           y="93.722801" /></text>
      <text
         style="font-size:10px;white-space:pre;fill:#ffffff"
         x="66.789001"
         y="89.415001"
         id="text13">2009 年入社</text>
      <path
         style="font-size:11.578px;fill:#f9f9f9;stroke-width:0.964892"
         d="m 19.735536,10.569851 q 0.361813,0 0.587945,-0.226133 0.226133,-0.226133 0.226133,-0.5879452 0,-0.3618125 -0.226133,-0.5879453 -0.226132,-0.2261328 -0.587945,-0.2261328 -0.361813,0 -0.587945,0.2261328 -0.226133,0.2261328 -0.226133,0.5879453 0,0.3618122 0.226133,0.5879452 0.226132,0.226133 0.587945,0.226133 z m 0,0.452266 q -0.542719,0 -0.904531,-0.361813 -0.361813,-0.361812 -0.361813,-0.9045312 0,-0.5427187 0.361813,-0.9045312 0.361812,-0.3618126 0.904531,-0.3618126 0.542719,0 0.904531,0.3618126 0.361813,0.3618125 0.361813,0.9045312 0,0.5427192 -0.361813,0.9045312 -0.361812,0.361813 -0.904531,0.361813 z m -8.095555,0.587945 v -0.994985 h 6.693532 l 1.17589,0.859305 q -0.226133,5.472414 -6.196039,7.145797 l -0.814078,-0.994984 q 5.65332,-1.311571 5.92468,-6.015133 z m 19.040383,5.969906 h -1.040211 v -0.497492 h -5.020148 v 0.723625 h -1.040211 v -7.055344 h 7.10057 z m -6.060359,-5.834226 v 4.34175 h 5.020148 v -4.34175 z m 17.23132,-0.361813 q 0.180906,0.226133 -0.180906,0.361813 -0.361813,1.809062 -1.085438,3.301539 l 1.085438,0.723625 -0.678398,0.994984 -0.994985,-0.723625 q -1.31157,1.899516 -3.753805,3.120633 L 35.20302,18.394046 q 2.713594,-1.130664 3.889485,-2.984953 -1.130664,-0.723625 -2.216102,-1.31157 l 0.542719,-0.814078 q 1.402023,0.633172 2.306555,1.17589 0.678398,-1.402023 0.814078,-2.487461 h -3.301539 q -0.859305,1.537704 -2.125649,2.804047 l -0.859304,-0.587945 q 2.306554,-2.397008 3.030179,-5.0653751 l 1.085438,0.4522657 q 0.361812,0.1809062 -0.180906,0.3618125 -0.180907,0.5427189 -0.452266,1.0402109 h 3.03018 L 41.26338,10.795984 Z M 41.534739,9.3035072 q 0.768852,0.5879453 1.58293,1.4924768 l -0.587945,0.452265 Q 41.715646,10.388945 40.946794,9.7557728 Z M 42.57495,8.6251087 q 0.723625,0.4974922 1.492477,1.4020233 l -0.587946,0.497492 Q 42.665403,9.6200931 41.987005,9.0773744 Z m 10.944829,3.5276723 q -0.859304,4.929695 -5.65332,7.055343 L 47.052381,18.34882 q 4.432203,-1.809063 5.336734,-6.241266 H 48.77099 q -1.040211,1.718609 -2.170875,2.75882 l -0.904531,-0.587945 q 2.351781,-2.125648 3.03018,-4.9749218 l 1.040211,0.3618125 q 0.271359,0.1356797 -0.09045,0.2713594 -0.180907,0.5879449 -0.497493,1.1758909 h 3.256313 l 0.407039,-0.226133 0.814078,0.814078 q 0.316586,0.316586 -0.13568,0.452266 z m 7.914648,0.768851 q 2.216101,0.633172 4.47743,1.71861 l -0.542719,1.040211 Q 62.97213,14.459335 61.434427,14.052296 v 4.703563 H 60.394216 V 9.7105462 h 0.904531 q 0.542719,0.045227 0.13568,0.3618128 z m 13.432288,2.351781 q 1.040211,-1.402023 1.402024,-4.703562 l 1.130664,0.180906 q 0.407039,0.09045 -0.04523,0.407039 -0.271359,2.8945 -1.673383,4.884469 -1.040211,1.492477 -3.889484,2.984953 L 70.977231,18.21314 q 2.577914,-1.175891 3.889484,-2.939727 z m -3.708578,-1.492476 q -0.814078,-1.763836 -1.58293,-2.668367 l 0.994985,-0.542719 q 0.768851,0.949758 1.628156,2.623141 z m 16.598151,0.587945 q 0,3.391992 -3.165859,4.884469 l -0.904531,-0.768852 q 2.984953,-1.356796 3.030179,-4.160843 V 9.8009994 h 0.949758 q 0.452266,0.090453 0.09045,0.3618126 z m -4.658336,0.994985 h -1.040211 v -5.110602 h 0.994985 q 0.452265,0.04523 0.04523,0.361812 z m 17.502678,2.62314 h -8.140784 v -0.859304 h 4.884469 l 0.09045,-3.391993 H 93.72619 v -0.859304 h 4.613109 l -0.09045,4.251297 h 2.351784 z m 2.44223,-3.346765 v -0.994985 h 10.08553 v 0.994985 z m 13.4323,2.984953 q 4.92969,-1.085438 7.41715,-5.110602 l 0.81408,0.814078 q -2.30655,3.708578 -7.1458,5.246282 -0.13568,0.542718 -0.45226,0.04523 z m -0.31659,-5.472414 q 1.13066,0.587945 2.30656,1.44725 l -0.72363,0.949757 q -1.3568,-0.994984 -2.26133,-1.44725 z m 1.26634,-2.6683676 q 1.22112,0.6783986 2.30656,1.4472496 l -0.63317,0.949758 q -1.22112,-0.859304 -2.26133,-1.44725 z m 11.08051,8.8644066 v -0.859305 h 4.61311 v -1.899516 h -4.34175 v -0.859304 h 4.34175 v -1.809063 h -4.61311 v -0.859304 h 5.51764 v 6.783984 h -0.90453 V 18.34882 Z m 19.31174,-5.246282 q -2.39701,4.974922 -8.05033,5.246282 -0.22613,0.587945 -0.45226,0.09045 l -0.36181,-1.175891 q 5.87945,-0.135679 7.91464,-4.839242 z m -6.37694,0 q -1.22112,-1.130664 -2.30656,-1.854289 l 0.76885,-0.949757 q 0.94976,0.587945 2.39701,1.944742 z m 12.30163,5.381961 q 0.1809,0 0.1809,-0.180906 v -0.904531 h -3.5729 v -0.723625 h 3.5729 v -0.723625 h -4.74879 v -0.723625 h 4.74879 v -0.678399 h -3.5729 v -0.723625 h 3.5729 v -0.633171 h -1.5377 -1.49248 v -1.944743 h 3.03018 v -0.587945 h -4.47743 V 9.9366791 h 4.47743 v -1.040211 h 0.85931 q 0.36181,0.045227 0.0452,0.2713594 v 0.7688516 h 4.34175 v 0.7236249 h -4.34175 v 0.587945 h 2.93973 v 1.944743 h -2.93973 v 0.633171 h 3.48245 v 1.402024 h 1.22112 v 0.723625 h -1.22112 v 1.718609 h -0.90453 v -0.271359 h -2.57792 v 1.221117 q 0,0.723625 -0.72362,0.723625 h -0.99499 l -0.13568,-0.859305 z m -2.08043,-5.834226 h 2.26133 v -0.859305 h -2.26133 z m 3.16586,0 h 2.17088 v -0.859305 h -2.17088 z m 0,4.025164 h 2.57792 v -0.723625 h -2.57792 z m 2.57792,-1.44725 v -0.678399 h -2.57792 v 0.678399 z m 3.79903,2.804047 q 2.53269,-0.587946 3.97994,-1.944742 h -3.97994 v -0.723625 h 4.38698 v -0.678399 h -2.93973 v -0.723625 h 2.93973 v -0.723625 h -3.43722 v -0.723625 h 2.35178 l -0.49749,-0.859305 h -2.80405 v -0.723625 h 2.12565 q -0.31659,-0.452265 -0.81408,-0.859304 l 0.6784,-0.542719 q 0.54272,0.3165859 1.04021,0.994984 l -0.49749,0.407039 h 0.94976 V 9.0321478 h 0.8593 q 0.36181,0.045227 0.0452,0.2713594 v 1.6281558 h 0.8593 V 9.0321478 h 0.85931 q 0.36181,0.045227 0.0452,0.2713594 v 1.6281558 h 1.08544 l -0.49749,-0.361812 q 0.45226,-0.6331719 0.81408,-1.1758907 l 0.6784,0.4522656 q 0.31658,0.1809061 -0.0452,0.2261331 -0.22613,0.407039 -0.63317,0.859304 h 2.17087 v 0.723625 h -2.84927 l -0.49749,0.859305 h 2.48746 v 0.723625 h -3.5729 v 0.723625 h 3.03018 v 0.723625 h -3.03018 v 0.678399 h 4.47743 v 0.723625 h -3.93471 q 1.58293,1.402023 3.97994,1.899515 l -0.36182,0.949758 q -2.48746,-0.633172 -4.16084,-2.170875 v 2.532688 h -0.90453 v -2.442235 q -1.58293,1.402024 -4.02517,2.080422 z m 4.16084,-5.517641 h 1.40203 l 0.45226,-0.859305 h -2.35178 z m 15.24134,5.381961 -0.1809,-0.994984 h 0.72362 q 0.63317,0 0.49749,-1.040211 -0.1809,-1.266344 -1.13066,-2.216102 l 0.81408,-3.03018 h -1.49248 v 8.773954 h -0.90453 V 9.7557728 h 2.66837 l 0.0904,-0.1356797 0.81408,0.6783989 -0.18091,0.135679 -0.99498,3.03018 q 1.3568,1.492477 1.31157,2.668367 -0.0452,1.763836 -1.22112,1.763836 z m -7.28147,-3.120633 h 4.29652 v 4.115617 h -0.90453 v -0.497492 h -2.48746 v 0.723625 h -0.90453 z m 0.90453,0.859305 v 1.899516 h 2.48746 v -1.899516 z m 0.76885,-6.6483048 h 0.99498 q 0.45227,0.090453 0.0452,0.3618125 v 0.9949843 h 2.12565 v 0.859305 h -0.63317 l -0.63317,1.899515 h 1.71861 v 0.859305 h -6.19604 v -0.859305 h 1.71861 l -0.54272,-1.899515 h -0.58795 v -0.859305 h 1.98997 z m 1.49248,2.2161018 h -1.85429 l 0.45226,1.899515 h 0.85931 z"
         id="text1"
         transform="scale(0.96489128,1.0363862)"
         aria-label="プロダクトソリューション事業部" />
      <rect
         class="cls-2"
         x="0.51657259"
         y="0.45685297"
         width="182.257"
         height="27.67"
         id="rect12"
         style="fill:none;stroke:#ffffff;stroke-miterlimit:10" />
    </g>
  </g>
</svg>
