<svg xmlns="http://www.w3.org/2000/svg" width="392.924" height="288.319" viewBox="0 0 392.924 288.319"><defs><style>.cls-1{fill:#201715;}.cls-2{fill:#2165ac;}.cls-3{fill:#f8a33f;}</style></defs><g id="レイヤー_2" data-name="レイヤー 2"><g id="レイヤー_1-2" data-name="レイヤー 1"><path class="cls-1" d="M40.768,268.007,48.2,287.874H43.662l-1.5-4.424H34.731l-1.559,4.424h-4.4l7.513-19.867Zm.251,12.187-2.5-7.289h-.055l-2.587,7.289Z"/><path class="cls-1" d="M55.032,268.007l8.292,13.328h.055V268.007h4.09v19.867H63.1l-8.264-13.3h-.056v13.3h-4.09V268.007Z"/><path class="cls-1" d="M121.52,268.007l7.429,19.867h-4.535l-1.5-4.424h-7.429l-1.559,4.424h-4.4l7.512-19.867Zm.251,12.187-2.5-7.289h-.055l-2.588,7.289Z"/><path class="cls-1" d="M142.761,273.308a4.409,4.409,0,0,0-.974-1.1,4.46,4.46,0,0,0-1.322-.737,4.543,4.543,0,0,0-1.544-.265,5.09,5.09,0,0,0-2.5.571,4.721,4.721,0,0,0-1.669,1.53,6.682,6.682,0,0,0-.932,2.184,10.869,10.869,0,0,0-.293,2.532,10.1,10.1,0,0,0,.293,2.435,6.554,6.554,0,0,0,.932,2.129,4.767,4.767,0,0,0,1.669,1.516,5.1,5.1,0,0,0,2.5.57,4.043,4.043,0,0,0,3.131-1.224,5.663,5.663,0,0,0,1.377-3.228h4.229a10.1,10.1,0,0,1-.862,3.367,8.073,8.073,0,0,1-1.836,2.56,7.825,7.825,0,0,1-2.672,1.614,9.788,9.788,0,0,1-3.367.556,10.181,10.181,0,0,1-4.1-.793,8.783,8.783,0,0,1-3.075-2.184,9.675,9.675,0,0,1-1.919-3.27,11.971,11.971,0,0,1-.668-4.048,12.4,12.4,0,0,1,.668-4.132,9.948,9.948,0,0,1,1.919-3.325,8.784,8.784,0,0,1,3.075-2.226,10.67,10.67,0,0,1,7.207-.334,8.409,8.409,0,0,1,2.615,1.378,7.431,7.431,0,0,1,1.906,2.239,8.036,8.036,0,0,1,.947,3.061h-4.23A3.571,3.571,0,0,0,142.761,273.308Z"/><path class="cls-1" d="M154.793,268.007v7.624h8.042v-7.624H167.2v19.867h-4.368V279.3h-8.042v8.57h-4.369V268.007Z"/><path class="cls-1" d="M175.97,268.007v19.867H171.6V268.007Z"/><path class="cls-1" d="M184.99,268.007l8.292,13.328h.055V268.007h4.09v19.867h-4.368l-8.264-13.3h-.056v13.3h-4.09V268.007Z"/><path class="cls-1" d="M216.977,268.007v3.673h-10.49v4.257h9.627v3.395h-9.627V284.2H217.2v3.673H202.118V268.007Z"/><path class="cls-1" d="M245.741,268.007l8.292,13.328h.055V268.007h4.09v19.867H253.81l-8.264-13.3h-.056v13.3H241.4V268.007Z"/><path class="cls-1" d="M261.078,271.68v-3.673h16.277v3.673H271.4v16.194h-4.368V271.68Z"/><path class="cls-1" d="M295.562,268.007v3.673h-10.49v4.257H294.7v3.395h-9.627V284.2h10.712v3.673H280.7V268.007Z"/><path class="cls-1" d="M310.246,268.007a6.429,6.429,0,0,1,2.406.431,5.575,5.575,0,0,1,1.837,1.183,5.14,5.14,0,0,1,1.168,1.739,5.576,5.576,0,0,1,.4,2.129,5.972,5.972,0,0,1-.737,3.033,4.634,4.634,0,0,1-2.407,1.947v.056a3.389,3.389,0,0,1,1.336.681,3.77,3.77,0,0,1,.862,1.086,5.076,5.076,0,0,1,.488,1.377,12.117,12.117,0,0,1,.208,1.5c.019.316.037.686.056,1.113s.05.863.1,1.307a8.747,8.747,0,0,0,.223,1.267,2.9,2.9,0,0,0,.459,1.015h-4.369a7.715,7.715,0,0,1-.445-2.254q-.084-1.308-.25-2.5a3.951,3.951,0,0,0-.946-2.281,3.252,3.252,0,0,0-2.365-.724H303.9v7.763h-4.369V268.007Zm-1.559,8.987a3.306,3.306,0,0,0,2.254-.667,2.776,2.776,0,0,0,.751-2.171,2.65,2.65,0,0,0-.751-2.1,3.352,3.352,0,0,0-2.254-.654H303.9v5.592Z"/><path class="cls-1" d="M334.222,268.007v3.673h-9.6v4.591h8.32v3.395h-8.32v8.208h-4.368V268.007Z"/><path class="cls-1" d="M346.214,268.007l7.429,19.867h-4.535l-1.5-4.424h-7.43l-1.558,4.424h-4.4l7.512-19.867Zm.251,12.187-2.5-7.289h-.055l-2.588,7.289Z"/><path class="cls-1" d="M368.032,273.308a4.409,4.409,0,0,0-.974-1.1,4.485,4.485,0,0,0-1.322-.737,4.543,4.543,0,0,0-1.544-.265,5.09,5.09,0,0,0-2.5.571,4.721,4.721,0,0,0-1.669,1.53,6.705,6.705,0,0,0-.933,2.184,10.923,10.923,0,0,0-.292,2.532,10.151,10.151,0,0,0,.292,2.435,6.578,6.578,0,0,0,.933,2.129,4.767,4.767,0,0,0,1.669,1.516,5.1,5.1,0,0,0,2.5.57,4.043,4.043,0,0,0,3.131-1.224,5.663,5.663,0,0,0,1.377-3.228h4.229a10.076,10.076,0,0,1-.863,3.367,8.042,8.042,0,0,1-1.836,2.56,7.811,7.811,0,0,1-2.671,1.614,9.788,9.788,0,0,1-3.367.556,10.181,10.181,0,0,1-4.1-.793,8.783,8.783,0,0,1-3.075-2.184,9.659,9.659,0,0,1-1.919-3.27,11.971,11.971,0,0,1-.668-4.048,12.4,12.4,0,0,1,.668-4.132,9.931,9.931,0,0,1,1.919-3.325,8.784,8.784,0,0,1,3.075-2.226,10.67,10.67,0,0,1,7.207-.334,8.409,8.409,0,0,1,2.615,1.378,7.446,7.446,0,0,1,1.906,2.239,8.018,8.018,0,0,1,.946,3.061h-4.229A3.571,3.571,0,0,0,368.032,273.308Z"/><path class="cls-1" d="M391.1,268.007v3.673H380.607v4.257h9.627v3.395h-9.627V284.2h10.712v3.673H376.238V268.007Z"/><path class="cls-2" d="M27.568,287.087l-2.505-18.058c-.1-.743-.433-1.026-1.3-1.026H20.124c-1.052,0-1.531.3-1.795.964l-4.316,10.875L9.666,268.885A1.305,1.305,0,0,0,8.343,268H3.98a1.027,1.027,0,0,0-1.106.859L.311,287.334c-.047.34.064.6.538.6H2.506a.532.532,0,0,0,.575-.533L5.32,271.26c.1-.7.309-.619.468-.062l5.4,13.615a7.038,7.038,0,0,0,2.392,3.12l1.821-4.589,4.808-12.118c.194-.487.3-.551.361,0l2.219,16c.1.5.353.706,1.082.706h2.934C27.574,287.933,27.629,287.53,27.568,287.087Z"/><path class="cls-2" d="M108.455,287.087l-2.5-18.058c-.1-.743-.432-1.026-1.3-1.026h-3.638c-1.053,0-1.531.3-1.8.964L94.9,279.842l-4.348-10.957A1.3,1.3,0,0,0,89.23,268H84.868a1.027,1.027,0,0,0-1.106.859L81.2,287.334c-.047.34.064.6.538.6h1.657a.532.532,0,0,0,.575-.533l2.239-16.14c.1-.7.309-.619.467-.062l5.4,13.615a7.038,7.038,0,0,0,2.392,3.12l1.821-4.589,4.808-12.118c.193-.487.3-.551.361,0l2.219,16c.1.5.353.706,1.082.706h2.933C108.462,287.933,108.517,287.53,108.455,287.087Z"/><path class="cls-3" d="M311.521,124.111a125.258,125.258,0,0,0-14.738-63.465h-1.131c-3.624,0-6.094.61-7.866,1.859a8.406,8.406,0,0,0-2.962,3.953l-.3.759L280.331,77.78a10.862,10.862,0,0,0,.942,2.912A111.178,111.178,0,0,1,288.3,99.933c.175.663.323,1.331.487,2A116.436,116.436,0,0,1,93.383,203.9a125.15,125.15,0,0,0,189.059-3.469,123.713,123.713,0,0,0,25.5-51.2l.1.726c.033-.229.06-.45.094-.68A126.473,126.473,0,0,0,311.521,124.111Z"/><path class="cls-2" d="M318.254,180.815h17.687c4.63,0,4.96-2.429,4.589-5.1l-15.1-108.878c-.621-4.478-2.606-6.186-7.839-6.186h-20.8a126.211,126.211,0,0,1,11.353,88.636c-.034.23-.061.451-.094.68l3.69,26.6C312.308,179.584,313.86,180.815,318.254,180.815Z"/><rect class="cls-2" x="362.152" y="60.646" width="30.772" height="120.169" rx="6.156"/><rect class="cls-2" x="231.037" y="268.007" width="5.091" height="19.881" rx="1.018"/><path class="cls-3" d="M182.375.121A123.624,123.624,0,0,0,61.654,79.052l-.2-.5h0l.1.26,14.048,35.4A113.082,113.082,0,0,1,80.9,82.48,116.419,116.419,0,0,1,262.143,34.1,123.085,123.085,0,0,0,182.375.121Z"/><path class="cls-2" d="M86.337,164.761a112.129,112.129,0,0,1-10.755-47.289q-.012-1.629.024-3.258L61.558,78.81l-.1-.26L56.461,65.966a7.866,7.866,0,0,0-7.976-5.319H22.18a8.869,8.869,0,0,0-1.449.114,6.952,6.952,0,0,0-2.021.669,6.178,6.178,0,0,0-1,.628c-.084.066-.183.119-.263.188-.012.011-.021.025-.034.036a5.794,5.794,0,0,0-1.9,3.543L.06,177.205a4.078,4.078,0,0,0,.148,2.043,2.232,2.232,0,0,0,1.344,1.291,4.849,4.849,0,0,0,1.752.276h9.987a3.624,3.624,0,0,0,2.086-.548,2.692,2.692,0,0,0,.72-.747,3.27,3.27,0,0,0,.182-.31,4.984,4.984,0,0,0,.483-1.611L27.544,99.881l2.718-19.595a7.408,7.408,0,0,1,.709-2.618,1.28,1.28,0,0,1,.139-.187c.017-.019.033-.046.049-.063.6-.591,1.322.394,1.921,2.493L52.32,128.4l.076.191,5.25,13.23,8,20.177c.184.444.378.883.575,1.32.187.416.382.827.581,1.236.038.08.076.16.115.24q.285.578.583,1.143c.05.1.1.191.151.286q.3.56.608,1.106c.048.085.1.169.145.253.217.377.436.751.66,1.118l.078.127.025.04a50.243,50.243,0,0,0,3.18,4.589l.011.015.014.017c.251.322.5.634.757.94.047.058.094.117.142.173q.359.432.719.841c.055.063.109.125.164.186.241.272.482.538.723.8l.144.152c.25.264.5.524.749.771l.024.024.023.021a25.46,25.46,0,0,0,3.16,2.707l.027.02c.365.258.724.5,1.066.7l6.318-15.924C86.372,164.848,86.358,164.8,86.337,164.761Z"/><path class="cls-2" d="M224.615,60.646H198.31c-4.1,0-6.3,2.54-6.669,5.179L176.19,177.205c-.285,2.05.388,3.61,3.244,3.61h9.987c2.4,0,3.224-1.435,3.471-3.216l13.5-97.313c.588-4.241,1.86-3.732,2.817-.375L241.781,162c3.639,8.84,10.067,16.285,14.424,18.816l10.979-27.67,11.756-29.628a38.278,38.278,0,0,0,2.643-14.293,111.773,111.773,0,0,0-3.74-25.173l-19.038,47.978L232.592,65.966A7.867,7.867,0,0,0,224.615,60.646Z"/><path class="cls-2" d="M122.22,80.094,135.6,176.559c.576,3.025,2.128,4.256,6.522,4.256h17.688c4.629,0,4.959-2.429,4.588-5.1L149.3,66.832c-.621-4.478-2.6-6.186-7.838-6.186H119.522c-6.348,0-9.235,1.8-10.828,5.812L87.886,118.9c-1.98,4.457-3.6,11.006-3.526,15.318A111.886,111.886,0,0,0,87.7,161.591l3.351-8.446,28.992-73.066C121.212,77.142,121.847,76.76,122.22,80.094Z"/></g></g></svg>