<?xml version="1.0" encoding="utf-8"?>
<svg width="183.257" height="91.768" viewBox="0 0 183.257 91.768" xmlns="http://www.w3.org/2000/svg">
  <defs>
    <style>.cls-1{fill:#fff;}.cls-2{fill:none;stroke:#fff;stroke-miterlimit:10;}</style>
  </defs>
  <g id="レイヤー_2" data-name="レイヤー 2">
    <g id="レイヤー_1-2" data-name="レイヤー 1">
      <path class="cls-1" d="M 30.817 17.57 L 31.433 16.876 C 32.008 17.496 32.81 17.857 33.656 17.876 C 34.713 17.876 35.35 17.348 35.35 16.556 C 35.35 15.731 34.767 15.467 34.009 15.126 L 32.842 14.619 C 31.91 14.35 31.251 13.52 31.2 12.552 C 31.281 11.243 32.437 10.267 33.741 10.407 C 34.636 10.405 35.494 10.766 36.118 11.407 L 35.579 12.056 C 35.09 11.571 34.43 11.298 33.741 11.297 C 32.828 11.297 32.234 11.759 32.234 12.486 C 32.234 13.267 32.934 13.564 33.565 13.827 L 34.72 14.327 C 35.696 14.591 36.376 15.473 36.382 16.484 C 36.382 17.76 35.325 18.772 33.642 18.772 C 32.575 18.779 31.552 18.344 30.817 17.57 Z"/>
      <path class="cls-1" d="M 41.025 10.55 L 42.048 10.55 L 42.048 18.625 L 41.025 18.625 Z"/>
      <path class="cls-1" d="M 49.037 13.839 L 48.156 14.334 C 47.61 13.237 46.996 12.176 46.319 11.155 L 47.188 10.715 C 47.673 11.43 48.64 13.124 49.037 13.839 Z M 51.743 15.071 C 52.452 13.988 52.921 12.765 53.118 11.486 C 53.176 11.189 53.205 10.888 53.206 10.586 L 54.306 10.741 C 54.219 11.026 54.131 11.411 54.086 11.61 C 53.834 13.002 53.323 14.333 52.579 15.536 C 51.631 17.017 50.277 18.193 48.679 18.925 L 47.854 18.232 C 49.44 17.596 50.796 16.494 51.743 15.071 Z"/>
      <path class="cls-1" d="M 59.344 11.155 L 59.344 14.829 C 59.344 15.105 59.365 15.468 59.387 15.666 L 58.375 15.666 C 58.41 15.385 58.428 15.102 58.43 14.819 L 58.43 11.155 C 58.43 10.955 58.408 10.572 58.387 10.363 L 59.387 10.363 C 59.365 10.572 59.344 10.891 59.344 11.155 Z M 64.459 11.232 L 64.459 13.015 C 64.459 15.654 64.096 16.524 63.304 17.47 C 62.589 18.228 61.685 18.783 60.685 19.076 L 59.971 18.318 C 60.976 18.109 61.893 17.598 62.6 16.854 C 63.382 15.941 63.513 15.054 63.513 12.97 L 63.513 11.232 C 63.514 10.912 63.496 10.593 63.459 10.275 L 64.493 10.275 C 64.471 10.55 64.459 10.858 64.459 11.232 Z"/>
      <path class="cls-1" d="M 74.986 13.73 C 74.898 14.478 74.579 16.655 74.425 17.668 L 75.5 17.668 C 75.742 17.668 76.138 17.657 76.369 17.635 L 76.369 18.527 C 76.169 18.515 75.764 18.504 75.533 18.504 L 69.508 18.504 C 69.166 18.504 68.913 18.515 68.595 18.537 L 68.595 17.624 C 68.858 17.646 69.178 17.668 69.508 17.668 L 73.49 17.668 C 73.655 16.744 73.973 14.599 74.007 13.968 L 70.507 13.968 C 70.187 13.968 69.901 13.989 69.627 14 L 69.627 13.08 C 69.915 13.119 70.205 13.142 70.496 13.147 L 73.84 13.147 C 74.026 13.148 74.211 13.122 74.39 13.07 L 75.061 13.389 C 75.028 13.501 75.003 13.615 74.986 13.73 Z"/>
      <path class="cls-1" d="M 80.606 13.916 L 86.636 13.916 C 87.185 13.916 87.581 13.884 87.823 13.862 L 87.823 14.94 C 87.603 14.929 87.141 14.885 86.646 14.885 L 80.606 14.885 C 80.006 14.885 79.418 14.906 79.077 14.94 L 79.077 13.862 C 79.407 13.884 79.99 13.916 80.606 13.916 Z"/>
      <path class="cls-1" d="M 93.025 14.137 L 92.519 14.906 C 91.749 14.357 90.948 13.855 90.119 13.4 L 90.603 12.652 C 91.255 13 92.542 13.784 93.025 14.137 Z M 94.3 16.755 C 96.018 15.801 97.456 14.413 98.469 12.729 L 98.998 13.629 C 97.907 15.246 96.462 16.594 94.773 17.569 C 93.626 18.195 92.396 18.654 91.12 18.932 L 90.614 18.041 C 91.906 17.822 93.152 17.387 94.3 16.755 Z M 94.652 11.727 L 94.135 12.476 C 93.606 12.076 92.419 11.287 91.769 10.913 L 92.269 10.176 C 92.916 10.539 94.18 11.375 94.654 11.727 Z"/>
      <path class="cls-1" d="M 103.53 12.629 L 107.788 12.629 C 108.03 12.629 108.316 12.618 108.459 12.608 C 108.448 12.729 108.448 12.959 108.448 13.168 L 108.448 18.648 C 108.448 18.823 108.459 19.087 108.471 19.241 L 107.601 19.241 C 107.612 19.141 107.612 18.978 107.612 18.801 L 103.189 18.801 C 102.838 18.801 102.452 18.823 102.276 18.823 L 102.276 17.944 C 102.575 17.974 102.875 17.989 103.176 17.988 L 107.609 17.988 L 107.609 16.029 L 103.64 16.029 C 103.256 16.029 102.87 16.04 102.65 16.051 L 102.65 15.2 C 102.859 15.212 103.256 15.234 103.63 15.234 L 107.612 15.234 L 107.612 13.41 L 103.53 13.41 C 103.244 13.41 102.606 13.433 102.408 13.444 L 102.408 12.585 C 102.617 12.608 103.244 12.629 103.53 12.629 Z"/>
      <path class="cls-1" d="M 116.907 16.325 C 118.472 15.329 119.741 13.932 120.581 12.278 L 121.109 13.212 C 120.22 14.805 118.948 16.151 117.409 17.129 C 116.092 17.97 114.624 18.548 113.086 18.829 L 112.502 17.929 C 114.066 17.707 115.566 17.16 116.907 16.325 Z M 116.258 12.838 L 115.564 13.531 C 114.713 12.694 113.797 11.925 112.825 11.231 L 113.452 10.56 C 114.443 11.248 115.381 12.01 116.258 12.838 Z"/>
      <path class="cls-1" d="M 132.418 16.348 L 131.284 16.348 L 131.284 18.3 L 130.471 18.3 L 130.471 17.8 L 127.83 17.8 L 127.83 18.559 C 127.83 19.066 127.676 19.252 127.346 19.373 C 126.746 19.502 126.131 19.546 125.519 19.505 C 125.457 19.262 125.361 19.029 125.233 18.813 C 125.893 18.834 126.554 18.823 126.741 18.823 C 126.95 18.813 127.015 18.746 127.015 18.559 L 127.015 17.8 L 123.462 17.8 L 123.462 17.173 L 127.015 17.173 L 127.015 16.348 L 122.515 16.348 L 122.515 15.7 L 127.015 15.7 L 127.015 14.931 L 123.561 14.931 L 123.561 14.325 L 127.015 14.325 L 127.015 13.556 L 123.869 13.556 L 123.869 11.617 L 127.015 11.617 L 127.015 10.979 L 122.725 10.979 L 122.725 10.308 L 127.015 10.308 L 127.015 9.428 L 127.83 9.428 L 127.83 10.308 L 132.209 10.308 L 132.209 10.979 L 127.83 10.979 L 127.83 11.617 L 131.108 11.617 L 131.108 13.554 L 127.83 13.554 L 127.83 14.323 L 131.284 14.323 L 131.284 15.7 L 132.418 15.7 Z M 127.018 12.982 L 127.018 12.19 L 124.65 12.19 L 124.65 12.982 Z M 127.833 12.19 L 127.833 12.982 L 130.297 12.982 L 130.297 12.19 Z M 127.833 15.698 L 130.474 15.698 L 130.474 14.929 L 127.83 14.929 Z M 130.474 16.348 L 127.83 16.348 L 127.83 17.173 L 130.471 17.173 Z"/>
      <path class="cls-1" d="M 139.6 16.854 C 140.769 17.709 142.109 18.302 143.528 18.592 C 143.308 18.805 143.123 19.05 142.978 19.319 C 141.445 18.894 140.03 18.122 138.842 17.063 L 138.842 19.463 L 138.042 19.463 L 138.042 17.118 C 136.844 18.122 135.446 18.86 133.942 19.285 C 133.796 19.033 133.618 18.8 133.414 18.592 C 134.813 18.281 136.134 17.69 137.298 16.854 L 133.698 16.854 L 133.698 16.161 L 138.044 16.161 L 138.044 15.347 L 134.732 15.347 L 134.732 14.72 L 138.044 14.72 L 138.044 13.92 L 134.182 13.92 L 134.182 13.249 L 136.582 13.249 C 136.452 12.86 136.271 12.49 136.043 12.149 L 136.429 12.072 L 133.744 12.072 L 133.744 11.372 L 135.493 11.372 C 135.261 10.809 134.97 10.273 134.624 9.772 L 135.317 9.541 C 135.694 10.039 136.008 10.583 136.252 11.158 L 135.691 11.367 L 137.045 11.367 L 137.045 9.417 L 137.804 9.417 L 137.804 11.364 L 139.1 11.364 L 139.1 9.417 L 139.871 9.417 L 139.871 11.364 L 141.202 11.364 L 140.795 11.232 C 141.115 10.696 141.395 10.137 141.632 9.56 L 142.467 9.779 C 142.177 10.326 141.853 10.856 141.499 11.364 L 143.205 11.364 L 143.205 12.069 L 141.005 12.069 C 140.785 12.487 140.543 12.915 140.323 13.245 L 142.823 13.245 L 142.823 13.916 L 138.841 13.916 L 138.841 14.716 L 142.284 14.716 L 142.284 15.343 L 138.841 15.343 L 138.841 16.157 L 143.253 16.157 L 143.253 16.85 Z M 136.861 12.069 C 137.093 12.41 137.278 12.78 137.412 13.169 L 137.059 13.246 L 139.645 13.246 L 139.535 13.213 C 139.746 12.844 139.934 12.463 140.096 12.07 Z"/>
      <path class="cls-1" d="M 144.45 13.653 L 150.1 13.653 L 150.1 14.4 L 144.45 14.4 Z M 149.95 11.353 L 144.735 11.353 L 144.735 10.638 L 146.935 10.638 L 146.935 9.461 L 147.717 9.461 L 147.717 10.638 L 149.95 10.638 Z M 145.186 15.358 L 149.486 15.358 L 149.486 19.406 L 148.7 19.406 L 148.7 18.823 L 145.95 18.823 L 145.95 19.472 L 145.191 19.472 Z M 145.886 13.521 C 145.798 12.909 145.635 12.31 145.402 11.738 L 146.085 11.595 C 146.335 12.155 146.506 12.748 146.591 13.356 Z M 145.941 16.084 L 145.941 18.109 L 148.691 18.109 L 148.691 16.084 Z M 147.932 13.389 C 148.179 12.78 148.385 12.155 148.549 11.518 L 149.319 11.705 C 149.088 12.343 148.819 13.07 148.592 13.554 Z M 154.501 10.418 C 154.049 11.452 153.488 12.718 152.971 13.718 C 153.803 14.357 154.31 15.332 154.357 16.38 C 154.431 16.917 154.228 17.455 153.818 17.81 C 153.603 17.948 153.358 18.031 153.103 18.052 C 152.785 18.082 152.465 18.089 152.146 18.074 C 152.131 17.789 152.052 17.511 151.915 17.26 C 152.204 17.288 152.494 17.295 152.784 17.282 C 152.949 17.277 153.11 17.236 153.257 17.161 C 153.488 17.018 153.557 16.688 153.557 16.292 C 153.484 15.297 152.962 14.39 152.138 13.827 C 152.59 12.903 153.073 11.715 153.414 10.835 L 151.335 10.835 L 151.335 19.46 L 150.543 19.46 L 150.543 10.066 L 153.777 10.066 L 153.909 10.033 Z"/>
      <rect class="cls-2" x="0.5" y="0.5" width="182.257" height="27.67"/>
      <path class="cls-1" d="M60.3,50.892v1.841h5.811v8.708c0,.784-.192,1.184-.736,1.392a8.379,8.379,0,0,1-2.722.24,4.214,4.214,0,0,0-.5-1.313c.929.032,1.873.017,2.129.017.272-.017.352-.1.352-.353v-7.3H60.3v8.852H58.847V54.125H54.654v9.028H53.229V52.733h5.618V50.892H52.509V49.436H66.755v1.456Zm-4.5,7.059c.88.577,2.114,1.392,2.721,1.889l-.9.944a29.886,29.886,0,0,0-2.7-2Zm.113-3.073c.847.512,2.049,1.248,2.657,1.712l-.881.929c-.576-.464-1.776-1.265-2.625-1.809Zm7.427,5.842c-.641-.512-1.906-1.377-2.85-1.969l.849-.848c.928.56,2.209,1.361,2.865,1.857Zm.112-3.217c-.593-.448-1.841-1.249-2.737-1.793l.832-.848c.88.512,2.128,1.232,2.769,1.68Z"/>
      <path class="cls-1" d="M82.371,49.9v3.761H80.85v-2.4H70.4v2.4H68.941V49.9h5.826V48.459h1.57V49.9Zm-5.939,6.738c-.112.417-.208.849-.3,1.233h4.963v5.2H79.538V62.5H71.9v.625H70.414v-5.25h4.241c.049-.4.1-.833.129-1.233H71.5V52.429h8.243v4.209Zm3.106,2.514H71.9V61.2h7.636Zm-6.627-3.73h5.346V53.629H72.911Z"/>
      <path class="cls-1" d="M103.358,59.279c.513-.127,1.072-.288,1.6-.448l.192,1.345c-1.569.48-3.218.96-4.53,1.328l-.3-1.425c.5-.111,1.057-.239,1.681-.416V55.422h-1.473V54.045H102V50.86h-1.6V49.484h4.562V50.86h-1.6v3.185h1.28v1.377h-1.28Zm7.363-3.889c-.144.464-.288.912-.432,1.328h4.338v5.026c0,.561-.1.945-.464,1.169a2.688,2.688,0,0,1-1.5.288,4,4,0,0,0-.464-1.329c.416.017.768.017.9.017.143-.017.175-.049.175-.193V57.983h-1.28v5.074h-1.217V57.983h-1.264v5.074h-1.217V57.983H107.1v5.186H105.76V56.718h3.169a12.488,12.488,0,0,0,.288-1.328h-3.955V54.062H114.9V55.39Zm3.618-2.385H105.92V49.148h1.343v2.56h2.1V48.475h1.377v3.233h2.193v-2.56h1.409Z"/>
      <path class="cls-1" d="M122.912,54.749h-6.355V53.341h2.257v-3.7h1.5v3.7h2.594V48.475h1.52v1.7h4.77v1.36h-4.77v1.809h6.307v1.408H124.4v3.362c0,.72-.143,1.088-.7,1.312a8,8,0,0,1-2.545.225,5.025,5.025,0,0,0-.465-1.361c.833.033,1.7.033,1.921.016.24,0,.305-.048.305-.24ZM121.2,55.6a14.436,14.436,0,0,1-3.249,3.666,10.541,10.541,0,0,0-1.345-.944,10.608,10.608,0,0,0,3.057-3.2Zm7.026,2.209c-1.423,3.506-4.546,4.866-9.683,5.49a3.9,3.9,0,0,0-.7-1.44c4.738-.4,7.619-1.521,8.867-4.5Zm-.624-2.721a17.319,17.319,0,0,1,3.154,3.329l-1.281.864a17.082,17.082,0,0,0-3.088-3.441Z"/>
      <path class="cls-1" d="M62.027,90.327c2.365-2.354,3.7-3.762,3.7-5.049a1.382,1.382,0,0,0-1.485-1.53,2.293,2.293,0,0,0-1.672.935l-.583-.561a3.084,3.084,0,0,1,2.376-1.188,2.172,2.172,0,0,1,2.344,2.3c0,1.473-1.343,2.937-3.2,4.9.418-.033.9-.077,1.32-.077H67.1v.869H62.027Z"/>
      <path class="cls-1" d="M68.186,86.972c0-2.63.957-4.038,2.52-4.038s2.508,1.419,2.508,4.038-.946,4.092-2.508,4.092S68.186,89.6,68.186,86.972Zm4.049,0c0-2.3-.616-3.234-1.529-3.234s-1.54.934-1.54,3.234.616,3.289,1.54,3.289S72.235,89.271,72.235,86.972Z"/>
      <path class="cls-1" d="M74.72,90.085h1.793V84.3h-1.43v-.649a4.658,4.658,0,0,0,1.673-.572h.769v7.008h1.617v.836H74.72Z"/>
      <path class="cls-1" d="M80.351,88.919A2.5,2.5,0,0,1,81.837,86.8v-.044a2.188,2.188,0,0,1-1.089-1.815,2.218,2.218,0,0,1,4.422.077,2.583,2.583,0,0,1-1.078,1.892v.055a2.3,2.3,0,0,1,1.364,2.014,2.255,2.255,0,0,1-2.53,2.09A2.313,2.313,0,0,1,80.351,88.919Zm4.148.032c0-1.022-.99-1.385-2.134-1.837a2.086,2.086,0,0,0-1.1,1.717,1.547,1.547,0,0,0,1.684,1.485A1.4,1.4,0,0,0,84.5,88.951Zm-.187-3.882a1.3,1.3,0,0,0-1.364-1.387,1.21,1.21,0,0,0-1.287,1.254c0,.946.869,1.343,1.814,1.717A2.137,2.137,0,0,0,84.312,85.069Z"/>
      <path class="cls-1" d="M99.162,89.249H95.179v2.519h-.825V89.249H89.272v-.792h1.8V85.508h3.278V83.836H91.681A10.163,10.163,0,0,1,90.009,86a4.991,4.991,0,0,0-.7-.516,9.311,9.311,0,0,0,2.476-3.8l.825.2c-.154.385-.33.781-.506,1.155h6.557v.792H95.179v1.672H98.4v.771H95.179v2.178h3.983Zm-4.808-.792V86.279H91.89v2.178Z"/>
      <path class="cls-1" d="M105.74,82.384a9.417,9.417,0,0,0,4.565,8.658,3.922,3.922,0,0,0-.66.682,9.494,9.494,0,0,1-4.368-6.128,9.723,9.723,0,0,1-4.39,6.14,5.29,5.29,0,0,0-.736-.65c2.431-1.265,3.784-3.476,4.455-6.557l.485.078c-.078-.507-.121-.991-.144-1.409h-2.706v-.814Z"/>
      <path class="cls-1" d="M115.276,88.6c-.286-.32-.89-.936-1.386-1.4v4.555h-.8V87.488a10.334,10.334,0,0,1-1.683,1.375,3.62,3.62,0,0,0-.43-.736,9.549,9.549,0,0,0,3.445-3.609H111.36V83.77h1.727V81.724h.8V83.77h.957l.143-.032.462.307a9.909,9.909,0,0,1-1.43,2.4c.517.407,1.486,1.253,1.76,1.5Zm6.063,2.046v.8h-6.161v-.8h2.783V86.08h-2.355v-.792h2.355V81.8h.814v3.487h2.343v.792h-2.343v4.566Z"/>
    </g>
  </g>
</svg>