<svg xmlns="http://www.w3.org/2000/svg" width="183.257" height="91.767" viewBox="0 0 183.257 91.767"><defs><style>.cls-1{fill:#fff;}.cls-2{fill:none;stroke:#fff;stroke-miterlimit:10;}</style></defs><g id="&#x30EC;&#x30A4;&#x30E4;&#x30FC;_2" data-name="&#x30EC;&#x30A4;&#x30E4;&#x30FC; 2"><g id="&#x30EC;&#x30A4;&#x30E4;&#x30FC;_1-2" data-name="&#x30EC;&#x30A4;&#x30E4;&#x30FC; 1"><path class="cls-1" d="M10.867,15.786a9.688,9.688,0,0,1-.781,2.8,2.9,2.9,0,0,0-.638-.309,7.923,7.923,0,0,0,.715-2.618Zm1.287-.88v4.577h-.737V14.95l-1.793.088L9.557,14.3c.221,0,.474-.012.727-.023a10.8,10.8,0,0,0,.737-.979A10.1,10.1,0,0,0,9.58,11.726L10,11.187c.11.089.22.188.33.286a14.958,14.958,0,0,0,.979-2.046l.726.276a19.884,19.884,0,0,1-1.254,2.211,7.627,7.627,0,0,1,.671.759c.451-.693.869-1.409,1.177-2l.7.307a35.693,35.693,0,0,1-2.277,3.28c.55-.023,1.155-.056,1.76-.078a10.285,10.285,0,0,0-.539-.979l.606-.264a9.467,9.467,0,0,1,1.089,2.234l-.65.307a3.733,3.733,0,0,0-.209-.627Zm1.012.7a9.529,9.529,0,0,1,.737,2.112l-.648.221a11.1,11.1,0,0,0-.7-2.135Zm6.557,2.8v.748h-6.4v-.748h1.166V10.044h4.39v8.361Zm-4.445-7.624V12.8h2.8V10.781Zm2.8,2.761H15.278v2.024h2.8Zm-2.795,4.863h2.8V16.3H15.278Z"></path><path class="cls-1" d="M23.407,10.594c.583,0,2.024-.078,2.486-.111a2.219,2.219,0,0,0,.55-.12l.551.45a4.4,4.4,0,0,0-.286.364c-.309.5-.792,1.617-1.254,2.64a9.906,9.906,0,0,1,3.025.88c.044-.274.066-.55.088-.813.011-.331.022-.7,0-1.013l.891.1a14.783,14.783,0,0,1-.231,2.125,14.181,14.181,0,0,1,1.331.846l-.407.946a11.48,11.48,0,0,0-1.144-.869,5.192,5.192,0,0,1-2.894,3.268l-.726-.606a4.717,4.717,0,0,0,2.883-3.1,7.919,7.919,0,0,0-3.146-1.012,23.952,23.952,0,0,1-1.387,2.883,1.547,1.547,0,0,1-1.386.759,1.4,1.4,0,0,1-1.43-1.507c0-1.618,1.5-2.861,3.664-2.916.385-.869.8-1.826,1.143-2.508-.439.022-1.782.076-2.288.11-.242.01-.55.043-.814.066l-.044-.892C22.868,10.583,23.187,10.594,23.407,10.594Zm-1.023,6.744a.792.792,0,0,0,.66-.385,14.742,14.742,0,0,0,1.2-2.4c-1.606.122-2.519,1.089-2.519,2.036A.674.674,0,0,0,22.384,17.338Z"></path><path class="cls-1" d="M34.033,17.239a3.2,3.2,0,0,0,2.739,1.231c1.2.044,3.642.012,4.929-.077a3.747,3.747,0,0,0-.264.837c-1.2.044-3.455.066-4.665.022a3.921,3.921,0,0,1-3.113-1.3c-.528.462-1.078.934-1.661,1.408l-.441-.825a18.375,18.375,0,0,0,1.673-1.254V14.5H31.7v-.77h2.332Zm-.341-5.314a7.592,7.592,0,0,0-1.87-1.739l.605-.495a8.377,8.377,0,0,1,1.915,1.695Zm4.576-1.948c.265,3.356,1.122,5.952,3.324,7.085a3.762,3.762,0,0,0-.65.616,6.678,6.678,0,0,1-2.927-4.455A7.855,7.855,0,0,1,35.1,17.678a4.731,4.731,0,0,0-.638-.6,7.178,7.178,0,0,0,2.97-4.984l.353.055c-.077-.451-.132-.914-.188-1.4h-2V9.977Z"></path><path class="cls-1" d="M45.407,10.594c.583,0,2.024-.078,2.486-.111a2.219,2.219,0,0,0,.55-.12l.551.45a4.4,4.4,0,0,0-.286.364c-.309.5-.792,1.617-1.254,2.64a9.906,9.906,0,0,1,3.025.88c.044-.274.066-.55.088-.813.011-.331.022-.7,0-1.013l.891.1a14.783,14.783,0,0,1-.231,2.125,14.181,14.181,0,0,1,1.331.846l-.407.946a11.48,11.48,0,0,0-1.144-.869,5.192,5.192,0,0,1-2.894,3.268l-.726-.606a4.717,4.717,0,0,0,2.883-3.1,7.919,7.919,0,0,0-3.146-1.012,23.952,23.952,0,0,1-1.387,2.883,1.547,1.547,0,0,1-1.386.759,1.4,1.4,0,0,1-1.43-1.507c0-1.618,1.5-2.861,3.664-2.916.385-.869.8-1.826,1.143-2.508-.439.022-1.782.076-2.288.11-.242.01-.55.043-.814.066l-.044-.892C44.868,10.583,45.187,10.594,45.407,10.594Zm-1.023,6.744a.792.792,0,0,0,.66-.385,14.742,14.742,0,0,0,1.2-2.4c-1.606.122-2.519,1.089-2.519,2.036A.674.674,0,0,0,44.384,17.338Z"></path><path class="cls-1" d="M55.648,11.331H61.7a7.6,7.6,0,0,0,.936-.067v.969a8.493,8.493,0,0,0-.936-.044H59.058V17.25h3.235a7.522,7.522,0,0,0,.913-.067v1a6.9,6.9,0,0,0-.913-.044H55.021c-.3,0-.627.012-.968.044v-1a7.543,7.543,0,0,0,.968.067h3.1V12.189H55.648c-.209,0-.649.011-.924.044v-.969A7.312,7.312,0,0,0,55.648,11.331Z"></path><path class="cls-1" d="M70.081,16.325a10.356,10.356,0,0,0,3.674-4.048l.528.935a10.985,10.985,0,0,1-3.7,3.917,12.071,12.071,0,0,1-4.324,1.7l-.584-.9A11.369,11.369,0,0,0,70.081,16.325Zm-.65-3.487-.693.693A22.942,22.942,0,0,0,66,11.231l.627-.671A24.094,24.094,0,0,1,69.431,12.838Z"></path><path class="cls-1" d="M79.056,14.213l-.495.77a24.372,24.372,0,0,0-2.409-1.507l.5-.748C77.3,13.08,78.583,13.872,79.056,14.213Zm1.288,2.63A11.24,11.24,0,0,0,84.513,12.8l.528.915a12.948,12.948,0,0,1-4.236,3.926,13.108,13.108,0,0,1-3.641,1.365l-.506-.891A12.081,12.081,0,0,0,80.344,16.843Zm.351-5.04-.516.76c-.529-.407-1.728-1.2-2.366-1.573l.5-.737C78.957,10.616,80.222,11.463,80.695,11.8Zm3.334.32-.627.286a12.4,12.4,0,0,0-1-1.738l.605-.253A16.139,16.139,0,0,1,84.029,12.123Zm1.474-.55-.627.286a11.971,11.971,0,0,0-1.045-1.706l.616-.264A15.879,15.879,0,0,1,85.5,11.573Z"></path><path class="cls-1" d="M88.3,16.964h6.59c.33,0,.682-.023,1-.055v1.056c-.33-.034-.7-.055-1-.055H88.3c-.4,0-.782.033-1.156.055V16.909C87.514,16.93,87.9,16.964,88.3,16.964Zm.881-5.457h4.708a10.809,10.809,0,0,0,1.089-.044v.99c-.308-.023-.726-.033-1.089-.033H89.177c-.386,0-.748.022-1.09.033v-.99C88.439,11.485,88.813,11.507,89.177,11.507Z"></path><path class="cls-1" d="M107.074,11.584a10.591,10.591,0,0,1-2.739,3.036l-.727-.583a7.466,7.466,0,0,0,2.41-2.464H99.747a12.285,12.285,0,0,0-1.254.065v-1a9.334,9.334,0,0,0,1.254.1h6.315a5.432,5.432,0,0,0,.77-.066l.539.516C107.294,11.3,107.151,11.463,107.074,11.584Zm-7.162,7.448-.814-.66a3.852,3.852,0,0,0,.99-.5c1.706-1.045,1.947-2.608,1.947-4.445a6.64,6.64,0,0,0-.044-.793h.99C102.981,15.621,102.718,17.635,99.912,19.032Z"></path><path class="cls-1" d="M111.517,11.155v3.674c0,.275.022.639.044.837h-1.012a7.23,7.23,0,0,0,.055-.848V11.155c0-.2-.022-.583-.044-.792h1C111.539,10.572,111.517,10.89,111.517,11.155Zm5.116.076v1.783c0,2.64-.363,3.509-1.156,4.455a5.864,5.864,0,0,1-2.618,1.607l-.715-.759a5.041,5.041,0,0,0,2.629-1.464c.781-.913.913-1.8.913-3.884V11.231a7.924,7.924,0,0,0-.054-.957h1.034C116.644,10.55,116.633,10.857,116.633,11.231Z"></path><path class="cls-1" d="M125.081,16.325a10.356,10.356,0,0,0,3.674-4.048l.528.935a10.985,10.985,0,0,1-3.7,3.917,12.071,12.071,0,0,1-4.324,1.7l-.584-.9A11.369,11.369,0,0,0,125.081,16.325Zm-.65-3.487-.693.693a22.942,22.942,0,0,0-2.739-2.3l.627-.671A24.094,24.094,0,0,1,124.431,12.838Z"></path><path class="cls-1" d="M135.1,11.21c-.077.154-.165.307-.253.462h2.982a2.132,2.132,0,0,0,.715-.1l.726.439a3.528,3.528,0,0,0-.253.583,10.771,10.771,0,0,1-1.947,3.8,9.788,9.788,0,0,1-4.379,2.993l-.8-.726a8.813,8.813,0,0,0,4.4-2.762,8.932,8.932,0,0,0,1.749-3.432h-3.708a10.632,10.632,0,0,1-2.794,2.707l-.759-.562a9.209,9.209,0,0,0,3.454-3.719,3.969,3.969,0,0,0,.341-.879l1.013.34C135.41,10.637,135.212,11.011,135.1,11.21Zm4.346.121-.594.263a12.43,12.43,0,0,0-.891-1.517l.583-.254A15.607,15.607,0,0,1,139.447,11.331Zm1.232-.451-.594.263a11.455,11.455,0,0,0-.913-1.507l.583-.252A15.614,15.614,0,0,1,140.679,10.88Z"></path><path class="cls-1" d="M151.592,16.347h-1.134V18.3h-.814v-.5H147v.758c0,.507-.155.694-.485.815a6.564,6.564,0,0,1-1.826.132,2.712,2.712,0,0,0-.286-.693c.66.022,1.32.011,1.508.011.209-.011.274-.077.274-.265V17.8h-3.553v-.627h3.553v-.826h-4.5V15.7h4.5v-.77h-3.454v-.605h3.454v-.77h-3.146V11.617h3.146v-.639H141.9v-.671h4.29v-.88H147v.88h4.379v.671H147v.639h3.278v1.936H147v.77h3.454V15.7h1.134Zm-5.4-3.366v-.792h-2.365v.792Zm.815-.792v.792h2.464v-.792Zm0,3.509h2.64v-.77H147Zm2.64.649H147v.826h2.64Z"></path><path class="cls-1" d="M158.773,16.853a10.077,10.077,0,0,0,3.928,1.739,2.947,2.947,0,0,0-.55.726,10.385,10.385,0,0,1-4.137-2.256v2.4h-.8V17.118a11.066,11.066,0,0,1-4.1,2.167,3.474,3.474,0,0,0-.528-.693,10.6,10.6,0,0,0,3.884-1.739h-3.6v-.692h4.346v-.815H153.9v-.627h3.312v-.8h-3.863v-.671h2.4a4.619,4.619,0,0,0-.539-1.1l.386-.077H152.91v-.7h1.749a8.58,8.58,0,0,0-.869-1.6l.693-.23a7.582,7.582,0,0,1,.935,1.617l-.561.209h1.354V9.417h.759v1.947h1.308V9.417h.771v1.947h1.331l-.408-.133a12.368,12.368,0,0,0,.837-1.672l.836.22a15.3,15.3,0,0,1-.968,1.585h1.706v.7h-2.2c-.219.418-.461.847-.681,1.177H162v.671h-3.983v.8h3.444v.627h-3.444v.815h4.413v.692Zm-2.739-4.785a4.706,4.706,0,0,1,.551,1.1l-.353.077h2.586l-.11-.033a10.054,10.054,0,0,0,.56-1.144Z"></path><path class="cls-1" d="M163.624,13.652h5.654V14.4h-5.654Zm5.5-2.3H163.91v-.715h2.2V9.461h.781v1.176h2.234Zm-4.764,4h4.3v4.049h-.793v-.583h-2.75v.648h-.759Zm.7-1.837a7.6,7.6,0,0,0-.484-1.782l.682-.144a6.531,6.531,0,0,1,.506,1.761Zm.055,2.564v2.024h2.75V16.084Zm1.991-2.7a14.846,14.846,0,0,0,.616-1.871l.771.188c-.232.638-.5,1.364-.727,1.848Zm6.568-2.97c-.451,1.034-1.012,2.3-1.529,3.3a3.553,3.553,0,0,1,1.386,2.662A1.6,1.6,0,0,1,173,17.81a1.564,1.564,0,0,1-.715.242,6.635,6.635,0,0,1-.957.023,1.9,1.9,0,0,0-.231-.814,6.065,6.065,0,0,0,.869.022,1.129,1.129,0,0,0,.473-.121c.231-.144.3-.474.3-.869a3.274,3.274,0,0,0-1.419-2.465c.451-.924.935-2.112,1.276-2.992h-2.079v8.625h-.792v-9.4h3.234l.132-.032Z"></path><rect class="cls-2" x="0.5" y="0.5" width="182.257" height="27.67"></rect><path class="cls-1" d="M54.862,55.565a10.377,10.377,0,0,0-2.625-1.6l.832-1.105a10.507,10.507,0,0,1,2.673,1.489ZM52.589,62.16a48.176,48.176,0,0,0,2.273-5.09l1.2.816c-.624,1.681-1.425,3.57-2.144,5.075Zm2.945-10.788a11.375,11.375,0,0,0-2.545-1.713l.849-1.057a10.539,10.539,0,0,1,2.592,1.585ZM63.681,60.7c1.233.528,2.593,1.136,3.394,1.584l-1.105.9a37.764,37.764,0,0,0-3.441-1.728L63.3,60.7H60.224l1.057.72a14.3,14.3,0,0,1-4.1,1.745,9.391,9.391,0,0,0-.816-1.009A15.374,15.374,0,0,0,59.936,60.7h-2v-4c-.432.1-.864.192-1.28.272a6.85,6.85,0,0,0-.833-1.184c.7-.1,1.409-.225,2.113-.368v-.177h.752a22.589,22.589,0,0,0,2.226-.624V52.764H58.72V51.708h5.97v1.056h-.1l1.232.561a12.047,12.047,0,0,1-3.217,1.92h3.329V60.7Zm-3.633-7.3A8.4,8.4,0,0,1,57.2,55.086a5,5,0,0,0-.832-.913,9.182,9.182,0,0,0,2.625-1.409ZM58.063,52.4H56.735V49.819h4.146V48.474h1.472v1.345h4.386V52.4H65.362V50.939h-7.3Zm2.1,3.73c-.288.08-.56.16-.849.24v.416H64.5v-.656ZM64.5,57.614H59.311v.673H64.5Zm-5.187,2.209H64.5v-.7H59.311Zm2.994-5.73a9.288,9.288,0,0,0,2.241-1.329H62.305Z"></path><path class="cls-1" d="M82.163,49.563V63.024H80.626v-.975h-10v.975H69.149V49.563ZM70.622,50.988v4h4.162v-4Zm0,9.556h4.162V56.478H70.622Zm10-9.556H76.288v4h4.338Zm0,9.556V56.478H76.288v4.066Z"></path><path class="cls-1" d="M105.935,56.349q-.984.362-1.968.673v4.386c0,.769-.176,1.152-.624,1.36a5.429,5.429,0,0,1-2.274.273,4.926,4.926,0,0,0-.448-1.345c.7.016,1.392.016,1.585.016.223-.016.3-.08.3-.321V57.534l-1.857.608-.448-1.424c.64-.192,1.44-.432,2.305-.688V52.988h-2.161V51.612h2.161V48.474h1.457v3.138h1.808v1.376h-1.808v2.577c.56-.176,1.152-.351,1.712-.544Zm4.21-5.378a25.628,25.628,0,0,1-1.457,4.066h5.635V63.1h-1.457v-.832h-4.241v.9h-1.393V57.583a10.858,10.858,0,0,1-1.521,1.776,7.376,7.376,0,0,0-.976-1.137,15.233,15.233,0,0,0,3.841-7.251h-2.785V49.547H114.9v1.424Zm2.721,5.475h-4.241v4.418h4.241Z"></path><path class="cls-1" d="M118.91,55.582a10.983,10.983,0,0,0-2.641-1.665l.832-1.088a10.717,10.717,0,0,1,2.69,1.552Zm-2.3,6.578a46.852,46.852,0,0,0,2.417-5.154l1.185.833c-.656,1.7-1.5,3.617-2.257,5.137Zm3.026-10.708a11.4,11.4,0,0,0-2.61-1.761l.832-1.072a10.427,10.427,0,0,1,2.674,1.648Zm3.3.272a12.978,12.978,0,0,1-1.6,2.417,8.842,8.842,0,0,0-1.265-.865,11.4,11.4,0,0,0,2.577-4.817l1.473.32c-.16.544-.352,1.072-.56,1.6h7.283v1.344Zm6.819,5.81c-.049.833-.1,1.52-.16,2.113h1.424v1.28h-1.584a3.536,3.536,0,0,1-.513,1.553,1.462,1.462,0,0,1-1.168.624,11.881,11.881,0,0,1-2.018,0,2.932,2.932,0,0,0-.368-1.232c.769.064,1.442.08,1.761.08a.631.631,0,0,0,.577-.24,2.018,2.018,0,0,0,.3-.785h-5.426l-.129.737-1.424-.128c.208-1.072.448-2.5.672-4h-1.44v-1.36h1.616c.16-1.121.288-2.225.385-3.2h7.714s-.015.481-.032.657c-.032.944-.08,1.793-.112,2.545h1.3v1.36Zm-6.675,0c-.1.736-.208,1.441-.305,2.113h1.969c.08-.624.16-1.36.257-2.113Zm.416-3.265c-.08.624-.16,1.265-.24,1.905h1.873c.063-.657.128-1.3.176-1.905Zm4.706,5.378c.064-.56.128-1.264.176-2.113h-2.1c-.08.768-.16,1.489-.24,2.113Zm.256-3.473c.032-.577.063-1.217.1-1.905h-1.969c-.048.609-.112,1.265-.176,1.905Z"></path><path class="cls-1" d="M62.027,90.327c2.365-2.355,3.7-3.763,3.7-5.05a1.382,1.382,0,0,0-1.485-1.529,2.3,2.3,0,0,0-1.672.934l-.583-.56a3.085,3.085,0,0,1,2.376-1.189,2.172,2.172,0,0,1,2.344,2.3c0,1.474-1.343,2.938-3.2,4.9.418-.034.9-.077,1.32-.077H67.1v.869H62.027Z"></path><path class="cls-1" d="M68.186,86.971c0-2.629.957-4.038,2.52-4.038s2.508,1.419,2.508,4.038-.946,4.092-2.508,4.092S68.186,89.6,68.186,86.971Zm4.049,0c0-2.3-.616-3.234-1.529-3.234s-1.54.935-1.54,3.234.616,3.29,1.54,3.29S72.235,89.27,72.235,86.971Z"></path><path class="cls-1" d="M74.72,90.085h1.793V84.3h-1.43v-.65a4.658,4.658,0,0,0,1.673-.571h.769v7.008h1.617v.836H74.72Z"></path><path class="cls-1" d="M80.494,90.239l.561-.628a1.663,1.663,0,0,0,1.288.616c1.1,0,2.035-.857,2.079-3.366a2.5,2.5,0,0,1-1.837,1.012,2.132,2.132,0,0,1-2.244-2.431,2.361,2.361,0,0,1,2.309-2.509c1.552,0,2.707,1.254,2.707,3.774,0,3.146-1.419,4.356-2.981,4.356A2.462,2.462,0,0,1,80.494,90.239Zm2.256-3.114a2.124,2.124,0,0,0,1.65-1.067c-.132-1.518-.748-2.333-1.75-2.333-.769,0-1.363.683-1.363,1.717S81.77,87.125,82.75,87.125Z"></path><path class="cls-1" d="M99.162,89.249H95.179v2.518h-.825V89.249H89.272v-.792h1.8V85.508h3.278V83.836H91.681A10.214,10.214,0,0,1,90.009,86a5,5,0,0,0-.7-.517,9.3,9.3,0,0,0,2.476-3.8l.825.2c-.154.385-.33.782-.506,1.156h6.557v.792H95.179v1.672H98.4v.77H95.179v2.179h3.983Zm-4.808-.792V86.278H91.89v2.179Z"></path><path class="cls-1" d="M105.74,82.384a9.418,9.418,0,0,0,4.565,8.658,3.916,3.916,0,0,0-.66.681,9.489,9.489,0,0,1-4.368-6.128,9.72,9.72,0,0,1-4.39,6.14,5.221,5.221,0,0,0-.736-.649c2.431-1.266,3.784-3.477,4.455-6.557l.485.077c-.078-.507-.121-.99-.144-1.408h-2.706v-.814Z"></path><path class="cls-1" d="M115.276,88.6c-.286-.319-.89-.935-1.386-1.4v4.555h-.8V87.488a10.334,10.334,0,0,1-1.683,1.375,3.62,3.62,0,0,0-.43-.736,9.552,9.552,0,0,0,3.445-3.61H111.36v-.748h1.727V81.723h.8v2.046h.957l.143-.032.462.308a9.9,9.9,0,0,1-1.43,2.4c.517.407,1.486,1.254,1.76,1.5Zm6.063,2.046v.8h-6.161v-.8h2.783V86.08h-2.355v-.792h2.355V81.8h.814v3.487h2.343v.792h-2.343v4.565Z"></path></g></g></svg>