<svg xmlns="http://www.w3.org/2000/svg" width="183.257" height="91.768" viewBox="0 0 183.257 91.768"><defs><style>.cls-1{fill:#fff;}.cls-2{fill:none;stroke:#fff;stroke-miterlimit:10;}</style></defs><g id="&#x30EC;&#x30A4;&#x30E4;&#x30FC;_2" data-name="&#x30EC;&#x30A4;&#x30E4;&#x30FC; 2"><g id="&#x30EC;&#x30A4;&#x30E4;&#x30FC;_1-2" data-name="&#x30EC;&#x30A4;&#x30E4;&#x30FC; 1"><path class="cls-1" d="M27.817,17.57l.616-.694a3.127,3.127,0,0,0,2.223,1c1.057,0,1.694-.528,1.694-1.32,0-.825-.583-1.089-1.341-1.43l-1.167-.507A2.276,2.276,0,0,1,28.2,12.552a2.3,2.3,0,0,1,2.541-2.145,3.309,3.309,0,0,1,2.377,1l-.539.649a2.615,2.615,0,0,0-1.838-.759c-.913,0-1.507.462-1.507,1.189,0,.781.7,1.078,1.331,1.341l1.155.5a2.248,2.248,0,0,1,1.662,2.157c0,1.276-1.057,2.288-2.74,2.288A3.858,3.858,0,0,1,27.817,17.57Z"></path><path class="cls-1" d="M34.67,18.009a.728.728,0,1,1,1.452,0,.727.727,0,1,1-1.452,0Z"></path><path class="cls-1" d="M38.025,10.55h1.023v8.075H38.025Z"></path><path class="cls-1" d="M40.95,18.009a.728.728,0,1,1,1.452,0,.727.727,0,1,1-1.452,0Z"></path><path class="cls-1" d="M50.037,13.839l-.881.495a29.659,29.659,0,0,0-1.837-3.179l.869-.44C48.673,11.43,49.64,13.124,50.037,13.839Zm2.706,1.232a9.069,9.069,0,0,0,1.375-3.585,4.79,4.79,0,0,0,.088-.9l1.1.155c-.087.285-.175.67-.22.869a11.289,11.289,0,0,1-1.507,3.926,9.153,9.153,0,0,1-3.9,3.389l-.825-.693A8.448,8.448,0,0,0,52.743,15.071Z"></path><path class="cls-1" d="M60.344,11.155v3.674c0,.276.021.639.043.837H59.375a7.209,7.209,0,0,0,.055-.847V11.155c0-.2-.022-.583-.043-.792h1C60.365,10.572,60.344,10.891,60.344,11.155Zm5.115.077v1.783c0,2.639-.363,3.509-1.155,4.455a5.873,5.873,0,0,1-2.619,1.606l-.714-.758A5.048,5.048,0,0,0,63.6,16.854c.782-.913.913-1.8.913-3.884V11.232a7.911,7.911,0,0,0-.054-.957h1.034C65.471,10.55,65.459,10.858,65.459,11.232Z"></path><path class="cls-1" d="M75.986,13.73c-.088.748-.407,2.925-.561,3.938H76.5c.242,0,.638-.011.869-.033v.892c-.2-.012-.605-.023-.836-.023H70.508c-.342,0-.595.011-.913.033v-.913c.263.022.583.044.913.044H74.49c.165-.924.483-3.069.517-3.7h-3.5c-.32,0-.606.021-.88.032V13.08a7.475,7.475,0,0,0,.869.067h3.344a1.923,1.923,0,0,0,.55-.077l.671.319A2.416,2.416,0,0,0,75.986,13.73Z"></path><path class="cls-1" d="M81.606,13.916h6.03c.549,0,.945-.032,1.187-.054V14.94c-.22-.011-.682-.055-1.177-.055h-6.04c-.6,0-1.188.021-1.529.055V13.862C80.407,13.884,80.99,13.916,81.606,13.916Z"></path><path class="cls-1" d="M94.025,14.137l-.506.769a24.107,24.107,0,0,0-2.4-1.506l.484-.748C92.255,13,93.542,13.784,94.025,14.137ZM95.3,16.755a11.227,11.227,0,0,0,4.169-4.026l.529.9a12.837,12.837,0,0,1-4.225,3.94,13.729,13.729,0,0,1-3.653,1.363l-.506-.891A11.7,11.7,0,0,0,95.3,16.755Zm.352-5.028-.517.749c-.529-.4-1.716-1.189-2.366-1.563l.5-.737C93.916,10.539,95.18,11.375,95.654,11.727Z"></path><path class="cls-1" d="M104.53,12.629h4.258c.242,0,.528-.011.671-.021-.011.121-.011.351-.011.56v5.48c0,.175.011.439.023.593h-.87c.011-.1.011-.263.011-.44h-4.423c-.351,0-.737.022-.913.022v-.879a8.653,8.653,0,0,0,.9.044h4.433V16.029H104.64c-.384,0-.77.011-.99.022V15.2c.209.012.606.034.98.034h3.982V13.41H104.53c-.286,0-.924.023-1.122.034v-.859C103.617,12.608,104.244,12.629,104.53,12.629Z"></path><path class="cls-1" d="M117.907,16.325a10.36,10.36,0,0,0,3.674-4.047l.528.934a10.985,10.985,0,0,1-3.7,3.917,12.065,12.065,0,0,1-4.323,1.7l-.584-.9A11.353,11.353,0,0,0,117.907,16.325Zm-.649-3.487-.694.693a22.845,22.845,0,0,0-2.739-2.3l.627-.671A24.183,24.183,0,0,1,117.258,12.838Z"></path><path class="cls-1" d="M133.418,16.348h-1.134V18.3h-.813v-.5H128.83v.759c0,.507-.154.693-.484.814a6.576,6.576,0,0,1-1.827.132,2.656,2.656,0,0,0-.286-.692c.66.021,1.321.01,1.508.01.209-.01.274-.077.274-.264V17.8h-3.553v-.627h3.553v-.825h-4.5V15.7h4.5v-.769h-3.454v-.606h3.454v-.769h-3.146V11.617h3.146v-.638h-4.29v-.671h4.29v-.88h.815v.88h4.379v.671H128.83v.638h3.278v1.937H128.83v.769h3.454V15.7h1.134Zm-5.4-3.366V12.19H125.65v.792Zm.815-.792v.792h2.464V12.19Zm0,3.508h2.641v-.769H128.83Zm2.641.65H128.83v.825h2.641Z"></path><path class="cls-1" d="M140.6,16.854a10.075,10.075,0,0,0,3.928,1.738,2.977,2.977,0,0,0-.55.727,10.386,10.386,0,0,1-4.136-2.256v2.4h-.8V17.118a11.066,11.066,0,0,1-4.1,2.167,3.5,3.5,0,0,0-.528-.693,10.606,10.606,0,0,0,3.884-1.738h-3.6v-.693h4.346v-.814h-3.312V14.72h3.312v-.8h-3.862v-.671h2.4a4.575,4.575,0,0,0-.539-1.1l.386-.077h-2.685v-.7h1.749a8.574,8.574,0,0,0-.869-1.6l.693-.231a7.582,7.582,0,0,1,.935,1.617l-.561.209h1.354V9.417h.759v1.947H140.1V9.417h.771v1.947h1.331l-.407-.132a12.607,12.607,0,0,0,.837-1.672l.835.219a15.3,15.3,0,0,1-.968,1.585h1.706v.705h-2.2c-.22.418-.462.846-.682,1.176h2.5v.671h-3.982v.8h3.443v.627h-3.443v.814h4.412v.693Zm-2.739-4.785a4.643,4.643,0,0,1,.551,1.1l-.353.077h2.586l-.11-.033a9.958,9.958,0,0,0,.561-1.143Z"></path><path class="cls-1" d="M145.45,13.653H151.1V14.4H145.45Zm5.5-2.3h-5.215v-.715h2.2V9.461h.782v1.177h2.233Zm-4.764,4.005h4.3v4.048H149.7v-.583h-2.75v.649h-.759Zm.7-1.837a7.6,7.6,0,0,0-.484-1.783l.683-.143a6.547,6.547,0,0,1,.506,1.761Zm.055,2.563v2.025h2.75V16.084Zm1.991-2.695a14.9,14.9,0,0,0,.617-1.871l.77.187c-.231.638-.5,1.365-.727,1.849Zm6.569-2.971c-.452,1.034-1.013,2.3-1.53,3.3a3.556,3.556,0,0,1,1.386,2.662,1.6,1.6,0,0,1-.539,1.43,1.564,1.564,0,0,1-.715.242,6.785,6.785,0,0,1-.957.022,1.9,1.9,0,0,0-.231-.814,6.068,6.068,0,0,0,.869.022,1.111,1.111,0,0,0,.473-.121c.231-.143.3-.473.3-.869a3.275,3.275,0,0,0-1.419-2.465c.452-.924.935-2.112,1.276-2.992h-2.079v8.625h-.792V10.066h3.234l.132-.033Z"></path><rect class="cls-2" x="0.5" y="0.5" width="182.257" height="27.67"></rect><path class="cls-1" d="M60.3,50.892v1.841h5.811v8.708c0,.784-.192,1.184-.736,1.392a8.379,8.379,0,0,1-2.722.24,4.214,4.214,0,0,0-.5-1.313c.929.032,1.873.017,2.129.017.272-.017.352-.1.352-.353v-7.3H60.3v8.852H58.847V54.125H54.654v9.028H53.229V52.733h5.618V50.892H52.509V49.436H66.755v1.456Zm-4.5,7.059c.88.577,2.114,1.392,2.721,1.889l-.9.944a29.886,29.886,0,0,0-2.7-2Zm.113-3.073c.847.512,2.049,1.248,2.657,1.712l-.881.929c-.576-.464-1.776-1.265-2.625-1.809Zm7.427,5.842c-.641-.512-1.906-1.377-2.85-1.969l.849-.848c.928.56,2.209,1.361,2.865,1.857Zm.112-3.217c-.593-.448-1.841-1.249-2.737-1.793l.832-.848c.88.512,2.128,1.232,2.769,1.68Z"></path><path class="cls-1" d="M82.371,49.9v3.761H80.85v-2.4H70.4v2.4H68.941V49.9h5.826V48.459h1.57V49.9Zm-5.939,6.738c-.112.417-.208.849-.3,1.233h4.963v5.2H79.538V62.5H71.9v.625H70.414v-5.25h4.241c.049-.4.1-.833.129-1.233H71.5V52.429h8.243v4.209Zm3.106,2.514H71.9V61.2h7.636Zm-6.627-3.73h5.346V53.629H72.911Z"></path><path class="cls-1" d="M103.358,59.279c.513-.127,1.072-.288,1.6-.448l.192,1.345c-1.569.48-3.218.96-4.53,1.328l-.3-1.425c.5-.111,1.057-.239,1.681-.416V55.422h-1.473V54.045H102V50.86h-1.6V49.484h4.562V50.86h-1.6v3.185h1.28v1.377h-1.28Zm7.363-3.889c-.144.464-.288.912-.432,1.328h4.338v5.026c0,.561-.1.945-.464,1.169a2.688,2.688,0,0,1-1.5.288,4,4,0,0,0-.464-1.329c.416.017.768.017.9.017.143-.017.175-.049.175-.193V57.983h-1.28v5.074h-1.217V57.983h-1.264v5.074h-1.217V57.983H107.1v5.186H105.76V56.718h3.169a12.488,12.488,0,0,0,.288-1.328h-3.955V54.062H114.9V55.39Zm3.618-2.385H105.92V49.148h1.343v2.56h2.1V48.475h1.377v3.233h2.193v-2.56h1.409Z"></path><path class="cls-1" d="M122.912,54.749h-6.355V53.341h2.257v-3.7h1.5v3.7h2.594V48.475h1.52v1.7h4.77v1.36h-4.77v1.809h6.307v1.408H124.4v3.362c0,.72-.143,1.088-.7,1.312a8,8,0,0,1-2.545.225,5.025,5.025,0,0,0-.465-1.361c.833.033,1.7.033,1.921.016.24,0,.305-.048.305-.24ZM121.2,55.6a14.436,14.436,0,0,1-3.249,3.666,10.541,10.541,0,0,0-1.345-.944,10.608,10.608,0,0,0,3.057-3.2Zm7.026,2.209c-1.423,3.506-4.546,4.866-9.683,5.49a3.9,3.9,0,0,0-.7-1.44c4.738-.4,7.619-1.521,8.867-4.5Zm-.624-2.721a17.319,17.319,0,0,1,3.154,3.329l-1.281.864a17.082,17.082,0,0,0-3.088-3.441Z"></path><path class="cls-1" d="M62.027,90.327c2.365-2.354,3.7-3.762,3.7-5.049a1.382,1.382,0,0,0-1.485-1.53,2.293,2.293,0,0,0-1.672.935l-.583-.561a3.084,3.084,0,0,1,2.376-1.188,2.172,2.172,0,0,1,2.344,2.3c0,1.473-1.343,2.937-3.2,4.9.418-.033.9-.077,1.32-.077H67.1v.869H62.027Z"></path><path class="cls-1" d="M68.186,86.972c0-2.63.957-4.038,2.52-4.038s2.508,1.419,2.508,4.038-.946,4.092-2.508,4.092S68.186,89.6,68.186,86.972Zm4.049,0c0-2.3-.616-3.234-1.529-3.234s-1.54.934-1.54,3.234.616,3.289,1.54,3.289S72.235,89.271,72.235,86.972Z"></path><path class="cls-1" d="M74.72,90.085h1.793V84.3h-1.43v-.649a4.658,4.658,0,0,0,1.673-.572h.769v7.008h1.617v.836H74.72Z"></path><path class="cls-1" d="M80.351,88.919A2.5,2.5,0,0,1,81.837,86.8v-.044a2.188,2.188,0,0,1-1.089-1.815,2.218,2.218,0,0,1,4.422.077,2.583,2.583,0,0,1-1.078,1.892v.055a2.3,2.3,0,0,1,1.364,2.014,2.255,2.255,0,0,1-2.53,2.09A2.313,2.313,0,0,1,80.351,88.919Zm4.148.032c0-1.022-.99-1.385-2.134-1.837a2.086,2.086,0,0,0-1.1,1.717,1.547,1.547,0,0,0,1.684,1.485A1.4,1.4,0,0,0,84.5,88.951Zm-.187-3.882a1.3,1.3,0,0,0-1.364-1.387,1.21,1.21,0,0,0-1.287,1.254c0,.946.869,1.343,1.814,1.717A2.137,2.137,0,0,0,84.312,85.069Z"></path><path class="cls-1" d="M99.162,89.249H95.179v2.519h-.825V89.249H89.272v-.792h1.8V85.508h3.278V83.836H91.681A10.163,10.163,0,0,1,90.009,86a4.991,4.991,0,0,0-.7-.516,9.311,9.311,0,0,0,2.476-3.8l.825.2c-.154.385-.33.781-.506,1.155h6.557v.792H95.179v1.672H98.4v.771H95.179v2.178h3.983Zm-4.808-.792V86.279H91.89v2.178Z"></path><path class="cls-1" d="M105.74,82.384a9.417,9.417,0,0,0,4.565,8.658,3.922,3.922,0,0,0-.66.682,9.494,9.494,0,0,1-4.368-6.128,9.723,9.723,0,0,1-4.39,6.14,5.29,5.29,0,0,0-.736-.65c2.431-1.265,3.784-3.476,4.455-6.557l.485.078c-.078-.507-.121-.991-.144-1.409h-2.706v-.814Z"></path><path class="cls-1" d="M115.276,88.6c-.286-.32-.89-.936-1.386-1.4v4.555h-.8V87.488a10.334,10.334,0,0,1-1.683,1.375,3.62,3.62,0,0,0-.43-.736,9.549,9.549,0,0,0,3.445-3.609H111.36V83.77h1.727V81.724h.8V83.77h.957l.143-.032.462.307a9.909,9.909,0,0,1-1.43,2.4c.517.407,1.486,1.253,1.76,1.5Zm6.063,2.046v.8h-6.161v-.8h2.783V86.08h-2.355v-.792h2.355V81.8h.814v3.487h2.343v.792h-2.343v4.566Z"></path></g></g></svg>