<svg xmlns="http://www.w3.org/2000/svg" width="530.482" height="382.366" viewBox="0 0 530.482 382.366"><defs><style>.cls-1{fill:#32aadd;}.cls-2{fill:#fff;stroke:#32aadd;stroke-linejoin:round;stroke-width:3.465px;}.cls-3{fill:#333;}</style></defs><g id="&#x30EC;&#x30A4;&#x30E4;&#x30FC;_2" data-name="&#x30EC;&#x30A4;&#x30E4;&#x30FC; 2"><g id="&#x30EC;&#x30A4;&#x30E4;&#x30FC;_1-2" data-name="&#x30EC;&#x30A4;&#x30E4;&#x30FC; 1"><path class="cls-1" d="M392.611,382.366c76.144,0,137.871-68.854,137.871-153.79S478.756,64.785,402.612,64.785c-4.016,0-7.8.942-11.726,1.318-25.186-36.868-74.56-51.04-119.32-51.04S177.43,29.235,152.244,66.1c-3.929-.376-7.71-1.318-11.726-1.318-76.145,0-127.87,78.856-127.87,163.791s61.726,153.79,137.87,153.79Z"></path><path class="cls-2" d="M381.7,369.036c76.144,0,137.87-68.854,137.87-153.79S467.841,51.455,391.7,51.455c-4.016,0-7.8.942-11.726,1.317C354.784,15.9,305.41,1.733,260.65,1.733S166.514,15.9,141.329,52.772c-3.929-.375-7.71-1.317-11.727-1.317-76.143,0-127.869,78.856-127.869,163.791s61.726,153.79,137.87,153.79Z"></path><path class="cls-3" d="M93.846,147.557H92.677v-2.369H81.713v2.369H80.577v-3.409h2.561a9.908,9.908,0,0,0-1.249-1.89l1.056-.431a9.454,9.454,0,0,1,1.361,1.873l-.992.448h3.345v-2.481h1.2v2.481h5.987Zm-.976,6.786c0,.625-.129.945-.625,1.122a8.372,8.372,0,0,1-2.529.191,4.759,4.759,0,0,0-.416-1.088c.96.032,1.809.032,2.049.016s.32-.064.32-.256v-2.241H87.956v4.21h-1.2v-4.21H82.8v3.49H81.617V151h5.138v-1.313H83.042v-3.361H91.4v3.361H87.956V151H92.87Zm-8.692-5.553h6.035v-1.569H84.178Zm8.371-6.563a22.049,22.049,0,0,1-1.6,1.921l-.961-.4a12.738,12.738,0,0,0,1.329-1.953Z"></path><path class="cls-3" d="M100.722,145.3h-4.9v-.976h4.9Zm-.368,10.052H97.377v.752h-.945v-5.361h3.922Zm-.016-7.923H96.481v-.944h3.857ZM96.481,148.6h3.857v.961H96.481Zm3.825-5.41H96.545v-.96h3.761Zm-2.929,8.531v2.674h2v-2.674Zm12.5-2.464a13.248,13.248,0,0,1-1.761,3.681c.288,1.313.688,2.065,1.233,2.113.272.016.464-.816.56-2.128a3.829,3.829,0,0,0,.768.624c-.288,2.192-.816,2.817-1.36,2.8-.945-.047-1.569-.9-1.985-2.384a11.5,11.5,0,0,1-2.609,2.256,4.356,4.356,0,0,0-.673-.671,9.256,9.256,0,0,0,1.585-1.185h-3.345v.864h-.945v-6.162h4.386v5.2a10.984,10.984,0,0,0,1.345-1.5,37.7,37.7,0,0,1-.432-4.69H100.5v-.992h6.1c-.049-1.633-.065-3.426-.08-5.378h1.04c-.016,1.969,0,3.777.048,5.378h2.7v.992h-2.673c.048,1.281.128,2.434.256,3.394a13.479,13.479,0,0,0,1.072-2.69Zm-3.746-4.9h-5.2v-.944h2.081v-1.73h1.105v1.73h2.016Zm-4.113,2.657a8.182,8.182,0,0,0-.449-2.321l.865-.192a8.073,8.073,0,0,1,.5,2.3Zm.272,2.929v1.313h2.433v-1.313Zm2.433,3.537v-1.36h-2.433v1.36Zm-.72-6.642a16.641,16.641,0,0,0,.544-2.417l1.024.208c-.256.833-.5,1.793-.72,2.4Zm5.474-1.185a9.9,9.9,0,0,0-1.585-2.865l.9-.368a10.228,10.228,0,0,1,1.664,2.8Z"></path><path class="cls-3" d="M115.106,144.1a37.08,37.08,0,0,0-.8,6.131,17.564,17.564,0,0,0,.144,2.241c.272-.72.657-1.68.929-2.337l.672.512a32.671,32.671,0,0,0-1.136,3.586,3.035,3.035,0,0,0-.08.72c.015.177.031.4.047.56l-1.152.08a20.157,20.157,0,0,1-.592-5.138,45.02,45.02,0,0,1,.72-6.418,7,7,0,0,0,.112-1.137l1.425.128C115.314,143.3,115.17,143.811,115.106,144.1Zm3.729,8.148c0,.736.528,1.44,2.705,1.44a17.662,17.662,0,0,0,3.97-.416l.032,1.345a21.707,21.707,0,0,1-4,.336c-2.689,0-3.889-.9-3.889-2.4a8.642,8.642,0,0,1,.271-1.888l1.153.111A5.6,5.6,0,0,0,118.835,152.247Zm6.194-8v1.3a37.828,37.828,0,0,1-6.578,0v-1.282A27.341,27.341,0,0,0,125.029,144.244Z"></path><path class="cls-3" d="M134.227,147.365c1.5-.912,3.233-1.761,4.113-2.241a8.687,8.687,0,0,0,1.137-.752l.7,1.136c-.368.224-.768.432-1.232.672a53.344,53.344,0,0,0-4.866,2.658c-1.489.96-2.385,2.016-2.385,3.233,0,1.328,1.265,2.161,3.793,2.161a23.815,23.815,0,0,0,5.122-.545v1.425a31.515,31.515,0,0,1-5.058.4c-3.009,0-5.186-.9-5.186-3.3,0-1.649,1.057-2.945,2.769-4.146a53.677,53.677,0,0,1-2.32-4.93l1.264-.528A34.484,34.484,0,0,0,134.227,147.365Z"></path><path class="cls-3" d="M147.49,149.926a7.684,7.684,0,0,1,5.218-1.953c2.449,0,4.082,1.473,4.082,3.346,0,2.865-2.53,4.8-8.484,4.306l-.384-1.313c5.058.624,7.523-.833,7.523-3.025,0-1.281-1.185-2.194-2.817-2.194a6.272,6.272,0,0,0-4.962,2.146,2.516,2.516,0,0,0-.48.8L146,151.751a57.39,57.39,0,0,0,.817-6.5l1.344.175C147.938,146.516,147.666,148.9,147.49,149.926Zm7.219-6.178-.305,1.232c-1.52-.208-4.994-.912-6.21-1.249l.32-1.216A43.747,43.747,0,0,0,154.709,143.748Z"></path><path class="cls-3" d="M163.778,142.355l1.5.048c-.08.4-.208,1.3-.319,2.417.031-.016.047-.016.08-.032l.48.56c-.208.288-.48.72-.721,1.12-.032.336-.064.689-.08,1.041a8.089,8.089,0,0,1,5.106-2.017,4.045,4.045,0,0,1,4.194,4.05c.016,3.217-2.337,4.9-5.827,5.57l-.592-1.2c2.706-.384,5.138-1.649,5.122-4.4a2.926,2.926,0,0,0-3.089-2.848,7.465,7.465,0,0,0-5.01,2.289c-.032.672-.048,1.312-.048,1.889,0,1.456-.016,2.432.064,3.857.016.288.048.688.08.977H163.33a9.175,9.175,0,0,0,.048-.945c.016-1.537.016-2.353.048-4.1,0-.161.016-.385.016-.641-.785,1.184-1.841,2.7-2.609,3.794l-.8-1.1c.9-1.121,2.738-3.617,3.538-4.881.032-.513.064-1.042.112-1.553-.737.095-2.129.288-3.137.431l-.128-1.328c.352.016.656,0,1.04-.015.528-.033,1.472-.145,2.305-.273.048-.753.08-1.345.08-1.52A7.659,7.659,0,0,0,163.778,142.355Z"></path><path class="cls-3" d="M179.778,142.355l1.5.048c-.08.4-.208,1.3-.319,2.417.031-.016.063-.016.095-.032l.465.56c-.208.288-.48.72-.721,1.12-.032.305-.048.609-.08.929,1.249-1.152,3.314-2.7,4.93-2.7a1.986,1.986,0,0,1,2.225,2.145c0,1.6-.592,4.353-.592,5.986,0,.528.256.976.832.976a3.538,3.538,0,0,0,2.417-1.328l.208,1.376a4.148,4.148,0,0,1-2.945,1.329c-1.056,0-1.777-.688-1.777-2.016,0-1.778.609-4.4.609-5.971a1.15,1.15,0,0,0-1.3-1.312c-1.3,0-3.233,1.5-4.706,3.073-.032.672-.048,1.312-.048,1.889,0,1.456-.016,2.432.064,3.857.016.288.048.688.08.977H179.33c.031-.289.048-.689.048-.945.016-1.537.016-2.353.048-4.1,0-.161.016-.385.016-.641-.785,1.184-1.841,2.7-2.609,3.794l-.817-1.1c.9-1.121,2.754-3.617,3.554-4.866.032-.528.08-1.072.112-1.585-.72.1-2.129.288-3.137.433l-.128-1.313c.352.016.656,0,1.04-.015.528-.033,1.472-.129,2.305-.273.048-.753.08-1.345.08-1.52A7.659,7.659,0,0,0,179.778,142.355Z"></path><path class="cls-3" d="M200.644,143.572c0,.239-.016.607-.016,1.04h.24c1.969,0,3.937.016,4.69.016l-.016,1.2c-.9-.049-2.337-.1-4.69-.1h-.224c0,.913.016,1.889.032,2.642a3.889,3.889,0,0,1,.512,2.049c0,2.176-1.056,4.577-4.77,5.681l-1.072-1.056c2.113-.48,3.6-1.376,4.258-2.833a2.34,2.34,0,0,1-1.409.432,2.552,2.552,0,0,1-2.641-2.673,2.8,2.8,0,0,1,2.833-2.785,3.2,3.2,0,0,1,1.072.176c0-.481-.016-1.057-.016-1.616-2.449.031-5.154.143-7.154.288l-.049-1.249c1.793-.032,4.8-.128,7.187-.16-.016-.449-.016-.832-.031-1.056-.033-.417-.081-.881-.113-1.009h1.457C200.708,142.739,200.66,143.38,200.644,143.572Zm-2.273,7.971c.928,0,1.552-.752,1.425-2.257a1.471,1.471,0,0,0-1.441-1.025,1.632,1.632,0,0,0-1.617,1.7A1.55,1.55,0,0,0,198.371,151.543Zm5.762-7.364-.912.4a18.18,18.18,0,0,0-1.169-1.969l.881-.368A19.76,19.76,0,0,1,204.133,144.179Zm1.953-.431-.913.4a12.663,12.663,0,0,0-1.184-1.937l.9-.384C205.254,142.371,205.75,143.124,206.086,143.748Z"></path><path class="cls-3" d="M207.984,152.391l1.041-.912a30.048,30.048,0,0,1,3.585,3.553l-1.088.929A26.627,26.627,0,0,0,207.984,152.391Z"></path><path class="cls-3" d="M229.859,145.076a21.321,21.321,0,0,1-1.489,6.979,11.245,11.245,0,0,1,1.825,1.7l-.72.944a12.062,12.062,0,0,0-1.633-1.6,8.5,8.5,0,0,1-3.073,3.217,4.652,4.652,0,0,0-.737-.96,7.029,7.029,0,0,0,2.9-2.977c-.528-.4-1.088-.785-1.648-1.136l-.176.672-.993-.512c.385-1.377.865-3.346,1.313-5.347H223.9v-1.087h1.745c.256-1.154.48-2.29.656-3.283l1.137.129c-.192.976-.416,2.049-.657,3.154h2.161l.208-.049Zm-3.313.976c-.321,1.425-.657,2.85-.977,4.114.608.352,1.249.753,1.857,1.184a18.314,18.314,0,0,0,1.232-5.3Zm11.972,3.138h-3.809v5.586c0,.721-.161,1.072-.673,1.265a9.159,9.159,0,0,1-2.593.208A4.6,4.6,0,0,0,231,155.1c1.009.033,1.905.033,2.177.016s.352-.1.352-.336V149.19h-3.746v-1.1h3.746v-2.129h.481a15.322,15.322,0,0,0,2.288-2.369h-5.986V142.5h6.851l.24-.08.784.576a18.431,18.431,0,0,1-3.473,3.666v1.425h3.809Z"></path><path class="cls-3" d="M254.294,149.046h-2.209v5.794c0,.737-.176,1.073-.752,1.264a12.687,12.687,0,0,1-3.041.193,4.773,4.773,0,0,0-.449-1.137c1.217.049,2.322.032,2.641.032.321-.032.4-.1.4-.368v-5.778H240.048v-1.088h14.246Zm-1.889-1.233a56.3,56.3,0,0,0-5.65-2.352c-.96,1.232-2.625,1.984-5.618,2.384a3.9,3.9,0,0,0-.545-.928c3.378-.416,4.867-1.233,5.555-2.705h-5.3v-1.057h5.65a12.21,12.21,0,0,0,.224-1.488h1.217a12.492,12.492,0,0,1-.225,1.488h5.795v1.057h-6.083c-.047.128-.1.255-.144.368,2.033.688,4.53,1.7,5.987,2.385Zm-9.571,6.643V155.5H241.7v-5.171h6.354v4.13Zm0-3.154v2.177H246.9V151.3Z"></path><path class="cls-3" d="M258.546,147.621c-.257,2.145-.753,4.658-1.89,6.195l-1.072-.656a12.081,12.081,0,0,0,1.809-5.763Zm2.72-1.521v8c0,.736.177.88,1.057.88h2.945c.961,0,1.105-.576,1.233-3.346a2.958,2.958,0,0,0,1.1.545c-.16,3.009-.544,3.89-2.273,3.89h-3.105c-1.7,0-2.161-.433-2.161-1.985V146.1Zm-.336-4.353a27.258,27.258,0,0,1,5.474,2.64l-.752,1.041a24.271,24.271,0,0,0-5.474-2.769Zm6.787,5.122a16.926,16.926,0,0,1,3.009,5.906l-1.168.561a17.737,17.737,0,0,0-2.882-5.939Z"></path><path class="cls-3" d="M273.553,153.239v1.233h-1.105V142.851h4.5v10.388Zm0-9.3v3.489h2.289V143.94Zm2.289,8.211V148.5h-2.289v3.649Zm10.612,2.337v1.137h-9.62v-1.137h4.354v-5.026h-3.217v-1.153h3.217v-4.4H277.6v-1.152h8.611v1.152h-3.841v4.4h3.441v1.153h-3.441v5.026Z"></path><path class="cls-3" d="M290.465,146.853a8.292,8.292,0,0,1-1.585,4.337,3.718,3.718,0,0,0-.976-.736,8,8,0,0,0,1.473-5.121v-1.906h5.954a12.429,12.429,0,0,1-.208-1.728h1.169a12.143,12.143,0,0,0,.208,1.728h2.561a8.71,8.71,0,0,0-1.553-1.28l.816-.513a9.949,9.949,0,0,1,1.777,1.41l-.576.383h2.481v1.04h-5.3a13.035,13.035,0,0,0,1.184,2.9,10.07,10.07,0,0,0,1.985-2.481l1.072.336a12.418,12.418,0,0,1-2.448,3.026,2.947,2.947,0,0,0,2.145,1.328c.416,0,.592-.5.672-1.889a3,3,0,0,0,.96.529c-.192,1.968-.624,2.5-1.7,2.5A3.98,3.98,0,0,1,297.6,149a16.851,16.851,0,0,1-2.417,1.52,6.813,6.813,0,0,0-.8-.88,13.542,13.542,0,0,0,2.593-1.521,12.756,12.756,0,0,1-1.456-3.65h-4.978v.881c0,.176,0,.352-.017.544h3.938s-.016.288-.032.433c-.1,2.08-.224,2.929-.528,3.249a1.147,1.147,0,0,1-.864.368,14.874,14.874,0,0,1-1.665-.016,2.7,2.7,0,0,0-.272-.928,14.08,14.08,0,0,0,1.424.064c.208,0,.352-.016.448-.129.16-.176.24-.719.32-2.08Zm11.845,8.019v1.089H287.968v-1.089h1.969v-3.841h10.532v3.841Zm-11.252,0h2v-2.866h-2Zm3.089-2.866v2.866h2.017v-2.866Zm3.121,0v2.866H299.3v-2.866Z"></path><path class="cls-3" d="M305.841,144.452c1.04-.112,4.066-.416,7.011-.656,1.745-.145,3.249-.241,4.321-.289v1.281a13.415,13.415,0,0,0-3.137.256,5.634,5.634,0,0,0-3.665,5.074c0,3.121,2.913,4.114,5.522,4.21l-.464,1.328c-2.961-.111-6.339-1.7-6.339-5.266a6.5,6.5,0,0,1,2.994-5.41c-1.713.193-5.8.576-7.523.944l-.144-1.392C305.025,144.516,305.537,144.484,305.841,144.452Zm10.34,4.53-.816.384a14.82,14.82,0,0,0-1.313-2.257l.817-.353A19.024,19.024,0,0,1,316.181,148.982Zm1.825-.688-.833.4a14.709,14.709,0,0,0-1.344-2.241l.784-.368A20.986,20.986,0,0,1,318.006,148.294Z"></path><path class="cls-3" d="M326.515,143.107c-.064.336-.128.753-.192,1.217a31.9,31.9,0,0,0,5.618-.689l.016,1.185a50.742,50.742,0,0,1-5.762.608c-.08.624-.128,1.3-.176,1.969a10.238,10.238,0,0,1,2.689-.4c.208,0,.4,0,.592.016.016-.048.032-.1.048-.16a4.329,4.329,0,0,0,.176-.929l1.265.321c-.1.223-.241.656-.321.912,0,.016-.015.032-.015.064a3.913,3.913,0,0,1,3.185,3.761c0,2.306-1.521,4.29-5.234,4.883l-.689-1.073c2.9-.3,4.69-1.792,4.69-3.873a2.894,2.894,0,0,0-2.3-2.738,13.315,13.315,0,0,1-3.569,5.2q.192.7.384,1.3l-1.152.352c-.1-.272-.176-.576-.257-.9a5.5,5.5,0,0,1-2.721.881A1.809,1.809,0,0,1,320.9,153c0-2.066,1.793-4.162,4-5.187.032-.8.112-1.6.176-2.352-.336.015-.656.015-.976.015-.688,0-1.937-.064-2.593-.112l-.032-1.2a22.325,22.325,0,0,0,2.641.208c.368,0,.72,0,1.088-.016.049-.465.1-.881.129-1.232a6.958,6.958,0,0,0,.031-.769l1.345.032A5.288,5.288,0,0,0,326.515,143.107Zm-3.489,10.677a4.011,4.011,0,0,0,2.208-.849,19.429,19.429,0,0,1-.384-3.634v-.288c-1.553.881-2.737,2.466-2.737,3.779C322.113,153.448,322.417,153.784,323.026,153.784Zm3.217-1.681a10.62,10.62,0,0,0,2.721-4.1h-.272a7.848,7.848,0,0,0-2.7.511c-.016.225-.016.433-.016.656A17.185,17.185,0,0,0,326.243,152.1Z"></path><path class="cls-3" d="M339.778,142.355l1.5.048c-.08.4-.208,1.3-.319,2.417.031-.016.063-.016.095-.032l.465.56c-.208.288-.48.72-.721,1.12-.032.305-.048.609-.08.929,1.249-1.152,3.314-2.7,4.93-2.7a1.986,1.986,0,0,1,2.225,2.145c0,1.6-.592,4.353-.592,5.986,0,.528.256.976.832.976a3.538,3.538,0,0,0,2.417-1.328l.208,1.376a4.148,4.148,0,0,1-2.945,1.329c-1.056,0-1.777-.688-1.777-2.016,0-1.778.609-4.4.609-5.971a1.15,1.15,0,0,0-1.3-1.312c-1.3,0-3.233,1.5-4.706,3.073-.032.672-.048,1.312-.048,1.889,0,1.456-.016,2.432.064,3.857.016.288.048.688.08.977H339.33c.031-.289.048-.689.048-.945.016-1.537.016-2.353.048-4.1,0-.161.016-.385.016-.641-.785,1.184-1.841,2.7-2.609,3.794l-.817-1.1c.9-1.121,2.754-3.617,3.554-4.866.032-.528.08-1.072.112-1.585-.72.1-2.129.288-3.137.433l-.128-1.313c.352.016.656,0,1.04-.015.528-.033,1.472-.129,2.305-.273.048-.753.08-1.345.08-1.52A7.659,7.659,0,0,0,339.778,142.355Z"></path><path class="cls-3" d="M354.577,144.084a39.907,39.907,0,0,0-.8,6.45,15.072,15.072,0,0,0,.16,2.241c.256-.736.64-1.713.912-2.352l.656.511c-.383,1.1-.976,2.753-1.152,3.538a3.875,3.875,0,0,0-.064.72c.016.145.032.385.048.561l-1.12.08a19.49,19.49,0,0,1-.608-5.075,49.537,49.537,0,0,1,.736-6.722,9.6,9.6,0,0,0,.1-1.153l1.408.128A8.47,8.47,0,0,0,354.577,144.084Zm8.068-.208c-.016.431-.033,1.184-.033,1.936a27.059,27.059,0,0,0,2.77-.368v1.232c-.88.145-1.809.241-2.77.305.017,1.616.129,3.217.193,4.562a10.464,10.464,0,0,1,3.153,2.064l-.688,1.073a13.062,13.062,0,0,0-2.417-1.857v.32c0,1.313-.609,2.61-2.769,2.61-2.145,0-3.314-.881-3.314-2.322,0-1.328,1.185-2.4,3.281-2.4a7.414,7.414,0,0,1,1.489.143c-.048-1.232-.144-2.8-.16-4.129-.512.016-1.024.032-1.537.032-.912,0-1.744-.032-2.689-.1v-1.2c.913.08,1.777.129,2.7.129.513,0,1.009-.017,1.521-.032v-1.986c0-.271-.032-.7-.064-.992h1.44A7.168,7.168,0,0,0,362.645,143.876Zm-2.786,10.692c1.345,0,1.745-.673,1.745-1.745,0-.16,0-.336-.016-.544a5.079,5.079,0,0,0-1.648-.256c-1.185,0-2.033.512-2.033,1.3C357.907,154.135,358.707,154.568,359.859,154.568Zm5.219-9.956-.817.288a24.144,24.144,0,0,0-.912-2.273l.784-.24A22.971,22.971,0,0,1,365.078,144.612Zm1.632-.513-.816.288a17.677,17.677,0,0,0-.945-2.24l.785-.256C366.038,142.483,366.47,143.46,366.71,144.1Z"></path><path class="cls-3" d="M87.619,169.651a20.329,20.329,0,0,0,6.947,5.906,5.284,5.284,0,0,0-.784,1.057,23.768,23.768,0,0,1-6.691-5.8,21.356,21.356,0,0,1-6.546,5.875,4.881,4.881,0,0,0-.737-.945,19.091,19.091,0,0,0,6.627-6.1Zm.1,13.109h6.243v1.088H80.432V182.76H86.5v-2.609h-4.77v-1.057H86.5v-2.5h-4.05v-1.072h9.508V176.6H87.715v2.5h4.851v1.057H87.715Z"></path><path class="cls-3" d="M105.316,172.164c-1.088.96-3.394,2.785-4.578,3.777-.96.816-.976,1.072.048,1.937,1.457,1.184,4.29,3.473,5.987,5.17l-1.137,1.056c-.336-.384-.7-.784-1.1-1.168-1.121-1.152-3.554-3.233-5.042-4.466-1.521-1.264-1.329-1.953.112-3.169,1.2-1.008,3.633-2.929,4.722-4.034a7.576,7.576,0,0,0,.912-1.072l1.185,1.057C106.085,171.523,105.588,171.94,105.316,172.164Z"></path><path class="cls-3" d="M119.683,183.56l-.752-1.184a12.107,12.107,0,0,0,1.377-.208,4.833,4.833,0,0,0,4.065-4.754,4.457,4.457,0,0,0-4.273-4.642,31.361,31.361,0,0,1-.961,4.609c-.976,3.3-2.241,4.979-3.729,4.979-1.425,0-2.849-1.633-2.849-4.273a6.822,6.822,0,0,1,6.994-6.515,5.8,5.8,0,0,1,6.131,5.89C125.686,180.823,123.477,183.064,119.683,183.56Zm-4.225-2.673c.752,0,1.6-1.072,2.417-3.777a26.188,26.188,0,0,0,.9-4.322,5.585,5.585,0,0,0-4.962,5.186C113.809,179.991,114.737,180.887,115.458,180.887Z"></path><path class="cls-3" d="M131.826,176.454c-1.617.319-3.026.608-3.682.752l-.24-1.345c.721-.08,2.225-.352,3.922-.672v-2.737a8.989,8.989,0,0,0-.1-1.473h1.5a11.565,11.565,0,0,0-.1,1.473v2.5c2.721-.528,5.523-1.105,6.195-1.265a2.742,2.742,0,0,0,.848-.288l.945.736c-.112.176-.288.449-.4.641a23.172,23.172,0,0,1-3.281,4.657l-1.1-.656a15.639,15.639,0,0,0,2.85-3.809c-.272.048-3.218.64-6.051,1.216v4.77c0,1.1.4,1.457,2.321,1.457a24.146,24.146,0,0,0,4.978-.481l-.048,1.377a34.184,34.184,0,0,1-5.026.336c-2.977,0-3.537-.784-3.537-2.352Zm8.835-3.938-.864.384a19.318,19.318,0,0,0-1.3-2.209l.848-.368A21.464,21.464,0,0,1,140.661,172.516Zm1.793-.656-.864.384a15.1,15.1,0,0,0-1.329-2.194l.848-.368A19.913,19.913,0,0,1,142.454,171.86Z"></path><path class="cls-3" d="M146.914,172.131h8.595c.352,0,.928,0,1.409-.032-.033.4-.033.849-.033,1.249v7.891c0,.513.016,1.761.033,1.937h-1.377c0-.112.016-.5.016-.928h-8.739c.016.416.016.8.031.928h-1.376c.016-.208.048-1.392.048-1.953v-7.875c0-.368,0-.864-.032-1.249C146.113,172.116,146.546,172.131,146.914,172.131Zm-.1,8.869h8.755v-7.6h-8.755Z"></path><path class="cls-3" d="M171.557,173.06a20.25,20.25,0,0,1-2.689,4.69,44.33,44.33,0,0,1,4.674,4.786l-1.12.961a36.981,36.981,0,0,0-4.4-4.754,20.334,20.334,0,0,1-6.243,4.674l-1.024-1.074a18.286,18.286,0,0,0,6.594-4.753,14.106,14.106,0,0,0,2.658-4.45h-6.243c-.56,0-1.441.064-1.617.08v-1.457c.224.033,1.137.1,1.617.1h6.179a4.379,4.379,0,0,0,1.2-.129l.816.625A4.59,4.59,0,0,0,171.557,173.06Z"></path><path class="cls-3" d="M183.011,171.748a5.465,5.465,0,0,1-.336.576h4.338a3.215,3.215,0,0,0,1.056-.16l1.057.64a5.312,5.312,0,0,0-.385.865,16.1,16.1,0,0,1-2.5,4.977c.673.5,1.313.992,1.825,1.409l-.944,1.1c-.48-.433-1.089-.929-1.745-1.457a15.175,15.175,0,0,1-6.1,4.065l-1.153-.992a14.048,14.048,0,0,0,6.2-3.857c-1.153-.832-2.369-1.665-3.394-2.305l.865-.881c1.056.608,2.256,1.377,3.377,2.161a13.356,13.356,0,0,0,2.177-4.433h-5.41A17.485,17.485,0,0,1,177.7,177.7l-1.072-.832a14.675,14.675,0,0,0,5.138-5.571,5.828,5.828,0,0,0,.512-1.264l1.457.464C183.459,170.916,183.171,171.46,183.011,171.748Z"></path><path class="cls-3" d="M195.009,176.214h8.772c.8,0,1.377-.048,1.729-.081V177.7c-.32-.016-.993-.08-1.713-.08h-8.788c-.88,0-1.728.032-2.224.08v-1.569C193.265,176.166,194.113,176.214,195.009,176.214Z"></path><path class="cls-3" d="M212.546,172.34a10.111,10.111,0,0,0-.128-1.665h1.569c-.048.5-.112,1.185-.112,1.665v2.609a51.374,51.374,0,0,1,6.835,2.641l-.545,1.361a41.766,41.766,0,0,0-6.29-2.577c.016,2.4.016,4.817.016,5.282a18.865,18.865,0,0,0,.1,1.889h-1.553a14.123,14.123,0,0,0,.112-1.889Z"></path><path class="cls-3" d="M225.841,172.452c1.04-.112,4.066-.416,7.011-.656,1.745-.145,3.249-.241,4.321-.289v1.281a13.415,13.415,0,0,0-3.137.256,5.634,5.634,0,0,0-3.665,5.074c0,3.121,2.913,4.114,5.522,4.21l-.464,1.328c-2.961-.111-6.339-1.7-6.339-5.266a6.5,6.5,0,0,1,2.994-5.41c-1.713.193-5.8.576-7.523.944l-.144-1.392C225.025,172.516,225.537,172.484,225.841,172.452Zm10.34,4.53-.816.384a14.82,14.82,0,0,0-1.313-2.257l.817-.353A19.024,19.024,0,0,1,236.181,176.982Zm1.825-.688-.833.4a14.709,14.709,0,0,0-1.344-2.241l.784-.368A20.986,20.986,0,0,1,238.006,176.294Z"></path><path class="cls-3" d="M246.515,171.107c-.064.336-.128.753-.192,1.217a31.9,31.9,0,0,0,5.618-.689l.016,1.185a50.742,50.742,0,0,1-5.762.608c-.08.624-.128,1.3-.176,1.969a10.238,10.238,0,0,1,2.689-.4c.208,0,.4,0,.592.016.016-.048.032-.1.048-.16a4.329,4.329,0,0,0,.176-.929l1.265.321c-.1.223-.241.656-.321.912,0,.016-.015.032-.015.064a3.913,3.913,0,0,1,3.185,3.761c0,2.306-1.521,4.29-5.234,4.883l-.689-1.073c2.9-.3,4.69-1.792,4.69-3.873a2.894,2.894,0,0,0-2.305-2.738,13.315,13.315,0,0,1-3.569,5.2q.192.7.384,1.3l-1.152.352c-.1-.272-.176-.576-.257-.9a5.5,5.5,0,0,1-2.721.881A1.809,1.809,0,0,1,240.9,181c0-2.066,1.793-4.162,4-5.187.032-.8.112-1.6.176-2.352-.336.015-.656.015-.976.015-.688,0-1.937-.064-2.593-.112l-.032-1.2a22.325,22.325,0,0,0,2.641.208c.368,0,.72,0,1.088-.016.049-.465.1-.881.129-1.232a6.958,6.958,0,0,0,.031-.769l1.345.032A5.288,5.288,0,0,0,246.515,171.107Zm-3.489,10.677a4.011,4.011,0,0,0,2.208-.849,19.429,19.429,0,0,1-.384-3.634v-.288c-1.553.881-2.737,2.466-2.737,3.779C242.113,181.448,242.417,181.784,243.026,181.784Zm3.217-1.681a10.62,10.62,0,0,0,2.721-4.1h-.272a7.848,7.848,0,0,0-2.705.511c-.016.225-.016.433-.016.656A17.185,17.185,0,0,0,246.243,180.1Z"></path><path class="cls-3" d="M259.217,176.277a21.812,21.812,0,0,1,5.651-1.312c2.273,0,3.906,1.361,3.906,3.553,0,3.073-2.962,4.642-7.284,4.914l-.512-1.232c3.458-.112,6.5-1.1,6.5-3.714a2.449,2.449,0,0,0-2.7-2.369c-1.985,0-5.49,1.473-6.515,1.873l-.544-1.313A14.791,14.791,0,0,0,259.217,176.277Z"></path><path class="cls-3" d="M273.937,172.356c1.041-.112,4.066-.416,7.011-.656,1.745-.16,3.249-.24,4.322-.288v1.28a13.423,13.423,0,0,0-3.138.256,5.629,5.629,0,0,0-3.665,5.058c0,3.137,2.913,4.129,5.522,4.226l-.464,1.328c-2.961-.112-6.338-1.7-6.338-5.265a6.5,6.5,0,0,1,2.993-5.411c-1.713.192-5.8.577-7.524.945l-.144-1.393C273.121,172.42,273.633,172.387,273.937,172.356Z"></path><path class="cls-3" d="M294.035,171.6c-.048.416-.128.977-.224,1.65a21.588,21.588,0,0,0,3.249-.209l-.032,1.2c-1.024.095-1.953.143-3.25.143h-.111c-.113.945-.241,1.953-.352,2.9h.3a23.554,23.554,0,0,0,3.329-.208l-.032,1.217a29.277,29.277,0,0,1-3.138.159H293.2c-.064.64-.095,1.2-.095,1.585,0,1.552.864,2.512,2.689,2.512,2.433,0,3.985-1.072,3.985-2.72a4.44,4.44,0,0,0-1.745-3.266l1.409-.288a5.256,5.256,0,0,1,1.633,3.7c0,2.385-2.113,3.825-5.282,3.825-2.177,0-3.922-.944-3.922-3.569,0-.448.048-1.089.128-1.841a15.769,15.769,0,0,1-3.346-.576l.065-1.232a14.336,14.336,0,0,0,3.409.656c.1-.944.224-1.953.352-2.9a21.846,21.846,0,0,1-3.441-.56l.064-1.168a15.874,15.874,0,0,0,3.5.592c.08-.64.144-1.216.176-1.681a5.489,5.489,0,0,0,.016-1.136l1.441.1A9,9,0,0,0,294.035,171.6Z"></path><path class="cls-3" d="M318.454,176.181v1.3H303.921v-1.3Z"></path><path class="cls-3" d="M327.651,170.163c-.016.208-.016.464-.032.736.144,2.113,1.009,9.508,7.027,12.261a3.6,3.6,0,0,0-.88.976c-4.13-1.952-5.89-6.049-6.659-9.252-.7,3.2-2.353,7.06-6.4,9.252a4.075,4.075,0,0,0-.961-.912c6.483-3.313,6.483-10.948,6.595-13.061Z"></path><path class="cls-3" d="M350.262,172.2v1.088h-14.2V172.2h3.921a10.985,10.985,0,0,0-1.457-2.129l1.089-.416a10.867,10.867,0,0,1,1.6,2.24l-.784.305h4.77a18.073,18.073,0,0,0,1.5-2.594l1.248.417c-.432.737-.96,1.521-1.425,2.177Zm-7.379,10.724c0,.608-.144.913-.576,1.1a6.5,6.5,0,0,1-2.225.192,4.334,4.334,0,0,0-.384-1.04c.8.033,1.52.033,1.728.016.241-.016.305-.08.305-.288v-2.129h-3.538v3.441h-1.136v-9.507h5.826Zm-4.69-7.187V177.3h3.538v-1.568Zm3.538,4.1v-1.6h-3.538v1.6Zm4.193,1.537h-1.1v-6.5h1.1Zm2.113-6.98h1.169v8.4c0,.72-.16,1.041-.64,1.232a7.821,7.821,0,0,1-2.53.209,4.743,4.743,0,0,0-.432-1.137c.977.033,1.841.033,2.081.016.272-.016.352-.08.352-.32Z"></path><path class="cls-3" d="M359.683,183.56l-.752-1.184a12.107,12.107,0,0,0,1.377-.208,4.833,4.833,0,0,0,4.065-4.754,4.457,4.457,0,0,0-4.273-4.642,31.361,31.361,0,0,1-.961,4.609c-.976,3.3-2.241,4.979-3.729,4.979-1.425,0-2.849-1.633-2.849-4.273a6.822,6.822,0,0,1,6.994-6.515,5.8,5.8,0,0,1,6.131,5.89C365.686,180.823,363.477,183.064,359.683,183.56Zm-4.225-2.673c.752,0,1.6-1.072,2.417-3.777a26.188,26.188,0,0,0,.9-4.322,5.585,5.585,0,0,0-4.962,5.186C353.809,179.991,354.737,180.887,355.458,180.887Z"></path><path class="cls-3" d="M370.818,172.452h8.8a11.353,11.353,0,0,0,1.361-.1v1.408a12.34,12.34,0,0,0-1.361-.064h-3.842v7.363h4.706a11.273,11.273,0,0,0,1.329-.1v1.456a10.208,10.208,0,0,0-1.329-.063h-10.58c-.432,0-.912.016-1.408.063v-1.456a10.961,10.961,0,0,0,1.408.1h4.514V173.7h-3.6c-.305,0-.945.016-1.345.064v-1.408A10.6,10.6,0,0,0,370.818,172.452Z"></path><path class="cls-3" d="M391.812,179.718a15.082,15.082,0,0,0,5.346-5.889l.768,1.36a15.981,15.981,0,0,1-5.378,5.7,17.555,17.555,0,0,1-6.291,2.481l-.848-1.313A16.52,16.52,0,0,0,391.812,179.718Zm-.945-5.073-1.008,1.008a33.358,33.358,0,0,0-3.986-3.346l.912-.975A34.982,34.982,0,0,1,390.867,174.645Z"></path><path class="cls-3" d="M404.866,176.645l-.72,1.121a35.371,35.371,0,0,0-3.5-2.193l.72-1.088C402.305,175,404.178,176.149,404.866,176.645Zm1.873,3.826a16.352,16.352,0,0,0,6.066-5.875l.769,1.329a18.836,18.836,0,0,1-6.163,5.714,19.114,19.114,0,0,1-5.3,1.986l-.736-1.3A17.526,17.526,0,0,0,406.739,180.471Zm.512-7.331-.752,1.105c-.768-.593-2.513-1.745-3.441-2.289l.72-1.073C404.722,171.412,406.563,172.644,407.251,173.14Zm4.85.464-.912.416a17.9,17.9,0,0,0-1.457-2.528l.88-.368A23.455,23.455,0,0,1,412.1,173.6Zm2.145-.8-.912.416a17.468,17.468,0,0,0-1.521-2.481l.9-.384A23.191,23.191,0,0,1,414.246,172.8Z"></path><path class="cls-3" d="M418.305,180.647h9.588a14.567,14.567,0,0,0,1.457-.08V182.1c-.48-.049-1.025-.08-1.457-.08h-9.588c-.576,0-1.136.048-1.68.08v-1.537C417.169,180.6,417.729,180.647,418.305,180.647Zm1.281-7.939h6.851a15.722,15.722,0,0,0,1.584-.064v1.441c-.448-.033-1.056-.048-1.584-.048h-6.851c-.56,0-1.089.031-1.585.048v-1.441C418.513,172.675,419.058,172.708,419.586,172.708Z"></path><path class="cls-3" d="M445.622,172.82a15.426,15.426,0,0,1-3.986,4.418l-1.056-.849a10.866,10.866,0,0,0,3.5-3.585h-9.123a17.883,17.883,0,0,0-1.825.1v-1.457a13.578,13.578,0,0,0,1.825.145h9.187a7.929,7.929,0,0,0,1.121-.1l.784.752C445.942,172.4,445.734,172.644,445.622,172.82ZM435.2,183.656l-1.185-.96a5.536,5.536,0,0,0,1.441-.721c2.481-1.52,2.833-3.793,2.833-6.466a9.646,9.646,0,0,0-.064-1.153h1.441C439.668,178.694,439.283,181.624,435.2,183.656Z"></path><path class="cls-3" d="M451.106,172.1a37.08,37.08,0,0,0-.8,6.131,17.564,17.564,0,0,0,.144,2.241c.272-.72.657-1.68.929-2.337l.672.512a32.671,32.671,0,0,0-1.136,3.586,3.035,3.035,0,0,0-.08.72c.015.177.031.4.047.56l-1.152.08a20.157,20.157,0,0,1-.592-5.138,45.02,45.02,0,0,1,.72-6.418,7,7,0,0,0,.112-1.137l1.425.128C451.314,171.3,451.17,171.811,451.106,172.1Zm3.729,8.148c0,.736.528,1.44,2.705,1.44a17.662,17.662,0,0,0,3.97-.416l.032,1.345a21.707,21.707,0,0,1-4,.336c-2.689,0-3.889-.9-3.889-2.4a8.642,8.642,0,0,1,.271-1.888l1.153.111A5.6,5.6,0,0,0,454.835,180.247Zm6.194-8v1.3a37.828,37.828,0,0,1-6.578,0v-1.282A27.341,27.341,0,0,0,461.029,172.244Z"></path><path class="cls-3" d="M478.15,172.292h-4.178a23.449,23.449,0,0,1,4.034,3.185l-.992.7a11.623,11.623,0,0,0-1.089-1.072c-4.018.16-8.275.272-11.076.32l-.049-1.1,2.209-.032a19.83,19.83,0,0,0,1.345-2h-4.178v-1.073h6.355v-1.552h1.2v1.552h6.418Zm-2.193,10.724c0,.64-.16.945-.656,1.088a10.309,10.309,0,0,1-2.609.177,4.609,4.609,0,0,0-.384-.977c.928.016,1.857.016,2.129.016.239-.016.319-.08.319-.3v-1.377h-7.122v2.642h-1.185v-7.876h9.508Zm-8.323-5.618v1.233h7.122V177.4Zm7.122,3.345V179.5h-7.122v1.248Zm-4.881-8.451c-.48.656-1.041,1.36-1.569,1.985,1.969-.032,4.226-.08,6.467-.129-.577-.448-1.185-.9-1.745-1.264l.9-.592Z"></path><path class="cls-3" d="M81.937,200.356c1.041-.112,4.066-.416,7.011-.656,1.745-.16,3.249-.24,4.322-.288v1.28a13.423,13.423,0,0,0-3.138.256,5.629,5.629,0,0,0-3.665,5.058c0,3.137,2.913,4.129,5.522,4.226l-.464,1.328c-2.961-.112-6.338-1.7-6.338-5.265a6.5,6.5,0,0,1,2.993-5.411c-1.713.192-5.8.577-7.524.945l-.144-1.393C81.121,200.42,81.633,200.387,81.937,200.356Z"></path><path class="cls-3" d="M97.937,200.356c1.041-.112,4.066-.416,7.011-.656,1.745-.16,3.249-.24,4.322-.288v1.28a13.423,13.423,0,0,0-3.138.256,5.629,5.629,0,0,0-3.665,5.058c0,3.137,2.913,4.129,5.522,4.226l-.464,1.328c-2.961-.112-6.338-1.7-6.338-5.265a6.5,6.5,0,0,1,2.993-5.411c-1.713.192-5.8.577-7.524.945l-.144-1.393C97.121,200.42,97.633,200.387,97.937,200.356Z"></path><path class="cls-3" d="M114.593,201.444c-.016,1.009,0,2.465.112,3.794.257,2.673,1.041,4.449,2.177,4.449.817,0,1.569-1.664,1.985-3.264l1.009,1.135c-.961,2.722-1.937,3.651-3.01,3.651-1.52,0-2.977-1.5-3.409-5.651-.144-1.392-.176-3.345-.176-4.274a7.217,7.217,0,0,0-.112-1.424l1.552.031A12.213,12.213,0,0,0,114.593,201.444Zm11.285,6.851-1.281.528c-.288-2.9-1.248-6.178-2.785-8.051l1.249-.432A17.208,17.208,0,0,1,125.878,208.3Z"></path><path class="cls-3" d="M137.316,200.164c-1.088.96-3.394,2.785-4.578,3.777-.96.816-.976,1.072.048,1.937,1.457,1.184,4.29,3.473,5.987,5.17l-1.137,1.056c-.336-.384-.7-.784-1.1-1.168-1.121-1.152-3.554-3.233-5.042-4.466-1.521-1.264-1.329-1.953.112-3.169,1.2-1.008,3.633-2.929,4.722-4.034a7.576,7.576,0,0,0,.912-1.072l1.185,1.057C138.085,199.523,137.588,199.94,137.316,200.164Z"></path><path class="cls-3" d="M156.757,199.843v12.39h-1.232v-.816h-8.531v.9h-1.185V199.843h4.018a20.167,20.167,0,0,0,.624-2.192l1.361.176c-.241.688-.529,1.408-.8,2.016Zm-9.763,1.137v2.385h8.531V200.98Zm0,3.505v2.321h8.531v-2.321Zm8.531,5.811v-2.37h-8.531v2.37Z"></path><path class="cls-3" d="M164.722,198.05a23.24,23.24,0,0,1-1.633,3.3v10.885h-1.12v-9.172a17.239,17.239,0,0,1-1.776,2.112,8.137,8.137,0,0,0-.673-1.152,17.862,17.862,0,0,0,4.1-6.306Zm9.764,2.578v.993h-10.34v-.993Zm-9.2,6.611h8.132v4.994h-1.185v-.705h-5.794v.753h-1.153Zm7.988-3.426h-7.811v-.976h7.811Zm-7.811,1.233h7.779v.96h-7.779Zm7.523-5.634h-7.331v-.977h7.331Zm-6.547,8.787v2.352h5.794V208.2Z"></path><path class="cls-3" d="M182.227,203.365c1.5-.912,3.233-1.761,4.113-2.241a8.687,8.687,0,0,0,1.137-.752l.7,1.136c-.368.224-.768.432-1.232.672a53.344,53.344,0,0,0-4.866,2.658c-1.489.96-2.385,2.016-2.385,3.233,0,1.328,1.265,2.161,3.793,2.161a23.815,23.815,0,0,0,5.122-.545v1.425a31.515,31.515,0,0,1-5.058.4c-3.009,0-5.186-.9-5.186-3.3,0-1.649,1.057-2.945,2.769-4.146a53.677,53.677,0,0,1-2.32-4.93l1.264-.528A34.484,34.484,0,0,0,182.227,203.365Z"></path><path class="cls-3" d="M200.4,208.135c1.136,1.712,3.185,2.753,5.97,3.153a4.55,4.55,0,0,0-.72,1.024c-3.122-.544-5.3-1.889-6.515-4.177H199c-.832,1.584-2.577,3.057-6.226,4.146a4.708,4.708,0,0,0-.721-.961c3.122-.864,4.754-1.984,5.586-3.185h-5.425v-1.056h5.97a5.039,5.039,0,0,0,.3-1.5h-4.434v-.992h4.466v-1.425h-4.722v-1.009h4.722V200.82H199.7v1.328h4.947v-1.841H193.6v2h-1.153v-3.073h6.1v-1.553h1.185v1.553h6.114v3.073h-1.2v.849H199.7v1.425h4.723v.992h-4.754a7.121,7.121,0,0,1-.257,1.5H206.2v1.056Z"></path><path class="cls-3" d="M209.633,206.919a14.62,14.62,0,0,1-1.105,4.065,4.07,4.07,0,0,0-.88-.433,12.516,12.516,0,0,0,.977-3.808Zm1.728-1.377v6.739h-1.056v-6.675c-.928.064-1.808.112-2.561.16l-.064-1.072,1.1-.049c.32-.4.656-.847.992-1.328A14.417,14.417,0,0,0,207.792,201l.64-.752c.16.143.321.288.481.448a23.072,23.072,0,0,0,1.424-3.01l1.041.385a30.223,30.223,0,0,1-1.841,3.3,11.33,11.33,0,0,1,.864,1.024,32.84,32.84,0,0,0,1.713-2.9l.993.464a53.114,53.114,0,0,1-3.2,4.626l2.353-.113c-.224-.48-.48-.96-.72-1.377l.864-.351a14.145,14.145,0,0,1,1.537,3.281l-.945.432a6.4,6.4,0,0,0-.32-.992Zm1.377,4.29a12.82,12.82,0,0,0-.8-2.9l.864-.256a12.681,12.681,0,0,1,.865,2.881Zm4.466.576a12.288,12.288,0,0,1-3.794,1.936,7.149,7.149,0,0,0-.768-.784,10.472,10.472,0,0,0,3.57-1.744Zm5.25-7.763h-9.108v-.816h3.89v-.864H214.2V200.2h3.041v-.833h-3.458v-.8h3.458v-.881h1.185v.881h3.633v.8h-3.633v.833h3.233v.769h-3.233v.864h4.033Zm-8.035,7.091v-6.275h7.123v6.275Zm1.088-4.466h4.915v-1.009h-4.915Zm0,1.824h4.915v-1.04h-4.915Zm0,1.841h4.915v-1.072h-4.915Zm4.018.929c1.072.608,2.305,1.345,3.057,1.856l-1.04.577c-.641-.481-1.793-1.233-2.817-1.841Z"></path><path class="cls-3" d="M229.763,199.588c-.1.463-.24,1.408-.417,2.272.753-.063,1.409-.111,1.793-.111,1.441,0,2.609.544,2.609,2.72a15.53,15.53,0,0,1-.928,5.779,2.254,2.254,0,0,1-2.337,1.329,9.634,9.634,0,0,1-1.889-.225l-.208-1.345a7.8,7.8,0,0,0,1.953.336,1.336,1.336,0,0,0,1.409-.832,13.524,13.524,0,0,0,.752-4.9c0-1.457-.673-1.73-1.7-1.73-.384,0-1.025.049-1.713.113a32.648,32.648,0,0,1-3.377,8.628l-1.3-.529a25.387,25.387,0,0,0,3.377-7.971c-.849.08-1.617.16-2.033.208-.368.048-1.04.128-1.441.192l-.144-1.377c.513.017.929.017,1.441,0,.528-.016,1.456-.1,2.433-.176a17.863,17.863,0,0,0,.416-3.489l1.473.144C229.875,198.931,229.811,199.267,229.763,199.588Zm8.611,6.578-1.232.592a18.8,18.8,0,0,0-2.866-5.746l1.169-.528A27.289,27.289,0,0,1,238.374,206.166Zm-1.425-5.81-.88.384a19.6,19.6,0,0,0-1.3-2.225l.864-.352A22.572,22.572,0,0,1,236.949,200.356Zm1.793-.656-.864.384a17.763,17.763,0,0,0-1.329-2.209l.849-.369A23.116,23.116,0,0,1,238.742,199.7Z"></path><path class="cls-3" d="M247.779,203.3H253v9h-1.233v-.7H241.057v-1.169h10.708v-2.48h-9.876v-1.152h9.876v-2.322h-10.4V203.3H246.5v-5.634h1.28Zm-4.593-.8a15.322,15.322,0,0,0-2.033-3.7l1.04-.432a14.834,14.834,0,0,1,2.129,3.634Zm10.02-3.842a34.681,34.681,0,0,1-2.289,3.954l-1.025-.416a23.211,23.211,0,0,0,2.065-3.97Z"></path><path class="cls-3" d="M261.8,207.687c-.416-.465-1.3-1.361-2.017-2.033v6.627h-1.169V206.07a15.027,15.027,0,0,1-2.449,2,5.354,5.354,0,0,0-.624-1.072,13.882,13.882,0,0,0,5.01-5.25H256.1V200.66h2.513v-2.978h1.169v2.978h1.393l.208-.048.672.448a14.4,14.4,0,0,1-2.081,3.489c.752.592,2.161,1.826,2.561,2.177Zm8.819,2.977v1.169h-8.963v-1.169H265.7v-6.643h-3.425v-1.152H265.7V197.8h1.185v5.074h3.409v1.152h-3.409v6.643Z"></path><path class="cls-3" d="M275.106,200.1a37.08,37.08,0,0,0-.8,6.131,17.564,17.564,0,0,0,.144,2.241c.272-.72.657-1.68.929-2.337l.672.512a32.671,32.671,0,0,0-1.136,3.586,3.035,3.035,0,0,0-.08.72c.015.177.031.4.047.56l-1.152.08a20.157,20.157,0,0,1-.592-5.138,45.02,45.02,0,0,1,.72-6.418,7,7,0,0,0,.112-1.137l1.425.128C275.314,199.3,275.17,199.811,275.106,200.1Zm3.729,8.148c0,.736.528,1.44,2.705,1.44a17.662,17.662,0,0,0,3.97-.416l.032,1.345a21.707,21.707,0,0,1-4,.336c-2.689,0-3.889-.9-3.889-2.4a8.642,8.642,0,0,1,.271-1.888l1.153.111A5.6,5.6,0,0,0,278.835,208.247Zm6.194-8v1.3a37.828,37.828,0,0,1-6.578,0v-1.282A27.341,27.341,0,0,0,285.029,200.244Z"></path><path class="cls-3" d="M290.962,199.923a39.608,39.608,0,0,0-.8,6.452,15.019,15.019,0,0,0,.16,2.224c.256-.72.641-1.7.913-2.353l.656.512c-.385,1.121-.976,2.753-1.136,3.538a2.776,2.776,0,0,0-.064.72c0,.16.015.384.031.561l-1.12.079a19.337,19.337,0,0,1-.608-5.058,47.64,47.64,0,0,1,.736-6.738,9.618,9.618,0,0,0,.1-1.137l1.409.113A8.111,8.111,0,0,0,290.962,199.923Zm8.083-.223c-.016.431-.032,1.184-.048,1.936a27.038,27.038,0,0,0,2.769-.368V202.5c-.881.144-1.809.24-2.769.3.016,1.618.128,3.218.192,4.563a10.552,10.552,0,0,1,3.169,2.064l-.7,1.073a13.029,13.029,0,0,0-2.417-1.857v.336c0,1.313-.608,2.577-2.769,2.577-2.145,0-3.33-.848-3.33-2.289,0-1.345,1.2-2.417,3.3-2.417a7.265,7.265,0,0,1,1.488.145c-.048-1.233-.144-2.8-.16-4.115-.512.017-1.024.033-1.536.033-.913,0-1.745-.048-2.689-.113v-1.2c.912.08,1.76.128,2.721.128.5,0,1.008-.016,1.5-.032v-1.985c0-.272-.032-.7-.064-.976h1.441C299.093,199.059,299.061,199.38,299.045,199.7Zm-2.8,10.708c1.344,0,1.744-.689,1.744-1.745,0-.16,0-.352-.016-.56a5.447,5.447,0,0,0-1.633-.257c-1.2,0-2.048.513-2.048,1.3C294.291,209.96,295.091,210.408,296.244,210.408Z"></path><path class="cls-3" d="M310.515,199.107c-.064.336-.128.753-.192,1.217a31.9,31.9,0,0,0,5.618-.689l.016,1.185a50.742,50.742,0,0,1-5.762.608c-.08.624-.128,1.3-.176,1.969a10.238,10.238,0,0,1,2.689-.4c.208,0,.4,0,.592.016.016-.048.032-.1.048-.16a4.329,4.329,0,0,0,.176-.929l1.265.321c-.1.223-.241.656-.321.912,0,.016-.015.032-.015.064a3.913,3.913,0,0,1,3.185,3.761c0,2.306-1.521,4.29-5.234,4.883l-.689-1.073c2.9-.3,4.69-1.792,4.69-3.873a2.894,2.894,0,0,0-2.3-2.738,13.315,13.315,0,0,1-3.569,5.2q.192.7.384,1.3l-1.152.352c-.1-.272-.176-.576-.257-.9a5.5,5.5,0,0,1-2.721.881A1.809,1.809,0,0,1,304.9,209c0-2.066,1.793-4.162,4-5.187.032-.8.112-1.6.176-2.352-.336.015-.656.015-.976.015-.688,0-1.937-.064-2.593-.112l-.032-1.2a22.325,22.325,0,0,0,2.641.208c.368,0,.72,0,1.088-.016.049-.465.1-.881.129-1.232a6.958,6.958,0,0,0,.031-.769l1.345.032A5.288,5.288,0,0,0,310.515,199.107Zm-3.489,10.677a4.011,4.011,0,0,0,2.208-.849,19.429,19.429,0,0,1-.384-3.634v-.288c-1.553.881-2.737,2.466-2.737,3.779C306.113,209.448,306.417,209.784,307.026,209.784Zm3.217-1.681a10.62,10.62,0,0,0,2.721-4.1h-.272a7.848,7.848,0,0,0-2.7.511c-.016.225-.016.433-.016.656A17.185,17.185,0,0,0,310.243,208.1Z"></path><path class="cls-3" d="M323.826,202.884c.656-1.631,2.321-3.632,4.354-3.632,2.129,0,3.649,2.129,3.649,5.49,0,4.449-2.785,6.4-6.755,7.123l-.752-1.153c3.474-.512,6.195-1.937,6.195-5.955,0-2.529-.865-4.353-2.546-4.353-2,0-3.857,2.913-4.049,5.01a7.457,7.457,0,0,0,.032,1.968l-1.233.1a19.535,19.535,0,0,1-.175-2.546,42.136,42.136,0,0,1,.5-5.17c.064-.479.1-.944.128-1.376l1.408.048A29.718,29.718,0,0,0,323.826,202.884Z"></path><path class="cls-3" d="M344.228,199.427c0,.208-.016.561-.016.977a39.557,39.557,0,0,0,4.337-.433l-.016,1.169c-1.264.144-2.785.288-4.321.368v2.241a39.832,39.832,0,0,0,4.465-.432l-.016,1.2c-1.5.193-2.913.321-4.433.368.032.833.08,1.7.111,2.465a12.749,12.749,0,0,1,4.675,2.5l-.737,1.137a11.792,11.792,0,0,0-3.873-2.417c.016.4.032.736.032.992,0,1.1-.737,2.241-2.817,2.241-2.305,0-3.554-.816-3.554-2.352,0-1.457,1.393-2.449,3.7-2.449a9.305,9.305,0,0,1,1.344.095c-.016-.719-.048-1.488-.064-2.176h-.912c-1.088,0-2.849-.1-4-.224l-.016-1.2a29.636,29.636,0,0,0,4.034.305h.864v-2.242h-.7c-1.12,0-3.09-.16-4.1-.272l-.016-1.185a28.951,28.951,0,0,0,4.1.353h.736v-1.137a8.8,8.8,0,0,0-.064-.96h1.361A8.025,8.025,0,0,0,344.228,199.427Zm-2.753,11.253c.912,0,1.7-.288,1.7-1.392,0-.273-.016-.657-.016-1.073a7.1,7.1,0,0,0-1.552-.16c-1.521,0-2.353.592-2.353,1.328S339.89,210.68,341.475,210.68Z"></path><path class="cls-3" d="M361.108,199.4c0,.24-.016.609-.016,1.041h.24c1.953,0,3.922.016,4.69.016l-.016,1.184c-.9-.047-2.353-.08-4.69-.08h-.224c0,.912.016,1.905.032,2.641a3.894,3.894,0,0,1,.512,2.049c0,2.161-1.056,4.562-4.786,5.682l-1.072-1.056c2.129-.48,3.6-1.376,4.242-2.833a2.259,2.259,0,0,1-1.393.432A2.548,2.548,0,0,1,356,205.8a2.794,2.794,0,0,1,2.817-2.785,3.214,3.214,0,0,1,1.073.176c0-.48,0-1.057-.016-1.617-2.433.017-5.155.128-7.155.272l-.032-1.232c1.776-.032,4.786-.128,7.17-.16,0-.448-.016-.832-.032-1.057-.015-.416-.079-.88-.095-1.008h1.456C361.156,198.563,361.124,199.187,361.108,199.4Zm-2.273,7.972c.944,0,1.553-.753,1.409-2.274a1.435,1.435,0,0,0-1.425-1.007,1.631,1.631,0,0,0-1.617,1.7A1.543,1.543,0,0,0,358.835,207.367Z"></path><path class="cls-3" d="M372.706,209.591a2.441,2.441,0,1,1-2.449-2.432A2.439,2.439,0,0,1,372.706,209.591Zm-.816,0a1.625,1.625,0,1,0-1.633,1.633A1.626,1.626,0,0,0,371.89,209.591Z"></path><path class="cls-3" d="M88.228,227.427c0,.208-.016.561-.016.977a39.557,39.557,0,0,0,4.337-.433l-.016,1.169c-1.264.144-2.785.288-4.321.368v2.241a39.832,39.832,0,0,0,4.465-.432l-.016,1.2c-1.5.193-2.913.321-4.433.368.032.833.08,1.7.111,2.465a12.749,12.749,0,0,1,4.675,2.5l-.737,1.137a11.792,11.792,0,0,0-3.873-2.417c.016.4.032.736.032.992,0,1.1-.737,2.241-2.817,2.241-2.305,0-3.554-.816-3.554-2.352,0-1.457,1.393-2.449,3.7-2.449a9.305,9.305,0,0,1,1.344.095c-.016-.719-.048-1.488-.064-2.176h-.912c-1.088,0-2.849-.1-4-.224l-.016-1.2a29.636,29.636,0,0,0,4.034.305h.864v-2.242h-.7c-1.12,0-3.09-.16-4.1-.272l-.016-1.185a28.951,28.951,0,0,0,4.1.353h.736v-1.137a8.8,8.8,0,0,0-.064-.96h1.361A8.025,8.025,0,0,0,88.228,227.427ZM85.475,238.68c.912,0,1.7-.288,1.7-1.392,0-.273-.016-.657-.016-1.073a7.1,7.1,0,0,0-1.552-.16c-1.521,0-2.353.592-2.353,1.328S83.89,238.68,85.475,238.68Z"></path><path class="cls-3" d="M104.644,227.572c0,.239-.016.607-.016,1.04h.24c1.969,0,3.937.016,4.69.016l-.016,1.2c-.9-.049-2.337-.1-4.69-.1h-.224c0,.913.016,1.889.032,2.642a3.889,3.889,0,0,1,.512,2.049c0,2.176-1.056,4.577-4.77,5.681l-1.072-1.056c2.113-.48,3.6-1.376,4.258-2.833a2.34,2.34,0,0,1-1.409.432,2.552,2.552,0,0,1-2.641-2.673,2.8,2.8,0,0,1,2.833-2.785,3.2,3.2,0,0,1,1.072.176c0-.481-.016-1.057-.016-1.616-2.449.031-5.154.143-7.154.288l-.049-1.249c1.793-.032,4.8-.128,7.187-.16-.016-.449-.016-.832-.031-1.056-.033-.417-.081-.881-.113-1.009h1.457C104.708,226.739,104.66,227.38,104.644,227.572Zm-2.273,7.971c.928,0,1.552-.752,1.425-2.257a1.471,1.471,0,0,0-1.441-1.025,1.632,1.632,0,0,0-1.617,1.7A1.55,1.55,0,0,0,102.371,235.543Zm5.762-7.364-.912.4a18.18,18.18,0,0,0-1.169-1.969l.881-.368A19.76,19.76,0,0,1,108.133,228.179Zm1.953-.431-.913.4a12.663,12.663,0,0,0-1.184-1.937l.9-.384C109.254,226.371,109.75,227.124,110.086,227.748Z"></path><path class="cls-3" d="M114.962,227.923a39.608,39.608,0,0,0-.8,6.452,15.019,15.019,0,0,0,.16,2.224c.256-.72.641-1.7.913-2.353l.656.512c-.385,1.121-.976,2.753-1.136,3.538a2.776,2.776,0,0,0-.064.72c0,.16.015.384.031.561l-1.12.079a19.337,19.337,0,0,1-.608-5.058,47.64,47.64,0,0,1,.736-6.738,9.618,9.618,0,0,0,.1-1.137l1.409.113A8.111,8.111,0,0,0,114.962,227.923Zm8.083-.223c-.016.431-.032,1.184-.048,1.936a27.038,27.038,0,0,0,2.769-.368V230.5c-.881.144-1.809.24-2.769.3.016,1.618.128,3.218.192,4.563a10.552,10.552,0,0,1,3.169,2.064l-.7,1.073a13.029,13.029,0,0,0-2.417-1.857v.336c0,1.313-.608,2.577-2.769,2.577-2.145,0-3.33-.848-3.33-2.289,0-1.345,1.2-2.417,3.3-2.417a7.265,7.265,0,0,1,1.488.145c-.048-1.233-.144-2.8-.16-4.115-.512.017-1.024.033-1.536.033-.913,0-1.745-.048-2.689-.113v-1.2c.912.08,1.76.128,2.721.128.5,0,1.008-.016,1.5-.032v-1.985c0-.272-.032-.7-.064-.976h1.441C123.093,227.059,123.061,227.38,123.045,227.7Zm-2.8,10.708c1.344,0,1.744-.689,1.744-1.745,0-.16,0-.352-.016-.56a5.447,5.447,0,0,0-1.633-.257c-1.2,0-2.048.513-2.048,1.3C118.291,237.96,119.091,238.408,120.244,238.408Z"></path><path class="cls-3" d="M127.984,236.391l1.041-.912a30.048,30.048,0,0,1,3.585,3.553l-1.088.929A26.627,26.627,0,0,0,127.984,236.391Z"></path><path class="cls-3" d="M157.622,229.412a25.064,25.064,0,0,1-5.826,6.5c.96.96,2.1,2.161,2.736,2.945l-1.168.929a38.253,38.253,0,0,0-2.881-3.266,37.639,37.639,0,0,0-3.665-3.153l1.04-.849c.592.433,1.905,1.5,2.993,2.482a19.637,19.637,0,0,0,4.994-5.555h-9.412c-.624,0-1.312.064-1.633.1V228.1a12.148,12.148,0,0,0,1.633.129h9.54a3.367,3.367,0,0,0,1.041-.129l1.008.817A4.531,4.531,0,0,0,157.622,229.412Z"></path><path class="cls-3" d="M167.524,230.293a19.052,19.052,0,0,0,4.369-3.762l1.072.992a26.089,26.089,0,0,1-4.321,3.569v6.755a12.079,12.079,0,0,0,.1,1.713h-1.569a14.847,14.847,0,0,0,.1-1.713v-5.922a31.6,31.6,0,0,1-6.1,2.609l-.641-1.248A26.48,26.48,0,0,0,167.524,230.293Z"></path><path class="cls-3" d="M182.771,226.675h1.585a14.846,14.846,0,0,0-.1,1.6v2.145h4.257c.529,0,1.137-.033,1.393-.065v1.361c-.256-.032-.912-.047-1.408-.047H184.26c-.016,3.52-1.2,6.114-4.434,8l-1.249-.929a7.132,7.132,0,0,0,4.338-7.074h-4.69c-.592,0-1.184.015-1.52.047V230.34c.336.033.928.081,1.488.081h4.722v-2.162A8.937,8.937,0,0,0,182.771,226.675Z"></path><path class="cls-3" d="M195.538,228.356v3.617a43.479,43.479,0,0,0,6.082-1.953,11.677,11.677,0,0,0,1.409-.72l.56,1.281c-.448.192-1.024.448-1.5.624a61.623,61.623,0,0,1-6.547,2.081v3.521c0,.817.336,1.025,1.12,1.185a15.221,15.221,0,0,0,2.113.128,26.129,26.129,0,0,0,5.474-.513v1.457a44.756,44.756,0,0,1-5.538.336,16.828,16.828,0,0,1-2.561-.16c-1.232-.224-1.921-.784-1.921-2.08v-8.8a8.675,8.675,0,0,0-.1-1.3h1.489A10.643,10.643,0,0,0,195.538,228.356Zm8.579.352-.864.4a18.381,18.381,0,0,0-1.3-2.225l.849-.368A24.815,24.815,0,0,1,204.117,228.708Zm1.793-.657-.864.4a16.947,16.947,0,0,0-1.329-2.209l.849-.368A23.02,23.02,0,0,1,205.91,228.051Z"></path><path class="cls-3" d="M213.971,227.523c-.1.465-.24,1.409-.417,2.289.753-.063,1.425-.112,1.809-.112,1.425,0,2.593.545,2.593,2.705a15.218,15.218,0,0,1-.928,5.779,2.254,2.254,0,0,1-2.337,1.344,8.655,8.655,0,0,1-1.889-.24l-.208-1.328a7.792,7.792,0,0,0,1.969.32,1.323,1.323,0,0,0,1.393-.816,13.566,13.566,0,0,0,.768-4.9c0-1.473-.688-1.744-1.7-1.744-.384,0-1.024.048-1.729.112a32.9,32.9,0,0,1-3.361,8.627l-1.312-.512A25.631,25.631,0,0,0,212,231.061c-.849.08-1.617.176-2.033.224-.368.048-1.024.128-1.441.192l-.127-1.392c.5.032.912.015,1.424,0,.528-.017,1.472-.1,2.433-.176a16.744,16.744,0,0,0,.416-3.49l1.489.16C214.1,226.867,214.035,227.219,213.971,227.523Zm8.627,6.483-1.248.592A18.833,18.833,0,0,0,218.5,228.8l1.168-.528A28.45,28.45,0,0,1,222.6,234.006Z"></path><path class="cls-3" d="M227.49,233.926a7.684,7.684,0,0,1,5.218-1.953c2.449,0,4.082,1.473,4.082,3.346,0,2.865-2.53,4.8-8.484,4.306l-.384-1.313c5.058.624,7.523-.833,7.523-3.025,0-1.281-1.185-2.194-2.817-2.194a6.272,6.272,0,0,0-4.962,2.146,2.516,2.516,0,0,0-.48.8L226,235.751a57.39,57.39,0,0,0,.817-6.5l1.344.175C227.938,230.516,227.666,232.9,227.49,233.926Zm7.219-6.178-.305,1.232c-1.52-.208-4.994-.912-6.21-1.249l.32-1.216A43.747,43.747,0,0,0,234.709,227.748Z"></path><path class="cls-3" d="M254.118,229.381s-.016.448-.016.608c-.176,6.706-.32,8.931-.864,9.6a1.264,1.264,0,0,1-1.073.592,10.845,10.845,0,0,1-1.936,0,3.254,3.254,0,0,0-.337-1.12c.769.065,1.473.08,1.777.08a.606.606,0,0,0,.576-.256c.368-.465.56-2.577.72-8.387h-2.289c-.192,4.257-.928,7.747-3.745,9.86a4.046,4.046,0,0,0-.88-.849,6.037,6.037,0,0,0,.688-.56c-2.417.288-4.9.56-6.691.753l-.176-1.041c.961-.08,2.161-.192,3.474-.321v-1.376H240.32v-.912h3.026v-.976h-2.993v-4.754h2.993v-1.009h-3.458v-.929h3.458v-1.055c-1.025.08-2.065.143-3.009.175a3.6,3.6,0,0,0-.289-.88,49.872,49.872,0,0,0,6.9-.785l.592.914a30.861,30.861,0,0,1-3.121.463v1.168h3.394v.929h-3.394v1.009h3.106v4.754h-3.106v.976h3.137v.912h-3.137v1.265c1.041-.1,2.129-.208,3.2-.337v.065c1.377-1.889,1.809-4.466,1.953-7.459H247.7v-1.12H249.6c.032-1.122.032-2.29.032-3.506h1.12c0,1.2,0,2.384-.031,3.506Zm-12.789,2.913h2.017v-1.153h-2.017Zm2.017,1.952v-1.168h-2.017v1.168Zm1.072-3.105v1.153h2.1v-1.153Zm2.1,1.937h-2.1v1.168h2.1Z"></path><path class="cls-3" d="M270.182,226.723v1.1h-6.5V229.6h3.266v7.155H259.3V229.6h3.2v-1.776h-6.37v-1.1Zm-1.6,2.7h1.153v10.805h-1.153v-.945h-10.8v.993h-1.152V229.428h1.152v8.724h10.8Zm-8.275,3.266h2.273v-2.081h-2.273Zm0,3.057h2.273v-2.1h-2.273Zm5.6-5.138h-2.289v2.081h2.289Zm0,3.041h-2.289v2.1h2.289Z"></path><path class="cls-3" d="M277.49,235.59a24.6,24.6,0,0,0-1.9-2.1v6.787h-1.169v-6.163a14.779,14.779,0,0,1-2.288,1.953A5.36,5.36,0,0,0,271.52,235a13.9,13.9,0,0,0,4.754-5.25H272.1V228.66h2.321v-2.978h1.169v2.978H276.9l.209-.048.656.432a15.065,15.065,0,0,1-1.9,3.378c.7.591,2.033,1.84,2.369,2.209Zm7.652,3.57c.368,0,.432-.224.48-1.921a2.613,2.613,0,0,0,.976.448c-.112,1.986-.416,2.466-1.328,2.466h-1.489c-1.105,0-1.36-.32-1.36-1.441V235.4h-1.3c-.288,2.305-1.073,3.953-3.6,4.882a4.008,4.008,0,0,0-.689-.913,4.252,4.252,0,0,0,3.153-3.969h-1.264v-8.916H285.4V235.4h-1.905v3.313c0,.384.064.448.448.448Zm-5.33-10.02h4.433v-1.665h-4.433Zm0,2.625h4.433v-1.7h-4.433Zm0,2.641h4.433v-1.7h-4.433Z"></path><path class="cls-3" d="M293.138,227.588v12.676h-1.072v-2.736c-1.5.224-2.977.432-4.162.592l-.144-1.137c.336-.032.688-.063,1.089-.112v-9.283H288v-1.057h5.955v.832h3.521v-1.536h1.136v1.536h3.634v1.009h-3.634v1.44h3.458v4.4h-7.939v-4.4h3.345v-1.44h-3.569v-.784Zm-1.072,0H289.9v2.272h2.161Zm0,3.265H289.9v2.273h2.161Zm-2.161,5.89c.688-.08,1.425-.176,2.161-.288v-2.321H289.9Zm3.377,2.353a6.964,6.964,0,0,0,1.3-3.233l.96.3a8.139,8.139,0,0,1-1.344,3.473Zm3.2-8.34h-1.361v2.514h1.361Zm2.689,8.42c.384,0,.464-.176.5-1.585a3.151,3.151,0,0,0,.977.416c-.113,1.761-.4,2.177-1.345,2.177h-1.713c-1.168,0-1.44-.3-1.44-1.408v-2.961H297.2v2.945c0,.369.064.416.528.416Zm-1.809-4.881a8.961,8.961,0,0,1,2.369,1.824l-.768.721a9.621,9.621,0,0,0-2.337-1.938Zm1.377-3.539h-1.425v2.514h1.425Zm.848,2.514h1.44v-2.514h-1.44Zm1.312,2.465a9.5,9.5,0,0,1,1.793,3.409l-.992.448a10.146,10.146,0,0,0-1.713-3.441Z"></path><path class="cls-3" d="M318.342,238.631v1.122H303.968v-1.122h6.675v-2.016h-5.026v-1.088h5.026v-1.793h1.2v1.793h4.834v1.088h-4.834v2.016Zm-11.012-8a5.111,5.111,0,0,1-2.4,3.825,5.5,5.5,0,0,0-.785-.832,4.149,4.149,0,0,0,2.081-2.993h-1.937v-1.057h2.017V227.38h-1.488v-1.057h7.17v1.057H310.5v2.192h1.809v1.057H310.5v3.425h-1.12v-3.425Zm.08-1.057h1.969V227.38H307.41v2.192Zm6.994,2.337h-1.1v-5.33h1.1Zm2.994.993c0,.656-.128.96-.608,1.152a8.085,8.085,0,0,1-2.386.192,3.745,3.745,0,0,0-.4-1.088,18.536,18.536,0,0,0,1.952,0c.24,0,.3-.065.3-.288v-7.091H317.4Z"></path><path class="cls-3" d="M325.6,229.333h-5.779v-.977H325.6Zm7.555,9.779c.368,0,.448-.32.48-2.481a2.827,2.827,0,0,0,1.024.464c-.1,2.465-.384,3.058-1.376,3.058h-1.329c-1.088,0-1.328-.337-1.328-1.522V233.91h-1.441c-.224,2.817-.832,5.122-3.281,6.467a3.607,3.607,0,0,0-.753-.9v.065h-3.569v.719h-1.04v-5.345h4.609v4.513c2.193-1.12,2.658-3.1,2.85-5.522h-1.7v-5.3h1.5a12.522,12.522,0,0,0-1.153-2.529l1.024-.336a9.64,9.64,0,0,1,1.249,2.56l-.832.305h4.033l-.9-.288a16.212,16.212,0,0,0,1.1-2.673l1.217.352c-.432.913-.912,1.937-1.313,2.609h1.649v5.3h-2.161v4.706c0,.432.048.5.4.5Zm-8.1-7.6h-4.481v-.944h4.481Zm-4.481,1.233h4.481v.944h-4.481Zm4.466-5.555h-4.371v-.96h4.371ZM324.1,235.9h-2.513v2.673H324.1Zm3.361-3.025h5.251v-3.2h-5.251Z"></path><path class="cls-3" d="M337.6,236.135v1.472h-1.12V226.659H341.7v9.476Zm0-8.4v3.025h2.993v-3.025Zm2.993,7.3v-3.186H337.6v3.186Zm9.348,3.681c0,.753-.16,1.121-.672,1.329a10.167,10.167,0,0,1-2.753.208,4.09,4.09,0,0,0-.449-1.153c1.041.033,2.049.016,2.305.016.3-.016.417-.112.417-.4V235.19h-4.722a8.163,8.163,0,0,1-2.978,5.2,4.638,4.638,0,0,0-.88-.815c2.689-2.066,2.961-5.074,2.961-7.556v-5.666h6.771Zm-1.152-4.61v-2.8h-4.466v.72a18.81,18.81,0,0,1-.1,2.081Zm-4.466-6.627v2.738h4.466v-2.738Z"></path><path class="cls-3" d="M359.635,225.7a17.26,17.26,0,0,0,6.979,5.474,6.415,6.415,0,0,0-.768,1.056,19.628,19.628,0,0,1-6.755-5.393,18.315,18.315,0,0,1-6.61,5.458,3.748,3.748,0,0,0-.689-.945,16.816,16.816,0,0,0,6.627-5.65Zm-7.01,7.955h13.157v1.1h-7.507c-.561,1.185-1.249,2.561-1.889,3.682,1.985-.064,4.242-.144,6.483-.24a24.612,24.612,0,0,0-2.113-2.161l1.008-.544a21.271,21.271,0,0,1,3.762,4.178l-1.073.656a9.916,9.916,0,0,0-.736-1.073c-3.921.192-8.067.369-10.8.464l-.16-1.169c.688-.015,1.488-.031,2.353-.063a30.29,30.29,0,0,0,1.728-3.73h-4.209Zm10.292-3.041V231.7h-7.571v-1.088Z"></path><path class="cls-3" d="M371.106,228.1a37.08,37.08,0,0,0-.8,6.131,17.564,17.564,0,0,0,.144,2.241c.272-.72.657-1.68.929-2.337l.672.512a32.671,32.671,0,0,0-1.136,3.586,3.035,3.035,0,0,0-.08.72c.015.177.031.4.047.56l-1.152.08a20.157,20.157,0,0,1-.592-5.138,45.02,45.02,0,0,1,.72-6.418,7,7,0,0,0,.112-1.137l1.425.128C371.314,227.3,371.17,227.811,371.106,228.1Zm3.729,8.148c0,.736.528,1.44,2.705,1.44a17.662,17.662,0,0,0,3.97-.416l.032,1.345a21.707,21.707,0,0,1-4,.336c-2.689,0-3.889-.9-3.889-2.4a8.642,8.642,0,0,1,.271-1.888l1.153.111A5.6,5.6,0,0,0,374.835,236.247Zm6.194-8v1.3a37.828,37.828,0,0,1-6.578,0v-1.282A27.341,27.341,0,0,0,381.029,228.244Z"></path><path class="cls-3" d="M386.945,236.263c0,1.233,1.233,2.065,3.794,2.065a20.169,20.169,0,0,0,5.475-.624l.015,1.376a22.566,22.566,0,0,1-5.458.56c-3.249,0-5.138-1.072-5.138-3.089a9.032,9.032,0,0,1,.336-2.225l1.3.128A5.686,5.686,0,0,0,386.945,236.263Zm3.906-8.067a42.093,42.093,0,0,0,4.322-.225v1.313c-1.088.08-2.834.192-4.306.192-1.616,0-2.977-.064-4.241-.176V228A40.284,40.284,0,0,0,390.851,228.2Zm6.083.224-.865.4a16.612,16.612,0,0,0-1.313-2.241l.865-.368A25.358,25.358,0,0,1,396.934,228.42Zm1.808-.657-.88.385a14.674,14.674,0,0,0-1.329-2.209l.849-.368A23.448,23.448,0,0,1,398.742,227.763Z"></path><path class="cls-3" d="M410.26,231.845a11.643,11.643,0,0,0,4.37,3.074,4.787,4.787,0,0,0-.784.927,12.84,12.84,0,0,1-4.9-4H405.41a12.983,12.983,0,0,1-5.026,4.081,6.761,6.761,0,0,0-.88-.927,11.53,11.53,0,0,0,4.466-3.154h-3.922v-1.024h4.69a9.481,9.481,0,0,0,.785-1.425c-1.777.048-3.41.1-4.723.128l-.144-1.088,2.658-.049a18.368,18.368,0,0,0,1.729-2.72l1.28.352c-.512.768-1.121,1.632-1.7,2.337,1.873-.032,3.954-.08,6.019-.144-.593-.464-1.217-.928-1.793-1.313l.928-.56a20.2,20.2,0,0,1,4.05,3.265l-.976.656a11.689,11.689,0,0,0-1.089-1.1c-1.649.064-3.345.128-4.946.192a14.145,14.145,0,0,1-.736,1.473h8.211v1.024Zm2.113,4.914c-1.936,1.985-5.586,3.089-9.619,3.618a3.878,3.878,0,0,0-.561-.993c3.858-.416,7.411-1.392,9.156-3.121Zm-2.144-1.825a16.866,16.866,0,0,1-6.467,2.738,4.058,4.058,0,0,0-.656-.849,16.924,16.924,0,0,0,6.162-2.353Zm-1.681-1.872a15.029,15.029,0,0,1-4.674,2.128,4.26,4.26,0,0,0-.7-.72,14.9,14.9,0,0,0,4.449-1.856Z"></path><path class="cls-3" d="M423,229.284c-.128,7.075-.24,9.4-.736,10.084a1.269,1.269,0,0,1-1.057.608,10.02,10.02,0,0,1-1.872.017,3.059,3.059,0,0,0-.352-1.2c.736.064,1.424.064,1.712.064a.463.463,0,0,0,.528-.256c.369-.448.513-2.625.625-8.756h-2.417c-.144,4.29-.689,8.116-2.849,10.453a3.671,3.671,0,0,0-.9-.817c1.985-2.1,2.465-5.634,2.593-9.636h-2.208v-1.169h2.24c.016-.912.016-1.839.016-2.784h1.169c0,.945-.016,1.872-.032,2.784H423Zm6.723-1.633v12.277h-1.185v-1.056h-3.105v1.169h-1.12v-12.39Zm-1.185,10.085V228.8h-3.105v8.932Z"></path><path class="cls-3" d="M439.683,239.56l-.752-1.184a12.107,12.107,0,0,0,1.377-.208,4.833,4.833,0,0,0,4.065-4.754,4.457,4.457,0,0,0-4.273-4.642,31.361,31.361,0,0,1-.961,4.609c-.976,3.3-2.241,4.979-3.729,4.979-1.425,0-2.849-1.633-2.849-4.273a6.822,6.822,0,0,1,6.994-6.515,5.8,5.8,0,0,1,6.131,5.89C445.686,236.823,443.477,239.064,439.683,239.56Zm-4.225-2.673c.752,0,1.6-1.072,2.417-3.777a26.188,26.188,0,0,0,.9-4.322,5.585,5.585,0,0,0-4.962,5.186C433.809,235.991,434.737,236.887,435.458,236.887Z"></path><path class="cls-3" d="M455.94,231.429a15.036,15.036,0,0,0-4.37.8c-.5.16-.961.336-1.345.5l-.416-1.488a10.089,10.089,0,0,0,1.473-.24,21.174,21.174,0,0,1,4.786-.769c2.272,0,3.969,1.265,3.969,3.554,0,3.474-3.121,5.427-7.267,6.051l-.72-1.217c3.89-.481,6.626-2.017,6.626-4.882C458.676,232.389,457.588,231.429,455.94,231.429Zm2.816-4.162-.191,1.233c-1.777-.113-5.011-.432-6.819-.752l.208-1.217A43.129,43.129,0,0,0,458.756,227.267Z"></path><path class="cls-3" d="M473.908,231.733c-.608.561-2.417,2.241-3.009,2.85a2.779,2.779,0,0,1,.625.031,1.457,1.457,0,0,1,1.216,1.153c.144.464.368,1.264.528,1.792.192.609.576.864,1.393.864a13.816,13.816,0,0,0,3.025-.319l-.08,1.344a23.907,23.907,0,0,1-3.009.24c-1.281,0-2.081-.3-2.417-1.36-.16-.481-.4-1.425-.545-1.889a1.061,1.061,0,0,0-.976-.849,1.708,1.708,0,0,0-1.184.577,44.035,44.035,0,0,0-3.25,3.569l-1.216-.848c.192-.176.48-.416.8-.72.64-.657,4.994-5.01,6.579-6.595-1.265.08-3.954.3-4.93.385-.529.048-.945.095-1.3.159l-.112-1.408a12.2,12.2,0,0,0,1.361.032c.912-.017,4.641-.273,5.842-.416a3.369,3.369,0,0,0,.768-.177l.769.865A9.2,9.2,0,0,0,473.908,231.733Zm.56-4.449-.175,1.183c-1.6-.143-4.4-.511-6.355-.864l.208-1.168A53.29,53.29,0,0,0,474.468,227.284Z"></path><path class="cls-3" d="M479.984,236.391l1.041-.912a30.048,30.048,0,0,1,3.585,3.553l-1.088.929A26.627,26.627,0,0,0,479.984,236.391Z"></path><path class="cls-3" d="M87.779,259.3H93v9H91.765v-.705H81.057v-1.169H91.765v-2.48H81.889v-1.152h9.876v-2.322h-10.4V259.3H86.5v-5.634h1.28Zm-4.593-.8a15.322,15.322,0,0,0-2.033-3.7l1.04-.432a14.834,14.834,0,0,1,2.129,3.634Zm10.02-3.842a34.681,34.681,0,0,1-2.289,3.954l-1.025-.416a23.211,23.211,0,0,0,2.065-3.97Z"></path><path class="cls-3" d="M101.8,263.687c-.416-.465-1.3-1.361-2.017-2.033v6.627H98.609V262.07a15.027,15.027,0,0,1-2.449,2A5.354,5.354,0,0,0,95.536,263a13.882,13.882,0,0,0,5.01-5.25H96.1V256.66h2.513v-2.978h1.169v2.978h1.393l.208-.048.672.448a14.4,14.4,0,0,1-2.081,3.489c.752.592,2.161,1.826,2.561,2.177Zm8.819,2.977v1.169h-8.963v-1.169H105.7v-6.643h-3.425v-1.152H105.7V253.8h1.185v5.074h3.409v1.152h-3.409v6.643Z"></path><path class="cls-3" d="M119.683,267.56l-.752-1.184a12.107,12.107,0,0,0,1.377-.208,4.833,4.833,0,0,0,4.065-4.754,4.457,4.457,0,0,0-4.273-4.642,31.361,31.361,0,0,1-.961,4.609c-.976,3.3-2.241,4.979-3.729,4.979-1.425,0-2.849-1.633-2.849-4.273a6.822,6.822,0,0,1,6.994-6.515,5.8,5.8,0,0,1,6.131,5.89C125.686,264.823,123.477,267.064,119.683,267.56Zm-4.225-2.673c.752,0,1.6-1.072,2.417-3.777a26.188,26.188,0,0,0,.9-4.322,5.585,5.585,0,0,0-4.962,5.186C113.809,263.991,114.737,264.887,115.458,264.887Z"></path><path class="cls-3" d="M131.217,264.1c0,1.216,1.249,2.065,3.81,2.065a19.5,19.5,0,0,0,5.475-.64l.015,1.376a22.756,22.756,0,0,1-5.458.561c-3.249,0-5.138-1.073-5.138-3.09a10.152,10.152,0,0,1,.336-2.225l1.3.128A5.893,5.893,0,0,0,131.217,264.1Zm3.922-8.067c1.537,0,3.17-.113,4.322-.225v1.313c-1.088.08-2.833.192-4.322.192-1.6,0-2.961-.08-4.225-.176v-1.312A35.992,35.992,0,0,0,135.139,256.036Z"></path><path class="cls-3" d="M150.227,259.365c1.5-.912,3.233-1.761,4.113-2.241a8.687,8.687,0,0,0,1.137-.752l.7,1.136c-.368.224-.768.432-1.232.672a53.344,53.344,0,0,0-4.866,2.658c-1.489.96-2.385,2.016-2.385,3.233,0,1.328,1.265,2.161,3.793,2.161a23.815,23.815,0,0,0,5.122-.545v1.425a31.515,31.515,0,0,1-5.058.4c-3.009,0-5.186-.9-5.186-3.3,0-1.649,1.057-2.945,2.769-4.146a53.677,53.677,0,0,1-2.32-4.93l1.264-.528A34.484,34.484,0,0,0,150.227,259.365Z"></path><path class="cls-3" d="M166.051,256.259a39.211,39.211,0,0,0,4.882-.5l-.016,1.185a46.111,46.111,0,0,1-5.314.448,12.774,12.774,0,0,1-1.441,2.482,4.575,4.575,0,0,1,2.225-.593,2.068,2.068,0,0,1,2.145,1.44c1.088-.528,2.065-.912,2.9-1.3.48-.208.864-.384,1.312-.625l.529,1.2a13.7,13.7,0,0,0-1.425.511c-.9.336-2.033.8-3.249,1.377.016.928.032,2.289.048,3.073h-1.233c.032-.608.048-1.648.048-2.5-1.488.785-2.529,1.633-2.529,2.69,0,1.248,1.249,1.44,2.9,1.44a28.386,28.386,0,0,0,4.37-.385l-.032,1.282a37.827,37.827,0,0,1-4.386.288c-2.289,0-4.129-.5-4.129-2.449,0-1.889,1.9-3.074,3.777-4.05a1.334,1.334,0,0,0-1.456-.992,4.219,4.219,0,0,0-2.754,1.168,21.193,21.193,0,0,0-1.456,1.665l-1.089-.8a16.859,16.859,0,0,0,3.7-4.9h-.7c-.688,0-1.745-.032-2.625-.095v-1.2a23.2,23.2,0,0,0,2.705.176c.336,0,.7,0,1.056-.015a8.166,8.166,0,0,0,.4-2l1.313.112A16.334,16.334,0,0,1,166.051,256.259Z"></path><path class="cls-3" d="M180.4,259.557c0,.16,0,.352-.016.544H183.4v1.137h-3.073c-.032.352-.1.72-.16,1.072.752.752,2.689,2.913,3.185,3.474l-.8,1.008c-.544-.785-1.793-2.289-2.657-3.265a8.73,8.73,0,0,1-3.313,4.722,3.974,3.974,0,0,0-.833-.881,8.058,8.058,0,0,0,3.394-6.13h-3.217V260.1h3.3v-3.185H178a11.873,11.873,0,0,1-1.3,2.513,6.268,6.268,0,0,0-.977-.688,12.823,12.823,0,0,0,1.985-5.074l1.152.224a16.767,16.767,0,0,1-.5,1.92h4.562v1.1H180.4Zm9.22-4.5v12.614h-1.185v-1.105H185.06v1.265h-1.153V255.059Zm-1.185,10.389v-9.269H185.06v9.269Z"></path><path class="cls-3" d="M195.217,260.277a21.812,21.812,0,0,1,5.651-1.312c2.273,0,3.906,1.361,3.906,3.553,0,3.073-2.962,4.642-7.284,4.914l-.512-1.232c3.458-.112,6.5-1.1,6.5-3.714a2.449,2.449,0,0,0-2.705-2.369c-1.985,0-5.49,1.473-6.515,1.873l-.544-1.313A14.791,14.791,0,0,0,195.217,260.277Z"></path><path class="cls-3" d="M209.937,256.356c1.041-.112,4.066-.416,7.011-.656,1.745-.16,3.249-.24,4.322-.288v1.28a13.423,13.423,0,0,0-3.138.256,5.629,5.629,0,0,0-3.665,5.058c0,3.137,2.913,4.129,5.522,4.226l-.464,1.328c-2.961-.112-6.338-1.7-6.338-5.265a6.5,6.5,0,0,1,2.993-5.411c-1.713.192-5.8.577-7.524.945l-.144-1.393C209.121,256.42,209.633,256.387,209.937,256.356Z"></path><path class="cls-3" d="M226.593,257.444c-.016,1.009,0,2.465.112,3.794.257,2.673,1.041,4.449,2.177,4.449.817,0,1.569-1.664,1.985-3.264l1.009,1.135c-.961,2.722-1.937,3.651-3.01,3.651-1.52,0-2.977-1.5-3.409-5.651-.144-1.392-.176-3.345-.176-4.274a7.217,7.217,0,0,0-.112-1.424l1.552.031A12.213,12.213,0,0,0,226.593,257.444Zm11.285,6.851-1.281.528c-.288-2.9-1.248-6.178-2.785-8.051l1.249-.432A17.208,17.208,0,0,1,237.878,264.3Z"></path><path class="cls-3" d="M245.955,255.748c-.064.336-.144.752-.241,1.184a23.687,23.687,0,0,0,3.074-.576v1.265a30.991,30.991,0,0,1-3.329.544c-.144.7-.321,1.44-.513,2.144a48.885,48.885,0,0,1-2.5,7.331l-1.408-.48a34.931,34.931,0,0,0,2.689-7.154c.144-.529.288-1.137.416-1.713-.528.032-1.024.047-1.473.047-.7,0-1.28-.032-1.856-.063l-.048-1.249a14.5,14.5,0,0,0,1.921.112c.527,0,1.1-.032,1.728-.08.112-.56.192-1.072.24-1.392a6.407,6.407,0,0,0,.048-1.329l1.537.128C246.147,254.819,246.019,255.427,245.955,255.748Zm1.9,8.931c0,.752.417,1.489,2.706,1.489a15.41,15.41,0,0,0,3.121-.321l-.048,1.3a21.289,21.289,0,0,1-3.09.224c-2.528,0-3.905-.768-3.905-2.353a9.991,9.991,0,0,1,.24-1.888l1.2.112A5.663,5.663,0,0,0,247.859,264.679Zm2.817-5.474a25.648,25.648,0,0,1,2.77.144l-.032,1.216a20.433,20.433,0,0,0-2.689-.191,26.3,26.3,0,0,0-2.977.16v-1.185C248.6,259.269,249.652,259.205,250.676,259.205Z"></path><path class="cls-3" d="M261.475,255.971c-.065.353-.16.753-.241,1.185a26.77,26.77,0,0,0,3.074-.56v1.248a30.519,30.519,0,0,1-3.33.544c-.16.7-.32,1.441-.512,2.146a48.5,48.5,0,0,1-2.5,7.331l-1.408-.481a34.954,34.954,0,0,0,2.689-7.155c.144-.528.288-1.137.416-1.713-.528.032-1.025.049-1.473.049-.7,0-1.28-.032-1.856-.064l-.049-1.248a14.672,14.672,0,0,0,1.921.111c.528,0,1.105-.031,1.729-.08.112-.56.192-1.072.24-1.393a6.278,6.278,0,0,0,.048-1.312l1.537.128C261.667,255.044,261.539,255.651,261.475,255.971Zm1.9,8.932c0,.753.416,1.489,2.7,1.489a15.418,15.418,0,0,0,3.121-.32l-.048,1.3a20.967,20.967,0,0,1-3.09.24c-2.529,0-3.9-.784-3.9-2.369a8.991,8.991,0,0,1,.24-1.889l1.2.113A5.652,5.652,0,0,0,263.38,264.9Zm2.816-5.474a25.615,25.615,0,0,1,2.769.144l-.031,1.217a20.088,20.088,0,0,0-2.69-.193,26.563,26.563,0,0,0-2.977.176v-1.2C264.116,259.493,265.172,259.429,266.2,259.429Zm2.353-2.033-.864.384a18.25,18.25,0,0,0-1.3-2.225l.849-.368A17.855,17.855,0,0,1,268.549,257.4Zm1.809-.656-.864.384a17.031,17.031,0,0,0-1.329-2.225l.833-.368A20.494,20.494,0,0,1,270.358,256.74Z"></path><path class="cls-3" d="M274.962,255.86c-.513,2.32-1.057,5.826-.449,8.451.224-.673.56-1.648.865-2.449l.688.416c-.384,1.121-.864,2.753-1.04,3.538a2.416,2.416,0,0,0-.081.72c.017.16.033.384.049.544l-1.089.129a17.851,17.851,0,0,1-.848-5.075,43.233,43.233,0,0,1,.608-6.386,6.648,6.648,0,0,0,.08-1.073l1.489.144C275.153,255.124,275.042,255.555,274.962,255.86Zm8.323-.337c-.016.353,0,1.425.016,2.417a18.81,18.81,0,0,0,2.609-.368v1.312c-.737.113-1.633.208-2.593.273v.56c0,3.682,0,6.29-3.394,8.291l-1.168-.912a5.264,5.264,0,0,0,1.553-.992c1.712-1.5,1.808-3.313,1.808-6.387v-.5c-.688.032-1.376.048-2.032.048-.769,0-1.905-.048-2.594-.1v-1.281a17.826,17.826,0,0,0,2.578.176c.656,0,1.344-.016,2.017-.048-.017-1.008-.065-2.08-.1-2.48a9.692,9.692,0,0,0-.144-.961h1.489A8.255,8.255,0,0,0,283.285,255.523Z"></path><path class="cls-3" d="M291.778,254.355l1.5.048c-.08.4-.208,1.3-.319,2.417.031-.016.063-.016.095-.032l.465.56c-.208.288-.48.72-.721,1.12-.032.305-.048.609-.08.929,1.249-1.152,3.314-2.7,4.93-2.7a1.986,1.986,0,0,1,2.225,2.145c0,1.6-.592,4.353-.592,5.986,0,.528.256.976.832.976a3.538,3.538,0,0,0,2.417-1.328l.208,1.376a4.148,4.148,0,0,1-2.945,1.329c-1.056,0-1.777-.688-1.777-2.016,0-1.778.609-4.4.609-5.971a1.15,1.15,0,0,0-1.3-1.312c-1.3,0-3.233,1.5-4.706,3.073-.032.672-.048,1.312-.048,1.889,0,1.456-.016,2.432.064,3.857.016.288.048.688.08.977H291.33c.031-.289.048-.689.048-.945.016-1.537.016-2.353.048-4.1,0-.161.016-.385.016-.641-.785,1.184-1.841,2.7-2.609,3.794l-.817-1.105c.9-1.121,2.754-3.617,3.554-4.866.032-.528.08-1.072.112-1.585-.72.1-2.129.288-3.137.433l-.128-1.313c.352.016.656,0,1.04-.015.528-.033,1.472-.129,2.305-.273.048-.753.08-1.345.08-1.52A7.659,7.659,0,0,0,291.778,254.355Z"></path><path class="cls-3" d="M306.577,256.084a39.907,39.907,0,0,0-.8,6.45,15.072,15.072,0,0,0,.16,2.241c.256-.736.64-1.713.912-2.352l.656.511c-.383,1.1-.976,2.753-1.152,3.538a3.875,3.875,0,0,0-.064.72c.016.145.032.385.048.561l-1.12.08a19.49,19.49,0,0,1-.608-5.075,49.537,49.537,0,0,1,.736-6.722,9.6,9.6,0,0,0,.1-1.153l1.408.128A8.47,8.47,0,0,0,306.577,256.084Zm8.068-.208c-.016.431-.033,1.184-.033,1.936a27.059,27.059,0,0,0,2.77-.368v1.232c-.88.145-1.809.241-2.77.305.017,1.616.129,3.217.193,4.562a10.464,10.464,0,0,1,3.153,2.064l-.688,1.073a13.062,13.062,0,0,0-2.417-1.857v.32c0,1.313-.609,2.61-2.769,2.61-2.145,0-3.314-.881-3.314-2.322,0-1.328,1.185-2.4,3.281-2.4a7.414,7.414,0,0,1,1.489.143c-.048-1.232-.144-2.8-.16-4.129-.512.016-1.024.032-1.537.032-.912,0-1.744-.032-2.689-.1v-1.2c.913.08,1.777.129,2.7.129.513,0,1.009-.017,1.521-.032v-1.986c0-.271-.032-.7-.064-.992h1.44A7.168,7.168,0,0,0,314.645,255.876Zm-2.786,10.692c1.345,0,1.745-.673,1.745-1.745,0-.16,0-.336-.016-.544a5.079,5.079,0,0,0-1.648-.256c-1.185,0-2.033.512-2.033,1.3C309.907,266.135,310.707,266.568,311.859,266.568Zm5.219-9.956-.817.288a24.144,24.144,0,0,0-.912-2.273l.784-.24A22.971,22.971,0,0,1,317.078,256.612Zm1.632-.513-.816.288a17.677,17.677,0,0,0-.945-2.24l.785-.256C318.038,254.483,318.47,255.46,318.71,256.1Z"></path><path class="cls-3" d="M334.358,259.3h-3.265l.368.1c-.432.752-.913,1.585-1.345,2.193h3.778v1.056h-6.179v1.873h5.427v1.057h-5.427V268.3H326.5v-2.721h-5.234v-1.057H326.5v-1.873h-6.082V261.59H324a11.657,11.657,0,0,0-.976-2.1l.672-.192H320v-1.073h6.5V256.42h-4.85v-1.04h4.85v-1.7h1.216v1.7h4.978v1.04h-4.978v1.808h6.643Zm-5.41,2.241a17.281,17.281,0,0,0,1.12-2.241h-5.922a8.873,8.873,0,0,1,1.041,2.177l-.337.112h4.258Z"></path><path class="cls-3" d="M338.593,257.444c-.016,1.009,0,2.465.112,3.794.257,2.673,1.041,4.449,2.177,4.449.817,0,1.569-1.664,1.985-3.264l1.009,1.135c-.961,2.722-1.937,3.651-3.01,3.651-1.52,0-2.977-1.5-3.409-5.651-.144-1.392-.176-3.345-.176-4.274a7.217,7.217,0,0,0-.112-1.424l1.552.031A12.213,12.213,0,0,0,338.593,257.444Zm11.285,6.851-1.281.528c-.288-2.9-1.248-6.178-2.785-8.051l1.249-.432A17.208,17.208,0,0,1,349.878,264.3Z"></path><path class="cls-3" d="M353.841,256.452c1.04-.112,4.066-.416,7.011-.656,1.745-.145,3.249-.241,4.321-.289v1.281a13.415,13.415,0,0,0-3.137.256,5.634,5.634,0,0,0-3.665,5.074c0,3.121,2.913,4.114,5.522,4.21l-.464,1.328c-2.961-.111-6.339-1.7-6.339-5.266a6.5,6.5,0,0,1,2.994-5.41c-1.713.193-5.8.576-7.523.944l-.144-1.392C353.025,256.516,353.537,256.484,353.841,256.452Zm10.34,4.53-.816.384a14.82,14.82,0,0,0-1.313-2.257l.817-.353A19.024,19.024,0,0,1,364.181,260.982Zm1.825-.688-.833.4a14.709,14.709,0,0,0-1.344-2.241l.784-.368A20.986,20.986,0,0,1,366.006,260.294Z"></path><path class="cls-3" d="M377.108,255.4c0,.24-.016.609-.016,1.041h.24c1.953,0,3.922.016,4.69.016l-.016,1.184c-.9-.047-2.353-.08-4.69-.08h-.224c0,.912.016,1.905.032,2.641a3.894,3.894,0,0,1,.512,2.049c0,2.161-1.056,4.562-4.786,5.682l-1.072-1.056c2.129-.48,3.6-1.376,4.242-2.833a2.259,2.259,0,0,1-1.393.432A2.548,2.548,0,0,1,372,261.8a2.794,2.794,0,0,1,2.817-2.785,3.214,3.214,0,0,1,1.073.176c0-.48,0-1.057-.016-1.617-2.433.017-5.155.128-7.155.272l-.032-1.232c1.776-.032,4.786-.128,7.17-.16,0-.448-.016-.832-.032-1.057-.015-.416-.079-.88-.095-1.008h1.456C377.156,254.563,377.124,255.187,377.108,255.4Zm-2.273,7.972c.944,0,1.553-.753,1.409-2.274a1.435,1.435,0,0,0-1.425-1.007,1.631,1.631,0,0,0-1.617,1.7A1.543,1.543,0,0,0,374.835,263.367Z"></path><path class="cls-3" d="M388.706,265.591a2.441,2.441,0,1,1-2.449-2.432A2.439,2.439,0,0,1,388.706,265.591Zm-.816,0a1.625,1.625,0,1,0-1.633,1.633A1.626,1.626,0,0,0,387.89,265.591Z"></path><path class="cls-3" d="M83.922,283.38c.848,0,2.945-.113,3.617-.161a3.31,3.31,0,0,0,.8-.175l.8.656a6.707,6.707,0,0,0-.416.528c-.448.72-1.153,2.353-1.825,3.841a14.4,14.4,0,0,1,4.4,1.281c.064-.4.1-.8.128-1.184.016-.481.032-1.025,0-1.473l1.3.144a21.333,21.333,0,0,1-.336,3.089,20.793,20.793,0,0,1,1.937,1.233l-.592,1.376a16.872,16.872,0,0,0-1.665-1.265,7.551,7.551,0,0,1-4.21,4.754l-1.056-.88A6.87,6.87,0,0,0,91,290.631a11.482,11.482,0,0,0-4.578-1.473,34.615,34.615,0,0,1-2.017,4.193,2.252,2.252,0,0,1-2.017,1.105,2.04,2.04,0,0,1-2.081-2.193c0-2.353,2.177-4.162,5.33-4.242.561-1.265,1.169-2.657,1.665-3.649-.64.032-2.593.112-3.329.16-.352.016-.8.064-1.185.1l-.064-1.3C83.138,283.363,83.6,283.38,83.922,283.38Zm-1.489,9.811a1.152,1.152,0,0,0,.961-.56,21.349,21.349,0,0,0,1.744-3.49c-2.337.177-3.665,1.585-3.665,2.962A.98.98,0,0,0,82.433,293.191Z"></path><path class="cls-3" d="M101.747,284.836a15.5,15.5,0,0,0,2.513-.592l.032,1.2a21.9,21.9,0,0,1-2.913.593,28.344,28.344,0,0,1-3.49,6.755l-1.233-.641a23.666,23.666,0,0,0,3.426-5.986c-.48.032-.96.048-1.425.048-.592,0-1.264-.016-1.872-.048l-.08-1.2a15.279,15.279,0,0,0,1.952.111c.577,0,1.185-.032,1.809-.08a13.362,13.362,0,0,0,.5-2.769l1.408.128C102.227,282.931,102,283.908,101.747,284.836Zm4.385,4.194c.017.592.081,1.633.112,2.625a10.989,10.989,0,0,1,3.33,1.984l-.689,1.089a11.961,11.961,0,0,0-2.592-1.841c.016.256.016.481.016.672,0,1.281-.817,2.322-2.8,2.322-1.76,0-3.2-.721-3.2-2.3,0-1.473,1.393-2.4,3.2-2.4a7.089,7.089,0,0,1,1.569.161c-.064-1.313-.144-2.9-.176-4.034h1.249C106.116,287.958,106.116,288.454,106.132,289.03Zm-2.785,5.7c1.329,0,1.777-.7,1.777-1.585,0-.208,0-.448-.016-.72a5.549,5.549,0,0,0-1.649-.24c-1.168,0-1.969.544-1.969,1.281S102.1,294.728,103.347,294.728Zm2.337-9.2.656-.976a24.147,24.147,0,0,1,3.73,2.128l-.72,1.057A18.834,18.834,0,0,0,105.684,285.524Z"></path><path class="cls-3" d="M119.139,282.467l1.361-.176a19.127,19.127,0,0,0,.736,2.737,20.562,20.562,0,0,0,3.569-.784l.144,1.248a23.629,23.629,0,0,1-3.313.656,17.015,17.015,0,0,0,1.793,3.3c.224.3.464.576.7.849l-.656.895a36.438,36.438,0,0,0-3.858-.432l.1-1.072c.9.08,2.082.176,2.658.24a21.352,21.352,0,0,1-1.937-3.649,41.258,41.258,0,0,1-6.723-.032l-.032-1.28a33.455,33.455,0,0,0,6.323.191c-.192-.592-.353-1.072-.465-1.441C119.427,283.38,119.283,282.883,119.139,282.467Zm-3.745,9.828c0,1.521,1.392,2.193,3.761,2.209a17.847,17.847,0,0,0,4.13-.4l-.064,1.28a23.253,23.253,0,0,1-4.13.352c-3.041-.016-4.962-1.12-4.962-3.3a6.226,6.226,0,0,1,.769-2.657l1.248.288A4.122,4.122,0,0,0,115.394,292.3Z"></path><path class="cls-3" d="M136.228,283.427c0,.208-.016.561-.016.977a39.557,39.557,0,0,0,4.337-.433l-.016,1.169c-1.264.144-2.785.288-4.321.368v2.241a39.832,39.832,0,0,0,4.465-.432l-.016,1.2c-1.5.193-2.913.321-4.433.368.032.833.08,1.7.111,2.465a12.749,12.749,0,0,1,4.675,2.5l-.737,1.137a11.792,11.792,0,0,0-3.873-2.417c.016.4.032.736.032.992,0,1.1-.737,2.241-2.817,2.241-2.305,0-3.554-.816-3.554-2.352,0-1.457,1.393-2.449,3.7-2.449a9.305,9.305,0,0,1,1.344.095c-.016-.719-.048-1.488-.064-2.176h-.912c-1.088,0-2.849-.1-4-.224l-.016-1.2a29.636,29.636,0,0,0,4.034.305h.864v-2.242h-.7c-1.12,0-3.09-.16-4.1-.272l-.016-1.185a28.951,28.951,0,0,0,4.1.353h.736v-1.137a8.8,8.8,0,0,0-.064-.96h1.361A8.025,8.025,0,0,0,136.228,283.427Zm-2.753,11.253c.912,0,1.7-.288,1.7-1.392,0-.273-.016-.657-.016-1.073a7.1,7.1,0,0,0-1.552-.16c-1.521,0-2.353.592-2.353,1.328S131.89,294.68,133.475,294.68Z"></path><path class="cls-3" d="M151.683,295.56l-.752-1.184a12.107,12.107,0,0,0,1.377-.208,4.833,4.833,0,0,0,4.065-4.754,4.457,4.457,0,0,0-4.273-4.642,31.361,31.361,0,0,1-.961,4.609c-.976,3.3-2.241,4.979-3.729,4.979-1.425,0-2.849-1.633-2.849-4.273a6.822,6.822,0,0,1,6.994-6.515,5.8,5.8,0,0,1,6.131,5.89C157.686,292.823,155.477,295.064,151.683,295.56Zm-4.225-2.673c.752,0,1.6-1.072,2.417-3.777a26.188,26.188,0,0,0,.9-4.322,5.585,5.585,0,0,0-4.962,5.186C145.809,291.991,146.737,292.887,147.458,292.887Z"></path><path class="cls-3" d="M162.945,292.263c0,1.233,1.233,2.065,3.794,2.065a20.169,20.169,0,0,0,5.475-.624l.015,1.376a22.566,22.566,0,0,1-5.458.56c-3.249,0-5.138-1.072-5.138-3.089a9.032,9.032,0,0,1,.336-2.225l1.3.128A5.686,5.686,0,0,0,162.945,292.263Zm3.906-8.067a42.093,42.093,0,0,0,4.322-.225v1.313c-1.088.08-2.834.192-4.306.192-1.616,0-2.977-.064-4.241-.176V284A40.284,40.284,0,0,0,166.851,284.2Zm6.083.224-.865.4a16.612,16.612,0,0,0-1.313-2.241l.865-.368A25.358,25.358,0,0,1,172.934,284.42Zm1.808-.657-.88.385a14.674,14.674,0,0,0-1.329-2.209l.849-.368A23.448,23.448,0,0,1,174.742,283.763Z"></path><path class="cls-3" d="M178.305,284.868v2.993c0,2.434-.224,6.019-1.584,8.436a4.458,4.458,0,0,0-1.009-.672c1.3-2.289,1.425-5.491,1.425-7.764v-4.13h5.874v-2.049h1.217v2.049h6.1v1.137Zm.016,9.412a12.018,12.018,0,0,0,1.409-4.85l1.088.24a13.421,13.421,0,0,1-1.44,5.09Zm7.6.608c.657,0,.752-.4.8-2.737a3.8,3.8,0,0,0,1.072.48c-.128,2.641-.432,3.345-1.792,3.345h-2.337c-1.393,0-1.761-.4-1.761-1.728v-6.179h1.168v6.179c0,.544.128.64.737.64Zm-.1-6.258a19.773,19.773,0,0,0-3.681-2.465l.816-.769a19.514,19.514,0,0,1,3.713,2.353Zm2.449.448a17.227,17.227,0,0,1,2.337,5.2l-1.136.5a18.125,18.125,0,0,0-2.257-5.267Z"></path><path class="cls-3" d="M202.756,291a10.684,10.684,0,0,0,3.874,1.888,4.241,4.241,0,0,0-.768.929,11.165,11.165,0,0,1-2.289-1.041l-.016.145c-.176,1.808-.352,2.608-.7,2.928a1.275,1.275,0,0,1-.961.353c-.384.032-1.12.015-1.921-.017a2.6,2.6,0,0,0-.272-.975,16.608,16.608,0,0,0,1.729.079.722.722,0,0,0,.528-.128c.176-.176.32-.672.432-1.809h-3.6c-.688,1.489-2.017,2.449-4.8,3.026a2.969,2.969,0,0,0-.592-.929c2.305-.416,3.5-1.1,4.146-2.1H194.4v-.544a17.248,17.248,0,0,1-1.969.865,2.91,2.91,0,0,0-.688-.849,11.444,11.444,0,0,0,3.57-1.824H192.1v-.961h4.226a5.621,5.621,0,0,0,.641-.912h-2.994v-4.37h10.453v4.37h-6.179c-.176.32-.352.608-.56.912h8.547V291Zm-6.866-7.268H192.3v-.975h3.586v-1.074h1.153v1.074H201.2v-1.074h1.169v1.074h3.633v.975h-3.633v.8H201.2v-.8h-4.161v.8H195.89Zm7.2,8.724A8.917,8.917,0,0,1,201.412,291h-4.546a9.4,9.4,0,0,1-1.872,1.456h2.945a6.226,6.226,0,0,0,.272-1.136h1.152c-.064.4-.144.768-.24,1.136Zm-7.987-5.89h8.147v-1.024h-8.147Zm0,1.776h8.147v-1.024h-8.147Z"></path><path class="cls-3" d="M213.619,283.38c-.016.383-.049,1.007-.065,1.728a21.278,21.278,0,0,0,3.3-.641l.032,1.249a29.6,29.6,0,0,1-3.361.561c-.017.752-.033,1.521-.033,2.16V289a12.122,12.122,0,0,1,3.522-.593c2.337,0,4.017,1.265,4.017,3.185,0,1.938-1.216,3.17-3.409,3.7a12.144,12.144,0,0,1-1.985.224l-.448-1.3a8.134,8.134,0,0,0,1.873-.111c1.408-.272,2.689-1.024,2.689-2.5,0-1.361-1.232-2.1-2.753-2.1a10.5,10.5,0,0,0-3.49.625c.033,1.361.064,2.786.064,3.473,0,1.489-.544,1.97-1.408,1.97-1.248,0-3.329-1.234-3.329-2.657,0-1.33,1.664-2.722,3.5-3.506V288.5c0-.641,0-1.393.016-2.1-.448.031-.849.048-1.184.048a17.811,17.811,0,0,1-2.049-.08l-.032-1.217a14.819,14.819,0,0,0,2.049.128c.367,0,.784-.016,1.232-.048,0-.832.016-1.536.016-1.824a8.452,8.452,0,0,0-.08-1.137h1.425A10.009,10.009,0,0,0,213.619,283.38Zm-1.793,10.835c.368,0,.592-.255.592-.784,0-.576-.032-1.664-.048-2.833-1.312.609-2.289,1.537-2.289,2.257C210.081,293.591,211.2,294.215,211.826,294.215Zm10.532-7.827-.656,1.025a20.28,20.28,0,0,0-3.586-2.4l.577-.961A29.326,29.326,0,0,1,222.358,286.388Z"></path><path class="cls-3" d="M228.578,285.636a13.639,13.639,0,0,1-1.281,1.954v8.691h-1.152V288.95a15.644,15.644,0,0,1-1.841,1.761,7.608,7.608,0,0,0-.64-1.169,14.386,14.386,0,0,0,3.874-4.322Zm-.192-3.489a15.661,15.661,0,0,1-3.874,3.81A6.023,6.023,0,0,0,223.9,285a12.188,12.188,0,0,0,3.362-3.281Zm7.859,5.811v1.76h2.129v1.088h-2.129v4.034c0,.72-.16,1.041-.656,1.233a8.435,8.435,0,0,1-2.545.191,4.528,4.528,0,0,0-.384-1.135c.96.031,1.841.031,2.081.015.256-.015.336-.08.336-.3v-4.034h-6.483v-1.088h6.483v-1.76h-6.659v-1.105h4.434V284.82h-3.506v-1.089h3.506v-1.984h1.168v1.984h3.634v1.089H234.02v2.033h4.466v1.105Zm-5.458,3.3a13.457,13.457,0,0,1,1.921,2.752l-1.009.593a12.774,12.774,0,0,0-1.872-2.8Z"></path><path class="cls-3" d="M245.634,283.876c-.047.255-.095.56-.175.928a38.552,38.552,0,0,0,6.242-.768l.016,1.232a54.52,54.52,0,0,1-6.5.672,29.284,29.284,0,0,1-1.008,3.778,7.472,7.472,0,0,1,4.514-1.361c2.545,0,4.033,1.3,4.033,3.17,0,3.329-3.425,4.577-8.291,4.05l-.32-1.265c3.7.512,7.3-.128,7.3-2.754,0-1.2-.992-2.128-2.865-2.128a6.036,6.036,0,0,0-4.722,1.937,3.305,3.305,0,0,0-.5.736l-1.2-.432a26.066,26.066,0,0,0,1.857-5.7H244a29.34,29.34,0,0,1-3.041-.16l-.016-1.248a20.272,20.272,0,0,0,3.041.272h.272c.08-.416.144-.768.176-1.056a7.689,7.689,0,0,0,.064-1.329l1.424.08C245.811,282.964,245.714,283.46,245.634,283.876Z"></path><path class="cls-3" d="M260.45,284.212c-.08,1.808-.192,5.586-.192,7.971,0,1.761,1.1,2.385,2.625,2.385a6.667,6.667,0,0,0,5.73-3.313l.913,1.088a8.043,8.043,0,0,1-6.691,3.538c-2.305,0-3.89-.961-3.89-3.57,0-2.369.161-6.419.161-8.1a8.542,8.542,0,0,0-.128-1.633l1.616.016A13.792,13.792,0,0,0,260.45,284.212Z"></path><path class="cls-3" d="M273.937,284.356c1.041-.112,4.066-.416,7.011-.656,1.745-.16,3.249-.24,4.322-.288v1.28a13.423,13.423,0,0,0-3.138.256,5.629,5.629,0,0,0-3.665,5.058c0,3.137,2.913,4.129,5.522,4.226l-.464,1.328c-2.961-.112-6.338-1.7-6.338-5.265a6.5,6.5,0,0,1,2.993-5.411c-1.713.192-5.8.577-7.524.945l-.144-1.393C273.121,284.42,273.633,284.387,273.937,284.356Z"></path><path class="cls-3" d="M293.619,283.38c-.016.383-.049,1.007-.065,1.728a21.278,21.278,0,0,0,3.3-.641l.032,1.249a29.6,29.6,0,0,1-3.361.561c-.017.752-.033,1.521-.033,2.16V289a12.122,12.122,0,0,1,3.522-.593c2.337,0,4.017,1.265,4.017,3.185,0,1.938-1.216,3.17-3.409,3.7a12.144,12.144,0,0,1-1.985.224l-.448-1.3a8.134,8.134,0,0,0,1.873-.111c1.408-.272,2.689-1.024,2.689-2.5,0-1.361-1.232-2.1-2.753-2.1a10.5,10.5,0,0,0-3.49.625c.033,1.361.064,2.786.064,3.473,0,1.489-.544,1.97-1.408,1.97-1.248,0-3.329-1.234-3.329-2.657,0-1.33,1.664-2.722,3.5-3.506V288.5c0-.641,0-1.393.016-2.1-.448.031-.849.048-1.184.048a17.811,17.811,0,0,1-2.049-.08l-.032-1.217a14.819,14.819,0,0,0,2.049.128c.367,0,.784-.016,1.232-.048,0-.832.016-1.536.016-1.824a8.452,8.452,0,0,0-.08-1.137h1.425A10.009,10.009,0,0,0,293.619,283.38Zm-1.793,10.835c.368,0,.592-.255.592-.784,0-.576-.032-1.664-.048-2.833-1.312.609-2.289,1.537-2.289,2.257C290.081,293.591,291.2,294.215,291.826,294.215Zm10.532-7.827-.656,1.025a20.28,20.28,0,0,0-3.586-2.4l.577-.961A29.326,29.326,0,0,1,302.358,286.388Z"></path><path class="cls-3" d="M307.826,286.884c.656-1.631,2.321-3.632,4.354-3.632,2.129,0,3.649,2.129,3.649,5.49,0,4.449-2.785,6.4-6.755,7.123l-.752-1.153c3.474-.512,6.195-1.937,6.195-5.955,0-2.529-.865-4.353-2.546-4.353-2,0-3.857,2.913-4.049,5.01a7.457,7.457,0,0,0,.032,1.968l-1.233.1a19.535,19.535,0,0,1-.175-2.546,42.136,42.136,0,0,1,.5-5.17c.064-.479.1-.944.128-1.376l1.408.048A29.718,29.718,0,0,0,307.826,286.884Z"></path><path class="cls-3" d="M328.228,283.427c0,.208-.016.561-.016.977a39.557,39.557,0,0,0,4.337-.433l-.016,1.169c-1.264.144-2.785.288-4.321.368v2.241a39.832,39.832,0,0,0,4.465-.432l-.016,1.2c-1.5.193-2.913.321-4.433.368.032.833.08,1.7.111,2.465a12.749,12.749,0,0,1,4.675,2.5l-.737,1.137a11.792,11.792,0,0,0-3.873-2.417c.016.4.032.736.032.992,0,1.1-.737,2.241-2.817,2.241-2.305,0-3.554-.816-3.554-2.352,0-1.457,1.393-2.449,3.7-2.449a9.305,9.305,0,0,1,1.344.095c-.016-.719-.048-1.488-.064-2.176h-.912c-1.088,0-2.849-.1-4-.224l-.016-1.2a29.636,29.636,0,0,0,4.034.305h.864v-2.242h-.7c-1.12,0-3.09-.16-4.1-.272l-.016-1.185a28.951,28.951,0,0,0,4.1.353h.736v-1.137a8.8,8.8,0,0,0-.064-.96h1.361A8.025,8.025,0,0,0,328.228,283.427Zm-2.753,11.253c.912,0,1.7-.288,1.7-1.392,0-.273-.016-.657-.016-1.073a7.1,7.1,0,0,0-1.552-.16c-1.521,0-2.353.592-2.353,1.328S323.89,294.68,325.475,294.68Z"></path><path class="cls-3" d="M345.108,283.4c0,.24-.016.609-.016,1.041h.24c1.953,0,3.922.016,4.69.016l-.016,1.184c-.9-.047-2.353-.08-4.69-.08h-.224c0,.912.016,1.905.032,2.641a3.894,3.894,0,0,1,.512,2.049c0,2.161-1.056,4.562-4.786,5.682l-1.072-1.056c2.129-.48,3.6-1.376,4.242-2.833a2.259,2.259,0,0,1-1.393.432A2.548,2.548,0,0,1,340,289.8a2.794,2.794,0,0,1,2.817-2.785,3.214,3.214,0,0,1,1.073.176c0-.48,0-1.057-.016-1.617-2.433.017-5.155.128-7.155.272l-.032-1.232c1.776-.032,4.786-.128,7.17-.16,0-.448-.016-.832-.032-1.057-.015-.416-.079-.88-.095-1.008h1.456C345.156,282.563,345.124,283.187,345.108,283.4Zm-2.273,7.972c.944,0,1.553-.753,1.409-2.274a1.435,1.435,0,0,0-1.425-1.007,1.631,1.631,0,0,0-1.617,1.7A1.543,1.543,0,0,0,342.835,291.367Z"></path><path class="cls-3" d="M356.706,293.591a2.441,2.441,0,1,1-2.449-2.432A2.439,2.439,0,0,1,356.706,293.591Zm-.816,0a1.625,1.625,0,1,0-1.633,1.633A1.626,1.626,0,0,0,355.89,293.591Z"></path><path class="cls-3" d="M248.99,322.363l.96.5a10.009,10.009,0,0,0,0,14.245l-.96.5a10.7,10.7,0,0,1,0-15.237Z"></path><path class="cls-3" d="M251.384,335.2c3.442-3.426,5.379-5.475,5.379-7.347a2.011,2.011,0,0,0-2.162-2.225,3.334,3.334,0,0,0-2.432,1.361l-.849-.816a4.485,4.485,0,0,1,3.458-1.73,3.161,3.161,0,0,1,3.409,3.346c0,2.144-1.953,4.273-4.658,7.123.609-.048,1.313-.113,1.921-.113h3.314v1.265h-7.38Z"></path><path class="cls-3" d="M260.344,330.318c0-3.826,1.393-5.875,3.666-5.875s3.649,2.065,3.649,5.875-1.376,5.954-3.649,5.954S260.344,334.143,260.344,330.318Zm5.891,0c0-3.346-.9-4.706-2.225-4.706-1.345,0-2.241,1.36-2.241,4.706s.9,4.786,2.241,4.786C265.338,335.1,266.235,333.663,266.235,330.318Z"></path><path class="cls-3" d="M269.144,335.2c3.441-3.426,5.378-5.475,5.378-7.347a2.011,2.011,0,0,0-2.161-2.225,3.334,3.334,0,0,0-2.432,1.361l-.849-.816a4.483,4.483,0,0,1,3.457-1.73,3.161,3.161,0,0,1,3.41,3.346c0,2.144-1.953,4.273-4.658,7.123.608-.048,1.312-.113,1.921-.113h3.313v1.265h-7.379Z"></path><path class="cls-3" d="M278.728,334.847h2.609v-8.419h-2.08v-.944a6.756,6.756,0,0,0,2.432-.833h1.121v10.2h2.353v1.217h-6.435Z"></path><path class="cls-3" d="M305.406,333.631h-5.8V337.3h-1.2v-3.666h-7.395v-1.152h2.625v-4.29h4.77v-2.433h-3.89a14.736,14.736,0,0,1-2.433,3.153,7.364,7.364,0,0,0-1.024-.752,13.536,13.536,0,0,0,3.6-5.523l1.2.289c-.224.56-.48,1.136-.736,1.68h9.539v1.153h-5.058v2.433h4.69v1.12h-4.69v3.17h5.8Zm-7-1.152v-3.17h-3.585v3.17Z"></path><path class="cls-3" d="M310.648,334.719l.72-.96a3.861,3.861,0,0,0,2.881,1.3,2.455,2.455,0,0,0,2.5-2.592,2.305,2.305,0,0,0-2.433-2.53,3.216,3.216,0,0,0-1.953.7l-.784-.5.368-5.49h5.715V325.9h-4.434l-.288,3.409a3.419,3.419,0,0,1,1.745-.48,3.289,3.289,0,0,1,3.537,3.586,3.725,3.725,0,0,1-3.842,3.857A4.982,4.982,0,0,1,310.648,334.719Z"></path><path class="cls-3" d="M336.173,335.551c0,.833-.241,1.249-.833,1.442a12.884,12.884,0,0,1-3.377.223,5.7,5.7,0,0,0-.5-1.232c1.328.048,2.609.032,2.977.032.368-.016.5-.128.5-.48v-3.2h-7.683a9.023,9.023,0,0,1-2.753,4.977,4.531,4.531,0,0,0-.88-.864c2.545-2.24,2.8-5.49,2.8-8.035v-4.9h9.748Zm-1.233-4.385v-2.689h-7.315a19.948,19.948,0,0,1-.176,2.689Zm-7.315-6.483v2.657h7.315v-2.657Z"></path><path class="cls-3" d="M358.905,331.087V335.9c0,.656-.144.977-.544,1.169a5.022,5.022,0,0,1-1.985.208,4.744,4.744,0,0,0-.352-1.089c.688.017,1.312.017,1.5,0,.192,0,.272-.048.272-.288v-4.466l-1.9.624-.3-1.152c.608-.16,1.376-.4,2.209-.656v-3.282h-2v-1.088h2v-3.2h1.1v3.2h1.713v1.088h-1.713v2.946c.528-.161,1.056-.336,1.585-.513l.16,1.1Zm7.939.5a10.713,10.713,0,0,0,3.826,3.793,4.27,4.27,0,0,0-.8.9,12.576,12.576,0,0,1-3.778-4.033v4.945h-1.12v-4.929a11.883,11.883,0,0,1-4.162,4.065,3.821,3.821,0,0,0-.816-.928,10.366,10.366,0,0,0,4.209-3.809h-3.281v-1.074h4.05v-1.76h1.12v1.76h4.1v1.074Zm2.9-7.747a43.892,43.892,0,0,1-8.58,1.183,3.613,3.613,0,0,0-.3-.975,43.226,43.226,0,0,0,8.067-1.121Zm-7.524,5.089a11.283,11.283,0,0,0-1.136-3.025l.944-.272a10.643,10.643,0,0,1,1.217,2.962Zm2.818-.512a9.336,9.336,0,0,0-.753-2.993l1.024-.192a9.478,9.478,0,0,1,.8,2.929Zm2.048.56a25.371,25.371,0,0,0,2.017-3.954l1.121.417A31.413,31.413,0,0,1,368,329.357Z"></path><path class="cls-3" d="M385.229,335.68c0,.768-.208,1.12-.72,1.328a10.433,10.433,0,0,1-2.977.193,4.752,4.752,0,0,0-.4-1.153c1.12.048,2.208.032,2.5.032.321-.016.433-.112.433-.416v-3.249h-4.306v4.721h-1.184v-4.721h-4a9.19,9.19,0,0,1-2,4.962,3.863,3.863,0,0,0-.912-.785c1.76-1.985,1.921-4.8,1.921-7.027V323.8h11.652Zm-6.658-4.4v-2.657h-3.826v.944c0,.528-.016,1.121-.064,1.713Zm-3.826-6.338V327.5h3.826V324.94Zm9.316,0h-4.306V327.5h4.306Zm0,6.338v-2.657h-4.306v2.657Z"></path><path class="cls-3" d="M395.579,323.163c-.016.208-.016.464-.032.736.144,2.113,1.008,9.508,7.027,12.261a3.622,3.622,0,0,0-.881.976c-4.129-1.952-5.89-6.049-6.658-9.252-.705,3.2-2.353,7.06-6.4,9.252a4.069,4.069,0,0,0-.96-.912c6.482-3.313,6.482-10.948,6.594-13.061Z"></path><path class="cls-3" d="M418.3,332.751h-1.649v2.833h-1.184v-.72h-3.842v1.1c0,.737-.224,1.008-.7,1.185a9.573,9.573,0,0,1-2.657.191,3.906,3.906,0,0,0-.417-1.007c.961.031,1.921.015,2.193.015.305-.015.4-.112.4-.384v-1.1h-5.17v-.913h5.17v-1.2H403.9v-.945h6.546v-1.12h-5.026v-.881h5.026v-1.12h-4.577v-2.817h4.577v-.928H404.2v-.976h6.242v-1.282h1.185v1.282H418v.976h-6.37v.928h4.77v2.817h-4.77v1.12h5.026v2H418.3Zm-7.86-4.9V326.7H407v1.153Zm1.185-1.153v1.153h3.585V326.7Zm0,5.106h3.842v-1.12h-3.842Zm3.842.945h-3.842v1.2h3.842Z"></path><path class="cls-3" d="M419.8,328.829h8.227v1.089H419.8Zm8-3.345h-7.587v-1.041h3.2v-1.712h1.137v1.712H427.8Zm-6.931,5.826h6.259V337.2h-1.153v-.849h-4v.945h-1.1Zm1.025-2.673a11.025,11.025,0,0,0-.7-2.593l.993-.208a9.492,9.492,0,0,1,.736,2.561Zm.079,3.73v2.945h4v-2.945Zm2.9-3.922a21.665,21.665,0,0,0,.9-2.721l1.121.272c-.336.928-.721,1.985-1.057,2.689Zm9.556-4.321c-.657,1.5-1.473,3.344-2.225,4.8a5.179,5.179,0,0,1,2.017,3.873,2.342,2.342,0,0,1-.785,2.082,2.292,2.292,0,0,1-1.04.352,9.746,9.746,0,0,1-1.393.031,2.761,2.761,0,0,0-.336-1.183,8.662,8.662,0,0,0,1.264.031,1.608,1.608,0,0,0,.689-.176c.336-.208.432-.688.432-1.264,0-1.008-.448-2.193-2.065-3.585.656-1.345,1.361-3.074,1.857-4.355H429.82v12.55h-1.153v-13.67h4.706l.192-.048Z"></path><path class="cls-3" d="M436.776,337.6l-.96-.5a10.009,10.009,0,0,0,0-14.245l.96-.5a10.7,10.7,0,0,1,0,15.237Z"></path><path class="cls-1" d="M163.012,79.76a19.526,19.526,0,0,0,7.122,5.5,11.381,11.381,0,0,0-1.721,2.061,21.107,21.107,0,0,1-6.5-5.5v6.361h-2.541V81.94a21.927,21.927,0,0,1-6.5,5.361,13.1,13.1,0,0,0-1.74-2.06,19.492,19.492,0,0,0,7.141-5.481H151.79V77.4h7.581V74.84H153.29V72.478h6.081V69.5h2.541v2.98h6.261V74.84h-6.261V77.4h7.7v2.36Z"></path><path class="cls-1" d="M174.03,81.52a18.49,18.49,0,0,1-1.2,5.161,11.91,11.91,0,0,0-1.821-.86,14.514,14.514,0,0,0,1.061-4.641Zm15.384-10.5a12.7,12.7,0,0,1-3.261,5.181,14.221,14.221,0,0,0,4.1,1.52,9.522,9.522,0,0,0-1.46,1.921,14.624,14.624,0,0,1-4.461-2,17.924,17.924,0,0,1-4.561,2.1,9.371,9.371,0,0,0-1.261-1.92,11.875,11.875,0,0,1,.82,2.36l-1.68.76a9.516,9.516,0,0,0-.26-1.019l-1.02.08v8.181H174.31V80.14l-2.9.18-.2-2.061,1.44-.059c.3-.38.62-.82.94-1.28a19.575,19.575,0,0,0-2.36-2.721l1.14-1.62c.14.12.3.26.46.4a25.364,25.364,0,0,0,1.46-3.481l2.061.76c-.721,1.361-1.521,2.9-2.241,4.021.26.28.48.561.681.8a36.784,36.784,0,0,0,1.78-3.24l1.94.9c-1.1,1.74-2.48,3.761-3.74,5.381l1.92-.08c-.22-.5-.46-1-.7-1.441l1.58-.66a19.741,19.741,0,0,1,.92,1.841,15.34,15.34,0,0,0,3.981-1.66,13.016,13.016,0,0,1-2.361-3.261l1.281-.421h-2.281V70.4h8.282l.42-.1Zm-11.323,10a22.092,22.092,0,0,1,1.24,3.6l-1.76.64a23.633,23.633,0,0,0-1.16-3.72Zm7.482,4.5h4.381V87.6h-11.3V85.521h4.581v-2.34h-3.4v-2.1h3.4V78.7h2.341v2.381h3.56v2.1h-3.56Zm-3.261-13.083a9.031,9.031,0,0,0,1.921,2.381,10.1,10.1,0,0,0,1.96-2.381Z"></path><path class="cls-1" d="M191.089,86.381a9.281,9.281,0,0,0,1-4.4l1.32.261c-.1,1.82-.3,3.681-1.12,4.8Zm15.384-3.8a7.521,7.521,0,0,0,3.741,3.68,9.253,9.253,0,0,0-1.5,1.881,8.663,8.663,0,0,1-3.741-4.2,8.784,8.784,0,0,1-4.441,4.261,7.927,7.927,0,0,0-1.161-1.4,1.687,1.687,0,0,1-1.46,1.261,7.784,7.784,0,0,1-1.76.06,4.585,4.585,0,0,0-.48-1.84,11.6,11.6,0,0,0,1.22.08.6.6,0,0,0,.54-.261,4.653,4.653,0,0,0,.34-1.74l-.64.24a11.745,11.745,0,0,0-.9-2.581l.94-.319a11.546,11.546,0,0,1,.68,1.62c.04-.6.08-1.341.12-2.2H192.25v-10.9h7.361v1.92h-2.14v1.1h1.741V74.3a12.767,12.767,0,0,0,4.36-4.8h2.041a12.9,12.9,0,0,0,4.7,4.5,13.956,13.956,0,0,0-1.181,2.041,9.234,9.234,0,0,1-1.3-.921v1.1h-2V77.3h3.581v5.282ZM194.61,82.3a19.526,19.526,0,0,1,.2,3.662l-1.08.139a23.674,23.674,0,0,0-.14-3.7Zm-.4-10.162v1.1h1.36v-1.1Zm0,2.9v1.2h1.36v-1.2Zm0,4.241h1.36V78.04h-1.36Zm1.741,2.82a16.512,16.512,0,0,1,.66,3.221l-1.041.221a14.989,14.989,0,0,0-.62-3.242Zm4.04-2.82s0,.52-.02.78a48.748,48.748,0,0,1-.48,6.281,7.06,7.06,0,0,0,3.681-3.76h-2.84V77.3h3.4v-1.08h-2.041v-1.08a11.619,11.619,0,0,1-1.541,1.14,11.063,11.063,0,0,0-.939-1.7v.46h-1.741v1.2h1.741v1.8h-1.741v1.24Zm3.621,1.58a10.69,10.69,0,0,0,.121-1.78v-.06h-1.461v1.84Zm3.4-6.461a14.242,14.242,0,0,1-2.341-2.841,14.916,14.916,0,0,1-2.2,2.841Zm-1.18,4.621v.08a17.537,17.537,0,0,1-.08,1.76h1.64V79.02Z"></path><path class="cls-1" d="M222.412,77.62c-.78.559-1.54,1.08-2.361,1.6h7.282V88.1h-2.5v-.52h-6.882v.6H215.57V81.64c-1,.441-2.04.881-3.06,1.261a12.94,12.94,0,0,0-1.441-1.961,35.43,35.43,0,0,0,7.422-3.32h-6.8v-2.1h6.421V73.7h-4.7V71.638h4.7v-2.16h2.361v2.16h4.341v.981a24.366,24.366,0,0,0,2.06-2.541l2.04,1.04a29.212,29.212,0,0,1-3.94,4.4h4.64v2.1Zm2.421,3.541h-6.882v1.28h6.882Zm0,4.44v-1.36h-6.882V85.6Zm-4.361-10.082h1.1a27.509,27.509,0,0,0,2.161-1.82h-3.261Z"></path><path class="cls-1" d="M243.212,78.82a2.561,2.561,0,1,1-2.561-2.561A2.579,2.579,0,0,1,243.212,78.82Z"></path><path class="cls-1" d="M254.03,81.52a18.49,18.49,0,0,1-1.2,5.161,11.91,11.91,0,0,0-1.821-.86,14.514,14.514,0,0,0,1.061-4.641Zm15.384-10.5a12.7,12.7,0,0,1-3.261,5.181,14.221,14.221,0,0,0,4.1,1.52,9.522,9.522,0,0,0-1.46,1.921,14.624,14.624,0,0,1-4.461-2,17.924,17.924,0,0,1-4.561,2.1,9.371,9.371,0,0,0-1.261-1.92,11.875,11.875,0,0,1,.82,2.36l-1.68.76a9.516,9.516,0,0,0-.26-1.019l-1.02.08v8.181H254.31V80.14l-2.9.18-.2-2.061,1.44-.059c.3-.38.62-.82.94-1.28a19.575,19.575,0,0,0-2.36-2.721l1.14-1.62c.14.12.3.26.46.4a25.364,25.364,0,0,0,1.46-3.481l2.061.76c-.721,1.361-1.521,2.9-2.241,4.021.26.28.48.561.681.8a36.784,36.784,0,0,0,1.78-3.24l1.94.9c-1.1,1.74-2.48,3.761-3.74,5.381l1.92-.08c-.22-.5-.46-1-.7-1.441l1.58-.66a19.741,19.741,0,0,1,.92,1.841,15.34,15.34,0,0,0,3.981-1.66,13.016,13.016,0,0,1-2.361-3.261l1.281-.421h-2.281V70.4h8.282l.42-.1Zm-11.323,10a22.092,22.092,0,0,1,1.24,3.6l-1.76.64a23.633,23.633,0,0,0-1.16-3.72Zm7.482,4.5h4.381V87.6h-11.3V85.521h4.581v-2.34h-3.4v-2.1h3.4V78.7h2.341v2.381h3.56v2.1h-3.56Zm-3.261-13.083a9.031,9.031,0,0,0,1.921,2.381,10.1,10.1,0,0,0,1.96-2.381Z"></path><path class="cls-1" d="M271.089,86.381a9.281,9.281,0,0,0,1-4.4l1.32.261c-.1,1.82-.3,3.681-1.12,4.8Zm15.384-3.8a7.521,7.521,0,0,0,3.741,3.68,9.253,9.253,0,0,0-1.5,1.881,8.663,8.663,0,0,1-3.741-4.2,8.784,8.784,0,0,1-4.441,4.261,7.927,7.927,0,0,0-1.161-1.4,1.687,1.687,0,0,1-1.46,1.261,7.784,7.784,0,0,1-1.76.06,4.585,4.585,0,0,0-.48-1.84,11.6,11.6,0,0,0,1.22.08.6.6,0,0,0,.54-.261,4.653,4.653,0,0,0,.34-1.74l-.64.24a11.745,11.745,0,0,0-.9-2.581l.94-.319a11.546,11.546,0,0,1,.68,1.62c.04-.6.08-1.341.12-2.2H272.25v-10.9h7.361v1.92h-2.14v1.1h1.741V74.3a12.767,12.767,0,0,0,4.36-4.8h2.041a12.9,12.9,0,0,0,4.7,4.5,13.956,13.956,0,0,0-1.181,2.041,9.234,9.234,0,0,1-1.3-.921v1.1h-2V77.3h3.581v5.282ZM274.61,82.3a19.526,19.526,0,0,1,.2,3.662l-1.08.139a23.674,23.674,0,0,0-.14-3.7Zm-.4-10.162v1.1h1.36v-1.1Zm0,2.9v1.2h1.36v-1.2Zm0,4.241h1.36V78.04h-1.36Zm1.741,2.82a16.512,16.512,0,0,1,.66,3.221l-1.041.221a14.989,14.989,0,0,0-.62-3.242Zm4.04-2.82s0,.52-.02.78a48.748,48.748,0,0,1-.48,6.281,7.06,7.06,0,0,0,3.681-3.76h-2.84V77.3h3.4v-1.08h-2.041v-1.08a11.619,11.619,0,0,1-1.541,1.14,11.063,11.063,0,0,0-.939-1.7v.46h-1.741v1.2h1.741v1.8h-1.741v1.24Zm3.621,1.58a10.69,10.69,0,0,0,.121-1.78v-.06h-1.461v1.84Zm3.4-6.461a14.242,14.242,0,0,1-2.341-2.841,14.916,14.916,0,0,1-2.2,2.841Zm-1.18,4.621v.08a17.537,17.537,0,0,1-.08,1.76h1.64V79.02Z"></path><path class="cls-1" d="M302.412,77.62c-.78.559-1.54,1.08-2.361,1.6h7.282V88.1h-2.5v-.52h-6.882v.6H295.57V81.64c-1,.441-2.04.881-3.06,1.261a12.94,12.94,0,0,0-1.441-1.961,35.43,35.43,0,0,0,7.422-3.32h-6.8v-2.1h6.421V73.7h-4.7V71.638h4.7v-2.16h2.361v2.16h4.341v.981a24.366,24.366,0,0,0,2.06-2.541l2.04,1.04a29.212,29.212,0,0,1-3.94,4.4h4.64v2.1Zm2.421,3.541h-6.882v1.28h6.882Zm0,4.44v-1.36h-6.882V85.6Zm-4.361-10.082h1.1a27.509,27.509,0,0,0,2.161-1.82h-3.261Z"></path><path class="cls-1" d="M314.651,77.679V88.162H312.29V70.238h7.641v7.441Zm0-5.621v1.08h3.06v-1.08Zm3.06,3.822V74.739h-3.06V75.88Zm1.22,9.461v1.121h-2.22v-7.4h7.741v6.281Zm0-4.321v2.361h3.3V81.02Zm10.2,4.3c0,1.32-.259,2-1.1,2.381a9.827,9.827,0,0,1-3.921.46,8.532,8.532,0,0,0-.8-2.441c1.16.08,2.521.061,2.9.04.38,0,.52-.12.52-.48V77.7h-5.421V70.238h7.821Zm-5.561-13.282v1.1h3.161v-1.1Zm3.161,3.86v-1.16h-3.161V75.9Z"></path><path class="cls-1" d="M336.011,70.2l2.92.1c-.12.56-.28,1.581-.44,2.84l.741.941c-.281.36-.681,1.02-1.021,1.54-.02.18-.02.381-.04.56a9.826,9.826,0,0,1,5.881-2.06,5.308,5.308,0,0,1,5.521,5.4c0,4.041-2.54,6.461-7.5,7.442l-1.2-2.421c3.521-.52,6.041-1.96,6.021-5.081a3.075,3.075,0,0,0-3.261-3,8.407,8.407,0,0,0-5.661,2.56c-.02.58-.04,1.16-.04,1.68,0,1.64,0,3.321.12,5.2.02.36.08,1.081.14,1.541h-2.76c.039-.44.059-1.16.059-1.48.04-1.561.06-2.721.08-4.4-.839,1.261-1.82,2.721-2.52,3.661l-1.58-2.18c1.14-1.4,3.14-4.041,4.281-5.721.04-.461.08-.94.1-1.421-.981.12-2.521.32-3.641.481l-.26-2.561a16.916,16.916,0,0,0,1.74-.021c.58-.04,1.461-.139,2.321-.259.04-.76.079-1.321.079-1.54A11.165,11.165,0,0,0,336.011,70.2Z"></path><path class="cls-1" d="M367.113,72.339l-1.38.58c1.28-.02,2.44-.02,3.041-.02l-.02,2.38c-1.2-.06-3.1-.12-5.8-.12.02,1.02.02,2.081.02,2.961a5.029,5.029,0,0,1,.761,2.78c0,2.621-1.541,5.922-6.442,7.3l-2.12-2.141a9.053,9.053,0,0,0,4.9-2.28,4.314,4.314,0,0,1-.92.1,3.539,3.539,0,0,1-3.46-3.661,3.806,3.806,0,0,1,4.021-3.76,5.2,5.2,0,0,1,.8.059c0-.439,0-.9-.02-1.34-3.021.04-6.142.18-8.6.321l-.06-2.421c2.28-.021,5.921-.1,8.622-.14a5.432,5.432,0,0,0-.02-.62c-.06-.8-.14-1.48-.18-1.741h2.88c-.06.32-.12,1.4-.14,1.72,0,.161-.02.38-.02.621h2.4a25.562,25.562,0,0,0-1.3-2.261l1.641-.68A22.688,22.688,0,0,1,367.113,72.339Zm-7.462,9.341c.841,0,1.561-.639,1.3-2.4a1.443,1.443,0,0,0-1.321-.7,1.55,1.55,0,0,0,.02,3.1Zm10.163-9.922-1.681.7a17.465,17.465,0,0,0-1.4-2.361l1.66-.68A22.136,22.136,0,0,1,369.814,71.758Z"></path><path class="cls-1" d="M167.631,112.14a20.49,20.49,0,0,0-1.06-1.8v7.8H164.25V111.2a17.915,17.915,0,0,1-2.08,3.721,11.7,11.7,0,0,0-1.1-2.261,19.837,19.837,0,0,0,3.021-5.522h-2.5v-2.22h2.66v-2.241c-.78.12-1.54.221-2.26.3a8.338,8.338,0,0,0-.66-1.821,26.246,26.246,0,0,0,6.021-1.48l1.58,1.821a18.36,18.36,0,0,1-2.36.719v2.7h1.86v-.34h4.521v-.68h-3.541v-1.381h3.541v-.679h-3.9V100.4h3.9v-.9h2.381v.9h4.141v1.441h-4.141v.679h3.68V103.9h-3.68v.68h4.541v1.48H168.551v1.08h-1.98v.641c.64.6,2.08,2.08,2.42,2.5Zm9.142,2.8c1.22.721,2.6,1.561,3.4,2.12l-2.08,1.121a34.812,34.812,0,0,0-3.3-2.341l1.24-.9h-3.641l1.341.88a17.776,17.776,0,0,1-4.8,2.421c-.36-.42-1.02-1.061-1.46-1.481a15.491,15.491,0,0,0,3.941-1.82h-1.74v-8.2h9.241v8.2Zm-4.981-5.9h4.861v-.84h-4.861Zm0,2.22h4.861v-.86h-4.861Zm0,2.2h4.861v-.84h-4.861Z"></path><path class="cls-1" d="M186.871,111.98c-.2-.6-.62-1.54-1.02-2.44v8.6H183.73V110.76a17.123,17.123,0,0,1-1.6,3.761,13.558,13.558,0,0,0-1-2.02,21.042,21.042,0,0,0,2.44-6.742h-1.98V103.6h2.14V99.478h2.121V103.6h1.82v2.16h-1.82v1.06c.48.7,1.56,2.481,2,3.261v-3.861h4.1v6.041h-2.5v1.361h-1.6v-3.08Zm.48,3.522h12.663v2H187.351Zm2.321-10c.339-.921.7-2.181,1-3.362h-2.961v-1.98h11.862v1.98h-6.721c-.12.481-.26.96-.38,1.441h2.4s-.02.62-.02.88l-.02,2.281,1.44-.341a15.676,15.676,0,0,0,.74,2.381,18.166,18.166,0,0,0,.56-2.721h-2.3V104.3h2.8l.34-.04,1.16.241a21.664,21.664,0,0,1-1.4,6.481A6.552,6.552,0,0,0,200.214,113a7.461,7.461,0,0,0-1.34,1.6,7.5,7.5,0,0,1-1.7-1.761,8.188,8.188,0,0,1-1.56,1.741,5.813,5.813,0,0,0-1.041-1.321,2.832,2.832,0,0,1-.3,1,1.71,1.71,0,0,1-1.281.8,12.016,12.016,0,0,1-2,.08,4.423,4.423,0,0,0-.5-1.8,13.411,13.411,0,0,0,1.46.041.525.525,0,0,0,.56-.26c.26-.441.32-2.361.38-7.762h-.98l-.14.44Zm-.221,2.3v2.862h.9V107.8Zm5.382-.9c-.04,3.141-.1,5.022-.241,6.122a6.727,6.727,0,0,0,1.541-2.02A20.463,20.463,0,0,1,194.833,106.9Z"></path><path class="cls-1" d="M219.494,102.558s0,.8-.02,1.08c-.26,8.943-.481,12.123-1.3,13.184a2.668,2.668,0,0,1-1.92,1.1,22.43,22.43,0,0,1-3.141.04,5.6,5.6,0,0,0-.78-2.321c1.28.12,2.461.12,2.981.12a1.069,1.069,0,0,0,.88-.339c.58-.641.84-3.641,1.06-10.7h-4.281a17.263,17.263,0,0,1-1.76,3.161,15,15,0,0,0-1.54-1.121V116.1H204.33v1.461h-2.16V102.7h2.26a21.338,21.338,0,0,0,.58-3.221l2.6.36c-.34,1-.7,2-1.04,2.861h3.1v3.24a20.693,20.693,0,0,0,2.7-6.441l2.28.52c-.22.861-.48,1.7-.78,2.54Zm-11.983,2.221H204.33v3.241h3.181Zm0,9.222V110.08H204.33V114Zm6.641-1.08a42.808,42.808,0,0,0-2.78-4.622l1.86-1.059a48.089,48.089,0,0,1,2.941,4.44Z"></path><path class="cls-1" d="M226.031,102.879a53.03,53.03,0,0,0-.961,7.341,9.482,9.482,0,0,0,.081,1.3c.3-.68.62-1.38.9-2.04l1.24.981c-.56,1.66-1.22,3.84-1.44,4.9a6.047,6.047,0,0,0-.1.94c0,.22.02.54.04.821l-2.321.16a25.584,25.584,0,0,1-.78-6.542,55.786,55.786,0,0,1,.84-7.921c.06-.561.18-1.32.2-1.961l2.8.24A18.379,18.379,0,0,0,226.031,102.879Zm4.941,9.782c0,.88.76,1.42,2.8,1.42a23.661,23.661,0,0,0,5.022-.52l.04,2.7a28.258,28.258,0,0,1-5.162.38c-3.44,0-5.1-1.219-5.1-3.28a12.235,12.235,0,0,1,.34-2.6l2.3.22A6.8,6.8,0,0,0,230.972,112.661Zm7.242-10.242V105a53.716,53.716,0,0,1-8.6,0v-2.561A41.157,41.157,0,0,0,238.214,102.419Z"></path><path class="cls-1" d="M247.631,110c-.64.2-1.28.4-1.92.58v5.06c0,1.1-.181,1.7-.781,2.08a5.176,5.176,0,0,1-2.78.441,8.835,8.835,0,0,0-.6-2.2,15.783,15.783,0,0,0,1.66.019c.24,0,.34-.08.34-.34V111.22c-.66.2-1.32.38-1.9.54l-.52-2.28c.68-.14,1.52-.36,2.42-.58v-3.461h-2.1v-2.181h2.1V99.5h2.161v3.76h1.82v2.181h-1.82v2.881l1.62-.46Zm8.422,1.479a12.194,12.194,0,0,0,4.241,3.921,8.883,8.883,0,0,0-1.56,1.8,14.6,14.6,0,0,1-3.821-3.921v4.741h-2.241v-4.841a13.855,13.855,0,0,1-4.4,4.12,10.839,10.839,0,0,0-1.58-1.86,11.936,11.936,0,0,0,4.721-3.961h-3.441v-2.06h4.7V107.4h2.241v2.02h4.821v2.06Zm3.3-10a56.408,56.408,0,0,1-11.023,1.54,8.139,8.139,0,0,0-.62-1.9,53.541,53.541,0,0,0,10.062-1.5Zm-10.142,6.281a17.583,17.583,0,0,0-1.221-3.84l1.881-.48a15.258,15.258,0,0,1,1.36,3.74Zm3.42-.759a13.314,13.314,0,0,0-.8-3.681l1.98-.38a12.141,12.141,0,0,1,.921,3.641Zm2.7.42a26.121,26.121,0,0,0,2.3-4.822l2.261.821a44.564,44.564,0,0,1-2.721,4.741Z"></path><path class="cls-1" d="M278.633,115.341c0,1.281-.28,1.92-1.08,2.281a9.288,9.288,0,0,1-3.84.42,9.041,9.041,0,0,0-.761-2.281c1.12.06,2.441.04,2.8.04.38,0,.52-.12.52-.48v-3h-4.221V117.9h-2.4v-5.581H265.57a11.449,11.449,0,0,1-2.52,5.941,8.819,8.819,0,0,0-1.88-1.541c2.18-2.4,2.36-5.961,2.36-8.761v-7.142h15.1Zm-8.982-5.261v-2.46h-3.76v.36c0,.64-.02,1.36-.06,2.1Zm-3.76-7v2.32h3.76v-2.32Zm10.382,0h-4.221v2.32h4.221Zm0,7v-2.46h-4.221v2.46Z"></path><path class="cls-1" d="M292.892,113.26c1.421,1.6,3.661,2.522,6.822,2.862a9.257,9.257,0,0,0-1.4,2.08c-3.8-.6-6.181-2.021-7.761-4.5-1.181,1.78-3.4,3.36-7.482,4.461a9.706,9.706,0,0,0-1.48-1.92c3.36-.761,5.281-1.8,6.381-2.982H281.95V111.2h7.181a8.907,8.907,0,0,0,.2-1.261H284.21v-1.92h5.141v-1.2H283.89V105.5h-1.78v-4.262h7.3V99.5h2.441v1.74h7.321V105.5h-1.6v1.319h-5.841v1.2h5.441v1.92h-5.461a6.811,6.811,0,0,1-.16,1.261h7.9v2.059Zm-3.541-8.361v-1.141h2.381V104.9h4.981v-1.58H284.47v1.58Z"></path><path class="cls-1" d="M317.093,116.122c.78,0,.94-.34,1.06-2.1a6.557,6.557,0,0,0,1.921.82c-.26,2.5-.86,3.261-2.8,3.261h-3.5c-2.36,0-3-.64-3-2.921V111.34l-.821.38-.82-1.94c-.08,4.9-.22,6.821-.68,7.462a1.794,1.794,0,0,1-1.28.82,10.461,10.461,0,0,1-2.061.1,5.585,5.585,0,0,0-.58-2.12,11.193,11.193,0,0,0,1.441.08.582.582,0,0,0,.58-.321c.26-.4.38-2.08.46-6.781h-1.56c-.28,3.6-.921,6.841-2.581,9.122a7.081,7.081,0,0,0-1.7-1.661c1.98-2.74,2.16-7.141,2.22-11.762h-1.92v-2.2h3.06V99.5h2.281v3.02h3.12v1.5a14.439,14.439,0,0,0,1.781-4.541l2.34.44c-.16.7-.38,1.4-.6,2.081h6.282v2.16h-7.182a13.024,13.024,0,0,1-1.14,1.94h1.46v1.921l1.08-.5v-2.86h1.981v1.94l1.44-.66.08-.059.36-.261,1.481.52-.08.321c-.021,2.84-.021,4.88-.081,5.48a1.4,1.4,0,0,1-.86,1.381,4.572,4.572,0,0,1-1.66.22,5.429,5.429,0,0,0-.42-1.741c.24.021.52.021.68.021s.26-.04.28-.3c.04-.18.04-1.28.06-3.18l-1.28.6v5.581h-1.981V109.86l-1.08.5v4.821c0,.821.14.941,1.14.941ZM310.772,109v-2.08l-.181.2a12.859,12.859,0,0,0-1.78-1.681,7.325,7.325,0,0,0,.64-.72H305.63c-.02.72-.04,1.441-.06,2.14h3.6v.9l-.041,2Z"></path><path class="cls-1" d="M338.893,102.939v9.982h-2.5v-1h-4.521v6.241h-2.521v-6.241h-4.5v1.1h-2.4V102.939h6.9V99.478h2.521v3.461Zm-9.542,6.641v-4.3h-4.5v4.3Zm7.042,0v-4.3h-4.521v4.3Z"></path><path class="cls-1" d="M348.891,114.841a1.761,1.761,0,1,1,1.76,1.76A1.707,1.707,0,0,1,348.891,114.841Zm.2-10.4-.1-2.98h3.321l-.1,2.98-.54,6.842h-2.041Z"></path></g></g></svg>