<svg xmlns="http://www.w3.org/2000/svg" width="529.42" height="543.799" viewBox="0 0 529.42 543.799"><defs><style>.cls-1{fill:#32a6d9;}.cls-2{fill:#fff;stroke:#32a6d9;stroke-linejoin:round;stroke-width:3.465px;}.cls-3{fill:#333;}</style></defs><g id="&#x30EC;&#x30A4;&#x30E4;&#x30FC;_2" data-name="&#x30EC;&#x30A4;&#x30E4;&#x30FC; 2"><g id="&#x30EC;&#x30A4;&#x30E4;&#x30FC;_1-2" data-name="&#x30EC;&#x30A4;&#x30E4;&#x30FC; 1"><path class="cls-1" d="M391.55,382.367c76.144,0,137.87-68.855,137.87-153.791S477.694,64.785,401.55,64.785c-4.016,0-7.8.942-11.726,1.318-25.186-36.868-74.56-51.04-119.32-51.04S176.368,29.235,151.182,66.1c-3.928-.376-7.71-1.318-11.726-1.318-76.144,0-127.87,78.856-127.87,163.791S73.313,382.367,149.457,382.367Z"></path><path class="cls-1" d="M391.55,543.8c76.144,0,137.87-68.855,137.87-153.791S477.694,226.217,401.55,226.217c-4.016,0-7.8.942-11.726,1.318-25.186-36.868-74.56-51.04-119.32-51.04s-94.136,14.172-119.322,51.04c-3.928-.376-7.71-1.318-11.726-1.318-76.144,0-127.87,78.856-127.87,163.791S73.313,543.8,149.457,543.8Z"></path><path class="cls-2" d="M519.566,215.246c0-84.935-51.725-163.791-127.87-163.791-4.016,0-7.8.942-11.726,1.318-25.186-36.868-74.56-51.04-119.32-51.04s-94.136,14.172-119.322,51.04c-3.928-.376-7.71-1.318-11.726-1.318-76.143,0-127.869,78.856-127.869,163.791a166.893,166.893,0,0,0,18.3,76.618c-11.792,25.345-18.3,54.7-18.3,84.814,0,84.936,61.726,153.79,137.87,153.79H381.7c76.144,0,137.87-68.854,137.87-153.79,0-30.119-6.511-59.469-18.3-84.814A166.893,166.893,0,0,0,519.566,215.246Z"></path><path class="cls-3" d="M90.646,191.505h-1.46v-2.961h-13.7v2.961h-1.42v-4.261h3.2a12.289,12.289,0,0,0-1.56-2.361l1.32-.54a11.828,11.828,0,0,1,1.7,2.341l-1.24.56h4.181v-3.1h1.5v3.1h7.482Zm-1.221,8.481c0,.781-.16,1.181-.78,1.4a10.411,10.411,0,0,1-3.161.24,5.9,5.9,0,0,0-.52-1.36c1.2.04,2.261.04,2.561.019s.4-.079.4-.319v-2.8H83.284v5.261h-1.5v-5.261H76.843v4.361H75.362v-5.721h6.422v-1.641H77.143v-4.2H87.585v4.2h-4.3v1.641h6.141Zm-10.862-6.941h7.542v-1.96H78.563Zm10.462-8.2a27.528,27.528,0,0,1-2,2.4l-1.2-.5a15.94,15.94,0,0,0,1.66-2.441Z"></path><path class="cls-3" d="M99.243,188.685H93.122v-1.221h6.121Zm-.46,12.562h-3.72v.939H93.882v-6.7h4.9Zm-.02-9.9H93.942v-1.181h4.821Zm-4.821,1.46h4.821v1.2H93.942Zm4.781-6.761h-4.7v-1.2h4.7Zm-3.66,10.662v3.341h2.5v-3.341Zm15.623-3.081a16.617,16.617,0,0,1-2.2,4.6c.36,1.639.86,2.58,1.54,2.64.341.02.581-1.02.7-2.661a4.668,4.668,0,0,0,.96.78c-.36,2.741-1.02,3.521-1.7,3.5-1.18-.06-1.96-1.12-2.48-2.98a14.4,14.4,0,0,1-3.261,2.82,5.507,5.507,0,0,0-.84-.84,11.622,11.622,0,0,0,1.981-1.48H101.2v1.08h-1.18v-7.7h5.48v6.5a13.889,13.889,0,0,0,1.681-1.881,47.12,47.12,0,0,1-.54-5.861H98.963V190.9h7.622c-.06-2.04-.08-4.28-.1-6.72h1.3c-.02,2.46,0,4.72.06,6.72h3.381v1.241h-3.341c.06,1.6.16,3.041.32,4.241a16.8,16.8,0,0,0,1.34-3.361Zm-4.681-6.121H99.5v-1.181h2.6v-2.16h1.38v2.16h2.521Zm-5.141,3.32a10.235,10.235,0,0,0-.561-2.9l1.081-.24a10.092,10.092,0,0,1,.62,2.88Zm.34,3.661v1.641h3.04v-1.641Zm3.04,4.421v-1.7H101.2v1.7Zm-.9-8.3a20.747,20.747,0,0,0,.68-3.02l1.281.26c-.321,1.04-.62,2.24-.9,3Zm6.842-1.48a12.332,12.332,0,0,0-1.981-3.581l1.12-.46a12.779,12.779,0,0,1,2.081,3.5Z"></path><path class="cls-3" d="M117.223,187.184a46.437,46.437,0,0,0-1,7.662,21.947,21.947,0,0,0,.18,2.8c.34-.9.82-2.1,1.16-2.92l.84.639a40.835,40.835,0,0,0-1.42,4.482,3.849,3.849,0,0,0-.1.9c.02.22.04.5.06.7l-1.44.1a25.186,25.186,0,0,1-.741-6.422,56.14,56.14,0,0,1,.9-8.022,8.73,8.73,0,0,0,.14-1.419l1.78.16C117.483,186.184,117.3,186.823,117.223,187.184Zm4.661,10.182c0,.92.66,1.8,3.381,1.8a22.072,22.072,0,0,0,4.961-.52l.04,1.68a27.111,27.111,0,0,1-5,.421c-3.361,0-4.862-1.121-4.862-3a10.75,10.75,0,0,1,.341-2.36l1.44.139A7,7,0,0,0,121.884,197.366Zm7.742-10v1.62a46.84,46.84,0,0,1-8.222,0v-1.6A34.235,34.235,0,0,0,129.626,187.364Z"></path><path class="cls-3" d="M141.124,191.265c1.88-1.141,4.041-2.2,5.141-2.8a10.822,10.822,0,0,0,1.42-.941l.881,1.421c-.461.281-.961.54-1.541.84a66.614,66.614,0,0,0-6.082,3.321c-1.86,1.2-2.98,2.521-2.98,4.04,0,1.662,1.581,2.7,4.741,2.7a29.781,29.781,0,0,0,6.4-.681v1.78a39.267,39.267,0,0,1-6.322.5c-3.761,0-6.481-1.121-6.481-4.121,0-2.06,1.32-3.681,3.46-5.181a66.958,66.958,0,0,1-2.9-6.162l1.58-.66A43.1,43.1,0,0,0,141.124,191.265Z"></path><path class="cls-3" d="M157.7,194.466a9.6,9.6,0,0,1,6.521-2.442c3.061,0,5.1,1.841,5.1,4.182,0,3.58-3.16,6-10.6,5.381l-.48-1.641c6.322.781,9.4-1.04,9.4-3.78,0-1.6-1.48-2.741-3.521-2.741a7.844,7.844,0,0,0-6.2,2.68,3.169,3.169,0,0,0-.6,1l-1.481-.359a71.192,71.192,0,0,0,1.021-8.122l1.68.22C158.263,190.2,157.923,193.186,157.7,194.466Zm9.022-7.722-.38,1.54c-1.9-.26-6.241-1.14-7.762-1.56l.4-1.521A54.66,54.66,0,0,0,166.725,186.744Z"></path><path class="cls-3" d="M178.063,185l1.88.06c-.1.5-.26,1.621-.4,3.021.04-.02.06-.02.1-.04l.6.7c-.261.36-.6.9-.9,1.4-.04.419-.08.86-.1,1.3a10.113,10.113,0,0,1,6.382-2.52,5.055,5.055,0,0,1,5.241,5.061c.02,4.021-2.921,6.121-7.282,6.961l-.74-1.5c3.381-.479,6.421-2.06,6.4-5.5a3.657,3.657,0,0,0-3.86-3.56,9.327,9.327,0,0,0-6.262,2.86c-.04.84-.06,1.641-.06,2.36,0,1.821-.02,3.041.08,4.822.02.36.06.86.1,1.219H177.5a11.053,11.053,0,0,0,.06-1.179c.02-1.921.02-2.941.06-5.121,0-.2.02-.481.02-.8-.98,1.48-2.3,3.381-3.261,4.741l-1-1.38c1.121-1.4,3.421-4.521,4.421-6.1.04-.64.08-1.3.14-1.941-.92.12-2.661.361-3.921.54l-.16-1.66c.44.02.82,0,1.3-.019.66-.04,1.841-.181,2.881-.341.06-.941.1-1.68.1-1.9A9.571,9.571,0,0,0,178.063,185Z"></path><path class="cls-3" d="M198.063,185l1.88.06c-.1.5-.26,1.621-.4,3.021.04-.02.08-.02.119-.04l.581.7c-.261.36-.6.9-.9,1.4-.04.379-.06.759-.1,1.16,1.561-1.441,4.141-3.381,6.161-3.381a2.482,2.482,0,0,1,2.781,2.68c0,2-.74,5.442-.74,7.482,0,.66.32,1.221,1.04,1.221a4.424,4.424,0,0,0,3.021-1.661l.26,1.72a5.184,5.184,0,0,1-3.681,1.66c-1.32,0-2.22-.859-2.22-2.52,0-2.22.76-5.5.76-7.461A1.439,1.439,0,0,0,205,189.4c-1.62,0-4.041,1.881-5.881,3.841-.04.84-.06,1.641-.06,2.36,0,1.821-.02,3.041.08,4.822.02.36.06.86.1,1.219H197.5c.04-.359.06-.859.06-1.179.02-1.921.02-2.941.06-5.121,0-.2.02-.481.02-.8-.98,1.48-2.3,3.381-3.261,4.741l-1.02-1.38c1.12-1.4,3.441-4.521,4.441-6.081.04-.66.1-1.341.14-1.98-.9.12-2.661.359-3.921.54l-.16-1.641c.44.02.82,0,1.3-.019.66-.04,1.841-.161,2.881-.341.06-.941.1-1.68.1-1.9A9.571,9.571,0,0,0,198.063,185Z"></path><path class="cls-3" d="M224.144,186.523c0,.3-.02.761-.02,1.3h.3c2.461,0,4.921.02,5.862.02l-.02,1.5c-1.12-.061-2.921-.12-5.862-.12h-.28c0,1.139.02,2.36.04,3.3a4.852,4.852,0,0,1,.64,2.561c0,2.72-1.32,5.721-5.961,7.1l-1.34-1.319c2.641-.6,4.5-1.721,5.321-3.541a2.918,2.918,0,0,1-1.76.54,3.189,3.189,0,0,1-3.3-3.341,3.5,3.5,0,0,1,3.541-3.48,4,4,0,0,1,1.34.22c0-.6-.02-1.321-.02-2.021-3.06.04-6.441.18-8.942.36l-.06-1.56c2.24-.04,6-.16,8.982-.2-.02-.56-.02-1.04-.04-1.321-.04-.519-.1-1.1-.14-1.259h1.82C224.224,185.483,224.164,186.283,224.144,186.523Zm-2.84,9.962c1.16,0,1.94-.939,1.78-2.82a1.835,1.835,0,0,0-1.8-1.28,2.039,2.039,0,0,0-2.021,2.12A1.937,1.937,0,0,0,221.3,196.485Zm7.2-9.2-1.14.5a22.7,22.7,0,0,0-1.46-2.461l1.1-.46A24.568,24.568,0,0,1,228.505,187.284Zm2.441-.54-1.14.5a16.01,16.01,0,0,0-1.481-2.421l1.12-.48C229.905,185.023,230.525,185.964,230.946,186.744Z"></path><path class="cls-3" d="M233.322,197.546l1.3-1.14a37.482,37.482,0,0,1,4.481,4.441l-1.36,1.16A33.4,33.4,0,0,0,233.322,197.546Z"></path><path class="cls-3" d="M260.664,188.4a26.667,26.667,0,0,1-1.861,8.722,14.107,14.107,0,0,1,2.281,2.12l-.9,1.181a15,15,0,0,0-2.041-2,10.631,10.631,0,0,1-3.841,4.021,5.809,5.809,0,0,0-.92-1.2A8.805,8.805,0,0,0,257,197.526c-.66-.5-1.36-.98-2.061-1.421l-.22.841-1.24-.64c.48-1.721,1.08-4.181,1.641-6.682h-1.9v-1.36h2.18c.321-1.441.6-2.861.821-4.1l1.42.16c-.24,1.22-.52,2.561-.82,3.941h2.7l.259-.06Zm-4.141,1.22c-.4,1.78-.82,3.562-1.221,5.142.761.439,1.561.94,2.321,1.48a22.9,22.9,0,0,0,1.54-6.622Zm14.963,3.921h-4.761v6.981c0,.9-.2,1.341-.84,1.581a11.4,11.4,0,0,1-3.241.26,5.8,5.8,0,0,0-.56-1.44c1.26.04,2.38.04,2.72.019s.441-.119.441-.42v-6.981h-4.681v-1.38h4.681V189.5h.6a19.133,19.133,0,0,0,2.86-2.96h-7.481v-1.36h8.562l.3-.1.98.721a23.085,23.085,0,0,1-4.341,4.581v1.78h4.761Z"></path><path class="cls-3" d="M291.206,193.365h-2.761v7.241c0,.921-.22,1.341-.94,1.58a15.863,15.863,0,0,1-3.8.241,5.984,5.984,0,0,0-.56-1.42c1.521.059,2.9.04,3.3.04.4-.04.5-.12.5-.46v-7.222H273.4v-1.36h17.8Zm-2.361-1.54a70.68,70.68,0,0,0-7.061-2.941c-1.2,1.541-3.281,2.48-7.022,2.981a4.9,4.9,0,0,0-.68-1.161c4.221-.519,6.082-1.54,6.942-3.38H274.4V186h7.062a15.323,15.323,0,0,0,.28-1.86h1.52a15.916,15.916,0,0,1-.28,1.86h7.242v1.32h-7.6c-.06.159-.12.32-.18.46,2.54.861,5.661,2.12,7.481,2.981Zm-11.962,8.3v1.3h-1.421v-6.461H283.4v5.161Zm0-3.941v2.72h5.081v-2.72Z"></path><path class="cls-3" d="M296.523,191.585c-.32,2.681-.94,5.821-2.361,7.741l-1.34-.82c1.34-1.74,2-4.641,2.261-7.2Zm3.4-1.9v10c0,.92.221,1.1,1.321,1.1h3.68c1.2,0,1.381-.721,1.541-4.182a3.7,3.7,0,0,0,1.38.681c-.2,3.761-.68,4.861-2.841,4.861h-3.88c-2.121,0-2.7-.541-2.7-2.481v-9.981Zm-.42-5.442a34.074,34.074,0,0,1,6.842,3.3l-.941,1.3a30.3,30.3,0,0,0-6.841-3.46Zm8.482,6.4a21.165,21.165,0,0,1,3.761,7.381l-1.46.7a22.164,22.164,0,0,0-3.6-7.422Z"></path><path class="cls-3" d="M315.282,198.606v1.54H313.9V185.623h5.622v12.983Zm0-11.623v4.362h2.861v-4.362Zm2.861,10.263v-4.561h-2.861v4.561Zm13.263,2.921v1.42H319.383v-1.42h5.441v-6.282H320.8v-1.44h4.02v-5.5h-4.481V185.5h10.763v1.439h-4.8v5.5h4.3v1.44h-4.3v6.282Z"></path><path class="cls-3" d="M336.423,190.625a10.369,10.369,0,0,1-1.981,5.421,4.665,4.665,0,0,0-1.22-.921,10.005,10.005,0,0,0,1.841-6.4v-2.381H342.5a15.555,15.555,0,0,1-.26-2.16h1.46a15.2,15.2,0,0,0,.26,2.16h3.2a10.883,10.883,0,0,0-1.94-1.6l1.02-.64a12.51,12.51,0,0,1,2.22,1.76l-.72.481h3.1v1.3h-6.622a16.349,16.349,0,0,0,1.481,3.621,12.615,12.615,0,0,0,2.48-3.1l1.34.42a15.492,15.492,0,0,1-3.06,3.781,3.68,3.68,0,0,0,2.681,1.66c.52,0,.74-.62.839-2.36a3.762,3.762,0,0,0,1.2.66c-.24,2.46-.78,3.12-2.12,3.12a4.971,4.971,0,0,1-3.721-2.14,21.1,21.1,0,0,1-3.021,1.9,8.5,8.5,0,0,0-1-1.1,17.015,17.015,0,0,0,3.241-1.9,15.969,15.969,0,0,1-1.821-4.561h-6.221v1.1c0,.22,0,.441-.02.68h4.921s-.02.36-.04.541c-.12,2.6-.28,3.66-.66,4.06a1.435,1.435,0,0,1-1.08.46,18.783,18.783,0,0,1-2.081-.019,3.371,3.371,0,0,0-.34-1.161,17.6,17.6,0,0,0,1.78.08c.26,0,.44-.02.561-.16.2-.22.3-.9.4-2.6Zm14.8,10.021v1.361H333.3v-1.361h2.461v-4.8h13.162v4.8Zm-14.063,0h2.5v-3.581h-2.5Zm3.861-3.581v3.581h2.52v-3.581Zm3.9,0v3.581h2.541v-3.581Z"></path><path class="cls-3" d="M355.643,187.624c1.3-.141,5.081-.521,8.761-.82,2.181-.18,4.061-.3,5.4-.361v1.6a16.756,16.756,0,0,0-3.921.32,7.04,7.04,0,0,0-4.581,6.341c0,3.9,3.64,5.142,6.9,5.262l-.58,1.66c-3.7-.14-7.922-2.12-7.922-6.581a8.127,8.127,0,0,1,3.741-6.762c-2.14.24-7.241.72-9.4,1.18l-.18-1.74C354.622,187.7,355.262,187.664,355.643,187.624Zm12.923,5.661-1.021.481a18.588,18.588,0,0,0-1.64-2.822l1.02-.439A23.878,23.878,0,0,1,368.566,193.285Zm2.28-.86-1.04.5a18.635,18.635,0,0,0-1.681-2.8l.981-.46A26.434,26.434,0,0,1,370.846,192.425Z"></path><path class="cls-3" d="M381.484,185.943c-.08.42-.16.941-.24,1.521a39.776,39.776,0,0,0,7.021-.861l.02,1.481a63.457,63.457,0,0,1-7.2.76c-.1.78-.16,1.621-.22,2.461a12.748,12.748,0,0,1,3.36-.5c.26,0,.5,0,.74.019.02-.059.04-.12.06-.2a5.364,5.364,0,0,0,.221-1.161l1.58.4c-.12.281-.3.821-.4,1.141,0,.019-.02.04-.02.08a4.891,4.891,0,0,1,3.981,4.7c0,2.881-1.9,5.361-6.542,6.1l-.86-1.34c3.621-.38,5.861-2.24,5.861-4.841a3.616,3.616,0,0,0-2.88-3.421,16.67,16.67,0,0,1-4.461,6.5q.24.87.48,1.62l-1.44.441c-.121-.34-.221-.72-.32-1.12a6.891,6.891,0,0,1-3.4,1.1,2.262,2.262,0,0,1-2.361-2.52c0-2.581,2.241-5.2,5-6.482.04-1,.141-2,.22-2.941-.42.02-.82.02-1.22.02-.86,0-2.42-.08-3.241-.14l-.04-1.5a27.648,27.648,0,0,0,3.3.259c.46,0,.9,0,1.36-.019.06-.58.12-1.1.16-1.54a8.541,8.541,0,0,0,.041-.961l1.68.04A6.649,6.649,0,0,0,381.484,185.943Zm-4.361,13.343a5.016,5.016,0,0,0,2.76-1.059,24.374,24.374,0,0,1-.48-4.541v-.361c-1.94,1.1-3.421,3.081-3.421,4.721C375.982,198.866,376.363,199.286,377.123,199.286Zm4.021-2.1a13.264,13.264,0,0,0,3.4-5.122H384.2a9.777,9.777,0,0,0-3.38.641c-.02.28-.02.54-.02.82A21.363,21.363,0,0,0,381.144,197.186Z"></path><path class="cls-3" d="M398.063,185l1.88.06c-.1.5-.26,1.621-.4,3.021.04-.02.08-.02.119-.04l.581.7c-.261.36-.6.9-.9,1.4-.04.379-.06.759-.1,1.16,1.561-1.441,4.141-3.381,6.161-3.381a2.482,2.482,0,0,1,2.781,2.68c0,2-.74,5.442-.74,7.482,0,.66.32,1.221,1.04,1.221a4.424,4.424,0,0,0,3.021-1.661l.26,1.72a5.184,5.184,0,0,1-3.681,1.66c-1.32,0-2.22-.859-2.22-2.52,0-2.22.76-5.5.76-7.461A1.439,1.439,0,0,0,405,189.4c-1.62,0-4.041,1.881-5.881,3.841-.04.84-.06,1.641-.06,2.36,0,1.821-.02,3.041.08,4.822.02.36.06.86.1,1.219H397.5c.04-.359.06-.859.06-1.179.02-1.921.02-2.941.06-5.121,0-.2.02-.481.02-.8-.98,1.48-2.3,3.381-3.261,4.741l-1.02-1.38c1.12-1.4,3.441-4.521,4.441-6.081.04-.66.1-1.341.14-1.98-.9.12-2.661.359-3.921.54l-.16-1.641c.44.02.82,0,1.3-.019.66-.04,1.841-.161,2.881-.341.06-.941.1-1.68.1-1.9A9.571,9.571,0,0,0,398.063,185Z"></path><path class="cls-3" d="M416.563,187.164a49.881,49.881,0,0,0-1,8.062,18.836,18.836,0,0,0,.2,2.8c.32-.921.8-2.14,1.14-2.94l.82.64c-.48,1.379-1.22,3.44-1.44,4.42a4.862,4.862,0,0,0-.08.9c.02.18.04.48.06.7l-1.4.1a24.339,24.339,0,0,1-.76-6.341,61.751,61.751,0,0,1,.921-8.4,11.965,11.965,0,0,0,.12-1.44l1.76.16A10.166,10.166,0,0,0,416.563,187.164Zm10.082-.261c-.02.54-.04,1.481-.04,2.421a33.553,33.553,0,0,0,3.461-.46v1.54c-1.1.181-2.261.3-3.461.38.02,2.021.16,4.022.24,5.7a13.1,13.1,0,0,1,3.941,2.581l-.861,1.34a16.314,16.314,0,0,0-3.02-2.32v.4c0,1.641-.76,3.261-3.461,3.261-2.68,0-4.141-1.1-4.141-2.9,0-1.661,1.481-3,4.1-3a9.176,9.176,0,0,1,1.861.179c-.06-1.54-.18-3.5-.2-5.161-.641.021-1.281.04-1.921.04-1.14,0-2.181-.04-3.361-.12v-1.5c1.141.1,2.221.16,3.381.16.64,0,1.26-.02,1.9-.04v-2.48c0-.34-.041-.88-.081-1.24h1.8A8.763,8.763,0,0,0,426.645,186.9Zm-3.481,13.364c1.68,0,2.181-.84,2.181-2.181,0-.2,0-.42-.02-.68a6.355,6.355,0,0,0-2.061-.32c-1.48,0-2.54.64-2.54,1.62C420.724,199.727,421.724,200.267,423.164,200.267Zm6.522-12.443-1.021.36a30.02,30.02,0,0,0-1.14-2.84l.98-.3A29.279,29.279,0,0,1,429.686,187.824Zm2.04-.64-1.02.36a22.278,22.278,0,0,0-1.181-2.8l.981-.32C430.886,185.163,431.426,186.384,431.726,187.184Z"></path><path class="cls-3" d="M82.864,219.123a25.4,25.4,0,0,0,8.682,7.382,6.634,6.634,0,0,0-.98,1.32,29.683,29.683,0,0,1-8.362-7.242,26.679,26.679,0,0,1-8.182,7.342,6.067,6.067,0,0,0-.92-1.18,23.867,23.867,0,0,0,8.282-7.622Zm.12,16.384h7.8v1.36h-16.9v-1.36h7.582v-3.261H75.5v-1.32h5.961v-3.121H76.4v-1.34H88.285v1.34h-5.3v3.121h6.061v1.32H82.984Z"></path><path class="cls-3" d="M104.984,222.264c-1.36,1.2-4.24,3.48-5.721,4.72-1.2,1.021-1.22,1.341.06,2.421,1.821,1.481,5.362,4.341,7.482,6.462l-1.42,1.319c-.421-.479-.881-.979-1.381-1.459-1.4-1.441-4.44-4.041-6.3-5.582-1.9-1.58-1.66-2.44.14-3.96,1.5-1.26,4.541-3.662,5.9-5.041a9.459,9.459,0,0,0,1.14-1.34l1.481,1.32C105.945,221.464,105.325,221.983,104.984,222.264Z"></path><path class="cls-3" d="M122.944,236.507l-.94-1.481a15.127,15.127,0,0,0,1.72-.259c2.561-.581,5.081-2.481,5.081-5.942a5.571,5.571,0,0,0-5.341-5.8,39.328,39.328,0,0,1-1.2,5.761c-1.22,4.121-2.8,6.222-4.661,6.222-1.781,0-3.561-2.041-3.561-5.342,0-4.341,3.861-8.142,8.742-8.142a7.249,7.249,0,0,1,7.662,7.362C130.446,233.086,127.685,235.887,122.944,236.507Zm-5.281-3.341c.94,0,2-1.34,3.021-4.721a32.668,32.668,0,0,0,1.12-5.4,6.977,6.977,0,0,0-6.2,6.481C115.6,232.046,116.763,233.166,117.663,233.166Z"></path><path class="cls-3" d="M138.123,227.625c-2.02.4-3.781.76-4.6.94l-.3-1.68c.9-.1,2.781-.441,4.9-.84v-3.421a11.235,11.235,0,0,0-.12-1.841h1.88a14.227,14.227,0,0,0-.12,1.841v3.12c3.4-.66,6.9-1.38,7.742-1.58a3.444,3.444,0,0,0,1.061-.36l1.18.921c-.14.219-.361.559-.5.8a29.011,29.011,0,0,1-4.1,5.822l-1.381-.821a19.559,19.559,0,0,0,3.561-4.76c-.34.059-4.021.8-7.562,1.52v5.961c0,1.38.5,1.82,2.9,1.82a30.338,30.338,0,0,0,6.221-.6l-.06,1.719a42.573,42.573,0,0,1-6.281.42c-3.721,0-4.421-.979-4.421-2.94Zm11.043-4.921-1.081.48a24.24,24.24,0,0,0-1.62-2.76l1.06-.461A27.016,27.016,0,0,1,149.166,222.7Zm2.24-.82-1.08.48a18.854,18.854,0,0,0-1.661-2.741l1.061-.46A25.054,25.054,0,0,1,151.406,221.884Z"></path><path class="cls-3" d="M156.983,222.224h10.742c.44,0,1.16,0,1.76-.04-.04.5-.04,1.06-.04,1.56v9.862c0,.64.02,2.2.04,2.42h-1.72c0-.139.02-.62.02-1.16H156.863c.02.521.02,1,.04,1.16h-1.721c.02-.259.06-1.74.06-2.44v-9.842c0-.46,0-1.08-.04-1.56C155.982,222.2,156.523,222.224,156.983,222.224Zm-.12,11.083h10.942v-9.5H156.863Z"></path><path class="cls-3" d="M187.785,223.384a25.287,25.287,0,0,1-3.361,5.861,55.517,55.517,0,0,1,5.842,5.982l-1.4,1.2a46.2,46.2,0,0,0-5.5-5.942,25.365,25.365,0,0,1-7.8,5.842l-1.281-1.341a22.856,22.856,0,0,0,8.242-5.941,17.6,17.6,0,0,0,3.321-5.561h-7.8c-.7,0-1.8.08-2.02.1v-1.82c.28.04,1.42.12,2.02.12h7.722a5.516,5.516,0,0,0,1.5-.16l1.02.78A5.689,5.689,0,0,0,187.785,223.384Z"></path><path class="cls-3" d="M202.1,221.744a6.806,6.806,0,0,1-.42.72h5.421a3.986,3.986,0,0,0,1.32-.2l1.321.8a6.541,6.541,0,0,0-.481,1.081,20.143,20.143,0,0,1-3.12,6.22c.84.62,1.64,1.24,2.28,1.761l-1.18,1.38c-.6-.54-1.36-1.16-2.18-1.82a18.988,18.988,0,0,1-7.622,5.081L196,235.526a17.548,17.548,0,0,0,7.741-4.82c-1.44-1.041-2.96-2.081-4.241-2.881l1.081-1.1c1.32.76,2.82,1.72,4.22,2.7a16.711,16.711,0,0,0,2.721-5.542h-6.761a21.833,21.833,0,0,1-5.3,5.3l-1.34-1.041a18.329,18.329,0,0,0,6.422-6.961,7.253,7.253,0,0,0,.64-1.581l1.82.581C202.664,220.7,202.3,221.384,202.1,221.744Z"></path><path class="cls-3" d="M217.1,227.325h10.962c1,0,1.721-.06,2.161-.1v1.961c-.4-.021-1.241-.1-2.141-.1H217.1c-1.1,0-2.161.04-2.781.1v-1.961C214.922,227.265,215.982,227.325,217.1,227.325Z"></path><path class="cls-3" d="M239.023,222.483a12.632,12.632,0,0,0-.16-2.08h1.961c-.06.62-.14,1.481-.14,2.08v3.261a64.143,64.143,0,0,1,8.542,3.3l-.681,1.7a52.346,52.346,0,0,0-7.861-3.221c.02,3,.02,6.021.02,6.6,0,.62.04,1.7.12,2.361h-1.941a17.638,17.638,0,0,0,.14-2.361Z"></path><path class="cls-3" d="M255.643,222.624c1.3-.141,5.081-.521,8.761-.82,2.181-.18,4.061-.3,5.4-.361v1.6a16.756,16.756,0,0,0-3.921.32,7.04,7.04,0,0,0-4.581,6.341c0,3.9,3.64,5.142,6.9,5.262l-.58,1.66c-3.7-.14-7.922-2.12-7.922-6.581a8.127,8.127,0,0,1,3.741-6.762c-2.14.24-7.241.72-9.4,1.18l-.18-1.74C254.622,222.7,255.262,222.664,255.643,222.624Zm12.923,5.661-1.021.481a18.588,18.588,0,0,0-1.64-2.822l1.02-.439A23.878,23.878,0,0,1,268.566,228.285Zm2.28-.86-1.04.5a18.635,18.635,0,0,0-1.681-2.8l.981-.46A26.434,26.434,0,0,1,270.846,227.425Z"></path><path class="cls-3" d="M281.484,220.943c-.08.42-.16.941-.24,1.521a39.776,39.776,0,0,0,7.021-.861l.02,1.481a63.457,63.457,0,0,1-7.2.76c-.1.78-.16,1.621-.22,2.461a12.748,12.748,0,0,1,3.36-.5c.26,0,.5,0,.74.019.02-.059.04-.12.06-.2a5.364,5.364,0,0,0,.221-1.161l1.58.4c-.12.281-.3.821-.4,1.141,0,.019-.02.04-.02.08a4.891,4.891,0,0,1,3.981,4.7c0,2.881-1.9,5.361-6.542,6.1l-.86-1.34c3.621-.38,5.861-2.24,5.861-4.841a3.616,3.616,0,0,0-2.88-3.421,16.67,16.67,0,0,1-4.461,6.5q.24.87.48,1.62l-1.44.441c-.121-.34-.221-.72-.32-1.12a6.891,6.891,0,0,1-3.4,1.1,2.262,2.262,0,0,1-2.361-2.52c0-2.581,2.241-5.2,5-6.482.04-1,.141-2,.22-2.941-.42.02-.82.02-1.22.02-.86,0-2.42-.08-3.241-.14l-.04-1.5a27.648,27.648,0,0,0,3.3.259c.46,0,.9,0,1.36-.019.06-.58.12-1.1.16-1.54a8.541,8.541,0,0,0,.041-.961l1.68.04A6.649,6.649,0,0,0,281.484,220.943Zm-4.361,13.343a5.016,5.016,0,0,0,2.76-1.059,24.374,24.374,0,0,1-.48-4.541v-.361c-1.94,1.1-3.421,3.081-3.421,4.721C275.982,233.866,276.363,234.286,277.123,234.286Zm4.021-2.1a13.264,13.264,0,0,0,3.4-5.122H284.2a9.777,9.777,0,0,0-3.38.641c-.02.28-.02.54-.02.82A21.363,21.363,0,0,0,281.144,232.186Z"></path><path class="cls-3" d="M297.363,227.405c1.42-.44,4.7-1.64,7.061-1.64,2.841,0,4.881,1.7,4.881,4.44,0,3.841-3.7,5.8-9.1,6.142l-.64-1.54c4.32-.141,8.121-1.381,8.121-4.642,0-1.68-1.34-2.96-3.381-2.96-2.48,0-6.861,1.84-8.141,2.34l-.681-1.64A19.04,19.04,0,0,0,297.363,227.405Z"></path><path class="cls-3" d="M315.763,222.5c1.3-.14,5.081-.521,8.761-.82,2.181-.2,4.062-.3,5.4-.361v1.6a16.752,16.752,0,0,0-3.92.32,7.035,7.035,0,0,0-4.581,6.321c0,3.921,3.641,5.162,6.9,5.282l-.58,1.66c-3.7-.14-7.922-2.12-7.922-6.581a8.128,8.128,0,0,1,3.741-6.762c-2.14.24-7.241.72-9.4,1.181l-.18-1.742C314.742,222.584,315.382,222.544,315.763,222.5Z"></path><path class="cls-3" d="M340.884,221.563c-.06.521-.16,1.221-.28,2.061a26.993,26.993,0,0,0,4.061-.26l-.04,1.5c-1.281.12-2.441.18-4.061.18h-.141c-.14,1.181-.3,2.441-.44,3.621h.38a29.418,29.418,0,0,0,4.161-.26l-.04,1.521a36.485,36.485,0,0,1-3.92.2h-.721c-.08.8-.12,1.5-.12,1.98,0,1.941,1.081,3.141,3.361,3.141,3.041,0,4.981-1.34,4.981-3.4a5.55,5.55,0,0,0-2.18-4.081l1.76-.36a6.567,6.567,0,0,1,2.041,4.621c0,2.981-2.641,4.781-6.6,4.781-2.721,0-4.9-1.18-4.9-4.461,0-.56.06-1.361.16-2.3a19.774,19.774,0,0,1-4.181-.721l.08-1.54a17.866,17.866,0,0,0,4.261.82c.12-1.18.28-2.44.44-3.621a27.6,27.6,0,0,1-4.3-.7l.08-1.46a19.84,19.84,0,0,0,4.381.74c.1-.8.18-1.52.22-2.1a6.871,6.871,0,0,0,.02-1.421l1.8.12A10.842,10.842,0,0,0,340.884,221.563Z"></path><path class="cls-3" d="M371.406,227.285v1.62H353.242v-1.62Z"></path><path class="cls-3" d="M382.9,219.764c-.02.259-.02.58-.04.92.18,2.64,1.26,11.882,8.782,15.323a4.5,4.5,0,0,0-1.1,1.22c-5.16-2.441-7.361-7.562-8.321-11.563-.88,4-2.941,8.822-8,11.563a5.061,5.061,0,0,0-1.2-1.14c8.1-4.141,8.1-13.683,8.242-16.323Z"></path><path class="cls-3" d="M411.166,222.3v1.36H393.422V222.3h4.9a13.656,13.656,0,0,0-1.82-2.66l1.36-.521a13.588,13.588,0,0,1,2,2.8l-.98.38h5.961a22.576,22.576,0,0,0,1.881-3.241l1.56.52c-.54.921-1.2,1.9-1.78,2.721Zm-9.222,13.4c0,.76-.18,1.14-.72,1.38a8.131,8.131,0,0,1-2.781.24,5.4,5.4,0,0,0-.48-1.3c1,.04,1.9.04,2.161.021.3-.021.379-.1.379-.361v-2.66h-4.42v4.3h-1.421V225.444h7.282Zm-5.861-8.982v1.961h4.42v-1.961Zm4.42,5.121v-2h-4.42v2Zm5.242,1.921h-1.381v-8.122h1.381Zm2.64-8.723h1.461v10.5c0,.9-.2,1.3-.8,1.54a9.768,9.768,0,0,1-3.16.26,5.9,5.9,0,0,0-.54-1.42c1.22.04,2.3.04,2.6.019.34-.019.44-.1.44-.4Z"></path><path class="cls-3" d="M422.944,236.507l-.94-1.481a15.127,15.127,0,0,0,1.72-.259c2.561-.581,5.081-2.481,5.081-5.942a5.571,5.571,0,0,0-5.341-5.8,39.328,39.328,0,0,1-1.2,5.761c-1.22,4.121-2.8,6.222-4.661,6.222-1.781,0-3.561-2.041-3.561-5.342,0-4.341,3.861-8.142,8.742-8.142a7.249,7.249,0,0,1,7.662,7.362C430.446,233.086,427.685,235.887,422.944,236.507Zm-5.281-3.341c.94,0,2-1.34,3.021-4.721a32.668,32.668,0,0,0,1.12-5.4,6.977,6.977,0,0,0-6.2,6.481C415.6,232.046,416.763,233.166,417.663,233.166Z"></path><path class="cls-3" d="M76.863,257.624h11a14.378,14.378,0,0,0,1.7-.12v1.761a15.164,15.164,0,0,0-1.7-.08h-4.8v9.2h5.881a14.312,14.312,0,0,0,1.661-.119v1.82a12.558,12.558,0,0,0-1.661-.08H75.723c-.541,0-1.141.019-1.761.08v-1.82a13.879,13.879,0,0,0,1.761.119h5.641v-9.2h-4.5c-.381,0-1.18.019-1.681.08V257.5A13.259,13.259,0,0,0,76.863,257.624Z"></path><path class="cls-3" d="M103.1,266.706a18.849,18.849,0,0,0,6.682-7.361l.96,1.7a19.992,19.992,0,0,1-6.722,7.121,21.928,21.928,0,0,1-7.861,3.1l-1.06-1.641A20.656,20.656,0,0,0,103.1,266.706Zm-1.18-6.342-1.26,1.261a41.73,41.73,0,0,0-4.981-4.182l1.14-1.219A43.807,43.807,0,0,1,101.924,260.364Z"></path><path class="cls-3" d="M119.423,262.865l-.9,1.4a44.213,44.213,0,0,0-4.381-2.742l.9-1.36C116.223,260.805,118.563,262.245,119.423,262.865Zm2.341,4.781a20.441,20.441,0,0,0,7.581-7.341l.961,1.66a23.538,23.538,0,0,1-7.7,7.141,23.886,23.886,0,0,1-6.622,2.481l-.919-1.62A21.908,21.908,0,0,0,121.764,267.646Zm.64-9.162-.94,1.38c-.961-.74-3.141-2.18-4.3-2.86l.9-1.341C119.243,256.323,121.544,257.864,122.4,258.484Zm6.061.58-1.14.52a22.272,22.272,0,0,0-1.821-3.16l1.1-.46A29.53,29.53,0,0,1,128.465,259.064Zm2.681-1-1.141.52a21.756,21.756,0,0,0-1.9-3.1l1.121-.48A28.857,28.857,0,0,1,131.146,258.064Z"></path><path class="cls-3" d="M136.223,267.866h11.982a18.164,18.164,0,0,0,1.82-.1v1.92c-.6-.06-1.28-.1-1.82-.1H136.223c-.72,0-1.421.059-2.1.1v-1.92C134.8,267.806,135.5,267.866,136.223,267.866Zm1.6-9.922h8.562a19.652,19.652,0,0,0,1.98-.08v1.8c-.56-.04-1.32-.06-1.98-.06h-8.562c-.7,0-1.361.041-1.981.06v-1.8C136.482,257.9,137.163,257.944,137.823,257.944Z"></path><path class="cls-3" d="M170.366,258.084a19.3,19.3,0,0,1-4.981,5.521l-1.32-1.06a13.588,13.588,0,0,0,4.38-4.481h-11.4a22.1,22.1,0,0,0-2.281.12v-1.821a16.823,16.823,0,0,0,2.281.181h11.482a10.013,10.013,0,0,0,1.4-.12l.981.94C170.766,257.563,170.506,257.864,170.366,258.084Zm-13.023,13.543-1.481-1.2a6.883,6.883,0,0,0,1.8-.9c3.1-1.9,3.541-4.741,3.541-8.082a12.035,12.035,0,0,0-.08-1.44h1.8C162.924,265.426,162.444,269.086,157.343,271.627Z"></path><path class="cls-3" d="M177.223,257.184a46.437,46.437,0,0,0-1,7.662,21.947,21.947,0,0,0,.18,2.8c.34-.9.82-2.1,1.16-2.92l.84.639a40.835,40.835,0,0,0-1.42,4.482,3.849,3.849,0,0,0-.1.9c.02.22.04.5.06.7l-1.44.1a25.186,25.186,0,0,1-.741-6.422,56.14,56.14,0,0,1,.9-8.022,8.73,8.73,0,0,0,.14-1.419l1.78.16C177.483,256.184,177.3,256.823,177.223,257.184Zm4.661,10.182c0,.92.66,1.8,3.381,1.8a22.072,22.072,0,0,0,4.961-.52l.04,1.68a27.111,27.111,0,0,1-5,.421c-3.361,0-4.862-1.121-4.862-3a10.75,10.75,0,0,1,.341-2.36l1.44.139A7,7,0,0,0,181.884,267.366Zm7.742-10v1.62a46.84,46.84,0,0,1-8.222,0v-1.6A34.235,34.235,0,0,0,189.626,257.364Z"></path><path class="cls-3" d="M211.026,257.424h-5.221a29.391,29.391,0,0,1,5.041,3.98l-1.24.881a14.77,14.77,0,0,0-1.361-1.341c-5.021.2-10.342.341-13.843.4l-.06-1.38,2.761-.04a24.954,24.954,0,0,0,1.68-2.5h-5.221v-1.34H201.5v-1.94H203v1.94h8.022Zm-2.741,13.4c0,.8-.2,1.18-.82,1.359a12.835,12.835,0,0,1-3.261.221,5.755,5.755,0,0,0-.48-1.221c1.16.021,2.321.021,2.661.021.3-.021.4-.1.4-.38v-1.721h-8.9v3.3H196.4v-9.843h11.882Zm-10.4-7.021v1.54h8.9v-1.54Zm8.9,4.18v-1.56h-8.9v1.56Zm-6.1-10.562c-.6.82-1.3,1.7-1.961,2.48,2.461-.04,5.281-.1,8.082-.16-.72-.559-1.48-1.12-2.18-1.58l1.12-.74Z"></path><path class="cls-3" d="M215.763,257.5c1.3-.14,5.081-.521,8.761-.82,2.181-.2,4.062-.3,5.4-.361v1.6a16.752,16.752,0,0,0-3.92.32,7.035,7.035,0,0,0-4.581,6.321c0,3.921,3.641,5.162,6.9,5.282l-.58,1.66c-3.7-.14-7.922-2.12-7.922-6.581a8.128,8.128,0,0,1,3.741-6.762c-2.14.24-7.241.72-9.4,1.181l-.18-1.742C214.742,257.584,215.382,257.544,215.763,257.5Z"></path><path class="cls-3" d="M235.763,257.5c1.3-.14,5.081-.521,8.761-.82,2.181-.2,4.062-.3,5.4-.361v1.6a16.752,16.752,0,0,0-3.92.32,7.035,7.035,0,0,0-4.581,6.321c0,3.921,3.641,5.162,6.9,5.282l-.58,1.66c-3.7-.14-7.922-2.12-7.922-6.581a8.128,8.128,0,0,1,3.741-6.762c-2.14.24-7.241.72-9.4,1.181l-.18-1.742C234.742,257.584,235.382,257.544,235.763,257.5Z"></path><path class="cls-3" d="M256.583,258.864c-.02,1.26,0,3.08.14,4.741.32,3.341,1.3,5.561,2.72,5.561,1.02,0,1.961-2.08,2.481-4.08l1.26,1.42c-1.2,3.4-2.42,4.56-3.761,4.56-1.9,0-3.72-1.88-4.261-7.061-.18-1.74-.22-4.181-.22-5.341a9.022,9.022,0,0,0-.14-1.78l1.941.04A15.228,15.228,0,0,0,256.583,258.864Zm14.1,8.562-1.6.66c-.361-3.62-1.561-7.722-3.481-10.062l1.56-.541A21.511,21.511,0,0,1,270.686,267.426Z"></path><path class="cls-3" d="M284.984,257.264c-1.36,1.2-4.24,3.48-5.721,4.72-1.2,1.021-1.22,1.341.06,2.421,1.821,1.481,5.362,4.341,7.482,6.462l-1.42,1.319c-.421-.479-.881-.979-1.381-1.459-1.4-1.441-4.44-4.041-6.3-5.582-1.9-1.58-1.66-2.44.14-3.96,1.5-1.26,4.541-3.662,5.9-5.041a9.459,9.459,0,0,0,1.14-1.34l1.481,1.32C285.945,256.464,285.325,256.983,284.984,257.264Z"></path><path class="cls-3" d="M309.285,256.863v15.484h-1.54v-1.02H297.083v1.12H295.6V256.863h5.021a25.208,25.208,0,0,0,.78-2.74l1.7.22c-.3.86-.66,1.76-1,2.52Zm-12.2,1.421v2.981h10.662v-2.981Zm0,4.381v2.9h10.662v-2.9Zm10.662,7.262v-2.961H297.083v2.961Z"></path><path class="cls-3" d="M319.243,254.623a29.28,29.28,0,0,1-2.04,4.121v13.6h-1.4V260.885a21.442,21.442,0,0,1-2.221,2.64,9.9,9.9,0,0,0-.84-1.44,22.331,22.331,0,0,0,5.121-7.882Zm12.2,3.221v1.24H318.523v-1.24Zm-11.5,8.261h10.163v6.242h-1.481v-.88h-7.241v.94h-1.441Zm9.982-4.28h-9.761V260.6h9.761Zm-9.761,1.54h9.722v1.2h-9.722Zm9.4-7.042H320.4V255.1h9.163Zm-8.182,10.983v2.94h7.241v-2.94Z"></path><path class="cls-3" d="M341.124,261.265c1.88-1.141,4.041-2.2,5.141-2.8a10.822,10.822,0,0,0,1.42-.941l.881,1.421c-.461.281-.961.54-1.541.84a66.614,66.614,0,0,0-6.082,3.321c-1.86,1.2-2.98,2.521-2.98,4.04,0,1.662,1.581,2.7,4.741,2.7a29.781,29.781,0,0,0,6.4-.681v1.78a39.267,39.267,0,0,1-6.322.5c-3.761,0-6.481-1.121-6.481-4.121,0-2.06,1.32-3.681,3.46-5.181a66.958,66.958,0,0,1-2.9-6.162l1.58-.66A43.1,43.1,0,0,0,341.124,261.265Z"></path><path class="cls-3" d="M363.844,267.226c1.421,2.14,3.981,3.441,7.462,3.941a5.688,5.688,0,0,0-.9,1.28c-3.9-.68-6.622-2.36-8.142-5.221h-.18c-1.04,1.98-3.221,3.821-7.782,5.181a5.87,5.87,0,0,0-.9-1.2c3.9-1.08,5.941-2.48,6.981-3.981H353.6V265.9h7.462a6.291,6.291,0,0,0,.38-1.88H355.9v-1.24h5.582v-1.78h-5.9v-1.261h5.9v-1.66h1.48v1.66h6.182v-2.3h-13.8v2.5H353.9V256.1h7.622v-1.94H363v1.94h7.642v3.841h-1.5v1.061h-6.182v1.78h5.9v1.24h-5.941a8.809,8.809,0,0,1-.32,1.88h8.482v1.321Z"></path><path class="cls-3" d="M375.382,265.706a18.283,18.283,0,0,1-1.38,5.081,5.115,5.115,0,0,0-1.1-.541,15.618,15.618,0,0,0,1.22-4.761Zm2.161-1.721v8.422h-1.32v-8.342c-1.16.08-2.261.14-3.2.2l-.08-1.341,1.38-.06c.4-.5.821-1.06,1.241-1.66a18.123,18.123,0,0,0-2.481-2.9l.8-.94c.2.18.4.36.6.56a28.85,28.85,0,0,0,1.781-3.761l1.3.481a37.683,37.683,0,0,1-2.3,4.12,14.157,14.157,0,0,1,1.081,1.28,41.328,41.328,0,0,0,2.14-3.62l1.24.58a66.152,66.152,0,0,1-4,5.781l2.94-.14c-.28-.6-.6-1.2-.9-1.72l1.08-.441a17.763,17.763,0,0,1,1.921,4.1l-1.18.54a8.154,8.154,0,0,0-.4-1.24Zm1.72,5.362a16,16,0,0,0-1-3.621l1.08-.321a15.794,15.794,0,0,1,1.08,3.6Zm5.581.719a15.362,15.362,0,0,1-4.74,2.421,8.928,8.928,0,0,0-.961-.98,13.073,13.073,0,0,0,4.461-2.181Zm6.562-9.7H380.024v-1.019h4.86v-1.081h-3.8v-.96h3.8v-1.04h-4.32v-1h4.32v-1.1h1.481v1.1h4.541v1h-4.541v1.04h4.041v.96h-4.041v1.081h5.041Zm-10.042,8.863v-7.842h8.9v7.842Zm1.36-5.582h6.141v-1.26h-6.141Zm0,2.281h6.141v-1.3h-6.141Zm0,2.3h6.141v-1.341h-6.141Zm5.021,1.16c1.341.759,2.881,1.679,3.821,2.32l-1.3.72c-.8-.6-2.241-1.54-3.521-2.3Z"></path><path class="cls-3" d="M400.544,256.544c-.121.58-.3,1.76-.52,2.84.939-.079,1.76-.14,2.24-.14,1.8,0,3.26.681,3.26,3.4,0,2.38-.339,5.561-1.16,7.221a2.815,2.815,0,0,1-2.92,1.661,12.127,12.127,0,0,1-2.361-.28l-.26-1.681a9.744,9.744,0,0,0,2.441.42,1.668,1.668,0,0,0,1.76-1.04,16.9,16.9,0,0,0,.94-6.121c0-1.82-.84-2.161-2.12-2.161-.48,0-1.28.061-2.141.141a40.814,40.814,0,0,1-4.221,10.782l-1.62-.66c2.04-2.721,3.541-7.282,4.221-9.962-1.06.1-2.02.2-2.54.26-.46.06-1.3.16-1.8.24l-.18-1.721c.64.021,1.16.021,1.8,0,.661-.019,1.821-.12,3.041-.22a22.338,22.338,0,0,0,.52-4.361l1.841.181C400.684,255.724,400.6,256.144,400.544,256.544Zm10.762,8.222-1.54.74a23.476,23.476,0,0,0-3.581-7.182l1.46-.66A34.113,34.113,0,0,1,411.306,264.766Zm-1.781-7.262-1.1.48a24.582,24.582,0,0,0-1.62-2.781l1.08-.439A28.144,28.144,0,0,1,409.525,257.5Zm2.241-.82-1.08.48a22.322,22.322,0,0,0-1.661-2.761l1.061-.46A28.877,28.877,0,0,1,411.766,256.684Z"></path><path class="cls-3" d="M423.064,261.185h6.522v11.242h-1.541v-.88H414.662v-1.46h13.383v-3.1H415.7v-1.44h12.342v-2.9h-13v-1.46h6.421v-7.041h1.6Zm-5.741-1a19.129,19.129,0,0,0-2.541-4.622l1.3-.54a18.546,18.546,0,0,1,2.66,4.541Zm12.523-4.8a43.161,43.161,0,0,1-2.861,4.94l-1.28-.519a29.121,29.121,0,0,0,2.58-4.961Z"></path><path class="cls-3" d="M80.584,301.666c-.52-.58-1.621-1.7-2.521-2.541v8.282H76.6v-7.762a18.89,18.89,0,0,1-3.061,2.5,6.748,6.748,0,0,0-.78-1.339,17.342,17.342,0,0,0,6.261-6.562H73.462v-1.36H76.6v-3.721h1.46v3.721H79.8l.261-.06.84.56a18.013,18.013,0,0,1-2.6,4.361c.94.74,2.7,2.28,3.2,2.721Zm11.022,3.721v1.46H80.4v-1.46h5.061v-8.3h-4.28v-1.44h4.28V289.3h1.481v6.342h4.261v1.44H86.945v8.3Z"></path><path class="cls-3" d="M97.223,292.184a46.437,46.437,0,0,0-1,7.662,21.947,21.947,0,0,0,.18,2.8c.34-.9.82-2.1,1.16-2.92l.84.639a40.835,40.835,0,0,0-1.42,4.482,3.849,3.849,0,0,0-.1.9c.02.22.04.5.06.7l-1.44.1a25.186,25.186,0,0,1-.741-6.422,56.14,56.14,0,0,1,.9-8.022,8.73,8.73,0,0,0,.14-1.419l1.78.16C97.483,291.184,97.3,291.823,97.223,292.184Zm4.661,10.182c0,.92.66,1.8,3.381,1.8a22.072,22.072,0,0,0,4.961-.52l.04,1.68a27.111,27.111,0,0,1-5,.421c-3.361,0-4.862-1.121-4.862-3a10.75,10.75,0,0,1,.341-2.36l1.44.139A7,7,0,0,0,101.884,302.366Zm7.742-10v1.62a46.84,46.84,0,0,1-8.222,0v-1.6A34.235,34.235,0,0,0,109.626,292.364Z"></path><path class="cls-3" d="M117.043,291.964a49.6,49.6,0,0,0-1,8.061,18.775,18.775,0,0,0,.2,2.781c.32-.9.8-2.12,1.14-2.941l.82.641c-.48,1.4-1.22,3.44-1.42,4.421a3.583,3.583,0,0,0-.08.9c0,.2.02.48.04.7l-1.4.1a24.165,24.165,0,0,1-.76-6.321,59.357,59.357,0,0,1,.921-8.422,12,12,0,0,0,.12-1.42l1.76.139A10.375,10.375,0,0,0,117.043,291.964Zm10.1-.28c-.02.54-.04,1.48-.06,2.42a34.061,34.061,0,0,0,3.46-.459v1.54c-1.1.179-2.26.3-3.46.379.02,2.021.16,4.021.24,5.7a13.171,13.171,0,0,1,3.961,2.581l-.88,1.339a16.308,16.308,0,0,0-3.021-2.32v.42c0,1.641-.76,3.221-3.461,3.221-2.68,0-4.161-1.061-4.161-2.861,0-1.68,1.5-3.02,4.121-3.02a9.175,9.175,0,0,1,1.861.18c-.06-1.54-.18-3.5-.2-5.142-.641.021-1.281.04-1.921.04-1.14,0-2.18-.059-3.36-.14v-1.5c1.14.1,2.2.161,3.4.161.62,0,1.26-.021,1.881-.04V291.7c0-.341-.041-.881-.081-1.221h1.8C127.205,290.884,127.165,291.283,127.145,291.684Zm-3.5,13.382c1.681,0,2.181-.86,2.181-2.18,0-.2,0-.44-.02-.7a6.813,6.813,0,0,0-2.041-.32c-1.5,0-2.56.64-2.56,1.62C121.2,304.507,122.2,305.066,123.644,305.066Z"></path><path class="cls-3" d="M141.484,290.943c-.08.42-.16.941-.24,1.521a39.776,39.776,0,0,0,7.021-.861l.02,1.481a63.457,63.457,0,0,1-7.2.76c-.1.78-.16,1.621-.22,2.461a12.748,12.748,0,0,1,3.36-.5c.26,0,.5,0,.74.019.02-.059.04-.12.06-.2a5.364,5.364,0,0,0,.221-1.161l1.58.4c-.12.281-.3.821-.4,1.141,0,.019-.02.04-.02.08a4.891,4.891,0,0,1,3.981,4.7c0,2.881-1.9,5.361-6.542,6.1l-.86-1.34c3.621-.38,5.861-2.24,5.861-4.841a3.616,3.616,0,0,0-2.88-3.421,16.67,16.67,0,0,1-4.461,6.5q.24.87.48,1.62l-1.44.441c-.121-.34-.221-.72-.32-1.12a6.891,6.891,0,0,1-3.4,1.1,2.262,2.262,0,0,1-2.361-2.52c0-2.581,2.241-5.2,5-6.482.04-1,.141-2,.22-2.941-.42.02-.82.02-1.22.02-.86,0-2.42-.08-3.241-.14l-.04-1.5a27.648,27.648,0,0,0,3.3.259c.46,0,.9,0,1.36-.019.06-.58.12-1.1.16-1.54a8.541,8.541,0,0,0,.041-.961l1.68.04A6.649,6.649,0,0,0,141.484,290.943Zm-4.361,13.343a5.016,5.016,0,0,0,2.76-1.059,24.374,24.374,0,0,1-.48-4.541v-.361c-1.94,1.1-3.421,3.081-3.421,4.721C135.982,303.866,136.363,304.286,137.123,304.286Zm4.021-2.1a13.264,13.264,0,0,0,3.4-5.122H144.2a9.777,9.777,0,0,0-3.38.641c-.02.28-.02.54-.02.82A21.363,21.363,0,0,0,141.144,302.186Z"></path><path class="cls-3" d="M158.123,295.664c.82-2.04,2.9-4.54,5.441-4.54,2.661,0,4.561,2.66,4.561,6.861,0,5.561-3.48,8-8.442,8.9l-.94-1.441c4.341-.639,7.742-2.42,7.742-7.441,0-3.16-1.081-5.442-3.181-5.442-2.5,0-4.821,3.642-5.061,6.262a9.33,9.33,0,0,0,.04,2.461l-1.54.12a24.387,24.387,0,0,1-.22-3.181,52.847,52.847,0,0,1,.62-6.461c.08-.6.12-1.181.16-1.721l1.76.06A37.165,37.165,0,0,0,158.123,295.664Z"></path><path class="cls-3" d="M183.624,291.344c0,.259-.02.7-.02,1.219a49.5,49.5,0,0,0,5.421-.54l-.02,1.461c-1.58.18-3.481.36-5.4.46v2.8a50.04,50.04,0,0,0,5.582-.54l-.02,1.5c-1.881.24-3.642.4-5.542.46.04,1.04.1,2.12.14,3.081a15.927,15.927,0,0,1,5.842,3.12l-.921,1.421a14.725,14.725,0,0,0-4.841-3.021c.02.5.04.92.04,1.24,0,1.381-.92,2.8-3.521,2.8-2.88,0-4.441-1.02-4.441-2.941,0-1.82,1.741-3.06,4.622-3.06a11.454,11.454,0,0,1,1.68.12c-.02-.9-.06-1.861-.08-2.721H181c-1.359,0-3.56-.12-5-.28l-.021-1.5a37.031,37.031,0,0,0,5.042.38h1.08V294h-.88c-1.4,0-3.861-.2-5.121-.34l-.02-1.48a36.34,36.34,0,0,0,5.121.44h.92V291.2a10.976,10.976,0,0,0-.08-1.2h1.7A10.029,10.029,0,0,0,183.624,291.344Zm-3.44,14.062c1.14,0,2.12-.359,2.12-1.74,0-.34-.02-.82-.02-1.34a8.879,8.879,0,0,0-1.941-.2c-1.9,0-2.94.74-2.94,1.66S178.2,305.406,180.184,305.406Z"></path><path class="cls-3" d="M204.725,291.3c0,.3-.02.759-.02,1.3h.3c2.441,0,4.9.021,5.862.021l-.02,1.48c-1.12-.06-2.941-.1-5.862-.1h-.279c0,1.141.02,2.381.04,3.3a4.86,4.86,0,0,1,.64,2.56c0,2.7-1.32,5.7-5.982,7.1l-1.34-1.321c2.661-.6,4.5-1.719,5.3-3.541a2.812,2.812,0,0,1-1.74.541,3.185,3.185,0,0,1-3.281-3.34,3.492,3.492,0,0,1,3.521-3.482,3.979,3.979,0,0,1,1.34.221c0-.6,0-1.32-.02-2.021-3.04.02-6.441.161-8.942.34l-.04-1.54c2.221-.04,5.982-.16,8.962-.2,0-.561-.02-1.04-.04-1.32-.02-.521-.1-1.1-.12-1.261h1.82C204.784,290.264,204.745,291.044,204.725,291.3Zm-2.841,9.962c1.18,0,1.94-.941,1.76-2.841a1.793,1.793,0,0,0-1.78-1.26,2.039,2.039,0,0,0-2.021,2.12A1.928,1.928,0,0,0,201.884,301.266Z"></path><path class="cls-3" d="M219.223,304.046a3.051,3.051,0,1,1-3.06-3.04A3.047,3.047,0,0,1,219.223,304.046Zm-1.02,0a2.031,2.031,0,1,0-2.04,2.041A2.032,2.032,0,0,0,218.2,304.046Z"></path><path class="cls-3" d="M83.624,326.344c0,.259-.02.7-.02,1.219a49.5,49.5,0,0,0,5.421-.54l-.02,1.461c-1.58.18-3.481.36-5.4.46v2.8a50.04,50.04,0,0,0,5.582-.54l-.02,1.5c-1.881.24-3.642.4-5.542.46.04,1.04.1,2.12.14,3.081a15.927,15.927,0,0,1,5.842,3.12l-.921,1.421a14.725,14.725,0,0,0-4.841-3.021c.02.5.04.92.04,1.24,0,1.381-.92,2.8-3.521,2.8-2.88,0-4.441-1.02-4.441-2.941,0-1.82,1.741-3.06,4.622-3.06a11.454,11.454,0,0,1,1.68.12c-.02-.9-.06-1.861-.08-2.721H81c-1.359,0-3.56-.12-5-.28l-.021-1.5a37.031,37.031,0,0,0,5.042.38H82.1V329h-.88c-1.4,0-3.861-.2-5.121-.34l-.02-1.48a36.34,36.34,0,0,0,5.121.44h.92V326.2a10.976,10.976,0,0,0-.08-1.2h1.7A10.029,10.029,0,0,0,83.624,326.344Zm-3.44,14.062c1.14,0,2.12-.359,2.12-1.74,0-.34-.02-.82-.02-1.34a8.879,8.879,0,0,0-1.941-.2c-1.9,0-2.94.74-2.94,1.66S78.2,340.406,80.184,340.406Z"></path><path class="cls-3" d="M104.144,326.523c0,.3-.02.761-.02,1.3h.3c2.461,0,4.921.02,5.862.02l-.02,1.5c-1.12-.061-2.921-.12-5.862-.12h-.28c0,1.139.02,2.36.04,3.3a4.852,4.852,0,0,1,.64,2.561c0,2.72-1.32,5.721-5.961,7.1l-1.34-1.319c2.641-.6,4.5-1.721,5.321-3.541a2.918,2.918,0,0,1-1.76.54,3.189,3.189,0,0,1-3.3-3.341,3.5,3.5,0,0,1,3.541-3.48,4,4,0,0,1,1.34.22c0-.6-.02-1.321-.02-2.021-3.06.04-6.441.18-8.942.36l-.06-1.56c2.24-.04,6-.16,8.982-.2-.02-.56-.02-1.04-.04-1.321-.04-.519-.1-1.1-.14-1.259h1.82C104.224,325.483,104.164,326.283,104.144,326.523Zm-2.84,9.962c1.16,0,1.94-.939,1.78-2.82a1.835,1.835,0,0,0-1.8-1.28,2.039,2.039,0,0,0-2.021,2.12A1.937,1.937,0,0,0,101.3,336.485Zm7.2-9.2-1.14.5a22.7,22.7,0,0,0-1.46-2.461l1.1-.46A24.568,24.568,0,0,1,108.505,327.284Zm2.441-.54-1.14.5a16.01,16.01,0,0,0-1.481-2.421l1.12-.48C109.905,325.023,110.525,325.964,110.946,326.744Z"></path><path class="cls-3" d="M117.043,326.964a49.6,49.6,0,0,0-1,8.061,18.775,18.775,0,0,0,.2,2.781c.32-.9.8-2.12,1.14-2.941l.82.641c-.48,1.4-1.22,3.44-1.42,4.421a3.583,3.583,0,0,0-.08.9c0,.2.02.48.04.7l-1.4.1a24.165,24.165,0,0,1-.76-6.321,59.357,59.357,0,0,1,.921-8.422,12,12,0,0,0,.12-1.42l1.76.139A10.375,10.375,0,0,0,117.043,326.964Zm10.1-.28c-.02.54-.04,1.48-.06,2.42a34.061,34.061,0,0,0,3.46-.459v1.54c-1.1.179-2.26.3-3.46.379.02,2.021.16,4.021.24,5.7a13.171,13.171,0,0,1,3.961,2.581l-.88,1.339a16.308,16.308,0,0,0-3.021-2.32v.42c0,1.641-.76,3.221-3.461,3.221-2.68,0-4.161-1.061-4.161-2.861,0-1.68,1.5-3.02,4.121-3.02a9.175,9.175,0,0,1,1.861.18c-.06-1.54-.18-3.5-.2-5.142-.641.021-1.281.04-1.921.04-1.14,0-2.18-.059-3.36-.14v-1.5c1.14.1,2.2.161,3.4.161.62,0,1.26-.021,1.881-.04V326.7c0-.341-.041-.881-.081-1.221h1.8C127.205,325.884,127.165,326.283,127.145,326.684Zm-3.5,13.382c1.681,0,2.181-.86,2.181-2.18,0-.2,0-.44-.02-.7a6.813,6.813,0,0,0-2.041-.32c-1.5,0-2.56.64-2.56,1.62C121.2,339.507,122.2,340.066,123.644,340.066Z"></path><path class="cls-3" d="M133.322,337.546l1.3-1.14a37.482,37.482,0,0,1,4.481,4.441l-1.36,1.16A33.4,33.4,0,0,0,133.322,337.546Z"></path><path class="cls-3" d="M170.366,328.824a31.307,31.307,0,0,1-7.282,8.122c1.2,1.2,2.621,2.7,3.421,3.681l-1.46,1.16a48.182,48.182,0,0,0-3.6-4.081,47.058,47.058,0,0,0-4.581-3.94l1.3-1.061c.74.54,2.381,1.88,3.741,3.1a24.551,24.551,0,0,0,6.241-6.942H156.383c-.78,0-1.641.08-2.041.12v-1.8a15.384,15.384,0,0,0,2.041.16h11.922a4.224,4.224,0,0,0,1.3-.16l1.26,1.02A5.76,5.76,0,0,0,170.366,328.824Z"></path><path class="cls-3" d="M182.744,329.925a23.863,23.863,0,0,0,5.461-4.7l1.34,1.24a32.741,32.741,0,0,1-5.4,4.461v8.441a15.108,15.108,0,0,0,.12,2.141H182.3a18.558,18.558,0,0,0,.12-2.141v-7.4a39.588,39.588,0,0,1-7.622,3.261l-.8-1.561A33.1,33.1,0,0,0,182.744,329.925Z"></path><path class="cls-3" d="M201.8,325.4h1.98a18.568,18.568,0,0,0-.12,2v2.68h5.321c.661,0,1.421-.04,1.741-.08v1.7c-.32-.04-1.14-.06-1.761-.06h-5.3c-.02,4.4-1.5,7.641-5.541,10l-1.56-1.16c3.78-1.78,5.421-4.74,5.421-8.841h-5.861c-.741,0-1.481.02-1.9.06v-1.721c.42.04,1.16.1,1.861.1h5.9v-2.7A11.181,11.181,0,0,0,201.8,325.4Z"></path><path class="cls-3" d="M217.763,327.5v4.52a54.505,54.505,0,0,0,7.6-2.44,14.72,14.72,0,0,0,1.76-.9l.7,1.6c-.56.24-1.28.561-1.88.78a76.484,76.484,0,0,1-8.182,2.6v4.4c0,1.02.42,1.281,1.4,1.481a19.2,19.2,0,0,0,2.641.159,32.676,32.676,0,0,0,6.841-.64v1.821a56.131,56.131,0,0,1-6.921.42,20.89,20.89,0,0,1-3.2-.2c-1.54-.279-2.4-.979-2.4-2.6v-11a10.83,10.83,0,0,0-.12-1.62h1.86A13.269,13.269,0,0,0,217.763,327.5Zm10.722.44-1.08.5a22.944,22.944,0,0,0-1.62-2.781l1.06-.46A31.16,31.16,0,0,1,228.485,327.944Zm2.241-.82-1.08.5a21.043,21.043,0,0,0-1.661-2.761l1.06-.46A28.565,28.565,0,0,1,230.726,327.124Z"></path><path class="cls-3" d="M240.8,326.464c-.12.58-.3,1.76-.521,2.86.941-.08,1.781-.139,2.261-.139,1.78,0,3.241.679,3.241,3.379,0,2.381-.321,5.562-1.16,7.222a2.818,2.818,0,0,1-2.921,1.681,10.875,10.875,0,0,1-2.361-.3l-.26-1.66a9.725,9.725,0,0,0,2.461.4,1.652,1.652,0,0,0,1.74-1.019,16.952,16.952,0,0,0,.96-6.122c0-1.84-.86-2.18-2.12-2.18-.48,0-1.28.06-2.161.14a41.165,41.165,0,0,1-4.2,10.782l-1.641-.64c2.041-2.741,3.541-7.3,4.221-9.982-1.06.1-2.02.219-2.54.28-.461.06-1.28.159-1.8.239l-.16-1.74a17.343,17.343,0,0,0,1.781,0c.66-.019,1.84-.12,3.04-.22a20.906,20.906,0,0,0,.52-4.361l1.861.2C240.963,325.644,240.884,326.084,240.8,326.464Zm10.782,8.1-1.561.741a23.507,23.507,0,0,0-3.56-7.242l1.46-.66A35.532,35.532,0,0,1,251.586,334.565Z"></path><path class="cls-3" d="M257.7,334.466a9.6,9.6,0,0,1,6.521-2.442c3.061,0,5.1,1.841,5.1,4.182,0,3.58-3.16,6-10.6,5.381l-.48-1.641c6.322.781,9.4-1.04,9.4-3.78,0-1.6-1.48-2.741-3.521-2.741a7.844,7.844,0,0,0-6.2,2.68,3.169,3.169,0,0,0-.6,1l-1.481-.359a71.192,71.192,0,0,0,1.021-8.122l1.68.22C258.263,330.2,257.923,333.186,257.7,334.466Zm9.022-7.722-.38,1.54c-1.9-.26-6.241-1.14-7.762-1.56l.4-1.521A54.66,54.66,0,0,0,266.725,326.744Z"></path><path class="cls-3" d="M290.986,328.784s-.02.561-.02.76c-.22,8.382-.4,11.163-1.08,12a1.579,1.579,0,0,1-1.341.74,13.8,13.8,0,0,1-2.42,0,4.03,4.03,0,0,0-.42-1.4c.96.08,1.84.1,2.22.1a.757.757,0,0,0,.72-.319c.461-.58.7-3.221.9-10.482h-2.86c-.24,5.321-1.161,9.681-4.681,12.322a5.007,5.007,0,0,0-1.1-1.06,7.8,7.8,0,0,0,.86-.7c-3.021.359-6.121.7-8.362.939l-.22-1.3c1.2-.1,2.7-.241,4.341-.4v-1.719h-3.781v-1.141h3.781v-1.221h-3.741v-5.94h3.741V328.7H273.2v-1.16h4.321v-1.32c-1.28.1-2.581.179-3.761.219a4.435,4.435,0,0,0-.36-1.1,62.508,62.508,0,0,0,8.622-.981l.74,1.141a38.525,38.525,0,0,1-3.9.58v1.46H283.1v1.16h-4.241v1.261h3.881v5.94h-3.881v1.221h3.921v1.141h-3.921v1.58c1.3-.12,2.661-.26,4-.42v.08c1.721-2.362,2.261-5.582,2.441-9.322h-2.341v-1.4h2.381c.04-1.4.04-2.86.04-4.381h1.4c0,1.5,0,2.981-.04,4.381ZM275,332.425h2.52v-1.441H275Zm2.52,2.44v-1.46H275v1.46Zm1.34-3.881v1.441h2.621v-1.441Zm2.621,2.421h-2.621v1.46h2.621Z"></path><path class="cls-3" d="M311.066,325.464v1.38h-8.122v2.22h4.081v8.942h-9.562v-8.942h4v-2.22H293.5v-1.38Zm-2,3.38h1.44v13.5h-1.44v-1.18h-13.5v1.24h-1.441V328.844h1.441v10.9h13.5Zm-10.343,4.081h2.841v-2.6h-2.841Zm0,3.821h2.841v-2.621h-2.841Zm7-6.422h-2.861v2.6h2.861Zm0,3.8h-2.861v2.621h2.861Z"></path><path class="cls-3" d="M320.2,336.546a30.949,30.949,0,0,0-2.381-2.621v8.482h-1.46v-7.7a18.336,18.336,0,0,1-2.861,2.44,6.69,6.69,0,0,0-.76-1.339,17.35,17.35,0,0,0,5.941-6.562h-5.221v-1.36h2.9v-3.721h1.46v3.721h1.64l.26-.06.821.54a18.761,18.761,0,0,1-2.381,4.221c.88.74,2.541,2.3,2.961,2.761Zm9.562,4.461c.46,0,.54-.28.6-2.4a3.25,3.25,0,0,0,1.22.56c-.14,2.48-.52,3.081-1.661,3.081h-1.86c-1.38,0-1.7-.4-1.7-1.8v-4.14h-1.62c-.361,2.88-1.341,4.941-4.5,6.1a5.03,5.03,0,0,0-.861-1.14c2.8-.941,3.6-2.641,3.941-4.961h-1.58V325.163h8.342v11.143h-2.381v4.14c0,.481.08.561.56.561ZM323.1,328.484h5.541V326.4H323.1Zm0,3.281h5.541v-2.12H323.1Zm0,3.3h5.541v-2.12H323.1Z"></path><path class="cls-3" d="M339.763,326.544v15.843h-1.34v-3.42c-1.88.279-3.721.54-5.2.739l-.18-1.42c.42-.04.86-.08,1.36-.14v-11.6h-1.06v-1.32h7.442v1.04h4.4v-1.921h1.42v1.921h4.541v1.259h-4.541v1.8h4.321v5.5H341v-5.5h4.182v-1.8h-4.461v-.979Zm-1.34,0h-2.7v2.84h2.7Zm0,4.081h-2.7v2.84h2.7Zm-2.7,7.361c.86-.1,1.78-.22,2.7-.36v-2.9h-2.7Zm4.22,2.941a8.706,8.706,0,0,0,1.621-4.041l1.2.38a10.165,10.165,0,0,1-1.68,4.34Zm4-10.422h-1.7v3.14h1.7Zm3.361,10.521c.48,0,.58-.219.62-1.98a3.893,3.893,0,0,0,1.221.52c-.141,2.2-.5,2.721-1.681,2.721h-2.14c-1.461,0-1.8-.38-1.8-1.761v-3.7h1.32v3.681c0,.46.08.519.66.519Zm-2.26-6.1a11.2,11.2,0,0,1,2.96,2.28l-.96.9a11.976,11.976,0,0,0-2.921-2.42Zm1.72-4.421h-1.781v3.14h1.781Zm1.06,3.14h1.8v-3.14h-1.8Zm1.64,3.081a11.9,11.9,0,0,1,2.241,4.26l-1.24.561a12.7,12.7,0,0,0-2.141-4.3Z"></path><path class="cls-3" d="M371.266,340.347v1.4H353.3v-1.4h8.342v-2.521h-6.282v-1.36h6.282v-2.24h1.5v2.24h6.042v1.36h-6.042v2.521Zm-13.763-10a6.39,6.39,0,0,1-3,4.78,7.023,7.023,0,0,0-.981-1.04,5.188,5.188,0,0,0,2.6-3.74H353.7v-1.321h2.521v-2.741h-1.861v-1.32h8.962v1.32h-1.86v2.741h2.26v1.321h-2.26v4.28h-1.4v-4.28Zm.1-1.321h2.461v-2.741H357.6v2.741Zm8.742,2.92h-1.381v-6.661h1.381Zm3.741,1.242c0,.819-.161,1.2-.761,1.439a10.052,10.052,0,0,1-2.98.24,4.7,4.7,0,0,0-.5-1.36,23.17,23.17,0,0,0,2.44,0c.3,0,.38-.08.38-.36v-8.862h1.421Z"></path><path class="cls-3" d="M380.343,328.725h-7.221V327.5h7.221Zm9.443,12.221c.46,0,.56-.4.6-3.1a3.554,3.554,0,0,0,1.28.58c-.12,3.081-.48,3.821-1.721,3.821h-1.66c-1.36,0-1.66-.42-1.66-1.9v-5.9h-1.8c-.279,3.521-1.04,6.4-4.1,8.082a4.485,4.485,0,0,0-.941-1.12v.08h-4.461v.9h-1.3v-6.681h5.761v5.641c2.741-1.4,3.321-3.881,3.561-6.9h-2.12v-6.621h1.88a15.629,15.629,0,0,0-1.44-3.161l1.28-.42a12.078,12.078,0,0,1,1.56,3.2l-1.04.381h5.041l-1.12-.36a20.262,20.262,0,0,0,1.38-3.341l1.521.44c-.54,1.14-1.14,2.42-1.641,3.261h2.061v6.621h-2.7v5.881c0,.541.06.62.5.62Zm-10.123-9.5h-5.6v-1.179h5.6Zm-5.6,1.541h5.6v1.18h-5.6Zm5.582-6.941h-5.462v-1.2h5.462Zm-1.181,10.882h-3.141v3.341h3.141Zm4.2-3.781h6.562v-4h-6.562Z"></path><path class="cls-3" d="M395.342,337.226v1.84h-1.4V325.384h6.521v11.842Zm0-10.5v3.781h3.741v-3.781Zm3.741,9.122v-3.981h-3.741v3.981Zm11.683,4.6c0,.941-.2,1.4-.841,1.661a12.64,12.64,0,0,1-3.44.26,5.116,5.116,0,0,0-.56-1.44c1.3.04,2.56.019,2.88.019.381-.019.52-.139.52-.5v-4.4h-5.9a10.2,10.2,0,0,1-3.721,6.5,5.847,5.847,0,0,0-1.1-1.02c3.361-2.581,3.7-6.341,3.7-9.442V325h8.462Zm-1.441-5.76v-3.5h-5.581v.9a23.5,23.5,0,0,1-.12,2.6Zm-5.581-8.283v3.421h5.581V326.4Z"></path><path class="cls-3" d="M422.884,324.184a21.538,21.538,0,0,0,8.722,6.84,8.017,8.017,0,0,0-.96,1.321A24.518,24.518,0,0,1,422.2,325.6a22.881,22.881,0,0,1-8.262,6.822,4.673,4.673,0,0,0-.86-1.18,21.027,21.027,0,0,0,8.282-7.061Zm-8.762,9.941h16.444v1.381h-9.382c-.7,1.48-1.56,3.2-2.361,4.6,2.481-.08,5.3-.179,8.1-.3a30.632,30.632,0,0,0-2.641-2.7l1.261-.679a26.705,26.705,0,0,1,4.7,5.22l-1.341.821a12.414,12.414,0,0,0-.92-1.34c-4.9.24-10.082.46-13.5.58l-.2-1.461c.861-.019,1.861-.039,2.941-.079a37.826,37.826,0,0,0,2.16-4.661h-5.261Zm12.863-3.8v1.361h-9.462v-1.361Z"></path><path class="cls-3" d="M77.223,362.184a46.437,46.437,0,0,0-1,7.662,21.947,21.947,0,0,0,.18,2.8c.34-.9.82-2.1,1.16-2.92l.84.639a40.835,40.835,0,0,0-1.42,4.482,3.849,3.849,0,0,0-.1.9c.02.22.04.5.06.7l-1.44.1a25.186,25.186,0,0,1-.741-6.422,56.14,56.14,0,0,1,.9-8.022,8.73,8.73,0,0,0,.14-1.419l1.78.16C77.483,361.184,77.3,361.823,77.223,362.184Zm4.661,10.182c0,.92.66,1.8,3.381,1.8a22.072,22.072,0,0,0,4.961-.52l.04,1.68a27.111,27.111,0,0,1-5,.421c-3.361,0-4.862-1.121-4.862-3a10.75,10.75,0,0,1,.341-2.36l1.44.139A7,7,0,0,0,81.884,372.366Zm7.742-10v1.62a46.84,46.84,0,0,1-8.222,0v-1.6A34.235,34.235,0,0,0,89.626,362.364Z"></path><path class="cls-3" d="M97.023,372.386c0,1.541,1.54,2.581,4.741,2.581a25.2,25.2,0,0,0,6.842-.781l.019,1.72a28.144,28.144,0,0,1-6.821.7c-4.061,0-6.422-1.339-6.422-3.86a11.287,11.287,0,0,1,.421-2.78l1.62.159A7.093,7.093,0,0,0,97.023,372.386ZM101.9,362.3a52.309,52.309,0,0,0,5.4-.281v1.641c-1.36.1-3.541.24-5.381.24-2.021,0-3.721-.08-5.3-.219v-1.622A49.7,49.7,0,0,0,101.9,362.3Zm7.6.28-1.08.5a20.948,20.948,0,0,0-1.64-2.8l1.08-.46A31.13,31.13,0,0,1,109.505,362.584Zm2.261-.82-1.1.48a18.3,18.3,0,0,0-1.661-2.761l1.061-.46A29.16,29.16,0,0,1,111.766,361.764Z"></path><path class="cls-3" d="M126.165,366.865a14.533,14.533,0,0,0,5.461,3.841,6,6,0,0,0-.98,1.16,16.068,16.068,0,0,1-6.122-5H120.1a16.256,16.256,0,0,1-6.282,5.1,8.458,8.458,0,0,0-1.1-1.16,14.4,14.4,0,0,0,5.581-3.941h-4.9v-1.28h5.861a11.9,11.9,0,0,0,.981-1.781c-2.221.06-4.262.12-5.9.16l-.18-1.361,3.321-.059a23.107,23.107,0,0,0,2.161-3.4l1.6.439c-.64.96-1.4,2.041-2.121,2.921,2.341-.04,4.942-.1,7.522-.18-.74-.58-1.52-1.16-2.241-1.64l1.161-.7a25.275,25.275,0,0,1,5.061,4.081l-1.221.821a14.084,14.084,0,0,0-1.36-1.381c-2.06.08-4.181.16-6.181.24a17.463,17.463,0,0,1-.921,1.841h10.263v1.28Zm2.64,6.141c-2.42,2.48-6.981,3.861-12.022,4.521a4.8,4.8,0,0,0-.7-1.24c4.821-.52,9.262-1.74,11.442-3.9Zm-2.68-2.28a21.078,21.078,0,0,1-8.082,3.42,5.034,5.034,0,0,0-.82-1.06c2.78-.56,6-1.641,7.7-2.941Zm-2.1-2.341a18.82,18.82,0,0,1-5.841,2.661,5.293,5.293,0,0,0-.88-.9,18.594,18.594,0,0,0,5.561-2.32Z"></path><path class="cls-3" d="M142.084,363.664c-.16,8.842-.3,11.742-.92,12.6a1.591,1.591,0,0,1-1.321.76,12.65,12.65,0,0,1-2.34.02,3.793,3.793,0,0,0-.44-1.5c.92.08,1.78.08,2.14.08a.58.58,0,0,0,.66-.32c.46-.561.64-3.281.781-10.943h-3.021c-.18,5.362-.86,10.143-3.561,13.063a4.578,4.578,0,0,0-1.12-1.02c2.48-2.621,3.081-7.042,3.241-12.043h-2.761V362.9h2.8c.02-1.14.02-2.3.02-3.481h1.46c0,1.18-.02,2.341-.04,3.481h4.421Zm8.4-2.04v15.343h-1.481v-1.321h-3.88v1.461h-1.4V361.624Zm-1.481,12.6V363.064h-3.88v11.163Z"></path><path class="cls-3" d="M162.944,376.507l-.94-1.481a15.127,15.127,0,0,0,1.72-.259c2.561-.581,5.081-2.481,5.081-5.942a5.571,5.571,0,0,0-5.341-5.8,39.328,39.328,0,0,1-1.2,5.761c-1.22,4.121-2.8,6.222-4.661,6.222-1.781,0-3.561-2.041-3.561-5.342,0-4.341,3.861-8.142,8.742-8.142a7.249,7.249,0,0,1,7.662,7.362C170.446,373.086,167.685,375.887,162.944,376.507Zm-5.281-3.341c.94,0,2-1.34,3.021-4.721a32.668,32.668,0,0,0,1.12-5.4,6.977,6.977,0,0,0-6.2,6.481C155.6,372.046,156.763,373.166,157.663,373.166Z"></path><path class="cls-3" d="M183.264,366.345a18.742,18.742,0,0,0-5.461,1c-.62.2-1.2.42-1.68.62l-.52-1.861a12.7,12.7,0,0,0,1.84-.3,26.416,26.416,0,0,1,5.981-.96c2.841,0,4.961,1.58,4.961,4.44,0,4.341-3.9,6.781-9.082,7.562l-.9-1.521c4.861-.6,8.282-2.52,8.282-6.1C186.685,367.545,185.325,366.345,183.264,366.345Zm3.521-5.2-.24,1.54c-2.221-.14-6.262-.54-8.522-.94l.26-1.52A54.04,54.04,0,0,0,186.785,361.144Z"></path><path class="cls-3" d="M205.725,366.725c-.761.7-3.021,2.8-3.761,3.56a3.521,3.521,0,0,1,.78.04,1.82,1.82,0,0,1,1.52,1.441c.18.58.461,1.58.66,2.24.241.761.721,1.081,1.741,1.081a17.2,17.2,0,0,0,3.781-.4l-.1,1.681a29.9,29.9,0,0,1-3.761.3c-1.6,0-2.6-.38-3.021-1.7-.2-.6-.5-1.781-.68-2.361a1.325,1.325,0,0,0-1.22-1.06,2.133,2.133,0,0,0-1.48.72,54.7,54.7,0,0,0-4.061,4.461l-1.521-1.06c.24-.221.6-.521,1-.9.8-.821,6.241-6.262,8.221-8.243-1.58.1-4.941.381-6.161.481-.66.059-1.181.12-1.62.2l-.141-1.761a14.724,14.724,0,0,0,1.7.04c1.14-.019,5.8-.339,7.3-.519a4.278,4.278,0,0,0,.961-.221l.96,1.08A11.776,11.776,0,0,0,205.725,366.725Zm.7-5.561-.22,1.48c-2-.18-5.5-.64-7.942-1.081l.26-1.46A66.31,66.31,0,0,0,206.425,361.164Z"></path><path class="cls-3" d="M213.322,372.546l1.3-1.14a37.482,37.482,0,0,1,4.481,4.441l-1.36,1.16A33.4,33.4,0,0,0,213.322,372.546Z"></path><path class="cls-3" d="M243.064,366.185h6.522v11.242h-1.541v-.88H234.662v-1.46h13.383v-3.1H235.7v-1.44h12.342v-2.9h-13v-1.46h6.421v-7.041h1.6Zm-5.741-1a19.129,19.129,0,0,0-2.541-4.622l1.3-.54a18.546,18.546,0,0,1,2.66,4.541Zm12.523-4.8a43.161,43.161,0,0,1-2.861,4.94l-1.28-.519a29.121,29.121,0,0,0,2.58-4.961Z"></path><path class="cls-3" d="M260.584,371.666c-.52-.58-1.621-1.7-2.521-2.541v8.282H256.6v-7.762a18.89,18.89,0,0,1-3.061,2.5,6.748,6.748,0,0,0-.78-1.339,17.342,17.342,0,0,0,6.261-6.562h-5.561v-1.36H256.6v-3.721h1.46v3.721h1.74l.261-.06.84.56a18.013,18.013,0,0,1-2.6,4.361c.94.74,2.7,2.28,3.2,2.721Zm11.022,3.721v1.46H260.4v-1.46h5.061v-8.3h-4.28v-1.44h4.28V359.3h1.481v6.342h4.261v1.44h-4.261v8.3Z"></path><path class="cls-3" d="M282.944,376.507l-.94-1.481a15.127,15.127,0,0,0,1.72-.259c2.561-.581,5.081-2.481,5.081-5.942a5.571,5.571,0,0,0-5.341-5.8,39.328,39.328,0,0,1-1.2,5.761c-1.22,4.121-2.8,6.222-4.661,6.222-1.781,0-3.561-2.041-3.561-5.342,0-4.341,3.861-8.142,8.742-8.142a7.249,7.249,0,0,1,7.662,7.362C290.446,373.086,287.685,375.887,282.944,376.507Zm-5.281-3.341c.94,0,2-1.34,3.021-4.721a32.668,32.668,0,0,0,1.12-5.4,6.977,6.977,0,0,0-6.2,6.481C275.6,372.046,276.763,373.166,277.663,373.166Z"></path><path class="cls-3" d="M297.363,372.186c0,1.52,1.56,2.581,4.761,2.581a24.3,24.3,0,0,0,6.841-.8l.02,1.719a28.389,28.389,0,0,1-6.821.7c-4.061,0-6.421-1.34-6.421-3.861a12.639,12.639,0,0,1,.42-2.781l1.62.16A7.361,7.361,0,0,0,297.363,372.186Zm4.9-10.083c1.92,0,3.961-.139,5.4-.28v1.641c-1.36.1-3.541.24-5.4.24-2,0-3.7-.1-5.281-.22v-1.64A44.952,44.952,0,0,0,302.264,362.1Z"></path><path class="cls-3" d="M321.124,366.265c1.88-1.141,4.041-2.2,5.141-2.8a10.822,10.822,0,0,0,1.42-.941l.881,1.421c-.461.281-.961.54-1.541.84a66.614,66.614,0,0,0-6.082,3.321c-1.86,1.2-2.98,2.521-2.98,4.04,0,1.662,1.581,2.7,4.741,2.7a29.781,29.781,0,0,0,6.4-.681v1.78a39.267,39.267,0,0,1-6.322.5c-3.761,0-6.481-1.121-6.481-4.121,0-2.06,1.32-3.681,3.46-5.181a66.958,66.958,0,0,1-2.9-6.162l1.58-.66A43.1,43.1,0,0,0,321.124,366.265Z"></path><path class="cls-3" d="M340.9,362.384a49.4,49.4,0,0,0,6.1-.62l-.02,1.48a57.662,57.662,0,0,1-6.642.56,15.887,15.887,0,0,1-1.8,3.1,5.727,5.727,0,0,1,2.781-.74,2.582,2.582,0,0,1,2.68,1.8c1.361-.66,2.581-1.14,3.621-1.62.6-.26,1.08-.481,1.64-.781l.66,1.5a17.669,17.669,0,0,0-1.78.641c-1.12.42-2.54,1-4.06,1.721.02,1.16.039,2.86.059,3.841H342.6c.04-.761.06-2.061.06-3.122-1.86.981-3.161,2.041-3.161,3.361,0,1.56,1.561,1.8,3.621,1.8a35.52,35.52,0,0,0,5.462-.481l-.041,1.6a47,47,0,0,1-5.481.36c-2.86,0-5.161-.62-5.161-3.06,0-2.361,2.38-3.841,4.721-5.062a1.669,1.669,0,0,0-1.82-1.24,5.268,5.268,0,0,0-3.441,1.46,26.453,26.453,0,0,0-1.82,2.081l-1.361-1a21.09,21.09,0,0,0,4.621-6.122h-.88c-.86,0-2.18-.04-3.281-.119v-1.5a29.292,29.292,0,0,0,3.381.219c.42,0,.88,0,1.32-.019a10.215,10.215,0,0,0,.5-2.5l1.641.14A20.478,20.478,0,0,1,340.9,362.384Z"></path><path class="cls-3" d="M358.843,366.505c0,.2,0,.439-.02.68h3.761v1.42h-3.841c-.04.44-.12.9-.2,1.34.94.941,3.361,3.641,3.981,4.341l-1,1.261c-.68-.981-2.241-2.861-3.321-4.081a10.9,10.9,0,0,1-4.141,5.9,4.929,4.929,0,0,0-1.04-1.1,10.067,10.067,0,0,0,4.241-7.662h-4.021v-1.42h4.121V363.2h-1.521a14.894,14.894,0,0,1-1.62,3.141,7.9,7.9,0,0,0-1.22-.861,16,16,0,0,0,2.48-6.34l1.441.279a20.972,20.972,0,0,1-.62,2.4H362V363.2h-3.161Zm11.523-5.621v15.762h-1.481v-1.379h-4.22v1.58h-1.441V360.884Zm-1.481,12.982V362.284h-4.22v11.582Z"></path><path class="cls-3" d="M377.363,367.405c1.42-.44,4.7-1.64,7.061-1.64,2.841,0,4.881,1.7,4.881,4.44,0,3.841-3.7,5.8-9.1,6.142l-.64-1.54c4.32-.141,8.121-1.381,8.121-4.642,0-1.68-1.34-2.96-3.381-2.96-2.48,0-6.861,1.84-8.141,2.34l-.681-1.64A19.04,19.04,0,0,0,377.363,367.405Z"></path><path class="cls-3" d="M395.763,362.5c1.3-.14,5.081-.521,8.761-.82,2.181-.2,4.062-.3,5.4-.361v1.6a16.752,16.752,0,0,0-3.92.32,7.035,7.035,0,0,0-4.581,6.321c0,3.921,3.641,5.162,6.9,5.282l-.58,1.66c-3.7-.14-7.922-2.12-7.922-6.581a8.128,8.128,0,0,1,3.741-6.762c-2.14.24-7.241.72-9.4,1.181l-.18-1.742C394.742,362.584,395.382,362.544,395.763,362.5Z"></path><path class="cls-3" d="M416.583,363.864c-.02,1.26,0,3.08.14,4.741.32,3.341,1.3,5.561,2.72,5.561,1.02,0,1.961-2.08,2.481-4.08l1.26,1.42c-1.2,3.4-2.42,4.56-3.761,4.56-1.9,0-3.72-1.88-4.261-7.061-.18-1.74-.22-4.181-.22-5.341a9.022,9.022,0,0,0-.14-1.78l1.941.04A15.228,15.228,0,0,0,416.583,363.864Zm14.1,8.562-1.6.66c-.361-3.62-1.561-7.722-3.481-10.062l1.56-.541A21.511,21.511,0,0,1,430.686,372.426Z"></path><path class="cls-3" d="M80.784,396.744c-.08.42-.18.94-.3,1.48a29.594,29.594,0,0,0,3.841-.72v1.58a38.652,38.652,0,0,1-4.16.681c-.181.88-.4,1.8-.64,2.68a61.42,61.42,0,0,1-3.121,9.161l-1.761-.6A43.619,43.619,0,0,0,78,402.064c.18-.66.36-1.419.52-2.139-.66.04-1.28.059-1.84.059-.88,0-1.6-.04-2.321-.08l-.06-1.56a18.123,18.123,0,0,0,2.4.14c.66,0,1.38-.04,2.16-.1.14-.7.24-1.34.3-1.74a8,8,0,0,0,.06-1.661l1.921.161C81.024,395.583,80.864,396.344,80.784,396.744Zm2.38,11.162c0,.941.52,1.861,3.381,1.861a19.26,19.26,0,0,0,3.9-.4l-.06,1.62a26.6,26.6,0,0,1-3.861.281c-3.161,0-4.881-.96-4.881-2.941a12.5,12.5,0,0,1,.3-2.36l1.5.139A7.085,7.085,0,0,0,83.164,407.906Zm3.521-6.842a32.025,32.025,0,0,1,3.461.181l-.04,1.52a25.3,25.3,0,0,0-3.361-.24,32.871,32.871,0,0,0-3.721.2v-1.48C84.085,401.145,85.4,401.064,86.685,401.064Z"></path><path class="cls-3" d="M100.184,397.023c-.08.441-.2.941-.3,1.481a33.614,33.614,0,0,0,3.841-.7v1.56a38.2,38.2,0,0,1-4.16.68c-.2.881-.4,1.8-.641,2.681a60.589,60.589,0,0,1-3.12,9.162l-1.761-.6a43.631,43.631,0,0,0,3.361-8.942c.18-.66.36-1.42.52-2.141-.66.04-1.28.061-1.84.061-.881,0-1.6-.04-2.321-.08l-.06-1.561a18.123,18.123,0,0,0,2.4.14c.66,0,1.38-.039,2.16-.1.14-.7.24-1.34.3-1.74a7.857,7.857,0,0,0,.06-1.641l1.921.16C100.423,395.863,100.264,396.624,100.184,397.023Zm2.38,11.163c0,.94.52,1.861,3.381,1.861a19.268,19.268,0,0,0,3.9-.4l-.06,1.621a26.382,26.382,0,0,1-3.861.3c-3.161,0-4.881-.979-4.881-2.96a11.218,11.218,0,0,1,.3-2.36l1.5.14A7.072,7.072,0,0,0,102.564,408.186Zm3.521-6.841a32.018,32.018,0,0,1,3.46.179l-.04,1.521a25.287,25.287,0,0,0-3.36-.24,32.874,32.874,0,0,0-3.721.22v-1.5C103.484,401.425,104.8,401.345,106.085,401.345Zm2.94-2.541-1.08.48a22.856,22.856,0,0,0-1.62-2.78l1.06-.46A22.3,22.3,0,0,1,109.025,398.8Zm2.261-.82-1.08.48a21.1,21.1,0,0,0-1.661-2.78l1.041-.46A25.628,25.628,0,0,1,111.286,397.984Z"></path><path class="cls-3" d="M117.043,396.884c-.64,2.9-1.32,7.281-.561,10.562.281-.841.7-2.06,1.081-3.06l.86.519c-.48,1.4-1.08,3.441-1.3,4.421a3.025,3.025,0,0,0-.1.9c.02.2.04.48.06.679l-1.36.16a22.235,22.235,0,0,1-1.061-6.34,54.023,54.023,0,0,1,.76-7.982,8.214,8.214,0,0,0,.1-1.341l1.86.18C117.283,395.964,117.143,396.5,117.043,396.884Zm10.4-.42c-.02.439,0,1.78.02,3.02a23.7,23.7,0,0,0,3.261-.46v1.64c-.92.141-2.041.261-3.241.341v.7c0,4.6,0,7.861-4.241,10.362l-1.46-1.14a6.541,6.541,0,0,0,1.94-1.241c2.141-1.88,2.261-4.14,2.261-7.981v-.62c-.86.04-1.721.06-2.541.06-.96,0-2.38-.06-3.24-.121v-1.6a22.417,22.417,0,0,0,3.22.221c.82,0,1.681-.021,2.521-.061-.02-1.26-.08-2.6-.12-3.1a12.027,12.027,0,0,0-.18-1.2h1.86A10.309,10.309,0,0,0,127.445,396.464Z"></path><path class="cls-3" d="M138.063,395l1.88.06c-.1.5-.26,1.621-.4,3.021.04-.02.08-.02.119-.04l.581.7c-.261.36-.6.9-.9,1.4-.04.379-.06.759-.1,1.16,1.561-1.441,4.141-3.381,6.161-3.381a2.482,2.482,0,0,1,2.781,2.68c0,2-.74,5.442-.74,7.482,0,.66.32,1.221,1.04,1.221a4.424,4.424,0,0,0,3.021-1.661l.26,1.72a5.184,5.184,0,0,1-3.681,1.66c-1.32,0-2.22-.859-2.22-2.52,0-2.22.76-5.5.76-7.461A1.439,1.439,0,0,0,145,399.4c-1.62,0-4.041,1.881-5.881,3.841-.04.84-.06,1.641-.06,2.36,0,1.821-.02,3.041.08,4.822.02.36.06.86.1,1.219H137.5c.04-.359.06-.859.06-1.179.02-1.921.02-2.941.06-5.121,0-.2.02-.481.02-.8-.98,1.48-2.3,3.381-3.261,4.741l-1.02-1.38c1.12-1.4,3.441-4.521,4.441-6.081.04-.66.1-1.341.14-1.98-.9.12-2.661.359-3.921.54l-.16-1.641c.44.02.82,0,1.3-.019.66-.04,1.841-.161,2.881-.341.06-.941.1-1.68.1-1.9A9.571,9.571,0,0,0,138.063,395Z"></path><path class="cls-3" d="M156.563,397.164a49.881,49.881,0,0,0-1,8.062,18.836,18.836,0,0,0,.2,2.8c.32-.921.8-2.14,1.14-2.94l.82.64c-.48,1.379-1.22,3.44-1.44,4.42a4.862,4.862,0,0,0-.08.9c.02.18.04.48.06.7l-1.4.1a24.339,24.339,0,0,1-.76-6.341,61.751,61.751,0,0,1,.921-8.4,11.965,11.965,0,0,0,.12-1.44l1.76.16A10.166,10.166,0,0,0,156.563,397.164Zm10.082-.261c-.02.54-.04,1.481-.04,2.421a33.553,33.553,0,0,0,3.461-.46v1.54c-1.1.181-2.261.3-3.461.38.02,2.021.16,4.022.24,5.7a13.1,13.1,0,0,1,3.941,2.581l-.861,1.34a16.314,16.314,0,0,0-3.02-2.32v.4c0,1.641-.76,3.261-3.461,3.261-2.68,0-4.141-1.1-4.141-2.9,0-1.661,1.481-3,4.1-3a9.176,9.176,0,0,1,1.861.179c-.06-1.54-.18-3.5-.2-5.161-.641.021-1.281.04-1.921.04-1.14,0-2.181-.04-3.361-.12v-1.5c1.141.1,2.221.16,3.381.16.64,0,1.26-.02,1.9-.04v-2.48c0-.34-.041-.88-.081-1.24h1.8A8.763,8.763,0,0,0,166.645,396.9Zm-3.481,13.364c1.68,0,2.181-.84,2.181-2.181,0-.2,0-.42-.02-.68a6.355,6.355,0,0,0-2.061-.32c-1.48,0-2.54.64-2.54,1.62C160.724,409.727,161.724,410.267,163.164,410.267Zm6.522-12.443-1.021.36a30.02,30.02,0,0,0-1.14-2.84l.98-.3A29.279,29.279,0,0,1,169.686,397.824Zm2.04-.64-1.02.36a22.278,22.278,0,0,0-1.181-2.8l.981-.32C170.886,395.163,171.426,396.384,171.726,397.184Z"></path><path class="cls-3" d="M191.286,401.185h-4.081l.46.12c-.54.94-1.14,1.98-1.68,2.74h4.721v1.32h-7.722v2.341h6.782v1.32h-6.782v3.4h-1.52v-3.4h-6.542v-1.32h6.542v-2.341h-7.6v-1.32h4.481a14.6,14.6,0,0,0-1.22-2.62l.84-.24h-4.621v-1.34h8.122v-2.261H175.4v-1.3h6.062v-2.12h1.52v2.12h6.222v1.3h-6.222v2.261h8.3Zm-6.762,2.8a21.507,21.507,0,0,0,1.4-2.8h-7.4a11.062,11.062,0,0,1,1.3,2.72l-.42.14h5.322Z"></path><path class="cls-3" d="M196.583,398.864c-.02,1.26,0,3.08.14,4.741.32,3.341,1.3,5.561,2.72,5.561,1.02,0,1.961-2.08,2.481-4.08l1.26,1.42c-1.2,3.4-2.42,4.56-3.761,4.56-1.9,0-3.72-1.88-4.261-7.061-.18-1.74-.22-4.181-.22-5.341a9.022,9.022,0,0,0-.14-1.78l1.941.04A15.228,15.228,0,0,0,196.583,398.864Zm14.1,8.562-1.6.66c-.361-3.62-1.561-7.722-3.481-10.062l1.56-.541A21.511,21.511,0,0,1,210.686,407.426Z"></path><path class="cls-3" d="M215.643,397.624c1.3-.141,5.081-.521,8.761-.82,2.181-.18,4.061-.3,5.4-.361v1.6a16.756,16.756,0,0,0-3.921.32,7.04,7.04,0,0,0-4.581,6.341c0,3.9,3.64,5.142,6.9,5.262l-.58,1.66c-3.7-.14-7.922-2.12-7.922-6.581a8.127,8.127,0,0,1,3.741-6.762c-2.14.24-7.241.72-9.4,1.18l-.18-1.74C214.622,397.7,215.262,397.664,215.643,397.624Zm12.923,5.661-1.021.481a18.588,18.588,0,0,0-1.64-2.822l1.02-.439A23.878,23.878,0,0,1,228.566,403.285Zm2.28-.86-1.04.5a18.635,18.635,0,0,0-1.681-2.8l.981-.46A26.434,26.434,0,0,1,230.846,402.425Z"></path><path class="cls-3" d="M244.725,396.3c0,.3-.02.759-.02,1.3h.3c2.441,0,4.9.021,5.862.021l-.02,1.48c-1.12-.06-2.941-.1-5.862-.1h-.279c0,1.141.02,2.381.04,3.3a4.86,4.86,0,0,1,.64,2.56c0,2.7-1.32,5.7-5.982,7.1l-1.34-1.321c2.661-.6,4.5-1.719,5.3-3.541a2.812,2.812,0,0,1-1.74.541,3.185,3.185,0,0,1-3.281-3.34,3.492,3.492,0,0,1,3.521-3.482,3.979,3.979,0,0,1,1.34.221c0-.6,0-1.32-.02-2.021-3.04.02-6.441.161-8.942.34l-.04-1.54c2.221-.04,5.982-.16,8.962-.2,0-.561-.02-1.04-.04-1.32-.02-.521-.1-1.1-.12-1.261h1.82C244.784,395.264,244.745,396.044,244.725,396.3Zm-2.841,9.962c1.18,0,1.94-.941,1.76-2.841a1.793,1.793,0,0,0-1.78-1.26,2.039,2.039,0,0,0-2.021,2.12A1.928,1.928,0,0,0,241.884,406.266Z"></path><path class="cls-3" d="M259.223,409.046a3.051,3.051,0,1,1-3.06-3.04A3.047,3.047,0,0,1,259.223,409.046Zm-1.02,0a2.031,2.031,0,1,0-2.04,2.041A2.032,2.032,0,0,0,258.2,409.046Z"></path><path class="cls-3" d="M78.243,431.283c1.06,0,3.681-.139,4.521-.2a4.084,4.084,0,0,0,1-.221l1,.821a8.041,8.041,0,0,0-.521.66c-.56.9-1.44,2.94-2.28,4.8a18,18,0,0,1,5.5,1.6c.08-.5.12-1,.16-1.48.02-.6.04-1.281,0-1.84l1.62.179a26.728,26.728,0,0,1-.42,3.862,26.033,26.033,0,0,1,2.421,1.54l-.74,1.72a21.047,21.047,0,0,0-2.081-1.581,9.44,9.44,0,0,1-5.261,5.942l-1.32-1.1a8.583,8.583,0,0,0,5.241-5.64,14.39,14.39,0,0,0-5.721-1.841,43.044,43.044,0,0,1-2.521,5.241,2.814,2.814,0,0,1-2.52,1.381,2.55,2.55,0,0,1-2.6-2.741c0-2.941,2.72-5.2,6.661-5.3.7-1.58,1.461-3.321,2.081-4.562-.8.04-3.241.141-4.161.2-.44.02-1,.08-1.48.12l-.08-1.62C77.263,431.264,77.843,431.283,78.243,431.283Zm-1.86,12.263a1.441,1.441,0,0,0,1.2-.7,26.676,26.676,0,0,0,2.18-4.361c-2.92.22-4.581,1.981-4.581,3.7A1.226,1.226,0,0,0,76.383,443.546Z"></path><path class="cls-3" d="M100.524,433.1a19.221,19.221,0,0,0,3.14-.739l.04,1.5a27.123,27.123,0,0,1-3.64.74,35.408,35.408,0,0,1-4.361,8.442l-1.541-.8a29.623,29.623,0,0,0,4.281-7.481c-.6.04-1.2.059-1.78.059-.741,0-1.58-.019-2.341-.059l-.1-1.5a18.871,18.871,0,0,0,2.441.14c.72,0,1.48-.04,2.26-.1a16.66,16.66,0,0,0,.621-3.46l1.76.159C101.124,430.724,100.844,431.943,100.524,433.1Zm5.481,5.242c.02.74.1,2.041.14,3.281a13.76,13.76,0,0,1,4.161,2.48l-.861,1.361a14.926,14.926,0,0,0-3.24-2.3c.02.32.02.6.02.84,0,1.6-1.02,2.9-3.5,2.9-2.2,0-4-.9-4-2.881,0-1.84,1.74-3,4-3a8.934,8.934,0,0,1,1.961.2c-.08-1.641-.181-3.622-.221-5.041h1.561C105.985,437.005,105.985,437.625,106.005,438.345Zm-3.481,7.122c1.66,0,2.221-.88,2.221-1.981,0-.259,0-.56-.02-.9a6.941,6.941,0,0,0-2.061-.3c-1.46,0-2.46.68-2.46,1.6C100.2,444.826,100.963,445.467,102.524,445.467Zm2.92-11.5.821-1.22a30.353,30.353,0,0,1,4.661,2.66l-.9,1.321A23.4,23.4,0,0,0,105.444,433.964Z"></path><path class="cls-3" d="M122.264,430.144l1.7-.221a23.906,23.906,0,0,0,.92,3.421,25.679,25.679,0,0,0,4.461-.98l.18,1.56a29.735,29.735,0,0,1-4.14.82,21.261,21.261,0,0,0,2.24,4.121c.28.38.58.72.88,1.061l-.82,1.12a44.713,44.713,0,0,0-4.821-.54l.12-1.341c1.121.1,2.6.221,3.321.3a26.778,26.778,0,0,1-2.421-4.562,51.41,51.41,0,0,1-8.4-.04l-.04-1.6a41.813,41.813,0,0,0,7.9.24c-.24-.74-.44-1.34-.58-1.8C122.624,431.283,122.444,430.663,122.264,430.144Zm-4.681,12.282c0,1.9,1.74,2.741,4.7,2.76a22.193,22.193,0,0,0,5.161-.5l-.08,1.6a29.059,29.059,0,0,1-5.161.44c-3.8-.02-6.2-1.4-6.2-4.121a7.805,7.805,0,0,1,.96-3.321l1.56.36A5.149,5.149,0,0,0,117.583,442.426Z"></path><path class="cls-3" d="M143.624,431.344c0,.259-.02.7-.02,1.219a49.5,49.5,0,0,0,5.421-.54l-.02,1.461c-1.58.18-3.481.36-5.4.46v2.8a50.04,50.04,0,0,0,5.582-.54l-.02,1.5c-1.881.24-3.642.4-5.542.46.04,1.04.1,2.12.14,3.081a15.927,15.927,0,0,1,5.842,3.12l-.921,1.421a14.725,14.725,0,0,0-4.841-3.021c.02.5.04.92.04,1.24,0,1.381-.92,2.8-3.521,2.8-2.88,0-4.441-1.02-4.441-2.941,0-1.82,1.741-3.06,4.622-3.06a11.454,11.454,0,0,1,1.68.12c-.02-.9-.06-1.861-.08-2.721H141c-1.359,0-3.56-.12-5-.28l-.021-1.5a37.031,37.031,0,0,0,5.042.38h1.08V434h-.88c-1.4,0-3.861-.2-5.121-.34l-.02-1.48a36.34,36.34,0,0,0,5.121.44h.92V431.2a10.976,10.976,0,0,0-.08-1.2h1.7A10.029,10.029,0,0,0,143.624,431.344Zm-3.44,14.062c1.14,0,2.12-.359,2.12-1.74,0-.34-.02-.82-.02-1.34a8.879,8.879,0,0,0-1.941-.2c-1.9,0-2.94.74-2.94,1.66S138.2,445.406,140.184,445.406Z"></path><path class="cls-3" d="M162.944,446.507l-.94-1.481a15.127,15.127,0,0,0,1.72-.259c2.561-.581,5.081-2.481,5.081-5.942a5.571,5.571,0,0,0-5.341-5.8,39.328,39.328,0,0,1-1.2,5.761c-1.22,4.121-2.8,6.222-4.661,6.222-1.781,0-3.561-2.041-3.561-5.342,0-4.341,3.861-8.142,8.742-8.142a7.249,7.249,0,0,1,7.662,7.362C170.446,443.086,167.685,445.887,162.944,446.507Zm-5.281-3.341c.94,0,2-1.34,3.021-4.721a32.668,32.668,0,0,0,1.12-5.4,6.977,6.977,0,0,0-6.2,6.481C155.6,442.046,156.763,443.166,157.663,443.166Z"></path><path class="cls-3" d="M177.023,442.386c0,1.541,1.54,2.581,4.741,2.581a25.2,25.2,0,0,0,6.842-.781l.019,1.72a28.144,28.144,0,0,1-6.821.7c-4.061,0-6.422-1.339-6.422-3.86a11.287,11.287,0,0,1,.421-2.78l1.62.159A7.093,7.093,0,0,0,177.023,442.386ZM181.9,432.3a52.309,52.309,0,0,0,5.4-.281v1.641c-1.36.1-3.541.24-5.381.24-2.021,0-3.721-.08-5.3-.219v-1.622A49.7,49.7,0,0,0,181.9,432.3Zm7.6.28-1.08.5a20.948,20.948,0,0,0-1.64-2.8l1.08-.46A31.13,31.13,0,0,1,189.505,432.584Zm2.261-.82-1.1.48a18.3,18.3,0,0,0-1.661-2.761l1.061-.46A29.16,29.16,0,0,1,191.766,431.764Z"></path><path class="cls-3" d="M196.223,433.144v3.741c0,3.041-.281,7.521-1.981,10.542a5.537,5.537,0,0,0-1.26-.84c1.62-2.86,1.78-6.861,1.78-9.7v-5.161H202.1v-2.561h1.52v2.561h7.622v1.42Zm.02,11.762a15.035,15.035,0,0,0,1.76-6.06l1.36.3c-.28,2.181-.78,4.782-1.8,6.362Zm9.5.761c.82,0,.94-.5,1-3.421a4.747,4.747,0,0,0,1.34.6c-.16,3.3-.54,4.181-2.24,4.181h-2.921c-1.74,0-2.2-.5-2.2-2.161v-7.721h1.46v7.721c0,.681.16.8.92.8Zm-.12-7.822a24.726,24.726,0,0,0-4.6-3.08l1.02-.961a24.43,24.43,0,0,1,4.641,2.941Zm3.06.56a21.556,21.556,0,0,1,2.921,6.5l-1.42.62a22.639,22.639,0,0,0-2.821-6.581Z"></path><path class="cls-3" d="M226.785,440.806a13.331,13.331,0,0,0,4.841,2.36,5.3,5.3,0,0,0-.96,1.16,14.046,14.046,0,0,1-2.861-1.3l-.02.18c-.22,2.261-.44,3.261-.88,3.661a1.589,1.589,0,0,1-1.2.44c-.48.04-1.4.02-2.4-.02a3.284,3.284,0,0,0-.34-1.221,20.274,20.274,0,0,0,2.161.1.908.908,0,0,0,.66-.16c.22-.22.4-.84.54-2.261h-4.5c-.861,1.86-2.521,3.061-6,3.781a3.7,3.7,0,0,0-.739-1.16c2.88-.52,4.38-1.381,5.181-2.621h-3.921v-.68a21.654,21.654,0,0,1-2.461,1.08,3.662,3.662,0,0,0-.86-1.06,14.3,14.3,0,0,0,4.461-2.28h-4.021v-1.2h5.281a6.966,6.966,0,0,0,.8-1.14H215.8V433h13.062v5.461h-7.721a13.008,13.008,0,0,1-.7,1.14h10.683v1.2Zm-8.582-9.082h-4.481V430.5H218.2v-1.341h1.441V430.5h5.2v-1.341h1.461V430.5h4.541v1.22h-4.541v1h-1.461v-1h-5.2v1H218.2Zm9,10.9a11.128,11.128,0,0,1-2.1-1.82h-5.682a11.743,11.743,0,0,1-2.34,1.82h3.681a7.758,7.758,0,0,0,.34-1.42h1.44c-.08.5-.18.96-.3,1.42Zm-9.982-7.361h10.182v-1.281H217.223Zm0,2.22h10.182v-1.28H217.223Z"></path><path class="cls-3" d="M240.363,431.283c-.02.481-.06,1.261-.08,2.161a26.888,26.888,0,0,0,4.121-.8l.04,1.56a36.716,36.716,0,0,1-4.2.7c-.02.941-.04,1.9-.04,2.7v.7a15.13,15.13,0,0,1,4.4-.741c2.92,0,5.021,1.581,5.021,3.982,0,2.421-1.521,3.961-4.261,4.621a15.189,15.189,0,0,1-2.481.28l-.56-1.621a10.128,10.128,0,0,0,2.341-.14c1.76-.339,3.36-1.28,3.36-3.121,0-1.7-1.54-2.62-3.44-2.62a13.1,13.1,0,0,0-4.361.781c.04,1.7.079,3.48.079,4.34,0,1.861-.679,2.461-1.76,2.461-1.56,0-4.161-1.541-4.161-3.321,0-1.66,2.08-3.4,4.381-4.381v-1.14c0-.8,0-1.741.02-2.621-.56.04-1.06.06-1.48.06a21.988,21.988,0,0,1-2.561-.1l-.04-1.52a18.372,18.372,0,0,0,2.561.16c.46,0,.98-.019,1.54-.06,0-1.041.02-1.92.02-2.281a10.558,10.558,0,0,0-.1-1.42h1.78A12.857,12.857,0,0,0,240.363,431.283Zm-2.24,13.543c.46,0,.74-.319.74-.979,0-.721-.04-2.081-.06-3.541-1.64.759-2.861,1.92-2.861,2.82C235.942,444.046,237.343,444.826,238.123,444.826Zm13.163-9.782-.82,1.28a25.47,25.47,0,0,0-4.481-3l.72-1.2A36.369,36.369,0,0,1,251.286,435.044Z"></path><path class="cls-3" d="M259.063,434.1a17.062,17.062,0,0,1-1.6,2.441v10.862h-1.44v-9.162a19.637,19.637,0,0,1-2.3,2.2,9.716,9.716,0,0,0-.8-1.46,17.992,17.992,0,0,0,4.841-5.4Zm-.24-4.361a19.547,19.547,0,0,1-4.841,4.761,7.574,7.574,0,0,0-.76-1.2,15.228,15.228,0,0,0,4.2-4.1Zm9.822,7.262v2.2h2.661v1.36h-2.661v5.041c0,.9-.2,1.3-.82,1.541a10.486,10.486,0,0,1-3.18.24,5.673,5.673,0,0,0-.481-1.42c1.2.04,2.3.04,2.6.019.32-.019.42-.1.42-.38v-5.041h-8.1v-1.36h8.1v-2.2h-8.322v-1.38H264.4v-2.541h-4.38v-1.36h4.38v-2.481h1.461v2.481h4.541v1.36h-4.541v2.541h5.581v1.38Zm-6.821,4.121a16.861,16.861,0,0,1,2.4,3.44l-1.26.741a15.932,15.932,0,0,0-2.34-3.5Z"></path><path class="cls-3" d="M280.383,431.9c-.06.321-.119.7-.219,1.161a47.94,47.94,0,0,0,7.8-.961l.02,1.542a68.572,68.572,0,0,1-8.122.839,36.532,36.532,0,0,1-1.26,4.721,9.335,9.335,0,0,1,5.641-1.7c3.181,0,5.041,1.62,5.041,3.961,0,4.161-4.281,5.72-10.362,5.061l-.4-1.581c4.621.641,9.122-.16,9.122-3.44,0-1.5-1.24-2.66-3.58-2.66a7.54,7.54,0,0,0-5.9,2.42,4.1,4.1,0,0,0-.62.92l-1.5-.541a32.607,32.607,0,0,0,2.32-7.121h-.02a37.036,37.036,0,0,1-3.8-.2l-.019-1.56a25.326,25.326,0,0,0,3.8.339h.34c.1-.519.18-.959.22-1.319a9.6,9.6,0,0,0,.08-1.661l1.781.1C280.6,430.764,280.483,431.384,280.383,431.9Z"></path><path class="cls-3" d="M298.9,432.324c-.1,2.26-.24,6.982-.24,9.962,0,2.2,1.381,2.981,3.281,2.981,3.661,0,5.721-2.061,7.162-4.141l1.14,1.36a10.054,10.054,0,0,1-8.362,4.421c-2.881,0-4.861-1.2-4.861-4.461,0-2.961.2-8.022.2-10.122a10.566,10.566,0,0,0-.16-2.041l2.02.021A17.219,17.219,0,0,0,298.9,432.324Z"></path><path class="cls-3" d="M315.763,432.5c1.3-.14,5.081-.521,8.761-.82,2.181-.2,4.062-.3,5.4-.361v1.6a16.752,16.752,0,0,0-3.92.32,7.035,7.035,0,0,0-4.581,6.321c0,3.921,3.641,5.162,6.9,5.282l-.58,1.66c-3.7-.14-7.922-2.12-7.922-6.581a8.128,8.128,0,0,1,3.741-6.762c-2.14.24-7.241.72-9.4,1.181l-.18-1.742C314.742,432.584,315.382,432.544,315.763,432.5Z"></path><path class="cls-3" d="M340.363,431.283c-.02.481-.06,1.261-.08,2.161a26.888,26.888,0,0,0,4.121-.8l.04,1.56a36.716,36.716,0,0,1-4.2.7c-.02.941-.04,1.9-.04,2.7v.7a15.13,15.13,0,0,1,4.4-.741c2.92,0,5.021,1.581,5.021,3.982,0,2.421-1.521,3.961-4.261,4.621a15.189,15.189,0,0,1-2.481.28l-.56-1.621a10.128,10.128,0,0,0,2.341-.14c1.76-.339,3.36-1.28,3.36-3.121,0-1.7-1.54-2.62-3.44-2.62a13.1,13.1,0,0,0-4.361.781c.04,1.7.079,3.48.079,4.34,0,1.861-.679,2.461-1.76,2.461-1.56,0-4.161-1.541-4.161-3.321,0-1.66,2.08-3.4,4.381-4.381v-1.14c0-.8,0-1.741.02-2.621-.56.04-1.06.06-1.48.06a21.988,21.988,0,0,1-2.561-.1l-.04-1.52a18.372,18.372,0,0,0,2.561.16c.46,0,.98-.019,1.54-.06,0-1.041.02-1.92.02-2.281a10.558,10.558,0,0,0-.1-1.42h1.78A12.857,12.857,0,0,0,340.363,431.283Zm-2.24,13.543c.46,0,.74-.319.74-.979,0-.721-.04-2.081-.06-3.541-1.64.759-2.861,1.92-2.861,2.82C335.942,444.046,337.343,444.826,338.123,444.826Zm13.163-9.782-.82,1.28a25.47,25.47,0,0,0-4.481-3l.72-1.2A36.369,36.369,0,0,1,351.286,435.044Z"></path><path class="cls-3" d="M358.123,435.664c.82-2.04,2.9-4.54,5.441-4.54,2.661,0,4.561,2.66,4.561,6.861,0,5.561-3.48,8-8.442,8.9l-.94-1.441c4.341-.639,7.742-2.42,7.742-7.441,0-3.16-1.081-5.442-3.181-5.442-2.5,0-4.821,3.642-5.061,6.262a9.33,9.33,0,0,0,.04,2.461l-1.54.12a24.387,24.387,0,0,1-.22-3.181,52.847,52.847,0,0,1,.62-6.461c.08-.6.12-1.181.16-1.721l1.76.06A37.165,37.165,0,0,0,358.123,435.664Z"></path><path class="cls-3" d="M383.624,431.344c0,.259-.02.7-.02,1.219a49.5,49.5,0,0,0,5.421-.54l-.02,1.461c-1.58.18-3.481.36-5.4.46v2.8a50.04,50.04,0,0,0,5.582-.54l-.02,1.5c-1.881.24-3.642.4-5.542.46.04,1.04.1,2.12.14,3.081a15.927,15.927,0,0,1,5.842,3.12l-.921,1.421a14.725,14.725,0,0,0-4.841-3.021c.02.5.04.92.04,1.24,0,1.381-.92,2.8-3.521,2.8-2.88,0-4.441-1.02-4.441-2.941,0-1.82,1.741-3.06,4.622-3.06a11.454,11.454,0,0,1,1.68.12c-.02-.9-.06-1.861-.08-2.721H381c-1.359,0-3.56-.12-5-.28l-.021-1.5a37.031,37.031,0,0,0,5.042.38h1.08V434h-.88c-1.4,0-3.861-.2-5.121-.34l-.02-1.48a36.34,36.34,0,0,0,5.121.44h.92V431.2a10.976,10.976,0,0,0-.08-1.2h1.7A10.029,10.029,0,0,0,383.624,431.344Zm-3.44,14.062c1.14,0,2.12-.359,2.12-1.74,0-.34-.02-.82-.02-1.34a8.879,8.879,0,0,0-1.941-.2c-1.9,0-2.94.74-2.94,1.66S378.2,445.406,380.184,445.406Z"></path><path class="cls-3" d="M404.725,431.3c0,.3-.02.759-.02,1.3h.3c2.441,0,4.9.021,5.862.021l-.02,1.48c-1.12-.06-2.941-.1-5.862-.1h-.279c0,1.141.02,2.381.04,3.3a4.86,4.86,0,0,1,.64,2.56c0,2.7-1.32,5.7-5.982,7.1l-1.34-1.321c2.661-.6,4.5-1.719,5.3-3.541a2.812,2.812,0,0,1-1.74.541,3.185,3.185,0,0,1-3.281-3.34,3.492,3.492,0,0,1,3.521-3.482,3.979,3.979,0,0,1,1.34.221c0-.6,0-1.32-.02-2.021-3.04.02-6.441.161-8.942.34l-.04-1.54c2.221-.04,5.982-.16,8.962-.2,0-.561-.02-1.04-.04-1.32-.02-.521-.1-1.1-.12-1.261h1.82C404.784,430.264,404.745,431.044,404.725,431.3Zm-2.841,9.962c1.18,0,1.94-.941,1.76-2.841a1.793,1.793,0,0,0-1.78-1.26,2.039,2.039,0,0,0-2.021,2.12A1.928,1.928,0,0,0,401.884,441.266Z"></path><path class="cls-3" d="M419.223,444.046a3.051,3.051,0,1,1-3.06-3.04A3.047,3.047,0,0,1,419.223,444.046Zm-1.02,0a2.031,2.031,0,1,0-2.04,2.041A2.032,2.032,0,0,0,418.2,444.046Z"></path><path class="cls-3" d="M206.4,469.763l1.2.62a12.508,12.508,0,0,0,0,17.8l-1.2.621a13.378,13.378,0,0,1,0-19.044Z"></path><path class="cls-3" d="M209.4,485.807c4.3-4.282,6.721-6.842,6.721-9.182a2.513,2.513,0,0,0-2.7-2.781,4.17,4.17,0,0,0-3.041,1.7l-1.06-1.02a5.608,5.608,0,0,1,4.321-2.161,3.95,3.95,0,0,1,4.26,4.182c0,2.68-2.44,5.341-5.821,8.9.76-.059,1.641-.139,2.4-.139h4.141v1.58H209.4Z"></path><path class="cls-3" d="M220.6,479.705c0-4.781,1.741-7.342,4.581-7.342s4.561,2.581,4.561,7.342c0,4.781-1.72,7.441-4.561,7.441S220.6,484.486,220.6,479.705Zm7.362,0c0-4.181-1.12-5.881-2.781-5.881-1.68,0-2.8,1.7-2.8,5.881s1.12,5.981,2.8,5.981C226.839,485.686,227.959,483.886,227.959,479.705Z"></path><path class="cls-3" d="M231.6,485.807c4.3-4.282,6.721-6.842,6.721-9.182a2.512,2.512,0,0,0-2.7-2.781,4.174,4.174,0,0,0-3.041,1.7l-1.06-1.02a5.61,5.61,0,0,1,4.321-2.161,3.95,3.95,0,0,1,4.261,4.182c0,2.68-2.441,5.341-5.822,8.9.761-.059,1.641-.139,2.4-.139h4.141v1.58H231.6Z"></path><path class="cls-3" d="M243.577,485.366h3.26V474.844h-2.6v-1.18a8.477,8.477,0,0,0,3.04-1.04h1.4v12.742h2.941v1.521h-8.042Z"></path><path class="cls-3" d="M276.92,483.846h-7.241v4.581h-1.5v-4.581h-9.242v-1.44h3.281v-5.361h5.961V474h-4.861a18.449,18.449,0,0,1-3.041,3.94,9.163,9.163,0,0,0-1.28-.939,16.924,16.924,0,0,0,4.5-6.9l1.5.36c-.281.7-.6,1.421-.921,2.1H276V474h-6.321v3.041h5.861v1.4h-5.861v3.961h7.241Zm-8.742-1.44v-3.961H263.7v3.961Z"></path><path class="cls-3" d="M283.476,485.206l.9-1.2a4.818,4.818,0,0,0,3.6,1.62,3.07,3.07,0,0,0,3.121-3.24,2.88,2.88,0,0,0-3.041-3.161,4.012,4.012,0,0,0-2.44.88l-.981-.62.461-6.861h7.141v1.56H286.7l-.36,4.261a4.273,4.273,0,0,1,2.18-.6,4.11,4.11,0,0,1,4.421,4.481,4.655,4.655,0,0,1-4.8,4.82A6.232,6.232,0,0,1,283.476,485.206Z"></path><path class="cls-3" d="M315.379,486.246c0,1.041-.3,1.561-1.04,1.8a16.091,16.091,0,0,1-4.221.28,7.094,7.094,0,0,0-.62-1.54c1.66.06,3.261.04,3.721.04.46-.02.62-.16.62-.6v-4h-9.6a11.285,11.285,0,0,1-3.441,6.221,5.628,5.628,0,0,0-1.1-1.08c3.181-2.8,3.5-6.862,3.5-10.043V471.2h12.183Zm-1.54-5.48V477.4H304.7a25.139,25.139,0,0,1-.22,3.362Zm-9.142-8.1v3.32h9.142v-3.32Z"></path><path class="cls-3" d="M343.8,480.665v6.021c0,.821-.18,1.221-.68,1.461a6.276,6.276,0,0,1-2.481.26,5.941,5.941,0,0,0-.44-1.36c.86.019,1.64.019,1.88,0,.24,0,.341-.061.341-.361v-5.581l-2.381.781-.38-1.441c.76-.2,1.72-.5,2.761-.82v-4.1h-2.5v-1.36h2.5v-4h1.38v4h2.14v1.36H343.8v3.681c.66-.2,1.32-.42,1.98-.641l.2,1.381Zm9.922.62a13.371,13.371,0,0,0,4.781,4.741,5.459,5.459,0,0,0-1,1.12,15.72,15.72,0,0,1-4.722-5.041v6.182h-1.4v-6.161a14.831,14.831,0,0,1-5.2,5.081,4.758,4.758,0,0,0-1.02-1.16,12.95,12.95,0,0,0,5.261-4.762h-4.1v-1.34h5.061v-2.2h1.4v2.2H357.9v1.34Zm3.62-9.682a54.813,54.813,0,0,1-10.722,1.481,4.545,4.545,0,0,0-.38-1.221,53.822,53.822,0,0,0,10.082-1.4Zm-9.4,6.362a14.129,14.129,0,0,0-1.421-3.781l1.18-.34a13.28,13.28,0,0,1,1.521,3.7Zm3.521-.641a11.654,11.654,0,0,0-.941-3.74l1.28-.24a11.841,11.841,0,0,1,1,3.661Zm2.56.7a31.806,31.806,0,0,0,2.521-4.94l1.4.519a39.208,39.208,0,0,1-2.781,4.9Z"></path><path class="cls-3" d="M376.7,486.406c0,.961-.259,1.4-.9,1.661a13.051,13.051,0,0,1-3.72.24,5.882,5.882,0,0,0-.5-1.44c1.4.06,2.761.039,3.121.039.4-.019.54-.139.54-.519v-4.061h-5.381v5.9h-1.48v-5.9h-5a11.48,11.48,0,0,1-2.5,6.2,4.853,4.853,0,0,0-1.14-.98c2.2-2.481,2.4-6,2.4-8.782v-7.2H376.7Zm-8.321-5.5v-3.32H363.6v1.18c0,.66-.02,1.4-.08,2.14Zm-4.781-7.922v3.2h4.781v-3.2Zm11.642,0h-5.381v3.2h5.381Zm0,7.922v-3.32h-5.381v3.32Z"></path><path class="cls-3" d="M389.638,470.764c-.02.259-.02.58-.04.92.18,2.64,1.26,11.882,8.782,15.323a4.5,4.5,0,0,0-1.1,1.22c-5.16-2.441-7.361-7.562-8.321-11.563-.88,4-2.941,8.822-8,11.563a5.061,5.061,0,0,0-1.2-1.14c8.1-4.141,8.1-13.683,8.242-16.323Z"></path><path class="cls-3" d="M418.04,482.746h-2.06v3.54H414.5v-.9h-4.8v1.38c0,.919-.28,1.26-.88,1.48a11.95,11.95,0,0,1-3.321.24,4.917,4.917,0,0,0-.52-1.26c1.2.04,2.4.02,2.74.02.381-.02.5-.141.5-.48v-1.38h-6.462v-1.141h6.462v-1.5h-8.182v-1.181h8.182v-1.4h-6.282v-1.1h6.282v-1.4H402.5v-3.521h5.721v-1.161h-7.8v-1.219h7.8v-1.6h1.48v1.6h7.962v1.219H409.7v1.161h5.961v3.521H409.7v1.4h6.282v2.5h2.06Zm-9.822-6.121v-1.44h-4.3v1.44Zm1.48-1.44v1.44h4.481v-1.44Zm0,6.38h4.8v-1.4h-4.8Zm4.8,1.181h-4.8v1.5h4.8Z"></path><path class="cls-3" d="M419.916,477.845H430.2v1.36H419.916Zm10-4.181h-9.482v-1.3h4v-2.139h1.42v2.139h4.061Zm-8.662,7.281h7.822v7.362h-1.44v-1.06h-5v1.18h-1.38Zm1.28-3.341a13.79,13.79,0,0,0-.88-3.24l1.241-.261a11.816,11.816,0,0,1,.919,3.2Zm.1,4.662v3.68h5v-3.68Zm3.621-4.9a27.229,27.229,0,0,0,1.121-3.4l1.4.34c-.421,1.16-.9,2.48-1.32,3.361Zm11.943-5.4c-.821,1.88-1.841,4.181-2.781,6,2,1.841,2.5,3.421,2.521,4.841a2.922,2.922,0,0,1-.98,2.6,2.882,2.882,0,0,1-1.3.441,12.651,12.651,0,0,1-1.74.04,3.461,3.461,0,0,0-.42-1.481,11.027,11.027,0,0,0,1.58.04,2.049,2.049,0,0,0,.861-.219c.419-.261.54-.861.54-1.582,0-1.259-.56-2.74-2.581-4.48.82-1.681,1.7-3.841,2.32-5.441h-3.78v15.683H431V471.323h5.881l.241-.059Z"></path><path class="cls-3" d="M441.136,488.807l-1.2-.621a12.508,12.508,0,0,0,0-17.8l1.2-.62a13.378,13.378,0,0,1,0,19.044Z"></path><path class="cls-1" d="M110.072,98.169a30.078,30.078,0,0,0,10.978,8.48,17.493,17.493,0,0,0-2.651,3.177,32.486,32.486,0,0,1-10.023-8.48v9.806H104.46v-9.621A33.876,33.876,0,0,1,94.437,109.8a20.055,20.055,0,0,0-2.683-3.176,30.039,30.039,0,0,0,11.01-8.45H92.772V94.53H104.46V90.583H95.085V86.944h9.375V82.35h3.916v4.594h9.652v3.639h-9.652V94.53h11.873v3.639Z"></path><path class="cls-1" d="M127.068,100.883a28.481,28.481,0,0,1-1.85,7.957,17.938,17.938,0,0,0-2.806-1.326,22.421,22.421,0,0,0,1.634-7.155Zm23.715-16.19a19.577,19.577,0,0,1-5.027,7.988,22.074,22.074,0,0,0,6.322,2.343,14.714,14.714,0,0,0-2.251,2.96A22.567,22.567,0,0,1,142.95,94.9a27.644,27.644,0,0,1-7.031,3.239,14.347,14.347,0,0,0-1.943-2.961,18.406,18.406,0,0,1,1.265,3.639l-2.591,1.172a14.628,14.628,0,0,0-.4-1.573l-1.573.123v12.613H127.5v-12.4l-4.472.278-.309-3.177,2.221-.092c.462-.586.956-1.264,1.449-1.974a30.28,30.28,0,0,0-3.638-4.193l1.757-2.5c.216.184.463.4.709.616a38.95,38.95,0,0,0,2.251-5.365l3.177,1.171c-1.11,2.1-2.344,4.472-3.454,6.2.4.431.74.863,1.048,1.233a55.612,55.612,0,0,0,2.745-5l2.991,1.388c-1.7,2.682-3.824,5.8-5.766,8.3l2.96-.123c-.339-.772-.709-1.542-1.079-2.221l2.436-1.018a30.246,30.246,0,0,1,1.418,2.837,23.637,23.637,0,0,0,6.137-2.559,20.017,20.017,0,0,1-3.639-5.027l1.974-.647H134.9V83.737h12.768l.647-.154Zm-17.454,15.419a34.076,34.076,0,0,1,1.912,5.551l-2.714.986a36.367,36.367,0,0,0-1.789-5.735Zm11.533,6.939h6.754v3.207H134.192v-3.207h7.062v-3.609h-5.242v-3.237h5.242v-3.67h3.608v3.67h5.489v3.237h-5.489Zm-5.026-20.168a13.984,13.984,0,0,0,2.96,3.67,15.624,15.624,0,0,0,3.022-3.67Z"></path><path class="cls-1" d="M153.378,108.377c1.049-1.573,1.419-4.163,1.542-6.784l2.036.4c-.155,2.807-.463,5.675-1.727,7.4Zm23.715-5.859a11.6,11.6,0,0,0,5.766,5.673,14.3,14.3,0,0,0-2.313,2.9,13.369,13.369,0,0,1-5.766-6.477,13.536,13.536,0,0,1-6.846,6.569,12.291,12.291,0,0,0-1.789-2.159,2.483,2.483,0,0,1-.4.864,2.446,2.446,0,0,1-1.85,1.079,12,12,0,0,1-2.714.093,7.036,7.036,0,0,0-.74-2.837,17.587,17.587,0,0,0,1.881.123.921.921,0,0,0,.833-.4,7.165,7.165,0,0,0,.524-2.683l-.987.37a18.075,18.075,0,0,0-1.387-3.978l1.449-.493a17.746,17.746,0,0,1,1.048,2.5c.062-.925.124-2.065.185-3.391h-8.819V83.46h11.348v2.96h-3.3v1.7H165.9v1.635a19.693,19.693,0,0,0,6.722-7.4h3.146c1.85,2.836,4.533,5.643,7.247,6.938a21.341,21.341,0,0,0-1.82,3.146,14.1,14.1,0,0,1-2-1.419v1.7h-3.084v1.665h5.52v8.142Zm-18.287-.432a30.2,30.2,0,0,1,.308,5.643l-1.665.216a36.43,36.43,0,0,0-.216-5.7Zm-.617-15.666v1.7h2.1v-1.7Zm0,4.472v1.85h2.1v-1.85Zm0,6.538h2.1V95.518h-2.1Zm2.683,4.347a25.477,25.477,0,0,1,1.018,4.965l-1.6.34a23.238,23.238,0,0,0-.956-5ZM167.1,97.43s0,.8-.031,1.2a75.419,75.419,0,0,1-.74,9.683,10.886,10.886,0,0,0,5.674-5.8h-4.378V94.376h5.242V92.711h-3.146V91.046a18.2,18.2,0,0,1-2.374,1.758,16.884,16.884,0,0,0-1.449-2.621v.709h-2.684v1.85H165.9v2.776h-2.684V97.43Zm5.582,2.435a16.654,16.654,0,0,0,.185-2.744v-.093h-2.251v2.837Zm5.242-9.96a21.916,21.916,0,0,1-3.608-4.38,23.045,23.045,0,0,1-3.392,4.38Zm-1.819,7.123v.123a26.894,26.894,0,0,1-.124,2.714h2.529V97.028Z"></path><path class="cls-1" d="M201.675,94.87c-1.2.863-2.374,1.665-3.639,2.467h11.225v13.692h-3.854v-.8H194.8v.924h-3.67V101.068c-1.541.679-3.145,1.357-4.717,1.943a19.875,19.875,0,0,0-2.221-3.022,54.607,54.607,0,0,0,11.441-5.119H185.146V91.632h9.9V88.825H187.8V85.649h7.247V82.318h3.639v3.331h6.692V87.16a37.582,37.582,0,0,0,3.176-3.916l3.146,1.6a45.226,45.226,0,0,1-6.075,6.784h7.154V94.87Zm3.732,5.458H194.8V102.3h10.609Zm0,6.846v-2.1H194.8v2.1Zm-6.723-15.542h1.7a42.3,42.3,0,0,0,3.331-2.807h-5.027Z"></path><path class="cls-1" d="M233.752,96.72a3.948,3.948,0,1,1-3.948-3.948A3.975,3.975,0,0,1,233.752,96.72Z"></path><path class="cls-1" d="M250.44,100.883a28.515,28.515,0,0,1-1.851,7.957,17.938,17.938,0,0,0-2.806-1.326,22.447,22.447,0,0,0,1.635-7.155Zm23.714-16.19a19.586,19.586,0,0,1-5.026,7.988,22.068,22.068,0,0,0,6.321,2.343,14.714,14.714,0,0,0-2.251,2.96,22.567,22.567,0,0,1-6.877-3.084,27.644,27.644,0,0,1-7.031,3.239,14.347,14.347,0,0,0-1.943-2.961,18.406,18.406,0,0,1,1.265,3.639l-2.59,1.172a14.894,14.894,0,0,0-.4-1.573l-1.573.123v12.613h-3.176v-12.4l-4.472.278-.309-3.177,2.221-.092c.462-.586.956-1.264,1.449-1.974a30.28,30.28,0,0,0-3.638-4.193l1.757-2.5c.216.184.463.4.709.616a38.95,38.95,0,0,0,2.251-5.365l3.177,1.171c-1.11,2.1-2.344,4.472-3.454,6.2.4.431.74.863,1.048,1.233a55.612,55.612,0,0,0,2.745-5l2.991,1.388c-1.7,2.682-3.823,5.8-5.766,8.3l2.96-.123c-.339-.772-.709-1.542-1.079-2.221l2.436-1.018a30.246,30.246,0,0,1,1.418,2.837,23.637,23.637,0,0,0,6.137-2.559,19.989,19.989,0,0,1-3.638-5.027l1.973-.647h-3.515V83.737H271.04l.647-.154ZM256.7,100.112a33.98,33.98,0,0,1,1.912,5.551l-2.714.986a36.367,36.367,0,0,0-1.789-5.735Zm11.533,6.939h6.754v3.207H257.564v-3.207h7.061v-3.609h-5.242v-3.237h5.242v-3.67h3.608v3.67h5.489v3.237h-5.489Zm-5.026-20.168a13.984,13.984,0,0,0,2.96,3.67,15.624,15.624,0,0,0,3.022-3.67Z"></path><path class="cls-1" d="M276.749,108.377c1.049-1.573,1.419-4.163,1.542-6.784l2.036.4c-.155,2.807-.463,5.675-1.727,7.4Zm23.715-5.859a11.594,11.594,0,0,0,5.767,5.673,14.23,14.23,0,0,0-2.313,2.9,13.366,13.366,0,0,1-5.767-6.477,13.536,13.536,0,0,1-6.846,6.569,12.291,12.291,0,0,0-1.789-2.159,2.483,2.483,0,0,1-.4.864,2.446,2.446,0,0,1-1.85,1.079,12,12,0,0,1-2.714.093,7.02,7.02,0,0,0-.74-2.837,17.6,17.6,0,0,0,1.881.123.92.92,0,0,0,.833-.4,7.165,7.165,0,0,0,.524-2.683l-.986.37a18.082,18.082,0,0,0-1.388-3.978l1.449-.493a17.746,17.746,0,0,1,1.048,2.5c.062-.925.124-2.065.185-3.391h-8.819V83.46h11.348v2.96h-3.3v1.7h2.684v1.635a19.693,19.693,0,0,0,6.722-7.4h3.146c1.85,2.836,4.533,5.643,7.247,6.938a21.341,21.341,0,0,0-1.82,3.146,14.1,14.1,0,0,1-2-1.419v1.7h-3.084v1.665H305v8.142Zm-18.287-.432a30.2,30.2,0,0,1,.308,5.643l-1.665.216a36.43,36.43,0,0,0-.216-5.7ZM281.56,86.42v1.7h2.1v-1.7Zm0,4.472v1.85h2.1v-1.85Zm0,6.538h2.1V95.518h-2.1Zm2.683,4.347a25.477,25.477,0,0,1,1.018,4.965l-1.6.34a23.238,23.238,0,0,0-.956-5Zm6.229-4.347s0,.8-.031,1.2a75.419,75.419,0,0,1-.74,9.683,10.889,10.889,0,0,0,5.675-5.8H291V94.376h5.242V92.711h-3.146V91.046a18.2,18.2,0,0,1-2.374,1.758,16.884,16.884,0,0,0-1.449-2.621v.709h-2.684v1.85h2.684v2.776h-2.684V97.43Zm5.582,2.435a16.654,16.654,0,0,0,.185-2.744v-.093h-2.251v2.837Zm5.242-9.96a21.875,21.875,0,0,1-3.607-4.38,23.094,23.094,0,0,1-3.393,4.38Zm-1.819,7.123v.123c0,.9-.031,1.789-.123,2.714h2.528V97.028Z"></path><path class="cls-1" d="M325.046,94.87c-1.2.863-2.374,1.665-3.639,2.467h11.225v13.692h-3.854v-.8H318.17v.924H314.5V101.068c-1.542.679-3.145,1.357-4.718,1.943a19.875,19.875,0,0,0-2.221-3.022A54.607,54.607,0,0,0,319,94.87H308.517V91.632h9.9V88.825H311.17V85.649h7.246V82.318h3.639v3.331h6.692V87.16a37.582,37.582,0,0,0,3.176-3.916l3.146,1.6a45.226,45.226,0,0,1-6.075,6.784h7.154V94.87Zm3.732,5.458H318.17V102.3h10.608Zm0,6.846v-2.1H318.17v2.1Zm-6.723-15.542h1.7a42.3,42.3,0,0,0,3.331-2.807h-5.027Z"></path><path class="cls-1" d="M343.924,94.962v16.159h-3.639V83.49h11.781V94.962Zm0-8.665v1.665h4.718V86.3Zm4.718,5.889V90.429h-4.718v1.757Zm1.882,14.587V108.5H347.1V97.09h11.935v9.683Zm0-6.661v3.639h5.087v-3.639Zm15.727,6.63c0,2.035-.4,3.084-1.7,3.67-1.265.617-3.207.709-6.045.709a13.132,13.132,0,0,0-1.233-3.762c1.789.123,3.886.092,4.472.062.586,0,.8-.186.8-.74V94.993h-8.357V83.49h12.058Zm-8.573-20.476v1.7h4.872v-1.7Zm4.872,5.952V90.429h-4.872v1.789Z"></path><path class="cls-1" d="M376.864,83.429l4.5.154c-.185.863-.431,2.437-.678,4.379l1.141,1.449c-.432.556-1.049,1.573-1.573,2.375-.031.277-.031.586-.062.863a15.15,15.15,0,0,1,9.067-3.176,8.184,8.184,0,0,1,8.511,8.327c0,6.228-3.916,9.96-11.564,11.471l-1.851-3.731c5.428-.8,9.313-3.022,9.283-7.833a4.742,4.742,0,0,0-5.027-4.626c-3.269,0-6.137,1.573-8.727,3.947-.031.895-.062,1.789-.062,2.591,0,2.528,0,5.119.185,8.018.031.554.123,1.665.216,2.374h-4.256c.062-.678.093-1.788.093-2.282.062-2.405.092-4.194.123-6.784-1.3,1.943-2.806,4.194-3.885,5.643l-2.437-3.361c1.758-2.159,4.842-6.229,6.6-8.82.061-.709.123-1.449.154-2.189-1.511.184-3.885.493-5.613.74l-.4-3.947a26.675,26.675,0,0,0,2.683-.032c.894-.061,2.251-.215,3.577-.4.061-1.172.123-2.035.123-2.375A17.043,17.043,0,0,0,376.864,83.429Z"></path><path class="cls-1" d="M424.822,86.728l-2.128.9c1.974-.031,3.762-.031,4.687-.031l-.031,3.67c-1.85-.093-4.78-.185-8.943-.185.031,1.572.031,3.207.031,4.564a7.751,7.751,0,0,1,1.172,4.286c0,4.04-2.375,9.129-9.93,11.256l-3.269-3.3c3.115-.649,5.86-1.666,7.556-3.516a6.7,6.7,0,0,1-1.419.154,5.455,5.455,0,0,1-5.335-5.643c0-3.485,2.837-5.8,6.2-5.8a7.963,7.963,0,0,1,1.233.093c0-.679,0-1.388-.031-2.067-4.656.062-9.467.278-13.26.494l-.093-3.732c3.516-.03,9.128-.154,13.292-.216a8.371,8.371,0,0,0-.031-.956c-.093-1.233-.216-2.281-.278-2.682h4.441c-.093.493-.185,2.159-.216,2.652,0,.246-.031.586-.031.956h3.7a38.96,38.96,0,0,0-2-3.485l2.529-1.048A35.116,35.116,0,0,1,424.822,86.728Zm-11.5,14.4c1.295,0,2.406-.987,2-3.7a2.224,2.224,0,0,0-2.035-1.08,2.3,2.3,0,0,0-2.344,2.436A2.329,2.329,0,0,0,413.319,101.13Zm15.666-15.3-2.59,1.079a27.107,27.107,0,0,0-2.159-3.639l2.559-1.047A33.995,33.995,0,0,1,428.985,85.834Z"></path><path class="cls-1" d="M117.2,148.1a31.536,31.536,0,0,0-1.634-2.776v12.027h-3.578v-10.7a27.543,27.543,0,0,1-3.207,5.737,18.208,18.208,0,0,0-1.7-3.486,30.6,30.6,0,0,0,4.657-8.51h-3.855v-3.423h4.1v-3.454c-1.2.184-2.374.338-3.484.461a12.821,12.821,0,0,0-1.018-2.805,40.447,40.447,0,0,0,9.282-2.282L119.2,131.7a28.17,28.17,0,0,1-3.639,1.111v4.163h2.868v-.525H125.4V135.4h-5.459V133.27H125.4v-1.048h-6.013V130H125.4v-1.388h3.67V130h6.383v2.221h-6.383v1.048h5.674V135.4h-5.674v1.049h7v2.282H118.617v1.666h-3.053v.986c.986.926,3.207,3.207,3.731,3.855Zm14.093,4.317c1.881,1.11,4.009,2.405,5.242,3.269l-3.207,1.727a53.328,53.328,0,0,0-5.088-3.608l1.912-1.388h-5.612l2.066,1.357a27.33,27.33,0,0,1-7.4,3.732c-.555-.649-1.573-1.635-2.252-2.282a24.008,24.008,0,0,0,6.075-2.807h-2.683V139.776h14.248V152.42Zm-7.679-9.1h7.494v-1.3h-7.494Zm0,3.423h7.494V145.42h-7.494Zm0,3.392h7.494v-1.3h-7.494Z"></path><path class="cls-1" d="M146.869,147.856c-.308-.925-.956-2.375-1.573-3.762v13.26h-3.269V145.975a26.4,26.4,0,0,1-2.466,5.8,20.982,20.982,0,0,0-1.542-3.114,32.45,32.45,0,0,0,3.762-10.392h-3.053v-3.331h3.3v-6.353H145.3v6.353H148.1v3.331H145.3V139.9c.74,1.079,2.406,3.824,3.084,5.027v-5.952H154.7v9.313h-3.855v2.1H148.38v-4.749Zm.74,5.427h19.52v3.084h-19.52Zm3.577-15.419c.525-1.418,1.08-3.361,1.542-5.18h-4.564v-3.053h18.287v3.053H156.089c-.185.74-.4,1.48-.586,2.22h3.7s-.031.956-.031,1.357l-.03,3.515,2.22-.524a24.029,24.029,0,0,0,1.141,3.67,28,28,0,0,0,.863-4.194h-3.546v-2.713h4.317l.525-.062,1.788.369a33.467,33.467,0,0,1-2.158,9.992,10.105,10.105,0,0,0,3.145,3.115,11.532,11.532,0,0,0-2.066,2.466,11.567,11.567,0,0,1-2.621-2.712,12.712,12.712,0,0,1-2.406,2.682,8.912,8.912,0,0,0-1.6-2.035,4.379,4.379,0,0,1-.463,1.542,2.632,2.632,0,0,1-1.974,1.233,18.434,18.434,0,0,1-3.083.123,6.816,6.816,0,0,0-.771-2.775,20.876,20.876,0,0,0,2.251.062.809.809,0,0,0,.864-.4c.4-.678.493-3.639.585-11.966H154.64l-.216.679Zm-.339,3.547v4.409h1.388v-4.409Zm8.3-1.388c-.062,4.842-.155,7.741-.37,9.437a10.407,10.407,0,0,0,2.374-3.115A31.606,31.606,0,0,1,159.143,140.023Z"></path><path class="cls-1" d="M197.17,133.331s0,1.233-.03,1.666c-.4,13.784-.741,18.688-2,20.322a4.114,4.114,0,0,1-2.96,1.7,34.546,34.546,0,0,1-4.842.062,8.634,8.634,0,0,0-1.2-3.578c1.974.186,3.793.186,4.6.186a1.644,1.644,0,0,0,1.356-.525c.9-.986,1.3-5.612,1.635-16.5h-6.6a26.558,26.558,0,0,1-2.714,4.872,22.594,22.594,0,0,0-2.374-1.726v14.4H173.8v2.251h-3.33V133.547h3.485a33.132,33.132,0,0,0,.894-4.965l4.009.556c-.524,1.542-1.079,3.084-1.6,4.409h4.78v5a31.868,31.868,0,0,0,4.163-9.93l3.516.8c-.339,1.326-.74,2.621-1.2,3.916ZM178.7,136.755h-4.9v5h4.9Zm0,14.216v-6.044h-4.9v6.044Zm10.238-1.665a66.013,66.013,0,0,0-4.287-7.124l2.868-1.634a74.241,74.241,0,0,1,4.533,6.846Z"></path><path class="cls-1" d="M207.259,133.825a81.778,81.778,0,0,0-1.48,11.318,14.942,14.942,0,0,0,.123,2c.463-1.047.956-2.127,1.388-3.145l1.912,1.512c-.863,2.559-1.881,5.921-2.22,7.554a9.26,9.26,0,0,0-.154,1.451c0,.338.03.832.061,1.263l-3.577.247a39.408,39.408,0,0,1-1.2-10.084,86.164,86.164,0,0,1,1.295-12.212c.093-.863.278-2.035.309-3.022l4.317.37C207.784,131.728,207.383,133.27,207.259,133.825Zm7.618,15.079c0,1.358,1.171,2.19,4.316,2.19a36.4,36.4,0,0,0,7.741-.8l.062,4.163a43.684,43.684,0,0,1-7.956.586c-5.3,0-7.864-1.881-7.864-5.057a18.852,18.852,0,0,1,.524-4.009l3.546.339A10.5,10.5,0,0,0,214.877,148.9Zm11.163-15.789v3.979a82.808,82.808,0,0,1-13.261,0v-3.948A63.293,63.293,0,0,0,226.04,133.115Z"></path><path class="cls-1" d="M240.569,144.8c-.986.308-1.973.617-2.96.894v7.8c0,1.7-.278,2.622-1.2,3.208-.956.586-2.251.709-4.286.678a13.647,13.647,0,0,0-.926-3.392,24.418,24.418,0,0,0,2.56.03c.37,0,.524-.123.524-.524v-6.814c-1.017.307-2.035.585-2.929.832l-.8-3.516c1.048-.216,2.344-.555,3.731-.894v-5.335H231.04v-3.361h3.238v-5.8h3.331v5.8h2.806v3.361h-2.806v4.441l2.5-.709Zm12.983,2.282a18.835,18.835,0,0,0,6.537,6.045,13.765,13.765,0,0,0-2.4,2.775,22.491,22.491,0,0,1-5.89-6.045v7.309H248.34v-7.463a21.363,21.363,0,0,1-6.784,6.353,16.656,16.656,0,0,0-2.436-2.868,18.413,18.413,0,0,0,7.278-6.106h-5.305v-3.176h7.247v-3.115h3.454v3.115h7.432v3.176Zm5.088-15.419a87.207,87.207,0,0,1-16.991,2.375,12.513,12.513,0,0,0-.957-2.93A82.792,82.792,0,0,0,256.2,128.8Zm-15.635,9.684a26.949,26.949,0,0,0-1.881-5.921l2.9-.741a23.533,23.533,0,0,1,2.1,5.767Zm5.274-1.172a20.516,20.516,0,0,0-1.234-5.675l3.053-.586a18.783,18.783,0,0,1,1.419,5.613Zm4.163.647a40.325,40.325,0,0,0,3.546-7.431l3.485,1.263a68.413,68.413,0,0,1-4.194,7.309Z"></path><path class="cls-1" d="M288.373,153.037c0,1.974-.432,2.96-1.665,3.516-1.265.616-3.146.677-5.921.647a13.907,13.907,0,0,0-1.172-3.515c1.727.092,3.762.061,4.317.061.586,0,.8-.185.8-.74V148.38h-6.507v8.6h-3.7v-8.6h-6.291c-.554,3.362-1.665,6.754-3.885,9.159a13.529,13.529,0,0,0-2.9-2.374c3.362-3.7,3.639-9.19,3.639-13.508V130.648h23.283Zm-13.847-8.11v-3.793h-5.8v.554c0,.988-.031,2.1-.093,3.239Zm-5.8-10.794v3.577h5.8v-3.577Zm16,0h-6.507v3.577h6.507Zm0,10.794v-3.793h-6.507v3.793Z"></path><path class="cls-1" d="M310.365,149.83c2.19,2.467,5.643,3.885,10.516,4.409a14.329,14.329,0,0,0-2.159,3.207c-5.859-.925-9.529-3.114-11.965-6.938-1.819,2.745-5.242,5.181-11.533,6.877a14.939,14.939,0,0,0-2.283-2.96c5.182-1.172,8.142-2.776,9.838-4.595H293.5v-3.177h11.07a13.9,13.9,0,0,0,.309-1.942h-7.894V141.75h7.925V139.9h-8.419v-2.036h-2.745V131.3H305v-2.683h3.763V131.3h11.286v6.568h-2.467V139.9h-9v1.85h8.387v2.961h-8.419a10.406,10.406,0,0,1-.246,1.942H320.48v3.177Zm-5.458-12.891v-1.757h3.67v1.757h7.678V134.5H297.382v2.436Z"></path><path class="cls-1" d="M347.684,154.239c1.2,0,1.449-.524,1.634-3.237a10.131,10.131,0,0,0,2.961,1.264c-.4,3.855-1.326,5.027-4.318,5.027h-5.4c-3.639,0-4.626-.987-4.626-4.5v-5.921l-1.264.586-1.265-2.991c-.123,7.556-.339,10.515-1.048,11.5a2.756,2.756,0,0,1-1.974,1.263,16.036,16.036,0,0,1-3.176.155,8.61,8.61,0,0,0-.895-3.269,17.29,17.29,0,0,0,2.221.123.894.894,0,0,0,.894-.493c.4-.616.586-3.207.71-10.454h-2.406c-.432,5.551-1.419,10.547-3.978,14.062a10.9,10.9,0,0,0-2.621-2.559c3.053-4.225,3.33-11.01,3.423-18.133H323.6V133.27h4.718v-4.657h3.516v4.657h4.811v2.313a22.264,22.264,0,0,0,2.744-7l3.609.679c-.247,1.079-.586,2.159-.926,3.207h9.683V135.8h-11.07a20.25,20.25,0,0,1-1.758,2.991h2.251v2.96l1.665-.771v-4.41H345.9v2.992l2.221-1.018.123-.093.555-.4,2.282.8-.123.493c-.031,4.379-.031,7.524-.124,8.45a2.162,2.162,0,0,1-1.326,2.127,7.056,7.056,0,0,1-2.559.34,8.374,8.374,0,0,0-.648-2.684c.37.031.8.031,1.049.031s.4-.061.431-.463c.062-.277.062-1.973.093-4.9l-1.974.926v8.6h-3.053v-7.185l-1.665.771v7.432c0,1.265.216,1.449,1.758,1.449Zm-9.745-10.977v-3.208l-.277.308a20.014,20.014,0,0,0-2.745-2.59,11.692,11.692,0,0,0,.987-1.11h-5.89c-.031,1.11-.062,2.22-.093,3.3h5.551v1.388l-.062,3.083Z"></path><path class="cls-1" d="M381.3,133.917v15.389h-3.855v-1.542h-6.969v9.621h-3.886v-9.621h-6.938v1.7h-3.7V133.917h10.639v-5.335h3.886v5.335Zm-14.71,10.238v-6.63h-6.938v6.63Zm10.855,0v-6.63h-6.969v6.63Z"></path><path class="cls-1" d="M396.726,152.266a2.714,2.714,0,1,1,2.714,2.713A2.633,2.633,0,0,1,396.726,152.266Zm.308-16.036-.154-4.594H402l-.154,4.594-.833,10.546h-3.145Z"></path></g></g></svg>