<svg xmlns="http://www.w3.org/2000/svg" xmlns:xlink="http://www.w3.org/1999/xlink" width="535.346" height="122.388" viewBox="0 0 535.346 122.388"><defs><style>.cls-1{fill:none;}.cls-2{clip-path:url(#clip-path);}.cls-3{fill:#f69622;}.cls-4{fill:#fff;}.cls-5{clip-path:url(#clip-path-3);}.cls-6{fill:#cf861e;}.cls-7{clip-path:url(#clip-path-5);}.cls-8{fill:#0069ad;}.cls-9{clip-path:url(#clip-path-7);}.cls-10{fill:#139c3a;}</style><clipPath id="clip-path" transform="translate(-0.38 -0.397)"><rect class="cls-1" width="122.936" height="122.936"></rect></clipPath><clipPath id="clip-path-3" transform="translate(-0.38 -0.397)"><rect class="cls-1" x="137.766" width="122.936" height="122.936"></rect></clipPath><clipPath id="clip-path-5" transform="translate(-0.38 -0.397)"><rect class="cls-1" x="275.532" width="122.936" height="122.936"></rect></clipPath><clipPath id="clip-path-7" transform="translate(-0.38 -0.397)"><rect class="cls-1" x="413.299" width="122.936" height="122.936"></rect></clipPath></defs><g id="&#x30EC;&#x30A4;&#x30E4;&#x30FC;_2" data-name="&#x30EC;&#x30A4;&#x30E4;&#x30FC; 2"><g id="&#x30EC;&#x30A4;&#x30E4;&#x30FC;_1-2" data-name="&#x30EC;&#x30A4;&#x30E4;&#x30FC; 1"><g class="cls-2"><rect class="cls-3" y="0.425" width="121.907" height="121.907"></rect><g class="cls-2"><path class="cls-4" d="M11,16.017a19.122,19.122,0,0,1-1.837.717q-1.2.4-1.521.546v-3.3a19.042,19.042,0,0,0,2.368-1.147,8,8,0,0,0,1.966-1.407h3.472V34.67H11Z" transform="translate(-0.38 -0.397)"></path><path class="cls-4" d="M20.731,16.017a19.122,19.122,0,0,1-1.837.717q-1.2.4-1.521.546v-3.3a18.974,18.974,0,0,0,2.368-1.147,8,8,0,0,0,1.966-1.407h3.472V34.67H20.731Z" transform="translate(-0.38 -0.397)"></path><path class="cls-4" d="M21.169,93.778H39.59a.454.454,0,0,0,.452-.454.443.443,0,0,0-.119-.3L39.9,93,30.733,81.139l-.089-.1a.448.448,0,0,0-.334-.147.46.46,0,0,0-.3.115l-.055.064-.087.1L20.931,92.9l-.137.168a.437.437,0,0,0-.078.252.454.454,0,0,0,.453.454" transform="translate(-0.38 -0.397)"></path><path class="cls-4" d="M39.535,95.45H21.077a.452.452,0,0,0-.452.452v14.444a.453.453,0,0,0,.452.454h5.941v-9.088a.45.45,0,0,1,.452-.452h5.514a.451.451,0,0,1,.452.452V110.8h6.1a.454.454,0,0,0,.452-.454V95.9a.452.452,0,0,0-.452-.452" transform="translate(-0.38 -0.397)"></path><path class="cls-4" d="M103.328,91.668H85.059a.439.439,0,0,0-.446.434V110.55a.441.441,0,0,0,.446.434h18.269a.441.441,0,0,0,.448-.434V92.1a.439.439,0,0,0-.448-.434m-10,12.043a.441.441,0,0,1-.446.437H87.429a.442.442,0,0,1-.449-.437V100.4a.441.441,0,0,1,.449-.436h5.458a.441.441,0,0,1,.446.436Zm0-6.13a.441.441,0,0,1-.446.436H87.429a.442.442,0,0,1-.449-.436V94.262a.441.441,0,0,1,.449-.434h5.458a.441.441,0,0,1,.446.434Zm8.341,6.13a.441.441,0,0,1-.447.437H95.77a.441.441,0,0,1-.447-.437V100.4a.44.44,0,0,1,.447-.436h5.457a.44.44,0,0,1,.447.436Zm0-6.13a.441.441,0,0,1-.447.436H95.77a.441.441,0,0,1-.447-.436V94.262a.44.44,0,0,1,.447-.434h5.457a.44.44,0,0,1,.447.434Z" transform="translate(-0.38 -0.397)"></path><path class="cls-4" d="M60.861,48.848H42.982a.438.438,0,0,0-.437.438v61.1a.439.439,0,0,0,.437.437H60.861a.442.442,0,0,0,.44-.437v-61.1a.44.44,0,0,0-.44-.438M50.226,103.863a.236.236,0,0,1-.235.235H45.9a.236.236,0,0,1-.235-.235V99.3a.234.234,0,0,1,.235-.233h4.094a.234.234,0,0,1,.235.233Zm0-10.478a.234.234,0,0,1-.235.235H45.9a.234.234,0,0,1-.235-.235v-4.56a.234.234,0,0,1,.235-.235h4.094a.234.234,0,0,1,.235.235Zm0-10.474a.235.235,0,0,1-.235.234H45.9a.235.235,0,0,1-.235-.234V78.347a.235.235,0,0,1,.235-.234h4.094a.235.235,0,0,1,.235.234Zm0-10.478a.236.236,0,0,1-.235.235H45.9a.236.236,0,0,1-.235-.235V67.87a.233.233,0,0,1,.235-.232h4.094a.233.233,0,0,1,.235.232Zm0-10.475a.236.236,0,0,1-.235.234H45.9a.236.236,0,0,1-.235-.234V57.4a.235.235,0,0,1,.235-.235h4.094a.235.235,0,0,1,.235.235Zm8.028,41.905a.236.236,0,0,1-.237.235H53.925a.235.235,0,0,1-.235-.235V99.3a.233.233,0,0,1,.235-.233h4.092a.235.235,0,0,1,.237.233Zm0-10.478a.235.235,0,0,1-.237.235H53.925a.233.233,0,0,1-.235-.235v-4.56a.233.233,0,0,1,.235-.235h4.092a.235.235,0,0,1,.237.235Zm0-10.474a.236.236,0,0,1-.237.234H53.925a.234.234,0,0,1-.235-.234V78.347a.234.234,0,0,1,.235-.234h4.092a.236.236,0,0,1,.237.234Zm0-10.478a.236.236,0,0,1-.237.235H53.925a.235.235,0,0,1-.235-.235V67.87a.232.232,0,0,1,.235-.232h4.092a.233.233,0,0,1,.237.232Zm0-10.475a.236.236,0,0,1-.237.234H53.925a.235.235,0,0,1-.235-.234V57.4a.233.233,0,0,1,.235-.235h4.092a.235.235,0,0,1,.237.235Z" transform="translate(-0.38 -0.397)"></path><path class="cls-4" d="M84.622,85.371h18.387a.367.367,0,0,1,.367.367v3.679a.367.367,0,0,1-.367.367H84.62a.367.367,0,0,1-.367-.367V85.739A.369.369,0,0,1,84.622,85.371Z"></path><path class="cls-4" d="M82.456,60.386a.471.471,0,0,0-.449-.342.464.464,0,0,0-.256.085.315.315,0,0,0-.033.022l-.151.19L64,82.631l-.081.109a.5.5,0,0,0-.153.347v27.392a.437.437,0,0,0,.439.435h17.86a.435.435,0,0,0,.437-.435V60.569a.443.443,0,0,0-.042-.183m-7.4,12.1.126-.158c1.2-1.542,3.228-4.037,4.216-5.248l.129-.155a.51.51,0,0,1,.393-.185.5.5,0,0,1,.488.408v5.64a.5.5,0,0,1-.486.5c-.008,0-.014,0-.022,0s-.014,0-.022,0H75.489c-.008,0-.015,0-.022,0s-.014,0-.022,0a.5.5,0,0,1-.486-.5.51.51,0,0,1,.1-.3m-2.78,31.217a.436.436,0,0,1-.437.437H66.512a.436.436,0,0,1-.437-.437v-3.335a.436.436,0,0,1,.437-.436h5.329a.436.436,0,0,1,.437.436Zm0-6.162a.436.436,0,0,1-.437.437H66.512a.436.436,0,0,1-.437-.437V94.21a.435.435,0,0,1,.437-.437h5.329a.435.435,0,0,1,.437.437Zm0-6.163a.437.437,0,0,1-.437.436H66.512a.437.437,0,0,1-.437-.436V88.046a.436.436,0,0,1,.437-.437h5.329a.436.436,0,0,1,.437.437Zm.015-13.5v7.347a.438.438,0,0,1-.437.437H66.528a.438.438,0,0,1-.44-.437V84.3a.509.509,0,0,1,.034-.163.328.328,0,0,1,.027-.051.445.445,0,0,1,.038-.058c.014-.021.034-.047.05-.071.681-.975,3.755-4.761,5.046-6.344l.129-.156a.509.509,0,0,1,.393-.186.5.5,0,0,1,.488.409Zm8.13,25.83a.437.437,0,0,1-.437.437H74.659a.437.437,0,0,1-.44-.437v-3.335a.437.437,0,0,1,.44-.436h5.327a.437.437,0,0,1,.437.436Zm0-6.162a.437.437,0,0,1-.437.437H74.659a.437.437,0,0,1-.44-.437V94.21a.436.436,0,0,1,.44-.437h5.327a.436.436,0,0,1,.437.437Zm0-6.163a.439.439,0,0,1-.437.436H74.659a.439.439,0,0,1-.44-.436V88.046a.437.437,0,0,1,.44-.437h5.327a.437.437,0,0,1,.437.437Zm0-6.164a.436.436,0,0,1-.437.435H74.659a.436.436,0,0,1-.44-.435V81.884a.438.438,0,0,1,.44-.438h5.327a.438.438,0,0,1,.437.438Zm0-6.164a.437.437,0,0,1-.437.437H74.659a.437.437,0,0,1-.44-.437V75.719a.438.438,0,0,1,.44-.438h5.327a.438.438,0,0,1,.437.438Z" transform="translate(-0.38 -0.397)"></path><path class="cls-4" d="M38.013,12.144c-.235.67-.51,1.306-.8,1.945v6.65H36.2V15.8a4.686,4.686,0,0,1-.67.952l-.662-.775A11.144,11.144,0,0,0,37,11.339l1.154.5a.146.146,0,0,1,.09.126c0,.116-.162.168-.233.178m-.278,8.324v-.9H39.97V17.352h-1.8v-.909h1.8V14.538H37.9v-.971H43.13v.971H41.019v1.905h1.835v.909H41.019v2.216h2.334v.9ZM40.6,13.515a10.169,10.169,0,0,0-1.656-1.329l.715-.878c.3.219.584.481.861.732a8.142,8.142,0,0,1,.726.69Z" transform="translate(-0.38 -0.397)"></path><path class="cls-4" d="M52.1,18.806a12.67,12.67,0,0,0-1.216-.869,5.336,5.336,0,0,1-1.844,2.551l-.929-.6a4.4,4.4,0,0,0,1.825-2.424,6.605,6.605,0,0,0-1.674-.608,10.45,10.45,0,0,1-.429,1.045c-.386.836-.87,1.685-1.78,1.685a1.416,1.416,0,0,1-1.28-1.569A2.2,2.2,0,0,1,46.425,15.9a3.847,3.847,0,0,1,1.092-.094,15.882,15.882,0,0,0,.653-2.479l-1.906.325-.207-1.2h.1a13.021,13.021,0,0,0,3.017-.375c.133.166.287.324.437.481-.187.636-.394,1.265-.589,1.9-.154.481-.3.961-.466,1.433a6.876,6.876,0,0,1,1.673.522,9.2,9.2,0,0,0,.3-2.089c.356.24.714.469,1.054.73a11.1,11.1,0,0,1-.331,1.82,11.037,11.037,0,0,1,1.359.763c-.16.387-.329.784-.51,1.172m-6.315-.837c0,.262.1.491.338.491a.462.462,0,0,0,.378-.188,5.5,5.5,0,0,0,.723-1.538c-.627.053-1.439.358-1.439,1.235" transform="translate(-0.38 -0.397)"></path><path class="cls-4" d="M55.439,17.8a10.876,10.876,0,0,1-.608,2.442l-.768-.413a10.916,10.916,0,0,0,.572-2.647l.863.362a.11.11,0,0,1,.06.1.165.165,0,0,1-.119.155m5.671-.443V16.345H58.248v1.04h-.866v-.732l-.632.278c-.032-.113-.067-.236-.093-.35l-.163.032v4.129h-.9V16.716c-.425.03-.858.079-1.281.133l-.112-.885a2.012,2.012,0,0,0,.434-.053.375.375,0,0,0,.231-.175c.234-.308.434-.649.642-.976a9.771,9.771,0,0,0-1.15-.5V13.8a11.118,11.118,0,0,0,1.469-2.5l.933.514c.07.043.19.093.19.205,0,.177-.164.177-.267.166-.407.526-.8,1.061-1.244,1.555.164.1.335.187.5.3.162-.268.318-.548.474-.824l.813.575a.179.179,0,0,1,.087.146c0,.142-.137.133-.224.133-.468.619-.91,1.258-1.4,1.843a6.5,6.5,0,0,0,.76-.06,4.819,4.819,0,0,0-.174-.525l.694-.28c.154.483.276.98.412,1.474v-1h4.7v1.833Zm-4.125,1.936c-.129-.565-.241-1.142-.337-1.719l.667-.288c.1.577.216,1.162.354,1.729Zm2.474-2.142a7.055,7.055,0,0,1-.277,1.71,3.731,3.731,0,0,1-1.5,2.029l-.778-.638c1.333-.835,1.548-1.844,1.6-3.532l.933.173a.131.131,0,0,1,.121.125.166.166,0,0,1-.1.133m.606-3.7v.742h1.59v.833H57.6v-.833H59.08V13.44H57.194v-.894H59.07v-1.2l1,.081a.132.132,0,0,1,.137.124.2.2,0,0,1-.137.165v.826h1.953v.905Zm2.265,6.94a3.175,3.175,0,0,1-1.522.383c-.64,0-1.056-.361-1.056-1.165V16.716l.917.1c.053.011.139.031.139.113a.18.18,0,0,1-.121.147V19.2c0,.5.061.636.5.636a2.4,2.4,0,0,0,1.211-.566Z" transform="translate(-0.38 -0.397)"></path><path class="cls-4" d="M65.916,19.831c-.3.046-.6.082-.9.11a10.408,10.408,0,0,1-.623-3.857,20.764,20.764,0,0,1,.454-3.957c.266.064.543.138.812.213a1.951,1.951,0,0,1,.346.106c.055.021.109.042.108.111a.192.192,0,0,1-.155.16,16.418,16.418,0,0,0-.518,4.19,5.6,5.6,0,0,0,.089,1.308c.179-.5.354-1.02.532-1.524a9.19,9.19,0,0,0,.642.819,9.622,9.622,0,0,0-.79,2.321m4.412-4.389c0,.455,0,.911-.014,1.366a8.238,8.238,0,0,1-.19,1.688,3.778,3.778,0,0,1-1.309,2.191,10.971,10.971,0,0,0-.974-.552A4.042,4.042,0,0,0,69.25,16.73c.015-.416.014-.83.011-1.249a14.037,14.037,0,0,1-1.613.042c-.169-.006-.34-.022-.51-.029-.04-.368-.061-.733-.091-1.1a11.535,11.535,0,0,0,1.157.1c.341.013.673.015,1.013,0,0-.577-.046-1.146-.069-1.714-.016-.3-.04-.622-.082-.936.286.05.571.084.856.123a1.364,1.364,0,0,1,.355.064c.062.011.125.043.122.126a.185.185,0,0,1-.122.149c0,.687.037,1.379.039,2.068a6.352,6.352,0,0,0,1.6-.377c.012.385-.021.782-.009,1.166a9.118,9.118,0,0,1-1.577.277" transform="translate(-0.38 -0.397)"></path><path class="cls-4" d="M76.445,20.557c-.181.052-.36.089-.549.13-.086-.158-.559-.895-.559-.895,0-.032.036-.041.052-.041a5.7,5.7,0,0,0,1.332-.382,1.91,1.91,0,0,0,1.326-1.688,1.088,1.088,0,0,0-1.1-1.258c-1.044-.013-2,1.114-2.345,2.2-.294-.053-.6-.121-.893-.166a11.978,11.978,0,0,1-.087-1.591,20.609,20.609,0,0,1,.364-3.393l1.036.315a.126.126,0,0,1,.105.125.208.208,0,0,1-.136.167,12.713,12.713,0,0,0-.345,2.538,3.327,3.327,0,0,1,2.6-1.244,2.036,2.036,0,0,1,1.989,2.169c-.024,1.9-1.4,2.628-2.786,3.018m.514-6.739A8.835,8.835,0,0,0,75.083,12.1c.236-.268.455-.548.69-.817a6.594,6.594,0,0,1,2,1.686c-.28.278-.545.57-.815.848" transform="translate(-0.38 -0.397)"></path><path class="cls-4" d="M87.28,19.737c-.8,0-1.164-.608-1.164-1.5,0-.93.143-1.849.206-2.781.01-.136.01-.282.01-.418,0-.2-.027-.387-.242-.387-.518,0-1.761,1.2-2.057,1.705,0,1.326.015,2.688.071,4.016L83,20.5c0-1.1.01-2.216.01-3.324-.4.669-.815,1.3-1.217,1.954-.278-.292-.522-.627-.788-.941a16.9,16.9,0,0,0,1.951-3.011v-.5c-.5.1-.985.23-1.489.315-.061-.355-.115-.712-.2-1.057a8.98,8.98,0,0,0,1.657-.271c0-.721-.027-1.444-.056-2.154a6.378,6.378,0,0,1,1.14.124.142.142,0,0,1,.116.148.114.114,0,0,1-.072.115c-.026.511-.055,1.014-.062,1.517.159-.044.313-.118.474-.168.063.272.115.543.178.8-.16.2-.3.417-.455.639l.018.03A3.474,3.474,0,0,1,86.5,13.483c.6,0,.931.564.931,1.223a14.348,14.348,0,0,1-.1,1.579,16.631,16.631,0,0,0-.155,1.674v.032c-.009.23.018.563.278.563.556,0,.921-.9,1.145-1.4.134.481.269.961.394,1.445a1.978,1.978,0,0,1-1.71,1.139" transform="translate(-0.38 -0.397)"></path><path class="cls-4" d="M94.028,20.677c-.743,0-1.941-.316-1.941-1.452a1.221,1.221,0,0,1,1.288-1.182,1.329,1.329,0,0,1,1.235.975,2.517,2.517,0,0,1,.088.6,1.644,1.644,0,0,0,1.147-1.6,1.5,1.5,0,0,0-1.567-1.659c-1.35,0-2.13,1.291-2.972,2.363-.275-.294-.552-.585-.832-.877a22.9,22.9,0,0,0,3.391-4.575c-.713.174-1.43.314-2.146.465l-.2-1.278a2.3,2.3,0,0,0,.286.012A8.714,8.714,0,0,0,93,12.353a14.229,14.229,0,0,0,1.639-.306,5.246,5.246,0,0,0,.562-.182c.208.291.414.573.618.866a3.329,3.329,0,0,0-.268.238,8.641,8.641,0,0,0-.582.726c-.43.586-.83,1.194-1.244,1.789a3.058,3.058,0,0,1,.825-.1,2.267,2.267,0,0,1,2.38,2.436,2.687,2.687,0,0,1-2.9,2.853m-.761-1.768c-.17,0-.277.077-.277.293,0,.4.51.455.742.455-.045-.313-.135-.748-.465-.748" transform="translate(-0.38 -0.397)"></path><path class="cls-4" d="M42.081,33.178a10.653,10.653,0,0,0-2.024-1.211,1.575,1.575,0,0,1-.5,1.382,2.278,2.278,0,0,1-1.223.4c-.889-.013-2.233-.317-2.213-1.643A1.6,1.6,0,0,1,37.6,30.59a4.2,4.2,0,0,1,.709-.02,4.412,4.412,0,0,1,.624.061c.005-.335-.016-.67-.029-.993-.3.015-.6.022-.9.018-.69-.01-1.657-.077-1.641-1.154a2.026,2.026,0,0,1,.23-.866l.958-.048a2.516,2.516,0,0,0-.207.719c0,.335.371.34.566.343a5.862,5.862,0,0,0,.967-.029c-.027-.5-.027-1.014-.03-1.515a22.117,22.117,0,0,0-3.018.237c-.059-.369-.1-.733-.137-1.1,1.047-.067,2.1-.126,3.145-.151-.006-.324,0-.649,0-.983l.006-.45c.252.035.5.06.75.095.126.023.268.026.4.058.046.013.1.033.1.107a.175.175,0,0,1-.119.155c-.025.324-.029.637-.034.962.8-.032,1.595-.049,2.39-.061l0,1.068c-.8-.012-1.595-.025-2.382.006-.008.514,0,1.014.013,1.528a10.351,10.351,0,0,0,2.287-.447l-.062,1.192c-.735.113-1.461.207-2.2.259.006.429.015.868.036,1.3A10.456,10.456,0,0,1,42.7,32.162c-.2.342-.406.684-.615,1.016m-3.119-1.521a1.949,1.949,0,0,0-.794-.17c-.322,0-.944.122-.951.614s.581.638.905.642c.5.008.836-.229.845-.856,0-.074-.007-.156,0-.23" transform="translate(-0.38 -0.397)"></path><path class="cls-4" d="M50.052,32.81a5.009,5.009,0,0,1-2.549,1c-.19-.334-.342-.69-.547-1.015,1-.092,2.828-.418,2.828-1.966a1.056,1.056,0,0,0-1.171-1.076,2.682,2.682,0,0,0-1.576.639,3.793,3.793,0,0,0-.932,1.338l-.992-.533a8.616,8.616,0,0,0,1.2-3.587c-.35.022-.69.032-1.039.032h-.724c-.026-.389-.073-.765-.081-1.149a11.312,11.312,0,0,0,1.308.082c.212,0,.428,0,.642-.013a18.172,18.172,0,0,0,.1-1.985c.268.041.536.073.8.115a2.18,2.18,0,0,1,.358.062c.063.02.134.054.134.148a.26.26,0,0,1-.162.208c-.035.461-.061.92-.124,1.37a13.631,13.631,0,0,0,2.729-.544l-.017,1.225a25.184,25.184,0,0,1-2.881.387,13.276,13.276,0,0,1-.42,1.84,3.362,3.362,0,0,1,1.949-.564,1.923,1.923,0,0,1,1.995,2.11,2.482,2.482,0,0,1-.832,1.873" transform="translate(-0.38 -0.397)"></path><path class="cls-4" d="M59.173,31.993a6.358,6.358,0,0,1-3.424,1.444c-.27-.345-.52-.7-.8-1.015a10.034,10.034,0,0,0,2.064-.48A2.536,2.536,0,0,0,58.968,29.5c0-1.379-.713-1.84-1.762-1.84a7.976,7.976,0,0,0-3.078,1.024,7.382,7.382,0,0,1-1.154.407c-.043-.148-.434-1.337-.434-1.367,0-.106.113-.074.165-.074a7.167,7.167,0,0,0,2.2-.557,8.18,8.18,0,0,1,2.617-.563,2.615,2.615,0,0,1,2.612,2.866,3.45,3.45,0,0,1-.956,2.6m-1.092-5.761a11.048,11.048,0,0,0-.9-1.275l.676-.4a8,8,0,0,1,.867,1.263ZM59.3,25.9a9.309,9.309,0,0,0-.918-1.358l.692-.388a7.746,7.746,0,0,1,.858,1.328Z" transform="translate(-0.38 -0.397)"></path><path class="cls-4" d="M66.49,33.668a16.783,16.783,0,0,0-2.622-2.959,7.92,7.92,0,0,0-.759-.662,2.268,2.268,0,0,1-.434-.385.884.884,0,0,1-.165-.55,1.167,1.167,0,0,1,.4-.865c.419-.449.855-.865,1.261-1.322.609-.693,1.228-1.384,1.821-2.117.253.214.505.417.757.631a1.915,1.915,0,0,1,.289.244.138.138,0,0,1,.042.091c0,.142-.191.164-.287.142-.575.551-1.167,1.09-1.751,1.649-.243.233-.468.488-.713.722-.114.113-.244.213-.348.336a.656.656,0,0,0-.21.4.389.389,0,0,0,.157.306c.367.346.774.642,1.15.966a17.6,17.6,0,0,1,2.313,2.494c-.3.284-.6.588-.9.874" transform="translate(-0.38 -0.397)"></path><path class="cls-4" d="M71.394,31c-.305-.022-.617-.056-.915-.086a6.94,6.94,0,0,1-.354-2.37c.039-1.129.226-2.252.361-3.369.27.04.547.094.818.135.095.024.225.029.321.063a.111.111,0,0,1,.075.109.221.221,0,0,1-.112.154,14.55,14.55,0,0,0-.445,2.987c-.006.209,0,.419.006.629,0,.019-.009.074.023.076s.047-.085.057-.093c.126-.334.257-.651.392-.971l.505.752A9.26,9.26,0,0,0,71.394,31M74.932,25.6c-.009,1.224-.018,2.481-.06,3.715-.069,1.966-.489,3.8-2.086,4.7a4.924,4.924,0,0,0-.935-.568c-.025-.01-.053-.011-.051-.055s.046-.071.075-.091a3.507,3.507,0,0,0,.608-.4,4.781,4.781,0,0,0,1.31-3.669,41.248,41.248,0,0,0-.094-4.161,6.927,6.927,0,0,1,.819.115,3.405,3.405,0,0,1,.435.076.106.106,0,0,1,.082.121.388.388,0,0,1-.1.214" transform="translate(-0.38 -0.397)"></path><path class="cls-4" d="M84.109,29.391a.206.206,0,0,1-.127-.053c-.605.221-1.773.713-2.328.986v1.612l-.995-.01c.01-.146.01-.3.01-.481v-.587c-.673.335-1.011.764-1.011,1.245,0,.42.387.64,1.153.64a7.014,7.014,0,0,0,2.448-.418l-.035,1.225a6.477,6.477,0,0,1-2.11.3c-1.649,0-2.472-.555-2.472-1.678a2.12,2.12,0,0,1,.689-1.5,5.916,5.916,0,0,1,1.278-.9c-.016-.471-.151-.713-.395-.713a1.192,1.192,0,0,0-.866.4,8.1,8.1,0,0,0-.649.713c-.309.367-.5.619-.621.742-.151-.188-.386-.471-.7-.858a7.511,7.511,0,0,0,2.12-2.838c-.446.062-.942.1-1.482.135-.033-.4-.083-.765-.133-1.088a13.585,13.585,0,0,0,1.927-.106,9.33,9.33,0,0,0,.285-1.446l1.136.271a.126.126,0,0,1,.1.127c0,.061-.043.116-.134.157-.044.178-.119.449-.226.807a12.364,12.364,0,0,0,1.57-.389l-.092,1.155c-.463.1-1.086.209-1.858.322a6.63,6.63,0,0,1-.521,1.05,1.59,1.59,0,0,1,.479-.074c.514,0,.849.365,1,1.12.673-.376,1.438-.763,2.271-1.162l.386,1.173c0,.085-.033.126-.1.126" transform="translate(-0.38 -0.397)"></path></g></g><g class="cls-5"><rect class="cls-6" x="137.766" y="0.285" width="121.907" height="121.907"></rect><g class="cls-5"><path class="cls-4" d="M148.6,15.877a18.936,18.936,0,0,1-1.836.717q-1.206.4-1.521.546v-3.3a19.209,19.209,0,0,0,2.367-1.148,7.973,7.973,0,0,0,1.966-1.407h3.472V34.53H148.6Z" transform="translate(-0.38 -0.397)"></path><path class="cls-4" d="M155.516,31.4l5.625-8.695.344-.517a21.881,21.881,0,0,0,1.607-2.74,5.644,5.644,0,0,0,.517-2.425,2.869,2.869,0,0,0-.431-1.708,1.437,1.437,0,0,0-1.233-.588,1.694,1.694,0,0,0-1.665.918,5.734,5.734,0,0,0-.459,2.526v1.062h-4.305V18.087a8.031,8.031,0,0,1,1.536-5.18A5.8,5.8,0,0,1,161.858,11a6.137,6.137,0,0,1,4.578,1.592A6.184,6.184,0,0,1,168,17.111a7.674,7.674,0,0,1-.4,2.5,11.206,11.206,0,0,1-.947,2.095q-.546.918-1.693,2.611l-4.477,6.715H167.4v3.5H155.516Z" transform="translate(-0.38 -0.397)"></path><path class="cls-4" d="M230.179,63.944a20.1,20.1,0,0,0-15.2-3.735l-.3.07c-3.031.716-7.846,1.9-13.48,8.893-.032.039-.064.079-.094.119l-.072.087a.469.469,0,0,0-.093.272.475.475,0,0,0,.061.234l.131.215c.707,1.183,1.6,2.706,2.353,4.109a.362.362,0,0,1,.02.044.485.485,0,0,0,.43.264.474.474,0,0,0,.333-.135c.036-.046.071-.095.1-.144,5-6.917,8.935-7.872,11.6-8.5l.318-.075a14.559,14.559,0,0,1,10.421,2.68c2.958,2.335,4.459,6.051,4.459,11.044,0,8.374-4.073,11.65-7.491,12.923-5.295,1.979-10.372-.667-10.409-.687l-.228-.111c-2.909-1.262-7.249-3.889-11.34-12.1-8.245-16.56-15.142-18.119-19.705-19.153l-.244-.054a19.693,19.693,0,0,0-14.966,3.724c-2.964,2.364-6.494,6.96-6.494,15.429,0,5.16,1.06,8.567,3.784,12.151.6.817,6.7,8.662,18.509,6.4a17.734,17.734,0,0,0,7.264-3.374l2.6,2.344a.427.427,0,0,0,.6-.029.4.4,0,0,0,.1-.282v-.035L195.014,85v-.128a.413.413,0,0,0-.14-.307.389.389,0,0,0-.275-.1l-.08.008-.122.012-11.044,3.092-.2.033a.378.378,0,0,0-.211.123.418.418,0,0,0,.031.6l.129.12,2.475,2.234a11.529,11.529,0,0,1-4.053,1.716c-8.541,1.629-12.758-3.965-12.919-4.184l-.059-.082c-1.985-2.606-2.655-4.82-2.655-8.776,0-5.007,1.475-8.724,4.384-11.048A14.137,14.137,0,0,1,180.5,65.671l.248.055c3.74.847,8.864,2,15.921,16.182,3.665,7.36,8.257,12.172,14.034,14.71a20.408,20.408,0,0,0,8.8,2.039,17.51,17.51,0,0,0,6.128-1.086c3.349-1.25,11.139-5.521,11.139-18.182,0-8.464-3.583-13.07-6.59-15.445" transform="translate(-0.38 -0.397)"></path><path class="cls-4" d="M186.448,19.3a8.412,8.412,0,0,1-1.665.387c-.275-.332-.535-.689-.831-.993a12.625,12.625,0,0,0,2.138-.493,2.558,2.558,0,0,0,2.007-2.447,1.6,1.6,0,0,0-1.81-1.838c-1.494,0-2.9,1.056-4.368,1.421-.043-.148-.447-1.317-.447-1.371,0-.1.135-.062.2-.062a8.074,8.074,0,0,0,2.228-.543,8.425,8.425,0,0,1,2.712-.575,2.66,2.66,0,0,1,2.692,2.865c0,2.175-1.217,3.107-2.854,3.649" transform="translate(-0.38 -0.397)"></path><path class="cls-4" d="M195.973,20.255a17.319,17.319,0,0,0-2.7-3.044,7.938,7.938,0,0,0-.778-.68,2.2,2.2,0,0,1-.448-.4.9.9,0,0,1-.169-.565,1.211,1.211,0,0,1,.41-.889c.431-.461.878-.89,1.3-1.358.627-.711,1.263-1.424,1.872-2.176.26.219.518.427.779.648a1.848,1.848,0,0,1,.294.252.128.128,0,0,1,.047.094c0,.146-.2.165-.3.146-.592.564-1.2,1.116-1.8,1.694-.25.239-.481.5-.733.742-.117.116-.249.22-.357.346a.675.675,0,0,0-.217.417.406.406,0,0,0,.162.315c.377.355.8.657,1.182.994a17.814,17.814,0,0,1,2.379,2.563c-.313.291-.616.605-.929.9" transform="translate(-0.38 -0.397)"></path><path class="cls-4" d="M202.729,20.015c-.741,0-1.941-.3-1.941-1.4a1.209,1.209,0,0,1,1.29-1.14,1.323,1.323,0,0,1,1.235.939,2.59,2.59,0,0,1,.09.577,1.59,1.59,0,0,0,1.144-1.549,1.473,1.473,0,0,0-1.564-1.6c-1.352,0-2.132,1.243-2.973,2.279-.276-.283-.555-.564-.832-.848a22.179,22.179,0,0,0,3.391-4.412c-.716.165-1.432.3-2.147.449l-.195-1.235a2.077,2.077,0,0,0,.284.013,9.04,9.04,0,0,0,1.19-.1,14.965,14.965,0,0,0,1.639-.294c.188-.042.376-.116.563-.178.205.283.413.555.618.837a2.961,2.961,0,0,0-.268.231,7.472,7.472,0,0,0-.582.7c-.43.565-.833,1.15-1.245,1.725a3.161,3.161,0,0,1,.823-.094,2.232,2.232,0,0,1,2.382,2.353,2.646,2.646,0,0,1-2.9,2.752m-.758-1.706c-.172,0-.278.073-.278.281,0,.389.51.441.743.441-.046-.3-.135-.722-.465-.722" transform="translate(-0.38 -0.397)"></path><path class="cls-4" d="M215.686,20.6a7.407,7.407,0,0,1-2.746-1.079l.545-.616h-2.472l.53.575a.128.128,0,0,1-.114.135.318.318,0,0,1-.163-.051,7.56,7.56,0,0,1-2.452,1.006l-.672-.89a4.417,4.417,0,0,0,2.2-.775h-1.011V15h5.817v3.909h-1.065a5.406,5.406,0,0,0,2.282.679ZM208.2,14.68v-.816h3.481v-.323H209.2v-.765h2.48v-.344h-3.061v-.867h3.05v-.818l1.1.074a.136.136,0,0,1,.145.126.194.194,0,0,1-.145.179v.439H215.9v.867h-3.158v.344h2.452v.765h-2.452v.323h3.491v.816Zm5.923,1.026h-3.811v.355h3.811Zm.01,1.014h-3.821V17.1h3.821Zm0,1.046h-3.821v.375h3.821Z" transform="translate(-0.38 -0.397)"></path><path class="cls-4" d="M220.949,11.647c-.251.69-.52,1.379-.825,2.04v6.651h-1.037V15.369a3.955,3.955,0,0,1-.653.932l-.652-.795a10.682,10.682,0,0,0,2.128-4.653l1.191.49a.145.145,0,0,1,.088.127c0,.115-.169.167-.24.177m3.034,4.361v3.136h2.094v.943h-5.244v-.943H222.9V16.008h-2.264v-.93H222.9V12.986c-.593.094-1.193.168-1.783.232l-.4-.922a11.919,11.919,0,0,0,4.477-1.13L226,12.328a.153.153,0,0,1-.155.125.3.3,0,0,1-.158-.063c-.565.157-1.12.3-1.692.408v2.28h2.291v.93Z" transform="translate(-0.38 -0.397)"></path><path class="cls-4" d="M186.238,32.8a8.358,8.358,0,0,1-1.665.387c-.275-.336-.536-.69-.831-1a12.52,12.52,0,0,0,2.138-.49,2.562,2.562,0,0,0,2.006-2.447c0-1.38-.727-1.84-1.809-1.84-1.494,0-2.9,1.056-4.368,1.421-.043-.146-.447-1.319-.447-1.371,0-.1.135-.061.2-.061a8.076,8.076,0,0,0,2.228-.544,8.426,8.426,0,0,1,2.712-.576,2.662,2.662,0,0,1,2.692,2.866c0,2.175-1.217,3.107-2.854,3.65" transform="translate(-0.38 -0.397)"></path><path class="cls-4" d="M195.135,32.919a1.382,1.382,0,0,1-1.012.315,2.138,2.138,0,0,1-.876-.2c-.034-.407-.053-.8-.108-1.2a2.011,2.011,0,0,0,.984.3c.727,0,.717-2.365.717-2.949,0-.43.01-1.2-.5-1.2a2.39,2.39,0,0,0-.537.084,20.569,20.569,0,0,1-1.907,5.2c-.349-.17-.678-.387-1.027-.567a14.643,14.643,0,0,0,1.807-4.443c-.412.082-.823.176-1.226.294-.036-.138-.261-1.1-.261-1.141a.04.04,0,0,1,.044-.042c.082,0,.155.019.234.019a8.267,8.267,0,0,0,1.432-.177,17.615,17.615,0,0,0,.32-2.5c.288.074.558.155.835.24a1.955,1.955,0,0,1,.349.115c.044.021.107.042.107.105s-.072.116-.117.136c-.108.595-.222,1.191-.374,1.766a4.829,4.829,0,0,1,.537-.051,1.072,1.072,0,0,1,1.188.889,5.835,5.835,0,0,1,.172,1.589c0,.93-.135,2.792-.78,3.42m2.221-1.977c-.2-.3-.413-.585-.628-.876.259-.044.912-.2.912-.6a5.016,5.016,0,0,0-1.287-2.353c.314-.2.625-.408.938-.607a5.964,5.964,0,0,1,1.494,3.125c0,.839-.885,1.12-1.429,1.308" transform="translate(-0.38 -0.397)"></path><path class="cls-4" d="M202.778,33.995c-.333-.3-.663-.616-1.013-.888a4.317,4.317,0,0,0,2.577-1.819,3.324,3.324,0,0,0,.352-1.537c0-.931-.308-1.465-1.137-1.465a7.424,7.424,0,0,0-2.534,1.12c-.065-.158-.492-1.236-.492-1.328,0-.074.088-.064.125-.064a5.746,5.746,0,0,0,1.109-.3,6.138,6.138,0,0,1,2.085-.535c1.432,0,2.057,1.131,2.057,2.69a4.471,4.471,0,0,1-3.129,4.129m1.564-7.537a12.987,12.987,0,0,0-2.532-.943c.17-.377.332-.754.5-1.129a10.048,10.048,0,0,1,2.6.95c-.179.377-.361.754-.568,1.122" transform="translate(-0.38 -0.397)"></path><path class="cls-4" d="M215.581,34.1a7.4,7.4,0,0,1-2.747-1.08l.544-.615h-2.47l.53.576a.13.13,0,0,1-.117.136.352.352,0,0,1-.162-.053,7.432,7.432,0,0,1-2.449,1l-.673-.888a4.389,4.389,0,0,0,2.2-.773h-1.01V28.5h5.816v3.911h-1.065a5.451,5.451,0,0,0,2.283.681Zm-7.491-5.92v-.815h3.484V27.04h-2.48v-.762h2.48v-.345h-3.062v-.868h3.051V24.25l1.1.072a.136.136,0,0,1,.143.126.184.184,0,0,1-.143.177v.44H215.8v.868h-3.157v.345h2.452v.762h-2.452v.326h3.49v.815Zm5.926,1.025H210.2v.354h3.815Zm.007,1.016H210.2V30.6h3.822Zm0,1.043H210.2v.378h3.822Z" transform="translate(-0.38 -0.397)"></path><path class="cls-4" d="M220.742,25.149c-.252.69-.52,1.381-.825,2.039v6.651h-1.039V28.872a3.993,3.993,0,0,1-.652.93l-.654-.8a10.646,10.646,0,0,0,2.129-4.652l1.191.491a.144.144,0,0,1,.092.126c0,.115-.173.167-.242.178m3.032,4.36v3.137h2.094v.942h-5.243v-.942h2.066V29.509h-2.264v-.93h2.264V26.488c-.592.093-1.19.168-1.781.229l-.4-.92a11.857,11.857,0,0,0,4.475-1.13l.806,1.161a.147.147,0,0,1-.152.124.322.322,0,0,1-.16-.059c-.564.156-1.12.3-1.692.406v2.28h2.29v.93Z" transform="translate(-0.38 -0.397)"></path></g></g><g class="cls-7"><rect class="cls-8" x="275.672" width="121.907" height="121.907"></rect><g class="cls-7"><path class="cls-4" d="M286.506,15.592a18.936,18.936,0,0,1-1.836.717q-1.206.4-1.521.545v-3.3a18.923,18.923,0,0,0,2.367-1.148A7.975,7.975,0,0,0,287.482,11h3.472V34.245h-4.448Z" transform="translate(-0.38 -0.397)"></path><path class="cls-4" d="M299.908,28.735h-7v-3.5L298.961,11h4.965V25.378h2.324v3.357h-2.324v5.51h-4.018Zm0-3.357V15.506l-3.53,9.872Z" transform="translate(-0.38 -0.397)"></path><path class="cls-4" d="M369.8,89.473C368.26,87.39,358.3,74.7,344.346,74.7c-12.121,0-25.087,10.994-25.087,10.994s-4.871-9.969-14.834-10.927c-.059,0-.122-.013-.188-.013h-.061a.406.406,0,0,0-.381.394,1.092,1.092,0,0,0,.156.364c1.284,2.133,4.562,8.2,4.562,14.259,0,6.079-3.3,12.162-4.569,14.284l-.086.135a.393.393,0,0,0-.063.21.4.4,0,0,0,.368.393l.108-.009a.385.385,0,0,0,.1-.01c9.994-.931,14.883-10.931,14.883-10.931s12.966,10.995,25.087,10.995c13.958,0,23.914-12.694,25.456-14.771.042-.057.076-.107.106-.144a.412.412,0,0,0,.033-.152.4.4,0,0,0-.033-.152c-.03-.043-.064-.091-.106-.143m-17.695,1.9a4.073,4.073,0,1,1,4.079-4.075,4.076,4.076,0,0,1-4.079,4.075" transform="translate(-0.38 -0.397)"></path><path class="cls-4" d="M318.344,63.319a.444.444,0,0,1,.106-.11.418.418,0,0,1,.22-.075.388.388,0,0,1,.273.112.1.1,0,0,0,.018.017c7.609,7.253,15.591,1.374,17.252,0l.163-.156a.417.417,0,0,1,.151-.025.461.461,0,0,1,.161.025l.162.156c1.66,1.374,9.64,7.253,17.251,0a.073.073,0,0,1,.015-.017.379.379,0,0,1,.269-.112.4.4,0,0,1,.221.075.438.438,0,0,1,.113.11c1.474,1.452,7.847,6.939,14.592,1.079a.392.392,0,0,0,.118-.281V61.331a.4.4,0,0,0-.4-.4.467.467,0,0,0-.086.017c-.062.03-.128.065-.2.1a12.272,12.272,0,0,1-14.333-2.01c-.054-.052-.112-.1-.169-.16a.318.318,0,0,0-.171-.04.24.24,0,0,0-.12.03.339.339,0,0,0-.2.149c-1.738,1.324-9.72,6.728-16.828.1l-.1-.1a.409.409,0,0,0-.288-.111.4.4,0,0,0-.278.111l-.11.1c-7.1,6.63-15.093,1.226-16.829-.1a.333.333,0,0,0-.2-.149.277.277,0,0,0-.128-.03.315.315,0,0,0-.165.04c-.055.056-.114.108-.174.16a12.269,12.269,0,0,1-14.331,2.01c-.072-.036-.141-.071-.2-.1a.433.433,0,0,0-.077-.017.4.4,0,0,0-.4.4v2.786a.387.387,0,0,0,.116.281c6.739,5.86,13.119.373,14.595-1.079" transform="translate(-0.38 -0.397)"></path><path class="cls-4" d="M304.11,50.839a.352.352,0,0,0-.076-.017.4.4,0,0,0-.4.4V54a.391.391,0,0,0,.117.288c6.738,5.854,13.117.369,14.594-1.081a.37.37,0,0,1,.106-.113.406.406,0,0,1,.22-.072.39.39,0,0,1,.271.107.06.06,0,0,0,.02.017c7.611,7.264,15.591,1.381,17.252,0l.163-.149a.35.35,0,0,1,.152-.03.368.368,0,0,1,.158.03l.164.149c1.66,1.381,9.64,7.264,17.251,0,0,0,.011-.009.015-.017a.39.39,0,0,1,.27-.107.4.4,0,0,1,.221.072.416.416,0,0,1,.112.113c1.475,1.45,7.848,6.935,14.592,1.081a.4.4,0,0,0,.116-.288V51.226a.37.37,0,0,0-.482-.387c-.062.035-.127.069-.2.1a12.26,12.26,0,0,1-14.333-2.012c-.055-.051-.112-.1-.17-.162a.42.42,0,0,0-.17-.037.628.628,0,0,0-.12.019.445.445,0,0,0-.2.158c-1.739,1.325-9.72,6.728-16.827.1l-.1-.1a.441.441,0,0,0-.288-.12.422.422,0,0,0-.278.12l-.111.1c-7.1,6.63-15.093,1.227-16.829-.1a.426.426,0,0,0-.2-.158.718.718,0,0,0-.127-.019.449.449,0,0,0-.167.037,2,2,0,0,1-.171.162,12.259,12.259,0,0,1-14.332,2.012c-.072-.035-.142-.069-.2-.1" transform="translate(-0.38 -0.397)"></path><path class="cls-4" d="M318.09,16.528a16.8,16.8,0,0,0-1.512-1.023l.61-1.013a8.644,8.644,0,0,1,1.44,1.206Zm-.346,4.583a.847.847,0,0,1,.036.214c0,.061-.036.128-.091.128s-.975-.684-1.084-.758a16.043,16.043,0,0,0,1.277-3.5l.856.917c-.284,1.025-.62,2.014-.994,3M318.526,14a10,10,0,0,0-1.41-1.023l.7-1.045a9.6,9.6,0,0,1,1.343,1.28Zm5.647,4.028c-.007.523-.036,1.044-.09,1.566h.648v.949h-.859a2.141,2.141,0,0,1-1.021,1.171l-.8-.606a1.662,1.662,0,0,0,.757-.565h-3.494c.11-.83.174-1.672.256-2.515h-.7v-.916h.757l.138-1.875a3.968,3.968,0,0,1-.438.522l-.695-.587a8.6,8.6,0,0,0,1.66-3.518l1.141.459a.154.154,0,0,1,.1.128.2.2,0,0,1-.192.181c-.091.213-.2.417-.292.63H324.7V14h-4.06a6.642,6.642,0,0,1-.446.7h4.031c-.009.8-.018,1.61-.035,2.408h.838v.916Zm-3.664,0-.138,1.589h.866l.1-1.589Zm.189-2.44-.117,1.524h.8l.082-1.524Zm1.577,2.44-.1,1.589h.883a9.358,9.358,0,0,0,.119-1.589Zm.931-2.44h-.792l-.091,1.524h.876c.007-.2.007-.406.007-.619Z" transform="translate(-0.38 -0.397)"></path><path class="cls-4" d="M330.916,21.073c-.254-.31-.481-.643-.734-.943,1.29-.407,2.481-1,2.481-3.032a2.83,2.83,0,0,0-1.7-2.917c-.222,1.853-.655,4.8-1.937,5.9a1.173,1.173,0,0,1-.76.344,1.2,1.2,0,0,1-.872-.624,4.185,4.185,0,0,1-.523-2.2c0-2.626,1.657-4.483,3.6-4.483,1.8,0,3.255,1.406,3.255,3.9a3.83,3.83,0,0,1-2.807,4.052m-2.873-4.943a4.664,4.664,0,0,0-.228,1.47c0,.439.073,1.577.531,1.577.162,0,.3-.2.4-.344.766-1.03,1.093-3.228,1.175-4.632a3.094,3.094,0,0,0-1.878,1.929" transform="translate(-0.38 -0.397)"></path><path class="cls-4" d="M335.592,21.415v-.836h2a6.925,6.925,0,0,0-.435-.711c.138-.094.287-.178.429-.262h-.965v-2.1H342.2v2.1h-1.05l.385.158a.138.138,0,0,1,.087.114c0,.106-.114.146-.184.146-.105.177-.2.377-.306.555h2.086v.836Zm.052-5.1h7.48v.848h-7.48Zm.711-.378V12.705h1.732V11.9l.947.075a.132.132,0,0,1,.139.125.2.2,0,0,1-.147.177v.429h.742V11.9l.938.075a.134.134,0,0,1,.141.125.193.193,0,0,1-.141.177v.429h1.77v3.229ZM338.1,13.5h-.795v.511h.795Zm.009,1.213h-.8v.521h.8Zm3.084,3.525H337.59v.626H341.2Zm-2.925,1.368c.1.324.209.639.29.973h1.591l.272-.973Zm1.5-6.106h-.751v.511h.751Zm.011,1.213h-.762v.521h.762Zm1.707-1.213h-.807v.511h.807Zm0,1.213h-.807v.521h.807Z" transform="translate(-0.38 -0.397)"></path><path class="cls-4" d="M349.054,20.5a1.345,1.345,0,0,1-.994.313,2.088,2.088,0,0,1-.863-.2c-.035-.4-.052-.8-.106-1.2a1.949,1.949,0,0,0,.969.3c.712,0,.7-2.35.7-2.932,0-.428.007-1.2-.494-1.2a2.245,2.245,0,0,0-.527.085,20.721,20.721,0,0,1-1.875,5.171c-.344-.168-.67-.385-1.013-.562a14.591,14.591,0,0,0,1.777-4.422c-.4.083-.809.177-1.206.29-.035-.135-.255-1.093-.255-1.132s.017-.043.045-.043c.078,0,.149.021.229.021a8.2,8.2,0,0,0,1.409-.176,17.9,17.9,0,0,0,.315-2.487c.284.071.547.157.82.239a1.989,1.989,0,0,1,.345.113c.043.024.105.042.105.105s-.071.116-.116.136c-.105.594-.22,1.185-.369,1.757a4.735,4.735,0,0,1,.528-.05,1.058,1.058,0,0,1,1.172.884,5.938,5.938,0,0,1,.168,1.582c0,.925-.134,2.776-.769,3.4m2.184-1.964c-.192-.3-.4-.584-.616-.876.255-.042.9-.2.9-.592a5.043,5.043,0,0,0-1.267-2.342c.305-.2.614-.4.922-.6a5.971,5.971,0,0,1,1.47,3.11c0,.832-.871,1.112-1.409,1.3" transform="translate(-0.38 -0.397)"></path><path class="cls-4" d="M358.2,14.816c.557,1.072,1.068,2.176,1.581,3.28l-.753.734a3.3,3.3,0,0,0-2.254-1.093c-.52,0-1.221.236-1.221,1,0,1.052,1.11,1.155,1.758,1.155a7.447,7.447,0,0,0,1.512-.164c-.017.388-.042.765-.066,1.143a8.954,8.954,0,0,1-1.385.081c-1.229,0-2.853-.242-2.853-2.134,0-1.532,1.153-1.959,2.23-1.959a4.314,4.314,0,0,1,1.418.274c-.147-.368-.324-.725-.5-1.082-.147-.286-.283-.583-.437-.868a11.69,11.69,0,0,1-2.654.675c-.112-.368-.256-.725-.376-1.084a7.84,7.84,0,0,0,2.493-.52,11.936,11.936,0,0,0-.854-1.481.136.136,0,0,1-.12-.123.128.128,0,0,1,.078-.112c.325-.155.666-.266.989-.388.334.541.606,1.113.9,1.694a10.153,10.153,0,0,0,1.646-1.011c.172.369.324.747.487,1.115a10.078,10.078,0,0,1-1.622.867" transform="translate(-0.38 -0.397)"></path><path class="cls-4" d="M369,16.74a.249.249,0,0,1-.135-.052c-.644.22-1.89.712-2.478.983v1.61l-1.058-.01c.011-.146.011-.3.011-.481V18.2c-.717.334-1.074.763-1.074,1.244,0,.417.41.639,1.225.639a7.887,7.887,0,0,0,2.6-.42l-.036,1.224a7.357,7.357,0,0,1-2.245.3c-1.755,0-2.63-.552-2.63-1.672a2.067,2.067,0,0,1,.732-1.506,6.357,6.357,0,0,1,1.36-.9c-.017-.472-.161-.711-.42-.711a1.3,1.3,0,0,0-.922.4,8.525,8.525,0,0,0-.689.71c-.332.367-.537.619-.663.744-.158-.189-.411-.47-.741-.857a7.554,7.554,0,0,0,2.253-2.835c-.474.062-1,.1-1.574.136-.035-.4-.089-.762-.142-1.088a15.922,15.922,0,0,0,2.049-.1,8.727,8.727,0,0,0,.3-1.444l1.209.273c.07.021.108.061.108.124s-.046.116-.144.156c-.045.178-.126.452-.242.806a14.445,14.445,0,0,0,1.674-.387l-.1,1.15c-.492.106-1.155.209-1.977.325a6.409,6.409,0,0,1-.555,1.046,1.828,1.828,0,0,1,.51-.074c.547,0,.9.367,1.065,1.12.715-.377,1.53-.764,2.415-1.162l.413,1.171c0,.085-.036.126-.107.126" transform="translate(-0.38 -0.397)"></path><path class="cls-4" d="M322.932,30.248v2.01c0,1.641-.459,2.238-1.843,2.455l-.627-.878c.993-.146,1.422-.294,1.422-1.589,0-.669,0-1.329-.009-2h-4.653v-.983h4.644V27.779l1.066.074a.137.137,0,0,1,.151.127.21.21,0,0,1-.151.177v1.108h2.3v.983Zm.876-1.6V27.289h-5.216V28.64H317.6V26.316h3V25.051l1.109.084a.121.121,0,0,1,.135.126.2.2,0,0,1-.143.168v.887h3.15v2.332Zm-3.757,4.538a15.351,15.351,0,0,0-1.748-1.818c.252-.271.494-.565.754-.838a23.016,23.016,0,0,1,1.682,1.914Z" transform="translate(-0.38 -0.397)"></path><path class="cls-4" d="M329.713,34.589a4.81,4.81,0,0,0-.482-.857.224.224,0,0,1-.045-.094c0-.032.045-.04.062-.053a8.028,8.028,0,0,0,1.326-.167,1.982,1.982,0,0,0,1.78-2,1.305,1.305,0,0,0-1.468-1.443,3.02,3.02,0,0,0-2.345,1.465c-.358.471-.681.962-.994,1.463-.3-.271-.607-.552-.911-.836a30.717,30.717,0,0,0,2.56-3.524,9.237,9.237,0,0,0,.769-1.382c-.234.055-.466.126-.7.19-.421.114-.851.24-1.279.335-.065-.408-.128-.816-.207-1.225a20.237,20.237,0,0,0,2.937-.511,4.369,4.369,0,0,0,.615-.2,7.011,7.011,0,0,1,.565.891c0,.1-.107.135-.17.145a17.914,17.914,0,0,0-1.825,2.405,4.373,4.373,0,0,1,1.162-.178,2.307,2.307,0,0,1,2.443,2.541c0,2.227-2.254,2.95-3.795,3.033" transform="translate(-0.38 -0.397)"></path><path class="cls-4" d="M337.819,34.85c-.331-.3-.661-.616-1.012-.887a4.32,4.32,0,0,0,2.577-1.821,3.317,3.317,0,0,0,.35-1.538c0-.93-.3-1.463-1.136-1.463a7.414,7.414,0,0,0-2.533,1.118c-.062-.157-.492-1.234-.492-1.328,0-.074.088-.063.124-.063a5.918,5.918,0,0,0,1.11-.3,6.132,6.132,0,0,1,2.086-.535c1.431,0,2.057,1.13,2.057,2.691a4.469,4.469,0,0,1-3.131,4.128m1.565-7.541a13.148,13.148,0,0,0-2.532-.94c.169-.375.333-.752.5-1.13a9.947,9.947,0,0,1,2.595.953c-.179.377-.359.752-.564,1.117" transform="translate(-0.38 -0.397)"></path></g></g><g class="cls-9"><rect class="cls-10" x="413.438" y="0.481" width="121.907" height="121.907"></rect><g class="cls-9"><path class="cls-4" d="M424.215,16.073a19.122,19.122,0,0,1-1.837.717q-1.2.4-1.521.545v-3.3a18.974,18.974,0,0,0,2.368-1.147,8,8,0,0,0,1.966-1.407h3.472V34.726h-4.448Z" transform="translate(-0.38 -0.397)"></path><path class="cls-4" d="M433.513,34.253a4.274,4.274,0,0,1-1.808-2.4,13.062,13.062,0,0,1-.488-3.874h4.305A8.24,8.24,0,0,0,435.9,30.9a1.653,1.653,0,0,0,2.726.33,3.279,3.279,0,0,0,.5-1.564q.1-.99.1-2.855a9.724,9.724,0,0,0-.388-3.171,1.537,1.537,0,0,0-1.593-1.048q-1.55,0-1.98,2.095h-3.817l.316-13.2h10.7V15.3h-7.059l-.258,5.137a2.991,2.991,0,0,1,1.377-.818,6.5,6.5,0,0,1,2.095-.33,3.96,3.96,0,0,1,3.587,1.923,10.152,10.152,0,0,1,1.2,5.4,18.07,18.07,0,0,1-.487,4.577,5.194,5.194,0,0,1-1.851,2.87,6.277,6.277,0,0,1-3.889,1.047,6.78,6.78,0,0,1-3.673-.846" transform="translate(-0.38 -0.397)"></path><path class="cls-4" d="M460.262,83h3.609a.271.271,0,0,1,.271.271v8.917a.271.271,0,0,1-.271.271h-3.608a.271.271,0,0,1-.271-.271V83.274A.27.27,0,0,1,460.262,83Z"></path><path class="cls-4" d="M503.884,96.69H444.413a.279.279,0,0,0-.272.28V100.6a.271.271,0,0,0,.272.268h59.471a.273.273,0,0,0,.272-.268V96.97a.281.281,0,0,0-.272-.28" transform="translate(-0.38 -0.397)"></path><path class="cls-4" d="M503.884,103.915H444.413a.27.27,0,0,0-.272.267v3.646a.273.273,0,0,0,.272.269h59.471a.275.275,0,0,0,.272-.269v-3.646a.272.272,0,0,0-.272-.267" transform="translate(-0.38 -0.397)"></path><path class="cls-4" d="M492.567,73.53a8.8,8.8,0,0,0-5.145-1.938,6.873,6.873,0,0,0-4.775,2.029.511.511,0,0,0-.159.373v.324a.522.522,0,0,0,.169.407.479.479,0,0,0,.419.1.574.574,0,0,0,.112-.028.805.805,0,0,0,.3-.189,4.812,4.812,0,0,1,2.382-.5A9,9,0,0,1,492,76.678l.055.049a.718.718,0,0,0,.517.215.7.7,0,0,0,.5-.21l.048-.05a9.025,9.025,0,0,1,6.137-2.572,4.816,4.816,0,0,1,2.388.5.88.88,0,0,0,.328.2.741.741,0,0,0,.349.01.509.509,0,0,0,.374-.49V74.04a.512.512,0,0,0-.159-.368,6.892,6.892,0,0,0-4.834-2.083,8.731,8.731,0,0,0-5.134,1.941" transform="translate(-0.38 -0.397)"></path><path class="cls-4" d="M488.876,49.827a.5.5,0,0,0-.259.314l-.06.2a.506.506,0,0,0,.078.447.489.489,0,0,0,.368.2.189.189,0,0,0,.074,0,.644.644,0,0,0,.288-.073,1.479,1.479,0,0,1,.36-.04,5.16,5.16,0,0,1,4.249,2.775l.02.038a.613.613,0,0,0,.38.3.763.763,0,0,0,.19.029.624.624,0,0,0,.3-.074l.04-.019a5.919,5.919,0,0,1,2.653-.656,4.037,4.037,0,0,1,2.712.868.7.7,0,0,0,.2.222,1.543,1.543,0,0,0,.193.092.491.491,0,0,0,.088.013.314.314,0,0,0,.054,0,.508.508,0,0,0,.235-.059.5.5,0,0,0,.253-.3l.05-.176a.448.448,0,0,0,.02-.144.481.481,0,0,0-.069-.256,4.472,4.472,0,0,0-4.034-2.424,6.351,6.351,0,0,0-2.14.4,5.2,5.2,0,0,0-4.011-2.247,4.953,4.953,0,0,0-2.23.564" transform="translate(-0.38 -0.397)"></path><path class="cls-4" d="M476.31,58.977l.017.268a.509.509,0,0,0,.638.461.683.683,0,0,0,.087-.028.65.65,0,0,0,.257-.189,4.351,4.351,0,0,1,2.268-.515,7.352,7.352,0,0,1,4.7,1.778l.041.043a.7.7,0,0,0,.459.173h.044a.7.7,0,0,0,.466-.224l.04-.046a7.147,7.147,0,0,1,5.214-2.409,3.538,3.538,0,0,1,1.55.283.77.77,0,0,0,.309.161.71.71,0,0,0,.218.014.689.689,0,0,0,.125-.03.5.5,0,0,0,.337-.511l-.013-.233a.507.507,0,0,0-.179-.354,5.831,5.831,0,0,0-3.8-1.5,7.083,7.083,0,0,0-4.451,1.841,7.428,7.428,0,0,0-3.968-1.317,5.676,5.676,0,0,0-4.22,1.949.531.531,0,0,0-.138.381" transform="translate(-0.38 -0.397)"></path><path class="cls-4" d="M446.215,63.751a6.448,6.448,0,0,1,6.447-6.447c.14,0,.276.012.414.02a8.718,8.718,0,1,1,16.531,4.464,9.745,9.745,0,0,1-2.114,19.259c-.393,0-13.01-.076-13.01-.076a6.894,6.894,0,0,1-5.021-11.628,6.442,6.442,0,0,1-3.247-5.592" transform="translate(-0.38 -0.397)"></path><path class="cls-4" d="M466.88,20.94c-.254-.31-.481-.643-.734-.943,1.29-.407,2.481-1,2.481-3.032a2.829,2.829,0,0,0-1.7-2.917c-.222,1.853-.655,4.8-1.937,5.9a1.169,1.169,0,0,1-.76.345,1.2,1.2,0,0,1-.872-.624,4.185,4.185,0,0,1-.523-2.2c0-2.627,1.657-4.483,3.6-4.483,1.795,0,3.255,1.406,3.255,3.9a3.83,3.83,0,0,1-2.807,4.052M464.007,16a4.664,4.664,0,0,0-.228,1.47c0,.439.073,1.577.531,1.577.162,0,.3-.205.4-.344.766-1.03,1.093-3.228,1.175-4.632A3.094,3.094,0,0,0,464.007,16" transform="translate(-0.38 -0.397)"></path><path class="cls-4" d="M471.556,21.282v-.836h2a6.819,6.819,0,0,0-.435-.711c.138-.094.287-.178.429-.263h-.965v-2.1h5.579v2.1h-1.05l.385.158a.14.14,0,0,1,.087.115c0,.106-.114.146-.184.146-.105.177-.2.377-.306.555h2.086v.836Zm.052-5.1h7.48v.848h-7.48Zm.711-.378v-3.23h1.732v-.8l.947.075a.132.132,0,0,1,.139.125.2.2,0,0,1-.147.177v.428h.742v-.8l.938.075a.134.134,0,0,1,.141.125.193.193,0,0,1-.141.177v.428h1.77V15.8Zm1.749-2.434h-.795v.511h.795Zm.009,1.213h-.8V15.1h.8Zm3.085,3.525h-3.608v.626h3.608Zm-2.926,1.367c.1.325.209.64.29.974h1.591l.272-.974Zm1.5-6.1h-.751v.511h.751Zm.011,1.213h-.762V15.1h.762Zm1.707-1.213h-.807v.511h.807Zm0,1.213h-.807V15.1h.807Z" transform="translate(-0.38 -0.397)"></path><path class="cls-4" d="M485.018,20.362a1.345,1.345,0,0,1-.994.313,2.088,2.088,0,0,1-.863-.2c-.035-.405-.052-.8-.106-1.2a1.949,1.949,0,0,0,.969.3c.712,0,.7-2.35.7-2.932,0-.428.007-1.2-.494-1.2a2.2,2.2,0,0,0-.527.086,20.721,20.721,0,0,1-1.875,5.171c-.344-.168-.67-.385-1.013-.562a14.6,14.6,0,0,0,1.777-4.422c-.4.082-.809.177-1.206.29-.035-.135-.255-1.093-.255-1.132s.017-.044.045-.044c.078,0,.149.022.229.022a8.1,8.1,0,0,0,1.409-.177,17.881,17.881,0,0,0,.315-2.486c.284.071.547.157.82.239a2.017,2.017,0,0,1,.345.113c.043.023.105.042.105.105s-.071.115-.116.136c-.105.594-.22,1.185-.369,1.757a4.735,4.735,0,0,1,.528-.05,1.058,1.058,0,0,1,1.172.883,5.95,5.95,0,0,1,.168,1.583c0,.925-.134,2.776-.769,3.4M487.2,18.4c-.192-.3-.4-.583-.616-.875.255-.042.9-.2.9-.592a5.043,5.043,0,0,0-1.267-2.342c.305-.2.614-.4.922-.6a5.967,5.967,0,0,1,1.47,3.11c0,.832-.871,1.112-1.409,1.3" transform="translate(-0.38 -0.397)"></path><path class="cls-4" d="M494.266,14.788c.557,1.072,1.068,2.176,1.581,3.28l-.753.734a3.3,3.3,0,0,0-2.254-1.093c-.52,0-1.221.236-1.221,1,0,1.052,1.11,1.155,1.758,1.155a7.465,7.465,0,0,0,1.513-.164c-.018.388-.043.765-.067,1.143a8.954,8.954,0,0,1-1.385.081c-1.229,0-2.853-.242-2.853-2.134,0-1.532,1.153-1.959,2.23-1.959a4.31,4.31,0,0,1,1.418.274c-.147-.368-.324-.725-.5-1.083-.147-.285-.283-.582-.436-.867a11.712,11.712,0,0,1-2.655.675c-.111-.368-.256-.725-.376-1.084a7.84,7.84,0,0,0,2.493-.52,11.936,11.936,0,0,0-.854-1.481.136.136,0,0,1-.12-.123.128.128,0,0,1,.078-.112c.325-.155.666-.266.989-.388.334.54.606,1.113.9,1.694a10.089,10.089,0,0,0,1.646-1.012c.172.37.325.748.487,1.116a10.158,10.158,0,0,1-1.622.867" transform="translate(-0.38 -0.397)"></path><path class="cls-4" d="M458.686,30.115v2.009c0,1.642-.459,2.239-1.843,2.456l-.627-.878c.993-.146,1.421-.294,1.421-1.589,0-.67,0-1.329-.008-2h-4.653v-.983h4.644V27.646l1.066.074a.137.137,0,0,1,.151.127.21.21,0,0,1-.151.177v1.108h2.3v.983Zm.876-1.6V27.156h-5.216v1.351h-.994V26.182h3V24.918l1.11.084a.121.121,0,0,1,.135.126.2.2,0,0,1-.143.168v.886h3.15v2.333Zm-3.757,4.538a15.351,15.351,0,0,0-1.748-1.818c.252-.271.494-.565.754-.838a23.016,23.016,0,0,1,1.682,1.914Z" transform="translate(-0.38 -0.397)"></path><path class="cls-4" d="M465.467,34.456a4.81,4.81,0,0,0-.482-.857.224.224,0,0,1-.045-.094c0-.032.045-.04.062-.053a8.136,8.136,0,0,0,1.326-.167,1.983,1.983,0,0,0,1.78-2,1.305,1.305,0,0,0-1.468-1.443,3.02,3.02,0,0,0-2.345,1.465c-.358.471-.681.962-.994,1.463-.3-.271-.607-.552-.911-.836a30.717,30.717,0,0,0,2.56-3.524,9.287,9.287,0,0,0,.769-1.382c-.234.055-.466.126-.7.19-.42.114-.85.24-1.278.335-.066-.408-.128-.816-.208-1.225a20.19,20.19,0,0,0,2.937-.511,4.381,4.381,0,0,0,.616-.2,7.011,7.011,0,0,1,.565.891c0,.1-.107.135-.17.145a18,18,0,0,0-1.826,2.4,4.386,4.386,0,0,1,1.163-.178,2.307,2.307,0,0,1,2.443,2.541c0,2.227-2.254,2.95-3.8,3.033" transform="translate(-0.38 -0.397)"></path><path class="cls-4" d="M473.573,34.716c-.332-.3-.661-.615-1.012-.886a4.317,4.317,0,0,0,2.577-1.822,3.31,3.31,0,0,0,.35-1.537c0-.93-.3-1.463-1.136-1.463a7.414,7.414,0,0,0-2.533,1.118c-.062-.158-.492-1.234-.492-1.328,0-.074.088-.063.124-.063a5.918,5.918,0,0,0,1.11-.3,6.132,6.132,0,0,1,2.086-.535c1.431,0,2.057,1.13,2.057,2.691a4.466,4.466,0,0,1-3.131,4.127m1.565-7.54a13.082,13.082,0,0,0-2.532-.94c.169-.375.333-.752.5-1.13a9.947,9.947,0,0,1,2.595.953c-.179.377-.359.752-.564,1.117" transform="translate(-0.38 -0.397)"></path><path class="cls-4" d="M460.785,17.492a4.855,4.855,0,0,1-1.233.138,1.917,1.917,0,0,1-.878-.138.194.194,0,0,1-.144.2v.828h1.87v.836h-1.889v.971h2.247v.849h-5.566v-.849h2.317v-.971h-1.78v-.836h1.754V17.292l1.028.1a.978.978,0,0,1-.3-.807V15.6h-.617a3.583,3.583,0,0,1-1.415,2.5l-.58-.461a2.285,2.285,0,0,1-1,1.475l-.645-.669v2.888h-.994V12.118h2.8v.826c-.3.649-.6,1.3-.92,1.934a2.608,2.608,0,0,1,.84,2.1,2.77,2.77,0,0,1-.036.387A2.565,2.565,0,0,0,456.65,15.6h-1.137V14.71h1.978V13.8H455.88v-.888h1.6V11.835l1.055.084a.128.128,0,0,1,.143.125.186.186,0,0,1-.143.177v.691h1.87V13.8h-1.887v.91H460.7V15.6h-1.549c0,.2-.007.4-.007.594,0,.483.152.565.538.565a2.922,2.922,0,0,0,1.207-.324Zm-6.838-4.466v2.061c.26-.68.51-1.359.714-2.061Zm0,2.175v3.107a1.6,1.6,0,0,0,.8-1.5,1.811,1.811,0,0,0-.8-1.611" transform="translate(-0.38 -0.397)"></path><path class="cls-4" d="M502.331,21.138c-1.252.012-2.47-.522-2.487-2.207,0-.252.026-.5.045-.753-.654-.229-1.533-.522-1.549-1.5a3.838,3.838,0,0,1,.394-1.338c.339.073.68.176,1.011.25a1.981,1.981,0,0,0-.439.921c.011.365.518.522.761.585.143-.825.3-1.643.447-2.469-.161.2-.312.4-.464.6A16.786,16.786,0,0,0,498.616,14q.3-.469.619-.942a12.754,12.754,0,0,1,1.332,1.151,13.554,13.554,0,0,0,.287-2.091c.287.052.582.135.869.208a2.222,2.222,0,0,1,.357.1c.063.02.126.052.126.135a.407.407,0,0,1-.17.271c-.064.23-.117.482-.171.711-.107.493-.214.984-.331,1.477-.169.772-.348,1.557-.483,2.341.358.064.724.064,1.082.1l-.161,1.011a7.062,7.062,0,0,1-1.054-.083,2.538,2.538,0,0,0-.028.46,1.163,1.163,0,0,0,1.3,1.224c.76-.01,1.1-.471,1.091-1.337a4.437,4.437,0,0,0-1.314-2.626,7.985,7.985,0,0,0,.983-.481,4.926,4.926,0,0,1,1.5,3.4,2.015,2.015,0,0,1-2.12,2.123" transform="translate(-0.38 -0.397)"></path></g></g></g></g></svg>