<svg xmlns="http://www.w3.org/2000/svg" xmlns:xlink="http://www.w3.org/1999/xlink" width="535.206" height="122.413" viewBox="0 0 535.206 122.413"><defs><style>.cls-1,.cls-4{fill:none;}.cls-2{clip-path:url(#clip-path);}.cls-3{fill:#fff;}.cls-4{stroke:#fff;stroke-linecap:round;stroke-miterlimit:10;stroke-width:15.164px;}.cls-5{fill:#c21324;}.cls-6{clip-path:url(#clip-path-3);}.cls-7{fill:#8e0f2b;}.cls-8{clip-path:url(#clip-path-5);}.cls-9{fill:#ee6018;}.cls-10{clip-path:url(#clip-path-7);}.cls-11{fill:#da076d;}</style><clipPath id="clip-path" transform="translate(-0.52 -0.542)"><rect class="cls-1" width="122.936" height="122.936"></rect></clipPath><clipPath id="clip-path-3" transform="translate(-0.52 -0.542)"><rect class="cls-1" x="137.766" y="0.506" width="122.936" height="122.936"></rect></clipPath><clipPath id="clip-path-5" transform="translate(-0.52 -0.542)"><rect class="cls-1" x="275.532" y="0.506" width="122.936" height="122.936"></rect></clipPath><clipPath id="clip-path-7" transform="translate(-0.52 -0.542)"><rect class="cls-1" x="413.299" y="0.506" width="122.936" height="122.936"></rect></clipPath></defs><g id="&#x30EC;&#x30A4;&#x30E4;&#x30FC;_2" data-name="&#x30EC;&#x30A4;&#x30E4;&#x30FC; 2"><g id="&#x30EC;&#x30A4;&#x30E4;&#x30FC;_1-2" data-name="&#x30EC;&#x30A4;&#x30E4;&#x30FC; 1"><g class="cls-2"><g class="cls-2"><path class="cls-3" d="M11.286,15.737a19.3,19.3,0,0,1-1.837.718q-1.2.4-1.521.545V13.7A19.213,19.213,0,0,0,10.3,12.552a7.973,7.973,0,0,0,1.966-1.407h3.472V34.391H11.286Z" transform="translate(-0.52 -0.542)"></path><path class="cls-3" d="M94.555,58.69a3.389,3.389,0,1,1,3.393,3.391,3.393,3.393,0,0,1-3.393-3.391" transform="translate(-0.52 -0.542)"></path><path class="cls-3" d="M101.906,63.388a4.518,4.518,0,0,1,4.1,4.5v9.4a1.314,1.314,0,1,1-2.628,0V69.217c0-.3-.088-.712-.642-.712-.382,0-.462.405-.476.664V93.362a1.89,1.89,0,0,1-3.779,0V79.42a.512.512,0,0,0-.536-.553h0a.519.519,0,0,0-.546.553V93.362a1.888,1.888,0,1,1-3.775,0V69.169c-.013-.259-.095-.664-.475-.664-.557,0-.641.41-.641.712v8.072a1.314,1.314,0,1,1-2.628,0v-9.4a4.52,4.52,0,0,1,4.109-4.5,1.823,1.823,0,0,1,.248-.021h7.409a2,2,0,0,1,.259.021" transform="translate(-0.52 -0.542)"></path><path class="cls-3" d="M74.394,60.471a3.21,3.21,0,1,0-3.208,3.211,3.21,3.21,0,0,0,3.208-3.211" transform="translate(-0.52 -0.542)"></path><path class="cls-3" d="M64.717,67.743l-2.669,8.688s-.476,1.593.875,1.99,1.753-1.156,1.753-1.156l2.152-7.251s.117-.558.536-.437.262.716.262.716L63.88,83.882h3.484v9.733a1.672,1.672,0,0,0,3.344,0V83.882h.951v9.733a1.673,1.673,0,0,0,3.346,0V83.882h3.482L74.745,70.293s-.158-.6.26-.716.537.437.537.437l2.152,7.251s.409,1.555,1.751,1.156.877-1.99.877-1.99l-2.669-8.688s-.954-2.511-3.066-2.511h-6.8c-2.112,0-3.067,2.511-3.067,2.511" transform="translate(-0.52 -0.542)"></path><path class="cls-3" d="M55.165,60.471a3.21,3.21,0,1,0-3.209,3.211,3.212,3.212,0,0,0,3.209-3.211" transform="translate(-0.52 -0.542)"></path><path class="cls-3" d="M45.486,67.743l-2.667,8.688s-.477,1.593.875,1.99,1.752-1.156,1.752-1.156L47.6,70.014s.117-.558.536-.437.261.716.261.716L44.651,83.882h3.483v9.733a1.673,1.673,0,0,0,3.345,0V83.882h.951v9.733a1.673,1.673,0,0,0,3.345,0V83.882h3.484L55.517,70.293s-.159-.6.258-.716.538.437.538.437l2.15,7.251s.409,1.555,1.752,1.156.876-1.99.876-1.99l-2.669-8.688s-.951-2.511-3.064-2.511h-6.8c-2.11,0-3.068,2.511-3.068,2.511" transform="translate(-0.52 -0.542)"></path><path class="cls-3" d="M85.176,78.439A2.672,2.672,0,1,0,82.5,75.764a2.67,2.67,0,0,0,2.672,2.675" transform="translate(-0.52 -0.542)"></path><path class="cls-3" d="M78.769,86.741a.927.927,0,0,0,.389,1.264.892.892,0,0,0,1.146-.373L81.757,83s.252-.311.252.01V93.916h.006a1.371,1.371,0,0,0,2.742,0v-4.3s-.08-.608.411-.608.415.608.415.608v4.3a1.374,1.374,0,0,0,2.747,0V83.01c0-.321.17-.092.17-.092l1.138,3.173a7.625,7.625,0,0,0,.647,1.48,1.014,1.014,0,0,0,1.324-.548,1,1,0,0,0-.108-.975l.009-.01c-.032-.1-1.7-4.2-1.9-4.77-.6-1.76-1.7-1.745-2.755-1.774s-1.689,0-1.689,0-.675-.027-2.07.014-1.832.757-3.368,4.71c-.219.569-.961,2.411-.971,2.521Z" transform="translate(-0.52 -0.542)"></path><path class="cls-3" d="M26.493,58.69A3.39,3.39,0,1,0,23.1,62.081a3.394,3.394,0,0,0,3.394-3.391" transform="translate(-0.52 -0.542)"></path><path class="cls-3" d="M19.141,63.388a4.52,4.52,0,0,0-4.1,4.5v9.4a1.315,1.315,0,0,0,2.63,0V69.217c0-.3.088-.712.642-.712.382,0,.461.405.478.664V93.362a1.887,1.887,0,1,0,3.774,0V79.42a.516.516,0,0,1,.539-.553h0a.517.517,0,0,1,.544.553V93.362a1.888,1.888,0,1,0,3.776,0V69.169c.011-.259.1-.664.476-.664.557,0,.64.41.64.712v8.072a1.315,1.315,0,0,0,2.629,0v-9.4a4.519,4.519,0,0,0-4.108-4.5,1.839,1.839,0,0,0-.249-.021H19.4a1.968,1.968,0,0,0-.259.021" transform="translate(-0.52 -0.542)"></path><line class="cls-4" x1="15.665" y1="78.113" x2="12.654" y2="94.071"></line><path class="cls-3" d="M32.775,77.039a.973.973,0,0,0-1.8.515,1.775,1.775,0,0,0,.095.427l2.694,4.875a1.726,1.726,0,0,1,.165.643V93.968h.005a1.316,1.316,0,1,0,2.631,0V89.837s-.074-.585.4-.585.4.585.4.585v4.131a1.319,1.319,0,0,0,2.637,0V83.5a1.742,1.742,0,0,1,.163-.643l2.49-4.5a4.393,4.393,0,0,0,.3-.8.973.973,0,0,0-1.8-.515l-.011,0c-.078.067-1.326,2.288-1.737,2.7a1.079,1.079,0,0,1-.825.39H35.348a1.077,1.077,0,0,1-.826-.39c-.417-.411-1.659-2.632-1.738-2.7Z" transform="translate(-0.52 -0.542)"></path><path class="cls-3" d="M36.965,78.439a2.672,2.672,0,1,0-2.671-2.675,2.67,2.67,0,0,0,2.671,2.675" transform="translate(-0.52 -0.542)"></path><polygon class="cls-3" points="36.45 81.648 39.47 83.851 40.905 89.136 36.45 89.136 31.991 89.136 33.429 83.851 36.45 81.648"></polygon><path class="cls-3" d="M35.842,14.437a6.579,6.579,0,0,1-1.178-.751,3.217,3.217,0,0,1-.117.645c-.245.866-1.216.918-1.878.942l-.4-.751c.335,0,1.032,0,1.187-.433a1.925,1.925,0,0,0,.081-.384H32.281a4.334,4.334,0,0,1-1.632,1.62h4.467v3.938H34.047a4.352,4.352,0,0,0,2.147.771l-.6.985A9.407,9.407,0,0,1,32.805,19.8l.571-.539H30.921l.544.485a.268.268,0,0,1,.1.151c0,.082-.1.114-.154.114a.246.246,0,0,1-.147-.042,10.087,10.087,0,0,1-2.473,1.07l-.6-.923a4.921,4.921,0,0,0,2.119-.855h-.906v-3.3a4.6,4.6,0,0,1-.741.286l-.527-.845a4.2,4.2,0,0,0,2.783-1.7H29.552a4.822,4.822,0,0,1-1.007.562l-.724-.729a4.818,4.818,0,0,0,2.61-2.286l1.1.361a.134.134,0,0,1,.092.136c0,.139-.147.19-.237.2a5.739,5.739,0,0,1-.923.973h3.3a11.018,11.018,0,0,1-1.024-1.1l.97-.582a6.277,6.277,0,0,0,2.81,2.231Zm-1.758,1.629H30.359v.4h3.725Zm.008,1.036H30.359v.4h3.733Zm0,1.018H30.359v.391h3.733Z" transform="translate(-0.52 -0.542)"></path><path class="cls-3" d="M38.347,11.905h7.368V20.9H38.347Zm6.3.975H39.37v7.068h5.276Zm-.735,5.957a8.818,8.818,0,0,1-1.4-2.073v2.909h-.941V16.794a6.852,6.852,0,0,1-1.515,2.023l-.679-.71a6.5,6.5,0,0,0,1.913-2.71H39.734V14.51h1.8V13.122l.951.087c.083.009.171.021.171.148,0,.062-.072.126-.117.146V14.51H44.3V15.4H42.779a7.44,7.44,0,0,0,1.857,2.689Z" transform="translate(-0.52 -0.542)"></path><path class="cls-3" d="M54.908,16.233a.263.263,0,0,1-.135-.052c-.643.219-1.889.711-2.48.981v1.61l-1.055-.008c.008-.146.008-.3.008-.481V17.7c-.718.333-1.074.762-1.074,1.243,0,.419.411.638,1.226.638a13.547,13.547,0,0,0,2.608-.186l.014,1.17a10.919,10.919,0,0,1-2.3.124c-1.753,0-2.632-.552-2.632-1.673a2.064,2.064,0,0,1,.734-1.5,6.451,6.451,0,0,1,1.361-.9c-.016-.469-.161-.71-.42-.71a1.3,1.3,0,0,0-.923.4,7.862,7.862,0,0,0-.689.712c-.331.365-.536.617-.663.742-.162-.189-.412-.47-.742-.857A7.571,7.571,0,0,0,50,14.057c-.476.062-1.005.1-1.578.136-.037-.395-.089-.764-.142-1.087A15.313,15.313,0,0,0,50.331,13a8.349,8.349,0,0,0,.3-1.442l1.21.271a.125.125,0,0,1,.106.126c0,.062-.044.114-.141.156-.045.179-.127.45-.244.8a14.022,14.022,0,0,0,1.676-.386l-.1,1.149c-.492.106-1.155.21-1.978.325a6.588,6.588,0,0,1-.557,1.046,1.837,1.837,0,0,1,.51-.073c.549,0,.907.366,1.067,1.119.716-.377,1.531-.764,2.418-1.161l.413,1.171c0,.084-.036.126-.109.126" transform="translate(-0.52 -0.542)"></path><path class="cls-3" d="M32.382,27.2c-.437.125-.867.23-1.3.313a21.606,21.606,0,0,1-1.953,4.9c-.332-.166-.664-.365-.986-.563a17.055,17.055,0,0,0,1.791-4.215,9.106,9.106,0,0,1-1.334.113c-.044-.364-.1-.73-.144-1.107a3.668,3.668,0,0,0,.494.022,8.152,8.152,0,0,0,1.245-.086,11.2,11.2,0,0,0,.24-1.807c.422.063.835.115,1.247.209-.108.481-.215.974-.36,1.453a8.926,8.926,0,0,0,1.076-.358c0,.37-.011.745-.011,1.122m2.5,6.4A7.6,7.6,0,0,0,33.7,32.519c.006.116,0,.23,0,.343-.04,1.08-.74,1.371-1.547,1.371A2.548,2.548,0,0,1,31.3,34.1a1.591,1.591,0,0,1-1.055-1.485,1.56,1.56,0,0,1,1.634-1.588,4.308,4.308,0,0,1,.733.061c-.01-.491-.027-.983-.008-1.475a2.13,2.13,0,0,1,.133-.71h.806c.053,0,.316-.042.311.084a.066.066,0,0,1-.01.042,1.32,1.32,0,0,0-.185.637c-.021.554,0,1.1.019,1.652a6.416,6.416,0,0,1,1.9,1.245c-.219.356-.447.711-.692,1.034m-2.228-1.5a1.506,1.506,0,0,0-.64-.115c-.341,0-.767.1-.786.6s.494.7.846.7c.331,0,.575-.074.592-.523.008-.219,0-.439-.012-.659m2.393-3.5a5.5,5.5,0,0,0-2.177-1.2l.519-1.045a5.514,5.514,0,0,1,2.231,1.2Z" transform="translate(-0.52 -0.542)"></path><path class="cls-3" d="M41.589,34.278a17.23,17.23,0,0,0-2.627-3.1,8.13,8.13,0,0,0-.763-.7,2.175,2.175,0,0,1-.44-.407A.915.915,0,0,1,37.6,29.5a1.2,1.2,0,0,1,.431-.88c.44-.45.9-.868,1.33-1.33.642-.7,1.293-1.394,1.919-2.131.255.224.509.439.764.663a1.932,1.932,0,0,1,.291.258.136.136,0,0,1,.042.094c0,.148-.2.166-.3.142-.6.552-1.225,1.091-1.837,1.654-.257.233-.495.489-.75.726a4.654,4.654,0,0,0-.366.336.686.686,0,0,0-.226.413.4.4,0,0,0,.157.317c.366.364.779.677,1.156,1.02A18.323,18.323,0,0,1,42.542,33.4c-.321.286-.633.591-.953.877" transform="translate(-0.52 -0.542)"></path><path class="cls-3" d="M48.6,29.73a2.452,2.452,0,0,0-.8,2.245c.167,1.022,1.4,1.162,2.044,1.162.206,0,.422-.011.637-.031-.1.4-.215.782-.314,1.169h-.189c-1.263,0-3.071-.226-3.233-2.175a3.561,3.561,0,0,1,.742-2.689,18.536,18.536,0,0,0-3.14.729c-.058-.4-.145-.79-.224-1.178a8.063,8.063,0,0,0,1.663-.394,11.857,11.857,0,0,0,2.169-2.177,14.538,14.538,0,0,1-1.886.051c0-.368,0-.739-.024-1.1a11.734,11.734,0,0,0,2.84-.017,2.735,2.735,0,0,0,.713-.254c.182.331.361.671.522,1.01a24.483,24.483,0,0,0-2.72,2.445c1.329-.171,2.662-.292,3.99-.38-.016.419-.014.842-.037,1.259a4.68,4.68,0,0,0-2.749.325" transform="translate(-0.52 -0.542)"></path><path class="cls-3" d="M55.877,34.676c-.337-.308-.675-.629-1.033-.91a4.381,4.381,0,0,0,2.633-1.86,4.393,4.393,0,0,0,.373-1.653c.063-.949-.211-1.514-1.059-1.571a7.574,7.574,0,0,0-2.655.969c-.052-.165-.418-1.295-.412-1.391.005-.073.1-.056.133-.055a5.782,5.782,0,0,0,1.15-.233,6.287,6.287,0,0,1,2.16-.4c1.459.1,2.02,1.294,1.914,2.885a4.773,4.773,0,0,1-3.2,4.222m1.6-7.844a13.475,13.475,0,0,0-2.586-.98c.174-.391.336-.782.511-1.175a9.948,9.948,0,0,1,2.648.991c-.182.392-.364.783-.573,1.164" transform="translate(-0.52 -0.542)"></path><rect class="cls-5" width="121.907" height="121.907"></rect><path class="cls-3" d="M16.837,28.881h-7v-3.5L15.89,11.145h4.964V25.523h2.325v3.358H20.854v5.51H16.837Zm0-3.358V15.651l-3.53,9.872Z" transform="translate(-0.52 -0.542)"></path><polygon class="cls-3" points="54.026 65.385 32.061 52.703 32.061 93.731 54.026 100.358 54.026 65.385"></polygon><polygon class="cls-3" points="56.441 65.469 56.441 100.372 78.548 93.726 78.548 52.704 56.441 65.469"></polygon><polygon class="cls-3" points="91.239 93.003 90.594 93.003 93.194 102.086 95.789 93.003 95.144 93.003 95.789 93.003 95.789 56.501 95.144 56.501 94.499 56.501 93.815 56.501 92.522 56.501 91.884 56.501 91.239 56.501 90.592 56.501 90.592 93.003 91.239 93.003"></polygon><polygon class="cls-3" points="83.266 54.465 80.911 52.605 80.911 94.843 56.506 102.73 55.377 102.73 55.154 102.73 54.026 102.73 29.729 95.942 29.729 52.605 27.373 54.465 27.373 97.594 53.914 104.941 55.154 104.941 55.377 104.941 56.616 104.941 81.103 97.167 83.266 96.531 83.266 54.465"></polygon><path class="cls-3" d="M96.31,52.207a2.6,2.6,0,1,0-5.2,0v2.8h5.2Z" transform="translate(-0.52 -0.542)"></path><path class="cls-3" d="M35.156,13.288l.01,1.128h-.95V13.257h-.6a2.952,2.952,0,0,1-.984,1.933l-.76-.533c.771-.626.787-1.221.787-2.236,0-.388-.016-.775-.033-1.162l.821.063a8.08,8.08,0,0,0,1.773-.473l.725.881c0,.084-.09.115-.145.115a.379.379,0,0,1-.179-.063c-.653.125-1.315.2-1.977.261,0,.146,0,.283-.008.429H36.83v.816Zm3.777.094v1.034H37.9V13.328H37.2a2.233,2.233,0,0,1-.843,1.349h2.568v4.089H37.867a4.832,4.832,0,0,0,2.194.753l-.662.986a11.391,11.391,0,0,1-2.837-1.2c.2-.19.421-.336.61-.536H34.816c.079.1.545.536.545.619a.114.114,0,0,1-.124.1.364.364,0,0,1-.108-.022,9.682,9.682,0,0,1-2.613,1.006l-.572-.858a4.3,4.3,0,0,0,2.163-.849h-.971V14.677h2.942c-.179-.1-.348-.227-.519-.343a1.591,1.591,0,0,0,.735-1.558c0-.513-.011-1.036-.037-1.549l.825.064a6.171,6.171,0,0,0,1.762-.461l.824.848c.035.041.1.093.1.156,0,.084-.116.1-.161.1a.465.465,0,0,1-.233-.064c-.707.085-1.414.158-2.121.188,0,.157,0,.3-.007.461h2.844v.868ZM37.86,15.421H34.081v.427H37.86Zm.007,1.088H34.081v.408h3.786Zm0,1.076H34.081V18h3.786Z" transform="translate(-0.52 -0.542)"></path><path class="cls-3" d="M45.9,19.812c-.278-.3-.526-.627-.8-.92,1.413-.4,2.719-.972,2.719-2.959a2.748,2.748,0,0,0-1.869-2.844c-.243,1.81-.717,4.686-2.121,5.751a1.361,1.361,0,0,1-.833.335,1.332,1.332,0,0,1-.957-.606,3.731,3.731,0,0,1-.574-2.144,4.116,4.116,0,0,1,3.947-4.372,3.5,3.5,0,0,1,3.57,3.806A3.8,3.8,0,0,1,45.9,19.812m-3.149-4.82a4.07,4.07,0,0,0-.25,1.433c0,.428.08,1.537.581,1.537.181,0,.331-.2.439-.335.842-1,1.2-3.147,1.288-4.517a3.232,3.232,0,0,0-2.058,1.882" transform="translate(-0.52 -0.542)"></path><path class="cls-3" d="M50.707,12.776v-.953h3.13V10.8l1.121.074A.128.128,0,0,1,55.1,11a.226.226,0,0,1-.152.178v.646H58.18v.953Zm5.735,7.592-.679-.849c.625-.124,1.163-.208,1.163-1.117V16.487H52v3.64H50.985V15.673h7v2.8a1.643,1.643,0,0,1-1.54,1.893M52.03,13.13h4.815v2.144H52.03Zm.574,3.828h3.742v2.311H52.6Zm3.232-3.065H53.005v.651h2.831ZM55.387,17.7H53.544v.784h1.843Z" transform="translate(-0.52 -0.542)"></path><path class="cls-3" d="M61.783,19.824a.952.952,0,0,1-.7-.305,5.471,5.471,0,0,1-1.05-3.445,17,17,0,0,1,.181-2.872c.044-.366.089-.723.148-1.081a7.31,7.31,0,0,1,1.268.468.131.131,0,0,1,.065.113c0,.115-.1.181-.182.205a10.9,10.9,0,0,0-.345,2.111,10.709,10.709,0,0,0-.019,1.33,5.268,5.268,0,0,0,.218,1.4c.06.2.2.674.42.668.43-.011.966-1.4,1.151-1.821l.564,1.335c-.267.7-1.013,1.879-1.721,1.9m4.368-1.7a9.526,9.526,0,0,0-1.516-4.416c.372-.177.715-.384,1.086-.552A11.281,11.281,0,0,1,67.3,17.584c-.379.2-.76.374-1.149.543" transform="translate(-0.52 -0.542)"></path><path class="cls-3" d="M73.713,12.1a14.261,14.261,0,0,1-1.09,1.966h.58v.846H72.057c-.133.167-.258.335-.4.5H72.89v.722a9.7,9.7,0,0,1-.966,1.026v.261c.491-.083.992-.167,1.485-.283l-.081.963c-.447.127-.9.2-1.351.292v.617a1.492,1.492,0,0,1-1.262,1.633l-.661-.764c.77-.22.929-.366.929-1.318-.4.094-.814.178-1.216.272-.008.063-.064.177-.125.177s-.082-.041-.1-.094l-.412-1.065c.607-.074,1.216-.181,1.816-.294,0-.334-.018-.68-.018-1.016l.547.033a2.536,2.536,0,0,0,.339-.47h-.823a7.041,7.041,0,0,1-1.585,1.2l-.616-.711A7.326,7.326,0,0,0,70.885,14.9h-1.87V14.03h1.5v-.9H69.365v-.96H70.51v-1.3l1.064.1a.1.1,0,0,1,.108.1.241.241,0,0,1-.134.19v.92h1.293l-.613.6a13.09,13.09,0,0,0,.589-1.568l.978.6a.2.2,0,0,1,.105.168c0,.115-.125.125-.187.115m-2.184,1.014v.93a9.473,9.473,0,0,0,.555-.93Zm5.208,7.3a7.573,7.573,0,0,1-1.548-1.746,6.822,6.822,0,0,1-2.209,1.861l-.654-.815a4.568,4.568,0,0,0,2.264-1.944,10.377,10.377,0,0,1-.7-2.082,4.557,4.557,0,0,1-.36.575l-.617-.668a11.873,11.873,0,0,0,1.416-4.718l1.134.357a.2.2,0,0,1,.117.175c0,.1-.133.18-.2.2-.124.491-.259.991-.41,1.473h2.246v.932H76.73a10.183,10.183,0,0,1-.923,3.774,6.312,6.312,0,0,0,1.709,1.768Zm-2.092-6.4-.092.23a11.723,11.723,0,0,0,.62,2.476,10.711,10.711,0,0,0,.5-2.706Z" transform="translate(-0.52 -0.542)"></path><path class="cls-3" d="M84.28,12.827c.546.639,1.126,1.236,1.646,1.9l-.8.735a8.247,8.247,0,0,0-.728-.92c-1.842.168-3.694.219-5.548.333l-.214-1.013h.923a.515.515,0,0,0,.348-.146,5.229,5.229,0,0,0,.7-.891H78.336v-.9h3.277V10.852l1.26.083c.064,0,.108.074.108.148,0,.092-.125.178-.186.208v.636h3.3v.9ZM83.573,20.4l-.646-.775c.6-.1.967-.219.967-1.024H80.466v1.715h-1.01V15.232h5.486V18.81a1.391,1.391,0,0,1-1.369,1.59m-3.115-4.372v.47h3.436l.011-.47Zm3.447,1.244H80.458v.513h3.447Zm-1.774-4.445c-.377.356-.733.753-1.136,1.078.9-.031,1.816-.094,2.72-.146-.161-.147-.313-.313-.464-.471.259-.145.518-.293.769-.461Z" transform="translate(-0.52 -0.542)"></path><path class="cls-3" d="M94.634,16.1a.239.239,0,0,1-.131-.052c-.647.217-1.891.711-2.48.981v1.611l-1.057-.01c.01-.145.01-.3.01-.48v-.585c-.717.333-1.075.762-1.075,1.243,0,.419.412.637,1.226.637a7.918,7.918,0,0,0,2.605-.417L93.7,20.254a7.454,7.454,0,0,1-2.248.3c-1.754,0-2.632-.552-2.632-1.674a2.075,2.075,0,0,1,.734-1.5,6.458,6.458,0,0,1,1.361-.9c-.017-.471-.162-.712-.421-.712a1.3,1.3,0,0,0-.921.4,7.993,7.993,0,0,0-.689.708c-.332.368-.538.619-.663.745-.161-.19-.411-.471-.744-.858a7.544,7.544,0,0,0,2.257-2.834c-.474.062-1,.106-1.575.136-.035-.4-.09-.763-.144-1.086a15.307,15.307,0,0,0,2.049-.106,8.574,8.574,0,0,0,.305-1.445l1.207.274a.125.125,0,0,1,.108.125c0,.062-.043.114-.143.156-.045.179-.125.451-.24.8a14.2,14.2,0,0,0,1.672-.385l-.1,1.149c-.492.106-1.155.21-1.977.326a6.463,6.463,0,0,1-.557,1.045,1.8,1.8,0,0,1,.51-.073c.546,0,.906.367,1.065,1.119.716-.377,1.532-.764,2.417-1.161l.411,1.171c0,.084-.034.126-.108.126" transform="translate(-0.52 -0.542)"></path><path class="cls-3" d="M39.633,31.868a13.1,13.1,0,0,0-1.217-.9,5.548,5.548,0,0,1-1.843,2.647L35.643,33a4.534,4.534,0,0,0,1.824-2.517,6.573,6.573,0,0,0-1.672-.63,11.074,11.074,0,0,1-.432,1.087c-.384.866-.868,1.746-1.78,1.746-.751,0-1.278-.726-1.278-1.629a2.269,2.269,0,0,1,1.654-2.2,3.853,3.853,0,0,1,1.092-.1,17.2,17.2,0,0,0,.654-2.57l-1.907.335-.207-1.248h.1a12.34,12.34,0,0,0,3.016-.392,6.489,6.489,0,0,0,.439.5c-.189.661-.4,1.312-.592,1.972-.152.5-.294,1-.466,1.49a6.514,6.514,0,0,1,1.675.545,9.831,9.831,0,0,0,.3-2.174c.358.248.715.488,1.057.759a12.046,12.046,0,0,1-.332,1.89,10.76,10.76,0,0,1,1.36.792c-.16.4-.331.815-.51,1.214M33.316,31c0,.272.1.511.338.511a.449.449,0,0,0,.377-.2,5.686,5.686,0,0,0,.725-1.6c-.626.056-1.44.369-1.44,1.281" transform="translate(-0.52 -0.542)"></path><path class="cls-3" d="M46.281,33.485c-1.19,0-1.1-1.269-1.1-2.257v-.976c0-.29.008-.641-.323-.641a.917.917,0,0,0-.241.042c-1.343.39-1.853,2.47-2.275,3.779-.356-.194-.7-.39-1.055-.587.367-1.019.779-2.007,1.2-3.006.473-1.113.938-2.238,1.422-3.35.269-.618.518-1.246.8-1.855a10.915,10.915,0,0,1,1.129.58.109.109,0,0,1,.061.1.144.144,0,0,1-.15.131c-.6,1.041-1.137,2.145-1.684,3.214-.053.1-.106.2-.161.29a2.551,2.551,0,0,1,1.191-.391c.867,0,1.138.668,1.138,1.564,0,.537-.011,1.061-.011,1.6,0,.27.036.641.34.641a1.922,1.922,0,0,0,1.128-.661,6.109,6.109,0,0,0,.912-1.359c.143.5.284.979.413,1.473a3.334,3.334,0,0,1-2.738,1.669" transform="translate(-0.52 -0.542)"></path><path class="cls-3" d="M54.611,26.681c-.438.125-.867.231-1.306.313A21.63,21.63,0,0,1,51.353,31.9c-.332-.167-.665-.365-.985-.564a17.039,17.039,0,0,0,1.791-4.215,8.993,8.993,0,0,1-1.334.113c-.045-.363-.1-.73-.144-1.107a3.638,3.638,0,0,0,.493.022,8.279,8.279,0,0,0,1.245-.085,11.091,11.091,0,0,0,.241-1.807c.421.062.834.114,1.245.209-.107.481-.213.973-.358,1.453a9.152,9.152,0,0,0,1.075-.358c0,.369-.011.745-.011,1.121m2.5,6.4A7.551,7.551,0,0,0,55.925,32c.006.116,0,.231,0,.344-.04,1.079-.739,1.37-1.547,1.37a2.583,2.583,0,0,1-.847-.134,1.591,1.591,0,0,1-1.053-1.486,1.56,1.56,0,0,1,1.634-1.588,4.3,4.3,0,0,1,.732.061c-.009-.491-.026-.982-.009-1.475a2.214,2.214,0,0,1,.134-.71h.807c.053,0,.314-.042.31.084a.057.057,0,0,1-.01.042,1.335,1.335,0,0,0-.185.638c-.02.554,0,1.1.019,1.652a6.363,6.363,0,0,1,1.9,1.244,12.25,12.25,0,0,1-.691,1.035m-2.227-1.506a1.512,1.512,0,0,0-.642-.114c-.34,0-.766.1-.784.595s.494.7.845.7c.33,0,.575-.074.591-.523.009-.219,0-.439-.01-.66m2.392-3.5a5.5,5.5,0,0,0-2.177-1.2l.519-1.044a5.5,5.5,0,0,1,2.23,1.2Z" transform="translate(-0.52 -0.542)"></path><path class="cls-3" d="M61.445,33.4c-.327.032-.651.075-.987.116a13.427,13.427,0,0,1-.469-4.031,25.456,25.456,0,0,1,.469-4.536l.787.181a2.518,2.518,0,0,1,.389.1.131.131,0,0,1,.1.138.147.147,0,0,1-.146.138,20.586,20.586,0,0,0-.525,4.707c0,.385.019.761.019,1.146.162-.482.316-.974.487-1.456.227.2.454.417.678.622a9.887,9.887,0,0,0-.8,2.877m5.851-.306a7.322,7.322,0,0,1-1.652.092c-1.292-.04-2.5-.247-2.654-2.19.3-.224.61-.462.922-.678,0,1.1.524,1.6,1.367,1.626a5.814,5.814,0,0,0,2.038-.242c-.007.464-.014.921-.021,1.392m-.226-5.934a7.087,7.087,0,0,0-2.095-.126,9.708,9.708,0,0,0-1.449.247c-.038-.382-.064-.856-.112-1.238a11.231,11.231,0,0,1,2.052-.244,7.763,7.763,0,0,1,1.707.084c-.034.423-.058.854-.1,1.277" transform="translate(-0.52 -0.542)"></path></g></g><g class="cls-6"><rect class="cls-7" x="138.186" y="0.366" width="121.907" height="121.907"></rect><g class="cls-6"><path class="cls-3" d="M148.25,28.041a7.739,7.739,0,0,1,.689-3.386,4.483,4.483,0,0,1,2.037-2.124,5.692,5.692,0,0,1-1.722-2.08,6.971,6.971,0,0,1-.66-3.171,6.2,6.2,0,0,1,1.521-4.463,5.747,5.747,0,0,1,4.362-1.593,5.684,5.684,0,0,1,4.334,1.579,6.14,6.14,0,0,1,1.492,4.391,7.567,7.567,0,0,1-.631,3.271,5.21,5.21,0,0,1-1.694,2.066,4.451,4.451,0,0,1,2.038,2.181,8.364,8.364,0,0,1,.689,3.53,7.718,7.718,0,0,1-1.493,5.051,5.8,5.8,0,0,1-4.735,1.808q-6.227,0-6.227-7.06m7.734,2.741a7.308,7.308,0,0,0,.387-2.569,7.784,7.784,0,0,0-.387-2.726,1.628,1.628,0,0,0-3.013.014,7.787,7.787,0,0,0-.388,2.712,7.283,7.283,0,0,0,.388,2.569,1.623,1.623,0,0,0,3.013,0m.129-13.5a4.165,4.165,0,0,0-.4-2,1.318,1.318,0,0,0-1.234-.732,1.379,1.379,0,0,0-1.262.732,3.934,3.934,0,0,0-.431,2q0,3.586,1.693,3.587,1.637,0,1.636-3.587" transform="translate(-0.52 -0.542)"></path><path class="cls-3" d="M222.9,60.879,210.449,72.721a2.059,2.059,0,0,0-.711,1.778v33.188a.711.711,0,0,0,.711.708h12.858a.709.709,0,0,0,.708-.708V61.178c0-.392-.306-1.107-1.118-.3" transform="translate(-0.52 -0.542)"></path><path class="cls-3" d="M187.036,76.307,174.587,88.146a2.063,2.063,0,0,0-.71,1.777v17.764a.711.711,0,0,0,.71.706h12.858a.708.708,0,0,0,.709-.706V76.6c0-.393-.309-1.109-1.118-.3" transform="translate(-0.52 -0.542)"></path><path class="cls-3" d="M228.555,46.519a.356.356,0,0,0-.106-.27.381.381,0,0,0-.23-.1l-.069,0-.1.006-9.531,2.15-.173.018a.372.372,0,0,0-.186.1.364.364,0,0,0,0,.513l.108.108,2.177,2.176-21.6,21.6-9.976-9.976a.284.284,0,0,0-.406,0l-2.706,2.707,0,0L169.764,81.541a.289.289,0,0,0,0,.406l2.71,2.709a.282.282,0,0,0,.4,0l15.792-15.787,7.238,7.239a.226.226,0,0,0,.023.034l2.708,2.7a.285.285,0,0,0,.406,0l24.512-24.512,2.286,2.284a.356.356,0,0,0,.508,0,.347.347,0,0,0,.1-.235l0-.03,2.093-9.73Z" transform="translate(-0.52 -0.542)"></path><path class="cls-3" d="M205.037,78.385l-6.023,6.072a.289.289,0,0,1-.388-.015l-5.457-5.562c-1-.995-1.214-.188-1.214.2v28.6a.707.707,0,0,0,.7.708h12.861a.71.71,0,0,0,.708-.708V78.609c0-.391-.309-1.109-1.192-.224" transform="translate(-0.52 -0.542)"></path><path class="cls-3" d="M180.138,19.259c-.071,1.255-.429,1.788-1.5,2.071l-.591-.867c.752-.147,1.039-.346,1.112-1.278.1-1.307.1-2.634.1-3.952h-.3a16.743,16.743,0,0,1-.411,3.6,5.879,5.879,0,0,1-1.307,2.54l-.823-.6a6.477,6.477,0,0,0,.483-.545c-.778.168-1.557.326-2.337.5-.008.084-.053.157-.134.157s-.124-.073-.15-.145l-.377-.922c.484-.052.958-.126,1.441-.188v-.512h-1.235v-.775h1.235v-.356h-1.209V14.952h1.2v-.347h-1.225v-.826h1.225v-.428c-.294.02-.589.043-.886.074l-.25-.46c-.107.406-.2.825-.321,1.233-.021.074-.128.387-.128.439V21.35h-.956V16.645a5.707,5.707,0,0,1-.367.565l-.582-.866a11.89,11.89,0,0,0,1.521-4.581l1.057.385a.158.158,0,0,1,.089.126c0,.084-.116.125-.171.136l-.034.157a9.863,9.863,0,0,0,2.729-.587l.671,1.036a.11.11,0,0,1-.124.114.24.24,0,0,1-.163-.061c-.384.082-.778.135-1.162.2v.512H177.6v.535h.458V11.876l1,.136c.062.01.171.053.171.148a.2.2,0,0,1-.128.176c-.017.66-.043,1.328-.07,1.987.4-.009.805-.02,1.209-.02-.01,1.653,0,3.3-.1,4.956M175.369,15.6h-.448v.562h.448Zm0,1.231h-.448v.515h.448ZM176.6,15.6h-.4v.562h.4Zm.018,1.231H176.2v.515h.422Zm.939-1.6v-.628h-1.333v.347H177.4v3.041h-1.172v.356h1.153V19.1h-1.153v.429c.359-.054.7-.126,1.065-.189l-.054.355a10.391,10.391,0,0,0,.778-4.465Z" transform="translate(-0.52 -0.542)"></path><path class="cls-3" d="M187.184,16.2a7.421,7.421,0,0,0,1.165,1.862c-.2.3-.411.587-.626.869a4.869,4.869,0,0,0-2.417-.629c-.365,0-1.172.179-1.172.754,0,.92,1.235.983,1.8.983a10.076,10.076,0,0,0,1.852-.24c-.087.4-.159.794-.232,1.192a8.216,8.216,0,0,1-1.312.125c-1.14,0-3.144-.146-3.144-1.944,0-1.309,1.272-1.748,2.192-1.748a6.528,6.528,0,0,1,1.431.189c-.178-.4-.366-.794-.536-1.2a21.271,21.271,0,0,1-3.257.4l-.233-1.045a14.121,14.121,0,0,0,3.106-.313c-.108-.316-.207-.628-.3-.943a13.576,13.576,0,0,1-2.272.323c-.1-.333-.187-.678-.276-1.013a13.149,13.149,0,0,0,2.289-.282c-.133-.5-.241-1.024-.329-1.537.366-.031.733-.074,1.1-.1h.037a.128.128,0,0,1,.143.127.244.244,0,0,1-.089.166c.045.346.1.691.17,1.036a4.907,4.907,0,0,0,1.245-.6c.072.387.16.775.231,1.172-.411.157-.831.3-1.251.439.1.335.214.658.339.983a12,12,0,0,0,2.095-.784c.079.4.124.8.2,1.182a11.725,11.725,0,0,1-1.943.574" transform="translate(-0.52 -0.542)"></path><path class="cls-3" d="M195.261,20.408a1.329,1.329,0,0,1-1.01.325,2.021,2.021,0,0,1-.877-.22c-.036-.4-.062-.784-.107-1.181a1.876,1.876,0,0,0,.984.292c.724,0,.715-2.353.715-2.948,0-.429.009-1.193-.5-1.193a2.372,2.372,0,0,0-.536.084,20.415,20.415,0,0,1-1.916,5.2c-.348-.189-.669-.4-1.018-.565a14.683,14.683,0,0,0,1.808-4.454c-.413.081-.825.187-1.226.3-.027-.115-.26-1.12-.26-1.12,0-.052.061-.062.088-.062.081,0,.152.022.234.022a6.925,6.925,0,0,0,1.388-.19,17.629,17.629,0,0,0,.321-2.489c.268.064.527.148.786.232.118.04.252.074.368.124.045.022.116.054.116.126s-.063.095-.106.115c-.107.587-.226,1.182-.369,1.767a4.684,4.684,0,0,1,.538-.052,1.055,1.055,0,0,1,1.18.888A5.818,5.818,0,0,1,196.04,17c0,.949-.134,2.75-.779,3.408m1.308-6.586a11.581,11.581,0,0,0-.68-1.486l.723-.346a12.365,12.365,0,0,1,.636,1.445Zm.913,4.611c-.2-.3-.413-.587-.627-.868.259-.053.914-.211.914-.608a5.176,5.176,0,0,0-1.29-2.333,11.21,11.21,0,0,0,1-.562,6.684,6.684,0,0,1,1.422,3.115c0,.785-.9,1.078-1.422,1.256m.287-4.98a10.378,10.378,0,0,0-.673-1.483l.69-.375a9.28,9.28,0,0,1,.671,1.473Z" transform="translate(-0.52 -0.542)"></path><path class="cls-3" d="M203.553,20.486a.969.969,0,0,1-.713-.275,5.469,5.469,0,0,1-1.2-3.4,16.848,16.848,0,0,1,.059-2.877c.026-.368.055-.725.1-1.086a7.168,7.168,0,0,1,1.285.413.133.133,0,0,1,.072.111.226.226,0,0,1-.174.21,10.861,10.861,0,0,0-.255,2.124,10.98,10.98,0,0,0,.04,1.33,5.172,5.172,0,0,0,.278,1.383c.068.2.226.666.448.652.429-.031.9-1.436,1.071-1.869l.621,1.309c-.236.71-.93,1.923-1.635,1.972m3.933-1.873a9.517,9.517,0,0,0-1.447-4.438c.37-.171.719-.374,1.094-.538a11.412,11.412,0,0,1,1.513,4.449c-.384.194-.768.365-1.16.527" transform="translate(-0.52 -0.542)"></path><path class="cls-3" d="M214.828,21.079c-1.253.01-2.47-.522-2.487-2.208,0-.249.026-.5.045-.751-.654-.231-1.532-.523-1.549-1.5a3.844,3.844,0,0,1,.4-1.34c.338.074.679.177,1.01.251a1.994,1.994,0,0,0-.438.921c.009.367.517.523.761.587.142-.828.3-1.643.446-2.469-.162.2-.312.4-.464.6a16.461,16.461,0,0,0-1.434-1.236c.2-.315.4-.626.619-.94a12.844,12.844,0,0,1,1.333,1.15,13.639,13.639,0,0,0,.287-2.092c.286.052.582.137.867.21a2.076,2.076,0,0,1,.358.094c.063.02.126.052.126.135a.417.417,0,0,1-.17.272c-.064.231-.117.483-.17.71-.109.493-.216.984-.332,1.477-.168.772-.348,1.557-.482,2.341.357.064.724.064,1.082.094l-.162,1.016a7.091,7.091,0,0,1-1.055-.086,2.571,2.571,0,0,0-.028.463,1.166,1.166,0,0,0,1.3,1.223c.761-.012,1.1-.471,1.092-1.339a4.453,4.453,0,0,0-1.313-2.627,7.818,7.818,0,0,0,.982-.478,4.92,4.92,0,0,1,1.5,3.4,2.015,2.015,0,0,1-2.12,2.123" transform="translate(-0.52 -0.542)"></path><path class="cls-3" d="M173.415,31.258a9.13,9.13,0,0,1-.73,2.447l-.749-.389a8.536,8.536,0,0,0,.669-2.622l.81.3a.141.141,0,0,1,.1.145c0,.052-.06.094-.1.115m6.5-.658a6.913,6.913,0,0,1-2.379-1.4,6.157,6.157,0,0,1-1.745,1.226l-.368-.555.1.459a5.5,5.5,0,0,1-.7.3c-.044-.179-.1-.367-.141-.545l-.228.042v4.2h-.907v-4.1c-.441.054-.872.128-1.313.178l-.1-.91a2.1,2.1,0,0,0,.527-.053c.3-.375.574-.784.837-1.191a5.309,5.309,0,0,0-1.216-.47v-.462a11.7,11.7,0,0,0,1.629-2.508,8.434,8.434,0,0,1,.916.48c.073.042.2.106.2.22s-.15.136-.212.136c-.466.544-.931,1.087-1.436,1.59.184.105.361.218.536.324a9.045,9.045,0,0,0,.484-.849c.144.087.918.567.918.735,0,.114-.132.136-.2.114-.5.628-1,1.265-1.513,1.881.3-.031.588-.073.889-.1-.054-.178-.108-.367-.178-.535.238-.094.477-.2.715-.3.114.345.213.69.308,1.036a5.814,5.814,0,0,0,1.533-1.024A9.3,9.3,0,0,1,175.7,27l.582-.6h-.854V25.5h4.131v.787a7.266,7.266,0,0,1-1.322,2.2,6.687,6.687,0,0,0,2.246,1.141c-.2.312-.379.647-.563.972m-4.9,2.332c-.193-.617-.326-1.264-.458-1.9l.742-.3a13.091,13.091,0,0,0,.448,1.872Zm.194,1.191v-.867H177.1V32.012h-1.392v-.869h1.383V29.962c.24.031.486.051.724.083a1.586,1.586,0,0,1,.317.042.1.1,0,0,1,.087.1.2.2,0,0,1-.142.17v.782H179.6v.869h-1.526v1.244h2v.867Zm1.357-7.718a6.236,6.236,0,0,0,.934,1.4,5.112,5.112,0,0,0,.81-1.4Z" transform="translate(-0.52 -0.542)"></path><path class="cls-3" d="M183.167,29.47a15.086,15.086,0,0,0-1.5-1.036l.635-1a7.874,7.874,0,0,1,1.392,1.191Zm-.309,4.58a.318.318,0,0,1,.043.159.093.093,0,0,1-.087.093,11.649,11.649,0,0,1-1.075-.69,15.545,15.545,0,0,0,1.188-3.525l.847.794c-.292,1.068-.581,2.123-.916,3.169m.52-7.2a12.483,12.483,0,0,0-1.295-.912l.687-1a8.528,8.528,0,0,1,1.153,1.108Zm6.247,3.473c-.3-.086-.6-.179-.892-.294V34.28h-.969V32.533h-2.22a4.274,4.274,0,0,1-1.169,1.914l-.768-.586c1.084-.918,1.269-2.457,1.269-3.921a5.88,5.88,0,0,1-.917.325l-.493-.868a6.816,6.816,0,0,0,2.51-.982,7.4,7.4,0,0,1-1.171-1.507h-.776V26h2.08V24.806l1.11.073a.18.18,0,0,1,.165.169c0,.1-.1.156-.175.176V26h2.45v.91h-.943a6.347,6.347,0,0,1-1.19,1.515,7.062,7.062,0,0,0,2.583.838Zm-1.861.668h-1.955c-.018.24-.045.489-.079.731h2.034Zm0-1.319a12.138,12.138,0,0,1-1.038-.678,9.074,9.074,0,0,1-.873.5c0,.232,0,.45-.008.679h1.919Zm-1.85-2.772a3.863,3.863,0,0,0,.839.964,3.478,3.478,0,0,0,.756-.964Z" transform="translate(-0.52 -0.542)"></path><path class="cls-3" d="M198.845,34.339a7.032,7.032,0,0,1-1.978-1.962,5.635,5.635,0,0,1-2.175,1.9l-.733-.7a5.428,5.428,0,0,0,2.361-2.163,11.6,11.6,0,0,1-1.057-3.921H193.09v.054c0,.394.009.78.009,1.172h2.111c-.018.8-.018,1.607-.115,2.4-.172,1.3-.581,1.714-1.673,1.823l-.493-.843c1.083-.128,1.226-.554,1.245-1.771l.007-.723h-1.108c0,1.5-.234,3.57-1.146,4.689l-.841-.609c.92-1.065.985-2.832.985-4.27,0-.96-.056-1.928-.073-2.889h3.194c-.052-.627-.071-1.268-.088-1.9l1.171.149c.063.01.188.043.188.15a.3.3,0,0,1-.169.224c-.009.256-.009.5-.009.756,0,.2,0,.414.009.617h2.863v.993h-2.819a11.6,11.6,0,0,0,.547,2.792,9.94,9.94,0,0,0,.626-2.292l1.117.7a.248.248,0,0,1,.109.192c0,.117-.18.159-.25.172a12.473,12.473,0,0,1-.976,2.363A6.182,6.182,0,0,0,199.6,33.3Zm-.27-8.929c-.215.353-.42.714-.645,1.055l-.822-.287a12.388,12.388,0,0,0,.5-1.545l1.038.426c.063.033.145.086.145.181s-.145.161-.217.17" transform="translate(-0.52 -0.542)"></path><path class="cls-3" d="M208.148,34.2a6.8,6.8,0,0,1-3.632-3.063,19.97,19.97,0,0,0,2.266-.816h-3.165v2.369l1.442-.37-.118.99c-.949.246-1.909.493-2.861.748-.025.071-.084.162-.16.162a.116.116,0,0,1-.093-.072l-.458-1.073c.423-.069.848-.12,1.264-.213v-2.49h-1.469v-.98h1.469V25.24h5.457v.928h-4.465v.552h3.9v.836h-3.9v.531h3.9v.807h-3.9v.522h5.015v.907h-1.213l.484.745a.136.136,0,0,1-.136.143.354.354,0,0,1-.17-.061c-.55.132-1.112.245-1.67.336a5.058,5.058,0,0,0,2.876,1.726Z" transform="translate(-0.52 -0.542)"></path><path class="cls-3" d="M214.605,34.187c-1.252.012-2.47-.521-2.486-2.206,0-.253.025-.5.044-.754-.654-.229-1.533-.522-1.549-1.5a3.807,3.807,0,0,1,.395-1.337c.338.072.679.175,1.009.249a1.988,1.988,0,0,0-.437.921c.009.365.517.522.761.586.142-.826.3-1.643.446-2.469-.161.2-.312.4-.464.6a16.622,16.622,0,0,0-1.434-1.235q.3-.469.619-.942a12.874,12.874,0,0,1,1.332,1.151,13.315,13.315,0,0,0,.287-2.091c.287.052.582.135.869.209a2.069,2.069,0,0,1,.357.1c.063.021.126.052.126.135a.41.41,0,0,1-.169.271c-.065.23-.118.482-.171.711-.108.493-.215.984-.332,1.477-.168.772-.348,1.557-.483,2.341.358.064.725.064,1.083.1l-.162,1.011a7.22,7.22,0,0,1-1.055-.082,2.614,2.614,0,0,0-.027.459,1.163,1.163,0,0,0,1.3,1.224c.76-.01,1.1-.471,1.092-1.337a4.449,4.449,0,0,0-1.314-2.625,8.2,8.2,0,0,0,.982-.482,4.927,4.927,0,0,1,1.5,3.4,2.015,2.015,0,0,1-2.12,2.122" transform="translate(-0.52 -0.542)"></path></g></g><g class="cls-8"><rect class="cls-9" x="275.532" y="0.506" width="121.907" height="121.907"></rect><g class="cls-8"><path class="cls-3" d="M287.361,33.734a6.475,6.475,0,0,1-1.391-4.462v-.345h4.189a5.421,5.421,0,0,0,.33,2.239,1.374,1.374,0,0,0,1.364.66,1.322,1.322,0,0,0,1.076-.431,2.9,2.9,0,0,0,.5-1.42,21.485,21.485,0,0,0,.143-2.856V24.766a2.486,2.486,0,0,1-1.176.99,4.528,4.528,0,0,1-1.866.359,4.094,4.094,0,0,1-3.759-1.894A9.422,9.422,0,0,1,285.6,19.2q0-7.835,6.257-7.835a5.594,5.594,0,0,1,4.735,1.98,8.762,8.762,0,0,1,1.521,5.453v8.466a10.518,10.518,0,0,1-1.392,5.854q-1.392,2.1-4.893,2.1-3.1,0-4.463-1.478m6.213-12.067v-3.7a6.365,6.365,0,0,0-.373-2.411,1.468,1.468,0,0,0-2.726.072,9.85,9.85,0,0,0-.344,3.056,22.462,22.462,0,0,0,.086,2.282,2.432,2.432,0,0,0,.473,1.277,1.429,1.429,0,0,0,1.191.487,1.906,1.906,0,0,0,1.693-1.061" transform="translate(-0.52 -0.542)"></path><path class="cls-3" d="M368.29,81.263l-14.559-8.4V56.052a.991.991,0,0,0-.5-.86L338.184,46.5a1,1,0,0,0-.993,0l-15.053,8.69a.991.991,0,0,0-.5.86V72.861l-14.557,8.4a.992.992,0,0,0-.5.86V99.507a1,1,0,0,0,.5.86l15.053,8.689a.993.993,0,0,0,.993,0l14.556-8.4,14.555,8.4a.993.993,0,0,0,.993,0l15.055-8.689a.994.994,0,0,0,.5-.86V82.123a.992.992,0,0,0-.5-.86m-31.6,16.523L324.62,90.815l12.074-6.972Zm14.058-24.352L338.68,80.4V66.462ZM336.694,80.4l-12.073-6.969,12.073-6.972Zm2.98,1.72,13.064-7.542,13.069,7.542-13.069,7.545Zm12.071-10.409-12.071-6.971,12.071-6.971ZM335.7,64.743l-12.074,6.971V57.772Zm-14.059,41.733-13.067-7.543V83.843l13.067,7.546Zm1.985,0V92.535L335.7,99.507ZM366.8,98.933l-13.069,7.543V91.389L366.8,83.843Z" transform="translate(-0.52 -0.542)"></path><path class="cls-3" d="M312.006,15.964c.007.274.016.539.016.814a11.766,11.766,0,0,1-.4,3.276,5.221,5.221,0,0,1-.634,1.459l-.834-.6a7.017,7.017,0,0,0,.861-3.88c0-.645-.019-1.3-.045-1.944h1.77c-.159-.319-.312-.647-.482-.954l.653-.295h-1.967v-.963h2.908V11.8l1.074.074c.08,0,.17,0,.17.127a.2.2,0,0,1-.134.158v.72h3.033v.963h-2.04l.581.223a.113.113,0,0,1,.09.1c0,.062-.072.1-.116.106-.136.277-.259.55-.413.816h2.2v.876Zm-.046,5.373v-.849H314.5v-.939h-1.35v-.815h1.35v-.783h-1.128a8.036,8.036,0,0,1-.654,1.606l-.742-.495a8.83,8.83,0,0,0,.787-2.834l.95.265a.124.124,0,0,1,.107.114c0,.086-.071.119-.134.128-.037.127-.072.255-.108.381h.914v-.994l1.091.093c.054,0,.089.077.089.13,0,.1-.118.168-.188.189v.53H317.8v.866h-2.309v.783h1.843v.836h-1.843v.918h2.639v.87Zm1.35-7.5c.127.35.316.963.413,1.322a.352.352,0,0,1-.457-.073h1.89c.116-.413.221-.826.3-1.249Z" transform="translate(-0.52 -0.542)"></path><path class="cls-3" d="M327.524,21.46a6.316,6.316,0,0,1-3.179-1.945v2.061h-.991V19.494a6.747,6.747,0,0,1-3.1,1.915l-.592-.868a6.138,6.138,0,0,0,2.926-1.579h-2.577V18.1h3.34v-.418h-2.5V16.9h2.5v-.458H320.31v-.837h1.853c-.1-.242-.187-.493-.305-.732h-1.951v-.879h1.521a9.129,9.129,0,0,0-.75-1.233l.957-.587c.215.513.42,1.034.617,1.559l-.5.261h.815V12l1,.094a.092.092,0,0,1,.1.105c0,.073-.08.134-.133.156v1.642h.608V11.987l1.02.082a.109.109,0,0,1,.1.115c0,.074-.091.126-.136.146v1.653h.753l-.448-.24c.2-.523.4-1.036.555-1.581l1.022.493a.189.189,0,0,1,.116.156c0,.118-.155.126-.216.126-.223.357-.446.7-.67,1.046h1.575v.89h-1.934c-.143.251-.285.49-.429.732h2.058v.837h-3.168V16.9H326.9v.785h-2.568V18.1h3.373v.859h-2.685a6.437,6.437,0,0,0,3.08,1.557Zm-4.584-6.587.135.732h1.458c.064-.242.117-.493.171-.732Z" transform="translate(-0.52 -0.542)"></path><path class="cls-3" d="M333.27,21.379c-1.256,0-3.259-.2-3.259-2.2a3.054,3.054,0,0,1,2.045-2.7,16.229,16.229,0,0,1-.351-3.7c.263.021.536.041.8.064.13.01.263.019.394.041.043.01.1.032.1.094a.205.205,0,0,1-.06.114,7.415,7.415,0,0,0-.052.964,6.425,6.425,0,0,0,.165,1.87.116.116,0,0,0,.081.031,9.672,9.672,0,0,0,2.212-.929c.13.449.219.919.324,1.379-1.1.263-4.583.932-4.583,2.656,0,.974,1.3,1.162,1.906,1.162a7.466,7.466,0,0,0,2.818-.469c.053.437.1.886.123,1.336a12.667,12.667,0,0,1-2.658.284" transform="translate(-0.52 -0.542)"></path><path class="cls-3" d="M340.455,17.268v2.247a2.417,2.417,0,0,1-1.135,2.251l-.773-.71a1.72,1.72,0,0,0,.93-1.675V17.707c-.246.168-.5.3-.746.483-.006.082-.044.217-.132.217-.052,0-.072-.051-.089-.1l-.3-1.151c.426-.187.852-.377,1.268-.584V15.083h-1.055v-.92h1.046v-2.02l1.022.137a.11.11,0,0,1,.1.092c0,.074-.079.148-.124.18v1.611h.646v.92h-.664v1.171l.754-.387v.984c-.248.146-.5.269-.745.417m5.5,4.466a6.467,6.467,0,0,1-2.3-1.591,6.427,6.427,0,0,1-2.363,1.5l-.708-.794a5.373,5.373,0,0,0,2.4-1.474,8.427,8.427,0,0,1-1.216-2.186l.39-.365h-.684V15.95h1.564V14.612h-1.723v-.931h1.687V12.133l1.065.094a.141.141,0,0,1,.143.157c0,.084-.117.148-.17.168v1.12h2.187v.94h-2.2V15.95h1.723v.628c0,.031-.115.387-.134.45a6.838,6.838,0,0,1-1.278,2.383,5.739,5.739,0,0,0,2.29,1.34Zm-3.3-4.937a6.152,6.152,0,0,0,1.012,1.884,5.844,5.844,0,0,0,.887-1.884Z" transform="translate(-0.52 -0.542)"></path><path class="cls-3" d="M352.119,15.512v6.169h-.986V15.522h-1.109v-.135c-.2.4-.4.794-.631,1.17v5.155h-.986V17.854a5.353,5.353,0,0,1-.522.533l-.5-.826a8.6,8.6,0,0,0,2-3.105l.639.574v-.4h1.092V12.364l1.02.1c.062.012.152.032.152.125a.224.224,0,0,1-.169.2v1.842h1.217v.879Zm-2.166-2.185a9.37,9.37,0,0,1-1.678,1.963l-.72-.657a6.558,6.558,0,0,0,1.632-2.249l.918.637a.18.18,0,0,1,.088.138.194.194,0,0,1-.24.168m.9,3.691a19.9,19.9,0,0,1-.488,3.638l-.764-.678a15.876,15.876,0,0,0,.382-3.556l.923.343a.115.115,0,0,1,.063.106c0,.064-.079.126-.116.147M352.873,20a17.318,17.318,0,0,1-.5-3.179l.837-.251a17.351,17.351,0,0,0,.469,2.959Zm.809-6v-.773a.107.107,0,0,1-.114.084c-.135.376-.268.762-.418,1.139l-.64-.292c.124-.48.206-.963.311-1.444l.835.408.026.043v-.188h1.89v1.023Zm1.358,2.511v3.347c0,1.056-.364,1.663-1.242,1.922l-.658-.816a1.079,1.079,0,0,0,.924-1.222V16.505H353.3V15.6h2.425v.909Z" transform="translate(-0.52 -0.542)"></path><path class="cls-3" d="M361.447,20.35v1.579h-.986V20.35H357.01v-.933h3.451V18.74H358V15.871h2.457v-.508h-1.328V14.092h-1.844v-.921h1.826V12.132l1.031.075a.118.118,0,0,1,.114.1c0,.065-.088.139-.133.171v.69h1.678V12.132l1.03.075a.119.119,0,0,1,.116.1c0,.065-.088.139-.131.171v.69H364.6v.921H362.83v1.271h-1.4v.508H364V18.74h-2.569v.677h3.538v.933Zm-.986-3.666h-1.493v1.2h1.493Zm1.352-2.635h-1.676v.572h1.676Zm1.172,2.635h-1.554v1.2h1.554Z" transform="translate(-0.52 -0.542)"></path><path class="cls-3" d="M368.985,16.548l-.01.626h1.352v.836h-1.233A4.255,4.255,0,0,0,370.2,19.1l-.492.785a3.8,3.8,0,0,1-.722-.713v2.6h-.928V19.292a5.193,5.193,0,0,1-1.18,1.365l-.647-.73a5.354,5.354,0,0,0,1.556-1.917h-1.249v-.836h1.52v-.626h-1.571V15.7H367.5c-.145-.4-.3-.8-.476-1.185l.62-.233h-1v-.891h1.393V12.164l1.029.062a.132.132,0,0,1,.136.126.191.191,0,0,1-.136.181v.858h1.249v.891h-.977l.611.349a.15.15,0,0,1,.086.115c0,.118-.126.15-.2.15-.119.276-.255.539-.391.8h.919v.848Zm-1-2.266c.094.391.329,1.275.406,1.676-.169.087-.465-.331-.634-.258h.924c.111-.465.213-.941.3-1.418Zm5.371,2.278V21.7h-1V16.56h-.68c-.009,1.747-.28,3.981-1.5,5.082l-.729-.636c1.239-1.155,1.289-3.122,1.289-4.881,0-.975-.031-1.96-.04-2.934l.594.042a2.7,2.7,0,0,0,.587-.17,12.435,12.435,0,0,0,1.5-.666l.68,1.229a.15.15,0,0,1-.151.159.259.259,0,0,1-.172-.065,19.1,19.1,0,0,1-2.039.339V15.68h2.491v.88Z" transform="translate(-0.52 -0.542)"></path><path class="cls-3" d="M379.909,21.386c-.268-.314-.511-.649-.779-.953,1.368-.411,2.632-1.006,2.632-3.061a2.842,2.842,0,0,0-1.808-2.941c-.234,1.871-.693,4.845-2.052,5.948a1.256,1.256,0,0,1-.8.345,1.274,1.274,0,0,1-.927-.626,4.078,4.078,0,0,1-.555-2.218c0-2.649,1.757-4.52,3.819-4.52,1.9,0,3.451,1.419,3.451,3.937a3.889,3.889,0,0,1-2.977,4.089M376.862,16.4a4.478,4.478,0,0,0-.241,1.481c0,.446.077,1.592.564,1.592.172,0,.319-.207.422-.348.814-1.037,1.16-3.256,1.245-4.671a3.207,3.207,0,0,0-1.99,1.946" transform="translate(-0.52 -0.542)"></path><path class="cls-3" d="M318,33.122a5.944,5.944,0,0,1-1.5-.921v.627h-1.7v.69h2.658v.847h-6.239v-.847h2.615v-.69h-1.656v-.7a7.434,7.434,0,0,1-1.521.963l-.592-.8A5.717,5.717,0,0,0,312.4,30.6h-2.06v-.92H312.2V26.95h-1.53v-.9h1.513v-1.12L313.2,25a.108.108,0,0,1,.107.115c0,.073-.08.136-.135.156v.787h2.3v-1.12L316.51,25a.115.115,0,0,1,.116.115c0,.073-.082.136-.134.156v.787h1.415v.9h-1.415v2.731H318.3v.92h-2.122a5.591,5.591,0,0,0,2.453,1.61Zm-3.061-2.573H313.62a6.445,6.445,0,0,1-1.271,1.431h1.468v-.92l.984.074a.113.113,0,0,1,.117.106.192.192,0,0,1-.135.166v.574h1.449a6.579,6.579,0,0,1-1.3-1.431m.529-3.6h-2.292v.45h2.292Zm0,1.172h-2.292v.43h2.292Zm0,1.14h-2.292v.459h2.292Z" transform="translate(-0.52 -0.542)"></path><path class="cls-3" d="M327.758,31.134a5.642,5.642,0,0,1-2-.859,6.028,6.028,0,0,1-1.646.681l-.5-.69a1.256,1.256,0,0,1-.958.774l-.572-.617c.5-.148.741-.3.741-.962V28.31l-.294.031v1.7H321.8v-1.61l-.223.02a4.356,4.356,0,0,1-.86,2.8l-.778-.481a3.587,3.587,0,0,0,.733-2.207c-.142.03-.285.074-.43.1-.017.074-.07.147-.141.147s-.091-.083-.109-.147l-.223-.939c.295,0,.6,0,.9-.021,0-.713-.019-1.435-.019-2.145h.931c.109-.272.2-.553.286-.836l1.111.135a.135.135,0,0,1,.106.124c0,.138-.152.19-.241.2-.109.127-.216.251-.331.377h1.208v3.733a3.076,3.076,0,0,1-.107.951,4.781,4.781,0,0,0,1.386-.544,6.084,6.084,0,0,1-.788-.815c.117-.094.242-.176.368-.259h-.627V27.86h.646l-.745-.344a2.491,2.491,0,0,0,.413-1.549c0-.24-.01-.491-.018-.731h2.533c-.008.408-.02.817-.02,1.224,0,.261.055.355.287.355a2.129,2.129,0,0,0,1.011-.5l-.069,1.078a2.569,2.569,0,0,1-1.129.293c-.672,0-1.039-.074-1.039-.93,0-.231.009-.471.009-.7h-.635a2.58,2.58,0,0,1-.563,1.807h3v.6A3.837,3.837,0,0,1,326.54,29.7a5.013,5.013,0,0,0,1.717.524Zm-7.7,3.263v-.848h1.012V31.091h5.914v2.458h.912V34.4Zm2.738-8.053h-1.225v.5c.214-.147.428-.293.645-.431.168.253.33.515.492.776l-.511.439.6-.042Zm-1.225.523v.807l.591-.043a7.909,7.909,0,0,0-.591-.764m1.209,5.041h-.744v1.653h.744Zm1.6,0h-.723v1.653h.723Zm.762-3.282a5.147,5.147,0,0,0,.637.593,2.848,2.848,0,0,0,.6-.593Zm.887,3.282h-.771v1.653h.771Z" transform="translate(-0.52 -0.542)"></path><path class="cls-3" d="M336.782,29.805a.262.262,0,0,1-.135-.05c-.643.219-1.887.71-2.477.982v1.61l-1.056-.012c.008-.145.008-.3.008-.481V31.27c-.716.334-1.075.762-1.075,1.243,0,.419.414.639,1.227.639a7.89,7.89,0,0,0,2.605-.418l-.037,1.223a7.3,7.3,0,0,1-2.245.3c-1.754,0-2.629-.555-2.629-1.674a2.056,2.056,0,0,1,.733-1.505,6.394,6.394,0,0,1,1.359-.9c-.018-.469-.163-.711-.42-.711a1.312,1.312,0,0,0-.923.4,7.89,7.89,0,0,0-.687.712c-.333.365-.538.615-.663.74-.162-.187-.411-.469-.743-.856a7.55,7.55,0,0,0,2.255-2.834c-.475.062-1,.1-1.575.136-.035-.4-.09-.764-.143-1.088a15.326,15.326,0,0,0,2.048-.1,8.565,8.565,0,0,0,.306-1.443l1.207.271a.129.129,0,0,1,.109.126c0,.063-.045.116-.145.157-.045.178-.125.45-.241.8a14.082,14.082,0,0,0,1.674-.387l-.1,1.152c-.491.1-1.154.209-1.978.322a6.636,6.636,0,0,1-.555,1.049,1.737,1.737,0,0,1,.512-.074c.545,0,.9.364,1.063,1.117.715-.376,1.531-.762,2.417-1.159l.412,1.171c0,.084-.034.124-.109.124" transform="translate(-0.52 -0.542)"></path><path class="cls-3" d="M343.608,33.332a7.934,7.934,0,0,1-1.6.432c-.277-.329-.536-.675-.829-.972a12.058,12.058,0,0,0,2.063-.548,2.562,2.562,0,0,0,1.891-2.5c-.029-1.379-.742-1.818-1.79-1.792-1.448.042-2.786,1.134-4.2,1.54-.047-.145-.462-1.3-.463-1.358,0-.1.129-.066.19-.068a7.658,7.658,0,0,0,2.148-.6,7.967,7.967,0,0,1,2.615-.648,2.6,2.6,0,0,1,2.669,2.792,3.554,3.554,0,0,1-2.69,3.725" transform="translate(-0.52 -0.542)"></path><path class="cls-3" d="M352.726,34.417a17.34,17.34,0,0,0-2.694-3.042,8.807,8.807,0,0,0-.779-.681,2.17,2.17,0,0,1-.449-.4.9.9,0,0,1-.17-.564,1.207,1.207,0,0,1,.411-.889c.432-.461.877-.888,1.3-1.361.627-.711,1.262-1.421,1.87-2.174.26.22.52.428.778.649a1.775,1.775,0,0,1,.3.249.136.136,0,0,1,.044.1c0,.143-.2.165-.3.143-.59.565-1.2,1.12-1.8,1.7-.253.24-.485.5-.734.741-.117.116-.251.221-.359.345a.7.7,0,0,0-.215.419.4.4,0,0,0,.163.314c.375.355.795.66,1.179.993a18.135,18.135,0,0,1,2.382,2.561c-.315.293-.619.608-.93.9" transform="translate(-0.52 -0.542)"></path><path class="cls-3" d="M358.609,34.293a4.82,4.82,0,0,0-.484-.858.209.209,0,0,1-.044-.1c0-.03.044-.039.063-.052a7.951,7.951,0,0,0,1.322-.165c.933-.242,1.782-.723,1.782-2a1.3,1.3,0,0,0-1.468-1.443,3.026,3.026,0,0,0-2.345,1.465c-.358.469-.68.96-.993,1.463-.3-.272-.608-.553-.911-.835a30.415,30.415,0,0,0,2.557-3.526,9.118,9.118,0,0,0,.772-1.381c-.234.052-.466.126-.7.188-.421.116-.85.242-1.278.335-.065-.407-.128-.816-.207-1.224a19.77,19.77,0,0,0,2.935-.512,4.232,4.232,0,0,0,.618-.2,7.148,7.148,0,0,1,.563.888c0,.1-.109.136-.17.146A18.416,18.416,0,0,0,358.8,28.9a4.305,4.305,0,0,1,1.162-.178,2.306,2.306,0,0,1,2.443,2.54c0,2.228-2.255,2.948-3.793,3.034" transform="translate(-0.52 -0.542)"></path><path class="cls-3" d="M366.606,34.472c-.329-.31-.659-.631-1.01-.911a4.332,4.332,0,0,0,2.578-1.869,3.508,3.508,0,0,0,.35-1.578c0-.956-.305-1.5-1.137-1.5a7.344,7.344,0,0,0-2.534,1.149c-.062-.161-.491-1.267-.491-1.364,0-.075.089-.065.125-.065a5.679,5.679,0,0,0,1.109-.31,5.985,5.985,0,0,1,2.085-.548c1.433,0,2.059,1.161,2.059,2.759a4.571,4.571,0,0,1-3.134,4.242m1.568-7.741a12.9,12.9,0,0,0-2.533-.968c.17-.385.332-.772.5-1.159a9.71,9.71,0,0,1,2.6.978c-.179.384-.358.772-.564,1.149" transform="translate(-0.52 -0.542)"></path></g></g><g class="cls-10"><rect class="cls-11" x="413.299" y="0.506" width="121.907" height="121.907"></rect><g class="cls-10"><path class="cls-3" d="M424.441,16.243a19.054,19.054,0,0,1-1.836.717q-1.206.4-1.521.546v-3.3a18.923,18.923,0,0,0,2.367-1.148,7.975,7.975,0,0,0,1.966-1.406h3.472V34.9h-4.448Z" transform="translate(-0.52 -0.542)"></path><path class="cls-3" d="M432.778,33.476a7.172,7.172,0,0,1-1.593-4.893V18.166a7.487,7.487,0,0,1,1.55-5.008,6.878,6.878,0,0,1,9.326,0,7.487,7.487,0,0,1,1.55,5.008V28.583A7.142,7.142,0,0,1,442,33.461a6.73,6.73,0,0,1-9.226.015m6.328-4.979V18.252a6.088,6.088,0,0,0-.33-2.153,1.316,1.316,0,0,0-1.364-.861,1.334,1.334,0,0,0-1.406.847,6.28,6.28,0,0,0-.315,2.167V28.5q0,2.9,1.721,2.9,1.694,0,1.694-2.9" transform="translate(-0.52 -0.542)"></path><path class="cls-3" d="M486.083,81.043H463.632a.259.259,0,0,0-.244.272v6.748a.259.259,0,0,0,.244.274h22.451a.259.259,0,0,0,.247-.274V81.315a.26.26,0,0,0-.247-.272" transform="translate(-0.52 -0.542)"></path><path class="cls-3" d="M486.083,66.686H463.632a.259.259,0,0,0-.244.272v6.748a.259.259,0,0,0,.244.274h22.451a.259.259,0,0,0,.247-.274V66.958a.26.26,0,0,0-.247-.272" transform="translate(-0.52 -0.542)"></path><path class="cls-3" d="M485.767,56.486,474.991,45.71a.185.185,0,0,0-.263,0L463.951,56.486a.186.186,0,0,0,.132.318h21.553a.186.186,0,0,0,.131-.318" transform="translate(-0.52 -0.542)"></path><path class="cls-3" d="M495.884,88.42l10.777-10.777a.185.185,0,0,0,0-.263L495.884,66.6a.186.186,0,0,0-.318.132V88.288a.186.186,0,0,0,.318.132" transform="translate(-0.52 -0.542)"></path><path class="cls-3" d="M463.951,98.536l10.777,10.777a.185.185,0,0,0,.263,0l10.776-10.777a.185.185,0,0,0-.131-.317H464.083a.186.186,0,0,0-.132.317" transform="translate(-0.52 -0.542)"></path><path class="cls-3" d="M453.834,66.6,443.058,77.38a.185.185,0,0,0,0,.263l10.776,10.776a.186.186,0,0,0,.318-.131V66.735a.186.186,0,0,0-.318-.132" transform="translate(-0.52 -0.542)"></path><path class="cls-3" d="M460.936,20.559a9.059,9.059,0,0,1-3.3-4.551,11.341,11.341,0,0,1-.482,1.372,6.854,6.854,0,0,1-1.943,2.552,5.168,5.168,0,0,1-.92.6l-.8-.943a4.911,4.911,0,0,0,1.076-.614,6.71,6.71,0,0,0,2.213-4.109,19.047,19.047,0,0,0,.142-3.265l1.244.138c.072.009.171.051.171.155a.21.21,0,0,1-.161.19c-.018.429-.028.846-.028,1.273a7.844,7.844,0,0,0,1.4,4.04,7.678,7.678,0,0,0,2.327,2.133Z" transform="translate(-0.52 -0.542)"></path><path class="cls-3" d="M467.755,17.374a4.592,4.592,0,0,1-1.062-.123,7.842,7.842,0,0,0-.34-1.088,4.329,4.329,0,0,0,1.139.184c.7,0,1.362-.275,1.362-1.272a.873.873,0,0,0-.835-.955,1.753,1.753,0,0,0-.527.083c.1.319.213.636.324.953-.3.145-.6.278-.886.4q-.177-.509-.357-1.018a12.133,12.133,0,0,0-1.2.638c.291.791.564,1.6.808,2.412.23.77.511,1.52.7,2.3-.315.184-.646.306-.978.461a44.929,44.929,0,0,0-1.386-4.69c-.458.295-.918.6-1.361.923-.179-.359-.365-.71-.527-1.078.494-.278,1-.565,1.5-.83-.248-.586-.528-1.174-.826-1.729.127-.037,1-.366,1.062-.366s.061.04.087.1c.194.511.373,1.037.57,1.55.381-.205.756-.4,1.146-.585a12.193,12.193,0,0,0-.765-1.54c.332-.123.663-.267,1-.38a17.375,17.375,0,0,1,.732,1.582,3.632,3.632,0,0,1,1.046-.133,1.772,1.772,0,0,1,1.749,1.929,2.1,2.1,0,0,1-2.168,2.268" transform="translate(-0.52 -0.542)"></path><path class="cls-3" d="M471.973,11.586h7.364V20.6h-7.364Zm6.309,1h-5.271v7.049h5.271Zm-4.955,6.173v-.9h1.731V16.328h-1.369v-.853h1.369V14.4h-1.641v-.9h4.5v.885h-1.869v1.079h1.417V16.2l.452.266a.094.094,0,0,1,.045.077c0,.1-.109.138-.182.138-.152.353-.305.7-.447,1.067l-.742-.278c.116-.374.225-.758.333-1.142h-.885v1.559h1.9v.876Z" transform="translate(-0.52 -0.542)"></path><path class="cls-3" d="M485.916,19.9c-.258-.3-.493-.612-.753-.9,1.324-.387,2.545-.947,2.545-2.883a2.673,2.673,0,0,0-1.748-2.77c-.226,1.762-.671,4.564-1.985,5.6a1.021,1.021,0,0,1-1.675-.265,3.759,3.759,0,0,1-.535-2.088c0-2.5,1.7-4.26,3.691-4.26,1.842,0,3.341,1.334,3.341,3.709a3.682,3.682,0,0,1-2.881,3.853m-2.947-4.7a4.179,4.179,0,0,0-.233,1.4c0,.417.076,1.5.545,1.5.167,0,.308-.194.408-.326.791-.978,1.123-3.068,1.206-4.4a3.075,3.075,0,0,0-1.926,1.832" transform="translate(-0.52 -0.542)"></path><path class="cls-3" d="M495.667,12.8c-.172.334-.342.67-.529.992v6.842h-1.083V15.346a9.548,9.548,0,0,1-2.889,2.71l-.767-.722a9.659,9.659,0,0,0,3.934-4.539h-3.42V11.75h7.365V12.8ZM498.1,18.2a12,12,0,0,1-2.845-3.044c.286-.261.554-.542.832-.815a8.473,8.473,0,0,0,2.764,2.917Z" transform="translate(-0.52 -0.542)"></path><path class="cls-3" d="M504.561,17.334v3.431h-1.083V17.334h-3.4V16.31h3.4V12.838h-2.926v-1H507.5v1H504.55V16.31h3.4v1.024ZM502,15.913c-.315-.744-.636-1.5-1.011-2.2l.957-.525a12.653,12.653,0,0,1,.841,2.259ZM506.994,14c-.313.659-.627,1.319-.983,1.956l-.8-.375c.3-.784.564-1.59.8-2.407l1.074.493a.208.208,0,0,1,.124.178c0,.115-.143.155-.215.155" transform="translate(-0.52 -0.542)"></path><path class="cls-3" d="M512.294,13.047l.1.723-.733.2-.285-.941h-.252a7.318,7.318,0,0,1-.959,1.255l-.778-.511a5.945,5.945,0,0,0,1.324-2.605l1.03.334a.16.16,0,0,1,.116.136c0,.1-.1.157-.168.169a2.1,2.1,0,0,1-.191.375h1.737v.868Zm3.036,3.691-.011.628h1.763V18.3H515.33c0,1.6.159,2.5-1.469,2.78l-.611-.888c.62-.116,1.067-.17,1.067-1.036V18.3H511.7c.268.249.518.512.768.782.189.2.386.378.565.6l-.671.753a19.635,19.635,0,0,0-1.511-1.463l.6-.669h-1.667v-.932h4.529v-.638h-4.8v-.879h3.293v-.626h-2.372v-.89h2.345v-.71H513.9c.045.009-.208.192-.208.244,0,.072.114-.247.134-.313v.779h2.606v.89h-2.621v.626h3.47v.889Zm.659-3.649-.285.9-.778-.085.035-.847h-.581a9.171,9.171,0,0,1-.691.892l-.9-.326a7.533,7.533,0,0,0,1.227-2.406l1.058.314a.133.133,0,0,1,.106.116c0,.094-.117.113-.181.113-.062.158-.133.306-.2.449h2.371v.88Z" transform="translate(-0.52 -0.542)"></path><path class="cls-3" d="M461.34,29.573a.231.231,0,0,1-.132-.051c-.647.22-1.889.712-2.48.984v1.61l-1.057-.012c.01-.146.01-.3.01-.48v-.585c-.713.335-1.073.762-1.073,1.243,0,.418.41.639,1.225.639a7.95,7.95,0,0,0,2.6-.418l-.034,1.222a7.334,7.334,0,0,1-2.247.3c-1.756,0-2.632-.553-2.632-1.673a2.068,2.068,0,0,1,.733-1.506,6.435,6.435,0,0,1,1.36-.9c-.016-.471-.16-.71-.421-.71a1.3,1.3,0,0,0-.92.4,7.937,7.937,0,0,0-.691.711c-.331.367-.536.619-.661.742-.162-.189-.412-.47-.744-.856a7.562,7.562,0,0,0,2.257-2.835c-.475.063-1,.105-1.576.137-.035-.4-.089-.765-.142-1.088a15.317,15.317,0,0,0,2.049-.106,8.41,8.41,0,0,0,.3-1.442l1.21.271c.073.023.108.062.108.126s-.044.115-.144.157c-.046.176-.126.449-.24.8a14.154,14.154,0,0,0,1.672-.387l-.1,1.152c-.492.1-1.155.207-1.976.322a6.488,6.488,0,0,1-.557,1.048,1.77,1.77,0,0,1,.511-.074c.546,0,.9.365,1.066,1.118.716-.377,1.53-.762,2.415-1.161l.412,1.171c0,.086-.036.125-.109.125" transform="translate(-0.52 -0.542)"></path><path class="cls-3" d="M467.541,27.134c-.437.125-.866.231-1.305.313a21.588,21.588,0,0,1-1.954,4.9c-.331-.167-.663-.365-.984-.564a17.115,17.115,0,0,0,1.791-4.215,8.984,8.984,0,0,1-1.335.113c-.044-.363-.1-.73-.143-1.107a3.646,3.646,0,0,0,.493.022,8.279,8.279,0,0,0,1.245-.085,11.2,11.2,0,0,0,.241-1.807c.421.062.834.114,1.246.209-.108.481-.214.973-.359,1.453a9.229,9.229,0,0,0,1.076-.358c0,.369-.012.745-.012,1.121m2.5,6.4a7.551,7.551,0,0,0-1.188-1.077c0,.116,0,.231,0,.344-.04,1.079-.739,1.37-1.547,1.37a2.583,2.583,0,0,1-.847-.134,1.593,1.593,0,0,1-1.053-1.486,1.56,1.56,0,0,1,1.633-1.588,4.32,4.32,0,0,1,.734.061c-.01-.491-.027-.982-.009-1.475a2.16,2.16,0,0,1,.133-.71h.807c.053,0,.315-.042.31.084a.057.057,0,0,1-.01.042,1.335,1.335,0,0,0-.185.638c-.021.553,0,1.1.019,1.652a6.387,6.387,0,0,1,1.9,1.244c-.219.357-.447.712-.692,1.035m-2.227-1.506a1.51,1.51,0,0,0-.641-.114c-.341,0-.767.1-.785.6s.494.7.845.7c.331,0,.576-.074.592-.523.008-.219,0-.439-.011-.66m2.393-3.5a5.5,5.5,0,0,0-2.178-1.2l.519-1.045a5.533,5.533,0,0,1,2.231,1.2Z" transform="translate(-0.52 -0.542)"></path><path class="cls-3" d="M476.959,34.212a17.263,17.263,0,0,0-2.628-3.1,8.234,8.234,0,0,0-.762-.7,2.239,2.239,0,0,1-.441-.407.916.916,0,0,1-.156-.57,1.2,1.2,0,0,1,.431-.879c.441-.451.9-.868,1.331-1.33.641-.7,1.292-1.394,1.918-2.132.256.225.51.439.765.664a1.821,1.821,0,0,1,.29.258.13.13,0,0,1,.042.094c0,.148-.2.165-.3.142-.6.552-1.224,1.091-1.837,1.653-.257.233-.494.49-.749.726-.121.112-.257.213-.367.336a.685.685,0,0,0-.225.413.392.392,0,0,0,.156.317c.367.364.779.677,1.157,1.02a18.277,18.277,0,0,1,2.327,2.616c-.321.285-.633.591-.953.876" transform="translate(-0.52 -0.542)"></path><path class="cls-3" d="M484.182,29.642a2.459,2.459,0,0,0-.749,2.265c.192,1.019,1.426,1.127,2.072,1.111a6.375,6.375,0,0,0,.636-.047c-.091.4-.2.788-.284,1.178l-.189,0c-1.263.032-3.077-.151-3.286-2.094a3.561,3.561,0,0,1,.675-2.708,18.894,18.894,0,0,0-3.12.806c-.068-.4-.166-.784-.253-1.171a8.066,8.066,0,0,0,1.652-.435,11.831,11.831,0,0,0,2.114-2.229,14.736,14.736,0,0,1-1.884.1c0-.368-.018-.739-.051-1.1a11.686,11.686,0,0,0,2.839-.087,2.72,2.72,0,0,0,.706-.271c.19.326.378.662.548,1a24.293,24.293,0,0,0-2.659,2.511c1.323-.2,2.654-.358,3.98-.478-.007.42.006.841-.007,1.26a4.687,4.687,0,0,0-2.74.391" transform="translate(-0.52 -0.542)"></path><path class="cls-3" d="M491.667,34.506c-.338-.308-.675-.63-1.033-.91a4.391,4.391,0,0,0,2.633-1.861,4.389,4.389,0,0,0,.373-1.654c.063-.949-.211-1.512-1.059-1.57a7.6,7.6,0,0,0-2.656.969c-.052-.165-.417-1.294-.411-1.389,0-.074.095-.058.133-.055A5.839,5.839,0,0,0,490.8,27.8a6.3,6.3,0,0,1,2.161-.4c1.458.1,2.019,1.293,1.914,2.884a4.775,4.775,0,0,1-3.2,4.223m1.6-7.95a13.48,13.48,0,0,0-2.587-.979c.174-.391.337-.783.512-1.175a9.948,9.948,0,0,1,2.648.991c-.182.391-.364.782-.573,1.163" transform="translate(-0.52 -0.542)"></path></g></g></g></g></svg>