<svg xmlns="http://www.w3.org/2000/svg" xmlns:xlink="http://www.w3.org/1999/xlink" width="535.206" height="122.047" viewBox="0 0 535.206 122.047"><defs><style>.cls-1,.cls-4{fill:none;}.cls-2{clip-path:url(#clip-path);}.cls-3{fill:#fff;}.cls-4{stroke:#fff;stroke-linecap:round;stroke-miterlimit:10;stroke-width:15.164px;}.cls-5{fill:#c21324;}.cls-6{clip-path:url(#clip-path-3);}.cls-7{fill:#e9321c;}.cls-8{clip-path:url(#clip-path-5);}.cls-9{fill:#8e0f2b;}.cls-10{clip-path:url(#clip-path-7);}.cls-11{fill:#da076d;}</style><clipPath id="clip-path" transform="translate(-0.52 -0.402)"><rect class="cls-1" width="122.936" height="122.936"></rect></clipPath><clipPath id="clip-path-3" transform="translate(-0.52 -0.402)"><rect class="cls-1" x="137.936" width="122.936" height="122.936"></rect></clipPath><clipPath id="clip-path-5" transform="translate(-0.52 -0.402)"><rect class="cls-1" x="275.363" width="122.936" height="122.936"></rect></clipPath><clipPath id="clip-path-7" transform="translate(-0.52 -0.402)"><rect class="cls-1" x="413.299" width="122.936" height="122.936"></rect></clipPath></defs><g id="&#x30EC;&#x30A4;&#x30E4;&#x30FC;_2" data-name="&#x30EC;&#x30A4;&#x30E4;&#x30FC; 2"><g id="&#x30EC;&#x30A4;&#x30E4;&#x30FC;_1-2" data-name="&#x30EC;&#x30A4;&#x30E4;&#x30FC; 1"><g class="cls-2"><g class="cls-2"><path class="cls-3" d="M11.286,15.737a19.3,19.3,0,0,1-1.837.718q-1.2.4-1.521.545V13.7A19.213,19.213,0,0,0,10.3,12.552a7.973,7.973,0,0,0,1.966-1.407h3.472V34.391H11.286Z" transform="translate(-0.52 -0.402)"></path><path class="cls-3" d="M94.555,58.69a3.389,3.389,0,1,1,3.393,3.391,3.393,3.393,0,0,1-3.393-3.391" transform="translate(-0.52 -0.402)"></path><path class="cls-3" d="M101.906,63.388a4.518,4.518,0,0,1,4.1,4.5v9.4a1.314,1.314,0,1,1-2.628,0V69.217c0-.3-.088-.712-.642-.712-.382,0-.462.405-.476.664V93.362a1.89,1.89,0,0,1-3.779,0V79.42a.512.512,0,0,0-.536-.553h0a.519.519,0,0,0-.546.553V93.362a1.888,1.888,0,1,1-3.775,0V69.169c-.013-.259-.095-.664-.475-.664-.557,0-.641.41-.641.712v8.072a1.314,1.314,0,1,1-2.628,0v-9.4a4.52,4.52,0,0,1,4.109-4.5,1.823,1.823,0,0,1,.248-.021h7.409a2,2,0,0,1,.259.021" transform="translate(-0.52 -0.402)"></path><path class="cls-3" d="M74.394,60.471a3.21,3.21,0,1,0-3.208,3.211,3.21,3.21,0,0,0,3.208-3.211" transform="translate(-0.52 -0.402)"></path><path class="cls-3" d="M64.717,67.743l-2.669,8.688s-.476,1.593.875,1.99,1.753-1.156,1.753-1.156l2.152-7.251s.117-.558.536-.437.262.716.262.716L63.88,83.882h3.484v9.733a1.672,1.672,0,0,0,3.344,0V83.882h.951v9.733a1.673,1.673,0,0,0,3.346,0V83.882h3.482L74.745,70.293s-.158-.6.26-.716.537.437.537.437l2.152,7.251s.409,1.555,1.751,1.156.877-1.99.877-1.99l-2.669-8.688s-.954-2.511-3.066-2.511h-6.8c-2.112,0-3.067,2.511-3.067,2.511" transform="translate(-0.52 -0.402)"></path><path class="cls-3" d="M55.165,60.471a3.21,3.21,0,1,0-3.209,3.211,3.212,3.212,0,0,0,3.209-3.211" transform="translate(-0.52 -0.402)"></path><path class="cls-3" d="M45.486,67.743l-2.667,8.688s-.477,1.593.875,1.99,1.752-1.156,1.752-1.156L47.6,70.014s.117-.558.536-.437.261.716.261.716L44.651,83.882h3.483v9.733a1.673,1.673,0,0,0,3.345,0V83.882h.951v9.733a1.673,1.673,0,0,0,3.345,0V83.882h3.484L55.517,70.293s-.159-.6.258-.716.538.437.538.437l2.15,7.251s.409,1.555,1.752,1.156.876-1.99.876-1.99l-2.669-8.688s-.951-2.511-3.064-2.511h-6.8c-2.11,0-3.068,2.511-3.068,2.511" transform="translate(-0.52 -0.402)"></path><path class="cls-3" d="M85.176,78.439A2.672,2.672,0,1,0,82.5,75.764a2.67,2.67,0,0,0,2.672,2.675" transform="translate(-0.52 -0.402)"></path><path class="cls-3" d="M78.769,86.741a.927.927,0,0,0,.389,1.264.892.892,0,0,0,1.146-.373L81.757,83s.252-.311.252.01V93.916h.006a1.371,1.371,0,0,0,2.742,0v-4.3s-.08-.608.411-.608.415.608.415.608v4.3a1.374,1.374,0,0,0,2.747,0V83.01c0-.321.17-.092.17-.092l1.138,3.173a7.625,7.625,0,0,0,.647,1.48,1.014,1.014,0,0,0,1.324-.548,1,1,0,0,0-.108-.975l.009-.01c-.032-.1-1.7-4.2-1.9-4.77-.6-1.76-1.7-1.745-2.755-1.774s-1.689,0-1.689,0-.675-.027-2.07.014-1.832.757-3.368,4.71c-.219.569-.961,2.411-.971,2.521Z" transform="translate(-0.52 -0.402)"></path><path class="cls-3" d="M26.493,58.69A3.39,3.39,0,1,0,23.1,62.081a3.394,3.394,0,0,0,3.394-3.391" transform="translate(-0.52 -0.402)"></path><path class="cls-3" d="M19.141,63.388a4.52,4.52,0,0,0-4.1,4.5v9.4a1.315,1.315,0,0,0,2.63,0V69.217c0-.3.088-.712.642-.712.382,0,.461.405.478.664V93.362a1.887,1.887,0,1,0,3.774,0V79.42a.516.516,0,0,1,.539-.553h0a.517.517,0,0,1,.544.553V93.362a1.888,1.888,0,1,0,3.776,0V69.169c.011-.259.1-.664.476-.664.557,0,.64.41.64.712v8.072a1.315,1.315,0,0,0,2.629,0v-9.4a4.519,4.519,0,0,0-4.108-4.5,1.839,1.839,0,0,0-.249-.021H19.4a1.968,1.968,0,0,0-.259.021" transform="translate(-0.52 -0.402)"></path><line class="cls-4" x1="15.665" y1="78.253" x2="12.654" y2="94.211"></line><path class="cls-3" d="M32.775,77.039a.973.973,0,0,0-1.8.515,1.775,1.775,0,0,0,.095.427l2.694,4.875a1.726,1.726,0,0,1,.165.643V93.968h.005a1.316,1.316,0,1,0,2.631,0V89.837s-.074-.585.4-.585.4.585.4.585v4.131a1.319,1.319,0,0,0,2.637,0V83.5a1.742,1.742,0,0,1,.163-.643l2.49-4.5a4.393,4.393,0,0,0,.3-.8.973.973,0,0,0-1.8-.515l-.011,0c-.078.067-1.326,2.288-1.737,2.7a1.079,1.079,0,0,1-.825.39H35.348a1.077,1.077,0,0,1-.826-.39c-.417-.411-1.659-2.632-1.738-2.7Z" transform="translate(-0.52 -0.402)"></path><path class="cls-3" d="M36.965,78.439a2.672,2.672,0,1,0-2.671-2.675,2.67,2.67,0,0,0,2.671,2.675" transform="translate(-0.52 -0.402)"></path><polygon class="cls-3" points="36.45 81.788 39.47 83.991 40.905 89.276 36.45 89.276 31.991 89.276 33.429 83.991 36.45 81.788"></polygon><path class="cls-3" d="M35.842,14.437a6.579,6.579,0,0,1-1.178-.751,3.217,3.217,0,0,1-.117.645c-.245.866-1.216.918-1.878.942l-.4-.751c.335,0,1.032,0,1.187-.433a1.925,1.925,0,0,0,.081-.384H32.281a4.334,4.334,0,0,1-1.632,1.62h4.467v3.938H34.047a4.352,4.352,0,0,0,2.147.771l-.6.985A9.407,9.407,0,0,1,32.805,19.8l.571-.539H30.921l.544.485a.268.268,0,0,1,.1.151c0,.082-.1.114-.154.114a.246.246,0,0,1-.147-.042,10.087,10.087,0,0,1-2.473,1.07l-.6-.923a4.921,4.921,0,0,0,2.119-.855h-.906v-3.3a4.6,4.6,0,0,1-.741.286l-.527-.845a4.2,4.2,0,0,0,2.783-1.7H29.552a4.822,4.822,0,0,1-1.007.562l-.724-.729a4.818,4.818,0,0,0,2.61-2.286l1.1.361a.134.134,0,0,1,.092.136c0,.139-.147.19-.237.2a5.739,5.739,0,0,1-.923.973h3.3a11.018,11.018,0,0,1-1.024-1.1l.97-.582a6.277,6.277,0,0,0,2.81,2.231Zm-1.758,1.629H30.359v.4h3.725Zm.008,1.036H30.359v.4h3.733Zm0,1.018H30.359v.391h3.733Z" transform="translate(-0.52 -0.402)"></path><path class="cls-3" d="M38.347,11.905h7.368V20.9H38.347Zm6.3.975H39.37v7.068h5.276Zm-.735,5.957a8.818,8.818,0,0,1-1.4-2.073v2.909h-.941V16.794a6.852,6.852,0,0,1-1.515,2.023l-.679-.71a6.5,6.5,0,0,0,1.913-2.71H39.734V14.51h1.8V13.122l.951.087c.083.009.171.021.171.148,0,.062-.072.126-.117.146V14.51H44.3V15.4H42.779a7.44,7.44,0,0,0,1.857,2.689Z" transform="translate(-0.52 -0.402)"></path><path class="cls-3" d="M54.908,16.233a.263.263,0,0,1-.135-.052c-.643.219-1.889.711-2.48.981v1.61l-1.055-.008c.008-.146.008-.3.008-.481V17.7c-.718.333-1.074.762-1.074,1.243,0,.419.411.638,1.226.638a13.547,13.547,0,0,0,2.608-.186l.014,1.17a10.919,10.919,0,0,1-2.3.124c-1.753,0-2.632-.552-2.632-1.673a2.064,2.064,0,0,1,.734-1.5,6.451,6.451,0,0,1,1.361-.9c-.016-.469-.161-.71-.42-.71a1.3,1.3,0,0,0-.923.4,7.862,7.862,0,0,0-.689.712c-.331.365-.536.617-.663.742-.162-.189-.412-.47-.742-.857A7.571,7.571,0,0,0,50,14.057c-.476.062-1.005.1-1.578.136-.037-.395-.089-.764-.142-1.087A15.313,15.313,0,0,0,50.331,13a8.349,8.349,0,0,0,.3-1.442l1.21.271a.125.125,0,0,1,.106.126c0,.062-.044.114-.141.156-.045.179-.127.45-.244.8a14.022,14.022,0,0,0,1.676-.386l-.1,1.149c-.492.106-1.155.21-1.978.325a6.588,6.588,0,0,1-.557,1.046,1.837,1.837,0,0,1,.51-.073c.549,0,.907.366,1.067,1.119.716-.377,1.531-.764,2.418-1.161l.413,1.171c0,.084-.036.126-.109.126" transform="translate(-0.52 -0.402)"></path><path class="cls-3" d="M32.382,27.2c-.437.125-.867.23-1.3.313a21.606,21.606,0,0,1-1.953,4.9c-.332-.166-.664-.365-.986-.563a17.055,17.055,0,0,0,1.791-4.215,9.106,9.106,0,0,1-1.334.113c-.044-.364-.1-.73-.144-1.107a3.668,3.668,0,0,0,.494.022,8.152,8.152,0,0,0,1.245-.086,11.2,11.2,0,0,0,.24-1.807c.422.063.835.115,1.247.209-.108.481-.215.974-.36,1.453a8.926,8.926,0,0,0,1.076-.358c0,.37-.011.745-.011,1.122m2.5,6.4A7.6,7.6,0,0,0,33.7,32.519c.006.116,0,.23,0,.343-.04,1.08-.74,1.371-1.547,1.371A2.548,2.548,0,0,1,31.3,34.1a1.591,1.591,0,0,1-1.055-1.485,1.56,1.56,0,0,1,1.634-1.588,4.308,4.308,0,0,1,.733.061c-.01-.491-.027-.983-.008-1.475a2.13,2.13,0,0,1,.133-.71h.806c.053,0,.316-.042.311.084a.066.066,0,0,1-.01.042,1.32,1.32,0,0,0-.185.637c-.021.554,0,1.1.019,1.652a6.416,6.416,0,0,1,1.9,1.245c-.219.356-.447.711-.692,1.034m-2.228-1.5a1.506,1.506,0,0,0-.64-.115c-.341,0-.767.1-.786.6s.494.7.846.7c.331,0,.575-.074.592-.523.008-.219,0-.439-.012-.659m2.393-3.5a5.5,5.5,0,0,0-2.177-1.2l.519-1.045a5.514,5.514,0,0,1,2.231,1.2Z" transform="translate(-0.52 -0.402)"></path><path class="cls-3" d="M41.589,34.278a17.23,17.23,0,0,0-2.627-3.1,8.13,8.13,0,0,0-.763-.7,2.175,2.175,0,0,1-.44-.407A.915.915,0,0,1,37.6,29.5a1.2,1.2,0,0,1,.431-.88c.44-.45.9-.868,1.33-1.33.642-.7,1.293-1.394,1.919-2.131.255.224.509.439.764.663a1.932,1.932,0,0,1,.291.258.136.136,0,0,1,.042.094c0,.148-.2.166-.3.142-.6.552-1.225,1.091-1.837,1.654-.257.233-.495.489-.75.726a4.654,4.654,0,0,0-.366.336.686.686,0,0,0-.226.413.4.4,0,0,0,.157.317c.366.364.779.677,1.156,1.02A18.323,18.323,0,0,1,42.542,33.4c-.321.286-.633.591-.953.877" transform="translate(-0.52 -0.402)"></path><path class="cls-3" d="M48.6,29.73a2.452,2.452,0,0,0-.8,2.245c.167,1.022,1.4,1.162,2.044,1.162.206,0,.422-.011.637-.031-.1.4-.215.782-.314,1.169h-.189c-1.263,0-3.071-.226-3.233-2.175a3.561,3.561,0,0,1,.742-2.689,18.536,18.536,0,0,0-3.14.729c-.058-.4-.145-.79-.224-1.178a8.063,8.063,0,0,0,1.663-.394,11.857,11.857,0,0,0,2.169-2.177,14.538,14.538,0,0,1-1.886.051c0-.368,0-.739-.024-1.1a11.734,11.734,0,0,0,2.84-.017,2.735,2.735,0,0,0,.713-.254c.182.331.361.671.522,1.01a24.483,24.483,0,0,0-2.72,2.445c1.329-.171,2.662-.292,3.99-.38-.016.419-.014.842-.037,1.259a4.68,4.68,0,0,0-2.749.325" transform="translate(-0.52 -0.402)"></path><path class="cls-3" d="M55.877,34.676c-.337-.308-.675-.629-1.033-.91a4.381,4.381,0,0,0,2.633-1.86,4.393,4.393,0,0,0,.373-1.653c.063-.949-.211-1.514-1.059-1.571a7.574,7.574,0,0,0-2.655.969c-.052-.165-.418-1.295-.412-1.391.005-.073.1-.056.133-.055a5.782,5.782,0,0,0,1.15-.233,6.287,6.287,0,0,1,2.16-.4c1.459.1,2.02,1.294,1.914,2.885a4.773,4.773,0,0,1-3.2,4.222m1.6-7.844a13.475,13.475,0,0,0-2.586-.98c.174-.391.336-.782.511-1.175a9.948,9.948,0,0,1,2.648.991c-.182.392-.364.783-.573,1.164" transform="translate(-0.52 -0.402)"></path><rect class="cls-5" y="0.14" width="121.907" height="121.907"></rect><path class="cls-3" d="M16.837,28.881h-7v-3.5L15.89,11.145h4.964V25.523h2.325v3.358H20.854v5.51H16.837Zm0-3.358V15.651l-3.53,9.872Z" transform="translate(-0.52 -0.402)"></path><polygon class="cls-3" points="54.026 65.525 32.061 52.843 32.061 93.871 54.026 100.498 54.026 65.525"></polygon><polygon class="cls-3" points="56.441 65.609 56.441 100.512 78.548 93.866 78.548 52.844 56.441 65.609"></polygon><polygon class="cls-3" points="91.239 93.143 90.594 93.143 93.194 102.226 95.789 93.143 95.144 93.143 95.789 93.143 95.789 56.64 95.144 56.64 94.499 56.64 93.815 56.64 92.522 56.64 91.884 56.64 91.239 56.64 90.592 56.64 90.592 93.143 91.239 93.143"></polygon><polygon class="cls-3" points="83.266 54.605 80.911 52.745 80.911 94.983 56.506 102.869 55.377 102.869 55.154 102.869 54.026 102.869 29.729 96.082 29.729 52.745 27.373 54.605 27.373 97.734 53.914 105.081 55.154 105.081 55.377 105.081 56.616 105.081 81.103 97.307 83.266 96.67 83.266 54.605"></polygon><path class="cls-3" d="M96.31,52.207a2.6,2.6,0,1,0-5.2,0v2.8h5.2Z" transform="translate(-0.52 -0.402)"></path><path class="cls-3" d="M35.156,13.288l.01,1.128h-.95V13.257h-.6a2.952,2.952,0,0,1-.984,1.933l-.76-.533c.771-.626.787-1.221.787-2.236,0-.388-.016-.775-.033-1.162l.821.063a8.08,8.08,0,0,0,1.773-.473l.725.881c0,.084-.09.115-.145.115a.379.379,0,0,1-.179-.063c-.653.125-1.315.2-1.977.261,0,.146,0,.283-.008.429H36.83v.816Zm3.777.094v1.034H37.9V13.328H37.2a2.233,2.233,0,0,1-.843,1.349h2.568v4.089H37.867a4.832,4.832,0,0,0,2.194.753l-.662.986a11.391,11.391,0,0,1-2.837-1.2c.2-.19.421-.336.61-.536H34.816c.079.1.545.536.545.619a.114.114,0,0,1-.124.1.364.364,0,0,1-.108-.022,9.682,9.682,0,0,1-2.613,1.006l-.572-.858a4.3,4.3,0,0,0,2.163-.849h-.971V14.677h2.942c-.179-.1-.348-.227-.519-.343a1.591,1.591,0,0,0,.735-1.558c0-.513-.011-1.036-.037-1.549l.825.064a6.171,6.171,0,0,0,1.762-.461l.824.848c.035.041.1.093.1.156,0,.084-.116.1-.161.1a.465.465,0,0,1-.233-.064c-.707.085-1.414.158-2.121.188,0,.157,0,.3-.007.461h2.844v.868ZM37.86,15.421H34.081v.427H37.86Zm.007,1.088H34.081v.408h3.786Zm0,1.076H34.081V18h3.786Z" transform="translate(-0.52 -0.402)"></path><path class="cls-3" d="M45.9,19.812c-.278-.3-.526-.627-.8-.92,1.413-.4,2.719-.972,2.719-2.959a2.748,2.748,0,0,0-1.869-2.844c-.243,1.81-.717,4.686-2.121,5.751a1.361,1.361,0,0,1-.833.335,1.332,1.332,0,0,1-.957-.606,3.731,3.731,0,0,1-.574-2.144,4.116,4.116,0,0,1,3.947-4.372,3.5,3.5,0,0,1,3.57,3.806A3.8,3.8,0,0,1,45.9,19.812m-3.149-4.82a4.07,4.07,0,0,0-.25,1.433c0,.428.08,1.537.581,1.537.181,0,.331-.2.439-.335.842-1,1.2-3.147,1.288-4.517a3.232,3.232,0,0,0-2.058,1.882" transform="translate(-0.52 -0.402)"></path><path class="cls-3" d="M50.707,12.776v-.953h3.13V10.8l1.121.074A.128.128,0,0,1,55.1,11a.226.226,0,0,1-.152.178v.646H58.18v.953Zm5.735,7.592-.679-.849c.625-.124,1.163-.208,1.163-1.117V16.487H52v3.64H50.985V15.673h7v2.8a1.643,1.643,0,0,1-1.54,1.893M52.03,13.13h4.815v2.144H52.03Zm.574,3.828h3.742v2.311H52.6Zm3.232-3.065H53.005v.651h2.831ZM55.387,17.7H53.544v.784h1.843Z" transform="translate(-0.52 -0.402)"></path><path class="cls-3" d="M61.783,19.824a.952.952,0,0,1-.7-.305,5.471,5.471,0,0,1-1.05-3.445,17,17,0,0,1,.181-2.872c.044-.366.089-.723.148-1.081a7.31,7.31,0,0,1,1.268.468.131.131,0,0,1,.065.113c0,.115-.1.181-.182.205a10.9,10.9,0,0,0-.345,2.111,10.709,10.709,0,0,0-.019,1.33,5.268,5.268,0,0,0,.218,1.4c.06.2.2.674.42.668.43-.011.966-1.4,1.151-1.821l.564,1.335c-.267.7-1.013,1.879-1.721,1.9m4.368-1.7a9.526,9.526,0,0,0-1.516-4.416c.372-.177.715-.384,1.086-.552A11.281,11.281,0,0,1,67.3,17.584c-.379.2-.76.374-1.149.543" transform="translate(-0.52 -0.402)"></path><path class="cls-3" d="M73.713,12.1a14.261,14.261,0,0,1-1.09,1.966h.58v.846H72.057c-.133.167-.258.335-.4.5H72.89v.722a9.7,9.7,0,0,1-.966,1.026v.261c.491-.083.992-.167,1.485-.283l-.081.963c-.447.127-.9.2-1.351.292v.617a1.492,1.492,0,0,1-1.262,1.633l-.661-.764c.77-.22.929-.366.929-1.318-.4.094-.814.178-1.216.272-.008.063-.064.177-.125.177s-.082-.041-.1-.094l-.412-1.065c.607-.074,1.216-.181,1.816-.294,0-.334-.018-.68-.018-1.016l.547.033a2.536,2.536,0,0,0,.339-.47h-.823a7.041,7.041,0,0,1-1.585,1.2l-.616-.711A7.326,7.326,0,0,0,70.885,14.9h-1.87V14.03h1.5v-.9H69.365v-.96H70.51v-1.3l1.064.1a.1.1,0,0,1,.108.1.241.241,0,0,1-.134.19v.92h1.293l-.613.6a13.09,13.09,0,0,0,.589-1.568l.978.6a.2.2,0,0,1,.105.168c0,.115-.125.125-.187.115m-2.184,1.014v.93a9.473,9.473,0,0,0,.555-.93Zm5.208,7.3a7.573,7.573,0,0,1-1.548-1.746,6.822,6.822,0,0,1-2.209,1.861l-.654-.815a4.568,4.568,0,0,0,2.264-1.944,10.377,10.377,0,0,1-.7-2.082,4.557,4.557,0,0,1-.36.575l-.617-.668a11.873,11.873,0,0,0,1.416-4.718l1.134.357a.2.2,0,0,1,.117.175c0,.1-.133.18-.2.2-.124.491-.259.991-.41,1.473h2.246v.932H76.73a10.183,10.183,0,0,1-.923,3.774,6.312,6.312,0,0,0,1.709,1.768Zm-2.092-6.4-.092.23a11.723,11.723,0,0,0,.62,2.476,10.711,10.711,0,0,0,.5-2.706Z" transform="translate(-0.52 -0.402)"></path><path class="cls-3" d="M84.28,12.827c.546.639,1.126,1.236,1.646,1.9l-.8.735a8.247,8.247,0,0,0-.728-.92c-1.842.168-3.694.219-5.548.333l-.214-1.013h.923a.515.515,0,0,0,.348-.146,5.229,5.229,0,0,0,.7-.891H78.336v-.9h3.277V10.852l1.26.083c.064,0,.108.074.108.148,0,.092-.125.178-.186.208v.636h3.3v.9ZM83.573,20.4l-.646-.775c.6-.1.967-.219.967-1.024H80.466v1.715h-1.01V15.232h5.486V18.81a1.391,1.391,0,0,1-1.369,1.59m-3.115-4.372v.47h3.436l.011-.47Zm3.447,1.244H80.458v.513h3.447Zm-1.774-4.445c-.377.356-.733.753-1.136,1.078.9-.031,1.816-.094,2.72-.146-.161-.147-.313-.313-.464-.471.259-.145.518-.293.769-.461Z" transform="translate(-0.52 -0.402)"></path><path class="cls-3" d="M94.634,16.1a.239.239,0,0,1-.131-.052c-.647.217-1.891.711-2.48.981v1.611l-1.057-.01c.01-.145.01-.3.01-.48v-.585c-.717.333-1.075.762-1.075,1.243,0,.419.412.637,1.226.637a7.918,7.918,0,0,0,2.605-.417L93.7,20.254a7.454,7.454,0,0,1-2.248.3c-1.754,0-2.632-.552-2.632-1.674a2.075,2.075,0,0,1,.734-1.5,6.458,6.458,0,0,1,1.361-.9c-.017-.471-.162-.712-.421-.712a1.3,1.3,0,0,0-.921.4,7.993,7.993,0,0,0-.689.708c-.332.368-.538.619-.663.745-.161-.19-.411-.471-.744-.858a7.544,7.544,0,0,0,2.257-2.834c-.474.062-1,.106-1.575.136-.035-.4-.09-.763-.144-1.086a15.307,15.307,0,0,0,2.049-.106,8.574,8.574,0,0,0,.305-1.445l1.207.274a.125.125,0,0,1,.108.125c0,.062-.043.114-.143.156-.045.179-.125.451-.24.8a14.2,14.2,0,0,0,1.672-.385l-.1,1.149c-.492.106-1.155.21-1.977.326a6.463,6.463,0,0,1-.557,1.045,1.8,1.8,0,0,1,.51-.073c.546,0,.906.367,1.065,1.119.716-.377,1.532-.764,2.417-1.161l.411,1.171c0,.084-.034.126-.108.126" transform="translate(-0.52 -0.402)"></path><path class="cls-3" d="M39.633,31.868a13.1,13.1,0,0,0-1.217-.9,5.548,5.548,0,0,1-1.843,2.647L35.643,33a4.534,4.534,0,0,0,1.824-2.517,6.573,6.573,0,0,0-1.672-.63,11.074,11.074,0,0,1-.432,1.087c-.384.866-.868,1.746-1.78,1.746-.751,0-1.278-.726-1.278-1.629a2.269,2.269,0,0,1,1.654-2.2,3.853,3.853,0,0,1,1.092-.1,17.2,17.2,0,0,0,.654-2.57l-1.907.335-.207-1.248h.1a12.34,12.34,0,0,0,3.016-.392,6.489,6.489,0,0,0,.439.5c-.189.661-.4,1.312-.592,1.972-.152.5-.294,1-.466,1.49a6.514,6.514,0,0,1,1.675.545,9.831,9.831,0,0,0,.3-2.174c.358.248.715.488,1.057.759a12.046,12.046,0,0,1-.332,1.89,10.76,10.76,0,0,1,1.36.792c-.16.4-.331.815-.51,1.214M33.316,31c0,.272.1.511.338.511a.449.449,0,0,0,.377-.2,5.686,5.686,0,0,0,.725-1.6c-.626.056-1.44.369-1.44,1.281" transform="translate(-0.52 -0.402)"></path><path class="cls-3" d="M46.281,33.485c-1.19,0-1.1-1.269-1.1-2.257v-.976c0-.29.008-.641-.323-.641a.917.917,0,0,0-.241.042c-1.343.39-1.853,2.47-2.275,3.779-.356-.194-.7-.39-1.055-.587.367-1.019.779-2.007,1.2-3.006.473-1.113.938-2.238,1.422-3.35.269-.618.518-1.246.8-1.855a10.915,10.915,0,0,1,1.129.58.109.109,0,0,1,.061.1.144.144,0,0,1-.15.131c-.6,1.041-1.137,2.145-1.684,3.214-.053.1-.106.2-.161.29a2.551,2.551,0,0,1,1.191-.391c.867,0,1.138.668,1.138,1.564,0,.537-.011,1.061-.011,1.6,0,.27.036.641.34.641a1.922,1.922,0,0,0,1.128-.661,6.109,6.109,0,0,0,.912-1.359c.143.5.284.979.413,1.473a3.334,3.334,0,0,1-2.738,1.669" transform="translate(-0.52 -0.402)"></path><path class="cls-3" d="M54.611,26.681c-.438.125-.867.231-1.306.313A21.63,21.63,0,0,1,51.353,31.9c-.332-.167-.665-.365-.985-.564a17.039,17.039,0,0,0,1.791-4.215,8.993,8.993,0,0,1-1.334.113c-.045-.363-.1-.73-.144-1.107a3.638,3.638,0,0,0,.493.022,8.279,8.279,0,0,0,1.245-.085,11.091,11.091,0,0,0,.241-1.807c.421.062.834.114,1.245.209-.107.481-.213.973-.358,1.453a9.152,9.152,0,0,0,1.075-.358c0,.369-.011.745-.011,1.121m2.5,6.4A7.551,7.551,0,0,0,55.925,32c.006.116,0,.231,0,.344-.04,1.079-.739,1.37-1.547,1.37a2.583,2.583,0,0,1-.847-.134,1.591,1.591,0,0,1-1.053-1.486,1.56,1.56,0,0,1,1.634-1.588,4.3,4.3,0,0,1,.732.061c-.009-.491-.026-.982-.009-1.475a2.214,2.214,0,0,1,.134-.71h.807c.053,0,.314-.042.31.084a.057.057,0,0,1-.01.042,1.335,1.335,0,0,0-.185.638c-.02.554,0,1.1.019,1.652a6.363,6.363,0,0,1,1.9,1.244,12.25,12.25,0,0,1-.691,1.035m-2.227-1.506a1.512,1.512,0,0,0-.642-.114c-.34,0-.766.1-.784.595s.494.7.845.7c.33,0,.575-.074.591-.523.009-.219,0-.439-.01-.66m2.392-3.5a5.5,5.5,0,0,0-2.177-1.2l.519-1.044a5.5,5.5,0,0,1,2.23,1.2Z" transform="translate(-0.52 -0.402)"></path><path class="cls-3" d="M61.445,33.4c-.327.032-.651.075-.987.116a13.427,13.427,0,0,1-.469-4.031,25.456,25.456,0,0,1,.469-4.536l.787.181a2.518,2.518,0,0,1,.389.1.131.131,0,0,1,.1.138.147.147,0,0,1-.146.138,20.586,20.586,0,0,0-.525,4.707c0,.385.019.761.019,1.146.162-.482.316-.974.487-1.456.227.2.454.417.678.622a9.887,9.887,0,0,0-.8,2.877m5.851-.306a7.322,7.322,0,0,1-1.652.092c-1.292-.04-2.5-.247-2.654-2.19.3-.224.61-.462.922-.678,0,1.1.524,1.6,1.367,1.626a5.814,5.814,0,0,0,2.038-.242c-.007.464-.014.921-.021,1.392m-.226-5.934a7.087,7.087,0,0,0-2.095-.126,9.708,9.708,0,0,0-1.449.247c-.038-.382-.064-.856-.112-1.238a11.231,11.231,0,0,1,2.052-.244,7.763,7.763,0,0,1,1.707.084c-.034.423-.058.854-.1,1.277" transform="translate(-0.52 -0.402)"></path></g></g><g class="cls-6"><g class="cls-6"><path class="cls-3" d="M149.222,15.737a19.3,19.3,0,0,1-1.837.718q-1.2.4-1.521.545V13.7a19.282,19.282,0,0,0,2.368-1.148,7.984,7.984,0,0,0,1.965-1.407h3.473V34.391h-4.448Z" transform="translate(-0.52 -0.402)"></path><path class="cls-3" d="M232.491,58.69a3.389,3.389,0,1,1,3.393,3.391,3.393,3.393,0,0,1-3.393-3.391" transform="translate(-0.52 -0.402)"></path><path class="cls-3" d="M239.841,63.388a4.518,4.518,0,0,1,4.1,4.5v9.4a1.314,1.314,0,1,1-2.627,0V69.217c0-.3-.088-.712-.642-.712-.383,0-.462.405-.476.664V93.362a1.89,1.89,0,0,1-3.779,0V79.42a.513.513,0,0,0-.536-.553h0a.519.519,0,0,0-.546.553V93.362a1.888,1.888,0,1,1-3.775,0V69.169c-.013-.259-.095-.664-.475-.664-.557,0-.641.41-.641.712v8.072a1.314,1.314,0,1,1-2.628,0v-9.4a4.519,4.519,0,0,1,4.108-4.5,1.853,1.853,0,0,1,.249-.021h7.409a1.966,1.966,0,0,1,.258.021" transform="translate(-0.52 -0.402)"></path><path class="cls-3" d="M212.33,60.471a3.21,3.21,0,1,0-3.208,3.211,3.21,3.21,0,0,0,3.208-3.211" transform="translate(-0.52 -0.402)"></path><path class="cls-3" d="M202.652,67.743l-2.668,8.688s-.476,1.593.875,1.99,1.753-1.156,1.753-1.156l2.152-7.251s.117-.558.536-.437.262.716.262.716l-3.746,13.589H205.3v9.733a1.672,1.672,0,0,0,3.344,0V83.882h.951v9.733a1.673,1.673,0,0,0,3.346,0V83.882h3.482L212.68,70.293s-.157-.6.261-.716.537.437.537.437l2.151,7.251s.41,1.555,1.752,1.156.876-1.99.876-1.99l-2.668-8.688s-.954-2.511-3.066-2.511h-6.8c-2.112,0-3.068,2.511-3.068,2.511" transform="translate(-0.52 -0.402)"></path><path class="cls-3" d="M193.1,60.471a3.21,3.21,0,1,0-3.209,3.211,3.212,3.212,0,0,0,3.209-3.211" transform="translate(-0.52 -0.402)"></path><path class="cls-3" d="M183.422,67.743l-2.667,8.688s-.477,1.593.875,1.99,1.751-1.156,1.751-1.156l2.153-7.251s.116-.558.536-.437.261.716.261.716l-3.744,13.589h3.483v9.733a1.673,1.673,0,0,0,3.345,0V83.882h.951v9.733a1.673,1.673,0,0,0,3.345,0V83.882h3.483l-3.742-13.589s-.159-.6.259-.716.537.437.537.437l2.15,7.251s.41,1.555,1.753,1.156.876-1.99.876-1.99l-2.669-8.688s-.952-2.511-3.065-2.511h-6.8c-2.111,0-3.068,2.511-3.068,2.511" transform="translate(-0.52 -0.402)"></path><path class="cls-3" d="M223.112,78.439a2.672,2.672,0,1,0-2.673-2.675,2.67,2.67,0,0,0,2.673,2.675" transform="translate(-0.52 -0.402)"></path><path class="cls-3" d="M216.705,86.741a.927.927,0,0,0,.389,1.264.89.89,0,0,0,1.145-.373L219.692,83s.252-.311.252.01V93.916h.007a1.371,1.371,0,0,0,2.742,0v-4.3s-.08-.608.411-.608.415.608.415.608v4.3a1.374,1.374,0,0,0,2.747,0V83.01c0-.321.17-.092.17-.092l1.138,3.173a7.564,7.564,0,0,0,.647,1.48,1.014,1.014,0,0,0,1.324-.548,1,1,0,0,0-.109-.975l.01-.01c-.032-.1-1.7-4.2-1.9-4.77-.6-1.76-1.7-1.745-2.756-1.774s-1.688,0-1.688,0-.675-.027-2.07.014-1.832.757-3.368,4.71c-.219.569-.961,2.411-.971,2.521Z" transform="translate(-0.52 -0.402)"></path><path class="cls-3" d="M164.428,58.69a3.39,3.39,0,1,0-3.393,3.391,3.393,3.393,0,0,0,3.393-3.391" transform="translate(-0.52 -0.402)"></path><path class="cls-3" d="M157.077,63.388a4.52,4.52,0,0,0-4.1,4.5v9.4a1.315,1.315,0,0,0,2.63,0V69.217c0-.3.088-.712.642-.712.381,0,.461.405.477.664V93.362a1.888,1.888,0,1,0,3.775,0V79.42a.516.516,0,0,1,.539-.553h0a.518.518,0,0,1,.545.553V93.362a1.888,1.888,0,1,0,3.776,0V69.169c.011-.259.1-.664.476-.664.557,0,.64.41.64.712v8.072a1.315,1.315,0,0,0,2.629,0v-9.4a4.519,4.519,0,0,0-4.108-4.5,1.867,1.867,0,0,0-.249-.021h-7.41a1.966,1.966,0,0,0-.258.021" transform="translate(-0.52 -0.402)"></path><line class="cls-4" x1="153.601" y1="78.253" x2="150.59" y2="94.211"></line><path class="cls-3" d="M170.711,77.039a.973.973,0,0,0-1.8.515,1.775,1.775,0,0,0,.095.427l2.694,4.875a1.726,1.726,0,0,1,.165.643V93.968h.005a1.316,1.316,0,1,0,2.631,0V89.837s-.074-.585.4-.585.4.585.4.585v4.131a1.319,1.319,0,0,0,2.637,0V83.5a1.742,1.742,0,0,1,.163-.643l2.49-4.5a4.393,4.393,0,0,0,.305-.8.973.973,0,0,0-.974-.972.962.962,0,0,0-.824.457l-.012,0c-.078.067-1.325,2.288-1.736,2.7a1.079,1.079,0,0,1-.825.39h-3.238a1.077,1.077,0,0,1-.826-.39c-.417-.411-1.659-2.632-1.739-2.7Z" transform="translate(-0.52 -0.402)"></path><path class="cls-3" d="M174.9,78.439a2.672,2.672,0,1,0-2.671-2.675,2.67,2.67,0,0,0,2.671,2.675" transform="translate(-0.52 -0.402)"></path><polygon class="cls-3" points="174.386 81.788 177.406 83.991 178.841 89.276 174.386 89.276 169.926 89.276 171.365 83.991 174.386 81.788"></polygon><path class="cls-3" d="M173.778,14.437a6.544,6.544,0,0,1-1.178-.751,3.29,3.29,0,0,1-.117.645c-.245.866-1.216.918-1.878.942l-.4-.751c.335,0,1.032,0,1.187-.433a1.925,1.925,0,0,0,.081-.384h-1.259a4.334,4.334,0,0,1-1.632,1.62h4.467v3.938h-1.069a4.352,4.352,0,0,0,2.147.771l-.6.985a9.384,9.384,0,0,1-2.793-1.217l.571-.539h-2.455l.544.485a.265.265,0,0,1,.1.151c0,.082-.1.114-.153.114a.246.246,0,0,1-.147-.042,10.087,10.087,0,0,1-2.473,1.07l-.6-.923a4.921,4.921,0,0,0,2.119-.855h-.906v-3.3a4.6,4.6,0,0,1-.741.286l-.527-.845a4.2,4.2,0,0,0,2.783-1.7h-1.369a4.822,4.822,0,0,1-1.007.562l-.724-.729a4.821,4.821,0,0,0,2.61-2.286l1.1.361a.133.133,0,0,1,.091.136c0,.139-.146.19-.236.2a5.739,5.739,0,0,1-.923.973h3.3a11.018,11.018,0,0,1-1.024-1.1l.97-.582a6.271,6.271,0,0,0,2.81,2.231Zm-1.758,1.629H168.3v.4h3.725Zm.008,1.036H168.3v.4h3.733Zm0,1.018H168.3v.391h3.733Z" transform="translate(-0.52 -0.402)"></path><path class="cls-3" d="M176.283,11.905h7.368V20.9h-7.368Zm6.3.975h-5.276v7.068h5.276Zm-.735,5.957a8.788,8.788,0,0,1-1.4-2.073v2.909h-.942V16.794a6.832,6.832,0,0,1-1.514,2.023l-.679-.71a6.493,6.493,0,0,0,1.912-2.71H177.67V14.51h1.8V13.122l.951.087c.083.009.171.021.171.148,0,.062-.072.126-.117.146V14.51h1.76V15.4h-1.523a7.438,7.438,0,0,0,1.856,2.689Z" transform="translate(-0.52 -0.402)"></path><path class="cls-3" d="M192.844,16.233a.26.26,0,0,1-.135-.052c-.643.219-1.889.711-2.48.981v1.61l-1.055-.008c.008-.146.008-.3.008-.481V17.7c-.718.333-1.074.762-1.074,1.243,0,.419.41.638,1.225.638a13.536,13.536,0,0,0,2.608-.186l.015,1.17a10.919,10.919,0,0,1-2.3.124c-1.753,0-2.633-.552-2.633-1.673a2.065,2.065,0,0,1,.735-1.5,6.44,6.44,0,0,1,1.36-.9c-.015-.469-.16-.71-.42-.71a1.3,1.3,0,0,0-.922.4,7.862,7.862,0,0,0-.689.712c-.332.365-.537.617-.663.742-.162-.189-.412-.47-.742-.857a7.558,7.558,0,0,0,2.256-2.835c-.475.062-1,.1-1.577.136-.037-.395-.089-.764-.142-1.087A15.313,15.313,0,0,0,188.267,13a8.447,8.447,0,0,0,.305-1.442l1.21.271a.125.125,0,0,1,.106.126c0,.062-.045.114-.141.156-.046.179-.127.45-.244.8a14.066,14.066,0,0,0,1.676-.386l-.1,1.149c-.492.106-1.155.21-1.978.325a6.671,6.671,0,0,1-.557,1.046,1.833,1.833,0,0,1,.51-.073c.549,0,.906.366,1.067,1.119.716-.377,1.531-.764,2.418-1.161l.413,1.171c0,.084-.036.126-.109.126" transform="translate(-0.52 -0.402)"></path><path class="cls-3" d="M170.318,27.2c-.438.125-.867.23-1.305.313a21.608,21.608,0,0,1-1.954,4.9c-.331-.166-.663-.365-.985-.563a17.055,17.055,0,0,0,1.791-4.215,9.118,9.118,0,0,1-1.334.113c-.045-.364-.1-.73-.144-1.107a3.661,3.661,0,0,0,.494.022,8.152,8.152,0,0,0,1.245-.086,11.2,11.2,0,0,0,.24-1.807c.422.063.835.115,1.246.209-.107.481-.214.974-.359,1.453a8.985,8.985,0,0,0,1.076-.358c0,.37-.011.745-.011,1.122m2.5,6.4a7.6,7.6,0,0,0-1.189-1.076c0,.116,0,.23,0,.343-.04,1.08-.74,1.371-1.547,1.371a2.548,2.548,0,0,1-.846-.135,1.59,1.59,0,0,1-1.055-1.485,1.56,1.56,0,0,1,1.634-1.588,4.308,4.308,0,0,1,.733.061c-.01-.491-.027-.983-.008-1.475a2.13,2.13,0,0,1,.133-.71h.806c.053,0,.315-.042.311.084a.066.066,0,0,1-.01.042,1.309,1.309,0,0,0-.185.637c-.021.554-.006,1.1.018,1.652a6.391,6.391,0,0,1,1.9,1.245c-.218.356-.446.711-.691,1.034m-2.228-1.5a1.508,1.508,0,0,0-.641-.115c-.34,0-.766.1-.785.6s.494.7.846.7c.331,0,.575-.074.591-.523.008-.219,0-.439-.011-.659m2.393-3.5a5.5,5.5,0,0,0-2.177-1.2l.518-1.045a5.518,5.518,0,0,1,2.232,1.2Z" transform="translate(-0.52 -0.402)"></path><path class="cls-3" d="M179.525,34.278a17.194,17.194,0,0,0-2.628-3.1,8,8,0,0,0-.762-.7,2.148,2.148,0,0,1-.44-.407.922.922,0,0,1-.157-.569,1.207,1.207,0,0,1,.431-.88c.441-.45.9-.868,1.331-1.33.642-.7,1.293-1.394,1.919-2.131.255.224.509.439.764.663a1.877,1.877,0,0,1,.29.258.128.128,0,0,1,.042.094c0,.148-.2.166-.3.142-.6.552-1.225,1.091-1.837,1.654-.257.233-.5.489-.75.726a4.654,4.654,0,0,0-.366.336.681.681,0,0,0-.226.413.4.4,0,0,0,.157.317c.366.364.779.677,1.156,1.02a18.323,18.323,0,0,1,2.327,2.615c-.321.286-.633.591-.953.877" transform="translate(-0.52 -0.402)"></path><path class="cls-3" d="M186.537,29.73a2.452,2.452,0,0,0-.8,2.245c.167,1.022,1.4,1.162,2.044,1.162.206,0,.422-.011.637-.031-.1.4-.215.782-.314,1.169h-.189c-1.263,0-3.071-.226-3.233-2.175a3.561,3.561,0,0,1,.742-2.689,18.536,18.536,0,0,0-3.14.729c-.058-.4-.145-.79-.224-1.178a8.078,8.078,0,0,0,1.663-.394,11.889,11.889,0,0,0,2.169-2.177,14.549,14.549,0,0,1-1.887.051c0-.368,0-.739-.023-1.1a11.734,11.734,0,0,0,2.84-.017,2.735,2.735,0,0,0,.713-.254c.182.331.361.671.522,1.01a24.483,24.483,0,0,0-2.72,2.445c1.329-.171,2.662-.292,3.99-.38-.016.419-.014.842-.037,1.259a4.68,4.68,0,0,0-2.749.325" transform="translate(-0.52 -0.402)"></path><path class="cls-3" d="M193.813,34.676c-.337-.308-.675-.629-1.033-.91a4.381,4.381,0,0,0,2.633-1.86,4.373,4.373,0,0,0,.372-1.653c.063-.949-.21-1.514-1.058-1.571a7.567,7.567,0,0,0-2.655.969c-.052-.165-.418-1.295-.412-1.391,0-.073.1-.056.133-.055a5.782,5.782,0,0,0,1.15-.233,6.282,6.282,0,0,1,2.16-.4c1.459.1,2.02,1.294,1.914,2.885a4.773,4.773,0,0,1-3.2,4.222m1.6-7.844a13.475,13.475,0,0,0-2.586-.98c.174-.391.336-.782.511-1.175a9.974,9.974,0,0,1,2.648.991c-.182.392-.364.783-.573,1.164" transform="translate(-0.52 -0.402)"></path><rect class="cls-7" x="137.936" y="0.14" width="121.907" height="121.907"></rect><path class="cls-3" d="M150.669,33.917a4.275,4.275,0,0,1-1.808-2.4,13.067,13.067,0,0,1-.488-3.874h4.305a8.233,8.233,0,0,0,.373,2.912,1.653,1.653,0,0,0,2.726.33,3.279,3.279,0,0,0,.5-1.564q.1-.99.1-2.855a9.7,9.7,0,0,0-.388-3.171,1.537,1.537,0,0,0-1.592-1.048q-1.551,0-1.981,2.095H148.6l.316-13.2h10.7v3.817h-7.059l-.258,5.137a3,3,0,0,1,1.377-.818,6.523,6.523,0,0,1,2.095-.33,3.96,3.96,0,0,1,3.587,1.923,10.152,10.152,0,0,1,1.206,5.4,18.054,18.054,0,0,1-.488,4.577,5.191,5.191,0,0,1-1.851,2.87,6.277,6.277,0,0,1-3.889,1.048,6.78,6.78,0,0,1-3.673-.847" transform="translate(-0.52 -0.402)"></path><path class="cls-3" d="M227.378,46.6H212.157a.2.2,0,0,0-.193.194v5.058a.2.2,0,0,0,.193.2h6.061l-6.73,6.731a19.928,19.928,0,1,0-14.864,35.442v5.828h-6a.192.192,0,0,0-.2.192v5.422a.192.192,0,0,0,.2.193h6v5.736a.193.193,0,0,0,.194.193h5.418a.194.194,0,0,0,.2-.193v-5.736h6a.192.192,0,0,0,.193-.193v-5.422a.192.192,0,0,0-.193-.192h-6V94.126a19.917,19.917,0,0,0,13.059-31.135l6.634-6.635v5.661a.2.2,0,0,0,.2.193h5.057a.2.2,0,0,0,.2-.193V46.8a.2.2,0,0,0-.2-.194M199.2,89.131a14.674,14.674,0,1,1,14.675-14.674A14.689,14.689,0,0,1,199.2,89.131" transform="translate(-0.52 -0.402)"></path><path class="cls-3" d="M208.16,68.434h-17.8a.185.185,0,0,0-.193.173v4.309a.183.183,0,0,0,.193.177h17.8a.184.184,0,0,0,.2-.177V68.607a.186.186,0,0,0-.2-.173" transform="translate(-0.52 -0.402)"></path><path class="cls-3" d="M208.16,76.128h-17.8a.187.187,0,0,0-.193.179v4.309a.184.184,0,0,0,.193.174h17.8a.185.185,0,0,0,.2-.174V76.307a.188.188,0,0,0-.2-.179" transform="translate(-0.52 -0.402)"></path><path class="cls-3" d="M172.812,16.423a11.423,11.423,0,0,0-2.085-1.559c.225-.344.428-.71.654-1.065a9.163,9.163,0,0,1,2.111,1.516Zm-1.359,3.86c-.072-.123-.626-1.211-.626-1.278s.08-.078.125-.088a10.645,10.645,0,0,0,1.68-.51,14.131,14.131,0,0,0,4.825-3.7c.036.555.09,1.12.162,1.686a12.672,12.672,0,0,1-6.166,3.886m2.612-6.224a8.79,8.79,0,0,0-1.951-1.275c.216-.355.411-.72.61-1.087a7.753,7.753,0,0,1,2.014,1.263c-.216.379-.431.744-.673,1.1m2.711-.564a11.311,11.311,0,0,0-.75-1.411l.67-.357a12.968,12.968,0,0,1,.69,1.349Zm1.138-.451c-.244-.479-.486-.98-.762-1.443l.644-.385a9.928,9.928,0,0,1,.707,1.4Z" transform="translate(-0.52 -0.402)"></path><polygon class="cls-3" points="179.685 19.503 179.685 18.52 182.075 18.52 182.075 15.394 180.122 15.394 180.122 14.368 185.17 14.368 185.17 15.394 183.157 15.394 183.157 18.52 185.611 18.52 185.611 19.503 179.685 19.503"></polygon><path class="cls-3" d="M190.918,19.35a7.691,7.691,0,0,1-1.574.567c-.054-.126-.618-1.309-.618-1.309,0-.042.043-.042.072-.042a1.658,1.658,0,0,0,.385-.052,9.2,9.2,0,0,0,2.854-1.233,15.848,15.848,0,0,0,3.337-2.773c.073.514.163,1.026.242,1.539a15.255,15.255,0,0,1-4.7,3.3m-.207-4.223a11.4,11.4,0,0,0-1.789-1.946c.351-.293.681-.607,1.02-.909a10.115,10.115,0,0,1,1.729,1.914,7.483,7.483,0,0,1-.96.941" transform="translate(-0.52 -0.402)"></path><path class="cls-3" d="M203.379,13.862c-.037.126-.064.259-.1.384a8.872,8.872,0,0,1-.3.985,12.7,12.7,0,0,1-.789,1.818c.4.315.8.649,1.181,1.006-.232.313-.483.617-.744.908-.337-.333-.686-.659-1.035-.972a7.679,7.679,0,0,1-3.276,2.479c-.252-.292-.52-.575-.8-.847a.1.1,0,0,1-.025-.051c0-.044.034-.044.053-.054a3.073,3.073,0,0,0,.518-.177,6.477,6.477,0,0,0,2.6-2.082c-.356-.292-.742-.543-1.115-.8.222-.294.419-.6.641-.889.359.25.709.513,1.057.783a7.352,7.352,0,0,0,.77-2.112c-.608,0-1.208.009-1.816.032a10.719,10.719,0,0,1-1.888,2.519c-.3-.228-.6-.459-.913-.67a8.673,8.673,0,0,0,2.462-4.5l1.206.511a.117.117,0,0,1,.073.116c0,.093-.1.126-.162.126-.116.271-.224.544-.339.8.84-.022,1.673-.022,2.515-.127a5.557,5.557,0,0,0,.382.461c-.052.115-.114.241-.158.357m-.36-1.026c-.221-.461-.473-.909-.732-1.348l.67-.368a12.511,12.511,0,0,1,.67,1.341Zm1.218-.3a12.243,12.243,0,0,0-.735-1.4l.645-.387a8.661,8.661,0,0,1,.7,1.379Z" transform="translate(-0.52 -0.402)"></path><path class="cls-3" d="M213.023,16.58c-.509-.032-.949-.042-1.359-.042-.475-.01-4.681,0-5.816.042-.017-.419-.037-.952-.047-1.265-.011-.157.062-.084.117-.078.151.02.439.03.519.036.544.014,1.943-.02,2.567-.02,1.3,0,2.579-.032,4.028-.052-.027.417,0,.96-.009,1.379" transform="translate(-0.52 -0.402)"></path><path class="cls-3" d="M219.847,17.271V20.7h-1.083V17.271h-3.4V16.245h3.4V12.774h-2.925v-1h6.943v1h-2.943v3.471h3.4v1.026Zm-2.56-1.424c-.314-.742-.634-1.5-1.009-2.2l.956-.522a12.532,12.532,0,0,1,.842,2.257Zm4.993-1.914c-.311.66-.626,1.32-.983,1.956l-.8-.376c.295-.783.564-1.589.8-2.406l1.075.492a.217.217,0,0,1,.126.179c0,.114-.145.155-.218.155" transform="translate(-0.52 -0.402)"></path><path class="cls-3" d="M227.482,12.982l.1.723-.732.2-.287-.942h-.25a7.177,7.177,0,0,1-.956,1.255l-.78-.512A5.918,5.918,0,0,0,225.9,11.1l1.031.335a.161.161,0,0,1,.115.136c0,.1-.1.156-.169.167a2.073,2.073,0,0,1-.19.376h1.737v.868Zm3.034,3.692-.01.627h1.764v.932h-1.754c0,1.6.161,2.5-1.467,2.782l-.611-.89c.619-.116,1.068-.168,1.068-1.034v-.858h-2.614c.268.251.518.511.768.785.189.2.387.376.565.594l-.671.754a19.661,19.661,0,0,0-1.512-1.464l.6-.669h-1.665V17.3h4.53v-.637h-4.8v-.878H228v-.628h-2.372v-.889h2.344v-.712l1.084.148c.045.009.045-.045.045.009,0,.074-.036.209-.09.23v.325h2.6v.889H229v.628h3.472v.888Zm.661-3.648-.286.9-.777-.083.037-.848h-.584a8.878,8.878,0,0,1-.555.952l-1.039-.387a7.487,7.487,0,0,0,1.227-2.405l1.056.315c.044.01.109.052.109.114,0,.094-.117.116-.179.116-.064.157-.135.3-.208.449h2.372v.88Z" transform="translate(-0.52 -0.402)"></path><path class="cls-3" d="M240.846,16.235a.222.222,0,0,1-.128-.051c-.616.218-1.8.712-2.366.983v1.609l-1.009-.01c.01-.146.01-.3.01-.482V17.7c-.682.338-1.026.764-1.026,1.246,0,.418.393.636,1.168.636a7.3,7.3,0,0,0,2.489-.414l-.034,1.222a6.714,6.714,0,0,1-2.145.3c-1.673,0-2.511-.555-2.511-1.672a2.107,2.107,0,0,1,.7-1.507,6.092,6.092,0,0,1,1.3-.9c-.017-.47-.153-.712-.4-.712a1.216,1.216,0,0,0-.879.4,8.371,8.371,0,0,0-.659.713c-.316.367-.511.616-.631.742-.155-.188-.394-.471-.709-.856a7.547,7.547,0,0,0,2.152-2.836c-.452.064-.957.1-1.5.138-.032-.4-.085-.765-.137-1.088A13.957,13.957,0,0,0,236.481,13a8.688,8.688,0,0,0,.289-1.442l1.156.271a.127.127,0,0,1,.1.125c0,.064-.041.116-.137.156-.041.18-.119.451-.229.806a12.556,12.556,0,0,0,1.6-.387l-.094,1.152c-.469.1-1.1.207-1.888.324a6.343,6.343,0,0,1-.529,1.045,1.666,1.666,0,0,1,.487-.072c.521,0,.863.363,1.017,1.117.683-.375,1.46-.762,2.305-1.159l.392,1.17c0,.083-.033.125-.1.125" transform="translate(-0.52 -0.402)"></path><path class="cls-3" d="M178.173,33.777a6.607,6.607,0,0,1-2.11-.93,4.525,4.525,0,0,1-1.45-1.548,5.279,5.279,0,0,1-3.4,2.416L170.6,32.8a4.3,4.3,0,0,0,3.068-1.853h-3.023v-.93h3.364c.009-.2.019-.4.019-.6h-2.55v-.9h2.578v-.651h-2.025v-.9h2.025V26.3l1.046.073a.1.1,0,0,1,.107.105.171.171,0,0,1-.116.146v.346h2.085v.9h-2.1v.651h2.694v.9h-2.71c-.01.2-.01.4-.01.6h3.517v.93h-3.06a4.888,4.888,0,0,0,3.266,1.811Zm-.8-6.336V26.134h-5.522v1.307h-.985V25.214h3.179v-1.13l1.109.072a.13.13,0,0,1,.144.126.223.223,0,0,1-.153.178v.754H178.4v2.227Z" transform="translate(-0.52 -0.402)"></path><path class="cls-3" d="M183.271,30.84c-.833.407-1.683.753-2.523,1.14-.018.064-.063.157-.126.157-.035,0-.082-.031-.118-.105l-.391-1.046c.436-.146.875-.292,1.314-.45V28.3H180.4v-.911h1.028V25.578h-1.109v-.9h2.963v.9h-.833v1.811h.743V28.3h-.771v1.955c.288-.125.582-.261.869-.389Zm5.36,2.625a3.61,3.61,0,0,1-1.521.281c-.689,0-1.406-.134-1.406-1.138V30.453H184.9c.082.064.51.377.51.481,0,.062-.08.1-.125.115a8.87,8.87,0,0,1-.562,1.035,5.371,5.371,0,0,1-2.194,1.883l-.77-.732a4.278,4.278,0,0,0,2.586-2.782h-.8V24.575h4.4v5.878H186.7v1.81c0,.345.1.573.42.573a2.584,2.584,0,0,0,1.6-.678Zm-1.708-7.97h-2.39v.816h2.39Zm-2.39,1.655v.794h2.39l.009-.794Zm2.4,1.631h-2.4v.858h2.4Z" transform="translate(-0.52 -0.402)"></path><path class="cls-3" d="M195.282,32.692a4.154,4.154,0,0,1-2.372.71c-1.27,0-2.068-.847-2.138-2.333-.019-.2-.01-.4-.01-.6,0-.563.01-1.128.028-1.7.026-1.346.044-2.707.062-4.056.276.041.563.095.841.157a2,2,0,0,1,.349.074c.073.03.16.074.16.167a.21.21,0,0,1-.133.176c-.107,1.822-.188,3.66-.188,5.481,0,.931.359,1.5,1.191,1.5a2.457,2.457,0,0,0,1.136-.306,4.3,4.3,0,0,0,1.8-2.183l.655,1.359a5.136,5.136,0,0,1-1.379,1.558" transform="translate(-0.52 -0.402)"></path><path class="cls-3" d="M204.854,33.129a10.321,10.321,0,0,0-2.031-1.485,1.692,1.692,0,0,1-1.933,1.747c-.886,0-2.246-.521-2.246-1.777a1.735,1.735,0,0,1,1.96-1.694,4.455,4.455,0,0,1,1.118.135c0-1.462-.063-2.937-.179-4.391-.035-.357-.054-.711-.117-1.056l1.191.177c.054.01.153.062.153.146a.2.2,0,0,1-.1.145v.4c0,.459-.01.92.01,1.379h.107a9.487,9.487,0,0,0,1.235-.062c.321-.042.634-.116.947-.167,0,.408-.017.815-.027,1.234-.5.042-1.009.072-1.511.072-.234,0-.466-.01-.707-.02.026.837.035,1.673.063,2.519a14.937,14.937,0,0,1,2.8,1.59Zm-3.123-1.978a2.783,2.783,0,0,0-1.181-.269c-.312,0-.8.23-.8.658,0,.649.626.815,1.065.815a.8.8,0,0,0,.913-.909Z" transform="translate(-0.52 -0.402)"></path><path class="cls-3" d="M210.157,33.546c-.333-.3-.662-.617-1.011-.889a4.312,4.312,0,0,0,2.577-1.82,3.336,3.336,0,0,0,.348-1.536c0-.93-.3-1.465-1.134-1.465a7.416,7.416,0,0,0-2.534,1.12c-.062-.156-.493-1.234-.493-1.328,0-.074.089-.063.126-.063a5.939,5.939,0,0,0,1.11-.3,6.114,6.114,0,0,1,2.083-.534c1.433,0,2.059,1.13,2.059,2.687a4.468,4.468,0,0,1-3.131,4.13m1.566-7.54a12.994,12.994,0,0,0-2.534-.94c.172-.377.331-.752.5-1.129a9.968,9.968,0,0,1,2.595.951c-.179.375-.358.753-.563,1.118" transform="translate(-0.52 -0.402)"></path></g></g><g class="cls-8"><rect class="cls-9" x="275.782" width="121.907" height="121.907"></rect><g class="cls-8"><path class="cls-3" d="M285.847,27.536a7.758,7.758,0,0,1,.688-3.387,4.487,4.487,0,0,1,2.038-2.123,5.7,5.7,0,0,1-1.722-2.081,6.965,6.965,0,0,1-.66-3.171,6.2,6.2,0,0,1,1.521-4.462,5.747,5.747,0,0,1,4.362-1.593,5.681,5.681,0,0,1,4.333,1.578,6.138,6.138,0,0,1,1.493,4.391,7.549,7.549,0,0,1-.632,3.271,5.2,5.2,0,0,1-1.693,2.067,4.452,4.452,0,0,1,2.038,2.181,8.359,8.359,0,0,1,.688,3.529,7.716,7.716,0,0,1-1.492,5.051,5.791,5.791,0,0,1-4.735,1.808q-6.228,0-6.227-7.059m7.734,2.74a7.3,7.3,0,0,0,.387-2.568,7.79,7.79,0,0,0-.387-2.727,1.628,1.628,0,0,0-3.014.015,7.805,7.805,0,0,0-.387,2.712,7.3,7.3,0,0,0,.387,2.568,1.624,1.624,0,0,0,3.014,0m.129-13.5a4.165,4.165,0,0,0-.4-2,1.319,1.319,0,0,0-1.234-.731,1.381,1.381,0,0,0-1.263.731,3.934,3.934,0,0,0-.43,2q0,3.588,1.693,3.587,1.635,0,1.636-3.587" transform="translate(-0.52 -0.402)"></path><path class="cls-3" d="M360.493,60.373,348.046,72.215a2.059,2.059,0,0,0-.711,1.778v33.188a.711.711,0,0,0,.711.708H360.9a.71.71,0,0,0,.709-.708V60.672c0-.391-.306-1.106-1.119-.3" transform="translate(-0.52 -0.402)"></path><path class="cls-3" d="M324.633,75.8l-12.45,11.84a2.064,2.064,0,0,0-.71,1.777v17.763a.711.711,0,0,0,.71.707h12.859a.709.709,0,0,0,.709-.707V76.1c0-.392-.309-1.109-1.118-.3" transform="translate(-0.52 -0.402)"></path><path class="cls-3" d="M366.151,46.013a.351.351,0,0,0-.105-.269.374.374,0,0,0-.231-.1l-.068,0-.1.006-9.531,2.15-.174.018a.369.369,0,0,0-.185.1.364.364,0,0,0,0,.513l.107.108,2.177,2.176-21.6,21.6-9.975-9.976a.284.284,0,0,0-.406,0l-2.706,2.707,0,0-15.99,15.988a.29.29,0,0,0,0,.407l2.71,2.709a.284.284,0,0,0,.4,0l15.791-15.788L333.5,75.6a.14.14,0,0,0,.023.035l2.708,2.7a.283.283,0,0,0,.4,0l24.513-24.512,2.286,2.285a.358.358,0,0,0,.508,0,.354.354,0,0,0,.1-.235v-.031l2.094-9.73Z" transform="translate(-0.52 -0.402)"></path><path class="cls-3" d="M342.634,77.879l-6.023,6.072a.287.287,0,0,1-.388-.014l-5.457-5.563c-1-.995-1.214-.188-1.214.2v28.6a.706.706,0,0,0,.7.709h12.862a.71.71,0,0,0,.708-.709V78.1c0-.391-.309-1.109-1.192-.224" transform="translate(-0.52 -0.402)"></path><path class="cls-3" d="M317.735,18.753c-.071,1.255-.43,1.788-1.5,2.071l-.591-.866c.752-.148,1.039-.347,1.111-1.278.1-1.307.1-2.635.1-3.953h-.3a16.8,16.8,0,0,1-.411,3.6,5.878,5.878,0,0,1-1.307,2.54l-.823-.595a6.446,6.446,0,0,0,.482-.545c-.778.168-1.557.326-2.336.5-.008.085-.054.157-.134.157s-.125-.072-.151-.145l-.377-.921c.485-.053.959-.127,1.441-.189v-.511H311.7v-.775h1.235v-.357h-1.209V14.446h1.2V14.1H311.7v-.826h1.226v-.429c-.294.02-.59.043-.887.074l-.25-.459c-.106.4-.2.824-.321,1.233-.02.073-.128.386-.128.439v6.712h-.955v-4.7a6.02,6.02,0,0,1-.367.565l-.582-.867a11.9,11.9,0,0,0,1.521-4.581l1.056.385a.156.156,0,0,1,.089.126c0,.084-.115.125-.17.137l-.035.156a9.87,9.87,0,0,0,2.73-.587l.671,1.036a.112.112,0,0,1-.125.115.245.245,0,0,1-.162-.061c-.384.081-.778.135-1.162.2v.513h1.34v.534h.459V11.37l1,.136c.062.01.171.054.171.148a.206.206,0,0,1-.128.177c-.017.659-.043,1.327-.07,1.986.4-.009.805-.02,1.208-.02-.01,1.653,0,3.305-.1,4.956M312.966,15.1h-.448v.562h.448Zm0,1.232h-.448v.514h.448ZM314.2,15.1h-.4v.562h.4Zm.019,1.232H313.8v.514h.422Zm.938-1.6V14.1h-1.333v.346H315v3.041h-1.173v.357h1.154V18.6h-1.154v.429c.36-.054.706-.126,1.065-.188l-.053.354a10.406,10.406,0,0,0,.778-4.465Z" transform="translate(-0.52 -0.402)"></path><path class="cls-3" d="M324.781,15.7a7.4,7.4,0,0,0,1.165,1.862c-.2.3-.412.587-.626.869A4.867,4.867,0,0,0,322.9,17.8c-.366,0-1.172.178-1.172.753,0,.92,1.235.984,1.8.984a10,10,0,0,0,1.852-.241c-.088.4-.16.794-.232,1.193a8.237,8.237,0,0,1-1.313.124c-1.139,0-3.144-.146-3.144-1.944,0-1.308,1.272-1.747,2.192-1.747a6.589,6.589,0,0,1,1.432.188c-.178-.4-.367-.794-.536-1.2a21.285,21.285,0,0,1-3.257.4l-.234-1.044a14.252,14.252,0,0,0,3.107-.313c-.109-.316-.207-.629-.3-.944a13.577,13.577,0,0,1-2.272.324c-.1-.334-.187-.679-.277-1.013a13.162,13.162,0,0,0,2.29-.283c-.134-.5-.241-1.024-.329-1.537.365-.031.733-.074,1.1-.094h.037a.128.128,0,0,1,.143.126.243.243,0,0,1-.09.166c.045.347.1.692.171,1.036a4.9,4.9,0,0,0,1.244-.6c.073.386.16.775.231,1.172-.41.156-.831.3-1.251.439.1.334.215.657.34.982a11.99,11.99,0,0,0,2.094-.784c.08.4.125.8.2,1.182a11.781,11.781,0,0,1-1.943.574" transform="translate(-0.52 -0.402)"></path><path class="cls-3" d="M332.857,19.9a1.33,1.33,0,0,1-1.01.324,2.02,2.02,0,0,1-.876-.22c-.036-.4-.062-.784-.108-1.181a1.883,1.883,0,0,0,.984.293c.725,0,.716-2.353.716-2.949,0-.429.009-1.192-.5-1.192a2.39,2.39,0,0,0-.537.084,20.368,20.368,0,0,1-1.915,5.2c-.348-.188-.67-.4-1.019-.565A14.674,14.674,0,0,0,330.4,15.24c-.414.081-.825.187-1.226.3l-.26-1.12c0-.052.061-.063.088-.063.081,0,.151.022.233.022a6.915,6.915,0,0,0,1.388-.19,17.63,17.63,0,0,0,.322-2.489c.267.064.527.148.786.232.117.04.252.074.367.125.046.021.117.053.117.126s-.064.094-.107.114c-.106.587-.225,1.182-.368,1.768a4.454,4.454,0,0,1,.537-.052,1.055,1.055,0,0,1,1.181.888,5.814,5.814,0,0,1,.18,1.591c0,.949-.134,2.75-.78,3.408m1.309-6.587a11.375,11.375,0,0,0-.681-1.485l.724-.347a12.365,12.365,0,0,1,.636,1.445Zm.912,4.612c-.2-.306-.413-.587-.626-.868.259-.054.913-.212.913-.609a5.183,5.183,0,0,0-1.289-2.333,10.95,10.95,0,0,0,1-.562,6.676,6.676,0,0,1,1.423,3.115c0,.786-.9,1.078-1.423,1.257m.287-4.98a10.336,10.336,0,0,0-.672-1.484l.69-.375a9.188,9.188,0,0,1,.67,1.473Z" transform="translate(-0.52 -0.402)"></path><path class="cls-3" d="M341.149,19.981a.97.97,0,0,1-.712-.276,5.461,5.461,0,0,1-1.2-3.4,16.941,16.941,0,0,1,.06-2.876c.026-.368.055-.726.1-1.087a7.249,7.249,0,0,1,1.285.413.133.133,0,0,1,.071.112.225.225,0,0,1-.174.21,10.928,10.928,0,0,0-.255,2.124,11.2,11.2,0,0,0,.041,1.33,5.126,5.126,0,0,0,.278,1.382c.067.2.226.667.448.652.429-.03.9-1.436,1.07-1.869l.622,1.31c-.236.71-.93,1.922-1.636,1.972m3.934-1.874a9.543,9.543,0,0,0-1.447-4.438c.37-.171.718-.374,1.093-.537a11.391,11.391,0,0,1,1.513,4.448c-.384.194-.768.365-1.159.527" transform="translate(-0.52 -0.402)"></path><path class="cls-3" d="M352.425,20.573c-1.254.01-2.471-.521-2.487-2.208,0-.249.026-.5.045-.75-.655-.232-1.533-.523-1.549-1.5a3.849,3.849,0,0,1,.394-1.34c.339.074.68.177,1.01.251a2,2,0,0,0-.437.921c.008.367.517.523.761.587.141-.827.3-1.643.446-2.469-.162.2-.312.4-.465.6a16.622,16.622,0,0,0-1.433-1.236c.2-.314.4-.626.618-.94a12.64,12.64,0,0,1,1.333,1.15,13.4,13.4,0,0,0,.287-2.092c.286.052.583.138.868.21a2.076,2.076,0,0,1,.358.094c.062.021.125.053.125.135a.422.422,0,0,1-.169.273c-.065.23-.117.482-.17.71-.109.492-.216.983-.332,1.476-.168.772-.348,1.557-.483,2.341.357.064.725.064,1.083.094l-.163,1.016a7.223,7.223,0,0,1-1.054-.085,2.56,2.56,0,0,0-.028.462,1.165,1.165,0,0,0,1.3,1.223c.761-.012,1.1-.471,1.091-1.339a4.446,4.446,0,0,0-1.312-2.627,7.748,7.748,0,0,0,.982-.478,4.921,4.921,0,0,1,1.5,3.4,2.013,2.013,0,0,1-2.119,2.122" transform="translate(-0.52 -0.402)"></path><path class="cls-3" d="M311.012,30.752a9.108,9.108,0,0,1-.73,2.447l-.749-.388a8.592,8.592,0,0,0,.669-2.623l.81.3a.14.14,0,0,1,.1.144c0,.053-.061.095-.1.115m6.5-.658a6.931,6.931,0,0,1-2.378-1.4,6.187,6.187,0,0,1-1.745,1.225l-.368-.555.105.46a5.5,5.5,0,0,1-.7.3c-.044-.178-.1-.367-.141-.545l-.229.042v4.2h-.906v-4.1c-.442.053-.872.127-1.313.178l-.1-.91a2.152,2.152,0,0,0,.528-.054c.3-.375.573-.784.837-1.191a5.324,5.324,0,0,0-1.216-.469V26.82a11.743,11.743,0,0,0,1.629-2.509,8.527,8.527,0,0,1,.916.48c.072.042.195.106.195.22s-.15.137-.211.137c-.467.543-.932,1.086-1.437,1.589.184.106.362.219.537.325a9.062,9.062,0,0,0,.484-.85c.143.087.917.567.917.735,0,.115-.132.136-.2.115-.5.627-1,1.264-1.512,1.88.3-.03.588-.072.889-.1-.055-.178-.108-.366-.178-.534.238-.095.477-.2.714-.3.115.345.213.69.309,1.036a5.834,5.834,0,0,0,1.533-1.025,9.2,9.2,0,0,1-1.181-1.517l.581-.6h-.853V24.99h4.131v.786a7.283,7.283,0,0,1-1.322,2.206,6.675,6.675,0,0,0,2.246,1.14c-.2.313-.379.647-.564.972m-4.9,2.333c-.193-.617-.326-1.265-.458-1.9l.742-.3a12.987,12.987,0,0,0,.447,1.872Zm.194,1.191V32.75h1.885V31.507H313.3v-.87h1.383v-1.18c.239.03.485.05.724.082a1.567,1.567,0,0,1,.316.042.105.105,0,0,1,.088.1.2.2,0,0,1-.142.17v.782H317.2v.87h-1.526V32.75h2v.868Zm1.357-7.719a6.214,6.214,0,0,0,.934,1.4,5.1,5.1,0,0,0,.809-1.4Z" transform="translate(-0.52 -0.402)"></path><path class="cls-3" d="M320.763,28.964a15.072,15.072,0,0,0-1.5-1.036l.635-1a7.91,7.91,0,0,1,1.392,1.191Zm-.308,4.58a.332.332,0,0,1,.043.159.093.093,0,0,1-.087.093,11.516,11.516,0,0,1-1.075-.69,15.577,15.577,0,0,0,1.188-3.525l.847.794c-.292,1.068-.581,2.123-.916,3.169m.52-7.2a12.485,12.485,0,0,0-1.3-.911l.687-1a8.6,8.6,0,0,1,1.154,1.108Zm6.247,3.473c-.3-.086-.6-.178-.893-.294v4.255h-.968V32.027h-2.22a4.274,4.274,0,0,1-1.169,1.914l-.768-.585c1.084-.919,1.268-2.458,1.268-3.921a5.829,5.829,0,0,1-.916.324l-.493-.868a6.806,6.806,0,0,0,2.51-.982A7.305,7.305,0,0,1,322.4,26.4h-.777v-.91h2.081V24.3l1.11.074a.18.18,0,0,1,.165.168c0,.1-.1.156-.175.177v.773h2.45v.91h-.944a6.349,6.349,0,0,1-1.189,1.516,7.054,7.054,0,0,0,2.583.837Zm-1.861.668h-1.955c-.019.24-.045.49-.08.732h2.035Zm0-1.319a11.837,11.837,0,0,1-1.039-.678,8.939,8.939,0,0,1-.872.5c0,.232,0,.451-.009.68h1.92Zm-1.85-2.771a3.892,3.892,0,0,0,.838.963,3.49,3.49,0,0,0,.757-.963Z" transform="translate(-0.52 -0.402)"></path><path class="cls-3" d="M336.442,33.834a7.045,7.045,0,0,1-1.978-1.962,5.651,5.651,0,0,1-2.175,1.9l-.734-.7a5.429,5.429,0,0,0,2.361-2.163,11.611,11.611,0,0,1-1.056-3.921h-2.173v.053c0,.395.009.78.009,1.173h2.111a23.958,23.958,0,0,1-.116,2.4c-.171,1.3-.581,1.714-1.672,1.822l-.493-.843c1.082-.128,1.226-.554,1.245-1.771l.007-.723h-1.109c0,1.5-.234,3.57-1.145,4.689l-.842-.608c.92-1.065.985-2.833.985-4.27,0-.961-.055-1.929-.073-2.889h3.195c-.053-.628-.071-1.268-.088-1.9l1.17.149c.064.01.189.044.189.151a.3.3,0,0,1-.17.223c-.008.256-.008.5-.008.756,0,.2,0,.415.008.618h2.863v.992h-2.818a11.531,11.531,0,0,0,.547,2.792,9.875,9.875,0,0,0,.625-2.292l1.117.7a.245.245,0,0,1,.109.191c0,.117-.179.159-.249.172a12.384,12.384,0,0,1-.977,2.363,6.183,6.183,0,0,0,2.086,1.855Zm-.27-8.93c-.215.354-.42.714-.645,1.055l-.822-.287a12.713,12.713,0,0,0,.5-1.544l1.037.425a.22.22,0,0,1,.145.182c0,.105-.145.16-.216.169" transform="translate(-0.52 -0.402)"></path><path class="cls-3" d="M345.745,33.7a6.8,6.8,0,0,1-3.632-3.063,19.847,19.847,0,0,0,2.266-.816h-3.165v2.369l1.441-.369-.118.989c-.949.247-1.908.493-2.861.748-.024.071-.084.162-.16.162a.116.116,0,0,1-.092-.072l-.458-1.072c.423-.07.847-.121,1.263-.213V29.868h-1.468v-.979h1.468V24.735h5.458v.927h-4.465v.552h3.9v.836h-3.9v.532h3.9v.807h-3.9v.521h5.014v.907h-1.212l.484.745a.138.138,0,0,1-.136.144.361.361,0,0,1-.17-.061c-.551.132-1.112.244-1.671.336a5.065,5.065,0,0,0,2.876,1.725Z" transform="translate(-0.52 -0.402)"></path><path class="cls-3" d="M352.2,33.682c-1.252.011-2.47-.522-2.487-2.207,0-.252.026-.5.044-.754-.653-.228-1.532-.521-1.548-1.5a3.806,3.806,0,0,1,.394-1.337c.339.072.68.175,1.01.249a1.991,1.991,0,0,0-.437.922c.009.365.517.521.76.585.142-.826.3-1.643.447-2.469-.161.2-.312.4-.465.6a16.448,16.448,0,0,0-1.433-1.234c.2-.313.4-.628.619-.942a12.849,12.849,0,0,1,1.332,1.15,13.417,13.417,0,0,0,.287-2.091c.286.053.582.135.869.209a2.122,2.122,0,0,1,.357.1c.062.02.126.052.126.134a.408.408,0,0,1-.17.271c-.064.231-.117.483-.171.712-.108.492-.215.984-.331,1.476-.168.772-.348,1.558-.483,2.342.358.063.725.063,1.082.095L351.843,31a7.222,7.222,0,0,1-1.055-.083,2.62,2.62,0,0,0-.027.459,1.164,1.164,0,0,0,1.3,1.225c.76-.011,1.1-.471,1.092-1.338a4.453,4.453,0,0,0-1.315-2.625,8.131,8.131,0,0,0,.983-.481,4.924,4.924,0,0,1,1.5,3.4,2.015,2.015,0,0,1-2.119,2.123" transform="translate(-0.52 -0.402)"></path></g></g><g class="cls-10"><rect class="cls-11" x="413.299" y="0.14" width="121.907" height="121.907"></rect><g class="cls-10"><path class="cls-3" d="M424.441,15.737a19.228,19.228,0,0,1-1.836.718q-1.206.4-1.521.545V13.7a19.209,19.209,0,0,0,2.367-1.148,8,8,0,0,0,1.966-1.406h3.472V34.391h-4.448Z" transform="translate(-0.52 -0.402)"></path><path class="cls-3" d="M432.778,32.97a7.171,7.171,0,0,1-1.593-4.893V17.66a7.487,7.487,0,0,1,1.55-5.008,6.878,6.878,0,0,1,9.326,0,7.487,7.487,0,0,1,1.55,5.008V28.077A7.145,7.145,0,0,1,442,32.956a6.732,6.732,0,0,1-9.226.014m6.328-4.979V17.746a6.082,6.082,0,0,0-.33-2.152,1.316,1.316,0,0,0-1.364-.861,1.333,1.333,0,0,0-1.406.846,6.28,6.28,0,0,0-.315,2.167V27.991q0,2.9,1.721,2.9,1.694,0,1.694-2.9" transform="translate(-0.52 -0.402)"></path><path class="cls-3" d="M486.083,80.537H463.632a.26.26,0,0,0-.244.273v6.747a.259.259,0,0,0,.244.274h22.451a.259.259,0,0,0,.247-.274V80.81a.26.26,0,0,0-.247-.273" transform="translate(-0.52 -0.402)"></path><path class="cls-3" d="M486.083,66.18H463.632a.26.26,0,0,0-.244.273V73.2a.259.259,0,0,0,.244.274h22.451a.259.259,0,0,0,.247-.274V66.453a.26.26,0,0,0-.247-.273" transform="translate(-0.52 -0.402)"></path><path class="cls-3" d="M485.767,55.981,474.991,45.2a.185.185,0,0,0-.263,0L463.951,55.981a.186.186,0,0,0,.132.317h21.553a.185.185,0,0,0,.131-.317" transform="translate(-0.52 -0.402)"></path><path class="cls-3" d="M495.884,87.914l10.777-10.777a.185.185,0,0,0,0-.263L495.884,66.1a.186.186,0,0,0-.318.132V87.782a.186.186,0,0,0,.318.132" transform="translate(-0.52 -0.402)"></path><path class="cls-3" d="M463.951,98.031l10.777,10.776a.185.185,0,0,0,.263,0l10.776-10.776a.186.186,0,0,0-.131-.318H464.083a.186.186,0,0,0-.132.318" transform="translate(-0.52 -0.402)"></path><path class="cls-3" d="M453.834,66.1,443.058,76.874a.185.185,0,0,0,0,.263l10.776,10.777a.186.186,0,0,0,.318-.132V66.229a.186.186,0,0,0-.318-.132" transform="translate(-0.52 -0.402)"></path><path class="cls-3" d="M460.936,20.054a9.063,9.063,0,0,1-3.3-4.551,11.4,11.4,0,0,1-.482,1.372,6.85,6.85,0,0,1-1.943,2.551,5.119,5.119,0,0,1-.92.6l-.8-.944a4.911,4.911,0,0,0,1.076-.614,6.71,6.71,0,0,0,2.213-4.109,19.035,19.035,0,0,0,.142-3.264l1.244.137c.072.009.171.051.171.155a.209.209,0,0,1-.161.19c-.018.429-.028.846-.028,1.274a7.84,7.84,0,0,0,1.4,4.039,7.665,7.665,0,0,0,2.327,2.133Z" transform="translate(-0.52 -0.402)"></path><path class="cls-3" d="M467.755,16.869a4.647,4.647,0,0,1-1.062-.123,7.759,7.759,0,0,0-.34-1.088,4.371,4.371,0,0,0,1.139.184c.7,0,1.362-.276,1.362-1.273a.872.872,0,0,0-.835-.954,1.784,1.784,0,0,0-.527.082c.1.319.213.636.324.954-.3.144-.6.278-.886.4q-.177-.509-.357-1.017a11.916,11.916,0,0,0-1.2.637c.291.791.564,1.6.808,2.413.23.769.511,1.52.7,2.3-.315.184-.646.3-.978.46a44.929,44.929,0,0,0-1.386-4.69c-.458.3-.918.6-1.361.923-.179-.359-.365-.71-.527-1.078.494-.278,1-.565,1.5-.83-.248-.585-.528-1.174-.826-1.728.127-.038,1-.367,1.062-.367s.061.04.087.1c.194.512.373,1.038.57,1.551.381-.206.756-.4,1.146-.586a12.261,12.261,0,0,0-.765-1.54c.332-.123.663-.266,1-.38a17.394,17.394,0,0,1,.732,1.583,3.6,3.6,0,0,1,1.046-.134,1.773,1.773,0,0,1,1.749,1.929,2.1,2.1,0,0,1-2.168,2.269" transform="translate(-0.52 -0.402)"></path><path class="cls-3" d="M471.973,11.08h7.364v9.014h-7.364Zm6.309,1.005h-5.271v7.049h5.271Zm-4.955,6.172v-.9h1.731V15.823h-1.369v-.854h1.369V13.89h-1.641v-.9h4.5v.885h-1.869v1.08h1.417v.736l.452.266a.1.1,0,0,1,.045.077c0,.1-.109.138-.182.138-.152.353-.305.7-.447,1.068l-.742-.278c.116-.374.225-.758.333-1.142h-.885v1.559h1.9v.875Z" transform="translate(-0.52 -0.402)"></path><path class="cls-3" d="M485.916,19.39c-.258-.3-.493-.611-.753-.9,1.324-.387,2.545-.948,2.545-2.884a2.674,2.674,0,0,0-1.748-2.77c-.226,1.762-.671,4.564-1.985,5.6a1.021,1.021,0,0,1-1.675-.265,3.757,3.757,0,0,1-.535-2.088c0-2.5,1.7-4.26,3.691-4.26,1.842,0,3.341,1.335,3.341,3.709a3.681,3.681,0,0,1-2.881,3.853m-2.947-4.7a4.173,4.173,0,0,0-.233,1.4c0,.417.076,1.5.545,1.5.167,0,.308-.194.408-.326.791-.978,1.123-3.067,1.206-4.4a3.074,3.074,0,0,0-1.926,1.833" transform="translate(-0.52 -0.402)"></path><path class="cls-3" d="M495.667,12.289c-.172.335-.342.671-.529.992v6.842h-1.083V14.84a9.535,9.535,0,0,1-2.889,2.71l-.767-.722a9.654,9.654,0,0,0,3.934-4.539h-3.42V11.244h7.365v1.045ZM498.1,17.7a12,12,0,0,1-2.845-3.044c.286-.261.554-.542.832-.814a8.47,8.47,0,0,0,2.764,2.916Z" transform="translate(-0.52 -0.402)"></path><path class="cls-3" d="M504.561,16.828v3.431h-1.083V16.828h-3.4V15.8h3.4V12.332h-2.926V11.327H507.5v1.005H504.55V15.8h3.4v1.024ZM502,15.407c-.315-.743-.636-1.5-1.011-2.2l.957-.525a12.653,12.653,0,0,1,.841,2.259Zm4.992-1.916c-.313.66-.627,1.319-.983,1.956l-.8-.375c.3-.784.564-1.589.8-2.406l1.074.492a.208.208,0,0,1,.124.178c0,.115-.143.155-.215.155" transform="translate(-0.52 -0.402)"></path><path class="cls-3" d="M512.294,12.541l.1.723-.733.2-.285-.94h-.252a7.31,7.31,0,0,1-.959,1.254l-.778-.511a5.939,5.939,0,0,0,1.324-2.6l1.03.335a.158.158,0,0,1,.116.136c0,.094-.1.156-.168.168a2.069,2.069,0,0,1-.191.375h1.737v.868Zm3.036,3.692-.011.627h1.763v.932H515.33c0,1.6.159,2.5-1.469,2.78l-.611-.888c.62-.116,1.067-.169,1.067-1.036v-.856H511.7c.268.249.518.513.768.782.189.2.386.378.565.6l-.671.754a19.463,19.463,0,0,0-1.511-1.464l.6-.669h-1.667V16.86h4.529v-.637h-4.8v-.88h3.293v-.626h-2.372v-.889h2.345v-.71H513.9c.045.008-.208.191-.208.243,0,.073.114-.246.134-.313v.78h2.606v.889h-2.621v.626h3.47v.89Zm.659-3.65-.285.9-.778-.084.035-.848h-.581a9.3,9.3,0,0,1-.691.893l-.9-.326a7.548,7.548,0,0,0,1.227-2.407l1.058.314a.136.136,0,0,1,.106.116c0,.1-.117.113-.181.113-.062.158-.133.306-.2.45h2.371v.879Z" transform="translate(-0.52 -0.402)"></path><path class="cls-3" d="M461.34,29.067a.231.231,0,0,1-.132-.051c-.647.221-1.889.712-2.48.984v1.61l-1.057-.012c.01-.146.01-.3.01-.479v-.586c-.713.335-1.073.763-1.073,1.244,0,.417.41.639,1.225.639a7.926,7.926,0,0,0,2.6-.419L460.4,33.22a7.365,7.365,0,0,1-2.247.3c-1.756,0-2.632-.554-2.632-1.674a2.066,2.066,0,0,1,.733-1.5,6.4,6.4,0,0,1,1.36-.9c-.016-.471-.16-.71-.421-.71a1.3,1.3,0,0,0-.92.4,8.222,8.222,0,0,0-.691.711c-.331.367-.536.619-.661.742-.162-.188-.412-.469-.744-.856a7.552,7.552,0,0,0,2.257-2.834c-.475.062-1,.1-1.576.136-.035-.4-.089-.765-.142-1.088a15.317,15.317,0,0,0,2.049-.106,8.41,8.41,0,0,0,.3-1.442l1.21.271c.073.024.108.063.108.126s-.044.115-.144.157c-.046.177-.126.449-.24.806a14.568,14.568,0,0,0,1.672-.387l-.1,1.152c-.492.1-1.155.207-1.976.321a6.447,6.447,0,0,1-.557,1.048,1.77,1.77,0,0,1,.511-.074c.546,0,.9.365,1.066,1.118.716-.376,1.53-.762,2.415-1.16l.412,1.171c0,.085-.036.124-.109.124" transform="translate(-0.52 -0.402)"></path><path class="cls-3" d="M467.541,26.629c-.437.124-.866.23-1.305.313a21.562,21.562,0,0,1-1.954,4.9c-.331-.167-.663-.365-.984-.563a17.131,17.131,0,0,0,1.791-4.215,9.12,9.12,0,0,1-1.335.113c-.044-.364-.1-.731-.143-1.107a3.818,3.818,0,0,0,.493.021,8.15,8.15,0,0,0,1.245-.085,11.2,11.2,0,0,0,.241-1.807c.421.063.834.115,1.246.209-.108.481-.214.973-.359,1.453a9.045,9.045,0,0,0,1.076-.358c0,.37-.012.745-.012,1.122m2.5,6.4a7.593,7.593,0,0,0-1.188-1.076c0,.116,0,.23,0,.343-.04,1.079-.739,1.371-1.547,1.371a2.584,2.584,0,0,1-.847-.135,1.592,1.592,0,0,1-1.053-1.485,1.559,1.559,0,0,1,1.633-1.588,4.32,4.32,0,0,1,.734.061c-.01-.492-.027-.983-.009-1.475a2.15,2.15,0,0,1,.133-.71h.807c.053,0,.315-.042.31.084a.06.06,0,0,1-.01.042,1.331,1.331,0,0,0-.185.637c-.021.554,0,1.1.019,1.652a6.371,6.371,0,0,1,1.9,1.245c-.219.356-.447.711-.692,1.034m-2.227-1.505a1.5,1.5,0,0,0-.641-.115c-.341,0-.767.105-.785.6s.494.7.845.7c.331,0,.576-.074.592-.523.008-.219,0-.439-.011-.659m2.393-3.5a5.515,5.515,0,0,0-2.178-1.2l.519-1.044a5.531,5.531,0,0,1,2.231,1.2Z" transform="translate(-0.52 -0.402)"></path><path class="cls-3" d="M476.959,33.707a17.194,17.194,0,0,0-2.628-3.1,8.247,8.247,0,0,0-.762-.7,2.239,2.239,0,0,1-.441-.407.916.916,0,0,1-.156-.57,1.2,1.2,0,0,1,.431-.879c.441-.451.9-.868,1.331-1.33.641-.7,1.292-1.394,1.918-2.131.256.224.51.439.765.663a1.821,1.821,0,0,1,.29.258.132.132,0,0,1,.042.094c0,.148-.2.165-.3.142-.6.552-1.224,1.091-1.837,1.653-.257.234-.494.49-.749.726-.121.112-.257.213-.367.336a.688.688,0,0,0-.225.413.4.4,0,0,0,.156.318c.367.363.779.676,1.157,1.02a18.323,18.323,0,0,1,2.327,2.615c-.321.285-.633.591-.953.877" transform="translate(-0.52 -0.402)"></path><path class="cls-3" d="M484.182,29.137a2.458,2.458,0,0,0-.749,2.264c.192,1.019,1.426,1.128,2.072,1.112.206,0,.421-.022.636-.048-.091.4-.2.788-.284,1.178l-.189,0c-1.263.032-3.077-.151-3.286-2.093a3.56,3.56,0,0,1,.675-2.708,18.891,18.891,0,0,0-3.12.8c-.068-.395-.166-.784-.253-1.171a8.064,8.064,0,0,0,1.652-.434,11.838,11.838,0,0,0,2.114-2.23,14.556,14.556,0,0,1-1.884.1c0-.368-.018-.739-.051-1.1a11.686,11.686,0,0,0,2.839-.087,2.72,2.72,0,0,0,.706-.271c.19.326.378.663.548,1a24.293,24.293,0,0,0-2.659,2.511c1.323-.2,2.654-.358,3.98-.478-.007.42.006.842-.007,1.26a4.68,4.68,0,0,0-2.74.392" transform="translate(-0.52 -0.402)"></path><path class="cls-3" d="M491.667,34c-.338-.309-.675-.631-1.033-.91a4.392,4.392,0,0,0,2.633-1.862,4.388,4.388,0,0,0,.373-1.653c.063-.949-.211-1.513-1.059-1.571a7.6,7.6,0,0,0-2.656.969c-.052-.165-.417-1.293-.411-1.389,0-.074.095-.058.133-.055A5.768,5.768,0,0,0,490.8,27.3a6.271,6.271,0,0,1,2.161-.4c1.458.1,2.019,1.292,1.914,2.883a4.778,4.778,0,0,1-3.2,4.224m1.6-7.95a13.418,13.418,0,0,0-2.587-.98c.174-.391.337-.782.512-1.175a9.948,9.948,0,0,1,2.648.991c-.182.391-.364.782-.573,1.164" transform="translate(-0.52 -0.402)"></path></g></g></g></g></svg>