<svg xmlns="http://www.w3.org/2000/svg" xmlns:xlink="http://www.w3.org/1999/xlink" width="535.855" height="122.936" viewBox="0 0 535.855 122.936"><defs><style>.cls-1{fill:none;}.cls-2{clip-path:url(#clip-path);}.cls-3{fill:#f69622;}.cls-4{fill:#fff;}.cls-5{clip-path:url(#clip-path-3);}.cls-6{fill:#002a5a;}</style><clipPath id="clip-path" transform="translate(-0.38)"><rect class="cls-1" width="122.936" height="122.936"></rect></clipPath><clipPath id="clip-path-3" transform="translate(-0.38)"><rect class="cls-1" x="137.766" width="122.936" height="122.936"></rect></clipPath></defs><g id="&#x30EC;&#x30A4;&#x30E4;&#x30FC;_2" data-name="&#x30EC;&#x30A4;&#x30E4;&#x30FC; 2"><g id="&#x30EC;&#x30A4;&#x30E4;&#x30FC;_1-2" data-name="&#x30EC;&#x30A4;&#x30E4;&#x30FC; 1"><g class="cls-2"><rect class="cls-3" y="0.822" width="121.907" height="121.907"></rect><g class="cls-2"><path class="cls-4" d="M11,16.017a19.122,19.122,0,0,1-1.837.717q-1.2.4-1.521.546v-3.3a19.042,19.042,0,0,0,2.368-1.147,8,8,0,0,0,1.966-1.407h3.472V34.67H11Z" transform="translate(-0.38)"></path><path class="cls-4" d="M20.731,16.017a19.122,19.122,0,0,1-1.837.717q-1.2.4-1.521.546v-3.3a18.974,18.974,0,0,0,2.368-1.147,8,8,0,0,0,1.966-1.407h3.472V34.67H20.731Z" transform="translate(-0.38)"></path><path class="cls-4" d="M21.169,93.778H39.59a.454.454,0,0,0,.452-.454.443.443,0,0,0-.119-.3L39.9,93,30.733,81.139l-.089-.1a.448.448,0,0,0-.334-.147.46.46,0,0,0-.3.115l-.055.064-.087.1L20.931,92.9l-.137.168a.437.437,0,0,0-.078.252.454.454,0,0,0,.453.454" transform="translate(-0.38)"></path><path class="cls-4" d="M39.535,95.45H21.077a.452.452,0,0,0-.452.452v14.444a.453.453,0,0,0,.452.454h5.941v-9.088a.45.45,0,0,1,.452-.452h5.514a.451.451,0,0,1,.452.452V110.8h6.1a.454.454,0,0,0,.452-.454V95.9a.452.452,0,0,0-.452-.452" transform="translate(-0.38)"></path><path class="cls-4" d="M103.328,91.668H85.059a.439.439,0,0,0-.446.434V110.55a.441.441,0,0,0,.446.434h18.269a.441.441,0,0,0,.448-.434V92.1a.439.439,0,0,0-.448-.434m-10,12.043a.441.441,0,0,1-.446.437H87.429a.442.442,0,0,1-.449-.437V100.4a.441.441,0,0,1,.449-.436h5.458a.441.441,0,0,1,.446.436Zm0-6.13a.441.441,0,0,1-.446.436H87.429a.442.442,0,0,1-.449-.436V94.262a.441.441,0,0,1,.449-.434h5.458a.441.441,0,0,1,.446.434Zm8.341,6.13a.441.441,0,0,1-.447.437H95.77a.441.441,0,0,1-.447-.437V100.4a.44.44,0,0,1,.447-.436h5.457a.44.44,0,0,1,.447.436Zm0-6.13a.441.441,0,0,1-.447.436H95.77a.441.441,0,0,1-.447-.436V94.262a.44.44,0,0,1,.447-.434h5.457a.44.44,0,0,1,.447.434Z" transform="translate(-0.38)"></path><path class="cls-4" d="M60.861,48.848H42.982a.438.438,0,0,0-.437.438v61.1a.439.439,0,0,0,.437.437H60.861a.442.442,0,0,0,.44-.437v-61.1a.44.44,0,0,0-.44-.438M50.226,103.863a.236.236,0,0,1-.235.235H45.9a.236.236,0,0,1-.235-.235V99.3a.234.234,0,0,1,.235-.233h4.094a.234.234,0,0,1,.235.233Zm0-10.478a.234.234,0,0,1-.235.235H45.9a.234.234,0,0,1-.235-.235v-4.56a.234.234,0,0,1,.235-.235h4.094a.234.234,0,0,1,.235.235Zm0-10.474a.235.235,0,0,1-.235.234H45.9a.235.235,0,0,1-.235-.234V78.347a.235.235,0,0,1,.235-.234h4.094a.235.235,0,0,1,.235.234Zm0-10.478a.236.236,0,0,1-.235.235H45.9a.236.236,0,0,1-.235-.235V67.87a.233.233,0,0,1,.235-.232h4.094a.233.233,0,0,1,.235.232Zm0-10.475a.236.236,0,0,1-.235.234H45.9a.236.236,0,0,1-.235-.234V57.4a.235.235,0,0,1,.235-.235h4.094a.235.235,0,0,1,.235.235Zm8.028,41.905a.236.236,0,0,1-.237.235H53.925a.235.235,0,0,1-.235-.235V99.3a.233.233,0,0,1,.235-.233h4.092a.235.235,0,0,1,.237.233Zm0-10.478a.235.235,0,0,1-.237.235H53.925a.233.233,0,0,1-.235-.235v-4.56a.233.233,0,0,1,.235-.235h4.092a.235.235,0,0,1,.237.235Zm0-10.474a.236.236,0,0,1-.237.234H53.925a.234.234,0,0,1-.235-.234V78.347a.234.234,0,0,1,.235-.234h4.092a.236.236,0,0,1,.237.234Zm0-10.478a.236.236,0,0,1-.237.235H53.925a.235.235,0,0,1-.235-.235V67.87a.232.232,0,0,1,.235-.232h4.092a.233.233,0,0,1,.237.232Zm0-10.475a.236.236,0,0,1-.237.234H53.925a.235.235,0,0,1-.235-.234V57.4a.233.233,0,0,1,.235-.235h4.092a.235.235,0,0,1,.237.235Z" transform="translate(-0.38)"></path><path class="cls-4" d="M84.622,85.767h18.387a.367.367,0,0,1,.367.367v3.679a.367.367,0,0,1-.367.367H84.62a.367.367,0,0,1-.367-.367V86.136A.369.369,0,0,1,84.622,85.767Z"></path><path class="cls-4" d="M82.456,60.386a.471.471,0,0,0-.449-.342.464.464,0,0,0-.256.085.315.315,0,0,0-.033.022l-.151.19L64,82.631l-.081.109a.5.5,0,0,0-.153.347v27.392a.437.437,0,0,0,.439.435h17.86a.435.435,0,0,0,.437-.435V60.569a.443.443,0,0,0-.042-.183m-7.4,12.1.126-.158c1.2-1.542,3.228-4.037,4.216-5.248l.129-.155a.51.51,0,0,1,.393-.185.5.5,0,0,1,.488.408v5.64a.5.5,0,0,1-.486.5c-.008,0-.014,0-.022,0s-.014,0-.022,0H75.489c-.008,0-.015,0-.022,0s-.014,0-.022,0a.5.5,0,0,1-.486-.5.51.51,0,0,1,.1-.3m-2.78,31.217a.436.436,0,0,1-.437.437H66.512a.436.436,0,0,1-.437-.437v-3.335a.436.436,0,0,1,.437-.436h5.329a.436.436,0,0,1,.437.436Zm0-6.162a.436.436,0,0,1-.437.437H66.512a.436.436,0,0,1-.437-.437V94.21a.435.435,0,0,1,.437-.437h5.329a.435.435,0,0,1,.437.437Zm0-6.163a.437.437,0,0,1-.437.436H66.512a.437.437,0,0,1-.437-.436V88.046a.436.436,0,0,1,.437-.437h5.329a.436.436,0,0,1,.437.437Zm.015-13.5v7.347a.438.438,0,0,1-.437.437H66.528a.438.438,0,0,1-.44-.437V84.3a.509.509,0,0,1,.034-.163.328.328,0,0,1,.027-.051.445.445,0,0,1,.038-.058c.014-.021.034-.047.05-.071.681-.975,3.755-4.761,5.046-6.344l.129-.156a.509.509,0,0,1,.393-.186.5.5,0,0,1,.488.409Zm8.13,25.83a.437.437,0,0,1-.437.437H74.659a.437.437,0,0,1-.44-.437v-3.335a.437.437,0,0,1,.44-.436h5.327a.437.437,0,0,1,.437.436Zm0-6.162a.437.437,0,0,1-.437.437H74.659a.437.437,0,0,1-.44-.437V94.21a.436.436,0,0,1,.44-.437h5.327a.436.436,0,0,1,.437.437Zm0-6.163a.439.439,0,0,1-.437.436H74.659a.439.439,0,0,1-.44-.436V88.046a.437.437,0,0,1,.44-.437h5.327a.437.437,0,0,1,.437.437Zm0-6.164a.436.436,0,0,1-.437.435H74.659a.436.436,0,0,1-.44-.435V81.884a.438.438,0,0,1,.44-.438h5.327a.438.438,0,0,1,.437.438Zm0-6.164a.437.437,0,0,1-.437.437H74.659a.437.437,0,0,1-.44-.437V75.719a.438.438,0,0,1,.44-.438h5.327a.438.438,0,0,1,.437.438Z" transform="translate(-0.38)"></path><path class="cls-4" d="M38.013,12.144c-.235.67-.51,1.306-.8,1.945v6.65H36.2V15.8a4.686,4.686,0,0,1-.67.952l-.662-.775A11.144,11.144,0,0,0,37,11.339l1.154.5a.146.146,0,0,1,.09.126c0,.116-.162.168-.233.178m-.278,8.324v-.9H39.97V17.352h-1.8v-.909h1.8V14.538H37.9v-.971H43.13v.971H41.019v1.905h1.835v.909H41.019v2.216h2.334v.9ZM40.6,13.515a10.169,10.169,0,0,0-1.656-1.329l.715-.878c.3.219.584.481.861.732a8.142,8.142,0,0,1,.726.69Z" transform="translate(-0.38)"></path><path class="cls-4" d="M52.1,18.806a12.67,12.67,0,0,0-1.216-.869,5.336,5.336,0,0,1-1.844,2.551l-.929-.6a4.4,4.4,0,0,0,1.825-2.424,6.605,6.605,0,0,0-1.674-.608,10.45,10.45,0,0,1-.429,1.045c-.386.836-.87,1.685-1.78,1.685a1.416,1.416,0,0,1-1.28-1.569A2.2,2.2,0,0,1,46.425,15.9a3.847,3.847,0,0,1,1.092-.094,15.882,15.882,0,0,0,.653-2.479l-1.906.325-.207-1.2h.1a13.021,13.021,0,0,0,3.017-.375c.133.166.287.324.437.481-.187.636-.394,1.265-.589,1.9-.154.481-.3.961-.466,1.433a6.876,6.876,0,0,1,1.673.522,9.2,9.2,0,0,0,.3-2.089c.356.24.714.469,1.054.73a11.1,11.1,0,0,1-.331,1.82,11.037,11.037,0,0,1,1.359.763c-.16.387-.329.784-.51,1.172m-6.315-.837c0,.262.1.491.338.491a.462.462,0,0,0,.378-.188,5.5,5.5,0,0,0,.723-1.538c-.627.053-1.439.358-1.439,1.235" transform="translate(-0.38)"></path><path class="cls-4" d="M55.439,17.8a10.876,10.876,0,0,1-.608,2.442l-.768-.413a10.916,10.916,0,0,0,.572-2.647l.863.362a.11.11,0,0,1,.06.1.165.165,0,0,1-.119.155m5.671-.443V16.345H58.248v1.04h-.866v-.732l-.632.278c-.032-.113-.067-.236-.093-.35l-.163.032v4.129h-.9V16.716c-.425.03-.858.079-1.281.133l-.112-.885a2.012,2.012,0,0,0,.434-.053.375.375,0,0,0,.231-.175c.234-.308.434-.649.642-.976a9.771,9.771,0,0,0-1.15-.5V13.8a11.118,11.118,0,0,0,1.469-2.5l.933.514c.07.043.19.093.19.205,0,.177-.164.177-.267.166-.407.526-.8,1.061-1.244,1.555.164.1.335.187.5.3.162-.268.318-.548.474-.824l.813.575a.179.179,0,0,1,.087.146c0,.142-.137.133-.224.133-.468.619-.91,1.258-1.4,1.843a6.5,6.5,0,0,0,.76-.06,4.819,4.819,0,0,0-.174-.525l.694-.28c.154.483.276.98.412,1.474v-1h4.7v1.833Zm-4.125,1.936c-.129-.565-.241-1.142-.337-1.719l.667-.288c.1.577.216,1.162.354,1.729Zm2.474-2.142a7.055,7.055,0,0,1-.277,1.71,3.731,3.731,0,0,1-1.5,2.029l-.778-.638c1.333-.835,1.548-1.844,1.6-3.532l.933.173a.131.131,0,0,1,.121.125.166.166,0,0,1-.1.133m.606-3.7v.742h1.59v.833H57.6v-.833H59.08V13.44H57.194v-.894H59.07v-1.2l1,.081a.132.132,0,0,1,.137.124.2.2,0,0,1-.137.165v.826h1.953v.905Zm2.265,6.94a3.175,3.175,0,0,1-1.522.383c-.64,0-1.056-.361-1.056-1.165V16.716l.917.1c.053.011.139.031.139.113a.18.18,0,0,1-.121.147V19.2c0,.5.061.636.5.636a2.4,2.4,0,0,0,1.211-.566Z" transform="translate(-0.38)"></path><path class="cls-4" d="M65.916,19.831c-.3.046-.6.082-.9.11a10.408,10.408,0,0,1-.623-3.857,20.764,20.764,0,0,1,.454-3.957c.266.064.543.138.812.213a1.951,1.951,0,0,1,.346.106c.055.021.109.042.108.111a.192.192,0,0,1-.155.16,16.418,16.418,0,0,0-.518,4.19,5.6,5.6,0,0,0,.089,1.308c.179-.5.354-1.02.532-1.524a9.19,9.19,0,0,0,.642.819,9.622,9.622,0,0,0-.79,2.321m4.412-4.389c0,.455,0,.911-.014,1.366a8.238,8.238,0,0,1-.19,1.688,3.778,3.778,0,0,1-1.309,2.191,10.971,10.971,0,0,0-.974-.552A4.042,4.042,0,0,0,69.25,16.73c.015-.416.014-.83.011-1.249a14.037,14.037,0,0,1-1.613.042c-.169-.006-.34-.022-.51-.029-.04-.368-.061-.733-.091-1.1a11.535,11.535,0,0,0,1.157.1c.341.013.673.015,1.013,0,0-.577-.046-1.146-.069-1.714-.016-.3-.04-.622-.082-.936.286.05.571.084.856.123a1.364,1.364,0,0,1,.355.064c.062.011.125.043.122.126a.185.185,0,0,1-.122.149c0,.687.037,1.379.039,2.068a6.352,6.352,0,0,0,1.6-.377c.012.385-.021.782-.009,1.166a9.118,9.118,0,0,1-1.577.277" transform="translate(-0.38)"></path><path class="cls-4" d="M76.445,20.557c-.181.052-.36.089-.549.13-.086-.158-.559-.895-.559-.895,0-.032.036-.041.052-.041a5.7,5.7,0,0,0,1.332-.382,1.91,1.91,0,0,0,1.326-1.688,1.088,1.088,0,0,0-1.1-1.258c-1.044-.013-2,1.114-2.345,2.2-.294-.053-.6-.121-.893-.166a11.978,11.978,0,0,1-.087-1.591,20.609,20.609,0,0,1,.364-3.393l1.036.315a.126.126,0,0,1,.105.125.208.208,0,0,1-.136.167,12.713,12.713,0,0,0-.345,2.538,3.327,3.327,0,0,1,2.6-1.244,2.036,2.036,0,0,1,1.989,2.169c-.024,1.9-1.4,2.628-2.786,3.018m.514-6.739A8.835,8.835,0,0,0,75.083,12.1c.236-.268.455-.548.69-.817a6.594,6.594,0,0,1,2,1.686c-.28.278-.545.57-.815.848" transform="translate(-0.38)"></path><path class="cls-4" d="M87.28,19.737c-.8,0-1.164-.608-1.164-1.5,0-.93.143-1.849.206-2.781.01-.136.01-.282.01-.418,0-.2-.027-.387-.242-.387-.518,0-1.761,1.2-2.057,1.705,0,1.326.015,2.688.071,4.016L83,20.5c0-1.1.01-2.216.01-3.324-.4.669-.815,1.3-1.217,1.954-.278-.292-.522-.627-.788-.941a16.9,16.9,0,0,0,1.951-3.011v-.5c-.5.1-.985.23-1.489.315-.061-.355-.115-.712-.2-1.057a8.98,8.98,0,0,0,1.657-.271c0-.721-.027-1.444-.056-2.154a6.378,6.378,0,0,1,1.14.124.142.142,0,0,1,.116.148.114.114,0,0,1-.072.115c-.026.511-.055,1.014-.062,1.517.159-.044.313-.118.474-.168.063.272.115.543.178.8-.16.2-.3.417-.455.639l.018.03A3.474,3.474,0,0,1,86.5,13.483c.6,0,.931.564.931,1.223a14.348,14.348,0,0,1-.1,1.579,16.631,16.631,0,0,0-.155,1.674v.032c-.009.23.018.563.278.563.556,0,.921-.9,1.145-1.4.134.481.269.961.394,1.445a1.978,1.978,0,0,1-1.71,1.139" transform="translate(-0.38)"></path><path class="cls-4" d="M94.028,20.677c-.743,0-1.941-.316-1.941-1.452a1.221,1.221,0,0,1,1.288-1.182,1.329,1.329,0,0,1,1.235.975,2.517,2.517,0,0,1,.088.6,1.644,1.644,0,0,0,1.147-1.6,1.5,1.5,0,0,0-1.567-1.659c-1.35,0-2.13,1.291-2.972,2.363-.275-.294-.552-.585-.832-.877a22.9,22.9,0,0,0,3.391-4.575c-.713.174-1.43.314-2.146.465l-.2-1.278a2.3,2.3,0,0,0,.286.012A8.714,8.714,0,0,0,93,12.353a14.229,14.229,0,0,0,1.639-.306,5.246,5.246,0,0,0,.562-.182c.208.291.414.573.618.866a3.329,3.329,0,0,0-.268.238,8.641,8.641,0,0,0-.582.726c-.43.586-.83,1.194-1.244,1.789a3.058,3.058,0,0,1,.825-.1,2.267,2.267,0,0,1,2.38,2.436,2.687,2.687,0,0,1-2.9,2.853m-.761-1.768c-.17,0-.277.077-.277.293,0,.4.51.455.742.455-.045-.313-.135-.748-.465-.748" transform="translate(-0.38)"></path><path class="cls-4" d="M42.081,33.178a10.653,10.653,0,0,0-2.024-1.211,1.575,1.575,0,0,1-.5,1.382,2.278,2.278,0,0,1-1.223.4c-.889-.013-2.233-.317-2.213-1.643A1.6,1.6,0,0,1,37.6,30.59a4.2,4.2,0,0,1,.709-.02,4.412,4.412,0,0,1,.624.061c.005-.335-.016-.67-.029-.993-.3.015-.6.022-.9.018-.69-.01-1.657-.077-1.641-1.154a2.026,2.026,0,0,1,.23-.866l.958-.048a2.516,2.516,0,0,0-.207.719c0,.335.371.34.566.343a5.862,5.862,0,0,0,.967-.029c-.027-.5-.027-1.014-.03-1.515a22.117,22.117,0,0,0-3.018.237c-.059-.369-.1-.733-.137-1.1,1.047-.067,2.1-.126,3.145-.151-.006-.324,0-.649,0-.983l.006-.45c.252.035.5.06.75.095.126.023.268.026.4.058.046.013.1.033.1.107a.175.175,0,0,1-.119.155c-.025.324-.029.637-.034.962.8-.032,1.595-.049,2.39-.061l0,1.068c-.8-.012-1.595-.025-2.382.006-.008.514,0,1.014.013,1.528a10.351,10.351,0,0,0,2.287-.447l-.062,1.192c-.735.113-1.461.207-2.2.259.006.429.015.868.036,1.3A10.456,10.456,0,0,1,42.7,32.162c-.2.342-.406.684-.615,1.016m-3.119-1.521a1.949,1.949,0,0,0-.794-.17c-.322,0-.944.122-.951.614s.581.638.905.642c.5.008.836-.229.845-.856,0-.074-.007-.156,0-.23" transform="translate(-0.38)"></path><path class="cls-4" d="M50.052,32.81a5.009,5.009,0,0,1-2.549,1c-.19-.334-.342-.69-.547-1.015,1-.092,2.828-.418,2.828-1.966a1.056,1.056,0,0,0-1.171-1.076,2.682,2.682,0,0,0-1.576.639,3.793,3.793,0,0,0-.932,1.338l-.992-.533a8.616,8.616,0,0,0,1.2-3.587c-.35.022-.69.032-1.039.032h-.724c-.026-.389-.073-.765-.081-1.149a11.312,11.312,0,0,0,1.308.082c.212,0,.428,0,.642-.013a18.172,18.172,0,0,0,.1-1.985c.268.041.536.073.8.115a2.18,2.18,0,0,1,.358.062c.063.02.134.054.134.148a.26.26,0,0,1-.162.208c-.035.461-.061.92-.124,1.37a13.631,13.631,0,0,0,2.729-.544l-.017,1.225a25.184,25.184,0,0,1-2.881.387,13.276,13.276,0,0,1-.42,1.84,3.362,3.362,0,0,1,1.949-.564,1.923,1.923,0,0,1,1.995,2.11,2.482,2.482,0,0,1-.832,1.873" transform="translate(-0.38)"></path><path class="cls-4" d="M59.173,31.993a6.358,6.358,0,0,1-3.424,1.444c-.27-.345-.52-.7-.8-1.015a10.034,10.034,0,0,0,2.064-.48A2.536,2.536,0,0,0,58.968,29.5c0-1.379-.713-1.84-1.762-1.84a7.976,7.976,0,0,0-3.078,1.024,7.382,7.382,0,0,1-1.154.407c-.043-.148-.434-1.337-.434-1.367,0-.106.113-.074.165-.074a7.167,7.167,0,0,0,2.2-.557,8.18,8.18,0,0,1,2.617-.563,2.615,2.615,0,0,1,2.612,2.866,3.45,3.45,0,0,1-.956,2.6m-1.092-5.761a11.048,11.048,0,0,0-.9-1.275l.676-.4a8,8,0,0,1,.867,1.263ZM59.3,25.9a9.309,9.309,0,0,0-.918-1.358l.692-.388a7.746,7.746,0,0,1,.858,1.328Z" transform="translate(-0.38)"></path><path class="cls-4" d="M66.49,33.668a16.783,16.783,0,0,0-2.622-2.959,7.92,7.92,0,0,0-.759-.662,2.268,2.268,0,0,1-.434-.385.884.884,0,0,1-.165-.55,1.167,1.167,0,0,1,.4-.865c.419-.449.855-.865,1.261-1.322.609-.693,1.228-1.384,1.821-2.117.253.214.505.417.757.631a1.915,1.915,0,0,1,.289.244.138.138,0,0,1,.042.091c0,.142-.191.164-.287.142-.575.551-1.167,1.09-1.751,1.649-.243.233-.468.488-.713.722-.114.113-.244.213-.348.336a.656.656,0,0,0-.21.4.389.389,0,0,0,.157.306c.367.346.774.642,1.15.966a17.6,17.6,0,0,1,2.313,2.494c-.3.284-.6.588-.9.874" transform="translate(-0.38)"></path><path class="cls-4" d="M71.394,31c-.305-.022-.617-.056-.915-.086a6.94,6.94,0,0,1-.354-2.37c.039-1.129.226-2.252.361-3.369.27.04.547.094.818.135.095.024.225.029.321.063a.111.111,0,0,1,.075.109.221.221,0,0,1-.112.154,14.55,14.55,0,0,0-.445,2.987c-.006.209,0,.419.006.629,0,.019-.009.074.023.076s.047-.085.057-.093c.126-.334.257-.651.392-.971l.505.752A9.26,9.26,0,0,0,71.394,31M74.932,25.6c-.009,1.224-.018,2.481-.06,3.715-.069,1.966-.489,3.8-2.086,4.7a4.924,4.924,0,0,0-.935-.568c-.025-.01-.053-.011-.051-.055s.046-.071.075-.091a3.507,3.507,0,0,0,.608-.4,4.781,4.781,0,0,0,1.31-3.669,41.248,41.248,0,0,0-.094-4.161,6.927,6.927,0,0,1,.819.115,3.405,3.405,0,0,1,.435.076.106.106,0,0,1,.082.121.388.388,0,0,1-.1.214" transform="translate(-0.38)"></path><path class="cls-4" d="M84.109,29.391a.206.206,0,0,1-.127-.053c-.605.221-1.773.713-2.328.986v1.612l-.995-.01c.01-.146.01-.3.01-.481v-.587c-.673.335-1.011.764-1.011,1.245,0,.42.387.64,1.153.64a7.014,7.014,0,0,0,2.448-.418l-.035,1.225a6.477,6.477,0,0,1-2.11.3c-1.649,0-2.472-.555-2.472-1.678a2.12,2.12,0,0,1,.689-1.5,5.916,5.916,0,0,1,1.278-.9c-.016-.471-.151-.713-.395-.713a1.192,1.192,0,0,0-.866.4,8.1,8.1,0,0,0-.649.713c-.309.367-.5.619-.621.742-.151-.188-.386-.471-.7-.858a7.511,7.511,0,0,0,2.12-2.838c-.446.062-.942.1-1.482.135-.033-.4-.083-.765-.133-1.088a13.585,13.585,0,0,0,1.927-.106,9.33,9.33,0,0,0,.285-1.446l1.136.271a.126.126,0,0,1,.1.127c0,.061-.043.116-.134.157-.044.178-.119.449-.226.807a12.364,12.364,0,0,0,1.57-.389l-.092,1.155c-.463.1-1.086.209-1.858.322a6.63,6.63,0,0,1-.521,1.05,1.59,1.59,0,0,1,.479-.074c.514,0,.849.365,1,1.12.673-.376,1.438-.763,2.271-1.162l.386,1.173c0,.085-.033.126-.1.126" transform="translate(-0.38)"></path></g></g><g class="cls-5"><rect class="cls-6" x="137.906" y="0.497" width="121.907" height="121.907"></rect><g class="cls-5"><path class="cls-4" d="M148.909,15.692a19.007,19.007,0,0,1-1.837.718q-1.2.4-1.521.545v-3.3a18.859,18.859,0,0,0,2.368-1.148,8,8,0,0,0,1.966-1.406h3.472V34.346h-4.448Z" transform="translate(-0.38)"></path><polygon class="cls-4" points="161.931 14.487 155.617 14.487 155.617 11.101 166.264 11.101 166.264 13.999 161.357 34.346 157.052 34.346 161.931 14.487"></polygon><path class="cls-4" d="M230.365,74.491A15.97,15.97,0,0,0,215,58.553a15.949,15.949,0,0,0-30.078,0,15.939,15.939,0,0,0-9.207,28.512,15.94,15.94,0,0,0,24.324,17.583,15.942,15.942,0,0,0,24.2-17.6,15.933,15.933,0,0,0,6.13-12.556M212.7,63.864a12.747,12.747,0,0,1-10.86,12.585,12.625,12.625,0,0,1,10.694-14.543,12.75,12.75,0,0,1,.166,1.958m-12.68,36.647a12.7,12.7,0,0,1-.118-18.146,12.7,12.7,0,0,1,.118,18.146M187.389,61.905a12.619,12.619,0,0,1,10.694,14.544,12.626,12.626,0,0,1-10.694-14.544m9.5,18.284a12.692,12.692,0,0,1-17.229,5.605,12.692,12.692,0,0,1,17.229-5.605M203,80.1a12.7,12.7,0,0,1,17.313,5.671A12.7,12.7,0,0,1,203,80.1m-3.034-28.978a12.755,12.755,0,0,1,11.678,7.66,16,16,0,0,0-11.678,8.964,15.994,15.994,0,0,0-11.676-8.964,12.753,12.753,0,0,1,11.676-7.66m-27.19,23.366a12.756,12.756,0,0,1,11.373-12.665,16.324,16.324,0,0,0-.133,2.038,15.913,15.913,0,0,0,5.211,11.783,15.986,15.986,0,0,0-12.23,8.289,12.7,12.7,0,0,1-4.221-9.445m5.526,17a12.618,12.618,0,0,1,.279-2.64,15.923,15.923,0,0,0,14.636-.4,15.883,15.883,0,0,0,4.233,14.028A12.713,12.713,0,0,1,178.3,91.493m43.331-.106a12.719,12.719,0,0,1-19.021,11.066A15.89,15.89,0,0,0,206.69,88.44a15.914,15.914,0,0,0,14.68.4,12.651,12.651,0,0,1,.258,2.546M210.8,75.554a15.911,15.911,0,0,0,5.113-11.69,16.135,16.135,0,0,0-.134-2.038A12.717,12.717,0,0,1,222.968,83.9,15.978,15.978,0,0,0,210.8,75.554" transform="translate(-0.38)"></path><path class="cls-4" d="M178.893,13.37a12.921,12.921,0,0,1-.287,1.322,10.929,10.929,0,0,1-1.917,4.175,11.172,11.172,0,0,0-.973-.776c1.433-1.662,1.832-3.511,2.119-5.894l1.161.869a.155.155,0,0,1,.052.125.2.2,0,0,1-.155.179m3.286,5.092a18.911,18.911,0,0,0-2.081-5.484l.919-.773a20.072,20.072,0,0,1,2.193,5.342Zm.181-5.836a1.054,1.054,0,0,1-.891-1.164.925.925,0,1,1,1.787,0,1.061,1.061,0,0,1-.9,1.164m0-1.784c-.26,0-.466.281-.466.62s.206.62.466.62a.574.574,0,0,0,.479-.62.567.567,0,0,0-.479-.62" transform="translate(-0.38)"></path><path class="cls-4" d="M189.979,15.533c-.486-.03-.871-.03-1.267-.03-.45-.013-3.368,0-4.452.041-.017-.431-.043-.978-.052-1.3-.009-.16.061-.171.112-.16a4.126,4.126,0,0,0,.5.075c.521.032,1.307.023,1.907.023,1.238,0,1.914-.035,3.3-.055-.026.429-.034.977-.042,1.4" transform="translate(-0.38)"></path><path class="cls-4" d="M195.632,16.359a12.652,12.652,0,0,0-2.5-1.706c0,.175-.006.344-.006.5v2.407c0,.632.016,1.276.025,1.908h-1.2c.057-1.374.069-2.749.069-4.122,0-1.6-.012-3.2-.043-4.787l1.229.139a.125.125,0,0,1,.119.129.225.225,0,0,1-.137.192c-.025.979-.041,1.955-.06,2.932a3.924,3.924,0,0,0,.3-.526,11.636,11.636,0,0,1,2.88,1.8c-.23.376-.452.753-.674,1.125" transform="translate(-0.38)"></path><path class="cls-4" d="M204.376,14.406c-.42,0-.837-.008-1.255-.008h-1.36c-.024,2.338-.623,4.174-2.427,5.129a7.41,7.41,0,0,0-.963-.8c1.665-.816,2.231-2.158,2.272-4.339-.983.044-1.965.089-2.939.141,0-.44-.009-.879-.034-1.32.545.02,1.093.032,1.631.032h1.043a2.73,2.73,0,0,0,.317-.012c.006-.152.006-.3.006-.46,0-.729-.024-1.46-.059-2.191l1.187.15c.052.012.13.044.13.13a.233.233,0,0,1-.1.17l-.026,2.191c.873-.032,1.744-.065,2.626-.129,0,.439-.037.88-.045,1.32" transform="translate(-0.38)"></path><path class="cls-4" d="M211.269,15.533c-.487-.03-.872-.03-1.263-.03-.454-.013-3.044,0-4.13.041-.014-.431-.04-.978-.049-1.3-.009-.16.061-.171.11-.16a4.109,4.109,0,0,0,.5.075c.521.032,1.854.023,2.451.023,1.24,0,1.045-.035,2.428-.055-.026.429-.033.977-.043,1.4" transform="translate(-0.38)"></path><path class="cls-4" d="M215.044,15.32a10.374,10.374,0,0,0-1.936-1.557c.21-.356.4-.72.6-1.077a8.11,8.11,0,0,1,1.957,1.527Zm-1.273,3.86c-.058-.126-.571-1.15-.571-1.2,0-.074.083-.084.118-.1a9.166,9.166,0,0,0,1.553-.479,13.14,13.14,0,0,0,4.466-3.482c.033.533.082,1.068.14,1.589a11.669,11.669,0,0,1-5.706,3.67m2.422-6.233a9.135,9.135,0,0,0-1.793-1.276c.189-.344.372-.71.544-1.077a6.592,6.592,0,0,1,1.87,1.265c-.191.377-.4.732-.621,1.088" transform="translate(-0.38)"></path><path class="cls-4" d="M222.212,16.21a13.22,13.22,0,0,0-.678-2.3l.925-.375a11.825,11.825,0,0,1,.654,2.288c-.3.148-.6.263-.9.388m4.514-2.385a10.372,10.372,0,0,1-1.462,4.153,5.16,5.16,0,0,1-2.308,1.788c-.234-.291-.48-.565-.719-.858,2.388-.722,3.241-2.812,3.5-5.751l1.051.407a.1.1,0,0,1,.058.1.191.191,0,0,1-.116.166m-2.951,1.821a13.246,13.246,0,0,0-.653-2.216c.306-.106.609-.209.918-.325a11.264,11.264,0,0,1,.627,2.216c-.3.1-.6.208-.892.325" transform="translate(-0.38)"></path><path class="cls-4" d="M233.89,12.9a10.39,10.39,0,0,1-2.77,5.218,5.742,5.742,0,0,1-1.589,1.076,13.515,13.515,0,0,0-.992-.97c2.058-.661,3.5-2.587,4.084-5.147-1.446.021-2.893.125-4.34.2-.024-.427-.042-.856-.049-1.285.387.01.777.032,1.165.032.762,0,1.521-.022,2.281-.032.391-.009.786,0,1.176-.03a.646.646,0,0,0,.43-.157,7.644,7.644,0,0,1,.761.907c0,.086-.117.149-.157.191m.494-.828a.978.978,0,0,1-.85-1.064.875.875,0,1,1,1.7,0,.984.984,0,0,1-.853,1.064m0-1.642a.525.525,0,0,0-.454.578.51.51,0,0,0,.454.554.522.522,0,0,0,.455-.554.531.531,0,0,0-.455-.578" transform="translate(-0.38)"></path><path class="cls-4" d="M242.235,12.305c-.036,0-.066-.021-.1-.023a2.784,2.784,0,0,0-1.078.21,3.57,3.57,0,0,0-1.831,3.137c-.079,2.056,1.359,2.344,2.577,2.388-.068.388-.149.781-.239,1.168l-.172-.008a4.12,4.12,0,0,1-1.659-.417,2.928,2.928,0,0,1-1.444-2.864,6.2,6.2,0,0,1,.926-3.1c-.913.158-1.808.342-2.706.571-.03-.4-.083-.79-.112-1.188.82-.1,1.63-.209,2.443-.341a17.21,17.21,0,0,0,3.276-.808c.037.171.227,1.072.223,1.179,0,.081-.047.1-.1.1m-.7,2.591c-.146-.491-.307-.984-.482-1.448l.586-.308a10.981,10.981,0,0,1,.447,1.429Zm.948-.364A10.79,10.79,0,0,0,242,13l.579-.324c.176.492.338.985.483,1.486Z" transform="translate(-0.38)"></path><path class="cls-4" d="M176.608,24.021h5.726v8.928h-5.726Zm4.724,1.059h-3.76v1.564h3.76Zm0,2.6h-3.76v1.544h3.76Zm0,2.524h-3.76v1.726h3.76Z" transform="translate(-0.38)"></path><path class="cls-4" d="M186.351,29.263a5.986,5.986,0,0,1-.344-.524v4.32H185.1V29.043a3.934,3.934,0,0,1-.661,1.172l-.619-.743a7.06,7.06,0,0,0,1.222-2.949h-.88v-.941h.929V23.543l.914.074a.139.139,0,0,1,.142.138c0,.082-.084.144-.142.165v1.662h.512v.941H186v.513a6.609,6.609,0,0,0,.845,1.39c-.166.284-.324.566-.492.837m1.7,2.019a6.328,6.328,0,0,1-1.214,1.5l-.636-.648a3.644,3.644,0,0,0,1.172-1.609l.822.563a.109.109,0,0,1,.032.084c0,.115-.108.126-.176.105m1.936-6.452v.647H191.3V28h-4.564V25.477h1.2V24.83h-1.465v-.858h5.1v.858Zm-.443,5.562c0,.482.007.974.007,1.453,0,1-.578,1.2-1.248,1.308l-.518-.8c.35-.072.8-.072.8-.659V30.392h-2.066v-.814h5.072v.814Zm-2.405-1.966h3.8v.785h-3.8Zm.829-2.155h-.436v1h.436Zm1.212-1.441h-.46v.647h.46Zm0,1.441h-.46v1h.46Zm2.037,6.548a7.546,7.546,0,0,1-1.366-1.7l.771-.532a5.364,5.364,0,0,0,1.239,1.539Zm-.773-6.548h-.484v1h.484Z" transform="translate(-0.38)"></path><path class="cls-4" d="M199.854,28.513a.219.219,0,0,1-.123-.054c-.6.22-1.768.712-2.319.982v1.612l-.99-.01c.009-.147.009-.3.009-.482v-.585c-.668.333-1,.764-1,1.243,0,.419.385.639,1.147.639a7.03,7.03,0,0,0,2.437-.417l-.035,1.221a6.422,6.422,0,0,1-2.1.3c-1.64,0-2.46-.552-2.46-1.673a2.124,2.124,0,0,1,.687-1.506,6.051,6.051,0,0,1,1.272-.9c-.018-.471-.15-.712-.393-.712a1.191,1.191,0,0,0-.864.4,9.38,9.38,0,0,0-.646.709c-.308.367-.5.619-.618.744-.15-.189-.384-.47-.7-.856a7.522,7.522,0,0,0,2.113-2.835c-.445.064-.941.106-1.475.137-.034-.4-.083-.765-.135-1.088a13.449,13.449,0,0,0,1.918-.105,8.9,8.9,0,0,0,.284-1.443l1.13.271a.126.126,0,0,1,.1.126c0,.064-.041.116-.135.157-.041.178-.116.45-.225.805a12.656,12.656,0,0,0,1.565-.387l-.092,1.149c-.461.105-1.081.21-1.851.326a6.405,6.405,0,0,1-.519,1.045,1.607,1.607,0,0,1,.479-.072c.51,0,.843.366,1,1.118.669-.377,1.431-.763,2.259-1.16l.384,1.17c0,.084-.031.128-.1.128" transform="translate(-0.38)"></path><path class="cls-4" d="M208.525,32.922c-.434.008-.866.03-1.3.03a7.23,7.23,0,0,1-4.451-1.176,6.3,6.3,0,0,1-.624,1.267l-.711-.531c.785-.981.925-2.8.934-4.13H201.34v-.91h1.972a15.386,15.386,0,0,1-.328,3.272c1.2,1.185,2.94,1.248,4.4,1.248.469,0,.943-.041,1.41-.063Zm-5.67-7.114a12.4,12.4,0,0,0-1.3-1.074l.654-.95a9.256,9.256,0,0,1,1.178,1.256Zm4.812.776c-.107.254-.205.522-.3.788h1.325v.806H206.5v.481h1.738v.785H206.5v.441h2.219v.827h-2.211V31.7h-.89v-.983h-2.054v-.827h2.054v-.441h-1.614v-.785h1.614v-.481h-2.07v-.806h1.187c-.074-.266-.14-.534-.231-.788h-.967v-.807H205.6v-.592h-1.8v-.87H205.6v-.839l.915.073c.075.007.158,0,.158.123,0,.08-.083.122-.133.152v.491h1.932v.87h-1.94v.592h2.211v.807Zm-2.243-.02c.032.274.081.542.113.816h1.033c.049-.274.105-.542.146-.816Z" transform="translate(-0.38)"></path><path class="cls-4" d="M217.367,33.1a6.82,6.82,0,0,1-1.83-1.98,5.406,5.406,0,0,1-2.014,1.915l-.678-.708a5.244,5.244,0,0,0,2.186-2.185,12.628,12.628,0,0,1-.977-3.962h-2.011v.055c0,.4.007.786.007,1.184H214c-.017.807-.017,1.624-.107,2.421-.158,1.313-.537,1.733-1.549,1.84l-.455-.85c1-.129,1.134-.559,1.151-1.787l.01-.733h-1.028c0,1.519-.214,3.607-1.059,4.738l-.779-.614c.853-1.078.91-2.862.91-4.315,0-.969-.051-1.949-.067-2.918h2.956c-.049-.636-.065-1.281-.081-1.916l1.087.151c.056.01.171.042.171.151a.3.3,0,0,1-.157.226c-.009.258-.009.5-.009.763,0,.205,0,.421.009.625h2.651v1h-2.609a12.683,12.683,0,0,0,.5,2.82,10.606,10.606,0,0,0,.581-2.316l1.033.713a.253.253,0,0,1,.1.191c0,.121-.166.164-.233.174a13.082,13.082,0,0,1-.9,2.391,5.945,5.945,0,0,0,1.928,1.873Zm-.249-9.019c-.2.356-.39.721-.6,1.066l-.76-.291a13.75,13.75,0,0,0,.461-1.559l.962.427a.223.223,0,0,1,.133.186c0,.107-.133.161-.2.171" transform="translate(-0.38)"></path><path class="cls-4" d="M224.056,32.087a3.692,3.692,0,0,1-2.219.712c-1.189,0-1.934-.847-2-2.33-.017-.2-.007-.4-.007-.6,0-.563.007-1.128.024-1.705.025-1.349.042-2.707.06-4.055.258.041.526.094.787.155a1.677,1.677,0,0,1,.326.073c.066.032.15.074.15.169a.221.221,0,0,1-.126.178c-.1,1.82-.175,3.658-.175,5.478,0,.932.334,1.5,1.114,1.5a2.2,2.2,0,0,0,1.064-.3,4.255,4.255,0,0,0,1.681-2.183l.612,1.358a4.942,4.942,0,0,1-1.29,1.557" transform="translate(-0.38)"></path><path class="cls-4" d="M232.607,32.422a9.57,9.57,0,0,0-1.9-1.485,1.623,1.623,0,0,1-1.807,1.746c-.828,0-2.1-.523-2.1-1.778a1.662,1.662,0,0,1,1.834-1.694,3.953,3.953,0,0,1,1.046.136c0-1.463-.058-2.938-.168-4.393-.033-.355-.051-.71-.11-1.055l1.115.177c.05.01.142.064.142.148a.2.2,0,0,1-.092.146v.4c0,.458-.008.92.009,1.38h.1a8.273,8.273,0,0,0,1.155-.063c.3-.042.595-.114.888-.165,0,.406-.017.813-.025,1.233-.469.041-.947.071-1.414.071-.219,0-.434-.008-.663-.019.026.835.034,1.674.059,2.521a13.6,13.6,0,0,1,2.62,1.588Zm-2.92-1.978a2.45,2.45,0,0,0-1.106-.271.737.737,0,0,0-.745.659c0,.648.585.815,1,.815.5,0,.855-.228.855-.909Z" transform="translate(-0.38)"></path><path class="cls-4" d="M236.954,32.838c-.309-.3-.618-.616-.947-.888a4.05,4.05,0,0,0,2.411-1.822,3.488,3.488,0,0,0,.329-1.534c0-.932-.286-1.464-1.065-1.464a6.716,6.716,0,0,0-2.37,1.118c-.058-.156-.459-1.235-.459-1.328,0-.073.082-.063.117-.063a5.12,5.12,0,0,0,1.037-.3,5.442,5.442,0,0,1,1.951-.532c1.34,0,1.926,1.129,1.926,2.686a4.434,4.434,0,0,1-2.93,4.13m1.464-7.54a11.757,11.757,0,0,0-2.368-.941c.159-.375.308-.753.467-1.13a9.069,9.069,0,0,1,2.432.953c-.17.377-.338.754-.531,1.118" transform="translate(-0.38)"></path></g></g><rect class="cls-1" x="275.466" y="0.626" width="122.309" height="122.309"></rect><rect class="cls-1" x="412.919" width="122.936" height="122.936"></rect></g></g></svg>