<svg xmlns="http://www.w3.org/2000/svg" xmlns:xlink="http://www.w3.org/1999/xlink" width="535.715" height="123.076" viewBox="0 0 535.715 123.076"><defs><style>.cls-1,.cls-4{fill:none;}.cls-2{clip-path:url(#clip-path);}.cls-3{fill:#fff;}.cls-4{stroke:#fff;stroke-linecap:round;stroke-miterlimit:10;stroke-width:15.164px;}.cls-5{fill:#008a3a;}.cls-6{clip-path:url(#clip-path-3);}.cls-7{fill:#8e0f2b;}</style><clipPath id="clip-path" transform="translate(-0.52)"><rect class="cls-1" y="0.626" width="122.936" height="122.936"></rect></clipPath><clipPath id="clip-path-3" transform="translate(-0.52)"><rect class="cls-1" x="137.766" y="0.626" width="122.936" height="122.936"></rect></clipPath></defs><g id="&#x30EC;&#x30A4;&#x30E4;&#x30FC;_2" data-name="&#x30EC;&#x30A4;&#x30E4;&#x30FC; 2"><g id="&#x30EC;&#x30A4;&#x30E4;&#x30FC;_1-2" data-name="&#x30EC;&#x30A4;&#x30E4;&#x30FC; 1"><g class="cls-2"><g class="cls-2"><path class="cls-3" d="M11.286,16.363a19.007,19.007,0,0,1-1.837.718q-1.2.4-1.521.545v-3.3A19.213,19.213,0,0,0,10.3,13.178a8,8,0,0,0,1.966-1.406h3.472V35.017H11.286Z" transform="translate(-0.52)"></path><path class="cls-3" d="M94.555,59.316a3.389,3.389,0,1,1,3.393,3.391,3.392,3.392,0,0,1-3.393-3.391" transform="translate(-0.52)"></path><path class="cls-3" d="M101.906,64.014a4.518,4.518,0,0,1,4.1,4.5v9.4a1.314,1.314,0,1,1-2.628,0V69.843c0-.3-.088-.712-.642-.712-.382,0-.462.406-.476.664V93.988a1.89,1.89,0,0,1-3.779,0V80.046a.513.513,0,0,0-.536-.553h0a.52.52,0,0,0-.546.553V93.988a1.888,1.888,0,1,1-3.775,0V69.8c-.013-.258-.095-.664-.475-.664-.557,0-.641.41-.641.712v8.072a1.314,1.314,0,1,1-2.628,0v-9.4a4.52,4.52,0,0,1,4.109-4.5,2.009,2.009,0,0,1,.248-.02h7.409a2.2,2.2,0,0,1,.259.02" transform="translate(-0.52)"></path><path class="cls-3" d="M74.394,61.1a3.21,3.21,0,1,0-3.208,3.211A3.21,3.21,0,0,0,74.394,61.1" transform="translate(-0.52)"></path><path class="cls-3" d="M64.717,68.369l-2.669,8.688s-.476,1.593.875,1.991,1.753-1.157,1.753-1.157l2.152-7.251s.117-.558.536-.437.262.717.262.717L63.88,84.508h3.484v9.733a1.672,1.672,0,0,0,3.344,0V84.508h.951v9.733a1.673,1.673,0,0,0,3.346,0V84.508h3.482L74.745,70.92s-.158-.6.26-.717.537.437.537.437l2.152,7.251s.409,1.555,1.751,1.157.877-1.991.877-1.991l-2.669-8.688s-.954-2.511-3.066-2.511h-6.8c-2.112,0-3.067,2.511-3.067,2.511" transform="translate(-0.52)"></path><path class="cls-3" d="M55.165,61.1a3.21,3.21,0,1,0-3.209,3.211A3.212,3.212,0,0,0,55.165,61.1" transform="translate(-0.52)"></path><path class="cls-3" d="M45.486,68.369l-2.667,8.688s-.477,1.593.875,1.991,1.752-1.157,1.752-1.157L47.6,70.64s.117-.558.536-.437.261.717.261.717L44.651,84.508h3.483v9.733a1.673,1.673,0,0,0,3.345,0V84.508h.951v9.733a1.673,1.673,0,0,0,3.345,0V84.508h3.484L55.517,70.92s-.159-.6.258-.717.538.437.538.437l2.15,7.251s.409,1.555,1.752,1.157.876-1.991.876-1.991l-2.669-8.688s-.951-2.511-3.064-2.511h-6.8c-2.11,0-3.068,2.511-3.068,2.511" transform="translate(-0.52)"></path><path class="cls-3" d="M85.176,79.066A2.673,2.673,0,1,0,82.5,76.391a2.671,2.671,0,0,0,2.672,2.675" transform="translate(-0.52)"></path><path class="cls-3" d="M78.769,87.367a.928.928,0,0,0,.389,1.265.893.893,0,0,0,1.146-.374l1.453-4.632s.252-.311.252.01V94.542h.006a1.371,1.371,0,1,0,2.742,0v-4.3s-.08-.608.411-.608.415.608.415.608v4.3a1.374,1.374,0,0,0,2.747,0V83.636c0-.321.17-.092.17-.092l1.138,3.173a7.625,7.625,0,0,0,.647,1.48,1.013,1.013,0,0,0,1.324-.548,1,1,0,0,0-.108-.975l.009-.01c-.032-.1-1.7-4.2-1.9-4.77-.6-1.76-1.7-1.745-2.755-1.774s-1.689,0-1.689,0-.675-.027-2.07.014-1.832.758-3.368,4.71c-.219.569-.961,2.411-.971,2.521Z" transform="translate(-0.52)"></path><path class="cls-3" d="M26.493,59.316A3.39,3.39,0,1,0,23.1,62.707a3.393,3.393,0,0,0,3.394-3.391" transform="translate(-0.52)"></path><path class="cls-3" d="M19.141,64.014a4.52,4.52,0,0,0-4.1,4.5v9.4a1.315,1.315,0,0,0,2.63,0V69.843c0-.3.088-.712.642-.712.382,0,.461.406.478.664V93.988a1.887,1.887,0,1,0,3.774,0V80.046a.517.517,0,0,1,.539-.553h0a.518.518,0,0,1,.544.553V93.988a1.888,1.888,0,1,0,3.776,0V69.8c.011-.258.1-.664.476-.664.557,0,.64.41.64.712v8.072a1.315,1.315,0,0,0,2.629,0v-9.4a4.519,4.519,0,0,0-4.108-4.5,2.027,2.027,0,0,0-.249-.02H19.4a2.168,2.168,0,0,0-.259.02" transform="translate(-0.52)"></path><line class="cls-4" x1="15.665" y1="79.281" x2="12.654" y2="95.24"></line><path class="cls-3" d="M32.775,77.665a.973.973,0,0,0-1.8.515,1.775,1.775,0,0,0,.095.427l2.694,4.876a1.725,1.725,0,0,1,.165.642V94.6h.005a1.316,1.316,0,1,0,2.631,0V90.463s-.074-.584.4-.584.4.584.4.584V94.6A1.319,1.319,0,0,0,40,94.6V84.125a1.741,1.741,0,0,1,.163-.642l2.49-4.5a4.393,4.393,0,0,0,.3-.8.973.973,0,0,0-1.8-.515l-.011-.005c-.078.067-1.326,2.288-1.737,2.7a1.082,1.082,0,0,1-.825.391H35.348a1.08,1.08,0,0,1-.826-.391c-.417-.411-1.659-2.632-1.738-2.7Z" transform="translate(-0.52)"></path><path class="cls-3" d="M36.965,79.066a2.673,2.673,0,1,0-2.671-2.675,2.671,2.671,0,0,0,2.671,2.675" transform="translate(-0.52)"></path><polygon class="cls-3" points="36.45 82.816 39.47 85.019 40.905 90.304 36.45 90.304 31.991 90.304 33.429 85.019 36.45 82.816"></polygon><path class="cls-3" d="M35.842,15.063a6.579,6.579,0,0,1-1.178-.751,3.217,3.217,0,0,1-.117.645c-.245.866-1.216.919-1.878.942l-.4-.751c.335,0,1.032,0,1.187-.433a1.911,1.911,0,0,0,.081-.384H32.281a4.334,4.334,0,0,1-1.632,1.62h4.467v3.938H34.047a4.352,4.352,0,0,0,2.147.771l-.6.985a9.381,9.381,0,0,1-2.793-1.217l.571-.539H30.921l.544.485a.268.268,0,0,1,.1.151c0,.083-.1.115-.154.115a.254.254,0,0,1-.147-.042,10.122,10.122,0,0,1-2.473,1.069l-.6-.923a4.921,4.921,0,0,0,2.119-.855h-.906v-3.3a4.509,4.509,0,0,1-.741.286l-.527-.845a4.2,4.2,0,0,0,2.783-1.7H29.552a4.777,4.777,0,0,1-1.007.562l-.724-.729a4.818,4.818,0,0,0,2.61-2.286l1.1.361a.136.136,0,0,1,.092.136c0,.139-.147.19-.237.2a5.745,5.745,0,0,1-.923.974h3.3a11.029,11.029,0,0,1-1.024-1.1l.97-.582a6.277,6.277,0,0,0,2.81,2.231Zm-1.758,1.63H30.359v.4h3.725Zm.008,1.036H30.359v.4h3.733Zm0,1.017H30.359v.391h3.733Z" transform="translate(-0.52)"></path><path class="cls-3" d="M38.347,12.532h7.368v8.994H38.347Zm6.3.975H39.37v7.067h5.276Zm-.735,5.956a8.818,8.818,0,0,1-1.4-2.073V20.3h-.941V17.42a6.852,6.852,0,0,1-1.515,2.023l-.679-.71a6.5,6.5,0,0,0,1.913-2.71H39.734v-.886h1.8V13.749l.951.087c.083.008.171.02.171.147,0,.063-.072.126-.117.147v1.007H44.3v.886H42.779a7.453,7.453,0,0,0,1.857,2.69Z" transform="translate(-0.52)"></path><path class="cls-3" d="M54.908,16.859a.254.254,0,0,1-.135-.052c-.643.219-1.889.712-2.48.981V19.4l-1.055-.007c.008-.147.008-.3.008-.481v-.586c-.718.333-1.074.762-1.074,1.243,0,.419.411.638,1.226.638a13.547,13.547,0,0,0,2.608-.186l.014,1.17a10.919,10.919,0,0,1-2.3.124c-1.753,0-2.632-.552-2.632-1.673a2.066,2.066,0,0,1,.734-1.5,6.414,6.414,0,0,1,1.361-.9c-.016-.47-.161-.71-.42-.71a1.3,1.3,0,0,0-.923.4,7.826,7.826,0,0,0-.689.711c-.331.365-.536.617-.663.742-.162-.188-.412-.469-.742-.856A7.582,7.582,0,0,0,50,14.683c-.476.062-1.005.1-1.578.136-.037-.4-.089-.763-.142-1.086a15.287,15.287,0,0,0,2.049-.106,8.349,8.349,0,0,0,.3-1.442l1.21.271a.125.125,0,0,1,.106.126c0,.062-.044.115-.141.157-.045.178-.127.449-.244.8a13.829,13.829,0,0,0,1.676-.386l-.1,1.149c-.492.106-1.155.21-1.978.325a6.588,6.588,0,0,1-.557,1.046,1.829,1.829,0,0,1,.51-.072c.549,0,.907.365,1.067,1.118.716-.377,1.531-.763,2.418-1.16l.413,1.17c0,.084-.036.126-.109.126" transform="translate(-0.52)"></path><path class="cls-3" d="M32.382,27.826c-.437.125-.867.23-1.3.313a21.632,21.632,0,0,1-1.953,4.9c-.332-.167-.664-.365-.986-.564a17.055,17.055,0,0,0,1.791-4.215,9.106,9.106,0,0,1-1.334.113c-.044-.364-.1-.73-.144-1.107a3.668,3.668,0,0,0,.494.022,8.152,8.152,0,0,0,1.245-.086,11.2,11.2,0,0,0,.24-1.806c.422.062.835.114,1.247.208-.108.481-.215.974-.36,1.454a9.106,9.106,0,0,0,1.076-.358c0,.369-.011.744-.011,1.121m2.5,6.4A7.557,7.557,0,0,0,33.7,33.145c.006.116,0,.23,0,.343-.04,1.08-.74,1.371-1.547,1.371a2.548,2.548,0,0,1-.846-.135,1.591,1.591,0,0,1-1.055-1.485,1.56,1.56,0,0,1,1.634-1.588,4.308,4.308,0,0,1,.733.061c-.01-.491-.027-.982-.008-1.475a2.135,2.135,0,0,1,.133-.71h.806c.053,0,.316-.042.311.084a.064.064,0,0,1-.01.042,1.321,1.321,0,0,0-.185.638c-.021.553,0,1.1.019,1.651a6.416,6.416,0,0,1,1.9,1.245c-.219.357-.447.711-.692,1.035m-2.228-1.506a1.505,1.505,0,0,0-.64-.114c-.341,0-.767.1-.786.6s.494.7.846.7c.331,0,.575-.073.592-.523.008-.218,0-.439-.012-.659m2.393-3.5a5.5,5.5,0,0,0-2.177-1.2l.519-1.045a5.514,5.514,0,0,1,2.231,1.2Z" transform="translate(-0.52)"></path><path class="cls-3" d="M41.589,34.9a17.264,17.264,0,0,0-2.627-3.1,8.27,8.27,0,0,0-.763-.7,2.175,2.175,0,0,1-.44-.407.915.915,0,0,1-.156-.569,1.2,1.2,0,0,1,.431-.88c.44-.45.9-.868,1.33-1.33.642-.7,1.293-1.394,1.919-2.131.255.225.509.439.764.664a1.872,1.872,0,0,1,.291.257.136.136,0,0,1,.042.095c0,.147-.2.165-.3.142-.6.552-1.225,1.091-1.837,1.653-.257.233-.495.49-.75.726a4.856,4.856,0,0,0-.366.336.686.686,0,0,0-.226.413.4.4,0,0,0,.157.317c.366.364.779.677,1.156,1.02a18.323,18.323,0,0,1,2.327,2.615c-.321.286-.633.592-.953.877" transform="translate(-0.52)"></path><path class="cls-3" d="M48.6,30.356a2.455,2.455,0,0,0-.8,2.246c.167,1.021,1.4,1.162,2.044,1.162.206,0,.422-.012.637-.032-.1.4-.215.782-.314,1.169h-.189c-1.263,0-3.071-.226-3.233-2.175a3.561,3.561,0,0,1,.742-2.689,18.632,18.632,0,0,0-3.14.729c-.058-.4-.145-.79-.224-1.178a8,8,0,0,0,1.663-.394,11.851,11.851,0,0,0,2.169-2.176,14.716,14.716,0,0,1-1.886.05c0-.368,0-.739-.024-1.1a11.785,11.785,0,0,0,2.84-.018A2.732,2.732,0,0,0,49.6,25.7c.182.33.361.671.522,1.01a24.373,24.373,0,0,0-2.72,2.444c1.329-.171,2.662-.291,3.99-.38-.016.419-.014.842-.037,1.259a4.68,4.68,0,0,0-2.749.325" transform="translate(-0.52)"></path><path class="cls-3" d="M55.877,35.3c-.337-.309-.675-.629-1.033-.91a4.387,4.387,0,0,0,2.633-1.861,4.388,4.388,0,0,0,.373-1.653c.063-.949-.211-1.514-1.059-1.571a7.576,7.576,0,0,0-2.655.97c-.052-.166-.418-1.3-.412-1.391.005-.074.1-.057.133-.055a5.858,5.858,0,0,0,1.15-.234,6.262,6.262,0,0,1,2.16-.4c1.459.1,2.02,1.293,1.914,2.884a4.775,4.775,0,0,1-3.2,4.223m1.6-7.845a13.406,13.406,0,0,0-2.586-.979c.174-.392.336-.783.511-1.176a9.951,9.951,0,0,1,2.648.992c-.182.391-.364.782-.573,1.163" transform="translate(-0.52)"></path><rect class="cls-5" y="1.168" width="121.907" height="121.907"></rect><path class="cls-3" d="M11.643,33.582a8.147,8.147,0,0,1-1.464-5.194v-.8H14.6v.775a6.137,6.137,0,0,0,.431,2.554,1.5,1.5,0,0,0,1.463.775,1.405,1.405,0,0,0,1.421-.789,6.679,6.679,0,0,0,.359-2.569,5.494,5.494,0,0,0-.546-2.769,2.206,2.206,0,0,0-2.009-.933,5.419,5.419,0,0,0-.8-.028V21.357h.717a2.376,2.376,0,0,0,2.067-.8,4.656,4.656,0,0,0,.574-2.64,4.554,4.554,0,0,0-.416-2.21,1.565,1.565,0,0,0-1.478-.717A1.388,1.388,0,0,0,15,15.761a5.734,5.734,0,0,0-.4,2.3V19.09H10.179V17.827A6.467,6.467,0,0,1,11.8,13.12a6.1,6.1,0,0,1,4.578-1.664,6.359,6.359,0,0,1,4.649,1.607,6.192,6.192,0,0,1,1.635,4.62,6.357,6.357,0,0,1-.832,3.372,3.563,3.563,0,0,1-2.123,1.708q2.955,1.09,2.955,5.481A8.345,8.345,0,0,1,21.17,33.51a5.638,5.638,0,0,1-4.735,1.909q-3.33,0-4.792-1.837" transform="translate(-0.52)"></path><path class="cls-3" d="M102.606,77.426c0-3.445-2.211-6.239-5.56-6.239-1.674,0-3.694,1.834-4.791,2.961-1.1-1.129-2.983-2.964-4.658-2.964-3.349,0-5.7,2.794-5.7,6.241a6.309,6.309,0,0,0,1.777,4.413l8.584,8.6,8.573-8.591-.006-.006a6.317,6.317,0,0,0,1.777-4.415" transform="translate(-0.52)"></path><path class="cls-3" d="M66.057,104.478c-.029,0-.058,0-.087,0a1.408,1.408,0,0,1-1.3-1.169l-4.361-25.4L53.7,90.158a1.411,1.411,0,0,1-2.637-.469l-2.8-19.6L43.131,81.613a1.411,1.411,0,0,1-1.288.836H21.9a1.41,1.41,0,1,1,0-2.819H40.928l6.748-15.158a1.409,1.409,0,0,1,2.683.374l2.892,20.209,6.514-12.077a1.41,1.41,0,0,1,2.63.43l4.038,23.521L81.15,48.042a1.41,1.41,0,0,1,2.62-.207l7.744,16.054a1.41,1.41,0,0,1-2.54,1.225L82.805,52.325l-15.4,51.15a1.408,1.408,0,0,1-1.349,1" transform="translate(-0.52)"></path><path class="cls-3" d="M79.394,21.827c-.32.032-.639.077-.968.117a13.825,13.825,0,0,1-.46-4.057,26.246,26.246,0,0,1,.46-4.565l.773.181a2.425,2.425,0,0,1,.381.1.134.134,0,0,1,.1.139.145.145,0,0,1-.143.14,21.18,21.18,0,0,0-.515,4.739c0,.387.018.763.018,1.152.16-.486.311-.98.478-1.465.223.2.447.419.666.624a10.21,10.21,0,0,0-.789,2.9m5.644-.2a7.129,7.129,0,0,1-1.623.093c-1.269-.041-2.452-.249-2.607-2.2.3-.226.6-.465.906-.683,0,1.11.516,1.61,1.343,1.638a5.634,5.634,0,0,0,2-.244c-.007.465-.014.928-.02,1.4m-.223-5.973a6.9,6.9,0,0,0-2.058-.128,9.161,9.161,0,0,0-1.421.251c-.038-.384-.064-.862-.11-1.248a10.741,10.741,0,0,1,2.014-.243,7.31,7.31,0,0,1,1.676.084c-.033.424-.057.859-.1,1.284" transform="translate(-0.52)"></path><path class="cls-3" d="M39.257,15.581c-.371-.031-.744-.053-1.107-.061-.544-.016-1.085-.039-1.62-.022.009.4-.01.781.016,1.182a3.563,3.563,0,0,1,.337,1.719c0,1.815-.726,3.438-2.229,4-.325-.282-.67-.531-.987-.825A2.784,2.784,0,0,0,35.63,19.7a1.367,1.367,0,0,1-.75.175c-.77,0-1.223-.991-1.223-1.829,0-1.045.516-2.078,1.468-2.078a1.492,1.492,0,0,1,.362.043c0-.172-.008-.35-.018-.524-.617,0-1.232.043-1.838.082-.59.051-1.168.112-1.749.194-.035-.414-.019-.837-.035-1.251,1.2-.024,2.4-.024,3.6-.068-.027-.535-.044-1.063-.053-1.607.262.021.543.066.807.108a2.963,2.963,0,0,1,.335.054c.062.012.134.032.134.132a.3.3,0,0,1-.116.226c-.011.35-.018.723-.018,1.071.924-.008,1.856-.027,2.781-.057Zm-4.041,1.447c-.416,0-.6.478-.6.924,0,.36.108.881.48.881.4,0,.472-.608.472-.978,0-.292,0-.827-.353-.827" transform="translate(-0.52)"></path><path class="cls-3" d="M47.72,22.043c-.459-.615-1-1.255-1.472-1.94-.565-.81-1.149-1.654-1.7-2.453-.189-.273-.377-.57-.566-.842-.1-.138-.223-.389-.394-.389-.244,0-.476.468-.611.671-.18.287-.361.594-.53.868-.3.5-.574,1.016-.871,1.506v.058c0,.091-.038.169-.116.169l-1-1.1a14.238,14.238,0,0,0,1.059-1.39c.342-.514.647-1.085,1.006-1.6.342-.465.61-.741,1.121-.741a1.182,1.182,0,0,1,.891.568c.2.241.387.561.565.812.425.6.845,1.223,1.275,1.792.664.9,1.528,1.974,2.227,2.817Zm-1.314-6.384c-.287-.512-.607-.993-.924-1.475l.617-.532a12.929,12.929,0,0,1,.9,1.479Zm1.056-.7a13.87,13.87,0,0,0-.924-1.486l.62-.519a16.744,16.744,0,0,1,.89,1.49Z" transform="translate(-0.52)"></path><path class="cls-3" d="M56.707,15a9.724,9.724,0,0,0-1.321.355,2.823,2.823,0,0,0-1.826,2.909c.018,2.184,1.372,2.388,2.724,2.413-.062.41-.125.829-.214,1.239l-.181,0a4.321,4.321,0,0,1-1.764-.415,3.266,3.266,0,0,1-1.711-3.115,5.005,5.005,0,0,1,1.057-3.109c-.994.062-2.107.168-3.084.309-.046-.539-.022-.86-.074-1.278a41.1,41.1,0,0,0,5.122-.321c.4-.059,1.081-.147,1.313-.181.043.163.14,1,.153,1.081s-.1.094-.194.116" transform="translate(-0.52)"></path><path class="cls-3" d="M63.237,21.906c-.269-.32-.514-.654-.787-.962,1.384-.414,2.662-1.014,2.662-3.087a2.872,2.872,0,0,0-1.829-2.972c-.237,1.888-.7,4.893-2.075,6.006a1.275,1.275,0,0,1-.813.349,1.293,1.293,0,0,1-.936-.635,4.087,4.087,0,0,1-.561-2.238c0-2.673,1.775-4.563,3.859-4.563,1.927,0,3.493,1.43,3.493,3.973a3.93,3.93,0,0,1-3.013,4.129m-3.078-5.033a4.49,4.49,0,0,0-.247,1.494c0,.447.08,1.607.57,1.607.174,0,.323-.209.43-.35.82-1.049,1.172-3.287,1.258-4.717a3.232,3.232,0,0,0-2.011,1.966" transform="translate(-0.52)"></path><path class="cls-3" d="M75.1,22.325a9.374,9.374,0,0,1-3.3-4.706,11.673,11.673,0,0,1-.483,1.416,7,7,0,0,1-1.94,2.638,5.183,5.183,0,0,1-.922.619l-.788-.91a5.078,5.078,0,0,0,1.064-.7,6.991,6.991,0,0,0,2.21-4.254,20.105,20.105,0,0,0,.142-3.373l1.245.14a.175.175,0,0,1,.17.161.213.213,0,0,1-.16.2c-.017.44-.027.878-.027,1.319a8.3,8.3,0,0,0,1.4,4.177,7.728,7.728,0,0,0,2.325,2.205Z" transform="translate(-0.52)"></path><path class="cls-3" d="M39.909,35.739c-.409.01-.819.02-1.228.02a4.485,4.485,0,0,1-3.665-1.3,5.727,5.727,0,0,1-.981,1.324l-.591-.513v.6h-1V30.794a5.909,5.909,0,0,1-.39.661l-.583-.887a13.063,13.063,0,0,0,1.572-4.593l1.084.491a.129.129,0,0,1,.073.107.168.168,0,0,1-.1.139h1.932v.867l-1.225,2.2h1.317a11.838,11.838,0,0,1-.618,3.793c.728,1.11,2.182,1.206,3.282,1.206.473,0,.936-.03,1.41-.064Zm-6.3-5.159v-.364l1.285-2.628h-.838V26.85c-.173.652-.374,1.3-.609,1.934v6.207a3.718,3.718,0,0,0,1.027-1.325,14.368,14.368,0,0,1-.727-2.543c.281-.148.555-.3.836-.448a10.567,10.567,0,0,0,.365,1.784,16.858,16.858,0,0,0,.217-1.879Zm6.029-1.241v1.485H38.09v.567h1.7V32.2h-1.7v.523h1.819v.844H38.1v.918h-.982v-.941H36.026v-.8h1.091V32.2h-.928v-.8h.928v-.579h-.864v-.769h.864v-.716H35.754v-.853h1.363V27.8H35.836v-.876h1.253v-.918l1.046.1a.149.149,0,0,1,.147.161c0,.084-.1.147-.156.191v.469h1.5v1.561h.545v.853ZM38.69,27.8h-.6v.7h.6Zm0,1.538h-.6v.716h.6Z" transform="translate(-0.52)"></path><path class="cls-3" d="M49.511,35.562a6.541,6.541,0,0,1-2.81-2.147c0,.254.009.5.009.749,0,1.135-.292,1.553-1.2,1.8l-.71-.781c.692-.2.939-.33.939-1.243V31.818H44.327c.337.3.665.6.972.926l-.6.628c-.363-.263-.726-.519-1.1-.758l.583-.8h-.138v-.8h1.682V30.51H43.409c-.008.385-.008.771-.037,1.155a8.9,8.9,0,0,1-1.089,4.029c-.265-.207-.519-.417-.791-.616.835-1.288.916-3.3.916-4.877,0-1.165-.043-2.332-.062-3.5h3.09V25.656c.346.022.784.022,1.12.065.063.012.145.034.145.134a.211.211,0,0,1-.156.185V26.7h3.12v.937H43.419c0,.659.007,1.309.007,1.968h2.292v-.461H44.046v-.827H45.7v-.571l.955.054c.072,0,.162.013.162.134a.2.2,0,0,1-.125.174v.209h2v1.268H49.81v.944H48.691V31.5l.082-.067.675.936a.27.27,0,0,1,.045.145.124.124,0,0,1-.119.131.432.432,0,0,1-.2-.079c-.5.156-1,.342-1.5.51a5.06,5.06,0,0,0,2.48,1.572Zm-4.02-1.451a17.8,17.8,0,0,1-1.7.824c-.02.078-.064.22-.146.22-.045,0-.083-.043-.11-.088l-.527-.933a27.432,27.432,0,0,0,2.537-1.049Zm2.2-4.989h-1v.5h1Zm0,1.376h-1v.528h1Zm-1,1.32v.848a16.823,16.823,0,0,0,1.555-.856Z" transform="translate(-0.52)"></path><path class="cls-3" d="M55.463,35.661c-1.256,0-3.259-.2-3.259-2.253a3.126,3.126,0,0,1,2.047-2.771,17.155,17.155,0,0,1-.352-3.8l.8.065c.131.012.262.022.4.042.043.012.1.032.1.1a.22.22,0,0,1-.061.119,7.41,7.41,0,0,0-.052.987,6.745,6.745,0,0,0,.165,1.921.111.111,0,0,0,.079.033,9.518,9.518,0,0,0,2.214-.956c.131.462.219.945.325,1.417-1.1.27-4.585.956-4.585,2.727,0,1,1.3,1.191,1.907,1.191a8,8,0,0,0,2.834-.377c.037.452.063.915.074,1.377a14.582,14.582,0,0,1-2.627.181" transform="translate(-0.52)"></path><path class="cls-3" d="M63.584,35.851V31.989l-.423.842c-.184-.206-.344-.421-.518-.637v3.775h-.978V32.076a4.793,4.793,0,0,1-.782.841l-.619-.767a6.437,6.437,0,0,0,2.085-3.17h-1.7v-.916h1v-1.8l1.035.084c.054,0,.146.034.146.121a.207.207,0,0,1-.146.172v1.424h.9a8.014,8.014,0,0,1-.978,2.74,4.477,4.477,0,0,0,.968,1.09V31.3h5.065v4.551Zm.01-9.1h5.2V27.7h-5.2Zm.452,1.49h4.14V30.8h-4.14Zm1.567,3.893h-1.06v1h1.06Zm0,1.789h-1.06v1.133h1.06Zm1.576-4.852h-2.2v.948h2.2Zm.463,3.063h-1.09v1h1.09Zm0,1.789h-1.09v1.133h1.09Z" transform="translate(-0.52)"></path><path class="cls-3" d="M72.6,30.975v.044a8.082,8.082,0,0,0,1.2,1.218l-.545.854a6.946,6.946,0,0,1-.645-.682v3.624H71.592V32.184a5.287,5.287,0,0,1-.813.83l-.656-.81A8.455,8.455,0,0,0,72.5,28.948H70.522v-.926h1.144V26.23l1.1.1a.16.16,0,0,1,.129.15c0,.087-.083.14-.147.162v1.382h1.106A8.1,8.1,0,0,1,72.6,30.975m.553,4.735v-.939h.912V28.657l1.042.129a.151.151,0,0,1,.138.151c0,.1-.1.15-.166.183v5.651h.794v-8.39l1.044.118c.072.012.166.053.166.151s-.1.152-.166.2v3h1.632v1.036H76.9v3.873h1.8v.959Z" transform="translate(-0.52)"></path><path class="cls-3" d="M87.738,31.317a.242.242,0,0,1-.131-.052c-.647.217-1.891.711-2.481.981v1.611l-1.055-.01c.009-.145.009-.3.009-.48v-.585c-.717.333-1.075.762-1.075,1.243,0,.419.411.638,1.226.638a7.93,7.93,0,0,0,2.606-.418L86.8,35.468a7.416,7.416,0,0,1-2.247.3c-1.754,0-2.632-.552-2.632-1.674a2.075,2.075,0,0,1,.734-1.505,6.421,6.421,0,0,1,1.36-.9c-.016-.471-.161-.712-.42-.712a1.293,1.293,0,0,0-.921.4,8.122,8.122,0,0,0-.69.708c-.332.368-.537.619-.662.745-.161-.19-.41-.471-.744-.858a7.534,7.534,0,0,0,2.257-2.834c-.474.063-1,.106-1.576.136-.034-.4-.089-.763-.143-1.086a15.344,15.344,0,0,0,2.05-.106,8.7,8.7,0,0,0,.3-1.445l1.207.274a.124.124,0,0,1,.108.125c0,.062-.042.114-.142.156-.045.179-.126.451-.241.8a14.437,14.437,0,0,0,1.672-.386l-.1,1.149c-.492.106-1.155.21-1.977.326a6.533,6.533,0,0,1-.556,1.045,1.785,1.785,0,0,1,.509-.073c.547,0,.906.367,1.065,1.119.715-.377,1.532-.764,2.416-1.161l.412,1.171c0,.084-.035.126-.108.126" transform="translate(-0.52)"></path></g></g><g class="cls-6"><rect class="cls-7" x="138.186" y="1.028" width="121.907" height="121.907"></rect><g class="cls-6"><path class="cls-3" d="M148.25,28.162a7.744,7.744,0,0,1,.689-3.387,4.485,4.485,0,0,1,2.037-2.123,5.7,5.7,0,0,1-1.722-2.081,6.965,6.965,0,0,1-.66-3.171,6.2,6.2,0,0,1,1.521-4.462,5.747,5.747,0,0,1,4.362-1.593,5.683,5.683,0,0,1,4.334,1.578,6.142,6.142,0,0,1,1.492,4.391,7.564,7.564,0,0,1-.631,3.271,5.213,5.213,0,0,1-1.694,2.067,4.447,4.447,0,0,1,2.038,2.181,8.36,8.36,0,0,1,.689,3.53,7.715,7.715,0,0,1-1.493,5.05,5.791,5.791,0,0,1-4.735,1.808q-6.227,0-6.227-7.059m7.734,2.74a7.3,7.3,0,0,0,.387-2.568,7.784,7.784,0,0,0-.387-2.726,1.627,1.627,0,0,0-3.013.014,7.779,7.779,0,0,0-.388,2.712,7.277,7.277,0,0,0,.388,2.568,1.623,1.623,0,0,0,3.013,0m.129-13.5a4.161,4.161,0,0,0-.4-1.994,1.318,1.318,0,0,0-1.234-.732,1.379,1.379,0,0,0-1.262.732,3.929,3.929,0,0,0-.431,1.994q0,3.588,1.693,3.587,1.637,0,1.636-3.587" transform="translate(-0.52)"></path><path class="cls-3" d="M222.9,61,210.449,72.841a2.062,2.062,0,0,0-.711,1.779v33.187a.711.711,0,0,0,.711.708h12.858a.709.709,0,0,0,.708-.708V61.3c0-.391-.306-1.106-1.118-.3" transform="translate(-0.52)"></path><path class="cls-3" d="M187.036,76.427l-12.449,11.84a2.062,2.062,0,0,0-.71,1.777v17.763a.711.711,0,0,0,.71.707h12.858a.709.709,0,0,0,.709-.707V76.724c0-.392-.309-1.109-1.118-.3" transform="translate(-0.52)"></path><path class="cls-3" d="M228.555,46.64a.353.353,0,0,0-.106-.27.37.37,0,0,0-.23-.1l-.069,0-.1.006-9.531,2.15-.173.018a.382.382,0,0,0-.186.1.363.363,0,0,0,0,.512l.108.108,2.177,2.176-21.6,21.6-9.976-9.976a.285.285,0,0,0-.406,0l-2.706,2.708,0,0L169.764,81.661a.29.29,0,0,0,0,.407l2.71,2.709a.284.284,0,0,0,.4,0l15.792-15.788,7.238,7.239a.192.192,0,0,0,.023.035l2.708,2.7a.284.284,0,0,0,.406,0l24.512-24.512,2.286,2.285a.356.356,0,0,0,.508,0,.349.349,0,0,0,.1-.235l0-.031,2.093-9.73Z" transform="translate(-0.52)"></path><path class="cls-3" d="M205.037,78.505l-6.023,6.073a.289.289,0,0,1-.388-.015L193.169,79c-1-1-1.214-.188-1.214.2v28.6a.707.707,0,0,0,.7.708h12.861a.71.71,0,0,0,.708-.708V78.729c0-.39-.309-1.108-1.192-.224" transform="translate(-0.52)"></path><path class="cls-3" d="M180.138,19.38c-.071,1.254-.429,1.788-1.5,2.07l-.591-.866c.752-.148,1.039-.347,1.112-1.278.1-1.307.1-2.634.1-3.953h-.3a16.735,16.735,0,0,1-.411,3.6,5.867,5.867,0,0,1-1.307,2.54l-.823-.6a6.638,6.638,0,0,0,.483-.545c-.778.168-1.557.326-2.337.5-.008.084-.053.156-.134.156s-.124-.072-.15-.145l-.377-.921c.484-.052.958-.126,1.441-.189v-.511h-1.235V18.47h1.235v-.357h-1.209V15.072h1.2v-.346h-1.225V13.9h1.225v-.429c-.294.02-.589.044-.886.074l-.25-.459c-.107.4-.2.824-.321,1.233-.021.074-.128.387-.128.439V21.47h-.956v-4.7a5.826,5.826,0,0,1-.367.565l-.582-.867a11.885,11.885,0,0,0,1.521-4.581l1.057.385a.158.158,0,0,1,.089.126c0,.085-.116.125-.171.137l-.034.156a9.863,9.863,0,0,0,2.729-.587l.671,1.036a.111.111,0,0,1-.124.115.245.245,0,0,1-.163-.061c-.384.081-.778.135-1.162.2V13.9H177.6v.535h.458V12l1,.136c.062.01.171.054.171.148a.206.206,0,0,1-.128.177c-.017.659-.043,1.327-.07,1.986.4-.008.805-.02,1.209-.02-.01,1.653,0,3.305-.1,4.957m-4.769-3.659h-.448v.562h.448Zm0,1.232h-.448v.514h.448Zm1.235-1.232h-.4v.562h.4Zm.018,1.232H176.2v.514h.422Zm.939-1.6v-.627h-1.333v.346H177.4v3.041h-1.172v.357h1.153v.753h-1.153v.429c.359-.053.7-.126,1.065-.188l-.054.355a10.4,10.4,0,0,0,.778-4.466Z" transform="translate(-0.52)"></path><path class="cls-3" d="M187.184,16.325a7.386,7.386,0,0,0,1.165,1.862c-.2.3-.411.587-.626.87a4.858,4.858,0,0,0-2.417-.629c-.365,0-1.172.178-1.172.753,0,.92,1.235.984,1.8.984a10.076,10.076,0,0,0,1.852-.24c-.087.4-.159.793-.232,1.192a8.216,8.216,0,0,1-1.312.125c-1.14,0-3.144-.147-3.144-1.945,0-1.308,1.272-1.747,2.192-1.747a6.588,6.588,0,0,1,1.431.188c-.178-.4-.366-.794-.536-1.2a21.271,21.271,0,0,1-3.257.4l-.233-1.045a14.182,14.182,0,0,0,3.106-.313c-.108-.316-.207-.629-.3-.943a13.68,13.68,0,0,1-2.272.323c-.1-.333-.187-.678-.276-1.013a13.055,13.055,0,0,0,2.289-.283c-.133-.5-.241-1.024-.329-1.537.366-.03.733-.074,1.1-.094h.037a.128.128,0,0,1,.143.126.246.246,0,0,1-.089.167c.045.346.1.691.17,1.036a4.941,4.941,0,0,0,1.245-.6c.072.386.16.775.231,1.172-.411.156-.831.3-1.251.439.1.335.214.658.339.982a12,12,0,0,0,2.095-.784c.079.4.124.8.2,1.183a11.721,11.721,0,0,1-1.943.573" transform="translate(-0.52)"></path><path class="cls-3" d="M195.261,20.529a1.332,1.332,0,0,1-1.01.324,2.021,2.021,0,0,1-.877-.22c-.036-.4-.062-.784-.107-1.181a1.878,1.878,0,0,0,.984.293c.724,0,.715-2.353.715-2.949,0-.429.009-1.192-.5-1.192a2.372,2.372,0,0,0-.536.084,20.408,20.408,0,0,1-1.916,5.2c-.348-.188-.669-.4-1.018-.565a14.672,14.672,0,0,0,1.808-4.454c-.413.081-.825.187-1.226.3l-.26-1.12c0-.052.061-.062.088-.062.081,0,.152.021.234.021a7,7,0,0,0,1.388-.189,17.662,17.662,0,0,0,.321-2.49c.268.064.527.148.786.232.118.041.252.074.368.125.045.022.116.053.116.126s-.063.094-.106.114c-.107.587-.226,1.183-.369,1.768a4.471,4.471,0,0,1,.538-.052,1.054,1.054,0,0,1,1.18.888,5.814,5.814,0,0,1,.18,1.591c0,.949-.134,2.75-.779,3.408m1.308-6.587a11.5,11.5,0,0,0-.68-1.485l.723-.346a12.276,12.276,0,0,1,.636,1.444Zm.913,4.612c-.2-.306-.413-.587-.627-.868.259-.054.914-.212.914-.609a5.167,5.167,0,0,0-1.29-2.332,11.22,11.22,0,0,0,1-.563A6.683,6.683,0,0,1,198.9,17.3c0,.785-.9,1.078-1.422,1.256m.287-4.98a10.34,10.34,0,0,0-.673-1.484l.69-.375a9.321,9.321,0,0,1,.671,1.473Z" transform="translate(-0.52)"></path><path class="cls-3" d="M203.553,20.607a.973.973,0,0,1-.713-.275,5.469,5.469,0,0,1-1.2-3.4,16.838,16.838,0,0,1,.059-2.876c.026-.368.055-.726.1-1.087a7.249,7.249,0,0,1,1.285.413.135.135,0,0,1,.072.112.227.227,0,0,1-.174.21,10.851,10.851,0,0,0-.255,2.124,10.993,10.993,0,0,0,.04,1.33,5.165,5.165,0,0,0,.278,1.382c.068.2.226.667.448.652.429-.03.9-1.436,1.071-1.869l.621,1.31c-.236.71-.93,1.923-1.635,1.972m3.933-1.874a9.521,9.521,0,0,0-1.447-4.438c.37-.171.719-.373,1.094-.537a11.407,11.407,0,0,1,1.513,4.448c-.384.194-.768.365-1.16.527" transform="translate(-0.52)"></path><path class="cls-3" d="M214.828,21.2c-1.253.01-2.47-.522-2.487-2.209,0-.249.026-.5.045-.75-.654-.232-1.532-.523-1.549-1.5a3.849,3.849,0,0,1,.4-1.341c.338.074.679.177,1.01.251a2,2,0,0,0-.438.922c.009.366.517.523.761.586.142-.827.3-1.643.446-2.469-.162.2-.312.4-.464.6a16.634,16.634,0,0,0-1.434-1.236c.2-.314.4-.625.619-.94a12.734,12.734,0,0,1,1.333,1.151,13.652,13.652,0,0,0,.287-2.093c.286.053.582.138.867.21a2.175,2.175,0,0,1,.358.095c.063.02.126.052.126.134a.416.416,0,0,1-.17.273c-.064.23-.117.482-.17.71-.109.492-.216.983-.332,1.476-.168.772-.348,1.558-.482,2.342.357.063.724.063,1.082.094l-.162,1.015a7.225,7.225,0,0,1-1.055-.085,2.56,2.56,0,0,0-.028.462,1.165,1.165,0,0,0,1.3,1.223c.761-.012,1.1-.471,1.092-1.339a4.453,4.453,0,0,0-1.313-2.627,7.683,7.683,0,0,0,.982-.478,4.924,4.924,0,0,1,1.5,3.4,2.016,2.016,0,0,1-2.12,2.123" transform="translate(-0.52)"></path><path class="cls-3" d="M173.415,31.378a9.108,9.108,0,0,1-.73,2.447l-.749-.388a8.534,8.534,0,0,0,.669-2.623l.81.3a.139.139,0,0,1,.1.145c0,.052-.06.094-.1.114m6.5-.658a6.926,6.926,0,0,1-2.379-1.4,6.2,6.2,0,0,1-1.745,1.226l-.368-.556.1.46a5.359,5.359,0,0,1-.7.3c-.044-.178-.1-.366-.141-.545l-.228.042v4.2h-.907v-4.1c-.441.053-.872.127-1.313.178l-.1-.91a2.1,2.1,0,0,0,.527-.054c.3-.375.574-.783.837-1.191a5.306,5.306,0,0,0-1.216-.469v-.462a11.7,11.7,0,0,0,1.629-2.508,8.252,8.252,0,0,1,.916.479c.073.042.2.106.2.221s-.15.136-.212.136c-.466.543-.931,1.086-1.436,1.589.184.106.361.219.536.325a9.174,9.174,0,0,0,.484-.849c.144.087.918.566.918.734,0,.115-.132.136-.2.115-.5.627-1,1.265-1.513,1.88.3-.03.588-.072.889-.1-.054-.179-.108-.367-.178-.535.238-.094.477-.2.715-.3.114.345.213.69.308,1.036a5.814,5.814,0,0,0,1.533-1.024,9.339,9.339,0,0,1-1.181-1.517l.582-.6h-.854v-.91h4.131V26.4a7.283,7.283,0,0,1-1.322,2.206,6.666,6.666,0,0,0,2.246,1.14c-.2.313-.379.648-.563.972m-4.9,2.333c-.193-.617-.326-1.265-.458-1.9l.742-.3a13.123,13.123,0,0,0,.448,1.872Zm.194,1.191v-.868H177.1V32.133h-1.392v-.869h1.383V30.083c.24.03.486.05.724.082a1.586,1.586,0,0,1,.317.042.106.106,0,0,1,.087.105.2.2,0,0,1-.142.169v.783H179.6v.869h-1.526v1.243h2v.868Zm1.357-7.718a6.23,6.23,0,0,0,.934,1.4,5.092,5.092,0,0,0,.81-1.4Z" transform="translate(-0.52)"></path><path class="cls-3" d="M183.167,29.59a15.256,15.256,0,0,0-1.5-1.036l.635-1a7.88,7.88,0,0,1,1.392,1.192Zm-.309,4.58a.324.324,0,0,1,.043.16.093.093,0,0,1-.087.092,11.839,11.839,0,0,1-1.075-.689,15.553,15.553,0,0,0,1.188-3.526l.847.794c-.292,1.068-.581,2.123-.916,3.169m.52-7.2a12.627,12.627,0,0,0-1.295-.911l.687-1a8.6,8.6,0,0,1,1.153,1.109Zm6.247,3.473a9.121,9.121,0,0,1-.892-.294V34.4h-.969V32.653h-2.22a4.269,4.269,0,0,1-1.169,1.914l-.768-.585c1.084-.919,1.269-2.458,1.269-3.921a5.88,5.88,0,0,1-.917.325l-.493-.868a6.8,6.8,0,0,0,2.51-.983,7.374,7.374,0,0,1-1.171-1.507h-.776v-.909h2.08V24.926l1.11.074a.179.179,0,0,1,.165.168c0,.1-.1.157-.175.177v.774h2.45v.909h-.943a6.353,6.353,0,0,1-1.19,1.516,7.06,7.06,0,0,0,2.583.837Zm-1.861.668h-1.955c-.018.241-.045.49-.079.732h2.034Zm0-1.318a11.915,11.915,0,0,1-1.038-.679,9.074,9.074,0,0,1-.873.5c0,.232,0,.451-.008.68h1.919Zm-1.85-2.772a3.875,3.875,0,0,0,.839.963,3.487,3.487,0,0,0,.756-.963Z" transform="translate(-0.52)"></path><path class="cls-3" d="M198.845,34.46a7.045,7.045,0,0,1-1.978-1.962,5.643,5.643,0,0,1-2.175,1.9l-.733-.7a5.434,5.434,0,0,0,2.361-2.163,11.612,11.612,0,0,1-1.057-3.921H193.09v.054c0,.394.009.779.009,1.172h2.111c-.018.8-.018,1.607-.115,2.4-.172,1.3-.581,1.714-1.673,1.822l-.493-.843c1.083-.127,1.226-.553,1.245-1.77l.007-.723h-1.108c0,1.5-.234,3.57-1.146,4.688l-.841-.608c.92-1.065.985-2.833.985-4.27,0-.961-.056-1.929-.073-2.889h3.194c-.052-.628-.071-1.268-.088-1.9l1.171.149c.063.01.188.044.188.151a.293.293,0,0,1-.169.223c-.009.257-.009.5-.009.756,0,.2,0,.415.009.618h2.863v.992h-2.819a11.579,11.579,0,0,0,.547,2.792,9.926,9.926,0,0,0,.626-2.292l1.117.7a.248.248,0,0,1,.109.191c0,.117-.18.159-.25.172a12.455,12.455,0,0,1-.976,2.364,6.178,6.178,0,0,0,2.085,1.854Zm-.27-8.93c-.215.354-.42.715-.645,1.055l-.822-.287a12.373,12.373,0,0,0,.5-1.544l1.038.426c.063.033.145.085.145.181s-.145.161-.217.169" transform="translate(-0.52)"></path><path class="cls-3" d="M208.148,34.322a6.8,6.8,0,0,1-3.632-3.063,19.964,19.964,0,0,0,2.266-.815h-3.165v2.368l1.442-.369-.118.99c-.949.246-1.909.492-2.861.747-.025.071-.084.163-.16.163a.115.115,0,0,1-.093-.073l-.458-1.072c.423-.07.848-.12,1.264-.213V30.494h-1.469v-.979h1.469V25.361h5.457v.927h-4.465v.552h3.9v.836h-3.9v.532h3.9v.807h-3.9v.521h5.015v.908h-1.213l.484.744a.137.137,0,0,1-.136.144.365.365,0,0,1-.17-.061c-.55.132-1.112.245-1.67.336a5.069,5.069,0,0,0,2.876,1.726Z" transform="translate(-0.52)"></path><path class="cls-3" d="M214.605,34.308c-1.252.011-2.47-.522-2.486-2.207,0-.252.025-.5.044-.753-.654-.229-1.533-.522-1.549-1.5a3.813,3.813,0,0,1,.395-1.337c.338.072.679.175,1.009.249a1.991,1.991,0,0,0-.437.922c.009.365.517.521.761.585.142-.826.3-1.643.446-2.469-.161.2-.312.4-.464.6a16.609,16.609,0,0,0-1.434-1.234c.2-.313.405-.628.619-.942a12.746,12.746,0,0,1,1.332,1.15,13.3,13.3,0,0,0,.287-2.09c.287.052.582.134.869.208a2.072,2.072,0,0,1,.357.1c.063.02.126.052.126.135a.408.408,0,0,1-.169.27c-.065.231-.118.483-.171.712-.108.492-.215.984-.332,1.476-.168.773-.348,1.558-.483,2.342.358.064.725.064,1.083.1l-.162,1.012a7.222,7.222,0,0,1-1.055-.083,2.625,2.625,0,0,0-.027.459,1.164,1.164,0,0,0,1.3,1.225c.76-.01,1.1-.471,1.092-1.338a4.452,4.452,0,0,0-1.314-2.625,8.191,8.191,0,0,0,.982-.481,4.926,4.926,0,0,1,1.5,3.4,2.016,2.016,0,0,1-2.12,2.123" transform="translate(-0.52)"></path></g></g><rect class="cls-1" x="275.326" y="0.626" width="122.309" height="122.309"></rect><rect class="cls-1" x="412.779" width="122.936" height="122.936"></rect></g></g></svg>