<svg xmlns="http://www.w3.org/2000/svg" width="527.273" height="174.106" viewBox="0 0 527.273 174.106"><defs><style>.cls-1{fill:#328dd1;}.cls-2{fill:#fff;}.cls-3{fill:#004580;}.cls-4{fill:none;stroke:#328dd1;stroke-miterlimit:10;}</style></defs><g id="&#x30EC;&#x30A4;&#x30E4;&#x30FC;_2" data-name="&#x30EC;&#x30A4;&#x30E4;&#x30FC; 2"><g id="&#x30EC;&#x30A4;&#x30E4;&#x30FC;_1-2" data-name="&#x30EC;&#x30A4;&#x30E4;&#x30FC; 1"><rect class="cls-1" y="111.867" width="160.391" height="62.239"></rect><path class="cls-2" d="M70.922,137.825v3.234H69.5V139.09H59.029v1.969H57.652v-3.234h2.113a10.872,10.872,0,0,0-1.2-1.728l1.3-.544a9.908,9.908,0,0,1,1.457,2.049l-.5.223h2.833a11.265,11.265,0,0,0-1.137-2.1l1.3-.449a9.656,9.656,0,0,1,1.248,2.177l-.944.368h2.8a16.731,16.731,0,0,0,1.536-2.384l1.585.5c-.5.656-1.024,1.329-1.5,1.888Zm-6.115,6.067c-.16.4-.32.8-.464,1.152h5.474v4.979H68.328v-.561H60.309v.576H58.885v-4.994h4c.111-.368.208-.784.3-1.152h-3.1V140.13h8.371v3.762Zm3.521,2.449H60.309v1.841h8.019Zm-6.866-3.569H67v-1.537H61.462Z"></path><path class="cls-2" d="M82.2,146.309a14.715,14.715,0,0,0,5.426,2.177,6.659,6.659,0,0,0-.992,1.329,14.288,14.288,0,0,1-5.731-3.01v3.218H79.447v-3.106a15.912,15.912,0,0,1-5.682,2.881,6.724,6.724,0,0,0-.977-1.264,15.535,15.535,0,0,0,5.394-2.225H73.236v-1.248h6.211v-.977H74.724v-1.12h4.723V142H73.94v-1.184h3.282a7.9,7.9,0,0,0-.672-1.457l.383-.064H73.3V138.05h2.369a11.969,11.969,0,0,0-1.168-2.161l1.3-.433a11.208,11.208,0,0,1,1.281,2.289l-.817.305h1.761v-2.737h1.392v2.737H81v-2.737h1.409v2.737h1.729l-.609-.192a13.969,13.969,0,0,0,1.121-2.37l1.536.385a25.214,25.214,0,0,1-1.328,2.177h2.3V139.3H84.073c-.3.544-.625,1.072-.9,1.521H86.57V142H80.9v.961h4.914v1.12H80.9v.977H87.21v1.248ZM78.086,139.3a6.737,6.737,0,0,1,.688,1.425l-.464.1h3.377a14.849,14.849,0,0,0,.7-1.521Z"></path><path class="cls-2" d="M88.884,141.379h8.195v1.36H88.884Zm7.987-3.089h-7.6v-1.3h3.073v-1.585h1.441v1.585h3.089Zm-6.979,5.682h6.387v5.986H94.822v-.8H91.269v.865H89.892Zm.961-2.689a10.4,10.4,0,0,0-.625-2.481l1.233-.273a9.885,9.885,0,0,1,.7,2.45Zm.416,4v2.578h3.553v-2.578Zm2.577-4.273a19.083,19.083,0,0,0,.8-2.562l1.409.321c-.352.9-.705,1.888-1.024,2.545Zm9.748-4.13c-.624,1.521-1.392,3.361-2.081,4.754a5.14,5.14,0,0,1,1.825,3.794,2.476,2.476,0,0,1-.817,2.209,2.536,2.536,0,0,1-1.072.384,11.483,11.483,0,0,1-1.312.032,3.577,3.577,0,0,0-.4-1.473,8.885,8.885,0,0,0,1.089.032,1.308,1.308,0,0,0,.64-.176c.32-.192.432-.608.432-1.185a4.682,4.682,0,0,0-1.888-3.425c.576-1.249,1.2-2.929,1.648-4.177H99.112v12.373H97.656V136.257h4.593l.241-.064Z"></path><rect class="cls-1" x="366.882" y="111.867" width="160.391" height="62.239"></rect><path class="cls-2" d="M417.718,144.708a14.82,14.82,0,0,1-1.072,4.082,6.2,6.2,0,0,0-1.137-.56,12.071,12.071,0,0,0,.944-3.745Zm1.792-1.248v6.578h-1.328v-6.5c-.88.048-1.7.1-2.417.144l-.128-1.313,1.12-.032c.288-.384.609-.816.913-1.264a15.164,15.164,0,0,0-1.985-2.241l.721-.976c.143.112.288.24.431.368a18.476,18.476,0,0,0,1.313-2.9l1.312.513c-.559,1.072-1.232,2.3-1.808,3.186a11.378,11.378,0,0,1,.768.879c.576-.944,1.12-1.92,1.521-2.737l1.232.561c-.9,1.456-2.049,3.2-3.089,4.546.64-.017,1.313-.048,2-.1-.209-.447-.432-.9-.656-1.3l1.008-.416a12.447,12.447,0,0,1,1.457,3.313l-1.089.48a6.249,6.249,0,0,0-.256-.864Zm1.377.9a18.6,18.6,0,0,1,1.009,2.9l-1.137.385a17.159,17.159,0,0,0-.944-2.93Zm8.947-7.876a9.93,9.93,0,0,1-2.72,4.177,11.154,11.154,0,0,0,3.521,1.393,5.5,5.5,0,0,0-.9,1.232,11.818,11.818,0,0,1-3.778-1.728,14.212,14.212,0,0,1-3.746,1.793,5.483,5.483,0,0,0-.832-1.249,12.624,12.624,0,0,0,3.426-1.488,9.907,9.907,0,0,1-2.1-2.929l.88-.288H421.8v-1.282h6.772l.288-.063Zm-3.089,11.764h3.7v1.314H421.4v-1.314h3.873v-2.3h-2.881v-1.313h2.881v-2.112h1.472v2.112h2.994v1.313h-2.994Zm-2.657-10.851a7.767,7.767,0,0,0,1.841,2.384,8.559,8.559,0,0,0,1.905-2.384Z"></path><path class="cls-2" d="M437.047,146.757c-1.745.608-3.6,1.232-5.042,1.7l-.352-1.521c.576-.159,1.281-.352,2.049-.592v-4.065h-1.729V140.9H433.7v-3.186h-1.889v-1.376h5.09v1.376h-1.777V140.9h1.521v1.377h-1.521v3.617c.544-.176,1.12-.353,1.665-.544Zm9.46,1.393v1.36H436.279v-1.36h4.641v-1.905h-3.472V144.9h3.472v-1.649h-3.329v-7.2h8.195v7.2h-3.344V144.9h3.552v1.344h-3.552v1.905Zm-7.555-9.108h2.1v-1.728h-2.1Zm0,2.945h2.1v-1.745h-2.1Zm5.41-4.673h-2.049v1.728h2.049Zm0,2.928h-2.049v1.745h2.049Z"></path><path class="cls-2" d="M449.638,144.676a14.6,14.6,0,0,1-1.041,4.066,6.779,6.779,0,0,0-1.088-.528,11.814,11.814,0,0,0,.9-3.746Zm1.841-1.376v6.69h-1.313v-6.562c-.848.08-1.665.143-2.353.208l-.192-1.313c.32-.015.688-.032,1.088-.064.288-.352.593-.768.881-1.2a14.358,14.358,0,0,0-1.9-2.257l.752-.992c.144.128.288.271.432.416a19.248,19.248,0,0,0,1.313-2.913l1.3.5c-.561,1.089-1.233,2.352-1.809,3.249a10.027,10.027,0,0,1,.688.848c.608-.944,1.169-1.905,1.585-2.72l1.217.559c-.9,1.409-2.034,3.106-3.09,4.434l1.985-.144c-.208-.4-.448-.8-.673-1.169l1.057-.463a14.045,14.045,0,0,1,1.633,3.313l-1.12.528a8.4,8.4,0,0,0-.369-1.056Zm1.408,1.12a18.322,18.322,0,0,1,.977,2.913,11.257,11.257,0,0,0,.448-1.888l1.2.224a8.968,8.968,0,0,1-1.248,3.681l-1.152-.528a5.244,5.244,0,0,0,.735-1.472l-1.136.4a16.748,16.748,0,0,0-.913-2.976Zm4.21-8.531a10.931,10.931,0,0,1-2.642,4.082,8.483,8.483,0,0,0-1.2-.9,7.769,7.769,0,0,0,2.433-3.521Zm1.232,2.513c-.416.96-.9,2.081-1.344,3.009l2.481-.144c-.272-.4-.576-.8-.848-1.153l1.136-.576a16.377,16.377,0,0,1,2.24,3.394l-1.2.656c-.143-.32-.352-.736-.591-1.152-2.146.176-4.307.351-5.939.464l-.257-1.345,1.617-.08a26.052,26.052,0,0,0,1.217-3.442Zm.416,10.34c.336,0,.416-.192.449-1.6a3.658,3.658,0,0,0,1.217.527c-.145,1.873-.5,2.337-1.49,2.337h-1.44c-1.28,0-1.569-.4-1.569-1.712v-3.218h1.361v3.218c0,.4.064.448.416.448Zm-1.808-5.81a8.828,8.828,0,0,1,2.673,1.952l-.977.913a8.517,8.517,0,0,0-2.625-2.049Zm2.865-7.427a11.221,11.221,0,0,0,2.817,3.169,5.317,5.317,0,0,0-1.024,1.057,15.521,15.521,0,0,1-3.01-3.714Zm.944,9.684a10.113,10.113,0,0,1,1.857,3.617l-1.217.624a11.139,11.139,0,0,0-1.776-3.665Z"></path><path class="cls-2" d="M477.13,138.21a7.715,7.715,0,0,1-1.776,2.561,11.271,11.271,0,0,0,3.233,1.2,5.49,5.49,0,0,0-.928,1.249,11.371,11.371,0,0,1-3.474-1.537,13.277,13.277,0,0,1-3.377,1.5,4.313,4.313,0,0,0-.416-.657,21.814,21.814,0,0,1-.881,2.578l-1.024-.513a17.467,17.467,0,0,0,.7-2.4h-1.233v6.147c0,.72-.111,1.12-.591,1.376a5.521,5.521,0,0,1-2.114.24,5.283,5.283,0,0,0-.431-1.408c.639.032,1.28.032,1.472.016s.256-.048.256-.241v-4.337a11.32,11.32,0,0,1-2.161,3.473,7.14,7.14,0,0,0-.752-1.424,10.583,10.583,0,0,0,2.449-3.842h-2.225v-1.3h4.082a19.809,19.809,0,0,0-3.426-1.889l.929-.96c.448.176.961.4,1.44.64a9.123,9.123,0,0,0,1.377-1.345h-4.21v-1.264h5.267l.239-.049.961.593a11.245,11.245,0,0,1-2.5,2.673,11.078,11.078,0,0,1,1.28.849l-.688.752h.993l.223-.08.9.32c-.048.208-.1.416-.145.64a10.6,10.6,0,0,0,2.45-1.008,9.448,9.448,0,0,1-1.425-1.681,10.348,10.348,0,0,1-.96.929,8.67,8.67,0,0,0-1.233-.849,9.524,9.524,0,0,0,3.041-3.857l1.393.383a13.429,13.429,0,0,1-.656,1.265h5.042v1.249Zm.817,6s-.016.384-.048.593c-.273,2.864-.561,4.1-1.009,4.577a1.7,1.7,0,0,1-1.072.48,15.672,15.672,0,0,1-1.777,0,3.88,3.88,0,0,0-.4-1.376c.624.064,1.217.08,1.488.08a.616.616,0,0,0,.513-.176c.272-.24.5-1.057.7-2.929h-2.321a6.4,6.4,0,0,1-4.194,4.562,4.393,4.393,0,0,0-.879-1.153,5.293,5.293,0,0,0,3.552-3.409h-2.24v-1.249h2.561c.08-.5.144-.992.192-1.52h1.473c-.048.528-.113,1.024-.193,1.52Zm-5.411-6a7.285,7.285,0,0,0,1.618,1.761,5.821,5.821,0,0,0,1.343-1.761Z"></path><rect class="cls-1" x="183.441" y="111.867" width="160.391" height="62.239"></rect><path class="cls-2" d="M242.534,141.427v8.6h-1.473V135.969H247v5.458Zm0-4.354v1.073h3.073v-1.073Zm3.073,3.266V139.17h-3.073v1.169Zm4.241,5.954v3.442H248.52v-3.442h-1.937a5.16,5.16,0,0,1-2.1,3.682,5.043,5.043,0,0,0-.961-.881,3.874,3.874,0,0,0,1.76-2.8h-1.824v-1.232h1.872V143.54H243.75v-1.184h7.763v1.184h-1.665v1.521h1.985v1.232Zm-1.328-1.232V143.54h-1.9v1.521ZM254.3,148.2c0,.817-.16,1.249-.688,1.5a6.3,6.3,0,0,1-2.513.273,4.809,4.809,0,0,0-.48-1.473c.816.016,1.632.016,1.888.016.24-.016.321-.1.321-.336v-6.723h-4.594v-5.49H254.3Zm-4.641-11.124v1.073h3.169v-1.073Zm3.169,3.3v-1.2h-3.169v1.2Z"></path><path class="cls-2" d="M266.313,142.259v2.113h3.617v1.377h-3.617v2.193c0,.544.08.624.592.624h1.552c.464,0,.544-.321.609-1.905a4.066,4.066,0,0,0,1.328.576c-.128,2.065-.544,2.658-1.792,2.658h-1.953c-1.5,0-1.873-.433-1.873-1.953v-2.193h-2.545c-.3,1.7-1.313,3.3-4.338,4.337a5.045,5.045,0,0,0-.944-1.168c2.464-.816,3.409-1.969,3.746-3.169H257.3v-1.377h3.569v-2.113h-1.552v-.576a12.666,12.666,0,0,1-2.273,1.345,5.021,5.021,0,0,0-.9-1.121,10.983,10.983,0,0,0,2.976-1.888,16.6,16.6,0,0,0-1.76-1.537l.928-.785a14.061,14.061,0,0,1,1.761,1.393,10.154,10.154,0,0,0,1.28-1.824h-3.649v-1.3h4.37l.273-.048.975.464a11.033,11.033,0,0,1-2.976,4.466h6.706a14.38,14.38,0,0,1-3.249-5.107l1.312-.383a12.151,12.151,0,0,0,.929,1.888,15.7,15.7,0,0,0,1.713-1.713l1.12.784a25,25,0,0,1-2.194,1.874c.273.368.577.72.881,1.056a17.159,17.159,0,0,0,2.065-1.905l1.1.768a23.35,23.35,0,0,1-2.337,1.921,10.03,10.03,0,0,0,2.77,1.681,5.745,5.745,0,0,0-1.025,1.28,10.1,10.1,0,0,1-2.145-1.312v.576Zm-1.537,0h-2.433v2.113h2.433Z"></path><path class="cls-2" d="M272.325,141.379h8.195v1.36h-8.195Zm7.987-3.089h-7.6v-1.3h3.074v-1.585h1.441v1.585h3.089Zm-6.979,5.682h6.387v5.986h-1.457v-.8h-3.554v.865h-1.376Zm.96-2.689a10.392,10.392,0,0,0-.624-2.481l1.233-.273a9.885,9.885,0,0,1,.7,2.45Zm.416,4v2.578h3.554v-2.578Zm2.577-4.273a18.942,18.942,0,0,0,.8-2.562l1.408.321c-.352.9-.7,1.888-1.024,2.545Zm9.749-4.13c-.624,1.521-1.393,3.361-2.082,4.754a5.142,5.142,0,0,1,1.826,3.794,2.479,2.479,0,0,1-.817,2.209,2.536,2.536,0,0,1-1.072.384,11.483,11.483,0,0,1-1.312.032,3.577,3.577,0,0,0-.4-1.473,8.869,8.869,0,0,0,1.088.032,1.309,1.309,0,0,0,.641-.176c.32-.192.432-.608.432-1.185a4.685,4.685,0,0,0-1.888-3.425c.576-1.249,1.2-2.929,1.648-4.177h-2.545v12.373H281.1V136.257h4.594l.24-.064Z"></path><rect class="cls-3" x="183.441" width="160.391" height="62.239"></rect><path class="cls-2" d="M229.894,24.069a23.727,23.727,0,0,1-1.616,3.105V38.123h-1.536V29.367a16.272,16.272,0,0,1-1.921,2.1,8.646,8.646,0,0,0-.849-1.49,17.57,17.57,0,0,0,4.514-6.369Zm4.258,5.539c.512,3.921,1.473,6.562,2.993,6.738.4.016.641-.863.785-2.674a4.518,4.518,0,0,0,1.232.816c-.368,2.9-1.1,3.682-1.952,3.635-2.674-.224-3.922-3.394-4.53-8.308l-3.506.449-.224-1.408,3.586-.45q-.192-2.185-.289-4.7h1.5c.048,1.6.128,3.121.256,4.5l4.69-.593L238.89,29Zm3.281-2.561a15.32,15.32,0,0,0-2.4-2.643l1.1-.7a15.3,15.3,0,0,1,2.481,2.561Z"></path><path class="cls-2" d="M254.33,32.041a24.754,24.754,0,0,1-3.281,2.16,8.256,8.256,0,0,0,4.065,2.577,5.636,5.636,0,0,0-.96,1.33c-3.361-1.17-5.3-3.651-6.387-7.237a14.893,14.893,0,0,1-2.241,1.762v3.312c1.2-.271,2.482-.576,3.73-.863l.16,1.328c-2.5.641-5.2,1.282-7.123,1.729l-.48-1.377c.64-.127,1.392-.3,2.225-.481V33.5a17.991,17.991,0,0,1-2.977,1.266,7.819,7.819,0,0,0-.961-1.233,17.822,17.822,0,0,0,5.811-2.8h-5.25V29.447h6.194v-1.2h-4.882V27.029h4.882V25.942h-5.6v-1.28h5.6v-1.2h1.489v1.2h5.73v1.28h-5.73v1.087h5.122v1.217h-5.122v1.2h6.242v1.282H249.16a11.3,11.3,0,0,0,1.168,2.511,22.745,22.745,0,0,0,2.8-2.113Z"></path><path class="cls-2" d="M270.586,25.781a20.015,20.015,0,0,1-2.449,8.2,8.819,8.819,0,0,0,3.106,2.8,5.689,5.689,0,0,0-1.025,1.216,10.04,10.04,0,0,1-3.009-2.689,10.97,10.97,0,0,1-3.057,2.658,5.791,5.791,0,0,0-.929-1.152v1.312h-1.44V35.385c-1.937.32-3.906.641-5.394.881l-.273-1.488c.448-.049.945-.129,1.5-.192V25.8h-1.168V24.422H264.3v1.152h5.073l.257-.048Zm-11.541.016v1.857h2.738V25.8Zm0,5.139h2.738V28.983h-2.738Zm2.738,3.074V32.279h-2.738v2.114Zm1.44,2.721a9.116,9.116,0,0,0,3.1-2.786,22.56,22.56,0,0,1-2.272-6.578l1.44-.289a20.23,20.23,0,0,0,1.729,5.41,17.766,17.766,0,0,0,1.728-5.459h-5.074V25.8h-.656Z"></path><path class="cls-2" d="M274.149,32.824a14.537,14.537,0,0,1-1.024,4.051,5.807,5.807,0,0,0-1.057-.513,12.219,12.219,0,0,0,.9-3.745Zm2.721-4.289a13.479,13.479,0,0,1,1.329,3.393l-1.105.465c-.048-.272-.128-.61-.224-.961l-1.024.08v6.627h-1.281V31.592c-.832.064-1.616.111-2.289.145l-.128-1.3,1.2-.065c.256-.351.544-.736.816-1.168a15.634,15.634,0,0,0-1.937-2.3l.737-.961c.16.144.3.289.464.449a19.273,19.273,0,0,0,1.28-2.93l1.281.465c-.56,1.1-1.233,2.4-1.777,3.281a9.87,9.87,0,0,1,.688.848,30.739,30.739,0,0,0,1.5-2.754l1.2.545c-.864,1.424-1.952,3.137-2.945,4.449l1.761-.1a13.068,13.068,0,0,0-.56-1.263Zm.289,4.018a12.3,12.3,0,0,1,.8,2.881l-1.073.336a11.926,11.926,0,0,0-.752-2.9Zm9.715-4.643v2.834H285.5v-1.6h-6.211v1.6h-1.328V27.91h2.113a9.89,9.89,0,0,0-.577-1.759l.128-.034h-1.536V24.838h3.521V23.461h1.5v1.377h3.569v1.279h-1.264c-.273.641-.561,1.282-.833,1.793Zm-.784,7.252c0,.592-.08.977-.5,1.2a3.561,3.561,0,0,1-1.713.24,4.8,4.8,0,0,0-.416-1.28c.512.016.976.016,1.136.016.128-.016.176-.064.176-.209V32.248h-1.728v5.891h-1.377V32.248h-1.6v4.4h-1.3V31.016h2.9V29.608h1.377v1.408h3.041Zm-5.154-9.045a10.855,10.855,0,0,1,.56,1.793h1.649c.224-.527.5-1.216.688-1.793Z"></path><path class="cls-2" d="M293.542,27.223a16.963,16.963,0,0,1-1.536,2.144v8.772h-1.457V30.967a19.633,19.633,0,0,1-1.664,1.49,11.752,11.752,0,0,0-.833-1.41,14.938,14.938,0,0,0,4.146-4.353Zm-.448-3.186A16.051,16.051,0,0,1,289,27.99a7.134,7.134,0,0,0-.768-1.232,12.07,12.07,0,0,0,3.442-3.281Zm8.836,6.723A10.594,10.594,0,0,1,299,35.274a11.5,11.5,0,0,0,4.161,1.584,5.89,5.89,0,0,0-.944,1.33,11.77,11.77,0,0,1-4.418-1.953,15.062,15.062,0,0,1-4.225,1.953,6.629,6.629,0,0,0-.817-1.266,12.67,12.67,0,0,0,3.906-1.68,10.771,10.771,0,0,1-2.129-3.185l1.12-.336h-2.016V30.36h7.01l.272-.049ZM296.3,25.83a4.932,4.932,0,0,1-1.969,4.323,6.533,6.533,0,0,0-1.217-.85,3.862,3.862,0,0,0,1.745-3.506v-1.76h5.57v3.649c0,.273.016.449.1.513a.364.364,0,0,0,.241.063h.48a.868.868,0,0,0,.32-.047.51.51,0,0,0,.176-.352c.032-.209.048-.7.064-1.312a3.532,3.532,0,0,0,1.136.592,8.092,8.092,0,0,1-.192,1.617,1.083,1.083,0,0,1-.544.607,2.681,2.681,0,0,1-.88.161h-.929a1.594,1.594,0,0,1-1.072-.336c-.272-.241-.368-.561-.368-1.506V25.365H296.3Zm-.4,5.891a7.809,7.809,0,0,0,1.921,2.641,9.273,9.273,0,0,0,2.081-2.641Z"></path><line class="cls-4" x1="263.636" y1="62.239" x2="263.636" y2="111.867"></line><polyline class="cls-4" points="80.195 111.867 80.195 87.053 263.636 87.053"></polyline><polyline class="cls-4" points="447.077 111.867 447.077 87.053 263.636 87.053"></polyline></g></g></svg>