<svg xmlns="http://www.w3.org/2000/svg" width="2712.758" height="111.983" viewBox="0 0 2712.758 111.983"><defs><style>.cls-1{fill:#004580;}.cls-2{fill:#fff;}</style></defs><g id="レイヤー_2" data-name="レイヤー 2"><g id="レイヤー_1-2" data-name="レイヤー 1"><polygon class="cls-1" points="2712.758 111.983 0 111.983 761.104 49.146 1356.379 0 1951.655 49.146 2712.758 111.983"/><path class="cls-2" d="M1384.14,43.944c-.134-.964-.561-1.332-1.688-1.332h-4.721a2.869,2.869,0,0,0-1.694.4,1.812,1.812,0,0,0-.637.85l-.065.164-.9,2.274a2.346,2.346,0,0,0,.2.626,24.046,24.046,0,0,1,1.513,4.142c.037.143.069.287.1.43A25.064,25.064,0,0,1,1334.19,73.45a26.872,26.872,0,0,0,46.186-11.768l.022.157.794,5.725c.124.651.458.916,1.4.916h3.807c1,0,1.068-.523.988-1.1Z"/><rect class="cls-2" x="1392.045" y="42.612" width="6.624" height="25.868" rx="1.325"/><path class="cls-2" d="M1330.358,54.845q0-.351.005-.7a24.328,24.328,0,0,1,1.14-6.832A25.06,25.06,0,0,1,1370.517,36.9a26.6,26.6,0,0,0-43.157,9.676l-.043-.108h0l-1.075-2.709a1.694,1.694,0,0,0-1.717-1.145h-5.663a1.912,1.912,0,0,0-.311.025,1.474,1.474,0,0,0-.435.144,1.363,1.363,0,0,0-.216.135c-.018.014-.04.026-.057.041l-.007.008a1.241,1.241,0,0,0-.409.762L1314.1,67.7a.878.878,0,0,0,.032.44.485.485,0,0,0,.289.278,1.057,1.057,0,0,0,.377.059h2.15a.778.778,0,0,0,.449-.118.565.565,0,0,0,.155-.161.716.716,0,0,0,.039-.066,1.064,1.064,0,0,0,.1-.347l2.321-16.73.585-4.218a1.6,1.6,0,0,1,.153-.564.347.347,0,0,1,.03-.04l.01-.013c.13-.128.285.085.414.536l4.142,10.438.016.042,1.13,2.847,1.723,4.344c.04.095.082.19.124.284s.082.178.125.266l.025.052c.041.083.083.164.125.246l.033.061c.043.08.086.16.131.238l.031.055c.047.081.094.161.142.24l.017.028.005.008a10.85,10.85,0,0,0,.685.988l0,0,0,0c.054.069.108.137.163.2l.03.037c.052.062.1.122.155.181l.036.04c.052.058.1.116.155.171l.031.033c.054.057.108.112.161.166l.006.005.005,0a5.4,5.4,0,0,0,.68.583l.006,0c.078.056.155.107.229.15l1.36-3.428-.012-.028A24.138,24.138,0,0,1,1330.358,54.845Z"/><path class="cls-2" d="M1364.156,43.757a1.694,1.694,0,0,0-1.717-1.145h-5.663a1.334,1.334,0,0,0-1.435,1.115L1352.015,67.7c-.061.441.083.777.7.777h2.15a.691.691,0,0,0,.747-.692l2.906-20.948c.127-.913.4-.8.607-.081l7.011,17.671a9.147,9.147,0,0,0,3.105,4.05l2.364-5.956,2.53-6.378a8.235,8.235,0,0,0,.569-3.077,24.078,24.078,0,0,0-.805-5.419l-4.1,10.328Z"/><path class="cls-2" d="M1340.4,46.8l2.881,20.765c.124.651.458.916,1.4.916h3.807c1,0,1.068-.523.988-1.1l-3.251-23.437c-.134-.964-.561-1.332-1.687-1.332h-4.722c-1.367,0-1.988.387-2.331,1.251l-4.479,11.289a9.057,9.057,0,0,0-.76,3.3,24.112,24.112,0,0,0,.72,5.893l.722-1.818,6.24-15.728C1340.18,46.163,1340.317,46.081,1340.4,46.8Z"/></g></g></svg>