<svg xmlns="http://www.w3.org/2000/svg" width="791.587" height="57.933" viewBox="0 0 791.587 57.933"><defs><style>.cls-1{fill:#004582;}.cls-2{fill:#fff;}</style></defs><g id="レイヤー_2" data-name="レイヤー 2"><g id="レイヤー_1-2" data-name="レイヤー 1"><path class="cls-1" d="M44.19,9.963c-1.118,1.825-2.39,4.076-3.641,6.266,2.18-.122,4.167-.243,5.528-.243,6.862,0,10.677,2.859,7.488,11.619-2.613,7.179-7.107,17.036-11.817,22.329-3.686,4.258-7.8,5.6-12.654,5.6a39.441,39.441,0,0,1-7.46-.851l1.5-8.031a33.828,33.828,0,0,0,7.5,1.278,7.172,7.172,0,0,0,5.807-2.616c3.011-3.468,6.532-10.83,8.725-16.853,1.771-4.866-.187-5.536-4.266-5.536-1.035,0-2.7.122-4.556.244-5.825,9.247-15.864,23.666-25.076,32.609L4,52.61c9.181-7.969,18.121-20.259,23.486-28.593-2.42.243-4.515.486-5.79.608-1.923.3-5.51.729-7.563,1.034l2.235-8.274a65.848,65.848,0,0,0,6.927,0c2.03-.061,5.139-.243,8.53-.487A84.076,84.076,0,0,0,37.878,4l9.315.912C46.228,6.494,45.066,8.441,44.19,9.963Zm26.351,23.3-9.529,3.589c.774-6.753.185-17.764-2.463-23.118l8.834-3.1C69.493,15.864,70.7,27.484,70.541,33.264Z"/><path class="cls-1" d="M96.607,10.571C92.531,17.324,85.614,30.1,84.617,37.644c1.528-1.886,3.757-4.806,5.676-7.057l3.128,2.434C89.64,38.252,85.656,44.4,83.616,47.865a17.461,17.461,0,0,0-1.474,2.982c-.222.608-.533,1.642-.778,2.494l-7.43.669A61.735,61.735,0,0,1,77.418,34.3,210.311,210.311,0,0,1,88.325,10.023a50.588,50.588,0,0,0,2.38-5.293l9.25.913C98.841,7.1,97.4,9.294,96.607,10.571Zm34.071-1.825c-.465,1.277-1.616,4.442-2.834,7.787,3.715-.243,7.28-.608,10.111-1.1l-2.943,7.909c-2.7.3-6.157.548-9.848.73-.376,1.034-.708,1.946-.93,2.555-5.226,14.358-9.6,23.18-25.363,30.906L93.44,52a40.345,40.345,0,0,0,9.281-4.866c6.757-4.868,9.764-10.283,13.507-20.565q.332-.912.8-2.19c-2.483.061-4.9.122-7.3.122-2.784,0-6.731-.183-9.859-.3l2.812-7.726a67.23,67.23,0,0,0,9.532.669c2.331,0,4.878-.061,7.36-.121,1.176-3.408,2.263-6.572,2.731-8.214a27.781,27.781,0,0,0,.816-4.2h9.387C131.827,5.947,131.231,7.407,130.678,8.746Z"/><path class="cls-1" d="M161.238,11.423c-2.455,4.076-9.463,17.46-11.677,23.544a30.412,30.412,0,0,0-1.181,3.954c1.617-2.129,3.47-4.2,5.194-6.266l2.843,3.042c-3.629,4.989-7.959,11.2-9.932,14.48a21.1,21.1,0,0,0-1.364,2.859c-.222.609-.534,1.643-.779,2.494l-7.515.548c.191-4.259,1.484-11.194,4.5-19.469,3.344-9.186,9.471-20.684,11.888-25.369.879-1.7,2.044-4.015,2.818-5.963l8.668.731A56.47,56.47,0,0,0,161.238,11.423Zm33.47-2.129c-.552,1.338-1.436,3.589-2.475,6.266,3.672-.3,7.215-.79,10.544-1.4l-2.768,7.6c-3.262.425-6.761.791-10.412,1.034-2.017,5.9-3.466,10.767-4.713,14.9a25.645,25.645,0,0,1,9.7,7.85L187.8,51.941a39.135,39.135,0,0,0-5.663-6.144c-2.512,5.84-7.515,9.977-16.256,9.977-8.934,0-13.217-3.529-10.892-9.917,2.236-6.145,9.354-10.4,18.159-10.4a28.769,28.769,0,0,1,4.119.244c1.244-3.772,2.6-8.213,4.109-12.532-1.576.061-3.13.061-4.619.061-3.819,0-7.465-.122-11.2-.366l2.635-7.239a108.8,108.8,0,0,0,11.131.547c1.489,0,3.043,0,4.554-.061,1.085-2.98,1.929-5.475,2.394-6.753a26.155,26.155,0,0,0,1.007-4.015h9.259C195.92,6.494,195.259,7.955,194.708,9.294ZM167.583,48.6c3.95,0,6.019-1.948,7.325-5.537l.4-1.1a18.39,18.39,0,0,0-4.936-.669c-3.691,0-6.682,1.46-7.523,3.772C161.939,47.562,164.153,48.6,167.583,48.6Z"/><path class="cls-1" d="M231.819,12.822c-2.651,6.571-8.128,20.2-10.874,27.741-2.237,6.146.918,8.154,5.968,8.154,10.682,0,19.584-5.78,26.659-12.411L257.027,43c-6.27,5.842-18.43,13.994-33.192,13.994-10.617,0-15.885-4.381-12.1-14.785,2.967-8.151,9.438-24.151,11.343-29.384a39.617,39.617,0,0,0,2.147-8.214l10.38.122C234.287,7.285,232.834,10.389,231.819,12.822Z"/><path class="cls-1" d="M319.652,10.347l4.255,2.082c-7.224,5.353-13.881,12.193-17.345,21.711S304.775,50.5,308.1,55.851l-5.769,2.082c-3.785-5.255-5.593-13.186-1.732-23.793S312.044,15.6,319.652,10.347Z"/><path class="cls-1" d="M329.7,16.245H337.5L324.136,52.976h-7.807Z"/><path class="cls-1" d="M347.106,16.245h7.966l4.215,19.58,1.016,7.931h.264c1.019-3.818,2.155-8.675,3.671-12.839l5.34-14.672h7.384L363.594,52.976h-7.912l-4.143-19.629-1.089-7.882h-.264c-1.074,3.966-2.171,8.575-3.7,12.788l-5.358,14.723h-7.386Z"/><path class="cls-1" d="M392.138,22.392H381.166l2.236-6.147h29.856l-2.237,6.147H399.945L388.813,52.976h-7.807Z"/><path class="cls-1" d="M419.592,16.245h23.95L441.3,22.392h-16.14l-3.086,8.476h13.714l-2.236,6.147H419.841l-3.572,9.814H432.99l-2.237,6.147H406.224Z"/><path class="cls-1" d="M452.037,16.245h13.609c8.177,0,13.673,2.727,10.6,11.153a17.072,17.072,0,0,1-11.279,10.558l3.658,15.02h-8.7L456.959,39.1h-5.432l-5.051,13.879h-7.808ZM458.7,33.3c5.011,0,8.529-1.984,9.954-5.9,1.443-3.965-.865-5.3-5.877-5.3h-5.064l-4.077,11.2Z"/><path class="cls-1" d="M488.016,16.245h24.055l-2.238,6.147H493.587l-3.482,9.566h13.873L501.741,38.1H487.868l-5.412,14.872h-7.808Z"/><path class="cls-1" d="M526.369,16.245h9.177l-.813,36.731h-8.176l.685-9.418h-12.66l-6.171,9.418H500.5Zm-8.024,21.611h9.283l.3-4.014c.176-3.817.654-8.03.99-11.995h-.263c-2.464,4.014-5.141,8.178-7.69,11.995Z"/><path class="cls-1" d="M544,34.783c4.4-12.1,15.263-19.182,25.127-19.182,4.959,0,8.1,2.23,9.733,4.71L573.1,24.969A7.146,7.146,0,0,0,566.99,21.9c-5.907,0-12.071,4.759-14.94,12.64-2.9,7.981-.645,12.788,5.527,12.788,3.376,0,6.5-1.486,9.387-3.618l2.455,4.561A23.241,23.241,0,0,1,555,53.669C545.139,53.669,539.539,47.027,544,34.783Z"/><path class="cls-1" d="M587.354,16.245H611.3l-2.237,6.147H592.925l-3.086,8.476h13.715l-2.236,6.147H587.6l-3.572,9.814h16.72l-2.236,6.147H573.986Z"/><path class="cls-1" d="M607.21,57.933l-4.252-2.082c7.223-5.354,13.88-12.195,17.344-21.711s1.785-16.358-1.54-21.711l5.769-2.082c3.785,5.254,5.592,13.185,1.731,23.793S614.82,52.678,607.21,57.933Z"/><path class="cls-1" d="M677.193,23.99c-1.637,2.868-6.349,11.431-7.907,15.713a21.817,21.817,0,0,0-.83,2.782c1.213-1.455,2.487-2.954,3.639-4.367l2.062,2.1c-2.57,3.555-5.772,8.221-7.1,10.49a16.37,16.37,0,0,0-.961,2.013c-.171.47-.375,1.156-.547,1.755l-5.41.342a54.274,54.274,0,0,1,3.318-14c2.338-6.422,6.384-13.659,8.084-16.955.575-1.2,1.44-2.826,1.985-4.2l6.191.514C679.027,21.078,677.655,23.219,677.193,23.99Zm3.633,20.937c-.686,1.884.626,3.039,5.272,3.039a63.428,63.428,0,0,0,11.841-1.113l-2.012,5.78a74.239,74.239,0,0,1-12.052.813c-7.836,0-10.667-2.612-9.062-7.021a33.574,33.574,0,0,1,2.8-5.567l5.067.472A18.834,18.834,0,0,0,680.826,44.927ZM705.3,23.005l-2.009,5.522a129.941,129.941,0,0,1-19.592,0l1.994-5.479A100,100,0,0,0,705.3,23.005Z"/><path class="cls-1" d="M730.222,24.375c2.373-.385,4.686-.856,6.651-1.37l-1.626,4.967c-2.284.513-5.311,1.07-8.519,1.5A128.187,128.187,0,0,1,710.307,47.8l-4.546-2.654a112.558,112.558,0,0,0,14.8-15.115c-.836.043-1.61.043-2.386.043-1.868,0-3.719-.043-5.632-.172l1.4-4.965a58.042,58.042,0,0,0,5.951.3c1.366,0,2.749-.043,4.208-.171a47.213,47.213,0,0,0,3.832-7.15l6.071.6C733.134,19.88,731.748,22.062,730.222,24.375Zm7.6,12.931c-.406,1.241-1.018,3.3-1.7,5.436a18.393,18.393,0,0,1,7.436,5.481L738.83,52.8a22.482,22.482,0,0,0-4.484-4.581l-.156.428c-1.449,3.982-4.9,7.065-11.365,7.065-5.65,0-9.258-2.356-7.544-7.065,1.527-4.2,6.432-7.407,12.765-7.407,1.094,0,2.065.086,3.082.171.971-3.168,2.13-6.978,2.989-9.59h5.7C739.021,33.623,738.458,35.421,737.818,37.306ZM723.8,50.792a5.388,5.388,0,0,0,5.55-3.981c.094-.257.188-.514.313-.858a15.281,15.281,0,0,0-3.535-.428c-2.643,0-4.734,1.114-5.279,2.613C720.269,49.722,721.291,50.792,723.8,50.792ZM738.1,28.014l4.459-4.239A50.139,50.139,0,0,1,751.7,29.6l-4.871,4.5A41.084,41.084,0,0,0,738.1,28.014Z"/><path class="cls-1" d="M771.476,20.564c2.414,0,12.227-.17,14.9-.385a24.361,24.361,0,0,0,3.635-.471l1.574,3.811c-1.282.641-2.594,1.242-3.907,1.969-3.052,1.627-9.207,5.4-12.856,7.535a21.18,21.18,0,0,1,4.5-.47c7.746,0,11.971,4.539,9.7,10.789-2.462,6.764-9.878,12.117-20.9,12.117-6.334,0-10.12-2.74-8.563-7.022,1.263-3.468,5.757-6.679,10.587-6.679,5.651,0,7.884,3.254,7.041,7.321a10.043,10.043,0,0,0,5.9-5.823c1.4-3.853-1.749-6.465-7.124-6.465-6.972,0-12.79,3.468-19.567,8.691l-2.681-4.024c4.123-2.44,11.227-6.808,14.677-8.905,3.269-1.97,9.317-5.566,12.22-7.407-2.34.042-8.721.3-11.183.428-1.26.085-2.765.214-3.86.342l1.843-5.565A31.843,31.843,0,0,0,771.476,20.564Zm-2.724,30.013a26.593,26.593,0,0,0,2.69-.128c.739-2.782-.292-4.581-2.751-4.581a3.807,3.807,0,0,0-3.574,2.056C764.541,49.508,766.019,50.577,768.752,50.577Z"/><path class="cls-2" d="M40.189,5.963c-1.117,1.825-2.39,4.076-3.64,6.266,2.18-.122,4.167-.243,5.527-.243,6.862,0,10.677,2.859,7.488,11.619-2.612,7.179-7.106,17.036-11.816,22.329-3.686,4.258-7.8,5.6-12.655,5.6a39.44,39.44,0,0,1-7.459-.851l1.5-8.031a33.828,33.828,0,0,0,7.5,1.278,7.173,7.173,0,0,0,5.807-2.616c3.01-3.468,6.532-10.83,8.724-16.853,1.771-4.866-.186-5.536-4.266-5.536-1.035,0-2.7.122-4.555.244C26.515,28.412,16.477,42.831,7.264,51.774L0,48.61c9.181-7.969,18.121-20.259,23.485-28.593-2.42.243-4.515.486-5.79.608-1.923.3-5.509.729-7.563,1.034l2.236-8.274a65.829,65.829,0,0,0,6.926,0c2.03-.061,5.14-.243,8.53-.487A84.089,84.089,0,0,0,33.878,0l9.314.912C42.228,2.494,41.066,4.441,40.189,5.963Zm26.351,23.3-9.529,3.589c.775-6.753.186-17.764-2.462-23.118l8.833-3.1C65.492,11.864,66.7,23.484,66.54,29.264Z"/><path class="cls-2" d="M92.606,6.571C88.53,13.324,81.614,26.1,80.616,33.644c1.528-1.886,3.757-4.806,5.677-7.057l3.128,2.434C85.64,34.252,81.655,40.4,79.615,43.865a17.376,17.376,0,0,0-1.473,2.982c-.222.608-.534,1.642-.778,2.494l-7.43.669A61.735,61.735,0,0,1,73.418,30.3,210.165,210.165,0,0,1,84.324,6.023,50.176,50.176,0,0,0,86.7.73l9.25.913C94.84,3.1,93.4,5.294,92.606,6.571Zm34.072-1.825c-.465,1.277-1.616,4.442-2.834,7.787,3.714-.243,7.279-.608,10.11-1.095l-2.943,7.909c-2.7.3-6.157.548-9.848.73-.376,1.034-.708,1.946-.93,2.555-5.226,14.358-9.6,23.18-25.363,30.906L89.44,48a40.386,40.386,0,0,0,9.281-4.866c6.757-4.868,9.764-10.283,13.506-20.565l.8-2.19c-2.482.061-4.9.122-7.3.122-2.784,0-6.731-.183-9.86-.3l2.812-7.726a67.234,67.234,0,0,0,9.533.669c2.331,0,4.878-.061,7.359-.121,1.176-3.408,2.263-6.572,2.732-8.214a27.761,27.761,0,0,0,.815-4.2h9.388C127.826,1.947,127.23,3.407,126.678,4.746Z"/><path class="cls-2" d="M157.237,7.423c-2.454,4.076-9.463,17.46-11.677,23.544a30.406,30.406,0,0,0-1.18,3.954c1.616-2.129,3.47-4.2,5.193-6.266l2.843,3.042c-3.629,4.989-7.959,11.2-9.932,14.48a21.339,21.339,0,0,0-1.364,2.859c-.222.609-.533,1.643-.779,2.494l-7.515.548c.191-4.259,1.485-11.194,4.5-19.469,3.344-9.186,9.472-20.684,11.889-25.369.878-1.7,2.044-4.015,2.817-5.963l8.669.731A56.294,56.294,0,0,0,157.237,7.423Zm33.47-2.129c-.551,1.338-1.435,3.589-2.475,6.266,3.672-.3,7.215-.79,10.544-1.4l-2.767,7.6c-3.263.425-6.762.791-10.412,1.034-2.018,5.9-3.466,10.767-4.713,14.9a25.645,25.645,0,0,1,9.7,7.85L183.8,47.941a39.135,39.135,0,0,0-5.663-6.144c-2.513,5.84-7.515,9.977-16.257,9.977-8.933,0-13.217-3.529-10.892-9.917,2.237-6.145,9.355-10.4,18.16-10.4a28.778,28.778,0,0,1,4.119.244c1.244-3.772,2.6-8.213,4.108-12.532-1.576.061-3.129.061-4.619.061-3.819,0-7.465-.122-11.2-.366l2.634-7.239a108.81,108.81,0,0,0,11.131.547c1.49,0,3.043,0,4.554-.061,1.085-2.98,1.929-5.475,2.394-6.753a26.04,26.04,0,0,0,1.007-4.015h9.259C191.92,2.494,191.259,3.955,190.707,5.294ZM163.583,44.6c3.949,0,6.019-1.948,7.325-5.537.111-.3.243-.67.4-1.1a18.4,18.4,0,0,0-4.937-.669c-3.69,0-6.682,1.46-7.523,3.772C157.939,43.562,160.152,44.6,163.583,44.6Z"/><path class="cls-2" d="M227.818,8.822c-2.65,6.571-8.128,20.2-10.873,27.741-2.237,6.146.917,8.154,5.967,8.154,10.683,0,19.584-5.78,26.659-12.411L253.026,39c-6.269,5.842-18.429,13.994-33.191,13.994-10.617,0-15.886-4.381-12.1-14.785,2.968-8.151,9.439-24.151,11.343-29.384A39.623,39.623,0,0,0,221.226.608L231.605.73C230.287,3.285,228.834,6.389,227.818,8.822Z"/><path class="cls-2" d="M315.651,6.347l4.255,2.082c-7.223,5.353-13.881,12.193-17.344,21.711S300.774,46.5,304.1,51.851l-5.77,2.082c-3.784-5.255-5.593-13.186-1.731-23.793S308.044,11.6,315.651,6.347Z"/><path class="cls-2" d="M325.7,12.245H333.5L320.136,48.976h-7.808Z"/><path class="cls-2" d="M343.105,12.245h7.966l4.215,19.58,1.017,7.931h.263c1.02-3.818,2.156-8.675,3.671-12.839l5.34-14.672h7.385L359.594,48.976h-7.912l-4.144-19.629-1.089-7.882h-.263c-1.075,3.966-2.171,8.575-3.7,12.788l-5.358,14.723h-7.386Z"/><path class="cls-2" d="M388.138,18.392H377.165l2.236-6.147h29.857l-2.237,6.147H395.944L384.812,48.976h-7.806Z"/><path class="cls-2" d="M415.592,12.245h23.949L437.3,18.392H421.163l-3.086,8.476h13.715l-2.236,6.147H415.841l-3.572,9.814h16.72l-2.236,6.147H402.224Z"/><path class="cls-2" d="M448.036,12.245h13.61c8.176,0,13.672,2.727,10.6,11.153a17.074,17.074,0,0,1-11.279,10.558l3.658,15.02h-8.7L452.959,35.1h-5.433l-5.05,13.879h-7.808ZM454.7,29.3c5.012,0,8.529-1.984,9.954-5.9,1.444-3.965-.865-5.3-5.877-5.3h-5.063l-4.077,11.2Z"/><path class="cls-2" d="M484.016,12.245H508.07l-2.237,6.147H489.587L486.1,27.958h13.874L497.74,34.1H483.867l-5.412,14.872h-7.808Z"/><path class="cls-2" d="M522.368,12.245h9.178l-.814,36.731h-8.175l.684-9.418h-12.66l-6.171,9.418H496.5Zm-8.023,21.611h9.283l.3-4.014c.175-3.817.654-8.03.99-11.995h-.264c-2.464,4.014-5.14,8.178-7.689,11.995Z"/><path class="cls-2" d="M540,30.783c4.4-12.1,15.264-19.182,25.127-19.182,4.959,0,8.1,2.23,9.733,4.71L569.1,20.969a7.149,7.149,0,0,0-6.109-3.073c-5.907,0-12.07,4.759-14.939,12.64-2.9,7.981-.646,12.788,5.526,12.788,3.376,0,6.5-1.486,9.388-3.618l2.455,4.561A23.243,23.243,0,0,1,551,49.669C541.139,49.669,535.538,43.027,540,30.783Z"/><path class="cls-2" d="M583.354,12.245H607.3l-2.238,6.147h-16.14l-3.086,8.476h13.715l-2.237,6.147H583.6l-3.573,9.814h16.721l-2.236,6.147h-24.53Z"/><path class="cls-2" d="M603.21,53.933l-4.253-2.082C606.181,46.5,612.838,39.656,616.3,30.14s1.785-16.358-1.54-21.711l5.768-2.082c3.785,5.254,5.592,13.185,1.732,23.793S610.819,48.678,603.21,53.933Z"/><path class="cls-2" d="M673.192,19.99c-1.636,2.868-6.348,11.431-7.907,15.713a21.98,21.98,0,0,0-.83,2.782c1.214-1.455,2.487-2.954,3.64-4.367l2.061,2.1c-2.569,3.555-5.771,8.221-7.1,10.49a16.37,16.37,0,0,0-.961,2.013c-.171.47-.375,1.156-.547,1.755l-5.41.342a54.274,54.274,0,0,1,3.318-14c2.338-6.422,6.384-13.659,8.084-16.955.574-1.2,1.439-2.826,1.984-4.2l6.192.514C675.026,17.078,673.654,19.219,673.192,19.99Zm3.633,20.937c-.685,1.884.626,3.039,5.273,3.039a63.425,63.425,0,0,0,11.84-1.113l-2.011,5.78a74.256,74.256,0,0,1-12.052.813c-7.837,0-10.667-2.612-9.063-7.021a33.652,33.652,0,0,1,2.8-5.567l5.068.472A18.844,18.844,0,0,0,676.825,40.927ZM701.3,19.005l-2.01,5.522a129.941,129.941,0,0,1-19.592,0l1.994-5.479A100.009,100.009,0,0,0,701.3,19.005Z"/><path class="cls-2" d="M726.222,20.375c2.373-.385,4.685-.856,6.65-1.37l-1.626,4.967c-2.283.513-5.31,1.07-8.518,1.5A128.248,128.248,0,0,1,706.307,43.8l-4.546-2.654a112.619,112.619,0,0,0,14.8-15.115c-.836.043-1.611.043-2.386.043-1.868,0-3.72-.043-5.633-.172l1.4-4.965a58.014,58.014,0,0,0,5.951.3c1.366,0,2.749-.043,4.208-.171a47.3,47.3,0,0,0,3.832-7.15l6.07.6C729.134,15.88,727.747,18.062,726.222,20.375Zm7.6,12.931c-.406,1.241-1.017,3.3-1.705,5.436a18.4,18.4,0,0,1,7.437,5.481l-4.72,4.581a22.474,22.474,0,0,0-4.483-4.581l-.157.428c-1.449,3.982-4.895,7.065-11.365,7.065-5.649,0-9.258-2.356-7.544-7.065,1.528-4.2,6.433-7.407,12.766-7.407,1.094,0,2.064.086,3.082.171.971-3.168,2.13-6.978,2.988-9.59h5.7C735.021,29.623,734.458,31.421,733.817,33.306ZM719.8,46.792a5.39,5.39,0,0,0,5.55-3.981c.093-.257.187-.514.312-.858a15.281,15.281,0,0,0-3.535-.428c-2.643,0-4.733,1.114-5.278,2.613C716.269,45.722,717.29,46.792,719.8,46.792ZM734.1,24.014l4.459-4.239a50.163,50.163,0,0,1,9.133,5.824l-4.871,4.5A41.077,41.077,0,0,0,734.1,24.014Z"/><path class="cls-2" d="M767.476,16.564c2.414,0,12.226-.17,14.9-.385a24.382,24.382,0,0,0,3.635-.471l1.574,3.811c-1.282.641-2.6,1.242-3.907,1.969-3.052,1.627-9.207,5.4-12.857,7.535a21.18,21.18,0,0,1,4.5-.47c7.746,0,11.972,4.539,9.7,10.789-2.462,6.764-9.878,12.117-20.9,12.117-6.334,0-10.12-2.74-8.562-7.022,1.262-3.468,5.757-6.679,10.587-6.679,5.65,0,7.883,3.254,7.041,7.321a10.039,10.039,0,0,0,5.9-5.823c1.4-3.853-1.748-6.465-7.123-6.465-6.973,0-12.79,3.468-19.567,8.691l-2.681-4.024c4.123-2.44,11.227-6.808,14.677-8.9,3.268-1.97,9.316-5.566,12.219-7.407-2.339.042-8.72.3-11.182.428-1.261.085-2.766.214-3.861.342l1.843-5.565A31.849,31.849,0,0,0,767.476,16.564Zm-2.724,30.013a26.559,26.559,0,0,0,2.689-.128c.74-2.782-.292-4.581-2.751-4.581a3.809,3.809,0,0,0-3.574,2.056C760.54,45.508,762.019,46.577,764.752,46.577Z"/></g></g></svg>