<svg xmlns="http://www.w3.org/2000/svg" width="659.306" height="60.823" viewBox="0 0 659.306 60.823"><defs><style>.cls-1{fill:#004582;}.cls-2{fill:#fff;}</style></defs><g id="レイヤー_2" data-name="レイヤー 2"><g id="レイヤー_1-2" data-name="レイヤー 1"><path class="cls-1" d="M61.869,42.572A60.484,60.484,0,0,1,51.12,52c.631,1.825,1.7,2.8,3.319,2.8s2.623-1.155,4.7-5.962a11.044,11.044,0,0,0,3.79,3.285c-3.669,6.875-6.146,8.7-11.2,8.7a7.018,7.018,0,0,1-7.1-4.867A72.176,72.176,0,0,1,33.1,60.763a16.45,16.45,0,0,0-2.331-4.624,62.183,62.183,0,0,0,12.805-5.476,47.538,47.538,0,0,1,.742-10.221H37.005c-.352.791-.77,1.582-1.165,2.313a30.074,30.074,0,0,1,5.668,5.6l-5.894,4.805a23.376,23.376,0,0,0-3.479-4.136A35.16,35.16,0,0,1,19.273,60.7a10.3,10.3,0,0,0-2.611-4.745c7-3.589,10.726-9.369,13.609-15.514H26.258l1-2.737-3.9,3.59a65.872,65.872,0,0,0-.58-7.3L13.035,60.763H6.173l8.171-22.45A82.1,82.1,0,0,1,5,49.751a29,29,0,0,0-1-6.145C9.117,38.8,15.237,30.343,19.361,23.1H12.952l2.391-6.571h6.928L26.832,4h6.862L29.133,16.533H34.9a13.812,13.812,0,0,0-1-1.156l4.288-3.954.812.791c2.1-2.556,4.5-5.6,6.03-7.849l4.945,2.069c-2.876,2.92-5.972,6.266-8.411,8.7.382.548.766,1.095,1.042,1.582,2.048-2.069,3.88-4.076,5.45-5.9l3.607,2.008c.976-2.859,1.975-5.78,3.06-8.76h6.8c-1.3,3.406-2.5,6.691-3.61,9.916l2.807-2.555.77.729a96.963,96.963,0,0,0,6.008-7.787l5.031,2.008c-2.92,3.042-5.994,6.327-8.475,8.7.383.547.766,1.095,1.107,1.581,1.96-2.007,3.879-4.076,5.428-5.84l4.359,2.434c-3.985,3.832-8.709,8.273-12.865,11.863l3.973-.244a22.843,22.843,0,0,0-.192-2.494l4.869-1.46a29.559,29.559,0,0,1,.089,9l-5.26,1.825a21.791,21.791,0,0,0,.344-2.373l-5.012.609a14.6,14.6,0,0,1,3.526,3.834L62.8,34.846h4.921l-2.037,5.6H56.622ZM45.322,34.846c.335-1.278.629-2.617.922-3.955l-5,1.642c.135-.548.292-1.156.405-1.825-4.363.426-8.553.913-12.312,1.277l.912-5.353L32.3,26.51c1.8-1.581,3.83-3.406,5.833-5.354a23.714,23.714,0,0,0-3.153-4.5L32.634,23.1H26.742l-.953,2.616c.674,1.885,2.077,6.57,2.7,9.126Zm1.5-13.02a28.742,28.742,0,0,1,.045,6.814c1.163-4.442,2.544-9.126,4.187-13.993-3.962,3.772-8.556,8.031-12.579,11.437l3.584-.243a22.339,22.339,0,0,0-.04-2.737Zm4.165,18.616c-.277,2.008-.445,3.894-.525,5.537a42.561,42.561,0,0,0,5.769-5.537Zm6.505-5.6A21.045,21.045,0,0,0,55.206,32.6l3.776-2.373c-2.072.181-4.039.425-5.918.607l.232-1.7c-.537,2.008-.964,3.895-1.3,5.72ZM55.7,25.537c1.5-1.278,3.156-2.8,4.832-4.381a24.85,24.85,0,0,0-3.386-4.927c-1.131,3.285-2.066,6.387-2.914,9.429Z"/><path class="cls-1" d="M89.871,36.975c-.183-1.278-.53-3.346-.987-5.293L78.277,60.823H71.22l7.639-20.989a80.551,80.551,0,0,1-9.25,10.829,30.154,30.154,0,0,0-.969-7.117c5.416-4.564,11.728-12.838,16.154-20.017l.31-.851H78.111l2.437-6.693H87.54L91.9,4h7.058L94.6,15.985h5.114l-2.437,6.693H92.161l-.353.972a59.929,59.929,0,0,1,3.872,8.214ZM135.531,25.9a103.642,103.642,0,0,1-16.8,22.328c-.53,3.59-.333,5.719.7,5.719.776,0,2.246-2.615,4.5-8.273a10.7,10.7,0,0,0,3.85,3.65c-4.094,8.578-6.813,11.072-11.6,11.072-2.849,0-4.232-2.251-4.541-6.023a64.593,64.593,0,0,1-8.99,5.841,23.217,23.217,0,0,0-3.8-3.954c1.734-.853,3.361-1.765,4.923-2.677h-5.05l5.2-14.3h-2.978c-2.935,7-7.082,14.3-14.171,20.076a13.25,13.25,0,0,0-3.678-3.59A41.042,41.042,0,0,0,95.18,39.287H92.072l2.259-6.206h3.237l3.477-9.552h5.762l-3.477,9.552h2.849l3.52-9.674h5.827l-3.52,9.674h2.719l-2.259,6.206h-2.719l-4.982,13.689a63.592,63.592,0,0,0,7.323-5.537c.971-6.935,3.538-16.123,6.76-26.04H99.619l2.369-6.508h19.034c1.22-3.53,2.5-7.241,3.812-10.829h7.122c-1.394,3.65-2.787,7.3-4.006,10.829h11.33L136.911,21.4h-11.2c-2,6.206-3.715,11.987-4.969,16.854a91.53,91.53,0,0,0,8.755-13.2Zm1.918-20.745a18.29,18.29,0,0,1,2.461,6.936l-6.327,2.8A22.146,22.146,0,0,0,131.62,7.65Z"/><path class="cls-1" d="M188.479,12.9l4.253,2.081c-7.223,5.354-13.88,12.2-17.344,21.711s-1.786,16.358,1.54,21.711l-5.77,2.082c-3.783-5.254-5.592-13.185-1.731-23.793S180.87,18.155,188.479,12.9Z"/><path class="cls-1" d="M198.523,18.8h8.652l.386,17.2c.013,2.28-.132,4.708-.189,7.038h.264c1.692-2.33,3.261-4.758,4.935-7.038L225.32,18.8h8.652L220.6,55.53h-7.122l5.576-15.316c1.262-3.47,3.7-8.576,5.385-12.046h-.263l-6.305,8.626L206.25,52.209h-4.483l-.456-15.415.027-8.626h-.211c-.894,3.47-2.119,8.576-3.382,12.046L192.17,55.53h-7.016Z"/><path class="cls-1" d="M251.067,18.8h9.178l-.814,36.73h-8.176l.684-9.418h-12.66l-6.171,9.418H225.2Zm-8.024,21.612h9.283l.3-4.015c.176-3.817.654-8.031.99-12h-.263c-2.463,4.015-5.141,8.179-7.69,12Z"/><path class="cls-1" d="M268.693,37.339c4.4-12.095,15.263-19.184,25.128-19.184,4.959,0,8.1,2.232,9.733,4.71L297.8,27.524a7.145,7.145,0,0,0-6.108-3.073c-5.908,0-12.072,4.759-14.94,12.64-2.9,7.98-.645,12.789,5.526,12.789,3.376,0,6.5-1.487,9.389-3.619l2.454,4.561a23.243,23.243,0,0,1-14.416,5.4C269.837,56.225,264.237,49.582,268.693,37.339Z"/><path class="cls-1" d="M312.052,18.8h7.808l-5.268,14.474h14.769L334.63,18.8h7.754L329.015,55.53h-7.754l5.773-15.861H312.265L306.491,55.53h-7.807Z"/><path class="cls-1" d="M351.987,18.8H359.8L346.427,55.53h-7.808Z"/><path class="cls-1" d="M369.4,18.8h7.965l4.215,19.58,1.017,7.931h.263c1.021-3.817,2.156-8.675,3.671-12.838l5.34-14.673h7.385L385.885,55.53h-7.912L373.829,35.9,372.74,28.02h-.263c-1.075,3.965-2.171,8.576-3.7,12.789L363.414,55.53h-7.386Z"/><path class="cls-1" d="M408.911,18.8H432.86l-2.238,6.146H414.481L411.4,33.423H425.11l-2.236,6.146H409.159l-3.572,9.815h16.721l-2.237,6.146H395.542Z"/><path class="cls-1" d="M428.767,60.487l-4.253-2.082c7.223-5.353,13.88-12.193,17.343-21.711s1.787-16.357-1.539-21.711l5.769-2.081c3.785,5.253,5.592,13.185,1.731,23.792S436.376,55.233,428.767,60.487Z"/><path class="cls-1" d="M507.887,25.474c4.406-.213,9.1-.6,13.345-1.242L519.38,29.2c-4.548.6-10.276.943-15.244,1.071a49.59,49.59,0,0,1-4.187,4.367,19.378,19.378,0,0,1,5.46-.856c2.779,0,4.653,1.113,4.862,3.3,2.742-1.028,4.92-1.756,7.069-2.526,2.042-.728,3.886-1.412,5.868-2.227l.471,4.967c-1.6.386-4.325,1.241-6.076,1.8-2.332.77-5.272,1.712-8.488,2.911-.826,2.4-1.888,5.565-2.56,7.535h-5.467c.6-1.284,1.4-3.339,2.128-5.224-4.086,1.841-6.517,3.512-7.3,5.653-.857,2.354,1.05,3,5.516,3a87.436,87.436,0,0,0,13.376-1.2l-2.194,5.523a129.019,129.019,0,0,1-13.158.728c-7.153,0-11.846-1.627-9.836-7.151,2-5.48,8.708-8.905,14.822-11.431-.3-1.071-1.384-1.455-2.66-1.455a16.322,16.322,0,0,0-8.182,2.954c-1.835,1.284-3.717,2.826-5.952,4.709l-3.628-3.425A72.987,72.987,0,0,0,498.4,30.4H497.8c-1.868,0-5.163-.086-7.608-.256l1.825-5.01a58.812,58.812,0,0,0,7.832.514h2.186a31.628,31.628,0,0,0,2.7-4.924l5.843.471C509.967,22.263,509.133,23.677,507.887,25.474Z"/><path class="cls-1" d="M538.575,30.784c3.883-1.028,14.3-4.11,20.951-4.11,8.247,0,13.1,4.452,10.213,12.372-3.537,9.72-15.637,15.928-31.956,16.7l-.57-5.694c12.456-.3,23.331-3.64,26.042-11.089,1.465-4.024-.374-7.107-5.842-7.107-6.7,0-19.055,4.282-24.494,6.208l-.416-5.995C534.283,31.811,536.78,31.211,538.575,30.784Z"/><path class="cls-1" d="M597.34,26.931c2.373-.386,4.685-.857,6.65-1.37l-1.626,4.965c-2.283.515-5.31,1.071-8.518,1.5a128.2,128.2,0,0,1-16.421,18.326L572.879,47.7a112.435,112.435,0,0,0,14.8-15.114c-.836.044-1.611.044-2.386.044-1.868,0-3.72-.044-5.633-.172l1.4-4.967a58.039,58.039,0,0,0,5.951.3c1.366,0,2.749-.043,4.208-.171a47.353,47.353,0,0,0,3.833-7.149l6.069.6C600.253,22.435,598.865,24.618,597.34,26.931Zm7.6,12.929c-.407,1.242-1.017,3.3-1.706,5.438a18.412,18.412,0,0,1,7.437,5.479l-4.72,4.581a22.447,22.447,0,0,0-4.483-4.581c-.047.129-.11.3-.156.429-1.45,3.982-4.895,7.065-11.366,7.065-5.648,0-9.257-2.355-7.544-7.065,1.529-4.2,6.433-7.407,12.766-7.407,1.094,0,2.065.086,3.082.172.971-3.169,2.13-6.979,2.989-9.591h5.7C606.14,36.178,605.576,37.977,604.936,39.86ZM590.915,53.348a5.39,5.39,0,0,0,5.55-3.984l.311-.855a15.267,15.267,0,0,0-3.535-.428c-2.642,0-4.732,1.113-5.278,2.611C587.386,52.276,588.409,53.348,590.915,53.348ZM605.22,30.569l4.459-4.239a50.172,50.172,0,0,1,9.134,5.823l-4.872,4.5A41.048,41.048,0,0,0,605.22,30.569Z"/><path class="cls-1" d="M651.491,27.615c-3.726,2.226-11.375,6.593-15.27,9.034-3.178,1.97-3.3,2.441-1.531,4.453,2.436,2.7,8.709,9.12,11.815,13.358L639.6,59.041c-.793-1.327-1.706-2.7-2.561-3.981a146.767,146.767,0,0,0-9.477-11.389c-3.186-3.64-2.041-5.908,3.869-9.505,4.55-2.74,12.523-7.492,16.634-10.275a51.191,51.191,0,0,0,4.788-3.64l3.725,4.41C654.79,25.688,652.881,26.8,651.491,27.615ZM653,37.12l-4.281,1.5a50.205,50.205,0,0,0-1.384-6.466l4.16-1.413A54.955,54.955,0,0,1,653,37.12Zm6.308-2.056-4.221,1.457a48.024,48.024,0,0,0-1.612-6.337l4.265-1.455A53.376,53.376,0,0,1,659.306,35.064Z"/><path class="cls-2" d="M57.869,38.571A60.519,60.519,0,0,1,47.12,48c.63,1.825,1.7,2.8,3.319,2.8s2.622-1.155,4.7-5.962a11.035,11.035,0,0,0,3.79,3.285c-3.669,6.875-6.146,8.7-11.2,8.7a7.018,7.018,0,0,1-7.1-4.867,72.176,72.176,0,0,1-11.526,4.807,16.477,16.477,0,0,0-2.331-4.624,62.183,62.183,0,0,0,12.805-5.476,47.538,47.538,0,0,1,.742-10.221H33.005c-.352.791-.77,1.582-1.165,2.313a30.065,30.065,0,0,1,5.667,5.6l-5.893,4.805a23.376,23.376,0,0,0-3.479-4.136A35.168,35.168,0,0,1,15.273,56.7a10.313,10.313,0,0,0-2.611-4.745c7-3.589,10.726-9.369,13.609-15.514H22.258l1-2.737-3.9,3.59a65.872,65.872,0,0,0-.58-7.3L9.035,56.762H2.172l8.172-22.45A82.1,82.1,0,0,1,1,45.75,29,29,0,0,0,0,39.6C5.117,34.8,11.237,26.342,15.361,19.1H8.952l2.391-6.571h6.928L22.832,0h6.862L25.133,12.532H30.9a13.812,13.812,0,0,0-1-1.156L34.18,7.422l.812.791c2.1-2.556,4.5-5.6,6.03-7.849l4.944,2.069c-2.875,2.921-5.971,6.266-8.41,8.7.382.548.766,1.1,1.042,1.582,2.048-2.069,3.879-4.076,5.45-5.9l3.607,2.008c.976-2.859,1.975-5.78,3.06-8.76h6.8c-1.3,3.406-2.5,6.691-3.61,9.916L56.71,7.422l.77.729A96.963,96.963,0,0,0,63.488.364l5.031,2.008c-2.92,3.042-5.994,6.327-8.476,8.7l1.108,1.581c1.96-2.007,3.879-4.076,5.428-5.84l4.359,2.434c-3.985,3.832-8.709,8.274-12.865,11.863l3.973-.244a22.843,22.843,0,0,0-.192-2.494l4.869-1.46a29.559,29.559,0,0,1,.089,9l-5.261,1.825a21.534,21.534,0,0,0,.345-2.373l-5.012.609a14.6,14.6,0,0,1,3.526,3.834L58.8,30.845h4.921l-2.037,5.6H52.622ZM41.322,30.845c.335-1.278.629-2.616.922-3.955l-5,1.642c.135-.548.292-1.156.405-1.825-4.363.426-8.553.913-12.312,1.277l.912-5.353,2.052-.122c1.8-1.581,3.829-3.406,5.833-5.354a23.76,23.76,0,0,0-3.153-4.5L28.633,19.1H22.742l-.953,2.616c.673,1.885,2.077,6.57,2.7,9.126Zm1.5-13.02a28.742,28.742,0,0,1,.045,6.814c1.163-4.442,2.544-9.126,4.187-13.993-3.963,3.772-8.556,8.031-12.58,11.437l3.585-.243a22.339,22.339,0,0,0-.04-2.737Zm4.165,18.616c-.277,2.008-.445,3.894-.525,5.537a42.561,42.561,0,0,0,5.769-5.537Zm6.505-5.6a21.045,21.045,0,0,0-2.288-2.251l3.776-2.373c-2.072.181-4.039.425-5.918.607l.232-1.7c-.537,2.008-.964,3.895-1.3,5.72ZM51.7,21.536c1.5-1.278,3.156-2.8,4.832-4.381a24.892,24.892,0,0,0-3.386-4.927c-1.131,3.285-2.066,6.387-2.914,9.429Z"/><path class="cls-2" d="M85.871,32.974c-.183-1.278-.53-3.346-.987-5.293L74.277,56.822H67.22l7.639-20.989a80.551,80.551,0,0,1-9.25,10.829,30.1,30.1,0,0,0-.97-7.117c5.416-4.564,11.729-12.838,16.155-20.017l.31-.851H74.111l2.436-6.693H83.54L87.9,0h7.058L90.6,11.984h5.114l-2.436,6.693H88.161l-.354.972a59.824,59.824,0,0,1,3.873,8.214ZM131.531,21.9a103.674,103.674,0,0,1-16.8,22.329c-.53,3.589-.334,5.718.7,5.718.777,0,2.247-2.615,4.5-8.273a10.7,10.7,0,0,0,3.85,3.65c-4.094,8.578-6.813,11.072-11.6,11.072-2.849,0-4.232-2.25-4.541-6.023a64.652,64.652,0,0,1-8.99,5.841,23.187,23.187,0,0,0-3.805-3.954c1.735-.853,3.362-1.765,4.924-2.677h-5.05l5.2-14.3H96.942c-2.935,7-7.082,14.3-14.171,20.076a13.25,13.25,0,0,0-3.678-3.59A41.051,41.051,0,0,0,91.18,35.286H88.072l2.259-6.206h3.237l3.477-9.552h5.762L99.33,29.08h2.849l3.52-9.674h5.827l-3.52,9.674h2.719l-2.259,6.206h-2.719l-4.982,13.689a63.679,63.679,0,0,0,7.323-5.537c.971-6.935,3.538-16.123,6.759-26.04H95.619l2.369-6.508h19.034c1.22-3.53,2.5-7.241,3.812-10.829h7.122c-1.394,3.65-2.787,7.3-4.006,10.829h11.33L132.911,17.4h-11.2c-2,6.206-3.714,11.987-4.968,16.854a91.7,91.7,0,0,0,8.755-13.2Zm1.918-20.745a18.29,18.29,0,0,1,2.461,6.936l-6.327,2.8a22.171,22.171,0,0,0-1.963-7.241Z"/><path class="cls-2" d="M184.478,8.9l4.254,2.081c-7.224,5.354-13.88,12.2-17.344,21.711S169.6,49.051,172.928,54.4l-5.77,2.082c-3.783-5.254-5.592-13.185-1.731-23.793S176.87,14.154,184.478,8.9Z"/><path class="cls-2" d="M194.523,14.8h8.651l.387,17.2c.013,2.28-.132,4.708-.189,7.038h.264c1.692-2.33,3.261-4.758,4.935-7.038L221.32,14.8h8.651L216.6,51.529h-7.122l5.575-15.316c1.263-3.47,3.7-8.576,5.386-12.046h-.263l-6.305,8.626L202.25,48.208h-4.484l-.455-15.415.027-8.626h-.211c-.894,3.47-2.12,8.576-3.382,12.046L188.17,51.529h-7.016Z"/><path class="cls-2" d="M247.067,14.8h9.178l-.814,36.73h-8.176l.684-9.418h-12.66l-6.171,9.418H221.2Zm-8.025,21.612h9.284l.3-4.015c.176-3.817.654-8.031.99-12h-.263c-2.464,4.015-5.141,8.179-7.69,12Z"/><path class="cls-2" d="M264.693,33.338c4.4-12.1,15.263-19.184,25.128-19.184,4.959,0,8.1,2.232,9.733,4.71L293.8,23.523a7.145,7.145,0,0,0-6.108-3.073c-5.908,0-12.072,4.759-14.94,12.64-2.9,7.98-.645,12.789,5.526,12.789,3.376,0,6.5-1.487,9.389-3.619l2.454,4.561a23.243,23.243,0,0,1-14.416,5.4C265.837,52.224,260.237,45.581,264.693,33.338Z"/><path class="cls-2" d="M308.052,14.8h7.808l-5.268,14.474h14.769L330.63,14.8h7.754l-13.369,36.73h-7.754l5.773-15.861H308.265l-5.774,15.861h-7.807Z"/><path class="cls-2" d="M347.987,14.8H355.8l-13.369,36.73h-7.808Z"/><path class="cls-2" d="M365.4,14.8h7.965l4.215,19.58,1.017,7.931h.263c1.021-3.817,2.156-8.675,3.671-12.838l5.34-14.673h7.385l-13.368,36.73h-7.912L369.829,31.9l-1.089-7.881h-.263c-1.075,3.965-2.171,8.576-3.7,12.789l-5.358,14.721h-7.386Z"/><path class="cls-2" d="M404.911,14.8H428.86l-2.238,6.146H410.481L407.4,29.422H421.11l-2.236,6.146H405.159l-3.572,9.815h16.721l-2.237,6.146H391.542Z"/><path class="cls-2" d="M424.767,56.486,420.514,54.4c7.223-5.353,13.88-12.193,17.343-21.711s1.787-16.357-1.539-21.711L442.087,8.9c3.785,5.253,5.592,13.185,1.731,23.792S432.376,51.232,424.767,56.486Z"/><path class="cls-2" d="M503.887,21.473c4.406-.213,9.1-.6,13.345-1.242L515.38,25.2c-4.548.6-10.276.943-15.244,1.071a49.59,49.59,0,0,1-4.187,4.367,19.378,19.378,0,0,1,5.46-.856c2.779,0,4.653,1.113,4.862,3.3,2.742-1.028,4.92-1.756,7.069-2.526,2.042-.728,3.886-1.412,5.868-2.227l.471,4.967c-1.6.386-4.325,1.241-6.076,1.8-2.332.77-5.272,1.712-8.488,2.911-.826,2.4-1.888,5.565-2.56,7.535h-5.467c.6-1.284,1.4-3.339,2.128-5.223-4.086,1.84-6.517,3.511-7.3,5.652-.857,2.354,1.05,3,5.516,3a87.436,87.436,0,0,0,13.376-1.2l-2.194,5.523a129.019,129.019,0,0,1-13.158.728c-7.153,0-11.846-1.627-9.836-7.151,2-5.48,8.708-8.905,14.822-11.431-.3-1.071-1.384-1.455-2.66-1.455A16.322,16.322,0,0,0,489.6,36.93c-1.835,1.284-3.717,2.826-5.952,4.709l-3.628-3.425A72.987,72.987,0,0,0,494.4,26.4H493.8c-1.868,0-5.163-.085-7.608-.256l1.825-5.01a58.812,58.812,0,0,0,7.832.514h2.186a31.628,31.628,0,0,0,2.7-4.924l5.843.471C505.967,18.262,505.133,19.676,503.887,21.473Z"/><path class="cls-2" d="M534.575,26.783c3.883-1.028,14.3-4.11,20.951-4.11,8.247,0,13.1,4.452,10.213,12.372-3.537,9.72-15.637,15.928-31.956,16.7l-.57-5.694c12.456-.3,23.331-3.64,26.042-11.089,1.465-4.024-.374-7.107-5.842-7.107-6.7,0-19.055,4.282-24.494,6.208l-.416-6C530.283,27.81,532.78,27.21,534.575,26.783Z"/><path class="cls-2" d="M593.34,22.93c2.373-.386,4.685-.857,6.65-1.37l-1.626,4.965c-2.283.515-5.31,1.071-8.518,1.5A128.2,128.2,0,0,1,573.425,46.35l-4.546-2.656a112.435,112.435,0,0,0,14.8-15.114c-.836.044-1.611.044-2.386.044-1.868,0-3.72-.044-5.633-.172l1.4-4.967a58.039,58.039,0,0,0,5.951.3c1.366,0,2.749-.043,4.208-.171a47.353,47.353,0,0,0,3.833-7.149l6.069.6C596.253,18.434,594.865,20.617,593.34,22.93Zm7.6,12.929c-.407,1.242-1.017,3.3-1.706,5.438a18.412,18.412,0,0,1,7.437,5.479l-4.72,4.581a22.447,22.447,0,0,0-4.483-4.581c-.047.129-.11.3-.156.429-1.45,3.983-4.895,7.065-11.366,7.065-5.648,0-9.257-2.355-7.544-7.065,1.529-4.2,6.433-7.407,12.766-7.407,1.094,0,2.065.086,3.082.172.971-3.169,2.13-6.979,2.989-9.591h5.7C602.14,32.177,601.576,33.976,600.936,35.859ZM586.915,49.347a5.39,5.39,0,0,0,5.55-3.984l.311-.855a15.267,15.267,0,0,0-3.535-.428c-2.642,0-4.732,1.113-5.278,2.611C583.386,48.275,584.409,49.347,586.915,49.347ZM601.22,26.568l4.459-4.239a50.172,50.172,0,0,1,9.134,5.823l-4.872,4.5A41.084,41.084,0,0,0,601.22,26.568Z"/><path class="cls-2" d="M647.491,23.614c-3.726,2.226-11.375,6.593-15.27,9.034-3.178,1.97-3.3,2.441-1.531,4.453,2.436,2.7,8.709,9.12,11.815,13.358L635.6,55.04c-.793-1.327-1.706-2.7-2.561-3.981A146.767,146.767,0,0,0,623.56,39.67c-3.186-3.64-2.041-5.908,3.869-9.505,4.55-2.74,12.523-7.492,16.634-10.275a51.191,51.191,0,0,0,4.788-3.64l3.725,4.41C650.79,21.688,648.881,22.8,647.491,23.614Zm1.507,9.5-4.281,1.5a50.205,50.205,0,0,0-1.384-6.466l4.16-1.413A54.955,54.955,0,0,1,649,33.119Zm6.308-2.056-4.221,1.457a48.024,48.024,0,0,0-1.612-6.337l4.265-1.455A53.424,53.424,0,0,1,655.306,31.063Z"/></g></g></svg>