<svg xmlns="http://www.w3.org/2000/svg" width="337.686" height="59.088" viewBox="0 0 337.686 59.088"><defs><style>.cls-1{fill:#004582;}.cls-2{fill:#fff;}</style></defs><g id="レイヤー_2" data-name="レイヤー 2"><g id="レイヤー_1-2" data-name="レイヤー 1"><path class="cls-1" d="M56.055,4c-.419.974-.927,2.19-1.457,3.468-2.537,8.4-8.844,34.616,11.429,45.264a41.625,41.625,0,0,0-8.192,6.144C45.684,52.063,42.994,39.53,43.442,28.335A88.165,88.165,0,0,1,8.371,58.876,15.445,15.445,0,0,0,4,53.1C34.727,39.651,43.874,12.031,47.25,4Z"/><path class="cls-1" d="M127.632,11.5l4.254,2.081c-7.225,5.354-13.881,12.194-17.345,21.711s-1.787,16.358,1.54,21.711l-5.769,2.082C106.527,53.833,104.72,45.9,108.58,35.3S120.022,16.756,127.632,11.5Z"/><path class="cls-1" d="M137.676,17.4h8.651l.387,17.2c.014,2.28-.132,4.708-.189,7.038h.264c1.692-2.33,3.262-4.758,4.936-7.038l12.748-17.2h8.651l-13.368,36.73h-7.121l5.574-15.317c1.263-3.469,3.7-8.575,5.387-12.045h-.264l-6.305,8.625L145.4,50.81h-4.483l-.455-15.416.027-8.625h-.211c-.894,3.47-2.12,8.576-3.383,12.045l-5.574,15.317h-7.015Z"/><path class="cls-1" d="M190.22,17.4H199.4l-.813,36.73h-8.176l.685-9.418h-12.66l-6.171,9.418H164.35ZM182.2,39.012h9.284l.3-4.014c.176-3.817.655-8.031.991-12h-.264c-2.464,4.015-5.141,8.179-7.69,12Z"/><path class="cls-1" d="M216.545,17.4h7.966l4.215,19.58,1.016,7.931h.264c1.019-3.817,2.155-8.675,3.671-12.839l5.34-14.672H246.4l-13.368,36.73h-7.912L220.977,34.5l-1.088-7.881h-.264c-1.074,3.965-2.171,8.575-3.7,12.788l-5.359,14.722h-7.385Z"/><path class="cls-1" d="M243.471,59.088l-4.253-2.082c7.222-5.353,13.88-12.194,17.344-21.711s1.786-16.357-1.54-21.711L260.79,11.5c3.785,5.253,5.593,13.185,1.732,23.792S251.08,53.833,243.471,59.088Z"/><path class="cls-1" d="M319.48,31.868c4.484-2.056,9.119-3.9,11.681-5.053a45.422,45.422,0,0,0,5.188-2.612l1.337,4.967c-1.648.77-3.372,1.5-5.353,2.312-3.309,1.327-9.953,3.81-15.019,6.337-4.638,2.354-8.079,4.795-9.169,7.792-1.123,3.083,1.43,4.71,7.762,4.71a83.578,83.578,0,0,0,15.476-1.585L329.048,54.9a97.544,97.544,0,0,1-15.014,1.07c-9.068,0-15.091-2.354-12.41-9.719,1.714-4.71,6.2-8.263,11.678-11.3a112.781,112.781,0,0,1-1.69-12.759l6.491-2.183A73.6,73.6,0,0,0,319.48,31.868Z"/><path class="cls-2" d="M52.055,0c-.419.974-.927,2.19-1.457,3.468-2.537,8.4-8.844,34.616,11.429,45.264a41.625,41.625,0,0,0-8.192,6.144C41.684,48.063,38.994,35.53,39.442,24.335A88.165,88.165,0,0,1,4.371,54.876,15.445,15.445,0,0,0,0,49.1C30.727,35.651,39.874,8.031,43.25,0Z"/><path class="cls-2" d="M123.632,7.5l4.254,2.081c-7.225,5.354-13.881,12.194-17.345,21.711s-1.787,16.358,1.54,21.711l-5.769,2.082C102.527,49.833,100.72,41.9,104.58,31.3S116.022,12.756,123.632,7.5Z"/><path class="cls-2" d="M133.676,13.4h8.651l.387,17.2c.014,2.28-.132,4.708-.189,7.038h.264c1.692-2.33,3.262-4.758,4.936-7.038l12.748-17.2h8.651l-13.368,36.73h-7.121l5.574-15.317c1.263-3.469,3.7-8.575,5.387-12.045h-.264l-6.305,8.625L141.4,46.81h-4.483l-.455-15.416.027-8.625h-.211c-.894,3.47-2.12,8.576-3.383,12.045l-5.574,15.317h-7.015Z"/><path class="cls-2" d="M186.22,13.4H195.4l-.813,36.73h-8.176l.685-9.418h-12.66l-6.171,9.418H160.35ZM178.2,35.012h9.284l.3-4.014c.176-3.817.655-8.031.991-12h-.264c-2.464,4.015-5.141,8.179-7.69,12Z"/><path class="cls-2" d="M212.545,13.4h7.966l4.215,19.58,1.016,7.931h.264c1.019-3.817,2.155-8.675,3.671-12.839l5.34-14.672H242.4l-13.368,36.73h-7.912L216.977,30.5l-1.088-7.881h-.264c-1.074,3.965-2.171,8.575-3.7,12.788l-5.359,14.722h-7.385Z"/><path class="cls-2" d="M239.471,55.088l-4.253-2.082c7.222-5.353,13.88-12.194,17.344-21.711s1.786-16.357-1.54-21.711L256.79,7.5c3.785,5.253,5.593,13.185,1.732,23.792S247.08,49.833,239.471,55.088Z"/><path class="cls-2" d="M315.48,27.868c4.484-2.056,9.119-3.9,11.681-5.053a45.422,45.422,0,0,0,5.188-2.612l1.337,4.967c-1.648.77-3.372,1.5-5.353,2.312-3.309,1.327-9.953,3.81-15.019,6.337-4.638,2.354-8.079,4.795-9.169,7.792-1.123,3.083,1.43,4.71,7.762,4.71a83.578,83.578,0,0,0,15.476-1.585L325.048,50.9a97.544,97.544,0,0,1-15.014,1.07c-9.068,0-15.091-2.354-12.41-9.719,1.714-4.71,6.2-8.263,11.678-11.3a112.781,112.781,0,0,1-1.69-12.759l6.491-2.183A73.6,73.6,0,0,0,315.48,27.868Z"/></g></g></svg>