<svg xmlns="http://www.w3.org/2000/svg" width="23.16" height="17.37" viewBox="0 0 23.16 17.37"><defs><style>.cls-1{fill:#3298dc;}</style></defs><g id="レイヤー_2" data-name="レイヤー 2"><g id="レイヤー_1-2" data-name="レイヤー 1"><path class="cls-1" d="M20.989,0H2.171A2.171,2.171,0,0,0,0,2.171V15.2A2.171,2.171,0,0,0,2.171,17.37H20.989A2.171,2.171,0,0,0,23.16,15.2V2.171A2.171,2.171,0,0,0,20.989,0Zm0,2.171V4.017c-1.014.826-2.631,2.11-6.088,4.817-.762.6-2.271,2.039-3.321,2.022-1.05.017-2.559-1.423-3.321-2.022C4.8,6.128,3.186,4.843,2.171,4.017V2.171ZM2.171,15.2V6.8c1.037.826,2.507,1.984,4.747,3.739.989.778,2.72,2.5,4.662,2.486,1.932.01,3.642-1.683,4.662-2.486,2.24-1.754,3.71-2.913,4.747-3.739v8.4Z"/></g></g></svg>